<?xml version="1.0" encoding="utf-8"?>
<!-- Generator: Adobe Illustrator 25.0.0, SVG Export Plug-In . SVG Version: 6.00 Build 0)  -->
<svg version="1.1" id="Layer_1" xmlns="http://www.w3.org/2000/svg" xmlns:xlink="http://www.w3.org/1999/xlink" x="0px" y="0px"
	 viewBox="0 0 799 768" style="enable-background:new 0 0 799 768;" xml:space="preserve">
<style type="text/css">
	.st0{fill:#4338C9;}
	.st1{fill:#4338C9;stroke:#FFFFFF;stroke-width:7;stroke-miterlimit:10;}
</style>
<polygon class="st0" points="545.6,196 528.1,176.5 534.3,169.7 548.1,190.1 557.6,169.7 567.7,172.9 552.2,193.7 567.7,207.3 
	561.8,211.8 549.7,199.6 538.9,220.4 532.6,214.5 "/>
<g>
	<path class="st0" d="M101,238.5c-21.2,0-38.5-17.3-38.5-38.5s17.3-38.5,38.5-38.5s38.5,17.3,38.5,38.5S122.2,238.5,101,238.5z
		 M101,170.5c-16.3,0-29.5,13.2-29.5,29.5s13.2,29.5,29.5,29.5s29.5-13.2,29.5-29.5S117.3,170.5,101,170.5z"/>
</g>
<circle class="st0" cx="100.5" cy="199.5" r="15"/>
<path class="st0" d="M742,39H352.5l-15.1,18.1L316,39h-94v379h256.1l9.3-29.2H244.8v-319h472.8v319H584.4
	c-5.2,7.7-12.1,14-20.7,14.7l-13.2,5.1c-0.4,1.9-1,5.2-1.9,9.4H742V206.1l-8.8-7.5L742,188V94.1L730.1,84L742,69.8V39z"/>
<path class="st0" d="M249.4,75.1v307.5h240l4.5-14c-3.4-4.8-12.7-19.9-8.4-34.3c0.3-1.1,0.7-2.2,1.2-3.2l-57.2-29.6l-24.7-31.4
	l-27.4-5.5v-58.2l34.8-4.6l50.3-54.5l17.4-12H510l-6.4-13.9l22.9-5.5h34.8l16.5,19.4l22.9,12l2.7,23.1l42.1,7.4l-21,58.9l-32.9,48.3
	l-40.4,7.2c-2.5,7.2-5.2,13.8-7.4,18.9c3.6-1.2,7.8-1.8,11.7-0.2c4.2,1.6,7.2,5.3,9,10.8c3.3-1.5,8-2.7,12.2-0.5
	c4.5,2.3,7,7.6,7.5,16.1c2.9-1.1,6.6-1.7,9.6,0.2c4.6,2.9,5.9,9.8,3.8,21.2l-0.1,0.2c-0.2,0.9-3.3,12.6-9.3,23.8h123.4V75.1H249.4z
	 M361.7,121.3c-1.7,1.1-6.5,4.8-6.1,7.5c0.2,1.5,2.2,2.7,5.7,3.7l-0.6,2.5c-4.6-1.2-7.2-3.1-7.6-5.7c-0.4-2.8,1.8-5.6,4-7.6
	c-7.4,0.8-11.2,4.7-14.6,8.1c-2.6,2.7-5.2,5.2-8.8,5.2c-1.1,0-2.3-0.2-3.6-0.8c-3.3-1.3-5.2-3.2-5.5-5.6c-0.3-2,0.5-4.3,2.4-6.6
	c0.1-0.1,0.2-0.2,0.3-0.4c-7.2,0.7-10.5,3.8-13.8,6.7c-3.5,3.2-7.2,6.5-15,5.9c-4.6-0.3-7.1-1.6-7.8-4c-0.8-2.9,1.9-6.3,4.3-8.6
	c-13,1.5-18.5,11.8-18.6,11.9l-2.3-1.2c0.3-0.6,7.3-13.7,24.5-13.4l3.7,0.1l-3,2.2c-2.9,2.2-6.8,6.3-6.2,8.3
	c0.3,1.1,2.3,1.9,5.6,2.1c6.8,0.5,9.7-2.2,13.2-5.2c3.9-3.5,8.3-7.5,18.8-7.5c0,0,0,0,0,0l3.7,0l-2.9,2.3c-1.3,1.1-4.7,4.4-4.3,7
	c0.2,1.4,1.5,2.6,4,3.6c4,1.6,6.1-0.2,9.7-3.9c3.9-3.9,9.2-9.4,20.4-9l4.2,0.1L361.7,121.3z M687.3,105.3c-1.7,1.1-6.5,4.8-6.1,7.5
	c0.2,1.5,2.2,2.7,5.7,3.7l-0.6,2.5c-4.6-1.2-7.2-3.1-7.6-5.7c-0.4-2.8,1.8-5.6,4-7.6c-7.4,0.8-11.2,4.7-14.6,8.1
	c-2.6,2.7-5.2,5.2-8.8,5.2c-1.1,0-2.3-0.2-3.6-0.8c-3.3-1.3-5.2-3.2-5.5-5.6c-0.3-2,0.5-4.3,2.4-6.6c0.1-0.1,0.2-0.2,0.3-0.4
	c-7.2,0.7-10.5,3.8-13.8,6.7c-3.5,3.2-7.2,6.5-15,5.9c-4.6-0.3-7.1-1.6-7.8-4c-0.8-2.9,1.9-6.3,4.3-8.6c-13,1.5-18.5,11.8-18.6,11.9
	l-2.3-1.2c0.3-0.6,7.3-13.7,24.5-13.4l3.7,0.1l-3,2.2c-2.9,2.2-6.8,6.3-6.2,8.3c0.3,1.1,2.3,1.9,5.6,2.1c6.8,0.5,9.7-2.2,13.2-5.2
	c3.9-3.5,8.3-7.5,18.8-7.5c0,0,0,0,0,0l3.7,0l-2.9,2.3c-1.3,1.1-4.7,4.4-4.3,7c0.2,1.4,1.5,2.6,4,3.6c4,1.6,6.1-0.2,9.7-3.9
	c3.9-3.9,9.2-9.4,20.4-9l4.2,0.1L687.3,105.3z"/>
<path class="st1" d="M388,470.9l-33-41.8l-4,16.9l-58.1-16.9v16.4l-48.1,9.5l12.2,17.4C215.3,495.9,187,540.6,187,592
	c0,75.7,61.3,137,137,137s137-61.3,137-137C461,539.5,431.4,493.9,388,470.9z"/>
<g>
	<path class="st0" d="M183.5,592c0-25.6,7-50.3,19.7-71.6c-1.4,1-2.8,2.1-4.1,3.2L151,368c0,0,28-37-12-51c0,0-8.4-47.9-14-63
		c-7-19-25-15-28,0c-4.2,20.8,17,65,17,65s-21-17-25,8c0,0-19-15-18,16c0,0-18-14-13,15c0,0,10,41,30,42l15,6c0,0,25.9,145.4,65,202
		c4.2,22.7,17.1,42.5,35.2,55.6C190.7,642.6,183.5,618.1,183.5,592z"/>
	<path class="st0" d="M580.6,343c1-31-18.7-16-18.7-16c-4.1-25-25.9-8-25.9-8s21.9-44.2,17.6-65c-3.1-15-21.8-19-29,0
		c-5.8,15.1-14.5,63-14.5,63c-41.5,14-12.4,51-12.4,51l-49.7,155.3c-0.9-0.7-1.8-1.4-2.7-2.1c12.3,21.1,19.1,45.4,19.1,70.8
		c0,25.9-7,50.1-19.3,70.9c17.3-12.9,29.8-31.9,34.1-53.8c41-55.8,68.1-203.1,68.1-203.1l15.5-6c20.7-1,31.1-42,31.1-42
		C599.3,329,580.6,343,580.6,343z"/>
</g>
</svg>
