<?xml version="1.0" encoding="utf-8"?>
<!-- Generator: Adobe Illustrator 25.0.0, SVG Export Plug-In . SVG Version: 6.00 Build 0)  -->
<svg version="1.1" id="Layer_1" xmlns="http://www.w3.org/2000/svg" xmlns:xlink="http://www.w3.org/1999/xlink" x="0px" y="0px"
	 viewBox="0 0 410 197" style="enable-background:new 0 0 410 197;" xml:space="preserve">
<style type="text/css">
	.st0{fill:#FFFFFF;}
</style>
<path class="st0" d="M50.2,78.5h45.7c1.4,0,2.6-1.2,2.6-2.6V49.3c0-1.4-1.2-2.6-2.6-2.6H50.2c-1.4,0-2.6,1.2-2.6,2.6V76
	C47.6,77.4,48.8,78.5,50.2,78.5z"/>
<path class="st0" d="M130.2,91.5h45.7c1.4,0,2.6-1.2,2.6-2.6V62.3c0-1.4-1.2-2.6-2.6-2.6h-45.7c-1.4,0-2.6,1.2-2.6,2.6V89
	C127.6,90.4,128.8,91.5,130.2,91.5z"/>
<path class="st0" d="M255.2,139.5h45.7c1.4,0,2.6-1.2,2.6-2.6v-26.7c0-1.4-1.2-2.6-2.6-2.6h-45.7c-1.4,0-2.6,1.2-2.6,2.6V137
	C252.6,138.4,253.8,139.5,255.2,139.5z"/>
<path class="st0" d="M46,107.3h22.6c0.8,0,1.4-0.6,1.4-1.4V92.8c0-0.8-0.6-1.4-1.4-1.4H46c-0.8,0-1.4,0.6-1.4,1.4v13.1
	C44.5,106.7,45.2,107.3,46,107.3z"/>
<path class="st0" d="M116,45.3h22.6c0.8,0,1.4-0.6,1.4-1.4V30.8c0-0.8-0.6-1.4-1.4-1.4H116c-0.8,0-1.4,0.6-1.4,1.4v13.1
	C114.5,44.7,115.2,45.3,116,45.3z"/>
<path class="st0" d="M84,121.3h22.6c0.8,0,1.4-0.6,1.4-1.4v-13.1c0-0.8-0.6-1.4-1.4-1.4H84c-0.8,0-1.4,0.6-1.4,1.4v13.1
	C82.5,120.7,83.2,121.3,84,121.3z"/>
<path class="st0" d="M346,40.3h22.6c0.8,0,1.4-0.6,1.4-1.4V25.8c0-0.8-0.6-1.4-1.4-1.4H346c-0.8,0-1.4,0.6-1.4,1.4v13.1
	C344.5,39.7,345.2,40.3,346,40.3z"/>
<path class="st0" d="M282,172.3h22.6c0.8,0,1.4-0.6,1.4-1.4v-13.1c0-0.8-0.6-1.4-1.4-1.4H282c-0.8,0-1.4,0.6-1.4,1.4v13.1
	C280.5,171.7,281.2,172.3,282,172.3z"/>
<path class="st0" d="M201,99.3h22.6c0.8,0,1.4-0.6,1.4-1.4V84.8c0-0.8-0.6-1.4-1.4-1.4H201c-0.8,0-1.4,0.6-1.4,1.4v13.1
	C199.5,98.7,200.2,99.3,201,99.3z"/>
<path class="st0" d="M74.9,131.6h-22c-1,0-1.7,0.8-1.7,1.7v12.5c0,1,0.8,1.7,1.7,1.7h22c1,0,1.7-0.8,1.7-1.7v-12.5
	C76.6,132.4,75.8,131.6,74.9,131.6z"/>
<path class="st0" d="M46.1,115.7h-16c-0.8,0-1.5,0.7-1.5,1.5v8.9c0,0.8,0.7,1.5,1.5,1.5h16c0.8,0,1.5-0.7,1.5-1.5v-8.9
	C47.6,116.4,47,115.7,46.1,115.7z"/>
<path class="st0" d="M52.1,15.7h-16c-0.8,0-1.5,0.7-1.5,1.5v8.9c0,0.8,0.7,1.5,1.5,1.5h16c0.8,0,1.5-0.7,1.5-1.5v-8.9
	C53.6,16.4,53,15.7,52.1,15.7z"/>
<path class="st0" d="M126.1,172.5h95.5c3,0,5.4-2.4,5.4-5.4v-55.8c0-3-2.4-5.4-5.4-5.4h-95.5c-3,0-5.4,2.4-5.4,5.4v55.8
	C120.7,170.1,123.1,172.5,126.1,172.5z"/>
<path class="st0" d="M205.1,76.5h95.5c3,0,5.4-2.4,5.4-5.4V15.4c0-3-2.4-5.4-5.4-5.4h-95.5c-3,0-5.4,2.4-5.4,5.4v55.8
	C199.7,74.1,202.1,76.5,205.1,76.5z"/>
<path class="st0" d="M410,50.9h-80.6c-4.8,0-8.8,3.9-8.8,8.8v90.4c0,4.8,3.9,8.8,8.8,8.8H410V50.9z"/>
</svg>
