<?xml version="1.0" encoding="utf-8"?>
<!-- Generator: Adobe Illustrator 25.0.0, SVG Export Plug-In . SVG Version: 6.00 Build 0)  -->
<svg version="1.1" id="Layer_1" xmlns="http://www.w3.org/2000/svg" xmlns:xlink="http://www.w3.org/1999/xlink" x="0px" y="0px"
	 viewBox="0 0 1024 768" style="enable-background:new 0 0 1024 768;" xml:space="preserve">
<style type="text/css">
	.st0{opacity:0.16;fill:none;stroke:#E5E5E5;stroke-width:11;stroke-miterlimit:10;}
	.st1{opacity:0.16;fill:#E5E5E5;}
	.st2{fill:#E5E5E5;}
	.st3{fill:#CC7940;}
	.st4{opacity:0.66;fill:#CC7940;}
	.st5{opacity:0.66;fill:#37D18B;}
	.st6{opacity:0.16;fill:#37D18B;}
	.st7{fill:#3B3B9E;}
	.st8{fill:#00A99D;}
	.st9{opacity:0.66;fill:#3B3B9E;}
	.st10{opacity:0.66;fill:#00A99D;}
	.st11{opacity:0.16;fill:#00A99D;}
	.st12{fill:#0071BC;}
	.st13{opacity:0.66;fill:#0071BC;}
	.st14{fill:#37D18B;}
	.st15{opacity:0.36;fill:#3B3B9E;}
	.st16{opacity:0.16;fill:#ED66B1;}
	.st17{opacity:0.36;fill:#0071BC;}
	.st18{opacity:0.16;fill:#3B3B9E;}
	.st19{fill:#ED66B1;}
	.st20{opacity:0.66;fill:#ED66B1;}
	.st21{fill:#EA545F;}
	.st22{opacity:0.36;fill:#ED66B1;}
	.st23{opacity:0.16;fill:#0071BC;}
	.st24{fill:#FBB03B;}
	.st25{opacity:0.66;fill:#EA545F;}
	.st26{opacity:0.66;fill:#FBB03B;}
	.st27{opacity:0.16;fill:#EA545F;}
	.st28{fill:#B3E83F;}
	.st29{opacity:0.66;fill:#B3E83F;}
	.st30{opacity:0.16;fill:#FBB03B;}
</style>
<circle class="st0" cx="512" cy="384" r="343.4"/>
<g>
	<g>
		<g>
			<path class="st3" d="M672.5,197.6l41.9-44.4c1.7-1.8,5.1-1.5,7.6,0.6l36.6,30.7c2.5,2.1,3,5.1,1,6.6l-49.3,38.3
				c-2,1.5-5.3,1.4-7.3-0.3L673.1,204C671.1,202.2,670.8,199.4,672.5,197.6z"/>
			<path class="st4" d="M607.7,203.9l22.3-32.7c1.4-2,4.2-2.3,6.3-0.6l22.5,18.9c2.1,1.7,2.4,4.7,0.8,6.5l-26.1,29.6
				c-1.6,1.8-4.4,2.1-6.1,0.7l-19-16C606.6,208.8,606.3,205.9,607.7,203.9z"/>
			<path class="st4" d="M607.9,269.6l20.7-21.4c1.7-1.8,4.5-2.1,6.1-0.7l10.6,8.9c1.7,1.4,1.5,3.9-0.4,5.5l-22.7,19.8
				c-1.9,1.6-4.6,2-6,0.8l-9-7.6C606,273.8,606.2,271.4,607.9,269.6z"/>
			<path class="st4" d="M531.6,283.2l34.6-65.6c1.2-2.2,3.4-3,5-1.7l29.3,24.6c1.6,1.3,1.6,3.9,0,5.9L555.2,303
				c-1.5,1.9-3.6,2.8-4.6,1.9l-19.2-16.1C530.3,288,530.5,285.5,531.6,283.2z"/>
			<path class="st3" d="M633.1,141.2l14.9-23.9c1.3-2.1,4.3-2.2,6.8-0.1l15,12.6c2.4,2,3.2,5.3,1.7,7.3l-16.7,22.4
				c-1.5,2-4.4,2.1-6.6,0.3l-13.5-11.3C632.5,146.6,631.8,143.3,633.1,141.2z"/>
			<path class="st5" d="M557.1,314.8l17.5-19.3c1.6-1.8,4-2.5,5.2-1.5l5.5,4.6c1.2,1,0.7,3.2-1.1,4.9l-18.9,18.1
				c-1.8,1.7-4,2.4-5,1.6l-4.4-3.7C554.9,318.8,555.5,316.6,557.1,314.8z"/>
			<path class="st6" d="M497.6,365.8l28.5-41.6c1.4-2,3.2-3.1,4.1-2.4l11.8,9.9c0.9,0.7,0.2,2.8-1.5,4.6L506.2,373
				c-1.7,1.8-3.4,2.9-3.9,2.6l-6.4-5.4C495.5,369.9,496.2,367.9,497.6,365.8z"/>
		</g>
	</g>
	<g>
		<g>
			<path class="st7" d="M754.2,344.5l60.7-7.1c2.4-0.3,4.9,2.1,5.5,5.4l8.3,47c0.6,3.2-1,5.8-3.5,5.7l-62.3-2.4
				c-2.5-0.1-4.9-2.3-5.4-5l-6.8-38.4C750.1,347.2,751.8,344.8,754.2,344.5z"/>
			<path class="st8" d="M700.5,307.7l38.1-10.7c2.4-0.7,4.7,0.9,5.2,3.6l5.1,29c0.5,2.7-1.1,5.1-3.6,5.5l-39,5.9
				c-2.4,0.4-4.7-1.2-5.1-3.4l-4.3-24.5C696.5,310.7,698.1,308.4,700.5,307.7z"/>
			<path class="st9" d="M658.5,358.2l29.7-3.1c2.4-0.3,4.8,1.3,5.1,3.4l2.4,13.7c0.4,2.2-1.3,3.9-3.8,4l-30.1,0.6
				c-2.5,0-4.8-1.4-5.1-3.2l-2-11.6C654.3,360.2,656,358.5,658.5,358.2z"/>
			<path class="st10" d="M591.3,319.6l68.7-28c2.3-1,4.5-0.1,4.9,1.9l6.6,37.7c0.4,2-1.3,4-3.7,4.5l-71.1,14.2
				c-2.4,0.5-4.6-0.2-4.8-1.5l-4.3-24.7C587.2,322.4,588.9,320.5,591.3,319.6z"/>
			<path class="st8" d="M760.2,276l26.8-8.8c2.4-0.8,4.7,1.1,5.3,4.2l3.4,19.3c0.5,3.1-1,6.1-3.4,6.7l-27.2,6.5
				c-2.4,0.6-4.8-1.3-5.2-4l-3.1-17.3C756.4,279.7,757.9,276.8,760.2,276z"/>
			<path class="st9" d="M590.5,360.2l25.8-3.6c2.4-0.3,4.6,0.6,4.9,2.2l1.2,7c0.3,1.6-1.5,2.9-4,3.1l-26.1,1.8
				c-2.5,0.2-4.7-0.7-4.9-2l-1-5.7C586.2,361.8,588.1,360.5,590.5,360.2z"/>
			<path class="st11" d="M512.1,361l48.6-13.6c2.4-0.7,4.5-0.3,4.7,0.8l2.7,15.2c0.2,1.1-1.6,2.2-4.1,2.5l-49.9,6.1
				c-2.4,0.3-4.5,0-4.6-0.5l-1.5-8.2C507.9,362.7,509.7,361.7,512.1,361z"/>
		</g>
	</g>
	<g>
		<g>
			<path class="st12" d="M722.4,509.6l51,33.6c2.1,1.3,2.4,4.8,0.7,7.6l-23.9,41.3c-1.6,2.8-4.5,3.8-6.4,2.1l-46.2-41.9
				c-1.9-1.7-2.3-5-0.9-7.3l19.5-33.8C717.5,509,720.3,508.2,722.4,509.6z"/>
			<path class="st12" d="M704.9,446.9l36.1,16.3c2.3,1,3,3.7,1.6,6.1L728,494.7c-1.4,2.3-4.2,3.2-6.3,1.9l-33.6-20.6
				c-2.1-1.3-2.9-3.9-1.7-5.9l12.4-21.5C699.9,446.6,702.7,445.9,704.9,446.9z"/>
			<path class="st13" d="M640.2,458.5l24.7,16.7c2,1.4,2.8,4,1.7,5.9l-6.9,12c-1.1,1.9-3.6,2.2-5.5,0.6l-23.4-18.9
				c-1.9-1.6-2.8-4.2-1.8-5.7l5.9-10.2C635.8,457.3,638.2,457.2,640.2,458.5z"/>
			<path class="st9" d="M613.6,385.7l70.6,22.7c2.4,0.8,3.5,2.8,2.5,4.6l-19.1,33.1c-1,1.8-3.6,2.2-5.8,1.1l-63.6-34.9
				c-2.1-1.2-3.4-3.1-2.7-4.2l12.5-21.7C608.7,385.3,611.2,385,613.6,385.7z"/>
			<path class="st14" d="M771,461l26.2,10.5c2.3,0.9,2.9,3.9,1.3,6.6l-9.8,17c-1.6,2.7-4.7,4.1-6.9,3l-25-12.5
				c-2.2-1.1-2.8-4-1.4-6.5l8.8-15.2C765.7,461.3,768.7,460.1,771,461z"/>
			<path class="st15" d="M586.9,416.3l22.1,13.8c2.1,1.3,3.1,3.5,2.4,4.8l-3.6,6.2c-0.8,1.4-3.1,1.3-5-0.2l-21.1-15.4
				c-2-1.5-3.1-3.5-2.5-4.6l2.9-5C582.6,414.9,584.8,415,586.9,416.3z"/>
			<path class="st16" d="M526.3,366.6l45.9,20.8c2.2,1,3.6,2.6,3.1,3.6l-7.7,13.4c-0.6,1-2.7,0.7-4.8-0.7l-42.1-27.4
				c-2.1-1.3-3.5-2.9-3.2-3.4l4.2-7.2C522,365.2,524.1,365.6,526.3,366.6z"/>
		</g>
	</g>
	<g>
		<g>
			<path class="st12" d="M591.9,615.6l17.5,58.5c0.7,2.4-1.2,5.2-4.3,6.3l-44.9,16.3c-3.1,1.1-5.9,0-6.2-2.5l-8.5-61.8
				c-0.3-2.5,1.4-5.3,4-6.2L586,613C588.6,612,591.2,613.2,591.9,615.6z"/>
			<path class="st12" d="M618.8,556.3L636,592c1.1,2.2-0.1,4.8-2.7,5.7l-27.6,10.1c-2.5,0.9-5.3-0.2-6-2.6l-12.6-37.4
				c-0.8-2.3,0.3-4.9,2.5-5.6l23.4-8.5C615.1,552.9,617.7,554.1,618.8,556.3z"/>
			<path class="st5" d="M561.8,523.7l8.2,28.7c0.7,2.4-0.4,4.9-2.5,5.7l-13,4.7c-2.1,0.7-4.1-0.6-4.6-3.1l-5.8-29.5
				c-0.5-2.4,0.6-5,2.3-5.6l11-4C559.1,519.9,561.1,521.3,561.8,523.7z"/>
			<path class="st17" d="M588.1,450.8l39.5,62.8c1.3,2.1,0.9,4.4-1,5.1l-35.9,13.1c-1.9,0.7-4.2-0.6-5.1-2.9l-26.3-67.6
				c-0.9-2.3-0.6-4.5,0.7-5l23.5-8.6C584.7,447.3,586.8,448.7,588.1,450.8z"/>
			<path class="st12" d="M660.4,609.6l13.3,24.8c1.2,2.2-0.3,4.9-3.3,5.9l-18.4,6.7c-3,1.1-6.2,0.1-7.2-2.1l-11.1-25.6
				c-1-2.3,0.4-4.9,3.1-5.9l16.5-6C656.1,606.4,659.2,607.4,660.4,609.6z"/>
			<path class="st5" d="M548,457.1l8,24.8c0.8,2.3,0.2,4.7-1.3,5.2l-6.7,2.4c-1.5,0.5-3.2-1-3.8-3.4l-6.3-25.4
				c-0.6-2.4-0.1-4.7,1.1-5.1l5.4-2C545.7,453.2,547.3,454.7,548,457.1z"/>
			<path class="st18" d="M533.6,380l21.8,45.5c1.1,2.2,1.1,4.4,0,4.7l-14.5,5.3c-1,0.4-2.5-1.2-3.2-3.6l-14.6-48.1
				c-0.7-2.4-0.8-4.4-0.3-4.6l7.8-2.9C531.2,376.2,532.5,377.8,533.6,380z"/>
		</g>
	</g>
	<g>
		<g>
			<path class="st14" d="M423.8,612.9L399.6,669c-1,2.3-4.3,3.2-7.4,2.1l-44.9-16.3c-3.1-1.1-4.5-3.8-3.2-5.9l33.2-52.8
				c1.3-2.1,4.5-3.1,7-2.2l36.6,13.3C423.5,608,424.8,610.6,423.8,612.9z"/>
			<path class="st19" d="M482.5,584.8l-9.8,38.4c-0.6,2.4-3.2,3.6-5.7,2.7l-27.6-10.1c-2.5-0.9-3.9-3.5-3-5.8l14.4-36.7
				c0.9-2.3,3.4-3.5,5.5-2.7l23.4,8.5C481.9,579.8,483.1,582.4,482.5,584.8z"/>
			<path class="st20" d="M459.8,523.1l-12.1,27.2c-1,2.2-3.5,3.5-5.5,2.7l-13-4.7c-2.1-0.7-2.7-3.1-1.5-5.3l14.6-26.4
				c1.2-2.2,3.6-3.4,5.3-2.8l11,4C460.2,518.5,460.8,520.9,459.8,523.1z"/>
			<path class="st5" d="M526.8,484.2l-10.1,73.5c-0.3,2.5-2.2,4-4.1,3.3l-35.9-13.1c-1.9-0.7-2.8-3.2-2-5.5l23.3-68.7
				c0.8-2.3,2.5-3.9,3.7-3.4l23.5,8.6C526.4,479.3,527.2,481.8,526.8,484.2z"/>
			<path class="st19" d="M480.1,652.4l-5.8,27.6c-0.5,2.4-3.3,3.5-6.3,2.5l-18.4-6.7c-3-1.1-4.8-3.9-4.1-6.2l8-26.8
				c0.7-2.4,3.5-3.5,6.1-2.5l16.5,6C478.8,647.2,480.6,649.9,480.1,652.4z"/>
			<path class="st5" d="M492.1,463.3l-9.8,24.1c-0.9,2.3-2.9,3.7-4.4,3.2l-6.7-2.4c-1.5-0.5-1.8-2.8-0.7-5l11.5-23.5
				c1.1-2.2,3-3.7,4.1-3.2l5.4,2C492.8,458.8,493,461,492.1,463.3z"/>
			<path class="st6" d="M530.6,395L518,443.8c-0.6,2.4-2,4-3,3.7l-14.5-5.3c-1-0.4-1.1-2.5-0.1-4.8l19.7-46.2c1-2.3,2.2-3.9,2.8-3.7
				l7.8,2.9C531.2,390.5,531.2,392.6,530.6,395z"/>
		</g>
	</g>
	<g>
		<g>
			<path class="st14" d="M296.8,502.8l-54.6,27.4c-2.2,1.1-5.3-0.3-7-3.2l-23.9-41.3c-1.6-2.8-1-5.8,1.4-6.6L272,460
				c2.4-0.8,5.4,0.5,6.8,2.8l19.5,33.8C299.7,498.9,299,501.7,296.8,502.8z"/>
			<path class="st21" d="M359.8,519l-32.1,23.1c-2,1.4-4.7,0.7-6.1-1.6l-14.7-25.5c-1.4-2.3-0.7-5.2,1.5-6.4l34.6-18.9
				c2.2-1.2,4.9-0.5,6,1.5l12.4,21.5C362.5,514.8,361.8,517.6,359.8,519z"/>
			<path class="st21" d="M382,457.2l-26.8,13.1c-2.2,1.1-4.9,0.4-6-1.5l-6.9-12c-1.1-1.9-0.1-4.2,2.2-5.1l28.1-10.8
				c2.3-0.9,5-0.3,5.9,1.3l5.9,10.2C385.3,453.9,384.2,456.1,382,457.2z"/>
			<path class="st22" d="M458.4,470.5l-55,49.8c-1.9,1.7-4.2,1.6-5.2-0.1L379.1,487c-1-1.8-0.1-4.3,2-5.5l62-37.6
				c2.1-1.3,4.4-1.4,5-0.2l12.5,21.7C461.2,466.5,460.2,468.8,458.4,470.5z"/>
			<path class="st14" d="M314.5,569.2l-22.1,17.4c-1.9,1.5-4.8,0.6-6.4-2.2l-9.8-17c-1.6-2.7-1.2-6.1,0.9-7.4l23.3-15.4
				c2.1-1.3,4.9-0.4,6.3,2l8.8,15.2C316.9,564.4,316.4,567.7,314.5,569.2z"/>
			<path class="st5" d="M445.2,432.1l-23,12.2c-2.2,1.2-4.6,1-5.4-0.4l-3.6-6.2c-0.8-1.4,0.4-3.3,2.7-4.3l23.9-10.6
				c2.3-1,4.6-0.9,5.3,0.2l2.9,5C448.7,429.1,447.4,430.9,445.2,432.1z"/>
			<path class="st23" d="M518.6,404.5l-41,29.4c-2,1.4-4.1,1.8-4.7,0.9l-7.7-13.4c-0.6-1,0.8-2.7,3-3.8l44.8-22.8
				c2.2-1.1,4.2-1.6,4.5-1.1l4.2,7.2C522,401.5,520.6,403.1,518.6,404.5z"/>
		</g>
	</g>
	<g>
		<g>
			<path class="st24" d="M270.2,336.8l-59.4-14.1c-2.4-0.6-3.9-3.7-3.3-6.9l8.3-47c0.6-3.2,2.9-5.1,5.3-4.2l57.8,23.5
				c2.3,1,3.8,3.9,3.4,6.5l-6.8,38.4C274.9,335.7,272.6,337.4,270.2,336.8z"/>
			<path class="st24" d="M308,389.8l-39.5-2.9c-2.5-0.2-4.1-2.5-3.6-5.2l5.1-29c0.5-2.7,2.8-4.4,5.2-3.9l38.6,7.8
				c2.4,0.5,4,2.7,3.7,5l-4.3,24.5C312.8,388.2,310.5,389.9,308,389.8z"/>
			<path class="st24" d="M364.8,356.7l-28.9-7.2c-2.4-0.6-4-2.8-3.7-5l2.4-13.7c0.4-2.2,2.6-3.3,5-2.4l28.5,9.8c2.3,0.8,4,3,3.7,4.8
				l-2,11.6C369.4,356.2,367.2,357.2,364.8,356.7z"/>
			<path class="st25" d="M414.8,415.9l-74.1,2.8c-2.5,0.1-4.3-1.5-3.9-3.5l6.6-37.7c0.4-2,2.6-3.3,5.1-3l71.7,11
				c2.4,0.4,4.2,1.8,4,3.1l-4.3,24.7C419.5,414.7,417.3,415.8,414.8,415.9z"/>
			<path class="st14" d="M241.1,399.1l-28.2-0.9c-2.5-0.1-4.1-2.7-3.5-5.8l3.4-19.3c0.5-3.1,3-5.4,5.4-5.1l27.7,3.2
				c2.4,0.3,4,2.8,3.5,5.6l-3.1,17.3C246,397,243.6,399.2,241.1,399.1z"/>
			<path class="st26" d="M429.4,378.1l-25.5-5.5c-2.4-0.5-4.1-2.2-3.9-3.7l1.2-7c0.3-1.6,2.4-2.3,4.8-1.6l25.1,7.3
				c2.4,0.7,4.1,2.3,3.9,3.5l-1,5.7C433.9,378,431.8,378.6,429.4,378.1z"/>
			<path class="st27" d="M503.3,404.1l-50.3-3.9c-2.5-0.2-4.3-1.2-4.1-2.3l2.7-15.2c0.2-1.1,2.3-1.5,4.7-1l49,11.4
				c2.4,0.6,4.3,1.5,4.2,2.1l-1.5,8.2C507.9,403.9,505.8,404.3,503.3,404.1z"/>
		</g>
	</g>
	<g>
		<g>
			<path class="st28" d="M356.6,192.6l-36.4-49c-1.5-2-0.6-5.3,1.9-7.4l36.6-30.7c2.5-2.1,5.5-2,6.7,0.2l29.1,55.2
				c1.2,2.2,0.4,5.4-1.6,7.2L363,193C360.9,194.7,358,194.5,356.6,192.6z"/>
			<path class="st28" d="M351.5,257.5l-28.4-27.6c-1.8-1.7-1.5-4.5,0.5-6.3l22.5-18.9c2.1-1.7,5-1.6,6.5,0.3l24.6,30.8
				c1.5,1.9,1.3,4.7-0.4,6.2l-19,16C356.2,259.4,353.3,259.2,351.5,257.5z"/>
			<path class="st29" d="M416.3,268.6l-17.5-24.1c-1.4-2-1.3-4.8,0.4-6.2l10.6-8.9c1.7-1.4,4.1-0.8,5.4,1.3l15.5,25.8
				c1.3,2.1,1.2,4.8-0.2,6l-9,7.6C420.1,271.3,417.7,270.6,416.3,268.6z"/>
			<path class="st26" d="M416.4,346.1l-58.6-45.5c-2-1.5-2.3-3.9-0.8-5.2l29.3-24.6c1.6-1.3,4.2-0.9,5.8,1l47.8,54.5
				c1.6,1.8,2.1,4.1,1.1,4.9l-19.2,16.1C420.9,348.2,418.4,347.7,416.4,346.1z"/>
			<path class="st28" d="M294.2,221.6l-21-18.8c-1.9-1.6-1.4-4.7,1-6.7l15-12.6c2.4-2,5.8-2.2,7.5-0.4l19.2,20.3
				c1.7,1.8,1.3,4.7-0.9,6.6l-13.5,11.3C299.4,223.1,296.1,223.2,294.2,221.6z"/>
			<path class="st26" d="M452,326.5L436,306c-1.5-1.9-1.8-4.3-0.6-5.4l5.5-4.6c1.2-1,3.3-0.2,4.7,1.9l14.6,21.7
				c1.4,2.1,1.7,4.4,0.7,5.2l-4.4,3.7C455.5,329.4,453.5,328.4,452,326.5z"/>
			<path class="st18" d="M491.9,394l-36-35.3c-1.8-1.7-2.5-3.7-1.7-4.4l11.8-9.9c0.9-0.7,2.8,0.3,4.2,2.3l30.2,40.2
				c1.5,2,2.3,3.9,1.9,4.3l-6.4,5.4C495.5,396.8,493.7,395.7,491.9,394z"/>
		</g>
	</g>
	<g>
		<g>
			<path class="st3" d="M515.4,137.6l3.6-61c0.1-2.5,2.9-4.5,6.2-4.5H573c3.3,0,5.5,2,5,4.5l-13.1,61c-0.5,2.5-3.2,4.5-5.8,4.5h-39
				C517.4,142,515.3,140,515.4,137.6z"/>
			<path class="st24" d="M469.9,184.1l-4-39.4c-0.3-2.5,1.7-4.5,4.5-4.5h29.4c2.7,0,4.9,2,4.8,4.5l-1,39.4c-0.1,2.5-2,4.5-4.3,4.5
				h-24.9C472.2,188.5,470.1,186.5,469.9,184.1z"/>
			<path class="st5" d="M512.3,234.2l2.1-29.7c0.2-2.5,2.1-4.5,4.3-4.5h13.9c2.2,0,3.7,2,3.3,4.5l-4.7,29.7
				c-0.4,2.5-2.2,4.5-4.1,4.5h-11.7C513.5,238.7,512.1,236.7,512.3,234.2z"/>
			<path class="st26" d="M462.6,293.7L447,221.2c-0.5-2.5,0.7-4.5,2.7-4.5h38.2c2,0,3.8,2,3.8,4.5l1.6,72.5c0,2.5-1,4.5-2.3,4.5h-25
				C464.7,298.2,463.1,296.2,462.6,293.7z"/>
			<path class="st14" d="M449,119.7l-4-27.9c-0.4-2.5,1.9-4.5,5.1-4.5h19.6c3.2,0,5.9,2,6,4.5l1.6,27.9c0.1,2.5-2.1,4.5-4.9,4.5
				h-17.6C452,124.2,449.4,122.2,449,119.7z"/>
			<path class="st5" d="M502.4,301.5l1-26c0.1-2.5,1.4-4.5,3-4.5h7.1c1.6,0,2.6,2,2.4,4.5l-2.8,26c-0.3,2.5-1.5,4.5-2.8,4.5h-5.8
				C503.3,306,502.3,304,502.4,301.5z"/>
			<path class="st30" d="M489.6,378.9l-4.9-50.2c-0.2-2.5,0.5-4.5,1.6-4.5h15.5c1.1,0,1.9,2,1.8,4.5l-2.7,50.2
				c-0.1,2.5-0.7,4.5-1.3,4.5h-8.4C490.6,383.3,489.9,381.3,489.6,378.9z"/>
		</g>
	</g>
</g>
</svg>
