<?xml version="1.0" encoding="utf-8"?>
<!-- Generator: Adobe Illustrator 22.0.1, SVG Export Plug-In . SVG Version: 6.00 Build 0)  -->
<svg version="1.1" id="Layer_2" xmlns="http://www.w3.org/2000/svg" xmlns:xlink="http://www.w3.org/1999/xlink" x="0px" y="0px"
	 viewBox="0 0 439.1 60.9" style="enable-background:new 0 0 439.1 60.9;" xml:space="preserve">
<style type="text/css">
	.st0{clip-path:url(#SVGID_2_);fill:url(#SVGID_3_);}
	.st1{clip-path:url(#SVGID_5_);fill:url(#SVGID_6_);}
	.st2{clip-path:url(#SVGID_8_);fill:url(#SVGID_9_);}
	.st3{clip-path:url(#SVGID_11_);fill:url(#SVGID_12_);}
	.st4{clip-path:url(#SVGID_14_);fill:url(#SVGID_15_);}
	.st5{clip-path:url(#SVGID_17_);fill:url(#SVGID_18_);}
	.st6{clip-path:url(#SVGID_20_);fill:url(#SVGID_21_);}
	.st7{clip-path:url(#SVGID_23_);fill:url(#SVGID_24_);}
	.st8{clip-path:url(#SVGID_26_);fill:url(#SVGID_27_);}
	.st9{clip-path:url(#SVGID_29_);fill:url(#SVGID_30_);}
	.st10{clip-path:url(#SVGID_32_);fill:url(#SVGID_33_);}
	.st11{clip-path:url(#SVGID_35_);fill:url(#SVGID_36_);}
	.st12{clip-path:url(#SVGID_38_);fill:url(#SVGID_39_);}
	.st13{clip-path:url(#SVGID_41_);fill:url(#SVGID_42_);}
	.st14{clip-path:url(#SVGID_44_);fill:url(#SVGID_45_);}
	.st15{clip-path:url(#SVGID_47_);fill:url(#SVGID_48_);}
	.st16{clip-path:url(#SVGID_50_);fill:url(#SVGID_51_);}
	.st17{clip-path:url(#SVGID_53_);fill:url(#SVGID_54_);}
	.st18{clip-path:url(#SVGID_56_);fill:url(#SVGID_57_);}
	.st19{clip-path:url(#SVGID_59_);fill:url(#SVGID_60_);}
	.st20{clip-path:url(#SVGID_62_);fill:url(#SVGID_63_);}
	.st21{clip-path:url(#SVGID_65_);fill:url(#SVGID_66_);}
	.st22{clip-path:url(#SVGID_68_);fill:url(#SVGID_69_);}
	.st23{clip-path:url(#SVGID_71_);fill:url(#SVGID_72_);}
	.st24{clip-path:url(#SVGID_74_);fill:url(#SVGID_75_);}
	.st25{clip-path:url(#SVGID_77_);fill:url(#SVGID_78_);}
	.st26{clip-path:url(#SVGID_80_);fill:url(#SVGID_81_);}
	.st27{clip-path:url(#SVGID_83_);fill:url(#SVGID_84_);}
	.st28{clip-path:url(#SVGID_86_);fill:url(#SVGID_87_);}
	.st29{clip-path:url(#SVGID_89_);fill:url(#SVGID_90_);}
</style>
<g>
	<defs>
		<path id="SVGID_1_" d="M5.1,50h9.4c3.4,0,4.4,1.8,4.4,3.6c0,1.9-1,3.8-4.7,3.8H5.1V50z M5.1,40.7h9c2.8,0,3.9,1.2,3.9,3.3
			c0,1.8-1.2,3.2-3.7,3.2H5.1V40.7z M1.8,37.7v22.6h13.4c4.9,0,7.2-3.3,7.2-6.5c0-3.3-1.7-5-4.3-5.6v-0.1c1.8-0.7,3.3-2,3.3-4.8
			c0-3.5-2.2-5.7-7-5.7H1.8z"/>
	</defs>
	<clipPath id="SVGID_2_">
		<use xlink:href="#SVGID_1_"  style="overflow:visible;"/>
	</clipPath>
	
		<linearGradient id="SVGID_3_" gradientUnits="userSpaceOnUse" x1="-189.0297" y1="485.8808" x2="-188.0296" y2="485.8808" gradientTransform="matrix(0 26.6688 26.6688 0 -12945.8467 5077.0146)">
		<stop  offset="0" style="stop-color:#086C96"/>
		<stop  offset="1" style="stop-color:#02A0D5"/>
	</linearGradient>
	<rect x="1.8" y="37.7" class="st0" width="20.5" height="22.6"/>
</g>
<g>
	<defs>
		<rect id="SVGID_4_" x="28.3" y="37.7" width="3.4" height="22.6"/>
	</defs>
	<clipPath id="SVGID_5_">
		<use xlink:href="#SVGID_4_"  style="overflow:visible;"/>
	</clipPath>
	
		<linearGradient id="SVGID_6_" gradientUnits="userSpaceOnUse" x1="-189.0297" y1="485.8812" x2="-188.0296" y2="485.8812" gradientTransform="matrix(0 26.6688 26.6688 0 -12927.8467 5077.0146)">
		<stop  offset="0" style="stop-color:#086C96"/>
		<stop  offset="1" style="stop-color:#02A0D5"/>
	</linearGradient>
	<rect x="28.3" y="37.7" class="st1" width="3.4" height="22.6"/>
</g>
<g>
	<defs>
		<path id="SVGID_7_" d="M40.9,49.1c0-6,4.1-9,9.2-9c5.2,0,9.2,3,9.2,9c0,6-4.1,9-9.2,9C45,58,40.9,55,40.9,49.1 M37.6,49.1
			c0,5.8,3.5,11.9,12.6,11.9c9.1,0,12.6-6.1,12.6-11.9c0-5.8-3.5-11.9-12.6-11.9C41,37.2,37.6,43.3,37.6,49.1"/>
	</defs>
	<clipPath id="SVGID_8_">
		<use xlink:href="#SVGID_7_"  style="overflow:visible;"/>
	</clipPath>
	
		<linearGradient id="SVGID_9_" gradientUnits="userSpaceOnUse" x1="-189.0296" y1="485.8814" x2="-188.0297" y2="485.8814" gradientTransform="matrix(0 26.6688 26.6688 0 -12907.7373 5077.0146)">
		<stop  offset="0" style="stop-color:#086C96"/>
		<stop  offset="1" style="stop-color:#02A0D5"/>
	</linearGradient>
	<rect x="37.6" y="37.2" class="st2" width="25.1" height="23.7"/>
</g>
<g>
	<defs>
		<polygon id="SVGID_10_" points="68.2,37.7 68.2,60.4 85.3,60.4 85.3,57.4 71.5,57.4 71.5,37.7 		"/>
	</defs>
	<clipPath id="SVGID_11_">
		<use xlink:href="#SVGID_10_"  style="overflow:visible;"/>
	</clipPath>
	
		<linearGradient id="SVGID_12_" gradientUnits="userSpaceOnUse" x1="-189.0297" y1="485.8808" x2="-188.0296" y2="485.8808" gradientTransform="matrix(0 26.6688 26.6688 0 -12881.1436 5077.0146)">
		<stop  offset="0" style="stop-color:#086C96"/>
		<stop  offset="1" style="stop-color:#02A0D5"/>
	</linearGradient>
	<rect x="68.2" y="37.7" class="st3" width="17.1" height="22.6"/>
</g>
<g>
	<defs>
		<path id="SVGID_13_" d="M92.2,49.1c0-6,4.1-9,9.2-9c5.2,0,9.2,3,9.2,9c0,6-4.1,9-9.2,9C96.2,58,92.2,55,92.2,49.1 M88.8,49.1
			c0,5.8,3.5,11.9,12.6,11.9c9.1,0,12.6-6.1,12.6-11.9c0-5.8-3.5-11.9-12.6-11.9C92.3,37.2,88.8,43.3,88.8,49.1"/>
	</defs>
	<clipPath id="SVGID_14_">
		<use xlink:href="#SVGID_13_"  style="overflow:visible;"/>
	</clipPath>
	
		<linearGradient id="SVGID_15_" gradientUnits="userSpaceOnUse" x1="-189.0296" y1="485.8811" x2="-188.0297" y2="485.8811" gradientTransform="matrix(0 26.6688 26.6688 0 -12856.4873 5077.0146)">
		<stop  offset="0" style="stop-color:#086C96"/>
		<stop  offset="1" style="stop-color:#02A0D5"/>
	</linearGradient>
	<rect x="88.8" y="37.2" class="st4" width="25.1" height="23.7"/>
</g>
<g>
	<defs>
		<path id="SVGID_16_" d="M118.7,49.4c0,5,2.9,11.5,11.9,11.5c4.8,0,7.2-2.1,8.7-3.8l0.6,3.2h2.4V48.2h-10.4v2.9h7.4
			c-0.3,4-3.5,6.9-8.5,6.9c-4.7,0-8.8-2.5-8.8-8.9c0-4.8,2.7-9.1,8.6-9.1c4.3,0,6.6,1.6,7.7,4.8h3.5c-1.4-6.2-6.7-7.7-11.4-7.7
			C124.7,37.2,118.7,40.7,118.7,49.4"/>
	</defs>
	<clipPath id="SVGID_17_">
		<use xlink:href="#SVGID_16_"  style="overflow:visible;"/>
	</clipPath>
	
		<linearGradient id="SVGID_18_" gradientUnits="userSpaceOnUse" x1="-189.0296" y1="485.8804" x2="-188.0297" y2="485.8804" gradientTransform="matrix(0 26.6688 26.6688 0 -12827.3779 5077.0146)">
		<stop  offset="0" style="stop-color:#086C96"/>
		<stop  offset="1" style="stop-color:#02A0D5"/>
	</linearGradient>
	<rect x="118.7" y="37.2" class="st5" width="23.6" height="23.7"/>
</g>
<g>
	<defs>
		<polygon id="SVGID_19_" points="165.5,37.7 158,48 150.7,37.7 146.4,37.7 156.3,51 156.3,60.4 159.6,60.4 159.6,50.9 169.6,37.7 
					"/>
	</defs>
	<clipPath id="SVGID_20_">
		<use xlink:href="#SVGID_19_"  style="overflow:visible;"/>
	</clipPath>
	
		<linearGradient id="SVGID_21_" gradientUnits="userSpaceOnUse" x1="-189.0297" y1="485.8804" x2="-188.0296" y2="485.8804" gradientTransform="matrix(0 26.6688 26.6688 0 -12799.8467 5077.0146)">
		<stop  offset="0" style="stop-color:#086C96"/>
		<stop  offset="1" style="stop-color:#02A0D5"/>
	</linearGradient>
	<rect x="146.4" y="37.7" class="st6" width="23.2" height="22.6"/>
</g>
<g>
	<defs>
		<path id="SVGID_22_" d="M184.8,49c0,8.8,6.2,11.9,11.9,11.9c6.5,0,10.8-4.2,11.3-9.2h-3.4c-1,4.4-4,6.3-7.9,6.3
			c-6.2,0-8.5-4.4-8.5-8.7c0-6.2,3.4-9.2,8.7-9.2c4.8,0,7.2,2.7,7.7,5.8h3.4c-0.6-6.8-6.8-8.7-11.3-8.7
			C188.9,37.2,184.8,42.4,184.8,49"/>
	</defs>
	<clipPath id="SVGID_23_">
		<use xlink:href="#SVGID_22_"  style="overflow:visible;"/>
	</clipPath>
	
		<linearGradient id="SVGID_24_" gradientUnits="userSpaceOnUse" x1="-189.0296" y1="485.8808" x2="-188.0297" y2="485.8808" gradientTransform="matrix(0 26.6688 26.6688 0 -12761.4873 5077.0146)">
		<stop  offset="0" style="stop-color:#086C96"/>
		<stop  offset="1" style="stop-color:#02A0D5"/>
	</linearGradient>
	<rect x="184.8" y="37.2" class="st7" width="23.2" height="23.7"/>
</g>
<g>
	<defs>
		<path id="SVGID_25_" d="M215.8,49.1c0-6,4.1-9,9.2-9c5.2,0,9.2,3,9.2,9c0,6-4.1,9-9.2,9C219.8,58,215.8,55,215.8,49.1 M212.4,49.1
			c0,5.8,3.5,11.9,12.6,11.9c9.1,0,12.6-6.1,12.6-11.9c0-5.8-3.5-11.9-12.6-11.9C215.9,37.2,212.4,43.3,212.4,49.1"/>
	</defs>
	<clipPath id="SVGID_26_">
		<use xlink:href="#SVGID_25_"  style="overflow:visible;"/>
	</clipPath>
	
		<linearGradient id="SVGID_27_" gradientUnits="userSpaceOnUse" x1="-189.0296" y1="485.8804" x2="-188.0297" y2="485.8804" gradientTransform="matrix(0 26.6688 26.6688 0 -12732.8779 5077.0146)">
		<stop  offset="0" style="stop-color:#086C96"/>
		<stop  offset="1" style="stop-color:#02A0D5"/>
	</linearGradient>
	<rect x="212.4" y="37.2" class="st8" width="25.1" height="23.7"/>
</g>
<g>
	<defs>
		<polygon id="SVGID_28_" points="261.8,37.7 261.8,55.7 261.7,55.7 247.2,37.7 243.3,37.7 243.3,60.4 246.7,60.4 246.7,42.4 
			246.7,42.4 261.3,60.4 265.2,60.4 265.2,37.7 		"/>
	</defs>
	<clipPath id="SVGID_29_">
		<use xlink:href="#SVGID_28_"  style="overflow:visible;"/>
	</clipPath>
	
		<linearGradient id="SVGID_30_" gradientUnits="userSpaceOnUse" x1="-189.0297" y1="485.8807" x2="-188.0296" y2="485.8807" gradientTransform="matrix(0 26.6688 26.6688 0 -12703.6279 5077.0146)">
		<stop  offset="0" style="stop-color:#086C96"/>
		<stop  offset="1" style="stop-color:#02A0D5"/>
	</linearGradient>
	<rect x="243.3" y="37.7" class="st9" width="21.8" height="22.6"/>
</g>
<g>
	<defs>
		<path id="SVGID_31_" d="M270.9,44c0,4.4,4,5.5,6.7,5.9l5.1,0.9c2.6,0.4,4.2,1.3,4.2,3.4c0,2.5-2.5,3.8-6.1,3.8
			c-3.4,0-7.2-1-7.3-5.1h-3.4c0,6.2,5.3,8,10.4,8c4.6,0,9.7-1.6,9.7-7.4c0-4.6-5-5.5-6.8-5.8l-5.5-0.9c-2.8-0.5-3.7-1.6-3.7-3
			c0-2.7,2.8-3.7,5.3-3.7c5.4,0,6.4,2.4,6.7,4.2h3.4c-0.3-5.4-5.1-7.1-9.6-7.1C274.1,37.2,270.9,39.9,270.9,44"/>
	</defs>
	<clipPath id="SVGID_32_">
		<use xlink:href="#SVGID_31_"  style="overflow:visible;"/>
	</clipPath>
	
		<linearGradient id="SVGID_33_" gradientUnits="userSpaceOnUse" x1="-189.0296" y1="485.8806" x2="-188.0297" y2="485.8806" gradientTransform="matrix(0 26.6688 26.6688 0 -12677.6436 5077.0146)">
		<stop  offset="0" style="stop-color:#086C96"/>
		<stop  offset="1" style="stop-color:#02A0D5"/>
	</linearGradient>
	<rect x="270.2" y="37.2" class="st10" width="20.1" height="23.7"/>
</g>
<g>
	<defs>
		<path id="SVGID_34_" d="M297.2,49.1c0-6,4.1-9,9.2-9c5.2,0,9.2,3,9.2,9c0,6-4.1,9-9.2,9C301.2,58,297.2,55,297.2,49.1 M293.8,49.1
			c0,5.8,3.5,11.9,12.6,11.9c9.1,0,12.6-6.1,12.6-11.9c0-5.8-3.5-11.9-12.6-11.9C297.3,37.2,293.8,43.3,293.8,49.1"/>
	</defs>
	<clipPath id="SVGID_35_">
		<use xlink:href="#SVGID_34_"  style="overflow:visible;"/>
	</clipPath>
	
		<linearGradient id="SVGID_36_" gradientUnits="userSpaceOnUse" x1="-189.0296" y1="485.8814" x2="-188.0297" y2="485.8814" gradientTransform="matrix(0 26.6688 26.6688 0 -12651.4873 5077.0146)">
		<stop  offset="0" style="stop-color:#086C96"/>
		<stop  offset="1" style="stop-color:#02A0D5"/>
	</linearGradient>
	<rect x="293.8" y="37.2" class="st11" width="25.1" height="23.7"/>
</g>
<g>
	<defs>
		<path id="SVGID_37_" d="M327.7,40.7h9.5c2.7,0,4,1.5,4,3.6c0,1.6-0.8,3.6-4.1,3.6h-9.4V40.7z M324.3,37.7v22.6h3.4v-9.6h8.8
			c2.8,0,4.1,1.2,4.4,5.3c0.2,2.7,0.2,3.7,0.7,4.3h3.5c-0.8-0.9-0.9-1.9-1.1-6.1c-0.1-2.7-1.3-4.5-3.3-4.8v-0.1
			c2.5-0.8,3.8-2.8,3.8-5.6c0-2.9-1.6-6-6.2-6H324.3z"/>
	</defs>
	<clipPath id="SVGID_38_">
		<use xlink:href="#SVGID_37_"  style="overflow:visible;"/>
	</clipPath>
	
		<linearGradient id="SVGID_39_" gradientUnits="userSpaceOnUse" x1="-189.0297" y1="485.881" x2="-188.0296" y2="485.881" gradientTransform="matrix(0 26.6688 26.6688 0 -12623.1436 5077.0146)">
		<stop  offset="0" style="stop-color:#086C96"/>
		<stop  offset="1" style="stop-color:#02A0D5"/>
	</linearGradient>
	<rect x="324.3" y="37.7" class="st12" width="20.7" height="22.6"/>
</g>
<g>
	<defs>
		<polygon id="SVGID_40_" points="347.6,37.7 347.6,40.7 356.2,40.7 356.2,60.4 359.5,60.4 359.5,40.7 368.1,40.7 368.1,37.7 		"/>
	</defs>
	<clipPath id="SVGID_41_">
		<use xlink:href="#SVGID_40_"  style="overflow:visible;"/>
	</clipPath>
	
		<linearGradient id="SVGID_42_" gradientUnits="userSpaceOnUse" x1="-189.0297" y1="485.8806" x2="-188.0296" y2="485.8806" gradientTransform="matrix(0 26.6688 26.6688 0 -12600.0029 5077.0146)">
		<stop  offset="0" style="stop-color:#086C96"/>
		<stop  offset="1" style="stop-color:#02A0D5"/>
	</linearGradient>
	<rect x="347.6" y="37.7" class="st13" width="20.5" height="22.6"/>
</g>
<g>
	<defs>
		<rect id="SVGID_43_" x="372.6" y="37.7" width="3.4" height="22.6"/>
	</defs>
	<clipPath id="SVGID_44_">
		<use xlink:href="#SVGID_43_"  style="overflow:visible;"/>
	</clipPath>
	
		<linearGradient id="SVGID_45_" gradientUnits="userSpaceOnUse" x1="-189.0297" y1="485.8804" x2="-188.0296" y2="485.8804" gradientTransform="matrix(0 26.6688 26.6688 0 -12583.5654 5077.0146)">
		<stop  offset="0" style="stop-color:#086C96"/>
		<stop  offset="1" style="stop-color:#02A0D5"/>
	</linearGradient>
	<rect x="372.6" y="37.7" class="st14" width="3.4" height="22.6"/>
</g>
<g>
	<defs>
		<path id="SVGID_46_" d="M400.2,37.7v14.5c0,4.1-2.7,5.8-6.9,5.8c-4.1,0-6.9-1.7-6.9-5.8V37.7h-3.4v14.1c0,6,3.4,9.1,10.2,9.1
			c6.9,0,10.2-3.1,10.2-9.1V37.7H400.2z"/>
	</defs>
	<clipPath id="SVGID_47_">
		<use xlink:href="#SVGID_46_"  style="overflow:visible;"/>
	</clipPath>
	
		<linearGradient id="SVGID_48_" gradientUnits="userSpaceOnUse" x1="-189.0297" y1="485.8809" x2="-188.0297" y2="485.8809" gradientTransform="matrix(0 26.6688 26.6688 0 -12564.5342 5077.0146)">
		<stop  offset="0" style="stop-color:#086C96"/>
		<stop  offset="1" style="stop-color:#02A0D5"/>
	</linearGradient>
	<rect x="383.1" y="37.7" class="st15" width="20.5" height="23.2"/>
</g>
<g>
	<defs>
		<polygon id="SVGID_49_" points="432.9,37.7 423.8,56.5 414.8,37.7 410.1,37.7 410.1,60.4 413.5,60.4 413.5,42 413.5,42 
			422.3,60.4 425.3,60.4 434.1,41.6 434.2,41.6 434.2,60.4 437.5,60.4 437.5,37.7 		"/>
	</defs>
	<clipPath id="SVGID_50_">
		<use xlink:href="#SVGID_49_"  style="overflow:visible;"/>
	</clipPath>
	
		<linearGradient id="SVGID_51_" gradientUnits="userSpaceOnUse" x1="-189.0297" y1="485.8804" x2="-188.0296" y2="485.8804" gradientTransform="matrix(0 26.6688 26.6688 0 -12534.0342 5077.0146)">
		<stop  offset="0" style="stop-color:#086C96"/>
		<stop  offset="1" style="stop-color:#02A0D5"/>
	</linearGradient>
	<rect x="410.1" y="37.7" class="st16" width="27.4" height="22.6"/>
</g>
<g>
	<defs>
		<path id="SVGID_52_" d="M0,13.7c0,6.4,3.6,13.9,13.8,13.9c7.1,0,12.5-4.4,13.2-10.8l0.1-0.8H22l-0.1,0.6c-1.1,5.2-5,6.3-8,6.3
			c-8,0-8.7-6.7-8.7-8.8c0-6.1,3.1-9.4,8.9-9.4c4.3,0,7.2,2.1,7.8,5.7l0.1,0.6h5.1L27,10.3C26.4,2.7,19.8,0,13.8,0
			C5.4,0,0,5.4,0,13.7"/>
	</defs>
	<clipPath id="SVGID_53_">
		<use xlink:href="#SVGID_52_"  style="overflow:visible;"/>
	</clipPath>
	
		<linearGradient id="SVGID_54_" gradientUnits="userSpaceOnUse" x1="-180.6114" y1="475.4387" x2="-179.6116" y2="475.4387" gradientTransform="matrix(0 -28.067 -28.067 0 13357.6875 -5041.9663)">
		<stop  offset="0" style="stop-color:#0D519A"/>
		<stop  offset="1" style="stop-color:#8B3A95"/>
	</linearGradient>
	<rect class="st17" width="27.1" height="27.6"/>
</g>
<g>
	<defs>
		<path id="SVGID_55_" d="M48,6.7l3.6,8.4h-7.2L48,6.7z M45.6,0.6L33.6,27h5.6l3.2-7.2h11.2l3.2,7.2h5.9L50.7,0.6H45.6z"/>
	</defs>
	<clipPath id="SVGID_56_">
		<use xlink:href="#SVGID_55_"  style="overflow:visible;"/>
	</clipPath>
	
		<linearGradient id="SVGID_57_" gradientUnits="userSpaceOnUse" x1="-180.6115" y1="475.4382" x2="-179.6114" y2="475.4382" gradientTransform="matrix(0 -28.067 -28.067 0 13392.2813 -5041.9663)">
		<stop  offset="0" style="stop-color:#0D519A"/>
		<stop  offset="1" style="stop-color:#8B3A95"/>
	</linearGradient>
	<rect x="33.6" y="0.6" class="st18" width="29.1" height="26.4"/>
</g>
<g>
	<defs>
		<polygon id="SVGID_58_" points="89.9,0.6 89.9,19.1 75,0.6 69.6,0.6 69.6,27 74.8,27 74.8,8.5 89.7,27 95.1,27 95.1,0.6 		"/>
	</defs>
	<clipPath id="SVGID_59_">
		<use xlink:href="#SVGID_58_"  style="overflow:visible;"/>
	</clipPath>
	
		<linearGradient id="SVGID_60_" gradientUnits="userSpaceOnUse" x1="-180.6115" y1="475.4386" x2="-179.6114" y2="475.4386" gradientTransform="matrix(0 -28.067 -28.067 0 13426.4678 -5041.9663)">
		<stop  offset="0" style="stop-color:#0D519A"/>
		<stop  offset="1" style="stop-color:#8B3A95"/>
	</linearGradient>
	<rect x="69.6" y="0.6" class="st19" width="25.5" height="26.4"/>
</g>
<g>
	<defs>
		<path id="SVGID_61_" d="M104.1,13.7c0,6.4,3.6,13.9,13.8,13.9c7.1,0,12.5-4.4,13.2-10.8l0.1-0.8h-5.1l-0.1,0.6
			c-1.1,5.2-5,6.3-8,6.3c-8,0-8.7-6.7-8.7-8.8c0-6.1,3.2-9.4,8.9-9.4c4.3,0,7.2,2.1,7.8,5.7l0.1,0.6h5.1l-0.1-0.8
			C130.5,2.7,123.9,0,117.9,0C109.5,0,104.1,5.4,104.1,13.7"/>
	</defs>
	<clipPath id="SVGID_62_">
		<use xlink:href="#SVGID_61_"  style="overflow:visible;"/>
	</clipPath>
	
		<linearGradient id="SVGID_63_" gradientUnits="userSpaceOnUse" x1="-180.6114" y1="475.4384" x2="-179.6116" y2="475.4384" gradientTransform="matrix(0 -28.067 -28.067 0 13461.8125 -5041.9663)">
		<stop  offset="0" style="stop-color:#0D519A"/>
		<stop  offset="1" style="stop-color:#8B3A95"/>
	</linearGradient>
	<rect x="104.1" class="st20" width="27.1" height="27.6"/>
</g>
<g>
	<defs>
		<polygon id="SVGID_64_" points="140.5,0.6 140.5,27 162.4,27 162.4,22.3 145.7,22.3 145.7,15.8 161.5,15.8 161.5,11 145.7,11 
			145.7,5.3 162,5.3 162,0.6 		"/>
	</defs>
	<clipPath id="SVGID_65_">
		<use xlink:href="#SVGID_64_"  style="overflow:visible;"/>
	</clipPath>
	
		<linearGradient id="SVGID_66_" gradientUnits="userSpaceOnUse" x1="-180.6115" y1="475.4386" x2="-179.6114" y2="475.4386" gradientTransform="matrix(0 -28.067 -28.067 0 13495.5771 -5041.9663)">
		<stop  offset="0" style="stop-color:#0D519A"/>
		<stop  offset="1" style="stop-color:#8B3A95"/>
	</linearGradient>
	<rect x="140.5" y="0.6" class="st21" width="21.9" height="26.4"/>
</g>
<g>
	<defs>
		<path id="SVGID_67_" d="M176.8,5.3h9.7c2.4,0,3.6,1.1,3.6,3.2c0,1.5-0.6,3.2-3.7,3.2h-9.6V5.3z M171.6,0.6V27h5.2V16.5h8.9
			c2.5,0,3.8,0.8,4.1,5.1l0,0.8c0.1,2.5,0.2,3.6,0.9,4.4l0.2,0.3h5.9l-1.1-1.2c-0.6-0.8-0.8-1.7-1-6.3c-0.1-2.5-1-4.4-2.5-5.4
			c2-1.2,3.1-3.4,3.1-6.1c0-3.4-2-7.4-7.5-7.4H171.6z"/>
	</defs>
	<clipPath id="SVGID_68_">
		<use xlink:href="#SVGID_67_"  style="overflow:visible;"/>
	</clipPath>
	
		<linearGradient id="SVGID_69_" gradientUnits="userSpaceOnUse" x1="-180.6115" y1="475.4385" x2="-179.6114" y2="475.4385" gradientTransform="matrix(0 -28.067 -28.067 0 13528.2959 -5041.9663)">
		<stop  offset="0" style="stop-color:#0D519A"/>
		<stop  offset="1" style="stop-color:#8B3A95"/>
	</linearGradient>
	<rect x="171.6" y="0.6" class="st22" width="25.2" height="26.4"/>
</g>
<g>
	<defs>
		<path id="SVGID_70_" d="M221,8.3c0,5.9,6,6.9,8,7.3l5.6,0.9c3.5,0.6,4,1.8,4,3c0,2.6-3.1,3.5-6,3.5c-3.3,0-7.2-0.8-7.3-4.9l0-0.7
			h-5.2v0.8c0,6.1,4.4,9.6,12.2,9.6c7.2,0,11.4-3.3,11.4-8.9c0-5.7-6.1-6.8-8.1-7.1l-6.1-1c-3.5-0.6-3.5-2-3.5-2.5
			c0-2.6,3.2-3.3,5-3.3c5.3,0,6.3,2.1,6.6,4l0.1,0.6h5.1l0-0.8c-0.3-5.4-4.4-8.5-11.3-8.5C225.1,0,221,3.2,221,8.3"/>
	</defs>
	<clipPath id="SVGID_71_">
		<use xlink:href="#SVGID_70_"  style="overflow:visible;"/>
	</clipPath>
	
		<linearGradient id="SVGID_72_" gradientUnits="userSpaceOnUse" x1="-180.6114" y1="475.4391" x2="-179.6116" y2="475.4391" gradientTransform="matrix(0 -28.067 -28.067 0 13576.2178 -5041.9663)">
		<stop  offset="0" style="stop-color:#0D519A"/>
		<stop  offset="1" style="stop-color:#8B3A95"/>
	</linearGradient>
	<rect x="220.3" class="st23" width="23.6" height="27.6"/>
</g>
<g>
	<defs>
		<polygon id="SVGID_73_" points="271.4,0.6 263.6,11.4 255.8,0.6 249.2,0.6 260.9,16.3 260.9,27 266.1,27 266.1,16.1 277.8,0.6 		
			"/>
	</defs>
	<clipPath id="SVGID_74_">
		<use xlink:href="#SVGID_73_"  style="overflow:visible;"/>
	</clipPath>
	
		<linearGradient id="SVGID_75_" gradientUnits="userSpaceOnUse" x1="-180.6115" y1="475.4384" x2="-179.6114" y2="475.4384" gradientTransform="matrix(0 -28.067 -28.067 0 13607.6563 -5041.9663)">
		<stop  offset="0" style="stop-color:#0D519A"/>
		<stop  offset="1" style="stop-color:#8B3A95"/>
	</linearGradient>
	<rect x="249.2" y="0.6" class="st24" width="28.6" height="26.4"/>
</g>
<g>
	<defs>
		<path id="SVGID_76_" d="M283.1,8.3c0,5.9,6,6.9,8,7.3l5.6,0.9c3.5,0.6,4,1.8,4,3c0,2.6-3.1,3.5-6,3.5c-3.3,0-7.2-0.8-7.3-4.9
			l0-0.7h-5.2v0.8c0,6.1,4.4,9.6,12.2,9.6c7.2,0,11.4-3.3,11.4-8.9c0-5.7-6.1-6.8-8.1-7.1l-6.1-1c-3.5-0.6-3.5-2-3.5-2.5
			c0-2.6,3.2-3.3,5-3.3c5.3,0,6.4,2.1,6.6,4l0.1,0.6h5.1l0-0.8c-0.3-5.4-4.4-8.5-11.3-8.5C287.2,0,283.1,3.2,283.1,8.3"/>
	</defs>
	<clipPath id="SVGID_77_">
		<use xlink:href="#SVGID_76_"  style="overflow:visible;"/>
	</clipPath>
	
		<linearGradient id="SVGID_78_" gradientUnits="userSpaceOnUse" x1="-180.6114" y1="475.4387" x2="-179.6116" y2="475.4387" gradientTransform="matrix(0 -28.067 -28.067 0 13638.3271 -5041.9663)">
		<stop  offset="0" style="stop-color:#0D519A"/>
		<stop  offset="1" style="stop-color:#8B3A95"/>
	</linearGradient>
	<rect x="282.4" class="st25" width="23.6" height="27.6"/>
</g>
<g>
	<defs>
		<polygon id="SVGID_79_" points="312.4,0.6 312.4,5.3 321.8,5.3 321.8,27 327,27 327,5.3 336.4,5.3 336.4,0.6 		"/>
	</defs>
	<clipPath id="SVGID_80_">
		<use xlink:href="#SVGID_79_"  style="overflow:visible;"/>
	</clipPath>
	
		<linearGradient id="SVGID_81_" gradientUnits="userSpaceOnUse" x1="-180.6115" y1="475.4382" x2="-179.6114" y2="475.4382" gradientTransform="matrix(0 -28.067 -28.067 0 13668.499 -5041.9663)">
		<stop  offset="0" style="stop-color:#0D519A"/>
		<stop  offset="1" style="stop-color:#8B3A95"/>
	</linearGradient>
	<rect x="312.4" y="0.6" class="st26" width="24" height="26.4"/>
</g>
<g>
	<defs>
		<polygon id="SVGID_82_" points="343.8,0.6 343.8,27 365.7,27 365.7,22.3 349,22.3 349,15.8 364.9,15.8 364.9,11 349,11 349,5.3 
			365.3,5.3 365.3,0.6 		"/>
	</defs>
	<clipPath id="SVGID_83_">
		<use xlink:href="#SVGID_82_"  style="overflow:visible;"/>
	</clipPath>
	
		<linearGradient id="SVGID_84_" gradientUnits="userSpaceOnUse" x1="-180.6115" y1="475.4417" x2="-179.6114" y2="475.4417" gradientTransform="matrix(0 -28.067 -28.067 0 13698.9902 -5041.9663)">
		<stop  offset="0" style="stop-color:#0D519A"/>
		<stop  offset="1" style="stop-color:#8B3A95"/>
	</linearGradient>
	<rect x="343.8" y="0.6" class="st27" width="21.9" height="26.4"/>
</g>
<g>
	<defs>
		<polygon id="SVGID_85_" points="400.7,0.6 391.2,20.3 381.9,0.6 375.4,0.6 375.4,27 380.6,27 380.6,9.2 389.1,27 393.4,27 
			401.9,8.8 401.9,27 407.1,27 407.1,0.6 		"/>
	</defs>
	<clipPath id="SVGID_86_">
		<use xlink:href="#SVGID_85_"  style="overflow:visible;"/>
	</clipPath>
	
		<linearGradient id="SVGID_87_" gradientUnits="userSpaceOnUse" x1="-180.6115" y1="475.4422" x2="-179.6114" y2="475.4422" gradientTransform="matrix(0 -28.067 -28.067 0 13735.499 -5041.9663)">
		<stop  offset="0" style="stop-color:#0D519A"/>
		<stop  offset="1" style="stop-color:#8B3A95"/>
	</linearGradient>
	<rect x="375.4" y="0.6" class="st28" width="31.6" height="26.4"/>
</g>
<g>
	<defs>
		<path id="SVGID_88_" d="M416.3,8.3c0,5.9,6,6.9,8,7.3l5.6,0.9c3.5,0.6,4,1.8,4,3c0,2.6-3.1,3.5-6,3.5c-3.3,0-7.2-0.8-7.3-4.9
			l0-0.7h-5.2v0.8c0,6.1,4.4,9.6,12.2,9.6c7.2,0,11.4-3.3,11.4-8.9c0-5.7-6.1-6.8-8.1-7.1l-6.1-1c-3.5-0.6-3.5-2-3.5-2.5
			c0-2.6,3.2-3.3,5-3.3c5.3,0,6.3,2.1,6.6,4l0.1,0.6h5.1l0-0.8C438,3.1,433.9,0,427,0C420.4,0,416.3,3.2,416.3,8.3"/>
	</defs>
	<clipPath id="SVGID_89_">
		<use xlink:href="#SVGID_88_"  style="overflow:visible;"/>
	</clipPath>
	
		<linearGradient id="SVGID_90_" gradientUnits="userSpaceOnUse" x1="-180.6114" y1="475.4392" x2="-179.6116" y2="475.4392" gradientTransform="matrix(0 -28.067 -28.067 0 13771.4678 -5041.9663)">
		<stop  offset="0" style="stop-color:#0D519A"/>
		<stop  offset="1" style="stop-color:#8B3A95"/>
	</linearGradient>
	<rect x="415.5" class="st29" width="23.6" height="27.6"/>
</g>
</svg>
