<?xml version="1.0" encoding="utf-8"?>
<!-- Generator: Adobe Illustrator 25.4.1, SVG Export Plug-In . SVG Version: 6.00 Build 0)  -->
<svg version="1.1" id="Layer_1" xmlns="http://www.w3.org/2000/svg" xmlns:xlink="http://www.w3.org/1999/xlink" x="0px" y="0px"
	 viewBox="0 0 450.5 140.6" style="enable-background:new 0 0 450.5 140.6;" xml:space="preserve">
<style type="text/css">
	.st0{fill:none;stroke:url(#SVGID_1_);stroke-miterlimit:10;}
	.st1{fill:none;stroke:url(#SVGID_00000088823860340624495050000006152547055928005291_);stroke-miterlimit:10;}
	.st2{fill:none;stroke:url(#SVGID_00000158736376906430485070000001634455983920106399_);stroke-miterlimit:10;}
	.st3{fill:none;stroke:url(#SVGID_00000024715077756120890290000011160929621684115871_);stroke-miterlimit:10;}
	.st4{fill:none;stroke:url(#SVGID_00000060734755953885868410000004105060988036127161_);stroke-miterlimit:10;}
	.st5{fill:none;stroke:url(#SVGID_00000071535519597459446920000003867944590912381603_);stroke-miterlimit:10;}
	.st6{fill:none;stroke:url(#SVGID_00000082335877032837770270000000885909663862095236_);stroke-miterlimit:10;}
	.st7{fill:none;stroke:url(#SVGID_00000116916175148780855620000007121811507972686265_);stroke-miterlimit:10;}
	.st8{fill:none;stroke:url(#SVGID_00000117649447792718625670000011507075907264040601_);stroke-miterlimit:10;}
	.st9{fill:#7C7CF7;}
	.st10{fill:#313135;}
	.st11{fill:#8A8AC1;}
	.st12{fill:#FFFFFF;}
	.st13{fill:#8AA2BF;}
	.st14{fill:url(#SVGID_00000009564273824871714920000017357435690728293535_);}
	.st15{fill:url(#SVGID_00000082342856123073354480000012343213787057200311_);}
	.st16{fill:url(#SVGID_00000168807832339190670700000014432896346406298557_);}
	.st17{fill:url(#SVGID_00000093173079780512025900000000858990660374219936_);}
	.st18{fill:url(#SVGID_00000100350118576725041610000012647177826525001881_);}
	.st19{fill:url(#SVGID_00000144329295197566928970000005327266921028390826_);}
	.st20{fill:url(#SVGID_00000109031627342525135350000007528442951993746826_);}
	.st21{fill:url(#SVGID_00000049188431013310057970000001458783411857794229_);}
	.st22{fill:url(#SVGID_00000075884911990942498870000017029642712816408476_);}
	.st23{fill:url(#SVGID_00000065075111320829346260000007245033637520249994_);}
	.st24{fill:url(#SVGID_00000114788974097757970560000005126012101906188946_);}
	.st25{fill:url(#SVGID_00000072272179553102312950000000227264211595697327_);}
</style>
<g>
	<linearGradient id="SVGID_1_" gradientUnits="userSpaceOnUse" x1="62.4417" y1="48.1407" x2="399.5391" y2="43.0137">
		<stop  offset="0" style="stop-color:#69E8BD"/>
		<stop  offset="1" style="stop-color:#5046E4"/>
	</linearGradient>
	<path class="st0" d="M62.7,67.5c0,0,206.9,1.8,336.3-44.1"/>
	
		<linearGradient id="SVGID_00000085937733850380411880000001441241178155441025_" gradientUnits="userSpaceOnUse" x1="62.5136" y1="54.3046" x2="399.4389" y2="49.1802">
		<stop  offset="0" style="stop-color:#69E8BD"/>
		<stop  offset="1" style="stop-color:#5046E4"/>
	</linearGradient>
	<path style="fill:none;stroke:url(#SVGID_00000085937733850380411880000001441241178155441025_);stroke-miterlimit:10;" d="
		M62.7,68.9c0,0,208.4,2,336.3-34.7"/>
	
		<linearGradient id="SVGID_00000103252169992774086320000010259031112941669280_" gradientUnits="userSpaceOnUse" x1="62.5864" y1="60.5218" x2="399.3372" y2="55.4001">
		<stop  offset="0" style="stop-color:#69E8BD"/>
		<stop  offset="1" style="stop-color:#5046E4"/>
	</linearGradient>
	<path style="fill:none;stroke:url(#SVGID_00000103252169992774086320000010259031112941669280_);stroke-miterlimit:10;" d="
		M62.7,70.3c0,0,210,2.3,336.3-25.2"/>
	
		<linearGradient id="SVGID_00000085230687572218596630000002393483076564066220_" gradientUnits="userSpaceOnUse" x1="62.6612" y1="66.8736" x2="399.2353" y2="61.7546">
		<stop  offset="0" style="stop-color:#69E8BD"/>
		<stop  offset="1" style="stop-color:#5046E4"/>
	</linearGradient>
	<path style="fill:none;stroke:url(#SVGID_00000085230687572218596630000002393483076564066220_);stroke-miterlimit:10;" d="
		M62.7,71.7c0,0,211.6,2.5,336.3-15.8"/>
	
		<linearGradient id="SVGID_00000146501758317423590270000005893662139003275710_" gradientUnits="userSpaceOnUse" x1="62.7427" y1="73.6679" x2="399.1382" y2="68.5516">
		<stop  offset="0" style="stop-color:#69E8BD"/>
		<stop  offset="1" style="stop-color:#5046E4"/>
	</linearGradient>
	<path style="fill:none;stroke:url(#SVGID_00000146501758317423590270000005893662139003275710_);stroke-miterlimit:10;" d="
		M62.7,73.1c0,0,213.1,2.8,336.3-6.4"/>
	
		<linearGradient id="SVGID_00000013156553138367838220000016029068261765413263_" gradientUnits="userSpaceOnUse" x1="62.796" y1="78.6088" x2="399.0268" y2="73.495">
		<stop  offset="0" style="stop-color:#69E8BD"/>
		<stop  offset="1" style="stop-color:#5046E4"/>
	</linearGradient>
	<path style="fill:none;stroke:url(#SVGID_00000013156553138367838220000016029068261765413263_);stroke-miterlimit:10;" d="
		M62.7,74.5c0,0,214.7,3,336.3,3"/>
	
		<linearGradient id="SVGID_00000175318363309985268470000010638509563580740267_" gradientUnits="userSpaceOnUse" x1="62.8672" y1="84.7206" x2="398.9931" y2="79.6085">
		<stop  offset="0" style="stop-color:#69E8BD"/>
		<stop  offset="1" style="stop-color:#5046E4"/>
	</linearGradient>
	<path style="fill:none;stroke:url(#SVGID_00000175318363309985268470000010638509563580740267_);stroke-miterlimit:10;" d="
		M62.7,75.9c0,0,216.2,3.3,336.3,12.5"/>
	
		<linearGradient id="SVGID_00000139978460361110895320000004966679096744790201_" gradientUnits="userSpaceOnUse" x1="62.9383" y1="90.831" x2="398.9597" y2="85.7204">
		<stop  offset="0" style="stop-color:#69E8BD"/>
		<stop  offset="1" style="stop-color:#5046E4"/>
	</linearGradient>
	<path style="fill:none;stroke:url(#SVGID_00000139978460361110895320000004966679096744790201_);stroke-miterlimit:10;" d="
		M62.7,77.3c0,0,217.8,3.6,336.3,21.9"/>
	
		<linearGradient id="SVGID_00000057833584254879039590000015214215621218766762_" gradientUnits="userSpaceOnUse" x1="63.0095" y1="96.9398" x2="398.9259" y2="91.8308">
		<stop  offset="0" style="stop-color:#69E8BD"/>
		<stop  offset="1" style="stop-color:#5046E4"/>
	</linearGradient>
	<path style="fill:none;stroke:url(#SVGID_00000057833584254879039590000015214215621218766762_);stroke-miterlimit:10;" d="
		M62.7,78.7c0,0,219.3,3.8,336.3,31.3"/>
</g>
<path class="st9" d="M286.8,125.7H163.7c-5.7,0-10.4-4.6-10.4-10.4V27.1c0-5.7,4.6-10.4,10.4-10.4h123.1c5.7,0,10.4,4.6,10.4,10.4
	v88.3C297.2,121.1,292.5,125.7,286.8,125.7z"/>
<path class="st10" d="M276.7,118.1h-103c-5.7,0-10.4-4.6-10.4-10.4v-73c0-5.7,4.6-10.4,10.4-10.4h103c5.7,0,10.4,4.6,10.4,10.4v73
	C287.1,113.4,282.5,118.1,276.7,118.1z"/>
<circle class="st11" cx="399.1" cy="71.2" r="51.4"/>
<g>
	<g>
		<path class="st12" d="M381.3,69.8c0-5.6,1.6-10,4.7-13.1s7.5-4.7,13.1-4.7c5.7,0,10.1,1.5,13.2,4.6s4.6,7.4,4.6,12.9
			c0,4-0.7,7.3-2,9.9c-1.4,2.6-3.3,4.6-5.9,6s-5.7,2.1-9.6,2.1c-3.9,0-7.1-0.6-9.6-1.9s-4.6-3.2-6.2-5.9
			C382.1,77.2,381.3,73.9,381.3,69.8z M391.9,69.9c0,3.5,0.6,6,1.9,7.5s3,2.3,5.3,2.3c2.3,0,4-0.7,5.3-2.2s1.9-4.1,1.9-8
			c0-3.2-0.7-5.6-2-7.1s-3.1-2.2-5.3-2.2c-2.1,0-3.9,0.8-5.2,2.3S391.9,66.4,391.9,69.9z"/>
	</g>
</g>
<circle class="st13" cx="54.4" cy="74.8" r="51.4"/>
<g>
	<path class="st12" d="M49.1,54.4h10.6v34.4H49.1V54.4z"/>
</g>
<linearGradient id="SVGID_00000040533662821718479580000016529126977580297122_" gradientUnits="userSpaceOnUse" x1="146.7933" y1="72.9375" x2="282.4284" y2="70.8746">
	<stop  offset="0" style="stop-color:#69E8BD"/>
	<stop  offset="1" style="stop-color:#FF4215"/>
</linearGradient>
<path style="fill:url(#SVGID_00000040533662821718479580000016529126977580297122_);" d="M172.3,81.5L172.3,81.5
	c-1.5,0-2.7-1.2-2.7-2.7V66.4c0-1.5,1.2-2.7,2.7-2.7h0c1.5,0,2.7,1.2,2.7,2.7v12.4C175,80.2,173.8,81.5,172.3,81.5z"/>
<linearGradient id="SVGID_00000048499948158892393920000016215363758490648998_" gradientUnits="userSpaceOnUse" x1="145.3554" y1="72.4045" x2="288.6578" y2="70.225">
	<stop  offset="0" style="stop-color:#69E8BD"/>
	<stop  offset="1" style="stop-color:#5046E4"/>
</linearGradient>
<path style="fill:url(#SVGID_00000048499948158892393920000016215363758490648998_);" d="M182,86.9L182,86.9c-1.5,0-2.7-1.2-2.7-2.7
	V59.5c0-1.5,1.2-2.7,2.7-2.7h0c1.5,0,2.7,1.2,2.7,2.7v24.7C184.7,85.7,183.5,86.9,182,86.9z"/>
<linearGradient id="SVGID_00000013189656119746283710000015746184354449805185_" gradientUnits="userSpaceOnUse" x1="145.3577" y1="72.5526" x2="288.6601" y2="70.3731">
	<stop  offset="0" style="stop-color:#69E8BD"/>
	<stop  offset="1" style="stop-color:#5046E4"/>
</linearGradient>
<path style="fill:url(#SVGID_00000013189656119746283710000015746184354449805185_);" d="M191.7,91.2L191.7,91.2
	c-1.5,0-2.7-1.2-2.7-2.7V55.2c0-1.5,1.2-2.7,2.7-2.7l0,0c1.5,0,2.7,1.2,2.7,2.7v33.3C194.5,90,193.2,91.2,191.7,91.2z"/>
<linearGradient id="SVGID_00000041260466487586310980000003185874076641268382_" gradientUnits="userSpaceOnUse" x1="145.3622" y1="72.8487" x2="288.6646" y2="70.6692">
	<stop  offset="0" style="stop-color:#69E8BD"/>
	<stop  offset="1" style="stop-color:#5046E4"/>
</linearGradient>
<path style="fill:url(#SVGID_00000041260466487586310980000003185874076641268382_);" d="M211.2,91.2L211.2,91.2
	c-1.5,0-2.7-1.2-2.7-2.7V55.2c0-1.5,1.2-2.7,2.7-2.7l0,0c1.5,0,2.7,1.2,2.7,2.7v33.3C213.9,90,212.7,91.2,211.2,91.2z"/>
<linearGradient id="SVGID_00000123427091193949837750000017753951264137024951_" gradientUnits="userSpaceOnUse" x1="145.3644" y1="72.9967" x2="288.6668" y2="70.8172">
	<stop  offset="0" style="stop-color:#69E8BD"/>
	<stop  offset="1" style="stop-color:#5046E4"/>
</linearGradient>
<path style="fill:url(#SVGID_00000123427091193949837750000017753951264137024951_);" d="M221,82.5L221,82.5c-1.5,0-2.7-1.2-2.7-2.7
	V63.9c0-1.5,1.2-2.7,2.7-2.7l0,0c1.5,0,2.7,1.2,2.7,2.7v15.9C223.7,81.3,222.5,82.5,221,82.5z"/>
<linearGradient id="SVGID_00000011032744936524549850000006996710634467297186_" gradientUnits="userSpaceOnUse" x1="145.3667" y1="73.1448" x2="288.6691" y2="70.9653">
	<stop  offset="0" style="stop-color:#69E8BD"/>
	<stop  offset="1" style="stop-color:#5046E4"/>
</linearGradient>
<path style="fill:url(#SVGID_00000011032744936524549850000006996710634467297186_);" d="M230.7,79L230.7,79c-1.5,0-2.7-1.2-2.7-2.7
	v-8.8c0-1.5,1.2-2.7,2.7-2.7h0c1.5,0,2.7,1.2,2.7,2.7v8.8C233.4,77.7,232.2,79,230.7,79z"/>
<linearGradient id="SVGID_00000166641146643109377320000015871201168866659245_" gradientUnits="userSpaceOnUse" x1="145.369" y1="73.2929" x2="288.6714" y2="71.1134">
	<stop  offset="0" style="stop-color:#69E8BD"/>
	<stop  offset="1" style="stop-color:#5046E4"/>
</linearGradient>
<path style="fill:url(#SVGID_00000166641146643109377320000015871201168866659245_);" d="M240.4,94.8L240.4,94.8
	c-1.5,0-2.7-1.2-2.7-2.7V51.6c0-1.5,1.2-2.7,2.7-2.7h0c1.5,0,2.7,1.2,2.7,2.7v40.5C243.2,93.6,241.9,94.8,240.4,94.8z"/>
<linearGradient id="SVGID_00000043421721479867937450000004433456253392893851_" gradientUnits="userSpaceOnUse" x1="145.3712" y1="73.4409" x2="288.6736" y2="71.2614">
	<stop  offset="0" style="stop-color:#69E8BD"/>
	<stop  offset="1" style="stop-color:#5046E4"/>
</linearGradient>
<path style="fill:url(#SVGID_00000043421721479867937450000004433456253392893851_);" d="M250.2,100.8L250.2,100.8
	c-1.5,0-2.7-1.2-2.7-2.7V45.7c0-1.5,1.2-2.7,2.7-2.7l0,0c1.5,0,2.7,1.2,2.7,2.7V98C252.9,99.5,251.7,100.8,250.2,100.8z"/>
<linearGradient id="SVGID_00000053546830674121207220000016323302861739171232_" gradientUnits="userSpaceOnUse" x1="145.3735" y1="73.589" x2="288.6758" y2="71.4095">
	<stop  offset="0" style="stop-color:#69E8BD"/>
	<stop  offset="1" style="stop-color:#5046E4"/>
</linearGradient>
<path style="fill:url(#SVGID_00000053546830674121207220000016323302861739171232_);" d="M259.9,89.7L259.9,89.7
	c-1.5,0-2.7-1.2-2.7-2.7V56.7c0-1.5,1.2-2.7,2.7-2.7l0,0c1.5,0,2.7,1.2,2.7,2.7V87C262.6,88.5,261.4,89.7,259.9,89.7z"/>
<linearGradient id="SVGID_00000150821408804292037290000004202488137821630108_" gradientUnits="userSpaceOnUse" x1="145.3757" y1="73.737" x2="288.6781" y2="71.5575">
	<stop  offset="0" style="stop-color:#69E8BD"/>
	<stop  offset="1" style="stop-color:#5046E4"/>
</linearGradient>
<path style="fill:url(#SVGID_00000150821408804292037290000004202488137821630108_);" d="M269.6,83.6L269.6,83.6
	c-1.5,0-2.7-1.2-2.7-2.7v-18c0-1.5,1.2-2.7,2.7-2.7l0,0c1.5,0,2.7,1.2,2.7,2.7v18C272.4,82.4,271.1,83.6,269.6,83.6z"/>
<linearGradient id="SVGID_00000060741419644566800050000015365166922332122524_" gradientUnits="userSpaceOnUse" x1="145.378" y1="73.8851" x2="288.6833" y2="71.7055">
	<stop  offset="0" style="stop-color:#69E8BD"/>
	<stop  offset="1" style="stop-color:#5046E4"/>
</linearGradient>
<path style="fill:url(#SVGID_00000060741419644566800050000015365166922332122524_);" d="M279.4,91.8L279.4,91.8
	c-1.5,0-2.7-1.2-2.7-2.7V54.7c0-1.5,1.2-2.7,2.7-2.7l0,0c1.5,0,2.7,1.2,2.7,2.7V89C282.1,90.5,280.9,91.8,279.4,91.8z"/>
<linearGradient id="SVGID_00000153692652788493104320000008123110007613188250_" gradientUnits="userSpaceOnUse" x1="145.3599" y1="72.7006" x2="288.6624" y2="70.5211">
	<stop  offset="0" style="stop-color:#69E8BD"/>
	<stop  offset="1" style="stop-color:#5046E4"/>
</linearGradient>
<path style="fill:url(#SVGID_00000153692652788493104320000008123110007613188250_);" d="M201.5,101.3L201.5,101.3
	c-1.5,0-2.7-1.2-2.7-2.7V45.1c0-1.5,1.2-2.7,2.7-2.7l0,0c1.5,0,2.7,1.2,2.7,2.7v53.4C204.2,100.1,203,101.3,201.5,101.3z"/>
</svg>
