<?xml version="1.0" encoding="utf-8"?>
<!-- Generator: Adobe Illustrator 25.0.0, SVG Export Plug-In . SVG Version: 6.00 Build 0)  -->
<svg version="1.1" id="Layer_1" xmlns="http://www.w3.org/2000/svg" xmlns:xlink="http://www.w3.org/1999/xlink" x="0px" y="0px"
	 viewBox="0 0 524.7 421.7" style="enable-background:new 0 0 524.7 421.7;" xml:space="preserve">
<style type="text/css">
	.st0{fill:#715FC9;}
	.st1{fill:#FFFFFF;}
	.st2{opacity:0.32;}
	.st3{fill:#F27596;}
	.st4{opacity:0.21;}
	.st5{fill:#F9ACC3;}
	.st6{opacity:0.11;}
	.st7{fill:#5B3DC9;}
	.st8{fill:#7956D8;}
	.st9{opacity:0.32;fill:#F7A54B;enable-background:new    ;}
	.st10{opacity:0.32;fill:#F7C38F;enable-background:new    ;}
	.st11{opacity:0.21;fill:#F7C38F;enable-background:new    ;}
	.st12{opacity:0.11;fill:#F7C38F;enable-background:new    ;}
	.st13{fill:#42CBE2;}
	.st14{fill:#78E4EF;}
	.st15{fill:#1490C1;}
	.st16{fill:#299AD3;}
	.st17{fill:#81D2F2;}
	.st18{fill:#F77F6F;}
	.st19{fill:#FFB6B0;}
	.st20{opacity:0.49;}
	.st21{fill:#DD4372;}
	.st22{opacity:0.52;}
	.st23{opacity:0.67;}
	.st24{opacity:0.55;}
	.st25{fill:#E5892C;}
	.st26{fill:#F7A54B;}
	.st27{opacity:0.5;}
	.st28{opacity:0.47;}
	.st29{fill:#E85449;}
	.st30{opacity:0.53;}
	.st31{opacity:0.52;fill:#22B0BF;enable-background:new    ;}
	.st32{fill:#BAB6DD;}
	.st33{fill:#00A99D;}
	.st34{fill:#FBB03B;}
	.st35{fill:#0071BC;}
	.st36{fill:#C1272D;}
	.st37{fill:#29ABE2;}
	.st38{fill:#F7931E;}
	.st39{fill:#FEBD3A;}
	.st40{fill:#00CF96;}
	.st41{fill:#A67C52;}
</style>
<g id="ocwaA6.tif">
	<g>
		<path class="st0" d="M211.2,145.5c30.2,0,60.4,0,90.6,0c0.5,0,0.9,0.1,1.4,0.1c10,0.1,20.1,0.3,30.1,0.4c2.2,0,4.5,0.1,6.7,0.3
			c3.7,0.3,6.4,2.4,9,4.9c1.2,1.2,1.7,2.5,1.7,4.2c0.1,42.6,0.3,85.1,0.4,127.7c0,2.2,0.6,3.6,2.2,5.1c4.3,4.1,8.4,8.3,12.5,12.5
			c2.4,2.5,4.7,5.1,7.1,7.7c1.5,1.7,1.6,3.6,0.7,5.6c-1,2.3-2.6,4.1-4.4,5.7c-0.8,0.8-1.6,1.1-2.8,1.1c-80.3,0-160.7,0-241,0
			c-0.2,0-0.5,0.1-0.7,0c-0.5-0.2-1.2-0.3-1.6-0.7c-2.6-2-4.5-4.6-5.6-7.7c0-0.6,0-1.2,0-1.8c1.2-1.6,2.1-3.4,3.5-4.8
			c6.1-6.3,12.3-12.5,18.5-18.7c0.7-0.7,1-1.4,1-2.4c0-15,0-30.1,0-45.1c0-27.6,0-55.2,0-82.8c0-0.7,0.1-1.4,0.4-2
			c0.7-1.2,1.5-2.5,2.4-3.6c2.1-2.5,4.5-4.6,8.1-4.6c2.3,0,4.5-0.2,6.8-0.2c15-0.2,30.1-0.4,45.1-0.6
			C205.9,145.7,208.5,145.6,211.2,145.5z M338.9,157.6c-0.5,0-0.8,0-1.2,0c-19-0.1-38-0.1-57-0.2c-17.7-0.1-35.4-0.1-53.2-0.1
			c-22.5,0-44.9,0.2-67.4,0.3c-2.2,0-4.4,0.3-6.7,0.4c-0.9,0-1.2,0.5-1.2,1.3c0,2-0.1,4-0.1,6c0.1,39.8,0.1,79.6,0.2,119.3
			c0,0.4,0,0.8,0,1.3c62.2,0,124.3,0,186.4,0C338.9,243.2,338.9,200.5,338.9,157.6z M213.4,309.1c21.6,1,42.9,0.9,64.3-0.2
			c-0.3-0.9-0.6-1.6-1.1-2.2c-2.4-2.4-4.8-4.8-7.3-7.1c-0.3-0.3-0.9-0.4-1.3-0.4c-14.8,0-29.7,0-44.5,0c-0.4,0-1,0-1.2,0.3
			c-2.7,2.6-5.4,5.2-8,7.9C214,307.8,213.9,308.3,213.4,309.1z"/>
		<path class="st1" d="M338.9,157.6c0,42.9,0,85.6,0,128.4c-62.1,0-124.2,0-186.4,0c0-0.5,0-0.9,0-1.3c-0.1-39.8-0.2-79.6-0.2-119.3
			c0-2,0.1-4,0.1-6c0-0.8,0.3-1.3,1.2-1.3c2.2-0.1,4.4-0.4,6.7-0.4c22.5-0.1,44.9-0.3,67.4-0.3c17.7,0,35.4,0.1,53.2,0.1
			c19,0.1,38,0.1,57,0.2C338.1,157.6,338.5,157.6,338.9,157.6z"/>
		<path class="st1" d="M213.4,309.1c0.4-0.8,0.5-1.3,0.8-1.7c2.6-2.7,5.3-5.3,8-7.9c0.3-0.3,0.8-0.3,1.2-0.3c14.8,0,29.7,0,44.5,0
			c0.4,0,1,0.1,1.3,0.4c2.5,2.3,4.9,4.7,7.3,7.1c0.5,0.5,0.8,1.3,1.1,2.2C256.4,310.1,235.1,310.1,213.4,309.1z"/>
	</g>
</g>
<g>
	<g class="st2">
		<path class="st3" d="M473.1,57.6c0.9-4.9,1.6-9.9,2-15c0.4-5,0.6-10.1,0.5-15.4c0-0.8,0.5-1.4,1.2-1.5l15-1.2
			c0.7-0.1,1.2,0.7,1.2,1.6c0,3.1-0.1,6.1-0.3,9c-0.2,2.9-0.4,5.7-0.8,8.6c-0.7,5.6-1.6,11.1-2.8,16.5c-0.2,0.8-0.8,1.3-1.4,1.2
			L474,59.1C473.4,59,473,58.3,473.1,57.6z"/>
	</g>
	<g class="st2">
		<path class="st3" d="M448.4,74.3c2.2-8.4,3.7-17,4.5-25.6c0-0.6,0.6-1.1,1.2-1l14.2,1.6c0.6,0.1,1.1,0.7,1,1.4
			c-1.3,9.6-3.4,19.1-6.3,28.3c-0.2,0.7-0.8,1.1-1.4,0.9l-12.5-4.1C448.6,75.5,448.2,74.9,448.4,74.3z"/>
	</g>
	<g class="st2">
		<path class="st3" d="M453.5,108.2c3.2-5.8,6-11.9,8.5-18.2c0.2-0.7,0.9-1,1.5-0.8l8,3.1c0.5,0.2,0.7,1,0.4,1.6
			c-2.8,6.6-6,13-9.6,19.1c-0.4,0.7-1.1,1-1.6,0.7l-7-3.9C453.3,109.5,453.2,108.8,453.5,108.2z"/>
	</g>
	<g class="st2">
		<path class="st3" d="M439.7,42.3c0-2.6-0.1-5.2-0.3-7.8c-0.1-1.3-0.2-2.5-0.3-3.7c-0.1-1.2-0.3-2.4-0.5-3.2c0-0.1,0-0.2,0-0.2
			c0-0.1,0.1-0.2,0.2-0.2c0,0,0.1,0,0.2-0.1c0,0,0,0,0.1,0h0c0,0,0,0,0,0.1c0.1,0.1,0.3,0.1,0.5,0.1l10-1.5c0.6-0.3,1.3,0,1.3,0.5
			c0.1,1.2,0.3,2.6,0.4,4s0.2,2.8,0.2,4.2c0.1,2.9,0,5.7,0,8.7c0,0.6-0.6,1.1-1.2,1l-9.5-0.9C440.2,43.4,439.7,42.9,439.7,42.3z"/>
	</g>
	<g class="st2">
		<path class="st3" d="M429,80.1c1.5-5.1,2.7-10.3,3.5-15.5c0.1-0.6,0.6-0.9,1.2-0.7l8.7,2.4c0.6,0.2,1,0.8,0.8,1.4
			c-1.2,5.6-2.7,11.2-4.6,16.7c-0.2,0.6-0.8,0.9-1.3,0.6l-7.8-3.4C429.1,81.2,428.8,80.6,429,80.1z"/>
	</g>
	<g class="st2">
		<path class="st3" d="M373.7,184.2c1.4-0.8,2.8-1.5,4.2-2.3l4.1-2.4c0.7-0.4,1.4-0.8,2-1.2l2-1.3c1.4-0.9,2.7-1.7,4-2.5
			c0.5-0.4,1.2-0.4,1.4-0.1l3.2,5c0.2,0.4-0.1,0.9-0.7,1.3c-1.4,0.9-2.8,1.7-4.2,2.5l-2.1,1.2c-0.7,0.4-1.5,0.8-2.1,1.2l-4.3,2.3
			c-1.5,0.8-2.9,1.5-4.4,2.2c-0.6,0.3-1.2,0.3-1.4-0.1l-2.5-4.8C372.8,185,373.1,184.5,373.7,184.2z"/>
	</g>
	<g class="st2">
		<path class="st3" d="M407.5,129.6c3.5-4.4,6.9-9,10-13.7c0.3-0.5,0.9-0.7,1.3-0.4l5.8,4.6c0.4,0.3,0.4,1,0,1.5
			c-3.4,4.8-7.1,9.5-11,14c-0.4,0.5-1,0.6-1.4,0.3l-4.9-5C407,130.7,407.1,130,407.5,129.6z"/>
	</g>
	<g class="st2">
		<path class="st3" d="M346.6,184.2l5.3-2.7l5.2-2.8c1.7-0.9,3.5-2,5.2-2.9l2.6-1.5l2.5-1.6c0.5-0.4,1.1-0.4,1.3,0l3.5,6.5
			c0.2,0.3-0.1,0.9-0.7,1.2l-2.7,1.5l-2.7,1.4c-1.8,1-3.6,1.9-5.4,2.8l-5.5,2.7l-5.5,2.5c-0.6,0.3-1.2,0.3-1.3-0.1l-2.5-5.9
			C345.7,185,346,184.5,346.6,184.2z"/>
	</g>
	<g class="st4">
		<path class="st5" d="M307.2,212.9l8.5-2.8c1.4-0.5,2.8-1,4.2-1.5l4.2-1.5l4.2-1.5c1.4-0.5,2.8-1.1,4.2-1.6
			c2.8-1.1,5.5-2.1,8.3-3.2c0.8-0.4,1.5-0.3,1.7,0.1l2.6,8.4c0.1,0.4-0.4,0.9-1.3,1.2c-2.9,1-5.7,1.9-8.6,2.9
			c-1.5,0.5-2.9,1-4.3,1.4l-4.3,1.3l-4.3,1.3c-1.5,0.5-2.9,0.9-4.3,1.3l-8.7,2.4c-0.8,0.3-1.6,0.2-1.7-0.2l-1.7-7
			C305.8,213.7,306.4,213.2,307.2,212.9z"/>
	</g>
	<g class="st6">
		<path class="st5" d="M271.9,217.3c6.1-1.1,12.1-2.3,18.2-3.5c0.6-0.2,1.2-0.1,1.2,0.1l0.7,3.1c0,0.2-0.4,0.5-1.1,0.6
			c-6.1,1.1-12.3,2.1-18.5,3c-0.6,0.1-1.2,0.1-1.2-0.2l-0.5-2.6C270.8,217.7,271.3,217.4,271.9,217.3z"/>
	</g>
	<g class="st2">
		<path class="st5" d="M326.5,188.4l2-0.9l2-1l4-1.9c1.4-0.6,2.7-1.3,4-2l4-2c0.5-0.3,1.1-0.3,1.2,0l1.8,4.4
			c0.1,0.3-0.2,0.8-0.8,1.1l-4.1,1.9c-1.4,0.7-2.7,1.3-4.1,1.9l-4.2,1.8l-2.1,0.9l-2.1,0.9c-0.6,0.3-1.2,0.2-1.2-0.1l-1.4-4
			C325.5,189,325.9,188.6,326.5,188.4z"/>
	</g>
	<g class="st6">
		<path class="st5" d="M247,216.2l5.9-1.2c1.9-0.4,3.9-0.8,5.9-1.2l5.9-1.3c1-0.2,1.9-0.4,2.9-0.7l2.9-0.7c0.6-0.2,1.2-0.2,1.2,0.1
			l0.7,3.5c0,0.2-0.4,0.4-1.1,0.6l-3,0.6c-1,0.2-2,0.4-3,0.6l-6,1.1c-2,0.4-4,0.7-6,1l-6,0.9c-0.6,0.1-1.2,0.1-1.2-0.1l-0.4-2.6
			C245.8,216.5,246.3,216.3,247,216.2z"/>
	</g>
	<g class="st4">
		<path class="st5" d="M284,202.4c5.8-1.9,11.6-3.9,17.3-6.1c0.6-0.2,1.1-0.2,1.2,0l0.9,3.5c0,0.3-0.4,0.6-1,0.8
			c-5.8,2-11.7,3.8-17.6,5.5c-0.6,0.2-1.2,0.2-1.2-0.1l-0.6-3C282.9,202.9,283.4,202.6,284,202.4z"/>
	</g>
	<g class="st2">
		<path class="st7" d="M411.4,378.1c6.3,0.9,12.7,1.4,19.1,1.5c0.7,0,1.2,0.5,1.2,1.1l0.2,8.8c0,0.6-0.6,1.1-1.3,1
			c-6.9-0.3-13.7-1-20.3-2.2c-0.7-0.2-1.2-0.7-1.2-1.2l1-8.2C410.1,378.3,410.7,378,411.4,378.1z"/>
	</g>
	<g class="st2">
		<path class="st7" d="M464.2,340.5c2.3-1,4.5-2,6.7-3.1c1.1-0.6,2.1-1.1,3.1-1.7c1-0.6,1.9-1.2,2.6-1.7c0.1-0.1,0.1-0.1,0.2-0.1
			c0,0.1,0.2,0.1,0.2,0.2c0,0.1,0,0.1,0.1,0.2l0,0.1c0,0.1,0,0.1,0,0.1c0,0.2,0,0.4,0.1,0.5l5.1,9c0.5,0.5,0.5,1.2,0,1.5
			c-1,0.6-2.2,1.3-3.4,1.9c-1.2,0.6-2.4,1.2-3.6,1.8c-2.5,1.1-5,2.2-7.6,3.1c-0.5,0.2-1.1-0.2-1.3-0.8l-2.8-9.5
			C463.5,341.4,463.7,340.7,464.2,340.5z"/>
	</g>
	<g class="st2">
		<path class="st7" d="M391.5,354.6c7.2,1.8,14.5,2.9,21.9,3.5c0.6,0.1,1,0.6,1,1.1l-1.1,11.2c0,0.6-0.6,1-1.3,0.9
			c-8-1-15.8-2.6-23.5-4.9c-0.6-0.2-1-0.8-0.9-1.2l2.7-9.9C390.3,354.7,390.9,354.4,391.5,354.6z"/>
	</g>
	<g class="st2">
		<path class="st7" d="M427.3,344.1c5.1-0.5,10-1.2,14.9-2.3c0.5-0.1,1,0.3,1,0.9l1.1,9.3c0.1,0.6-0.3,1.2-0.9,1.3
			c-5.4,1-10.8,1.5-16.3,1.8c-0.6,0.1-1-0.4-1-1l0.1-8.8C426.3,344.6,426.7,344.1,427.3,344.1z"/>
	</g>
	<g class="st2">
		<path class="st8" d="M355.8,360.7c2,1.1,4.1,2.2,6.2,3.2l3.1,1.5c1,0.5,2.1,1,3.2,1.5l3.2,1.4c1.1,0.5,2.1,0.9,3.2,1.4
			c1.1,0.5,2.1,0.9,3.3,1.3l3.3,1.2c0.6,0.3,1,0.8,0.9,1.3l-3.2,10.9c-0.1,0.5-0.8,0.7-1.5,0.4l-3.5-1.5c-1.2-0.5-2.3-1-3.5-1.5
			c-1.1-0.5-2.3-1-3.4-1.6l-3.4-1.7c-1.1-0.6-2.2-1.1-3.3-1.7l-3.3-1.8c-2.1-1.2-4.3-2.5-6.4-3.7c-0.6-0.4-0.9-1-0.7-1.4l4.4-9.1
			C354.6,360.4,355.2,360.3,355.8,360.7z"/>
	</g>
	<g class="st2">
		<path class="st8" d="M315.4,330l3.5,3.1l3.6,3l1.8,1.5l1.8,1.5l3.7,2.9c0.5,0.4,0.8,1,0.5,1.3l-3.3,4.9c-0.2,0.4-0.8,0.3-1.4-0.2
			L322,345l-1.8-1.6l-1.8-1.6l-3.6-3.2l-3.5-3.3c-0.5-0.5-0.7-1.1-0.5-1.4l3.4-4.2C314.4,329.5,314.9,329.6,315.4,330z"/>
	</g>
	<g class="st2">
		<path class="st8" d="M376,341.8c5.2,1.8,10.4,3.3,15.6,4.4c0.5,0.1,0.9,0.6,0.7,1.1l-2,7.4c-0.1,0.5-0.7,0.8-1.3,0.6
			c-5.5-1.5-11-3.3-16.3-5.3c-0.6-0.3-0.9-0.8-0.7-1.2l2.7-6.5C374.9,341.8,375.4,341.6,376,341.8z"/>
	</g>
	<g class="st2">
		<path class="st8" d="M305.6,304.2l4.3,4c1.5,1.3,2.9,2.6,4.4,3.9c1.5,1.3,3,2.6,4.5,3.8l2.2,1.9c0.7,0.6,1.5,1.2,2.3,1.8
			c0.5,0.4,0.7,0.9,0.5,1.2l-4.5,5.7c-0.2,0.3-0.8,0.2-1.3-0.3c-0.8-0.7-1.6-1.3-2.3-2l-2.2-2c-1.5-1.4-3-2.7-4.5-4.1
			s-2.9-2.8-4.4-4.2l-4.3-4.3c-0.4-0.5-0.6-1-0.4-1.3l4.4-4.6C304.6,303.6,305.1,303.8,305.6,304.2z"/>
	</g>
	<g class="st2">
		<path class="st8" d="M340.6,320.5l1.8,1.1l0.9,0.6l0.9,0.6l3.7,2.1c1.2,0.7,2.5,1.4,3.7,2l1.8,1c0.6,0.4,1.3,0.6,1.9,1
			c0.5,0.3,0.8,0.8,0.5,1.2l-3.2,5.6c-0.2,0.4-0.8,0.5-1.4,0.2c-0.6-0.4-1.3-0.7-1.9-1.1l-1.9-1.1c-1.3-0.8-2.5-1.5-3.8-2.3
			l-3.7-2.4l-0.9-0.6l-0.9-0.6l-1.8-1.3c-0.5-0.4-0.7-0.9-0.5-1.2l3.4-4.8C339.4,320.2,340,320.2,340.6,320.5z"/>
	</g>
	<g class="st4">
		<path class="st8" d="M280.5,293.6l2,2.7c0.7,0.9,1.4,1.8,2.1,2.7l4.3,5.3c1.5,1.8,2.9,3.5,4.4,5.2c1.5,1.8,3,3.5,4.5,5.2
			c0.4,0.5,0.6,1.1,0.4,1.3l-4.9,5c-0.2,0.2-0.7,0-1.2-0.6c-1.5-1.8-3-3.6-4.4-5.5c-1.4-1.9-2.9-3.7-4.3-5.6l-4.1-5.7
			c-0.7-1-1.4-1.9-2-2.9l-2-2.9c-0.4-0.6-0.5-1.2-0.3-1.3l4.4-3.8C279.7,292.7,280.1,293,280.5,293.6z"/>
	</g>
	<g class="st4">
		<path class="st8" d="M269.7,265.9l4.1,5.3c0.7,0.9,1.4,1.8,2.1,2.6l2.1,2.6l2.1,2.6c0.7,0.9,1.5,1.7,2.1,2.5
			c1.5,1.7,2.9,3.4,4.3,5c0.4,0.5,0.6,1,0.4,1.2l-4.5,4.1c-0.2,0.2-0.7-0.1-1.1-0.6c-1.4-1.8-2.8-3.6-4.2-5.3
			c-0.7-0.9-1.4-1.8-2.1-2.7l-2-2.7l-2-2.7c-0.7-0.9-1.4-1.8-2-2.8l-3.9-5.5c-0.4-0.6-0.5-1.1-0.3-1.2l3.9-3
			C268.9,265.1,269.4,265.4,269.7,265.9z"/>
	</g>
	<g class="st6">
		<path class="st8" d="M248.9,245.9c3.2,5.3,6.5,10.6,9.8,15.9c0.3,0.6,0.5,1.1,0.3,1.2l-2.5,1.9c-0.1,0.1-0.6-0.3-0.9-0.8
			c-3.2-5.4-6.4-10.8-9.4-16.3c-0.3-0.6-0.4-1.1-0.3-1.2l2.1-1.4C248.2,244.9,248.6,245.3,248.9,245.9z"/>
	</g>
	<g class="st4">
		<path class="st8" d="M294.6,286.6c4.2,4.3,8.5,8.4,12.8,12.4c0.4,0.4,0.6,1,0.4,1.2l-3.3,3.4c-0.2,0.3-0.8,0.1-1.2-0.4
			c-4.3-4.2-8.5-8.5-12.6-13c-0.4-0.5-0.6-1-0.4-1.2l3.1-2.8C293.7,286,294.2,286.2,294.6,286.6z"/>
	</g>
	<g class="st6">
		<path class="st8" d="M240.8,221.8l3.2,5.1c1.1,1.7,2.1,3.4,3.3,5.1l3.3,5.1l1.7,2.5l1.7,2.5c0.3,0.6,0.5,1.1,0.4,1.2l-2.9,2
			c-0.1,0.1-0.5-0.3-0.9-0.8l-1.6-2.6l-1.6-2.6l-3.1-5.2c-1.1-1.7-2-3.5-3.1-5.3l-3-5.3c-0.3-0.6-0.5-1.1-0.4-1.2l2.2-1.4
			C240.1,220.8,240.5,221.2,240.8,221.8z"/>
	</g>
	<g class="st4">
		<path class="st8" d="M266.6,251.7c3.8,4.8,7.7,9.5,11.7,14.1c0.4,0.5,0.6,1,0.4,1.1L276,269c-0.2,0.2-0.7-0.2-1.1-0.7
			c-3.9-4.8-7.6-9.6-11.3-14.6c-0.4-0.5-0.5-1-0.4-1.2l2.4-1.8C265.8,250.8,266.2,251.1,266.6,251.7z"/>
	</g>
	<path class="st9" d="M65.4,350.1c-1.6,8.1-2.6,16.3-3.1,24.6c0,0.6-0.6,1-1.2,1l-14.2-1.2c-0.6-0.1-1.1-0.6-1-1.3
		c0.9-9,2.5-17.9,4.7-26.7c0.1-0.6,0.7-1,1.3-0.9l12.8,3.2C65.2,349,65.5,349.6,65.4,350.1z"/>
	<path class="st9" d="M57,318.5c-2.4,5.7-4.6,11.6-6.5,17.6c-0.2,0.6-0.8,1-1.4,0.9l-8.2-2.4c-0.5-0.2-0.8-0.8-0.6-1.5
		c2.1-6.3,4.6-12.5,7.3-18.5c0.3-0.6,0.9-1,1.4-0.8l7.4,3.2C57.1,317.2,57.3,317.9,57,318.5z"/>
	<path class="st9" d="M75.7,380.6c0,2.6,0.1,5.1,0.3,7.7c0.1,1.3,0.2,2.5,0.3,3.7c0.1,1.2,0.3,2.4,0.4,3.3c0,0.1,0,0.2,0,0.3
		c0,0.1,0,0.1-0.1,0.1c0,0-0.1,0.1-0.1,0.1s-0.1,0.1-0.1,0.1c0,0-0.1,0.1-0.2,0c-0.1-0.1-0.3-0.1-0.5-0.1l-10,1.1
		c-0.1,0-0.3,0.1-0.5,0.1c-0.1,0.1-0.3-0.1-0.4-0.1c-0.2-0.1-0.4-0.4-0.4-0.6c-0.2-2.5-0.4-5.3-0.5-8c-0.1-2.8-0.1-5.5,0-8.3
		c0-0.6,0.5-1,1.2-1l9.5,0.7C75.2,379.6,75.7,380,75.7,380.6z"/>
	<path class="st9" d="M84.3,343.3c-1,5-1.8,10.2-2.3,15.3c0,0.5-0.6,0.9-1.2,0.8l-8.8-1.8c-0.6-0.1-1-0.7-0.9-1.3
		c0.8-5.4,1.8-10.9,3.2-16.2c0.1-0.6,0.7-0.9,1.2-0.7l8.1,2.7C84,342.2,84.3,342.8,84.3,343.3z"/>
	<path class="st9" d="M104.2,243.2c-0.6,0.4-1.3,0.8-1.9,1.2l-1.9,1.2c-1.3,0.8-2.5,1.6-3.8,2.5l-3.7,2.6c-0.6,0.4-1.2,0.9-1.8,1.3
		l-1.8,1.4c-0.5,0.4-1.1,0.5-1.4,0.1l-3.6-4.7c-0.2-0.3,0-0.9,0.5-1.3l1.9-1.4c0.6-0.5,1.3-0.9,1.9-1.3l3.9-2.6
		c1.3-0.9,2.7-1.6,4-2.5l2-1.2c0.7-0.4,1.4-0.8,2-1.2c0.6-0.3,1.2-0.3,1.4,0l2.8,4.6C105,242.3,104.7,242.9,104.2,243.2z"/>
	<path class="st9" d="M92.7,316c-2.8,4.4-5.4,9.1-7.7,13.8c-0.2,0.5-0.8,0.7-1.2,0.4l-6.3-3.9c-0.4-0.3-0.5-0.9-0.3-1.4
		c2.7-4.9,5.6-9.7,8.7-14.3c0.3-0.5,0.9-0.6,1.3-0.4l5.4,4.4C93,314.9,93,315.6,92.7,316z"/>
	<path class="st9" d="M140.1,246.3c-6.5,3.4-12.8,7.4-18.8,11.5c-0.5,0.4-1,0.4-1.2,0.1l-3.8-6.3c-0.2-0.3,0.1-0.8,0.6-1.2
		c6.5-4.1,13.2-7.9,20.1-11.1c0.5-0.3,1.1-0.3,1.2,0.1l2.6,5.9C141,245.5,140.7,246,140.1,246.3z"/>
	<path class="st9" d="M132,277.5c-3.9,3.7-7.6,7.5-11,11.4c-0.3,0.4-0.9,0.5-1.2,0.2l-4.3-4.7c-0.3-0.3-0.2-0.9,0.2-1.4
		c3.8-4,7.8-7.9,12.1-11.5c0.4-0.4,1-0.4,1.2-0.1l3.4,4.8C132.6,276.6,132.4,277.2,132,277.5z"/>
	<path class="st10" d="M164.1,224.3l-6.2,1.9c-2,0.7-4.1,1.4-6.1,2s-4.1,1.5-6.1,2.2c-1,0.4-2,0.8-3,1.2l-3,1.3
		c-0.6,0.3-1.2,0.2-1.3-0.1l-2.8-6.5c-0.1-0.3,0.3-0.7,0.9-0.9l3.2-1.2c1.1-0.4,2.1-0.7,3.2-1.1c2.1-0.7,4.2-1.4,6.4-2
		c2.1-0.6,4.3-1.3,6.4-1.8l6.4-1.6c0.6-0.2,1.2-0.1,1.3,0.2l1.7,5.7C165.1,223.8,164.7,224.1,164.1,224.3z"/>
	<path class="st11" d="M210.3,216l-4.3,0.5l-4.3,0.6l-4.3,0.6l-4.3,0.8c-0.6,0.1-1.1,0-1.2-0.2l-0.6-3.1c0-0.2,0.4-0.5,1-0.6
		l4.4-0.6l4.4-0.5l4.4-0.5l4.4-0.4c0.6-0.1,1.1,0.1,1.2,0.3l0.3,2.6C211.4,215.8,210.9,216,210.3,216z"/>
	<path class="st10" d="M158.8,242.4c-1.3,0.6-2.5,1.2-3.8,1.8l-3.7,1.9l-1.8,0.9c-0.6,0.3-1.2,0.7-1.8,1l-3.6,2
		c-0.5,0.3-1,0.3-1.2,0l-1.9-4.4c-0.1-0.3,0.2-0.8,0.7-1l3.8-1.9c0.6-0.3,1.3-0.7,1.9-1l1.9-0.9l3.8-1.8c1.3-0.6,2.6-1.1,3.9-1.7
		c0.5-0.3,1.1-0.2,1.2,0.1l1.4,4C159.7,241.8,159.4,242.2,158.8,242.4z"/>
	<path class="st12" d="M224.5,220.5l-3.5,0.4l-1.7,0.2l-1.7,0.3l-3.4,0.5c-1.1,0.2-2.3,0.4-3.4,0.6c-0.3,0.1-0.7,0.1-0.7-0.1
		l-0.3-1.9c0-0.1,0.3-0.2,0.6-0.3c1.2-0.2,2.3-0.3,3.5-0.4l3.5-0.4l1.7-0.2l1.7-0.2l3.5-0.3c0.4-0.1,0.7,0,0.7,0.1l0.1,1.5
		C225.1,220.4,224.8,220.5,224.5,220.5z"/>
	<path class="st11" d="M198.5,230.2l-4.1,1.2l-2,0.6l-1,0.3l-1,0.4l-4,1.4c-1.4,0.5-2.7,0.9-4,1.4c-0.5,0.2-1,0.2-1.1-0.1l-0.9-3.5
		c0-0.3,0.3-0.6,0.9-0.8c1.4-0.5,2.7-0.9,4.1-1.3l4.1-1.2l1-0.3l1-0.3l2.1-0.6l4.2-1.1c0.6-0.2,1.1-0.1,1.1,0.1l0.5,3
		C199.5,229.7,199,230,198.5,230.2z"/>
	<g class="st2">
		<path class="st13" d="M98.6,71.1c-4.3-1.1-8.6-1.9-12.9-2.4c-4.3-0.5-8.7-0.7-13-0.7c-0.6,0-1.1-0.5-1.1-1.1l0.1-14.3
			c0-0.7,0.6-1.1,1.3-1.1c5,0.3,10,0.8,15,1.8c4.9,0.9,9.8,2.2,14.6,3.7c0.7,0.3,1.1,0.9,1,1.4l-3.5,12C99.8,71,99.2,71.3,98.6,71.1
			z"/>
	</g>
	<g class="st2">
		<path class="st13" d="M101.5,98.5c-2.6-0.2-5.2-0.3-7.6-0.3c-1.2,0.1-2.5,0.1-3.6,0.2c-1.2,0.1-2.3,0.3-3.2,0.4c0,0-0.1,0-0.2-0.1
			c0-0.1-0.1-0.2-0.1-0.3s0-0.3,0-0.4c0-0.2-0.2-0.3-0.2-0.5l-0.6-10.4c0-0.2,0-0.4,0.1-0.5c0-0.2,0-0.3,0.1-0.4
			c0-0.1,0.1-0.2,0.2-0.3c0.1-0.1,0.2-0.1,0.3-0.2c1.2-0.1,2.6-0.2,4-0.2s2.8,0.1,4.3,0.1c2.9,0.2,5.8,0.5,8.7,0.9
			c0.6,0.1,1,0.7,0.9,1.3l-1.8,9.4C102.5,98,102,98.5,101.5,98.5z"/>
	</g>
	<g class="st2">
		<path class="st13" d="M139.9,104.2c-2.5-0.8-5.1-1.4-7.6-1.9c-2.6-0.5-5.1-0.9-7.7-1.1c-0.5-0.1-0.9-0.6-0.7-1.1l1.8-8.6
			c0.1-0.6,0.7-1,1.3-0.9c2.8,0.5,5.6,1.1,8.5,1.8c2.8,0.7,5.5,1.6,8.3,2.6c0.6,0.2,0.9,0.8,0.6,1.3l-3.1,7.2
			C141.1,104.1,140.5,104.4,139.9,104.2z"/>
	</g>
	<g class="st2">
		<path class="st14" d="M216.7,120.2c-1.3-2.1-2.6-4.3-4-6.4c-0.7-1.1-1.4-2.1-2.1-3.2l-2.2-3.1c-3-4.1-6.1-8.1-9.4-11.9
			c-0.5-0.6-0.6-1.2-0.3-1.5l6.3-6.5c0.3-0.3,0.9-0.1,1.4,0.6c3.4,4.3,6.4,8.8,9.3,13.3l2.1,3.4c0.7,1.1,1.4,2.3,2,3.4
			c1.4,2.3,2.6,4.6,3.8,7c0.4,0.7,0.4,1.4,0.1,1.6l-5.9,4.1C217.6,121.2,217.1,120.8,216.7,120.2z"/>
	</g>
	<g class="st2">
		<path class="st14" d="M207.8,141.6c-0.8-1.2-1.6-2.3-2.3-3.4c-0.4-0.6-0.8-1.1-1.2-1.7l-1.3-1.7l-0.6-0.8l-0.7-0.8l-1.3-1.6
			l-1.4-1.6l-0.7-0.8c-0.2-0.3-0.5-0.5-0.7-0.8c-0.3-0.3-0.3-0.6-0.1-0.8l4-2.6c0.2-0.1,0.5,0.1,0.8,0.4c0.2,0.3,0.4,0.6,0.7,0.9
			l0.6,0.9l1.3,1.7l1.3,1.8l0.6,0.9l0.6,0.9l1.2,1.8c0.4,0.6,0.7,1.2,1.1,1.8c0.8,1.2,1.5,2.4,2.2,3.7c0.2,0.4,0.2,0.7,0.1,0.8
			l-3.5,1.6C208.3,142.2,208,142,207.8,141.6z"/>
	</g>
	<g class="st4">
		<path class="st14" d="M232.2,180.2l-0.8-2.4l-0.9-2.4c-0.6-1.6-1.1-3.2-1.7-4.8l-1.8-4.7l-0.4-1.2l-0.5-1.2l-1-2.4
			c-0.3-0.7-0.3-1.3-0.1-1.4l3.3-1.7c0.2-0.1,0.6,0.4,0.9,1.1l0.9,2.5l0.4,1.2l0.4,1.2l1.7,4.9c0.5,1.7,1,3.3,1.6,4.9l0.8,2.5
			l0.7,2.5c0.2,0.7,0.2,1.3,0,1.4l-2.7,1.1C232.8,181.4,232.4,180.9,232.2,180.2z"/>
	</g>
	<g class="st2">
		<path class="st13" d="M188.3,131.5c-4.2-4.5-8.6-8.7-13.1-12.5c-0.5-0.4-0.6-1-0.3-1.3l4.1-4.5c0.3-0.3,0.9-0.2,1.4,0.3
			c4.6,4.2,8.9,8.9,13.1,13.8c0.4,0.5,0.5,1.1,0.3,1.3l-4.1,3.3C189.3,132.2,188.7,132,188.3,131.5z"/>
	</g>
	<g class="st6">
		<path class="st14" d="M235.3,207.5c-2.8-8.3-6-16.4-9.5-24.4c-0.3-0.7-0.3-1.2-0.1-1.3l3.7-1.5c0.2-0.1,0.5,0.4,0.8,1.1
			c3.1,8.3,5.8,16.7,8.2,25.2c0.2,0.7,0.2,1.3,0.1,1.3l-2.5,0.8C235.8,208.6,235.5,208.1,235.3,207.5z"/>
	</g>
	<g class="st4">
		<path class="st14" d="M213.7,170.8c-3.3-5.6-6.8-11.1-10.4-16.3c-0.4-0.6-0.5-1.1-0.2-1.3l3.7-2.2c0.2-0.2,0.7,0.2,1.1,0.8
			c3.5,5.5,6.8,11.2,9.8,17.1c0.3,0.6,0.4,1.2,0.2,1.3l-3.2,1.5C214.5,171.8,214.1,171.4,213.7,170.8z"/>
	</g>
	<g class="st2">
		<path class="st15" d="M440.7,245.1c2.1-1.6,4.1-3.3,6.1-5.1c2-1.8,3.9-3.6,5.8-5.5c3.8-3.8,7.3-7.9,10.6-12.5
			c0.5-0.7,1.3-0.9,1.8-0.5l12.5,8.7c0.6,0.4,0.5,1.4-0.1,2.1c-2.1,2.7-4.2,5-6.3,7.3c-2.1,2.3-4.3,4.4-6.6,6.6
			c-2.2,2.1-4.5,4.1-6.9,5.9c-2.3,1.9-4.8,3.7-7.2,5.4c-0.7,0.5-1.6,0.5-1.9,0l-8.3-10.8C439.9,246.4,440.1,245.6,440.7,245.1z"/>
	</g>
	<g class="st2">
		<path class="st15" d="M388.5,266.8l2.5-0.5l2.5-0.6c1.7-0.4,3.4-0.9,5.1-1.3c3.4-1,6.7-2,10-3.3c0.7-0.3,1.4-0.1,1.6,0.4l3,7.4
			c0.2,0.5-0.2,1.1-1,1.4c-3.6,1.2-7.2,2.2-10.9,3.1c-1.8,0.4-3.6,0.9-5.5,1.2l-2.7,0.5l-2.8,0.4c-0.8,0.1-1.5-0.2-1.6-0.7l-1.4-7.1
			C387.3,267.5,387.8,267,388.5,266.8z"/>
	</g>
	<g class="st2">
		<path class="st15" d="M361.3,253.8c4-0.3,8-0.7,11.9-1.4c3.9-0.7,7.8-1.5,11.6-2.6c0.6-0.2,1.2,0.1,1.3,0.6l2.1,9.6
			c0.1,0.5-0.3,1-1,1.2c-4.2,0.9-8.5,1.6-12.8,2c-4.3,0.4-8.6,0.7-12.9,0.7c-0.7,0-1.3-0.4-1.3-0.8v-8.4
			C360.1,254.2,360.6,253.8,361.3,253.8z"/>
	</g>
	<g class="st2">
		<path class="st15" d="M394.3,232.7c2.3-1.3,4.6-2.7,6.8-4.1s4.3-3,6.3-4.7c0.4-0.4,1-0.2,1.3,0.3l4.4,7.5c0.3,0.5,0.1,1.2-0.3,1.5
			c-2.3,1.7-4.8,3.3-7.3,4.7c-2.5,1.5-5.1,2.8-7.7,4.1c-0.5,0.3-1.1,0.1-1.3-0.5l-2.6-7.5C393.5,233.6,393.8,232.9,394.3,232.7z"/>
	</g>
	<g class="st2">
		<path class="st16" d="M325.9,264.7c2,0.7,4,1.3,6.1,1.9c1,0.3,2,0.6,3.1,0.8l3.1,0.7c4.2,0.9,8.4,1.6,12.6,2
			c0.6,0.1,1.1,0.5,1.1,0.9l-0.2,9.7c0,0.5-0.5,0.7-1.2,0.6c-4.5-0.8-8.9-1.8-13.3-3.1l-3.3-1c-1.1-0.3-2.1-0.8-3.2-1.1
			c-2.1-0.7-4.2-1.6-6.3-2.4c-0.6-0.3-1-0.7-1-1.1l1.3-7.7C324.8,264.7,325.3,264.6,325.9,264.7z"/>
	</g>
	<g class="st4">
		<path class="st17" d="M307.4,248.6c2.2,0.7,4.5,1.3,6.7,1.9c1.1,0.3,2.2,0.6,3.4,0.9l3.4,0.8l1.7,0.4l1.7,0.4l3.4,0.7l3.4,0.6
			l1.7,0.3c0.6,0.1,1.1,0.2,1.7,0.3c0.6,0.1,1.1,0.5,1.1,0.8l-1.3,7.8c0,0.4-0.6,0.5-1.4,0.4c-0.6-0.1-1.2-0.3-1.8-0.4l-1.7-0.4
			l-3.5-0.9l-3.5-1l-1.7-0.5l-1.7-0.5l-3.5-1.1c-1.2-0.4-2.3-0.8-3.5-1.1c-2.3-0.8-4.6-1.6-6.8-2.4c-0.6-0.3-1.1-0.7-1-0.9l1.9-5.8
			C306.1,248.4,306.8,248.4,307.4,248.6z"/>
	</g>
	<g class="st4">
		<path class="st17" d="M277,243.9l2.2,1.2l2.2,1.1c1.5,0.8,3,1.5,4.4,2.2l4.5,2.1l1.1,0.6l1.1,0.5l2.3,1c0.6,0.3,1.1,0.7,1,1
			l-1.3,3.5c-0.1,0.3-0.7,0.2-1.3-0.2l-2.3-1.1l-1.1-0.6l-1.1-0.6l-4.5-2.4c-1.5-0.8-3-1.7-4.4-2.5l-2.2-1.2l-2.2-1.3
			c-0.6-0.4-1-0.8-1-1l1.2-2.7C275.8,243.5,276.4,243.6,277,243.9z"/>
	</g>
	<g class="st6">
		<path class="st17" d="M256.6,226.4c7.6,3.9,15.3,7.6,23.1,10.8c0.6,0.3,1.1,0.6,1,0.8l-1.7,3.7c-0.1,0.2-0.6,0.1-1.3-0.2
			c-7.7-3.8-15.3-7.9-22.7-12.4c-0.6-0.4-1-0.7-1-0.9l1.3-2.3C255.4,225.9,256,226.1,256.6,226.4z"/>
	</g>
	<g class="st4">
		<path class="st17" d="M296.6,237.5c6.1,1.7,12.3,3.1,18.4,4.3c0.6,0.1,1.1,0.5,1,0.7l-1.2,4.3c-0.1,0.3-0.7,0.4-1.3,0.3
			c-6.2-1.5-12.4-3.3-18.5-5.3c-0.6-0.2-1.1-0.6-1-0.8l1.3-3.3C295.4,237.3,296,237.3,296.6,237.5z"/>
	</g>
	<g class="st2">
		<path class="st18" d="M133.1,159.8c-3.9-0.7-7.9-1.2-11.9-1.6c-4-0.3-7.9-0.4-11.9-0.3c-0.6,0.1-1.1-0.4-1.1-0.9l0.1-9.8
			c0-0.5,0.6-0.9,1.3-0.9c4.3,0.2,8.7,0.5,12.9,1.1c4.3,0.7,8.5,1.5,12.7,2.5c0.7,0.2,1.1,0.7,1,1.1l-1.9,8.2
			C134.3,159.7,133.7,159.9,133.1,159.8z"/>
	</g>
	<g class="st4">
		<path class="st19" d="M212.8,189.6l-1.8-1.7l-1.9-1.6c-1.3-1.1-2.5-2.2-3.8-3.2l-3.9-3.1l-1-0.8l-1-0.8l-2-1.5
			c-0.5-0.4-0.9-1-0.8-1.2l2-3.1c0.1-0.2,0.7,0,1.3,0.5l1.9,1.7l1,0.8l1,0.9l3.8,3.4c1.3,1.2,2.5,2.3,3.7,3.5l1.8,1.7l1.8,1.8
			c0.5,0.5,0.8,1,0.7,1.2l-1.7,2.3C213.9,190.3,213.3,190.1,212.8,189.6z"/>
	</g>
	<g class="st2">
		<path class="st18" d="M151.2,170.6c-5.8-1.7-11.6-3-17.4-3.9c-0.6-0.1-1-0.5-0.9-0.9l1.4-6.1c0.1-0.4,0.7-0.6,1.3-0.5
			c6.1,1.3,12.1,3,18,5c0.6,0.2,1,0.7,0.9,1l-1.9,5C152.4,170.6,151.8,170.8,151.2,170.6z"/>
	</g>
	<g class="st6">
		<path class="st19" d="M228.8,211.6c-6.5-5.6-13.2-11-20.1-16.1c-0.5-0.4-0.9-0.9-0.8-1l2.4-3.2c0.1-0.2,0.6,0.1,1.2,0.5
			c6.7,5.5,13.1,11.4,19.3,17.5c0.5,0.5,0.8,1,0.7,1.1l-1.7,2C229.8,212.3,229.3,212,228.8,211.6z"/>
	</g>
	<g class="st4">
		<path class="st19" d="M192.3,191.2c-5.6-3.1-11.3-6-17-8.6c-0.6-0.3-1-0.7-0.8-1l2.1-3.9c0.1-0.3,0.7-0.2,1.3,0.1
			c5.7,2.9,11.3,6.2,16.8,9.6c0.6,0.4,0.9,0.8,0.8,1l-2,2.9C193.5,191.7,192.9,191.6,192.3,191.2z"/>
	</g>
	<g class="st20">
		<path class="st7" d="M463.2,370.2c-0.3-0.3-0.7-0.5-1.1-0.7c-1.5-0.9-3.2-1.7-4.9-2.4c-0.5-0.3-1.1-0.5-1.6-0.8
			c-0.8-0.4-1.2-1-1.4-1.5c-0.2-0.6-0.3-1.3-0.2-2c0-0.2,0-0.4,0.2-0.6c0.1-0.2,0.4-0.4,0.9-0.5c0.3-0.1,0.6-0.2,0.6-0.4
			s-0.2-0.2-0.6-0.2c0,0-0.1,0-0.2,0c-2,0.3-4,0.7-6,1c0,0-0.1,0-0.2,0.1c-0.3,0.1-0.6,0.2-0.5,0.4c0,0.2,0.3,0.2,0.7,0.2
			c0.5-0.1,0.9,0,1,0.2s0.2,0.3,0.3,0.5c0.2,0.5,0.3,1,0.3,1.5c0,0.4,0,0.7-0.1,1.1c-0.1,0.5-0.5,1-1,1.6c-1.5,1.3-2.8,2.7-4.1,4
			c-0.5,0.6-1.1,1.1-1.5,1.7c-0.2,0.3-0.2,0.5-0.1,0.7c0,0.2,0.3,0.3,0.7,0.3c0.2,0,0.4,0,0.7-0.1c0.8-0.1,1.5-0.2,2.3-0.3
			c2-0.4,4.1-0.7,6.2-1c2-0.4,4.1-0.7,6.2-1c0.7-0.1,1.4-0.3,2.1-0.4c0.3-0.1,0.6-0.2,1-0.3c0.2-0.1,0.4-0.2,0.4-0.3
			C463.4,370.6,463.4,370.4,463.2,370.2z M454.6,366.5c0,0.1-0.2,0.3-0.5,0.3c-0.3,0.1-0.6,0-0.6-0.2c0-0.1,0.2-0.3,0.5-0.3
			C454.3,366.3,454.5,366.4,454.6,366.5z M453.3,362c0.2-0.1,0.5,0,0.5,0.1c0,0.1-0.2,0.2-0.4,0.3s-0.5,0-0.5-0.1
			C452.8,362.1,453,362,453.3,362z M452.9,363.6c0.3-0.1,0.6,0,0.7,0.2c0,0.2-0.2,0.3-0.6,0.4c-0.3,0.1-0.6,0-0.7-0.2
			C452.3,363.8,452.5,363.7,452.9,363.6z M453,365.5c0,0.2-0.3,0.4-0.8,0.5c-0.4,0.1-0.8,0-0.8-0.2c0-0.2,0.3-0.4,0.7-0.5
			C452.6,365.2,453,365.3,453,365.5z M451.5,362.9c0.2-0.1,0.5,0,0.5,0.1c0,0.1-0.2,0.2-0.4,0.3c-0.2,0.1-0.5,0-0.5-0.1
			C451,363.1,451.2,363,451.5,362.9z M451.5,367.7c0.4-0.1,0.8,0,0.8,0.2c0,0.2-0.3,0.4-0.7,0.5c-0.4,0.1-0.8,0-0.8-0.2
			C450.7,368,451.1,367.8,451.5,367.7z M462.7,370.7c0,0.1-0.2,0.2-0.4,0.3c-0.6,0.2-1.3,0.3-1.9,0.4c-2.3,0.4-4.6,0.8-6.9,1.1
			c-2.3,0.4-4.5,0.8-6.8,1.1c-0.6,0.1-1.3,0.2-1.9,0.2c-0.3,0-0.5-0.1-0.5-0.2c0-0.2,0-0.3,0.1-0.5c0.3-0.5,0.8-1,1.3-1.4
			c0.8-0.8,1.6-1.6,2.4-2.3c0-0.1,0.1-0.1,0.1-0.1c0.1-0.1,0.2-0.1,0.3-0.1c0.3-0.2,0.7-0.2,1.1-0.2c0.2,0,0.4,0,0.6,0
			c0.6,0.1,1.1-0.1,1.7-0.2c0.6-0.2,1.1-0.3,1.7-0.5c0.8-0.3,1.6-0.4,2.4-0.5c0.6-0.1,1.3-0.1,1.9-0.1c0,0,0.1,0,0.1,0
			c1.4,0.7,2.7,1.4,3.9,2.1c0.2,0.2,0.4,0.3,0.6,0.4C462.8,370.5,462.8,370.6,462.7,370.7z"/>
		<path class="st7" d="M468.7,370.6l-3.9-14.2c-0.2-0.7-0.8-1-1.3-0.8c-7.8,2.5-15.9,4.2-24.1,5.1c-0.6,0.1-1,0.6-1,1.2l0.9,13.6
			c0,0.6,0.6,1.1,1.3,1c9.2-0.6,18.3-2,27.3-4.4C468.5,371.9,468.9,371.2,468.7,370.6z M453.3,359.9c0.5-0.1,0.9,0,1,0.2
			s-0.3,0.4-0.9,0.5c-0.5,0.1-0.9,0-1-0.2C452.4,360.2,452.8,360,453.3,359.9z M452,361.1c0,0.1-0.2,0.2-0.4,0.3
			c-0.2,0.1-0.5,0-0.5-0.1c0-0.1,0.2-0.2,0.4-0.3C451.7,360.9,451.9,361,452,361.1z M450.6,359.8c0.4-0.1,0.7,0,0.7,0.2
			c0,0.2-0.2,0.3-0.6,0.4c-0.4,0.1-0.7,0-0.7-0.2C449.9,360,450.2,359.8,450.6,359.8z M464.7,370.7c-0.1,0.4-0.7,0.7-1.5,0.9
			c-0.5,0.2-1.2,0.3-1.7,0.4c-0.6,0.1-1.1,0.2-1.7,0.3c-2,0.4-4,0.7-6.1,1c-2.1,0.4-4.3,0.7-6.4,1.1c-0.8,0.2-1.7,0.3-2.5,0.3
			c-0.4,0.1-0.9,0.1-1.3,0c-0.7-0.1-1-0.3-1.1-0.6s0-0.6,0.2-0.9c0.5-0.6,1-1.2,1.6-1.8c1.3-1.3,2.7-2.6,4.1-3.9
			c0.5-0.5,0.8-1,0.9-1.5c0.1-0.6,0-1.2-0.1-1.7c0-0.3-0.2-0.5-0.3-0.8c0-0.1-0.1-0.1-0.2-0.1c-0.8,0.1-1.4-0.1-1.6-0.4
			c-0.3-0.5,0.5-1,1.8-1.3c0.9-0.2,1.8-0.3,2.7-0.5c1.2-0.2,2.3-0.4,3.5-0.6c0.9-0.2,1.7-0.1,2,0.2c0.4,0.4,0,0.9-1,1.2
			c-0.1,0.1-0.2,0.1-0.4,0.1c-0.1,0-0.1,0.1-0.1,0.1c0,0.2-0.1,0.4-0.1,0.6c0,0.5,0.1,0.9,0.2,1.4c0.1,0.6,0.4,1.1,1.1,1.5
			c0.3,0.2,0.6,0.4,1,0.5c1.7,0.8,3.5,1.6,5.1,2.5c0.6,0.4,1.2,0.7,1.7,1.1C464.7,370,464.8,370.3,464.7,370.7z"/>
	</g>
	<g class="st20">
		<path class="st7" d="M490.9,384.9c-0.4-0.2-0.8-0.4-1.2-0.6c-1.6-0.7-3.3-1.3-5.1-1.9c-0.5-0.2-1.1-0.4-1.7-0.6
			c-0.8-0.4-1.3-0.8-1.5-1.4c-0.3-0.6-0.4-1.3-0.4-1.9c0-0.2,0-0.4,0.1-0.6c0.1-0.2,0.4-0.4,0.9-0.5c0.3-0.1,0.6-0.3,0.6-0.4
			s-0.2-0.2-0.6-0.1c0,0-0.1,0.1-0.2,0.1c-1.9,0.6-3.9,1.1-5.9,1.6c0,0-0.1,0.1-0.2,0.1c-0.3,0.1-0.5,0.3-0.5,0.4
			c0,0.1,0.3,0.2,0.7,0.1c0.5-0.2,0.9-0.1,1,0.1c0.1,0.1,0.3,0.3,0.4,0.4c0.2,0.5,0.4,0.9,0.5,1.4c0.1,0.4,0.1,0.7,0,1.1
			c-0.1,0.5-0.4,1.1-0.9,1.7c-1.3,1.5-2.6,2.9-3.7,4.4c-0.5,0.6-1,1.2-1.3,1.8c-0.1,0.3-0.2,0.5-0.1,0.7c0.1,0.2,0.3,0.3,0.7,0.2
			c0.2-0.1,0.4-0.1,0.7-0.1c0.7-0.2,1.5-0.4,2.2-0.6c2-0.6,4-1.1,6.1-1.7s4-1.1,6.1-1.7c0.7-0.2,1.4-0.4,2.1-0.6
			c0.3-0.1,0.6-0.3,0.9-0.4c0.2-0.1,0.4-0.3,0.4-0.4C491.2,385.2,491.2,385,490.9,384.9z M481.3,382c0.3-0.1,0.6-0.1,0.6,0.1
			c0,0.1-0.2,0.3-0.5,0.4c-0.3,0.1-0.6,0.1-0.6-0.1C480.8,382.2,481,382.1,481.3,382z M480.2,377.7c0.2-0.1,0.5-0.1,0.5,0.1
			s-0.1,0.3-0.4,0.3c-0.2,0.1-0.5,0.1-0.5-0.1C479.8,377.9,480,377.8,480.2,377.7z M480,379.4c0.3-0.1,0.6-0.1,0.7,0.1
			c0,0.2-0.2,0.3-0.5,0.4c-0.3,0.1-0.6,0.1-0.7-0.1S479.7,379.5,480,379.4z M480.3,381.2c0,0.2-0.3,0.4-0.7,0.5
			c-0.4,0.1-0.8,0.1-0.9-0.1c0-0.2,0.3-0.4,0.7-0.5C479.9,381,480.3,381.1,480.3,381.2z M479.9,383.7c0,0.2-0.3,0.4-0.7,0.5
			c-0.4,0.1-0.8,0.1-0.8-0.1c0-0.2,0.3-0.4,0.7-0.5C479.4,383.5,479.8,383.5,479.9,383.7z M478.5,378.8c0.2-0.1,0.5-0.1,0.5,0.1
			c0,0.1-0.2,0.3-0.4,0.3c-0.2,0.1-0.5,0.1-0.5-0.1C478.1,379,478.3,378.9,478.5,378.8z M490.5,385.5c0,0.1-0.1,0.2-0.4,0.3
			c-0.6,0.3-1.2,0.4-1.8,0.6c-2.2,0.6-4.5,1.2-6.7,1.8c-2.2,0.6-4.5,1.2-6.7,1.8c-0.6,0.2-1.2,0.3-1.8,0.4c-0.3,0.1-0.5,0-0.6-0.1
			c0-0.2,0-0.3,0.1-0.5c0.3-0.5,0.7-1,1.1-1.5c0.7-0.9,1.4-1.7,2.1-2.6c0-0.1,0.1-0.1,0.1-0.1c0.1-0.1,0.2-0.1,0.3-0.2
			c0.3-0.2,0.7-0.3,1.1-0.3c0.2,0,0.4-0.1,0.6-0.1c0.6-0.1,1.1-0.2,1.7-0.4c0.5-0.2,1.1-0.4,1.7-0.7c0.8-0.3,1.6-0.6,2.4-0.7
			c0.6-0.1,1.3-0.2,1.9-0.3c0,0,0.1,0,0.1,0c1.4,0.5,2.9,1.1,4.1,1.7c0.2,0.1,0.4,0.2,0.6,0.4C490.5,385.2,490.5,385.3,490.5,385.5z
			"/>
		<path class="st7" d="M499.2,384.2l-6.7-14c-0.3-0.6-1.1-0.9-1.7-0.6c-4.6,2.1-9.1,3.8-13.8,5.2c-4.6,1.5-9.2,2.6-13.9,3.6
			c-0.7,0.2-1.1,0.8-1,1.4l3,14.1c0.1,0.6,0.8,1.1,1.6,0.9c5.2-0.9,10.4-2,15.6-3.4c2.6-0.7,5.2-1.5,7.9-2.4c2.6-0.9,5.3-1.9,8-3
			C499.1,385.6,499.5,384.8,499.2,384.2z M480,375.6c0.5-0.2,0.9-0.1,1,0.1s-0.3,0.5-0.8,0.6c-0.5,0.2-0.9,0.1-1-0.1
			C479.2,376,479.5,375.7,480,375.6z M478.9,376.9c0,0.1-0.1,0.3-0.4,0.3c-0.2,0.1-0.5,0.1-0.5-0.1c0-0.1,0.1-0.3,0.4-0.3
			C478.6,376.8,478.8,376.8,478.9,376.9z M477.4,375.8c0.4-0.1,0.7-0.1,0.7,0.1c0,0.2-0.2,0.4-0.6,0.5c-0.4,0.1-0.7,0.1-0.7-0.1
			C476.7,376.1,477,375.9,477.4,375.8z M492.4,385.2c-0.1,0.4-0.6,0.8-1.4,1.1c-0.5,0.3-1.1,0.4-1.7,0.6c-0.5,0.2-1.1,0.3-1.7,0.5
			c-2,0.6-4,1.1-5.9,1.6c-2.1,0.6-4.2,1.2-6.3,1.7c-0.8,0.2-1.6,0.4-2.4,0.6c-0.4,0.1-0.9,0.2-1.3,0.2c-0.7,0-1-0.2-1.2-0.4
			c-0.1-0.3-0.1-0.6,0.1-0.9c0.4-0.7,0.9-1.3,1.4-2c1.2-1.5,2.4-2.9,3.7-4.3c0.5-0.6,0.7-1.1,0.8-1.5c0.1-0.6,0-1.2-0.2-1.7
			c-0.1-0.3-0.2-0.5-0.4-0.8c0-0.1-0.1-0.1-0.3-0.1c-0.8,0.2-1.4,0.1-1.7-0.2c-0.3-0.4,0.4-1.1,1.7-1.4c0.9-0.3,1.7-0.5,2.6-0.7
			c1.1-0.3,2.3-0.6,3.4-0.9c0.8-0.3,1.7-0.2,2,0c0.4,0.3,0,0.9-0.9,1.3c-0.1,0.1-0.2,0.1-0.4,0.2c-0.1,0.1-0.1,0.1-0.1,0.1
			c0,0.2,0,0.4,0,0.6c0.1,0.5,0.2,0.9,0.3,1.4c0.1,0.5,0.5,1,1.2,1.3c0.3,0.2,0.7,0.3,1,0.4c1.8,0.6,3.6,1.3,5.2,2
			c0.6,0.3,1.3,0.6,1.8,0.9C492.4,384.6,492.5,384.8,492.4,385.2z"/>
	</g>
	<g class="st20">
		<path class="st21" d="M425.5,174.4c3.2-3,6.6-5.4,10.2-6.8c0.3-0.1,0.4-0.3,0.6-0.5c1.3-2.6,3.1-5.1,5.3-7.5
			c2.4-2.5,5.1-4.7,7.9-6.6c0.7-0.5,1.5-1,2.3-1.5c-0.1-0.1-0.1-0.2-0.2-0.2c-1.5-1.7-3-3.3-4.5-5c-1.6-1.8-3.1-3.6-4.6-5.3
			c0-0.1-0.2-0.2-0.3-0.1c-3.1,1.1-6.1,2.7-9,4.9c-1.7,1.4-3.3,2.9-4.6,4.7c-1,1.4-1.7,2.8-2.1,4.2c-0.1,0.4-0.3,0.7-0.7,1
			c-0.2,0.2-0.5,0.2-0.7,0.3c-2.3,0.6-4.6,1.8-6.8,3.6c-1.5,1.2-2.8,2.6-3.9,4.1c-1.7,2.3-3.2,4.6-4.2,7c0,0.1,0,0.3,0,0.3
			c0.7,0.8,1.4,1.6,2,2.3c2.3,2.7,4.6,5.5,6.9,8.2c0,0.1,0.1,0.2,0.2,0.3c0.1-0.2,0.2-0.3,0.3-0.4
			C421.2,178.9,423.2,176.6,425.5,174.4z M447.6,151c0.1,0.4-0.1,0.7-0.6,1c-0.7,0.4-1.5,0.7-2.1,1.1c-1.6,0.9-3.1,2-4.2,3
			c-2,1.8-3.3,3.5-4.3,5.4c0,0.1-0.1,0.3-0.2,0.4c-0.2,0.4-0.6,0.6-0.9,0.6s-0.4-0.3-0.2-0.6c0.3-0.7,0.7-1.3,1.1-1.9
			c2.4-3.6,5.6-6.3,9.3-8.3c0.5-0.3,1-0.5,1.5-0.7C447.2,150.7,447.5,150.8,447.6,151z M445.9,149.5c0.2,0.3,0,0.8-0.6,1.1
			c-1,0.6-2,1.1-3,1.7c-2.1,1.3-4,2.9-5.6,4.9c-0.7,0.9-1.3,1.8-1.8,2.7c-0.1,0.2-0.2,0.4-0.3,0.5c-0.2,0.4-0.6,0.6-0.9,0.6
			c-0.3-0.1-0.4-0.3-0.2-0.7c0.7-1.3,1.5-2.6,2.5-3.9c2.1-2.5,4.5-4.4,7.1-5.9c0.7-0.4,1.4-0.8,2.1-1.1
			C445.6,149.3,445.8,149.3,445.9,149.5z M444.4,148.2c0,0.3-0.2,0.7-0.6,0.9c-0.5,0.3-1,0.5-1.5,0.7c-2.1,1.2-4.1,2.6-5.9,4.4
			c-1.3,1.3-2.3,2.7-3.1,4.1c-0.1,0.2-0.2,0.4-0.3,0.6c-0.2,0.4-0.6,0.7-0.9,0.6c-0.3,0-0.4-0.3-0.2-0.7c0.6-1.3,1.4-2.5,2.4-3.7
			c0.7-0.9,1.5-1.7,2.3-2.5c0,0,0,0,0,0.1c2.2-2,4.6-3.5,7.1-4.7C444.1,147.8,444.3,147.9,444.4,148.2z M442.5,146.2
			c0.4-0.2,0.6-0.2,0.7,0.1c0.1,0.4-0.1,0.7-0.7,1c-0.7,0.4-1.4,0.7-2,1.1c-1.9,1.1-3.6,2.4-5.3,4c-1.3,1.3-2.4,2.8-3.2,4.3
			c-0.1,0.2-0.1,0.3-0.2,0.5c-0.2,0.4-0.6,0.7-0.9,0.7c-0.3,0-0.4-0.3-0.2-0.7c0.3-0.6,0.7-1.3,1.1-1.9c1-1.6,2.2-3,3.7-4.3
			C437.6,148.9,440,147.4,442.5,146.2z M429,155.7c0.6-1.2,1.3-2.4,2.3-3.5c0.7-0.9,1.6-1.8,2.4-2.6c0,0,0,0,0,0.1
			c2.2-2.1,4.6-3.6,7.1-4.7c0.4-0.2,0.7-0.1,0.7,0.2s-0.2,0.6-0.6,0.9c-0.5,0.3-0.9,0.5-1.4,0.7c-2.5,1.3-4.8,3-6.8,5.2
			c-0.9,1.1-1.7,2.2-2.3,3.3c-0.1,0.2-0.2,0.4-0.3,0.6c-0.2,0.4-0.5,0.6-0.9,0.6C428.9,156.4,428.8,156.1,429,155.7z M425.1,161.1
			c0.2,0.1,0.2,0.3,0.1,0.6c-0.1,0.3-0.3,0.5-0.6,0.6c-0.5,0.3-1,0.5-1.5,0.8c-0.9,0.6-1.7,1.3-2.5,2.1c-0.1,0.2-0.2,0.3-0.4,0.4
			c-0.3,0.4-0.7,0.5-0.9,0.3c-0.2-0.2-0.1-0.5,0.1-0.8c0.4-0.5,0.9-1,1.4-1.5c1.2-1.1,2.4-1.9,3.7-2.4
			C424.7,161,425,161,425.1,161.1z M418.2,163.4c0.5-0.7,1.1-1.3,1.7-1.9c0,0,0,0,0,0.1c1.1-1,2.2-1.7,3.4-2.3
			c0.4-0.2,0.7-0.1,0.7,0.3c0,0.4-0.2,0.7-0.7,0.9c-0.9,0.4-1.8,1-2.6,1.7c-0.6,0.6-1.1,1.2-1.6,1.8c-0.3,0.4-0.7,0.5-0.9,0.4
			C417.9,164.1,417.9,163.7,418.2,163.4z M415,172.2c-0.6,0.2-0.8-0.1-1-0.4c-0.4-0.7-0.9-1.3-1.4-1.9c0-0.1-0.1-0.3,0-0.5
			c0.6-1.4,1.7-2.7,2.9-3.8c0.4-0.4,0.7-0.4,0.9-0.2c0.3,0.3,0.5,0.7,0.8,1c0,0,0,0,0,0c0.3,0.4,0.6,0.7,0.9,1.1
			c0.2,0.2,0.1,0.4-0.2,0.8c-0.5,0.7-1,1.4-1.5,2.1c-0.2,0.4-0.4,0.7-0.6,1C415.6,172,415.5,172.1,415,172.2z M415.7,174.8
			c0-0.1,0-0.3,0.1-0.5c1.1-2.2,2.4-4.2,4.2-6.2c1.5-1.7,3.2-3.1,5-4.2c0.6-0.4,1.3-0.7,1.9-1.1c0.4-0.3,0.7-0.2,0.7,0.2
			s-0.2,0.7-0.7,0.9c-1,0.5-1.9,1-2.8,1.7c-1.6,1.1-2.9,2.4-4.1,3.9c-1.2,1.5-2.2,3-3,4.5c-0.1,0.2-0.1,0.3-0.2,0.5
			C416.6,175,416,175.2,415.7,174.8z M418.3,176.1c-0.2,0.4-0.5,0.6-0.8,0.6s-0.5-0.2-0.3-0.6c0.1-0.3,0.2-0.6,0.4-0.9
			c1.3-2.4,2.9-4.6,5-6.7c0.2-0.2,0.4-0.4,0.6-0.5c1.7-1.5,3.4-2.7,5.3-3.6c0.5-0.2,0.7-0.2,0.7,0.2c0,0.4-0.2,0.7-0.7,0.9
			c-1.1,0.5-2.2,1.2-3.2,2c-2.1,1.7-3.9,3.6-5.3,5.8c-0.5,0.8-0.9,1.6-1.4,2.4C418.4,175.8,418.4,175.9,418.3,176.1z M418.5,178.1
			c0-0.1,0-0.3,0.1-0.5c1.5-2.9,3.4-5.6,6.1-8.1c1.6-1.5,3.3-2.6,5.1-3.4c0.4-0.2,0.7-0.2,0.7,0.2c0,0.4-0.2,0.7-0.7,0.9
			c-1.1,0.5-2.1,1.1-3.1,1.9c-2.1,1.6-3.8,3.5-5.2,5.5c-0.6,1-1.1,1.9-1.7,2.8c0,0.1-0.1,0.2-0.1,0.3
			C419.3,178.2,418.8,178.4,418.5,178.1z"/>
		<path class="st21" d="M416.7,168.3c-0.2-0.3-0.4-0.5-0.6-0.7c-0.2-0.2-0.4-0.4-0.5-0.7c-0.7,0.7-1.2,1.4-1.6,2.1
			c0,0.1-0.1,0.2,0,0.3c0.4,0.5,0.8,1.1,1.2,1.6c0.6-0.8,1.1-1.6,1.6-2.3C416.8,168.4,416.8,168.3,416.7,168.3z"/>
		<path class="st21" d="M465.1,143.3l-18.9-15.6c-0.8-0.7-2.3-0.3-3.3,0.9c-3.5,4-6.8,8.2-10.4,12.1c-1.8,2-3.5,3.9-5.3,5.8
			l-5.5,5.7l-2.7,2.8l-2.9,2.8l-5.6,5.5c-3.8,3.6-7.7,7.1-11.6,10.6c-1.1,1-1.6,2.4-0.9,3.1l14.4,16.8c0.6,0.8,2.2,0.6,3.5-0.5
			c4.2-3.6,8.6-7.1,12.7-10.8l6.2-5.6l3.1-2.8l3.1-2.9l6.1-5.8c2-2,4-4,5.9-6.1c4-4,7.8-8.3,11.7-12.5
			C465.8,145.6,466,144,465.1,143.3z M418.4,183.5c-0.3-0.3-0.6-0.6-0.9-0.9c-2.4-2.8-4.8-5.7-7.1-8.5c-0.6-0.7-1.2-1.4-1.8-2.1
			c-0.2-0.3-0.2-0.6,0-1.1c0.9-2,2-4,3.4-5.9c1.6-2.2,3.3-4.3,5.4-6.1c2.4-2.1,4.9-3.5,7.5-4.2c0.1,0,0.2-0.1,0.2-0.1
			c0.4-0.8,0.7-1.6,1.1-2.4c0.9-1.7,2.1-3.3,3.5-4.7c2.1-2.2,4.4-3.9,6.9-5.3c2-1.2,4.1-2.1,6.1-2.8c0.4-0.2,0.7-0.1,0.9,0.1
			c3.2,3.6,6.3,7.3,9.5,10.9c0.2,0.2,0.3,0.4,0.4,0.7c0.2,0.3,0,0.7-0.5,1c-0.5,0.4-1.1,0.7-1.6,1c-2.5,1.6-5,3.4-7.3,5.5
			c-2.9,2.7-5.2,5.5-6.8,8.8c0,0.1-0.1,0.2-0.1,0.3c-0.1,0.6-0.6,1-1.2,1.1c-0.4,0.1-0.9,0.3-1.3,0.5c-3.3,1.5-6.3,3.7-9.1,6.4
			c-2.3,2.3-4.3,4.7-6.1,7.2c-0.1,0.1-0.1,0.2-0.2,0.4C419.1,183.6,418.7,183.8,418.4,183.5z M453.8,153.9c-0.7,0.5-1.5,0.9-2.2,1.4
			c-2.5,1.6-4.9,3.4-7,5.5c-1.9,1.8-3.5,3.8-4.5,5.9c-0.5,1-0.8,2-0.9,2.9c0,0.4-0.2,0.7-0.5,1c-0.3,0.4-0.7,0.5-1,0.5
			c-2.4,0.1-4.9,1.2-7.5,3.1c-2,1.5-3.8,3.3-5.4,5.1c-1.4,1.6-2.6,3.2-3.7,4.8c-0.4,0.6-0.8,0.9-1.3,0.9c-0.5,0.1-0.7-0.3-0.3-0.9
			c0.3-0.4,0.6-0.9,0.9-1.3c1.8-2.5,3.8-4.9,6.1-7.2c2.3-2.2,4.7-4.1,7.3-5.3c1.2-0.6,2.3-1,3.4-1.1c0.1,0,0.2-0.1,0.3-0.1
			c0,0,0,0,0.1-0.1c0.2-1,0.6-2,1.2-3.1c0.7-1.4,1.6-2.7,2.7-3.9c1.6-1.9,3.4-3.5,5.2-5c2.2-1.8,4.6-3.4,6.9-4.7
			c0.7-0.4,1-0.4,1.1-0.1C454.8,152.9,454.4,153.6,453.8,153.9z"/>
	</g>
	<g class="st22">
		<path class="st3" d="M374.2,151.2c2-1.6,4.1-2.8,6.2-3.5c0.1-0.1,0.2-0.1,0.3-0.3c0.9-1.5,2.1-2.8,3.5-4c1.5-1.4,3.2-2.5,4.9-3.4
			c0.4-0.3,0.9-0.5,1.4-0.8c0-0.1,0-0.1-0.1-0.2c-0.8-1-1.5-2-2.3-3c-0.8-1.1-1.6-2.1-2.3-3.2c0-0.1-0.1-0.1-0.2-0.1
			c-1.8,0.5-3.6,1.3-5.4,2.5c-1.1,0.7-2,1.5-2.9,2.5c-0.6,0.8-1.2,1.5-1.5,2.3c-0.1,0.2-0.2,0.4-0.5,0.5c-0.1,0.1-0.3,0.1-0.4,0.1
			c-1.4,0.2-2.7,0.8-4.1,1.8c-0.9,0.7-1.7,1.4-2.5,2.2c-1.1,1.2-2.1,2.5-2.8,3.8c0,0.1,0,0.2,0,0.2c0.3,0.5,0.7,0.9,1,1.4
			c1.2,1.6,2.3,3.3,3.5,4.9c0,0.1,0,0.1,0.1,0.2c0.1-0.1,0.1-0.2,0.2-0.2C371.5,153.6,372.8,152.4,374.2,151.2z M388.2,138.7
			c0,0.2-0.1,0.4-0.4,0.6c-0.4,0.2-0.9,0.4-1.3,0.6c-1,0.5-1.9,1-2.6,1.6c-1.2,1-2.1,1.9-2.8,2.9c0,0.1-0.1,0.2-0.1,0.2
			c-0.1,0.2-0.3,0.3-0.5,0.3c-0.1,0-0.2-0.2-0.1-0.4c0.2-0.4,0.5-0.7,0.7-1.1c1.6-2,3.6-3.4,5.8-4.3c0.3-0.2,0.6-0.3,0.9-0.4
			C388,138.6,388.2,138.6,388.2,138.7z M387.4,137.8c0.1,0.2-0.1,0.5-0.4,0.6c-0.6,0.3-1.2,0.5-1.8,0.8c-1.3,0.7-2.5,1.5-3.5,2.6
			c-0.4,0.5-0.9,1-1.2,1.5c0,0.1-0.1,0.2-0.2,0.3c-0.1,0.2-0.4,0.4-0.5,0.3c-0.2-0.1-0.2-0.2,0-0.4c0.4-0.7,1-1.4,1.7-2.1
			c1.3-1.3,2.8-2.3,4.4-3.1c0.4-0.2,0.9-0.4,1.3-0.6C387.2,137.7,387.3,137.7,387.4,137.8z M386.5,137c0,0.2-0.1,0.4-0.4,0.5
			c-0.3,0.1-0.6,0.3-0.9,0.4c-1.3,0.6-2.5,1.3-3.6,2.3c-0.8,0.7-1.5,1.4-2,2.2c0,0.1-0.1,0.2-0.2,0.3c-0.1,0.2-0.3,0.4-0.5,0.3
			c-0.2,0-0.2-0.2,0-0.4c0.4-0.7,1-1.4,1.6-2c0.5-0.5,1-0.9,1.5-1.4c0,0,0,0,0,0c1.4-1.1,2.8-1.9,4.3-2.4
			C386.4,136.8,386.5,136.9,386.5,137z M385.9,135.9c0,0.2-0.1,0.4-0.4,0.6c-0.4,0.2-0.8,0.4-1.2,0.5c-1.1,0.6-2.2,1.2-3.3,2.1
			c-0.8,0.7-1.5,1.5-2.1,2.3c0,0.1-0.1,0.2-0.1,0.3c-0.1,0.2-0.4,0.4-0.5,0.4c-0.2,0-0.2-0.2-0.1-0.4c0.2-0.4,0.5-0.7,0.7-1
			c0.6-0.9,1.5-1.6,2.4-2.3c1.4-1.1,2.8-1.8,4.3-2.4C385.8,135.7,385.9,135.8,385.9,135.9z M377.3,140.7c0.4-0.7,0.9-1.3,1.5-1.9
			c0.5-0.5,1-1,1.5-1.4c0,0,0,0,0,0c1.4-1.1,2.9-1.9,4.4-2.4c0.3-0.1,0.4-0.1,0.4,0.2c0,0.2-0.1,0.4-0.4,0.5
			c-0.3,0.1-0.5,0.2-0.8,0.4c-1.5,0.7-2.9,1.5-4.2,2.7c-0.6,0.6-1.1,1.2-1.6,1.8c0,0.1-0.1,0.2-0.2,0.3c-0.1,0.2-0.3,0.4-0.5,0.3
			C377.2,141.1,377.2,141,377.3,140.7z M374.8,143.7c0.1,0.1,0.1,0.2,0,0.3s-0.2,0.3-0.4,0.3c-0.3,0.1-0.6,0.3-0.9,0.4
			c-0.6,0.3-1.1,0.7-1.6,1.1c-0.1,0.1-0.1,0.2-0.2,0.2c-0.2,0.2-0.4,0.3-0.5,0.2c-0.1-0.1,0-0.3,0.1-0.5c0.3-0.3,0.6-0.5,0.9-0.8
			c0.7-0.6,1.5-1,2.3-1.2C374.6,143.6,374.7,143.6,374.8,143.7z M370.7,144.7c0.3-0.4,0.7-0.7,1.1-1c0,0,0,0,0,0
			c0.7-0.5,1.4-0.9,2.1-1.2c0.2-0.1,0.4-0.1,0.4,0.2c0,0.2-0.2,0.4-0.4,0.5c-0.5,0.2-1.1,0.5-1.6,0.9c-0.3,0.3-0.7,0.6-1,1
			c-0.2,0.2-0.4,0.3-0.5,0.2C370.5,145.1,370.5,144.9,370.7,144.7z M367.8,149.4c-0.2-0.4-0.4-0.8-0.7-1.1c0-0.1,0-0.2,0-0.3
			c0.4-0.8,1.1-1.5,1.9-2.1c0.3-0.2,0.4-0.2,0.5-0.1c0.1,0.2,0.3,0.4,0.4,0.6l0,0c0.1,0.2,0.3,0.4,0.5,0.7c0.1,0.2,0,0.3-0.1,0.5
			c-0.3,0.4-0.7,0.8-1,1.2c-0.1,0.2-0.2,0.4-0.4,0.6c-0.2,0.3-0.3,0.3-0.5,0.4C368,149.7,367.9,149.6,367.8,149.4z M368.6,151.1
			c0-0.1,0-0.2,0.1-0.3c0.7-1.2,1.7-2.3,2.8-3.4c1-0.9,2-1.7,3.1-2.2c0.4-0.2,0.8-0.4,1.2-0.6c0.3-0.1,0.4-0.1,0.4,0.2
			c0,0.2-0.2,0.4-0.4,0.5c-0.6,0.2-1.2,0.5-1.7,0.9c-1,0.6-1.8,1.3-2.6,2.1c-0.8,0.8-1.4,1.6-1.9,2.5c0,0.1-0.1,0.2-0.1,0.3
			C369.1,151.2,368.8,151.3,368.6,151.1z M369.5,152.2c-0.2,0-0.2-0.2-0.1-0.3s0.2-0.3,0.3-0.5c0.9-1.3,1.9-2.5,3.2-3.6
			c0.1-0.1,0.2-0.2,0.3-0.3c1-0.8,2.1-1.4,3.2-1.9c0.3-0.1,0.4-0.1,0.4,0.2c0,0.2-0.2,0.4-0.5,0.5c-0.7,0.3-1.3,0.6-1.9,1
			c-1.3,0.9-2.4,1.9-3.4,3.1c-0.3,0.4-0.6,0.9-0.9,1.3c0,0.1-0.1,0.2-0.1,0.3C369.9,152.1,369.7,152.2,369.5,152.2z M370,153
			c0-0.1,0-0.2,0.1-0.3c1-1.6,2.3-3.1,3.9-4.4c1-0.8,2-1.4,3.1-1.8c0.3-0.1,0.4-0.1,0.4,0.2c0,0.2-0.2,0.4-0.5,0.5
			c-0.6,0.3-1.3,0.6-1.9,1c-1.3,0.8-2.4,1.8-3.3,3c-0.4,0.5-0.7,1-1.1,1.6c0,0.1,0,0.1-0.1,0.2C370.5,153.1,370.2,153.3,370,153z"/>
		<path class="st3" d="M369.6,147.4c-0.1-0.2-0.2-0.3-0.3-0.4c-0.1-0.2-0.2-0.3-0.3-0.4c-0.4,0.4-0.7,0.7-1,1.1c0,0.1,0,0.1,0,0.2
			c0.2,0.3,0.4,0.6,0.6,0.9c0.4-0.5,0.7-0.9,1.1-1.3C369.6,147.5,369.6,147.4,369.6,147.4z"/>
		<path class="st3" d="M397.4,136l-7.9-10.5c-0.5-0.7-1.7-0.6-2.5,0.3l-3.2,3l-3.3,2.9c-2.2,2-4.4,4-6.7,5.9
			c-4.6,3.8-9,7.7-13.8,11.3c-1,0.8-1.4,1.9-1,2.6l6.2,10.3c0.4,0.7,1.6,0.6,2.6-0.1c5-3.5,9.8-7.4,14.7-11.1
			c2.4-1.9,4.7-3.9,7.1-5.8l3.5-2.9l3.5-3C397.6,138,397.9,136.7,397.4,136z M369.6,156.2c-0.1-0.2-0.3-0.4-0.4-0.6
			c-1.2-1.7-2.4-3.4-3.6-5.1c-0.3-0.5-0.6-0.9-1-1.3c-0.1-0.2-0.1-0.4,0-0.6c0.6-1.1,1.4-2.2,2.3-3.2c1-1.2,2.1-2.3,3.5-3.3
			c1.5-1.1,3-1.8,4.5-2.1c0,0,0.1,0,0.1-0.1c0.2-0.5,0.5-0.9,0.8-1.3c0.6-0.9,1.4-1.8,2.3-2.6c1.3-1.2,2.8-2,4.3-2.8
			c1.3-0.6,2.5-1.1,3.7-1.4c0.2-0.1,0.4-0.1,0.5,0.1c1.6,2.2,3.2,4.4,4.8,6.6c0.1,0.1,0.1,0.3,0.2,0.4s0,0.4-0.4,0.6s-0.6,0.3-1,0.5
			c-1.6,0.8-3.1,1.7-4.5,2.9c-1.8,1.4-3.3,3-4.4,4.7c0,0.1,0,0.1-0.1,0.2c-0.1,0.4-0.4,0.6-0.8,0.6c-0.2,0.1-0.5,0.2-0.8,0.3
			c-1.9,0.7-3.8,1.9-5.5,3.3c-1.5,1.2-2.7,2.5-3.9,3.9c0,0.1-0.1,0.1-0.1,0.2C370,156.2,369.8,156.3,369.6,156.2z M391.6,140.6
			c-0.4,0.3-0.9,0.5-1.4,0.7c-1.5,0.8-3,1.7-4.3,2.9c-1.2,1-2.2,2-2.9,3.2c-0.3,0.6-0.5,1.1-0.7,1.6c0,0.2-0.1,0.4-0.3,0.6
			c-0.2,0.2-0.4,0.3-0.6,0.3c-1.4-0.1-2.9,0.5-4.5,1.5c-1.3,0.8-2.4,1.7-3.4,2.7c-0.9,0.8-1.7,1.7-2.4,2.6c-0.2,0.3-0.5,0.5-0.8,0.5
			c-0.3,0-0.4-0.2-0.1-0.5c0.2-0.3,0.4-0.5,0.6-0.7c1.2-1.4,2.5-2.7,3.9-3.8c1.4-1.2,2.9-2.2,4.5-2.8c0.7-0.3,1.4-0.5,2-0.5
			c0,0,0.1,0,0.2,0h0c0.2-0.6,0.5-1.1,0.9-1.7c0.5-0.8,1.1-1.5,1.7-2.1c1-1,2.1-1.9,3.3-2.7c1.4-1,2.8-1.8,4.3-2.4
			c0.4-0.2,0.6-0.2,0.6,0C392.2,140.1,392,140.4,391.6,140.6z"/>
	</g>
	<g class="st23">
		<path class="st15" d="M466.2,209.5l-13.9-15.6c-0.6-0.7-1.7-0.7-2.3,0c-4.6,4.7-9.4,9.2-14.5,13.3c-5.1,4.1-10.5,7.9-16.1,11.2
			c-0.8,0.5-1.2,1.5-0.8,2.2l8.1,16.7c0.3,0.8,1.4,1,2.4,0.5c6.6-3.4,13-7.3,19.2-11.5c6.2-4.3,12.1-9,17.6-14.1
			C466.7,211.3,466.9,210.1,466.2,209.5z M448.2,210c-0.3,0.5-1,1-1.3,1.5c-1,1.3-2.2,2-3.5,2.5c-0.5,0.2-0.9,0.1-1.4,0.1
			c1.8-2,3.5-3.9,5.3-5.8C448.5,208.3,448.9,208.9,448.2,210z M437.5,207c0-0.1,0.1-0.1,0.1-0.1c0.7,0.1,1.4,0.2,2.1,0.4
			c-1.8,1.9-3.5,3.8-5.3,5.7c-0.7-0.1-1.4-0.2-2.1-0.3C434,210.8,435.8,208.9,437.5,207z M434.5,231.4c-0.3-0.4-0.5-0.8-0.9-1.2
			c1.6-1.2,3-2.4,4.7-3.7c-5,1.6-7.9,1.1-8.2-1.8c-0.3-3,2.1-6.9,6.6-11.3c-0.2-0.1-0.4-0.1-0.6-0.1c-0.2-0.1-0.4-0.1-0.7-0.1
			c1.8-1.9,3.6-3.8,5.4-5.8c1.8,0.3,3.7,0.6,5.6,0.9c-1.8,1.9-3.5,3.8-5.3,5.7c-0.8-0.1-1.7-0.2-2.4-0.3c-5.7,5.1-7.4,10.8-3.5,11.2
			c0.7-1.6,2.1-3.1,4.1-4.3c0.8-0.5,1.7-0.9,2.4-1.2c0.5-0.2,0.7-0.4,1.1-0.8c3.2-3.5,6.4-7,9.7-10.4c0.1-0.2,0.3-0.4,0.5-0.6
			c0.6,0.1,1.1,0.2,1.7,0.2c-1.3,1.4-2.5,2.7-3.7,4c-2.2,2.4-4.5,4.8-6.7,7.2c-0.4,0.4-0.6,0.7-0.4,1c0.3,0.6-0.1,1.5-0.9,2.7
			c1-0.7,2-1.3,3-2.1c4.2-3.2,8.4-6.5,12.5-9.8c0.3-0.2,0.5-0.5,0.9-0.7c0.3,0.4,0.6,0.8,0.9,1.2
			C451.7,217.9,443.1,224.7,434.5,231.4z"/>
		<path class="st15" d="M439.1,222.3c-0.9,0.7-1.3,1.4-1,1.7c0.2,0.4,1,0.1,1.9-0.6c0.8-0.7,1.3-1.4,1-1.7
			C440.7,221.4,439.9,221.7,439.1,222.3z"/>
	</g>
	<g class="st24">
		<path class="st25" d="M88.4,270.9c-1.5-1.4-4.2-0.9-6.1,1.2c-1.9,2.1-2.3,4.9-0.9,6.4c1.5,1.5,4.2,0.9,6.1-1.2
			C89.5,275.1,89.8,272.3,88.4,270.9z"/>
		<path class="st25" d="M90.5,274.9c-0.1,0.1-0.2,0.2-0.2,0.3c-0.9,2.3-2.4,3.9-4.6,4.9c-0.1,0.1-0.2,0.2-0.3,0.3
			c-0.1,0.3-0.3,0.6-0.4,0.8c-1.1,2.4-1.6,4.6-1.1,6.7c0.2,0.8,0.5,1.5,1,2.1c5-5.3,9.9-10.7,14.8-16.1c0-0.1,0-0.1,0-0.1
			c-0.8-0.6-1.7-0.9-2.9-1C94.7,272.8,92.6,273.5,90.5,274.9z"/>
		<path class="st25" d="M111.6,265.8l-11-13.3c-0.5-0.6-1.6-0.5-2.5,0.4l-4.6,4.1c-0.8,0.7-1.6,1.4-2.3,2.1l-2.2,2.1l-4.5,4.3
			c-1.5,1.4-2.9,2.9-4.4,4.4c-1.5,1.5-2.9,2.9-4.3,4.4l-4.2,4.6c-2.8,3-5.4,6.3-8.2,9.4c-0.8,0.9-0.9,2.1-0.2,2.7L78,303.3
			c0.6,0.6,1.7,0.3,2.4-0.6c2.4-3,4.7-6.2,7.1-9.1l3.7-4.4c1.3-1.5,2.5-2.9,3.8-4.3c1.3-1.4,2.5-2.9,3.8-4.3l4-4.2l2-2.1
			c0.7-0.7,1.4-1.4,2-2l4.1-4C111.9,267.5,112.1,266.4,111.6,265.8z M84.5,292.1c-2-1.5-3.6-5.5-0.8-11.4c-3.5,0.5-5.2-2.4-4.6-5.4
			c0.6-3.1,3.2-5.8,6.1-6.7c3-0.8,5.7,0.9,5.4,4.5c4.5-2.4,8.3-2.6,11,0.3C96,279.7,90.3,285.9,84.5,292.1z"/>
	</g>
	<g class="st24">
		<path class="st26" d="M49.7,286.9c-1.4,0.2-2.9,0.9-4.4,2c0,0.1-0.1,0.2-0.1,0.2c-0.8,1.6-2,2.9-3.5,3.8c-0.1,0.1-0.1,0.2-0.2,0.2
			c-0.1,0.2-0.2,0.4-0.3,0.6c-1,1.7-1.5,3.3-1.4,4.7c0,0.5,0.2,1,0.4,1.3c3.8-4.1,7.7-8.3,11.5-12.5c0,0,0-0.1,0-0.1
			C51.1,287,50.5,286.9,49.7,286.9z"/>
		<path class="st26" d="M44.4,286.4c-0.8-0.8-2.7-0.2-4.2,1.5c-1.5,1.6-2,3.6-1.2,4.4c0.8,0.8,2.7,0.2,4.2-1.5
			C44.6,289.3,45.2,287.2,44.4,286.4z"/>
		<path class="st26" d="M57.6,282.8l-7.3-6.9c-0.3-0.3-1-0.2-1.5,0.4c-0.9,0.9-1.7,1.7-2.5,2.6l-2.5,2.6l-2.4,2.7
			c-0.8,0.9-1.6,1.8-2.4,2.8l-2.3,2.8c-0.8,1-1.5,1.9-2.3,2.9c-0.7,1-1.5,1.9-2.2,2.9l-2.1,3c-0.4,0.6-0.4,1.3,0,1.5l9.3,6
			c0.4,0.3,1.1,0.1,1.4-0.5l1.9-2.8c0.6-1,1.3-1.9,1.9-2.8c0.7-0.9,1.3-1.9,2-2.8l2-2.7c0.7-0.9,1.4-1.8,2.1-2.7l2.1-2.6l2.2-2.6
			c0.7-0.9,1.5-1.7,2.2-2.5C57.8,283.8,57.9,283.1,57.6,282.8z M39.7,301.3c-1.2-0.8-1.9-3.3,0.6-7.7c-2.4,0.7-3.3-1.1-2.6-3.2
			c0.7-2.1,2.7-4.3,4.8-5.1c2-0.9,3.7,0.1,3.2,2.5c3.3-2.1,5.8-2.6,7.4-1C48.6,291.7,44.2,296.5,39.7,301.3z"/>
	</g>
	<g class="st27">
		<path class="st26" d="M28.8,375.5c-1.8-0.1-3.5,1.8-3.5,4.2c-0.1,2.4,1.3,4.5,3.1,4.6c1.8,0.1,3.5-1.8,3.5-4.2
			C32.1,377.7,30.6,375.6,28.8,375.5z"/>
		<path class="st26" d="M35.8,372.1c-1.5,1.1-2.5,2.8-3.2,4.9c0,0.1,0,0.2,0,0.3c0.7,2,0.6,3.9-0.3,5.8c0,0.1,0,0.3,0,0.4
			c0,0.3,0.1,0.5,0.2,0.8c0.6,2.2,1.6,3.8,3.2,4.9c0.6,0.4,1.2,0.7,1.8,0.8c0.3-6.3,0.6-12.5,0.9-18.8c0,0,0,0-0.1,0
			C37.5,371.1,36.6,371.5,35.8,372.1z"/>
		<path class="st26" d="M40.9,365.4L27,363.6c-0.6-0.1-1.2,0.4-1.4,1.2c-0.9,4.9-1.7,10-2.2,15.1c-0.3,2.5-0.5,5.1-0.7,7.7
			c-0.2,2.6-0.3,5.2-0.4,8c0,0.8,0.5,1.4,1.2,1.4l15.1-0.8c0.7-0.1,1.2-0.7,1.2-1.4c0-4.8,0.1-9.5,0.5-14.2
			c0.3-4.6,0.9-9.3,1.6-13.9C41.9,366.1,41.5,365.5,40.9,365.4z M38.6,391.4c-2.2,0.2-5.7-1.5-7.2-6.9c-2.1,2.3-5,1.5-6.4-0.9
			c-1.4-2.3-1.2-5.6,0.4-7.8c1.6-2.2,4.5-2.7,6.4-0.2c1.7-4.1,4.2-6.4,7.8-6.1C39.3,376.9,38.9,384.2,38.6,391.4z"/>
	</g>
	<g class="st22">
		<path class="st7" d="M352.4,350.9c-0.2-0.4-0.4-0.7-0.6-1.1c-0.9-1.4-1.9-2.8-3-4.3c-0.3-0.5-0.7-0.9-1-1.4
			c-0.5-0.7-0.6-1.2-0.5-1.7c0-0.5,0.2-0.9,0.5-1.2c0.1-0.1,0.2-0.2,0.4-0.2s0.5,0.1,0.9,0.4c0.3,0.2,0.5,0.3,0.6,0.2
			c0-0.1-0.1-0.3-0.4-0.5c0-0.1-0.1-0.1-0.1-0.1c-1.7-1.1-3.5-2.1-5.2-3.1c0-0.1-0.1-0.1-0.2-0.1c-0.3-0.2-0.5-0.2-0.6-0.2
			c0,0.1,0.2,0.3,0.5,0.5c0.4,0.3,0.7,0.5,0.8,0.7c0,0.2,0.1,0.3,0.1,0.5c0,0.4-0.1,0.7-0.3,1c-0.1,0.2-0.2,0.4-0.5,0.6
			c-0.3,0.2-0.8,0.3-1.4,0.2c-1.7-0.2-3.3-0.3-4.9-0.4c-0.6-0.1-1.3-0.1-1.8,0c-0.2,0-0.3,0.1-0.3,0.3s0.1,0.3,0.5,0.6
			c0.2,0.2,0.4,0.3,0.6,0.4c0.6,0.5,1.3,0.9,2,1.3c1.8,1.1,3.6,2.2,5.4,3.2c1.8,1.1,3.6,2.2,5.4,3.2c0.6,0.4,1.3,0.8,1.8,1.1
			c0.3,0.2,0.6,0.3,0.9,0.5c0.2,0.1,0.4,0.2,0.5,0.1C352.5,351.2,352.6,351.1,352.4,350.9z M346.9,343.6c0,0.1-0.3,0-0.6-0.2
			c-0.3-0.2-0.5-0.4-0.4-0.5c0-0.1,0.3,0,0.6,0.2C346.7,343.3,346.9,343.5,346.9,343.6z M347.6,340.3c0.2,0.2,0.4,0.3,0.3,0.4
			c0,0.1-0.2,0-0.4-0.2c-0.2-0.2-0.4-0.3-0.3-0.4C347.1,340.2,347.3,340.2,347.6,340.3z M346.6,341c0.3,0.2,0.5,0.4,0.5,0.5
			c0,0.1-0.3,0-0.6-0.2c-0.3-0.2-0.5-0.4-0.5-0.5C346,340.7,346.3,340.8,346.6,341z M346,342.1c0,0.1-0.4,0-0.8-0.2
			c-0.4-0.3-0.7-0.5-0.6-0.6c0-0.1,0.4,0,0.8,0.2C345.8,341.7,346,342,346,342.1z M345.7,339.8c0.2,0.2,0.4,0.3,0.4,0.4
			c0,0.1-0.2,0-0.5-0.2s-0.4-0.3-0.3-0.4C345.3,339.6,345.5,339.6,345.7,339.8z M344,342.4c0.4,0.2,0.6,0.5,0.6,0.6
			c0,0.1-0.4,0-0.8-0.2c-0.4-0.2-0.6-0.5-0.6-0.6C343.2,342.1,343.6,342.2,344,342.4z M351.9,350.9c0,0.1-0.2,0-0.4-0.1
			c-0.5-0.3-1.1-0.6-1.7-1c-2-1.2-4-2.4-5.9-3.6c-2-1.2-3.9-2.4-5.9-3.6c-0.5-0.4-1.1-0.7-1.6-1c-0.3-0.2-0.4-0.4-0.4-0.5
			c0-0.1,0.1-0.2,0.2-0.2c0.4-0.1,1-0.1,1.6,0c0.9,0.1,1.8,0.1,2.8,0.2c0,0,0.1,0,0.1,0.1c0.1,0.1,0.2,0.1,0.3,0.1
			c0.3,0.2,0.6,0.4,1,0.6c0.1,0.1,0.3,0.3,0.5,0.4c0.4,0.4,0.9,0.7,1.5,1c0.5,0.3,1,0.6,1.6,0.8c0.7,0.4,1.5,0.8,2.1,1.3
			c0.5,0.4,1.1,0.8,1.6,1.1c0,0.1,0.1,0.1,0.1,0.1c0.9,1.2,1.7,2.4,2.4,3.5c0.1,0.2,0.2,0.4,0.3,0.6
			C352,350.8,351.9,350.8,351.9,350.9z"/>
		<path class="st7" d="M356.7,354.5l2.2-10c0.1-0.5-0.2-1-0.8-1.3c-7.2-3.4-14.4-7.5-21.4-12c-0.5-0.3-1.1-0.3-1.3,0.1l-4.4,7.9
			c-0.2,0.4,0.1,1,0.6,1.3c7.6,5.3,15.6,10.1,23.7,14.3C356.1,355.1,356.6,354.9,356.7,354.5z M348.3,339.2c0.4,0.3,0.7,0.6,0.7,0.7
			c0,0.1-0.4,0-0.9-0.3c-0.4-0.3-0.7-0.6-0.7-0.7C347.5,338.9,347.9,339,348.3,339.2z M346.8,339.1c0,0.1-0.2,0-0.4-0.2
			c-0.2-0.2-0.4-0.3-0.4-0.4c0-0.1,0.2,0,0.4,0.2C346.7,338.8,346.9,339,346.8,339.1z M346.2,337.5c0.3,0.2,0.6,0.5,0.5,0.5
			c0,0.1-0.3,0-0.7-0.2c-0.3-0.2-0.6-0.5-0.5-0.5S345.9,337.3,346.2,337.5z M353.5,352c-0.2,0.2-0.8-0.1-1.6-0.4
			c-0.5-0.3-1-0.6-1.6-0.9c-0.5-0.3-1-0.6-1.5-0.9c-1.7-1.1-3.5-2.1-5.3-3.2c-1.8-1.1-3.7-2.2-5.6-3.4c-0.7-0.5-1.4-0.9-2.1-1.4
			c-0.4-0.3-0.7-0.5-1.1-0.8c-0.5-0.5-0.7-0.8-0.7-1c0-0.2,0.2-0.4,0.5-0.4c0.6-0.1,1.3,0,2,0c1.6,0.1,3.2,0.2,4.8,0.4
			c0.6,0.1,1-0.1,1.3-0.2c0.3-0.3,0.5-0.6,0.6-1c0-0.2,0-0.4,0-0.6c0-0.1,0-0.1-0.2-0.2c-0.7-0.5-1.1-0.9-1.2-1.2
			c-0.1-0.5,0.8-0.2,1.9,0.5c0.8,0.5,1.6,1,2.3,1.4c1,0.6,2,1.2,3.1,1.8c0.7,0.5,1.4,1,1.5,1.3c0.2,0.5-0.3,0.5-1.3,0
			c-0.1-0.1-0.2-0.1-0.3-0.2c-0.1-0.1-0.1-0.1-0.1-0.1c-0.1,0.1-0.2,0.2-0.2,0.3c-0.1,0.3-0.3,0.6-0.4,0.9c-0.1,0.4,0,0.8,0.3,1.4
			c0.1,0.3,0.4,0.6,0.6,0.9c1.1,1.5,2.2,3,3.2,4.4c0.4,0.6,0.7,1.1,1,1.6C353.7,351.7,353.7,351.9,353.5,352z"/>
	</g>
	<g class="st28">
		<path class="st29" d="M73.9,153.1c-3.3,0.5-6.6,0.9-9.8,1.3c-1.1,0.2-2.3,0.3-3.5,0.5c-0.8,0.1-1.4,0.6-1.4,1c0,0.1,0,0.2,0.1,0.3
			c0.4,1.1,0.9,2.2,1.3,3.2c0.4,1.1,0.9,2.2,1.3,3.2c0,0.1,0.1,0.3,0.2,0.4c0.2,0.2,0.8,0.2,1.3-0.2c0.1-0.1,0.3-0.2,0.4-0.3
			c3.5-2.8,6.9-5.6,10.4-8.5C75.2,153.3,75.1,152.9,73.9,153.1z"/>
		<path class="st29" d="M99.2,158.8l-5.7-24.5c-0.2-1.1-1.6-1.7-3-1.4c-9.8,2.3-19.4,5.3-28.9,8.9c-9.5,3.6-18.7,7.9-27.6,12.7
			c-1.3,0.7-1.8,2.2-1.2,3.3l13.7,25c0.6,1.1,2,1.5,3,0.8c7.4-4.7,15.2-8.9,23.2-12.6s16.3-6.9,24.7-9.4
			C98.6,161.1,99.4,159.9,99.2,158.8z M71.2,165.9c-1.8,0.9-3.6,1.6-5.5,2.2c-5.2,1.7-9.8,2.2-13.7,1.5c-2.8-0.5-4.7-1.7-5.6-3.4
			c-0.5-0.8-0.7-1.7-0.7-2.7c0-2.5,1.5-5.2,4.3-8.2c2.5-2.5,5.5-4.8,9.3-6.7c0.4-0.2,0.7-0.4,1.1-0.6c1-0.4,1.9-0.9,2.9-1.3
			c0.1-0.1,0.2-0.1,0.3-0.1c0.7-0.3,1.5-0.6,2.2-0.8c5-1.6,9.5-2.1,13.2-1.5c2.7,0.5,4.6,1.4,5.7,3c0.1,0.3,0.3,0.5,0.5,0.7
			c0.1,0.3,0.2,0.5,0.3,0.8c0,0.1,0,0.2,0,0.3c0,0.5,0.2,1,0.1,1.5C85.7,155.4,79.9,161.7,71.2,165.9z"/>
	</g>
	<g class="st30">
		<path class="st18" d="M161.6,148.2c-1.4-1.1-2.7-2.1-4-3.1c-0.5-0.4-0.9-0.7-1.4-1.1c-0.3-0.3-0.7-0.4-0.8-0.3c0,0,0,0.1,0,0.1
			c-0.1,0.3-0.3,0.7-0.5,1s-0.3,0.7-0.5,1c0,0.1,0,0.1,0,0.1c0,0.1,0.2,0.3,0.5,0.4c0.1,0.1,0.1,0.1,0.2,0.1
			c2.1,0.7,4.2,1.4,6.4,2.1C162,148.7,162.1,148.6,161.6,148.2z"/>
		<path class="st18" d="M173,149.7c-2.2-1.4-4.4-2.7-6.7-4c-1.1-0.7-2.3-1.3-3.5-1.9l-3.5-1.8c-4.7-2.4-9.5-4.6-14.5-6.6
			c-0.7-0.3-1.4-0.2-1.5,0.2l-2.2,8.9c-0.1,0.4,0.4,0.9,1.1,1.1c4.8,1.6,9.4,3.4,13.9,5.4l3.4,1.6c1.1,0.5,2.2,1.1,3.4,1.6
			c2.2,1.1,4.4,2.3,6.6,3.4c0.6,0.3,1.2,0.4,1.4,0.1l3.1-6.7C174.1,150.7,173.7,150.1,173,149.7z M167.3,151.2
			c0,0.1-0.1,0.2-0.1,0.3c0,0,0,0.1-0.1,0.1c-0.1,0.1-0.2,0.2-0.4,0.3c-1.5,0.8-5.4-0.2-10-2.4c-0.9-0.5-1.8-1-2.7-1.5
			c-2.4-1.5-4.3-3-5.5-4.4c-0.9-1-1.2-1.9-1.1-2.5c0-0.3,0.2-0.5,0.5-0.7c0.8-0.4,2.1-0.4,4,0.1c1.7,0.4,3.5,1.1,5.4,2.1
			c0.2,0.1,0.4,0.2,0.6,0.3c0.5,0.3,1,0.5,1.5,0.8c0,0.1,0.1,0.1,0.1,0.1c0.3,0.2,0.7,0.4,1.1,0.6c2.3,1.4,4.1,2.8,5.3,4.2
			c0.9,1,1.3,1.8,1.2,2.4C167.3,151,167.3,151.1,167.3,151.2z"/>
	</g>
	<path class="st31" d="M191.8,79.6l-6.3-4.6l-6.4-4.4c-4.3-3-8.7-5.7-13.2-8.6c-9-5.4-18.1-10.7-27.6-15.4c-2-1-4-0.7-4.5,0.8
		l-7.7,20.9c-0.5,1.4,0.6,3.2,2.4,4.1c8.9,4,17.5,8.5,26,13.3c4.2,2.5,8.5,4.8,12.5,7.5l6.2,3.9l6,4.1c1.7,1.2,3.6,1.2,4.3,0
		l10.3-16.9C194.4,82.9,193.6,80.9,191.8,79.6z M162.3,83.8c-0.6,0.5-1.3,0.8-2,0.9c-1.9,0.2-3.7-0.3-5.4-1
		c-0.3-0.2-0.7-0.3-1.1-0.4c-0.9-0.5-1.7-1.1-2.6-1.6c-0.3-0.3-0.5-0.6-0.8-0.8c-1.5-1.3-2.8-2.6-3.5-4.5c-0.4-1-0.4-2,0.2-3
		c0.4-0.6,0.7-1.3,1.1-2c-0.1,2.4,1.1,3.9,2.4,5.3c2.5,2.5,5.4,4.2,8.8,4.9c1.1,0.2,2.3,0.3,3.4-0.2c0.3-0.2,0.7-0.4,1-0.6
		C163.5,81.8,162.9,82.8,162.3,83.8z M164.6,79.8c-1.5,1.2-3.2,1.1-4.8,0.7c-3.9-1-7.2-3-9.7-6.3c-0.6-0.8-1.1-1.7-1.2-2.8
		c0-0.6,0-1.2,0.3-1.7c0.4-0.8,0.9-1.5,1.3-2.3c-0.2,2.3,1,3.8,2.4,5.2c2.5,2.6,5.5,4.3,9,5c0.4,0.1,0.8,0.1,1.3,0.2
		c1.1,0.1,2.2-0.2,3.1-1C165.7,77.8,165.2,78.8,164.6,79.8z M166.9,75.7c-1.5,1.3-3.2,1.2-4.8,0.8c-3.9-1-7.2-3-9.7-6.4
		c-0.6-0.8-1.1-1.7-1.1-2.8c0-0.5,0.1-1.1,0.3-1.6c0.3-0.8,0.8-1.5,1.3-2.3c-0.2,2.3,1,3.8,2.3,5.2c2.6,2.8,5.7,4.5,9.5,5.1
		c0.4,0.1,0.8,0.1,1.3,0.1c1,0,1.9-0.3,2.7-1C168,73.8,167.5,74.8,166.9,75.7z M169.6,71c-0.1,0.3-0.3,0.6-0.5,0.8
		c-1.2,1-2.6,1.1-4,0.9c-4-0.7-7.3-2.7-10-5.8c-0.8-0.9-1.4-1.9-1.7-3.2c-0.2-1.4,0.2-2.3,1.5-2.8c0.5-0.2,1-0.3,1.5-0.3
		c2.4-0.1,4.6,0.8,6.7,1.9c1.5,0.7,2.7,1.8,3.8,3C168.5,66.9,169.9,68.5,169.6,71z"/>
</g>
<rect x="169.6" y="171" class="st32" width="54.7" height="100.8"/>
<g id="DRmZBn_1_">
	<g>
		<path class="st33" d="M187.4,182.4c1.3-1.1,2.9-1.8,4.5-2.3c6.4-1.8,11.9-0.3,16.5,4.5c2.7,2.8,4,6.3,4.1,10.1c0,0.2,0,0.3,0,0.5
			c-5.1,0-10.2,0-15.3,0c-0.4,0-0.6-0.1-0.9-0.5C193.4,190.6,190.4,186.5,187.4,182.4z"/>
		<path class="st34" d="M187.4,182.4c3,4.1,6,8.2,8.9,12.3c0.2,0.3,0.5,0.5,0.9,0.5c5.1,0,10.2,0,15.3,0c0,0,0,0,0,0
			c-0.2,0-0.4,0-0.6,0c-4.8,0-9.6,0-14.3,0c-0.2,0-0.5,0-0.7,0c-0.2-0.1-0.3,0.1-0.4,0.2c-0.9,0.7-1.9,1.4-2.8,2.1
			c-3.2,2.3-6.4,4.6-9.6,7c-0.6-0.5-0.9-1.3-1.3-2c-3.5-6.8-1.7-14.9,4.2-19.7C187,182.6,187.2,182.5,187.4,182.4z"/>
		<path class="st35" d="M183.9,204.4c3.2-2.3,6.4-4.6,9.6-7c0.9-0.7,1.9-1.4,2.8-2.1c0.1-0.1,0.2-0.2,0.4-0.2
			c0.1,0.1,0.1,0.2,0.2,0.3c3,4.1,6,8.3,9,12.4c-1.1,0.9-2.3,1.5-3.6,2c-3.9,1.4-7.7,1.4-11.6-0.1c-2.7-1.1-5-2.8-6.8-5.2
			C183.9,204.6,183.9,204.5,183.9,204.4z"/>
		<path class="st36" d="M205.9,208c-3-4.1-6-8.3-9-12.4c-0.1-0.1-0.1-0.2-0.2-0.3c0.2,0,0.5,0,0.7,0c4.8,0,9.6,0,14.3,0
			c0.2,0,0.4,0,0.6,0c0.1,1.4-0.1,2.7-0.5,4c-0.9,3.5-2.8,6.3-5.7,8.5C206.2,207.8,206.1,207.9,205.9,208z"/>
	</g>
</g>
<g>
	<g id="Yq99LM_1_">
		<g>
			<g>
				<path class="st37" d="M279.2,267.2c0-4.5,3.7-8.1,8.2-8.2c4.6-0.1,8.3,4,8.3,8.3c-0.1,4.5-3.8,8.2-8.3,8.1
					C282.9,275.4,279.2,271.6,279.2,267.2z"/>
			</g>
			<g>
				<path class="st38" d="M267.8,173.1c0-4.4,3.8-8.2,8.3-8.1c4.5,0,8.2,3.8,8.1,8.3c0,4.5-3.8,8.2-8.3,8.1
					C271.5,181.4,267.8,177.6,267.8,173.1z"/>
			</g>
			<g>
				<path class="st39" d="M305.8,224.6c-0.1-3.6,3.4-8.1,8.3-8c4.4,0.2,8.1,3.7,8.1,8.1c0,4.3-3.7,8-8.2,8
					C309.5,232.7,305.8,229.1,305.8,224.6z"/>
			</g>
			<g>
				<path class="st40" d="M269,237.4c-4.6,0-8.2-3.6-8.2-8.1c0-4.5,3.7-8,8.3-8c4.6,0,8.2,3.6,8.2,8.1
					C277.2,233.9,273.6,237.4,269,237.4z"/>
			</g>
			<g>
				<path class="st41" d="M236.5,208.6c0-4.5,3.5-8,8-8c4.5,0,8.1,3.5,8.1,7.9c0,4.6-3.5,8.1-8.1,8.1
					C240.1,216.7,236.5,213.1,236.5,208.6z"/>
			</g>
			<g>
				<path class="st36" d="M252.5,251.8c-0.1,0.8,0.7,1,1.1,1.5c3,2.9,3.4,7.3,0.9,10.6c-2.4,3.2-6.8,4.2-10.3,2.2
					c-3.7-2.1-5.2-6.4-3.5-10.2c1.6-3.7,5.8-5.5,9.7-4.4C251.1,251.7,251.7,252.3,252.5,251.8C252.5,251.9,252.5,251.8,252.5,251.8z
					"/>
			</g>
			<g>
				<path class="st40" d="M304.2,234.5c0.2-0.2,0.4-0.4,0.5-0.4c1.4-0.2,2.8-0.4,4.2-0.6c0,0,0-0.1,0-0.1c0.2,1.4,0.4,2.8,0.6,4.2
					c0,0.3,0,0.5,0.1,1C307.6,237.4,305.9,235.9,304.2,234.5z"/>
			</g>
			<g>
				<path class="st40" d="M285.5,253.8c0,1.7-0.7,3.1-1,4.5c-0.1,0.3-0.2,0.6-0.7,0.4c-1.4-0.5-2.9-0.6-4.4-1.5
					C281.5,256.1,283.4,255,285.5,253.8z"/>
			</g>
			<g>
				<path class="st40" d="M278,239.8c-2.3,1.3-4.2,2.3-6.2,3.5c-0.1-1.7,0.7-3,1-4.4c0.1-0.5,0.4-0.5,0.8-0.4
					C274.9,238.9,276.2,239.3,278,239.8z"/>
			</g>
			<g>
				<path class="st40" d="M253.5,218.7c-0.2-0.8-0.4-1.3-0.4-1.7c-0.6-3.4-0.1-4.1,3.4-4.3c0.2,0,0.6,0,0.7,0.2
					c0.2,0.3,0,0.6-0.2,0.9C255.9,215.3,254.8,216.9,253.5,218.7z"/>
			</g>
			<g>
				<path class="st40" d="M252.6,245.7c2.1,1.3,3.9,2.6,5.6,4.2c-1.4,0.7-2.9,0.5-4.2,0.9c-0.8,0.2-0.8-0.5-0.8-1
					C252.9,248.5,252.8,247.2,252.6,245.7z"/>
			</g>
			<g>
				<path class="st40" d="M308.5,211.3c0.1,6.2,1.2,5-4.9,4.9C304.9,214.3,306.6,213,308.5,211.3z"/>
			</g>
			<g>
				<path class="st40" d="M252.5,251.8C252.5,251.8,252.5,251.9,252.5,251.8c0.1-0.1,0.2-0.2,0.4-0.4c0,0.1,0,0.1-0.1,0.2
					C252.7,251.7,252.6,251.8,252.5,251.8z"/>
			</g>
		</g>
	</g>
	<g>
		
			<rect x="293" y="174.7" transform="matrix(0.8005 -0.5993 0.5993 0.8005 -59.2598 215.309)" class="st40" width="1.6" height="43.9"/>
	</g>
	<g>
		
			<rect x="284.7" y="247.1" transform="matrix(0.5524 -0.8336 0.8336 0.5524 -72.8287 360.2061)" class="st40" width="28.6" height="1.6"/>
	</g>
	<g>
		
			<rect x="277.5" y="239.7" transform="matrix(0.8784 -0.478 0.478 0.8784 -84.9711 163.2346)" class="st40" width="1.6" height="17.6"/>
	</g>
	<g>
		
			<rect x="259" y="213.5" transform="matrix(0.6397 -0.7686 0.7686 0.6397 -75.2381 278.8249)" class="st40" width="1.6" height="12.3"/>
	</g>
	<g>
		
			<rect x="251.1" y="240.6" transform="matrix(0.5944 -0.8042 0.8042 0.5944 -88.7594 306.7245)" class="st40" width="17.1" height="1.6"/>
	</g>
</g>
</svg>
