<?xml version="1.0" encoding="utf-8"?>
<!-- Generator: Adobe Illustrator 25.4.1, SVG Export Plug-In . SVG Version: 6.00 Build 0)  -->
<svg version="1.1" id="Layer_1" xmlns="http://www.w3.org/2000/svg" xmlns:xlink="http://www.w3.org/1999/xlink" x="0px" y="0px"
	 viewBox="0 0 100 155.7" style="enable-background:new 0 0 100 155.7;" xml:space="preserve">
<style type="text/css">
	.st0{fill:#A9F462;}
	.st1{fill:#FF8A66;}
	.st2{fill:#4B8EEF;}
	.st3{fill:#5252E2;}
	.st4{fill:#FF6666;}
	.st5{fill:#ECFF66;}
	.st6{fill:#FF66BA;}
	.st7{fill:#FFA539;}
	.st8{fill:#28DDC3;}
	.st9{fill:#9266FF;}
</style>
<g>
	<g>
		<path class="st0" d="M2.7,149.3c-0.2-0.2-1.8-1.4-2.7-3.1c0,3.8,0,5.8,0,9.5c0.6,0,3.7,0,3.7,0S2.9,151.9,2.7,149.3z"/>
		<path class="st1" d="M2.3,127.2c-0.6,0.1-1.1-1.1-2.3-2.3c0,8.5,0,12.8,0,21.3c0.9,1.7,2.5,2.9,2.7,3.1
			C2.6,143.2,1.9,137.7,2.3,127.2z"/>
		<path class="st2" d="M3.1,102.5c-0.9,1.3-1.6,0.9-3.1,1.2c0,8.5,0,12.8,0,21.3c1.2,1.2,1.7,2.4,2.3,2.3
			C2.7,116.8,2.9,110.8,3.1,102.5z"/>
		<path class="st3" d="M3.1,90.2c-1,0.4-1.7-0.4-3.1-0.9c0,5.8,0,8.7,0,14.4c1.4-0.3,2.2,0.1,3.1-1.2C3.2,96.9,3.3,95.1,3.1,90.2z"
			/>
		<path class="st4" d="M2.2,63.4C1.5,62.8,1,61.9,0,60.7c0,9.5,0,19,0,28.6c1.4,0.6,2.1,1.3,3.1,0.9C2.9,80.5,2.4,75.2,2.2,63.4z"/>
		<path class="st5" d="M2.1,56.4C1.4,55.9,1,55.1,0,54.1c0,2.7,0,4,0,6.6c1,1.2,1.5,2.1,2.2,2.7C2.1,60.7,2.1,59.3,2.1,56.4z"/>
		<path class="st6" d="M2.8,38.7c-1,0.2-1.6,0-2.8-0.2c0,6.2,0,9.3,0,15.6c1,1,1.4,1.9,2.1,2.3C2.1,49.7,2.2,46.2,2.8,38.7z"/>
		<path class="st7" d="M4.2,20.1c-1.6,3.2-2.5,4.5-4.2,7.4c0,4.4,0,6.6,0,11c1.2,0.2,1.8,0.4,2.8,0.2C3.2,33.4,3.9,26.9,4.2,20.1z"
			/>
		<path class="st8" d="M3.8,1.2C2.3,3.6,1.6,4.7,0,7c0,8.2,0,12.3,0,20.5c1.7-2.9,2.6-4.2,4.2-7.4C4.7,7.4,4.2,4,3.8,1.2z"/>
		<path class="st9" d="M3.7,0C2.2,0,1.5,0,0,0c0,2.8,0,4.2,0,7c1.6-2.3,2.3-3.4,3.8-5.8C3.7,0.2,3.7,0,3.7,0z"/>
	</g>
</g>
</svg>
