<?xml version="1.0" encoding="utf-8"?>
<!-- Generator: Adobe Illustrator 25.0.0, SVG Export Plug-In . SVG Version: 6.00 Build 0)  -->
<svg version="1.1" id="Layer_1" xmlns="http://www.w3.org/2000/svg" xmlns:xlink="http://www.w3.org/1999/xlink" x="0px" y="0px"
	 viewBox="0 0 1366 768" style="enable-background:new 0 0 1366 768;" xml:space="preserve">
<style type="text/css">
	.st0{fill:#A3E635;}
	.st1{fill:#06B6D4;}
	.st2{fill:#F87171;}
	.st3{fill:#C084FC;}
	.st4{fill:#FFD44D;}
	.st5{fill:#E8E8E8;}
</style>
<path class="st0" d="M279.8,463.1c1.9,1.8,3.9,3.5,5.9,5.3c2,1.7,4.1,3.3,6.1,4.9c4.1,3.2,8.3,6.2,12.5,9
	c8.5,5.6,17.2,10.4,26.2,14.3c9,4,18.1,7,27.3,8.8c9.2,1.9,18.6,2.6,27.9,1.9c9.3-0.7,18.5-2.9,27.4-6.5c4.4-1.9,8.8-4.1,13-6.7
	c1.1-0.6,2.1-1.3,3.2-2c0.6-0.3,1.1-0.7,1.5-1.1l1.5-1.1l1.5-1.1c0.5-0.4,1-0.8,1.5-1.2c1-0.8,2-1.5,3-2.4
	c16.3-13.3,32.7-26.7,49.4-39.2c16.7-12.5,33.9-24.2,51.6-34.1c17.8-9.8,36.2-17.7,55.1-22.7c18.9-4.9,38.4-6.6,57.7-4.4
	c4.8,0.5,9.6,1.3,14.4,2.3c4.8,1,9.6,2.3,14.3,3.7s9.5,3.2,14.1,5l3.5,1.4c1.2,0.5,2.3,1.1,3.5,1.5l1.7,0.8l1.7,0.8l3.4,1.7
	c3,1.5,4.6,6.1,3.5,10.3c-1.1,4.2-4.3,6.4-7.4,5c-0.1,0-0.1-0.1-0.1-0.1l-0.1-0.1l-3.3-1.7l-1.7-0.8l-1.7-0.8
	c-1.1-0.5-2.2-1.1-3.3-1.6l-3.3-1.5c-4.4-1.9-8.8-3.7-13.3-5.2c-4.5-1.5-9-2.9-13.5-3.9c-4.5-1.1-9.1-1.9-13.7-2.6
	c-18.4-2.5-36.9-1.5-55.2,2.7c-18.3,4.1-36.3,11.3-53.8,20.4c-17.5,9.1-34.6,20.1-51.4,32c-16.7,11.9-33.2,24.8-49.8,37.6
	c-1.1,0.8-2.1,1.6-3.2,2.4c-0.6,0.4-1.1,0.8-1.6,1.2l-1.7,1.1l-1.7,1.1c-0.6,0.4-1.1,0.7-1.7,1.1c-1.1,0.7-2.2,1.4-3.3,2
	c-4.5,2.6-9,4.8-13.7,6.6c-9.3,3.6-18.9,5.6-28.5,6c-9.6,0.4-19.2-0.6-28.6-2.8c-9.5-2.2-18.7-5.6-27.7-9.8
	c-9-4.3-17.8-9.5-26.4-15.3c-4.3-2.9-8.5-6.1-12.5-9.5c-2-1.7-4.1-3.4-6.1-5.1c-2-1.8-4-3.6-6-5.6c-0.4-0.4-0.6-1.3-0.2-1.9
	C278.7,462.9,279.3,462.8,279.8,463.1L279.8,463.1z"/>
<path class="st1" d="M278.7,502.5c6.7,3.7,13.6,7.1,20.5,10.4c7,3.3,13.9,6.4,21,9.4c14.2,6,28.5,11.3,43.1,15.9
	c14.6,4.6,29.4,8.5,44.3,11.3c7.5,1.4,14.9,2.5,22.4,3.3c7.5,0.8,15,1.2,22.5,1.3c3.8,0.1,7.5-0.1,11.2-0.3c3.7-0.2,7.4-0.5,11.1-1
	c3.6-0.4,7.3-1.1,10.9-1.7c3.6-0.8,7.1-1.5,10.6-2.6c0.9-0.3,1.7-0.5,2.7-0.8l2.7-0.8c1.8-0.6,3.6-1.2,5.4-1.7
	c1.8-0.6,3.6-1.2,5.4-1.8l5.4-1.8c7.2-2.5,14.4-5,21.6-7.7c28.8-10.6,57.5-21.9,86.8-32.2c29.3-10.4,59.1-19.8,89.8-27.1
	c30.7-7.2,62.2-12.3,94.3-13.4c32.1-1.2,64.7,1.4,96.5,8.8c1,0.2,2,0.4,3,0.7l3,0.7c2,0.5,4,0.9,5.9,1.5l5.9,1.7l1.5,0.4l1.4,0.4
	l2.9,0.9c7.8,2.4,15.5,5.1,23.2,8.1c15.2,6,30.1,12.9,44.3,20.9c10.4,5.7,14.2,18.8,8.4,29.2s-18.8,14.2-29.2,8.4
	c-0.3-0.2-0.7-0.4-0.9-0.6l-0.1-0.1c-12.3-7.7-25-14.6-38.1-20.6c-6.6-2.9-13.3-5.8-20.1-8.2l-2.5-0.9l-1.3-0.5l-1.3-0.4l-5.1-1.8
	c-1.7-0.6-3.4-1.1-5.2-1.7l-2.6-0.8c-0.9-0.3-1.7-0.6-2.6-0.8c-27.9-8.2-57-12.2-86.6-12.7c-29.5-0.6-59.4,2.5-89.1,7.8
	c-29.7,5.3-59.1,12.9-88.4,21.5c-29.4,8.6-58.5,18.3-88.2,27.3c-7.4,2.3-14.9,4.5-22.3,6.6l-5.6,1.5c-1.9,0.5-3.8,1-5.6,1.5
	c-1.9,0.5-3.8,1-5.7,1.5l-2.8,0.7c-0.9,0.2-2,0.4-2.9,0.7c-4,0.9-8,1.6-11.9,2.2c-4,0.6-8,1-12,1.2c-4,0.3-8,0.4-12,0.4
	c-4-0.1-8-0.1-11.9-0.4c-7.9-0.4-15.8-1.4-23.5-2.7c-7.8-1.3-15.5-2.8-23.1-4.7c-15.2-3.7-30.1-8.5-44.6-14
	c-14.5-5.5-28.7-11.7-42.7-18.5c-7-3.4-13.8-7-20.6-10.7c-6.8-3.7-13.5-7.5-20.1-11.6c-0.5-0.3-0.7-1-0.3-1.5
	C277.5,502.3,278.2,502.2,278.7,502.5L278.7,502.5z"/>
<path class="st2" d="M273.6,505.2c1.1,3.1,2.4,6.2,3.8,9.2s2.7,5.9,4.2,8.9c2.9,5.8,6,11.4,9.2,16.7c6.5,10.7,13.6,20.7,21.3,29.8
	c7.7,9.1,15.9,17.4,24.5,24.9c4.3,3.7,8.7,7.2,13.3,10.5c4.5,3.3,9.2,6.3,13.9,9.2c9.4,5.7,19.2,10.5,29.2,14.4
	c10,3.8,20.3,6.9,30.9,9.1c21,4.3,42.7,5.4,64.6,3.6l8.2-0.8l8.2-1.1l8.3-1.3l8.4-1.4c11.3-1.7,22.5-3.2,33.8-4.1
	c11.3-1,22.6-1.3,33.8-0.9s22.4,1.6,33.4,3.8c11,2.3,21.8,5.8,32.2,10.6c10.4,4.7,20.4,11,29.7,18.5c9.4,7.5,18,16.3,26,25.9
	c8,9.7,15.3,20.2,22.1,31.4c3.4,5.6,2.4,14.7-2.3,20.3c-4.7,5.7-11.2,5.7-14.6,0.2c-0.1-0.1-0.1-0.2-0.2-0.3l0-0.1
	c-6-10.8-12.5-21-19.5-30.3c-7-9.3-14.6-17.7-22.8-25c-8.2-7.3-17-13.4-26.4-18.3c-9.3-4.9-19.2-8.6-29.3-11.3
	c-20.3-5.3-41.9-6.6-63.7-6c-10.9,0.4-21.9,1.2-33,2.4l-8.3,0.9l-8.5,0.9l-8.5,0.6l-8.4,0.4c-22.5,0.7-44.7-1.5-66-7.1
	c-10.7-2.8-21.1-6.5-31.2-11.1c-10.1-4.6-20-10-29.4-16.4c-4.7-3.2-9.3-6.5-13.8-10.1c-4.5-3.6-8.9-7.4-13.2-11.5
	c-8.5-8.1-16.6-17-24.1-26.7c-7.5-9.7-14.4-20.2-20.6-31.4c-3.1-5.7-6.1-11.5-8.8-17.4c-1.4-3-2.7-6-3.9-9.2
	c-1.3-3.1-2.5-6.3-3.5-9.6c-0.1-0.4,0-1,0.3-1.2C273,504.7,273.4,504.8,273.6,505.2L273.6,505.2z"/>
<path class="st3" d="M260.5,437.5c5.1-6,10.4-11.7,15.8-17.2c5.5-5.6,11.1-11,16.8-16.3c11.5-10.4,23.7-20.3,36.4-29
	c6.4-4.4,12.9-8.5,19.5-12.3c6.7-3.8,13.5-7.2,20.4-10.2l2.6-1.1c0.9-0.4,1.7-0.8,2.6-1.1l5.3-2l5.3-1.8c0.9-0.3,1.8-0.6,2.8-0.9
	l2.8-0.9c1.8-0.5,3.7-1.1,5.6-1.6l5.6-1.6c3.7-1.1,7.5-2,11.2-2.9c14.9-3.7,30.1-6.6,45.3-8.9c7.6-1.1,15.2-2.1,22.9-3
	c3.9-0.4,7.7-0.8,11.5-1.2c3.8-0.4,7.6-0.8,11.6-1.1c30.8-2.6,61.9-3.4,93.3-4.4c31.4-1.1,63.3-2.4,95.8-7
	c8.1-1.1,16.2-2.6,24.4-4.2s16.3-3.7,24.4-6c8.1-2.4,16.2-5,24.2-8.2c2-0.7,4-1.6,6-2.4l3-1.2l2.9-1.3c2-0.9,3.9-1.8,5.9-2.7
	l5.8-2.9c7.7-4,15.4-8.3,22.7-13.1l2.7-1.7l2.7-1.9l5.4-3.8l5.2-4c0.9-0.7,1.7-1.3,2.6-2l2.6-2.1c1.7-1.4,3.4-2.8,5.1-4.2l4.9-4.4
	c0.8-0.7,1.6-1.5,2.4-2.2l2.3-2.3l4.7-4.5l4.5-4.7l2.3-2.4c0.8-0.8,1.5-1.6,2.2-2.5l4.3-4.9c0.8-0.8,1.4-1.7,2.1-2.5l2.1-2.5
	c11-13.4,20.8-27.6,29.4-42.2s16.3-29.7,23.1-44.9l0-0.1c7.1-15.9,0-34.4-15.9-41.4c-15.9-6.9-34.6,0.3-41.8,16.2
	c-0.3,0.8-0.7,1.6-0.9,2.4c-4.9,13.8-10.4,27.2-16.7,40.1c-6.3,12.8-13.4,25.2-21.4,36.7l-1.5,2.1c-0.5,0.7-1,1.4-1.5,2.1l-3.2,4.2
	c-0.5,0.7-1,1.4-1.6,2.1l-1.6,2l-3.3,4.1l-3.5,3.9l-1.7,1.9c-0.6,0.7-1.2,1.3-1.8,1.9l-3.6,3.8c-1.2,1.2-2.4,2.4-3.7,3.6l-1.8,1.8
	c-0.6,0.6-1.3,1.1-1.9,1.8l-3.9,3.5l-4,3.3l-2,1.7l-2.1,1.6c-5.4,4.3-11.2,8.2-17.2,11.9l-4.5,2.7c-1.5,0.9-3.1,1.7-4.6,2.6
	l-2.3,1.3l-2.4,1.2c-1.6,0.8-3.1,1.6-4.7,2.4c-6.4,3.1-13.1,5.9-19.8,8.5c-6.8,2.5-13.7,4.9-20.8,6.9c-7.1,2-14.2,3.9-21.6,5.5
	c-29.3,6.7-59.9,10.4-91,14c-31.1,3.6-62.6,6.9-94,12.1c-3.9,0.6-7.9,1.3-11.7,2c-3.9,0.7-7.9,1.5-11.7,2.2
	c-7.8,1.6-15.6,3.2-23.4,5c-15.5,3.7-31,7.9-46.2,13c-3.8,1.3-7.6,2.5-11.3,4l-5.6,2.1c-1.9,0.7-3.8,1.5-5.6,2.2l-2.8,1.1
	c-0.9,0.4-1.9,0.7-2.8,1.1l-5.7,2.5l-5.5,2.6c-0.9,0.4-1.9,0.9-2.7,1.4l-2.7,1.4c-7.1,3.8-14.1,8.1-20.7,12.6s-13,9.4-19.3,14.4
	c-12.4,10.1-23.9,21-34.7,32.6c-5.4,5.8-10.6,11.7-15.7,17.7c-5,6.1-9.9,12.2-14.6,18.7c-0.3,0.5-0.2,1.2,0.3,1.5
	C259.5,438.1,260.2,437.9,260.5,437.5L260.5,437.5z"/>
<path class="st4" d="M223.3,421.9c1.9-1.4,3.8-2.9,5.6-4.5c1.8-1.5,3.5-3.1,5.3-4.7c3.4-3.2,6.7-6.5,9.8-9.9
	c6.2-6.8,11.8-14,16.8-21.4c5-7.5,9.4-15.2,13.1-23.1c1.9-4,3.6-7.9,5.1-12c1.6-4,2.9-8.1,4.2-12.3c2.5-8.2,4.3-16.6,5.6-25
	c1.2-8.4,1.8-16.9,1.8-25.4c0-17-2.3-33.9-6.4-50.5l-1.7-6.2l-1.8-6.2l-2-6.2l-2.1-6.3c-2.7-8.4-5.2-16.9-7.3-25.4
	c-2.2-8.5-4-17.2-5.2-26c-1.3-8.8-2-17.6-2-26.5c0-8.9,0.8-17.8,2.6-26.7c1.7-8.9,4.5-17.6,8.2-26.1s8.3-16.6,13.6-24.4
	c5.3-7.8,11.3-15.2,17.7-22.3c3.2-3.5,9.4-4.3,13.7-1.6c4.4,2.7,5.3,7.7,2.1,11.3c-0.1,0.1-0.1,0.1-0.2,0.2l0,0
	c-6.3,6.5-12.1,13.2-17.3,20.1c-5.2,7-9.7,14.3-13.4,21.8s-6.6,15.4-8.5,23.5c-2,8-3.1,16.3-3.5,24.6c-0.7,16.6,1.3,33.5,4.7,50.3
	c1.7,8.4,3.8,16.7,6,25.1l1.7,6.3l1.7,6.4l1.6,6.4l1.4,6.5c3.5,17.3,5.1,34.8,4.3,52.2c-0.4,8.7-1.4,17.4-3.1,26
	c-1.7,8.6-3.9,17.1-6.8,25.5c-1.4,4.2-3.1,8.3-4.8,12.4c-1.8,4.1-3.7,8.1-5.8,12.1c-4.2,7.9-9,15.7-14.4,23.1
	c-5.4,7.4-11.4,14.5-18,21.2c-3.3,3.4-6.7,6.6-10.3,9.7c-1.8,1.6-3.6,3.1-5.5,4.6c-1.9,1.5-3.8,3-5.9,4.3c-0.2,0.2-0.6,0.2-0.8-0.1
	C223,422.4,223,422.1,223.3,421.9L223.3,421.9z"/>
<path class="st5" d="M297,490c0-39.7-32.3-72-72-72c-39.7,0-72,32.3-72,72c0,39.7,32.3,72,72,72c1.9,0,3.8-0.1,5.7-0.2l21,61.1
	l29.3-10.1l-20.7-60.1C282.2,540.3,297,516.9,297,490z M179.7,490c0-25,20.3-45.2,45.2-45.2c25,0,45.2,20.3,45.2,45.2
	c0,25-20.3,45.2-45.2,45.2C200,535.2,179.7,515,179.7,490z"/>
</svg>
