<?xml version="1.0" encoding="utf-8"?>
<!-- Generator: Adobe Illustrator 25.0.0, SVG Export Plug-In . SVG Version: 6.00 Build 0)  -->
<svg version="1.1" id="Layer_1" xmlns="http://www.w3.org/2000/svg" xmlns:xlink="http://www.w3.org/1999/xlink" x="0px" y="0px"
	 viewBox="0 0 1366 768" style="enable-background:new 0 0 1366 768;" xml:space="preserve">
<style type="text/css">
	.st0{fill:#A3E635;}
	.st1{fill:#06B6D4;}
	.st2{fill:#F87171;}
	.st3{fill:#C084FC;}
</style>
<path class="st0" d="M3,547.3c3.4,3.3,7.1,6.4,10.7,9.5c3.6,3,7.4,6,11,8.9c7.4,5.7,15,11.2,22.7,16.2
	c15.4,10.1,31.2,18.8,47.4,25.9c16.2,7.2,32.7,12.6,49.4,16s33.6,4.7,50.4,3.5s33.4-5.2,49.5-11.8c8-3.4,15.9-7.4,23.5-12.1
	c1.9-1.1,3.8-2.4,5.7-3.6c1-0.6,1.9-1.3,2.8-1.9l2.8-2l2.8-2c0.9-0.7,1.8-1.4,2.7-2.1c1.8-1.4,3.6-2.8,5.5-4.4
	c29.5-24.1,59.1-48.3,89.3-71c30.3-22.6,61.3-43.8,93.4-61.6c32.2-17.7,65.5-32.1,99.7-41c34.2-8.9,69.4-11.9,104.4-8
	c8.7,0.9,17.4,2.4,26.1,4.2c8.7,1.8,17.3,4.1,25.9,6.7c8.6,2.6,17.1,5.7,25.5,9.1l6.3,2.6c2.1,0.9,4.2,1.9,6.3,2.8l3.1,1.4l3.1,1.5
	l6.2,3c5.4,2.7,8.3,11,6.4,18.6c-1.9,7.6-7.8,11.6-13.3,9c-0.1,0-0.1-0.1-0.2-0.1l-0.2-0.2l-5.9-3l-3-1.5l-3-1.4
	c-2-0.9-3.9-1.9-5.9-2.9l-5.9-2.7c-8-3.5-15.9-6.7-24.1-9.4c-8.1-2.7-16.2-5.2-24.4-7.1c-8.2-1.9-16.5-3.5-24.7-4.7
	c-33.2-4.6-66.8-2.8-99.9,4.8c-33.1,7.5-65.7,20.4-97.4,36.9c-31.7,16.5-62.6,36.4-92.9,57.9c-30.3,21.5-60.1,44.9-90.1,68.1
	c-1.9,1.4-3.8,2.9-5.7,4.3c-1,0.7-1.9,1.4-2.9,2.1l-3,2l-3,2c-1,0.7-2,1.3-3,1.9c-2,1.3-4,2.5-6,3.6c-8.1,4.7-16.3,8.7-24.8,11.9
	c-16.8,6.5-34.2,10.1-51.6,10.8c-17.4,0.8-34.7-1.1-51.8-5.1c-17.1-4-33.8-10.1-50.1-17.7c-16.3-7.7-32.2-17.1-47.7-27.7
	c-7.7-5.3-15.3-11-22.7-17.1c-3.7-3-7.4-6.1-11-9.3s-7.2-6.5-10.8-10.1c-0.8-0.8-1-2.4-0.4-3.5C1.1,546.8,2.1,546.6,3,547.3L3,547.3
	z"/>
<path class="st1" d="M1,577.7c12.1,6.7,24.6,12.9,37.1,18.8c12.6,6,25.2,11.6,38,17c25.6,10.8,51.6,20.5,77.9,28.8
	c26.4,8.3,53.1,15.3,80.1,20.4c13.5,2.5,27,4.5,40.6,6c13.6,1.4,27.1,2.2,40.7,2.3c6.8,0.1,13.5-0.2,20.2-0.5
	c6.7-0.4,13.4-0.9,20-1.8c6.6-0.8,13.2-1.9,19.7-3.1c6.5-1.4,12.9-2.8,19.2-4.7c1.6-0.5,3.1-0.9,4.8-1.4l4.9-1.5
	c3.3-1,6.6-2.1,9.8-3.1c3.3-1.1,6.5-2.1,9.8-3.2l9.8-3.3c13.1-4.5,26.1-9.1,39.1-13.9c52.1-19.1,104-39.6,157-58.3
	c53-18.8,106.9-35.9,162.4-49.1c55.5-13.1,112.5-22.2,170.6-24.3c58-2.2,117,2.6,174.5,16c1.8,0.4,3.6,0.8,5.4,1.3l5.4,1.3
	c3.6,0.9,7.2,1.7,10.7,2.8l10.7,3l2.7,0.7l2.6,0.8l5.3,1.6c14.2,4.3,28.1,9.3,41.9,14.6c27.5,10.8,54.4,23.4,80.2,37.8
	c18.8,10.4,25.6,34,15.2,52.8s-34,25.6-52.8,15.2c-0.6-0.3-1.2-0.7-1.7-1l-0.1-0.1c-22.2-13.9-45.2-26.4-69-37.3
	c-11.9-5.3-24-10.5-36.3-14.9l-4.6-1.7l-2.3-0.9l-2.3-0.8l-9.3-3.2c-3.1-1.1-6.2-2-9.4-3l-4.7-1.5c-1.6-0.5-3.1-1-4.7-1.4
	c-50.4-14.8-103.2-22.1-156.6-23c-53.4-1-107.4,4.5-161.1,14.1c-53.7,9.6-107,23.3-160,38.9c-53.1,15.5-105.9,33.1-159.6,49.4
	c-13.4,4.1-26.9,8.1-40.4,11.9l-10.2,2.8c-3.4,0.9-6.8,1.8-10.2,2.7c-3.4,0.9-6.8,1.8-10.3,2.7l-5.1,1.3c-1.7,0.4-3.6,0.8-5.3,1.3
	c-7.2,1.7-14.4,2.9-21.6,4c-7.2,1-14.5,1.8-21.7,2.2c-7.2,0.5-14.5,0.7-21.7,0.7c-7.2-0.1-14.4-0.2-21.6-0.7
	c-14.3-0.8-28.5-2.5-42.6-4.8s-28-5.1-41.7-8.5c-27.5-6.7-54.4-15.4-80.7-25.3c-26.3-10-52-21.2-77.2-33.5
	c-12.6-6.1-25-12.6-37.3-19.3s-24.4-13.6-36.3-21c-0.9-0.6-1.2-1.8-0.6-2.8C-1.1,577.5,0.1,577.2,1,577.7L1,577.7z"/>
<path class="st2" d="M0.9,540.8c4,4.7,8.4,9.2,12.8,13.6c4.4,4.4,8.8,8.6,13.5,12.8c9.1,8.3,18.6,16.2,28.3,23.6
	c19.4,14.9,39.7,28.4,60.8,40.2c21.1,11.9,42.8,22.2,65.1,30.9c11.1,4.4,22.3,8.3,33.7,11.9c11.3,3.6,22.8,6.7,34.3,9.5
	c23,5.6,46.3,9.5,69.7,12c23.4,2.3,46.9,3.2,70.5,2.7c47-1.2,93.8-8.1,139.5-19.7l17.1-4.6l17-5l17-5.4l17.3-5.6
	c23.1-7.3,46.4-14.1,69.9-20.1s47.4-11.1,71.6-14.9c24.2-3.8,48.6-6.3,73.2-7c24.6-0.6,49.5,0.8,74.2,4.5
	c24.7,3.6,49.1,10,72.9,18.5s46.8,19.5,68.8,32.1c22.1,12.7,43.1,27,63.3,42.5c10.1,7.8,12.6,23,5.6,34.1
	c-7.1,11.1-21,13.8-31.1,6.1c-0.2-0.2-0.4-0.3-0.5-0.5l-0.1-0.1c-18.4-15.2-37.5-29.3-57.2-41.7c-19.8-12.4-40.3-23.2-61.6-31.8
	c-21.3-8.6-43.2-15.2-65.7-19.4c-22.4-4.3-45.3-6.5-68.4-6.9c-46.1-0.6-92.7,5.7-138.9,15.4c-23.1,4.9-46.1,10.6-69.1,16.9
	l-17.2,4.8l-17.6,4.8l-17.7,4.4l-17.8,4c-47.6,10-96,15.2-144.4,14.5c-24.2-0.4-48.3-2.3-72.3-5.7c-24-3.5-47.8-8.4-71.1-15.1
	c-11.7-3.3-23.2-7-34.7-11.1c-11.5-4.1-22.8-8.6-34-13.5c-22.3-9.8-44.1-21.2-65.1-34.1c-21-12.9-41.1-27.3-60.2-43.2
	c-9.6-8-18.9-16.3-27.8-25c-4.5-4.4-8.8-8.8-13.1-13.4c-4.3-4.6-8.5-9.3-12.5-14.3c-0.5-0.6-0.5-1.6,0.1-2.1
	C-0.5,540.1,0.3,540.1,0.9,540.8L0.9,540.8z"/>
<path class="st3" d="M3.7,539.3c10.1-9.9,20.7-19.3,31.4-28.4c10.8-9.1,21.8-17.9,33-26.5c22.5-16.9,46-32.6,70.3-46.2
	c12.2-6.8,24.6-13.2,37.2-18.9c12.7-5.7,25.5-10.8,38.5-15l4.9-1.6c1.6-0.5,3.2-1.1,4.9-1.5l9.8-2.7l9.9-2.3
	c1.6-0.4,3.4-0.7,5.1-1.1l5.1-1.1c3.4-0.6,6.8-1.4,10.3-2l10.3-1.9c6.9-1.3,13.8-2.3,20.6-3.3c27.5-4.2,55.3-6.9,83.1-8.5
	c13.9-0.8,27.8-1.3,41.8-1.7c7,0,14-0.2,21-0.3s13.9-0.1,21,0c55.9,0.4,112,4.2,168.8,7.5c56.8,3.2,114.5,6.2,173.8,3.2
	c14.8-0.7,29.7-2,44.7-3.6c15-1.6,30-3.9,45-6.7c15-2.9,30.1-6.4,45-10.7c3.7-1,7.4-2.2,11.2-3.4l5.6-1.7l5.5-1.9
	c3.7-1.3,7.4-2.5,11.1-3.9l11-4.2c14.6-5.9,29.1-12.4,43.1-19.8l5.2-2.7l5.2-2.9l10.3-5.9l10.1-6.3c1.7-1.1,3.3-2.1,5-3.2l5-3.4
	c3.3-2.2,6.6-4.4,9.8-6.7l9.5-7.1c1.5-1.2,3.2-2.4,4.7-3.6l4.6-3.7l9.3-7.4l8.9-7.7l4.5-3.9c1.5-1.3,2.9-2.7,4.3-4.1l8.6-8.1
	c1.5-1.3,2.8-2.8,4.2-4.1l4.2-4.2c22.1-22.3,42-46.2,60-71.1c18-24.9,34.2-50.8,49-77l0.1-0.1c15.4-27.5,5.7-62-21.8-77.2
	c-27.5-15.1-62.4-5.2-77.9,22.2c-0.7,1.3-1.5,2.8-2.1,4.2c-11.1,24-23.2,47.2-36.7,69.5c-13.4,22.1-28.3,43.2-44.6,62.6l-3.1,3.6
	c-1,1.2-2,2.4-3.1,3.6l-6.4,7c-1,1.1-2.1,2.3-3.2,3.5l-3.3,3.4l-6.6,6.8l-6.9,6.5l-3.4,3.2c-1.2,1.1-2.3,2.1-3.6,3.1l-7.1,6.3
	c-2.4,2-4.8,4-7.3,5.9l-3.6,3c-1.2,1-2.5,1.8-3.8,2.9l-7.6,5.6l-7.7,5.3l-3.8,2.7l-4,2.5c-10.5,6.9-21.6,12.9-32.9,18.6l-8.6,4.1
	c-2.9,1.4-5.9,2.6-8.8,3.9l-4.4,1.9l-4.5,1.8c-3,1.2-5.9,2.4-8.9,3.5c-12.1,4.5-24.5,8.4-37,12c-12.7,3.4-25.5,6.5-38.6,9
	c-13.1,2.4-26.3,4.7-39.9,6.4c-53.8,7.2-109.7,8.9-166.2,10.2c-56.6,1.3-113.9,2.1-171.4,6.2c-7.2,0.5-14.4,1.1-21.5,1.7
	c-7.2,0.6-14.4,1.4-21.5,2c-14.4,1.6-28.7,3.1-43,5.2c-28.6,4.1-57.2,9.1-85.4,15.8c-7,1.7-14.1,3.3-21.1,5.3l-10.5,2.8
	c-3.5,1-7,2-10.5,3l-5.2,1.5c-1.7,0.5-3.5,1-5.2,1.5l-10.6,3.5l-10.4,3.8c-1.7,0.6-3.5,1.3-5.1,2l-5.1,2.1
	c-13.5,5.7-26.7,12.2-39.4,19.2c-12.7,7-25,14.7-37.1,22.7c-24,16.1-46.6,33.9-67.9,52.9c-10.7,9.5-21.1,19.3-31.2,29.3
	c-10.1,10.1-19.9,20.3-29.3,31.2c-0.7,0.9-0.6,2.1,0.3,2.8C1.8,540.2,3,540.1,3.7,539.3L3.7,539.3z"/>
</svg>
