<?xml version="1.0" encoding="utf-8"?>
<!-- Generator: Adobe Illustrator 25.0.0, SVG Export Plug-In . SVG Version: 6.00 Build 0)  -->
<svg version="1.1" id="Layer_1" xmlns="http://www.w3.org/2000/svg" xmlns:xlink="http://www.w3.org/1999/xlink" x="0px" y="0px"
	 viewBox="0 0 1220.9 768" style="enable-background:new 0 0 1220.9 768;" xml:space="preserve">
<style type="text/css">
	.st0{fill:#FFC655;}
	.st1{fill:#C084FC;}
	.st2{fill:#F87171;}
	.st3{fill:#F772B5;}
	.st4{fill:#A3E635;}
	.st5{fill:#06B6D4;}
	.st6{fill:#FFFFFF;}
</style>
<path class="st0" d="M1119.1,717.3H786.4c-16.4,0-29.7-13.3-29.7-29.7V486.4c0-16.4,13.3-29.7,29.7-29.7h332.7
	c16.4,0,29.7,13.3,29.7,29.7v201.1C1148.9,704,1135.6,717.3,1119.1,717.3z"/>
<path class="st1" d="M401.5,456.7H68.8c-16.4,0-29.7-13.3-29.7-29.7V225.8c0-16.4,13.3-29.7,29.7-29.7h332.7
	c16.4,0,29.7,13.3,29.7,29.7v201.1C431.3,443.4,417.9,456.7,401.5,456.7z"/>
<path class="st2" d="M339.5,689.9H146c-16.4,0-29.7-13.3-29.7-29.7V551.6c0-16.4,13.3-29.7,29.7-29.7h193.5
	c16.4,0,29.7,13.3,29.7,29.7v108.6C369.2,676.6,355.9,689.9,339.5,689.9z"/>
<path class="st3" d="M627.2,699.5H490.6c-16.4,0-29.7-13.3-29.7-29.7V599c0-16.4,13.3-29.7,29.7-29.7h136.6
	c16.4,0,29.7,13.3,29.7,29.7v70.8C657,686.2,643.7,699.5,627.2,699.5z"/>
<path class="st4" d="M1076.5,311.8H829c-16.4,0-29.7-13.3-29.7-29.7V137.6c0-16.4,13.3-29.7,29.7-29.7h247.5
	c16.4,0,29.7,13.3,29.7,29.7v144.5C1106.3,298.5,1093,311.8,1076.5,311.8z"/>
<path class="st5" d="M638.8,180.6H479.1c-16.4,0-29.7-13.3-29.7-29.7V64.8c0-16.4,13.3-29.7,29.7-29.7h159.6
	c16.4,0,29.7,13.3,29.7,29.7v86.1C668.5,167.3,655.2,180.6,638.8,180.6z"/>
<polygon class="st6" points="734.8,336.2 660.9,336.2 660.9,259.7 565.3,259.7 565.3,336.2 486.1,336.2 486.1,431.8 565.3,431.8 
	565.3,508.3 660.9,508.3 660.9,431.8 734.8,431.8 "/>
</svg>
