<?xml version="1.0" encoding="utf-8"?>
<!-- Generator: Adobe Illustrator 25.0.0, SVG Export Plug-In . SVG Version: 6.00 Build 0)  -->
<svg version="1.1" id="Layer_1" xmlns="http://www.w3.org/2000/svg" xmlns:xlink="http://www.w3.org/1999/xlink" x="0px" y="0px"
	 viewBox="0 0 904.5 567.8" style="enable-background:new 0 0 904.5 567.8;" xml:space="preserve">
<style type="text/css">
	.st0{fill:#2E3192;}
	.st1{enable-background:new    ;}
	.st2{clip-path:url(#SVGID_2_);enable-background:new    ;}
	.st3{fill:#858585;}
	.st4{clip-path:url(#SVGID_4_);enable-background:new    ;}
	.st5{fill:#9E9E9E;}
	.st6{fill:#999999;}
	.st7{fill:#949494;}
	.st8{fill:#8F8F8F;}
	.st9{fill:#8A8A8A;}
	.st10{clip-path:url(#SVGID_6_);enable-background:new    ;}
	.st11{fill:#818181;}
	.st12{fill:#A6A6A6;}
	.st13{clip-path:url(#SVGID_8_);enable-background:new    ;}
	.st14{fill:#808080;}
	.st15{clip-path:url(#SVGID_10_);enable-background:new    ;}
	.st16{clip-path:url(#SVGID_12_);enable-background:new    ;}
	.st17{clip-path:url(#SVGID_14_);enable-background:new    ;}
	.st18{clip-path:url(#SVGID_18_);enable-background:new    ;}
	.st19{clip-path:url(#SVGID_20_);enable-background:new    ;}
	.st20{fill:#E7E7E7;}
	.st21{clip-path:url(#SVGID_22_);enable-background:new    ;}
	.st22{clip-path:url(#SVGID_24_);enable-background:new    ;}
	.st23{clip-path:url(#SVGID_26_);enable-background:new    ;}
	.st24{fill:url(#SVGID_27_);}
	.st25{clip-path:url(#SVGID_29_);enable-background:new    ;}
	.st26{fill:#8C9123;}
	.st27{clip-path:url(#SVGID_31_);enable-background:new    ;}
	.st28{fill:#797E1F;}
	.st29{fill:#939925;}
	.st30{fill:#757A1E;}
	.st31{fill:#D5DD36;}
	.st32{clip-path:url(#SVGID_33_);enable-background:new    ;}
	.st33{fill:#7E8320;}
	.st34{fill:#828821;}
	.st35{fill:#878C22;}
	.st36{clip-path:url(#SVGID_35_);enable-background:new    ;}
	.st37{fill:#196788;}
	.st38{clip-path:url(#SVGID_37_);enable-background:new    ;}
	.st39{fill:#155976;}
	.st40{fill:#1A6C8F;}
	.st41{fill:#155672;}
	.st42{fill:#259CCF;}
	.st43{clip-path:url(#SVGID_39_);enable-background:new    ;}
	.st44{fill:#165C7A;}
	.st45{fill:#17607F;}
	.st46{fill:#186383;}
	.st47{clip-path:url(#SVGID_41_);enable-background:new    ;}
	.st48{fill:#8F3567;}
	.st49{clip-path:url(#SVGID_43_);enable-background:new    ;}
	.st50{fill:#7C2E59;}
	.st51{fill:#97386D;}
	.st52{fill:#782D56;}
	.st53{fill:#DA519D;}
	.st54{clip-path:url(#SVGID_45_);enable-background:new    ;}
	.st55{fill:#81305D;}
	.st56{fill:#863260;}
	.st57{fill:#8B3464;}
	.st58{clip-path:url(#SVGID_47_);enable-background:new    ;}
	.st59{fill:#232B57;}
	.st60{clip-path:url(#SVGID_49_);enable-background:new    ;}
	.st61{fill:#1E254B;}
	.st62{fill:#252D5C;}
	.st63{fill:#1D2449;}
	.st64{fill:#354185;}
	.st65{clip-path:url(#SVGID_51_);enable-background:new    ;}
	.st66{fill:#1F264E;}
	.st67{fill:#202851;}
	.st68{fill:#222954;}
</style>
<path class="st0" d="M873.7,289.9c-21.2,143.3-347.7,275.4-542,261.7C113.5,536.1,80.9,440.3,80.9,289.9S258.4,17.4,477.3,17.4
	S895.8,140.7,873.7,289.9z"/>
<g>
	<g>
		<g class="st1">
			<g class="st1">
				<defs>
					<path id="SVGID_1_" class="st1" d="M526.1,432l-22.8-12.4c-0.1-0.1-0.3-0.2-0.4-0.3l22.8,12.4
						C525.8,431.8,525.9,431.9,526.1,432z"/>
				</defs>
				<clipPath id="SVGID_2_">
					<use xlink:href="#SVGID_1_"  style="overflow:visible;"/>
				</clipPath>
				<g class="st2">
					<path class="st3" d="M526.1,432l-22.8-12.4c-0.1-0.1-0.3-0.2-0.4-0.3l22.8,12.4C525.8,431.8,525.9,431.9,526.1,432"/>
				</g>
			</g>
			<g class="st1">
				<defs>
					<path id="SVGID_3_" class="st1" d="M549.7,186.8l22.8,12.4c23.5,12.8,39,38.9,38.9,71.1c-0.1,50.2-37.8,95.9-84.1,102.4
						l-22.8-12.4c46.3-6.5,84-52.3,84.1-102.4C588.7,225.8,573.1,199.6,549.7,186.8z"/>
				</defs>
				<clipPath id="SVGID_4_">
					<use xlink:href="#SVGID_3_"  style="overflow:visible;"/>
				</clipPath>
				<g class="st4">
					<path class="st5" d="M527.3,372.8l-22.8-12.4c4-0.6,8-1.4,11.9-2.6l22.8,12.4C535.3,371.3,531.3,372.2,527.3,372.8"/>
					<path class="st6" d="M539.2,370.2l-22.8-12.4c7-2.1,13.8-5,20.1-8.8l22.8,12.4C552.9,365.2,546.2,368.1,539.2,370.2"/>
					<path class="st7" d="M559.3,361.5l-22.8-12.4c5-2.9,9.8-6.3,14.3-10.2l22.8,12.4C569.1,355.1,564.3,358.5,559.3,361.5"/>
					<path class="st8" d="M573.6,351.3l-22.8-12.4c4.4-3.7,8.4-7.8,12.2-12.3l22.8,12.4C582,343.5,577.9,347.6,573.6,351.3"/>
					<path class="st9" d="M585.7,339l-22.8-12.4c4.2-5,8-10.4,11.3-16.1l22.8,12.4C593.7,328.7,590,334.1,585.7,339"/>
					<path class="st3" d="M597,322.9l-22.8-12.4c9-15.7,14.3-33.8,14.4-52.6c0.1-32.2-15.5-58.3-38.9-71.1l22.8,12.4
						c23.5,12.8,39,38.9,38.9,71.1C611.4,289.1,606.1,307.2,597,322.9"/>
				</g>
			</g>
			<g class="st1">
				<defs>
					<path id="SVGID_5_" class="st1" d="M579.3,132.6l22.8,12.4c-21.5-11.7-47-16.6-74.4-12.8l-22.8-12.4
						C532.3,116,557.8,120.9,579.3,132.6z"/>
				</defs>
				<clipPath id="SVGID_6_">
					<use xlink:href="#SVGID_5_"  style="overflow:visible;"/>
				</clipPath>
				<g class="st10">
					<path class="st5" d="M527.7,132.3l-22.8-12.4c21.4-3,41.6-0.7,59.7,6.1l22.8,12.4C569.3,131.6,549.1,129.2,527.7,132.3"/>
					<path class="st6" d="M587.4,138.3l-22.8-12.4c5.1,1.9,10,4.1,14.7,6.7l22.8,12.4C597.4,142.5,592.5,140.2,587.4,138.3"/>
				</g>
			</g>
			<g>
				<polygon class="st11" points="500.8,195.3 478,182.9 478.1,123.6 500.9,136 				"/>
			</g>
			<g>
				<polygon class="st12" points="500.9,136 478.1,123.6 504.9,119.9 527.7,132.3 				"/>
			</g>
			<g class="st1">
				<defs>
					<path id="SVGID_7_" class="st1" d="M398.5,199.3l22.8,12.4c8.7,4.8,14.5,14.5,14.5,26.5c0,18.8-14.1,35.9-31.3,38.3l-22.8-12.4
						c17.3-2.4,31.3-19.5,31.3-38.3C413,213.8,407.3,204.1,398.5,199.3z"/>
				</defs>
				<clipPath id="SVGID_8_">
					<use xlink:href="#SVGID_7_"  style="overflow:visible;"/>
				</clipPath>
				<g class="st13">
					<path class="st5" d="M404.5,276.5l-22.8-12.4c1.5-0.2,3-0.5,4.4-1l22.8,12.4C407.5,276,406,276.3,404.5,276.5"/>
					<path class="st6" d="M408.9,275.6l-22.8-12.4c2.6-0.8,5.1-1.9,7.5-3.3l22.8,12.4C414,273.7,411.5,274.8,408.9,275.6"/>
					<path class="st7" d="M416.4,272.3l-22.8-12.4c1.9-1.1,3.6-2.4,5.3-3.8l22.8,12.4C420,270,418.3,271.2,416.4,272.3"/>
					<path class="st8" d="M421.7,268.5l-22.8-12.4c1.6-1.4,3.1-2.9,4.5-4.6l22.8,12.4C424.8,265.6,423.3,267.2,421.7,268.5"/>
					<path class="st9" d="M426.2,264l-22.8-12.4c1.6-1.9,3-3.9,4.2-6l22.8,12.4C429.2,260.1,427.8,262.1,426.2,264"/>
					<path class="st3" d="M430.4,258l-22.8-12.4c3.4-5.9,5.4-12.7,5.4-19.8c0-12-5.8-21.7-14.5-26.5l22.8,12.4
						c8.7,4.8,14.5,14.5,14.5,26.5C435.8,245.3,433.8,252.1,430.4,258"/>
				</g>
			</g>
			<g>
				<polygon class="st11" points="294.3,465.2 271.5,452.8 271.6,392.5 294.4,404.9 				"/>
			</g>
			<g>
				<polygon class="st14" points="525.6,431.7 502.8,419.3 326.7,280 349.5,292.4 				"/>
			</g>
			<g>
				<polygon class="st12" points="349.6,285 326.8,272.6 381.7,264.1 404.5,276.5 				"/>
			</g>
			<g class="st1">
				<defs>
					<path id="SVGID_9_" class="st1" d="M429.9,140.4l22.8,12.4c-9.5-5.2-20.6-7.1-32.1-5.5l-22.8-12.4
						C409.3,133.3,420.5,135.3,429.9,140.4z"/>
				</defs>
				<clipPath id="SVGID_10_">
					<use xlink:href="#SVGID_9_"  style="overflow:visible;"/>
				</clipPath>
				<g class="st15">
					<path class="st5" d="M420.6,147.3l-22.8-12.4c9.1-1.3,17.9-0.3,25.9,2.7l22.8,12.4C438.5,147,429.7,146,420.6,147.3"/>
					<path class="st6" d="M446.5,150l-22.8-12.4c2.1,0.8,4.2,1.7,6.2,2.8l22.8,12.4C450.7,151.7,448.7,150.8,446.5,150"/>
				</g>
			</g>
			<g class="st1">
				<defs>
					<path id="SVGID_11_" class="st1" d="M243.4,411.2l-22.8-12.4c-1.5-0.8-2.5-2.5-2.5-4.7l22.8,12.4
						C240.9,408.7,241.9,410.4,243.4,411.2z"/>
				</defs>
				<clipPath id="SVGID_12_">
					<use xlink:href="#SVGID_11_"  style="overflow:visible;"/>
				</clipPath>
				<g class="st16">
					<path class="st3" d="M243.4,411.2l-22.8-12.4c-1.5-0.8-2.5-2.5-2.5-4.7l22.8,12.4C240.9,408.7,241.9,410.4,243.4,411.2"/>
				</g>
			</g>
			<g>
				<polygon class="st12" points="246.5,352.2 223.7,339.8 271.7,333.1 294.5,345.5 				"/>
			</g>
			<g>
				<polygon class="st11" points="240.9,406.5 218.1,394.1 218.2,346.6 241,359 				"/>
			</g>
			<g>
				<polygon class="st12" points="349.6,157.3 326.8,144.9 397.8,134.9 420.6,147.3 				"/>
			</g>
			<g class="st1">
				<defs>
					<path id="SVGID_13_" class="st1" d="M241,359l-22.8-12.4c0-3.4,2.4-6.3,5.5-6.7l22.8,12.4C243.4,352.6,241,355.6,241,359z"/>
				</defs>
				<clipPath id="SVGID_14_">
					<use xlink:href="#SVGID_13_"  style="overflow:visible;"/>
				</clipPath>
				<g class="st17">
					<path class="st3" d="M241,359l-22.8-12.4c0-1.3,0.3-2.5,0.9-3.5l22.8,12.4C241.3,356.5,241,357.7,241,359"/>
					<path class="st9" d="M241.9,355.4L219.1,343c0.2-0.4,0.5-0.7,0.7-1l22.8,12.4C242.4,354.7,242.1,355.1,241.9,355.4"/>
					<path class="st8" d="M242.6,354.4L219.8,342c0.2-0.3,0.5-0.5,0.8-0.8l22.8,12.4C243.1,353.9,242.9,354.1,242.6,354.4"/>
					<path class="st7" d="M243.4,353.6l-22.8-12.4c0.3-0.2,0.6-0.5,0.9-0.7l22.8,12.4C244,353.2,243.7,353.4,243.4,353.6"/>
					<path class="st6" d="M244.3,353l-22.8-12.4c0.4-0.2,0.9-0.4,1.3-0.6l22.8,12.4C245.2,352.5,244.8,352.7,244.3,353"/>
					<path class="st5" d="M245.7,352.4L222.9,340c0.3-0.1,0.5-0.1,0.8-0.2l22.8,12.4C246.2,352.3,245.9,352.3,245.7,352.4"/>
				</g>
			</g>
			<g>
				<polygon class="st12" points="348.2,157.5 325.4,145.1 326.8,144.9 349.6,157.3 				"/>
			</g>
			<g>
				<polygon class="st11" points="294.5,345.5 271.7,333.1 272,211.9 294.7,224.3 				"/>
			</g>
			<g>
				<polygon class="st12" points="322.3,161.1 299.5,148.7 325.4,145.1 348.2,157.5 				"/>
			</g>
			<g class="st1">
				<defs>
					<path id="SVGID_15_" class="st1" d="M248.3,239.1l22.8,12.4c-0.7-0.4-1.5-0.5-2.3-0.4L246,238.6
						C246.8,238.5,247.7,238.7,248.3,239.1z"/>
				</defs>
				<clipPath id="SVGID_16_">
					<use xlink:href="#SVGID_15_"  style="overflow:visible;"/>
				</clipPath>
			</g>
			<g class="st1">
				<defs>
					<path id="SVGID_17_" class="st1" d="M232.1,232.2l-22.8-12.4c-1.4-0.8-2.3-2.4-2.3-4.4l22.8,12.4
						C229.8,229.8,230.7,231.4,232.1,232.2z"/>
				</defs>
				<clipPath id="SVGID_18_">
					<use xlink:href="#SVGID_17_"  style="overflow:visible;"/>
				</clipPath>
				<g class="st18">
					<path class="st3" d="M232.1,232.2l-22.8-12.4c-1.4-0.8-2.3-2.4-2.3-4.4l22.8,12.4C229.8,229.8,230.7,231.4,232.1,232.2"/>
				</g>
			</g>
			<g>
				<polygon class="st12" points="235.1,173.4 212.3,161 299.5,148.7 322.3,161.1 				"/>
			</g>
			<g>
				<polygon class="st11" points="229.8,227.8 207,215.4 207.1,167.3 229.9,179.7 				"/>
			</g>
			<g class="st1">
				<defs>
					<path id="SVGID_19_" class="st1" d="M229.9,179.7l-22.8-12.4c0-3.2,2.3-5.9,5.2-6.3l22.8,12.4
						C232.2,173.8,229.9,176.5,229.9,179.7z"/>
				</defs>
				<clipPath id="SVGID_20_">
					<use xlink:href="#SVGID_19_"  style="overflow:visible;"/>
				</clipPath>
				<g class="st19">
					<path class="st3" d="M229.9,179.7l-22.8-12.4c0-1.2,0.3-2.3,0.9-3.3l22.8,12.4C230.2,177.4,229.9,178.5,229.9,179.7"/>
					<path class="st9" d="M230.8,176.4L208,164c0.2-0.3,0.4-0.7,0.7-1l22.8,12.4C231.2,175.7,231,176,230.8,176.4"/>
					<path class="st8" d="M231.5,175.4L208.7,163c0.2-0.3,0.5-0.5,0.7-0.7l22.8,12.4C231.9,174.9,231.7,175.2,231.5,175.4"/>
					<path class="st7" d="M232.2,174.7l-22.8-12.4c0.3-0.2,0.6-0.4,0.9-0.6l22.8,12.4C232.7,174.3,232.4,174.5,232.2,174.7"/>
					<path class="st6" d="M233,174.1l-22.8-12.4c0.4-0.2,0.8-0.4,1.3-0.5l22.8,12.4C233.9,173.7,233.4,173.9,233,174.1"/>
					<path class="st5" d="M234.3,173.6l-22.8-12.4c0.3-0.1,0.5-0.1,0.8-0.2l22.8,12.4C234.8,173.4,234.6,173.5,234.3,173.6"/>
				</g>
			</g>
			<g>
				<path class="st20" d="M527.7,132.3c76.9-10.8,138.9,47.6,138.8,130.4c-0.2,81.9-61.1,157-136.6,169.2c-0.8,0.1-1.5,0.3-2.1,0.4
					c-0.8,0.1-1.4,0-2.2-0.6L349.5,292.4l-0.3,165l-54.9,7.7l0.1-60.2l-48,6.7c-3.1,0.4-5.5-1.8-5.5-5.2L241,359
					c0-3.4,2.4-6.3,5.5-6.7l48-6.7l0.2-121.2l-59.8,8.4c-2.9,0.4-5.2-1.7-5.2-4.9l0.1-48.1c0-3.2,2.3-5.9,5.2-6.3l87.2-12.3
					l25.9-3.6l1.4-0.2l71-10c18.7-2.6,36.4,4.2,47.6,18.8c39.6,51.1,22.6,114.3-16.3,147.5l75.4,59.1c46.3-6.5,84-52.3,84.1-102.4
					c0.1-50-37.3-85.3-83.8-78.8l-26.8,3.8l0.1-59.3L527.7,132.3z M404.5,276.5c17.3-2.4,31.3-19.5,31.3-38.3
					c0-18.6-13.9-31.8-31.2-29.4l-54.9,7.7l-0.1,68.4L404.5,276.5"/>
			</g>
		</g>
		<g class="st1">
			<g class="st1">
				<defs>
					<path id="SVGID_21_" class="st1" d="M774.9,146.6l22.8,12.4c8.9,4.8,14.7,14.7,14.7,26.8c0,18.8-14.1,35.9-31.3,38.5
						l-22.8-12.4c17.3-2.6,31.3-19.7,31.3-38.5C789.6,161.3,783.8,151.5,774.9,146.6z"/>
				</defs>
				<clipPath id="SVGID_22_">
					<use xlink:href="#SVGID_21_"  style="overflow:visible;"/>
				</clipPath>
				<g class="st21">
					<path class="st5" d="M781.1,224.3l-22.8-12.4c1.4-0.2,2.8-0.5,4.2-0.9l22.8,12.4C783.9,223.8,782.5,224.1,781.1,224.3"/>
					<path class="st6" d="M785.2,223.4L762.4,211c2.6-0.8,5.2-1.9,7.6-3.3l22.8,12.4C790.4,221.5,787.9,222.6,785.2,223.4"/>
					<path class="st7" d="M792.8,220.1L770,207.7c1.9-1.1,3.7-2.4,5.4-3.8l22.8,12.4C796.5,217.7,794.7,219,792.8,220.1"/>
					<path class="st8" d="M798.2,216.3l-22.8-12.4c1.6-1.4,3.2-2.9,4.6-4.6l22.8,12.4C801.4,213.4,799.8,214.9,798.2,216.3"/>
					<path class="st9" d="M802.8,211.7L780,199.3c1.6-1.9,3-3.9,4.2-6l22.8,12.4C805.8,207.8,804.3,209.8,802.8,211.7"/>
					<path class="st3" d="M807,205.6l-22.8-12.4c3.4-5.9,5.4-12.7,5.4-19.8c0-12.1-5.9-22-14.7-26.8l22.8,12.4
						c8.9,4.8,14.7,14.7,14.7,26.8C812.4,192.9,810.4,199.7,807,205.6"/>
				</g>
			</g>
			<g>
				<polygon class="st11" points="709.8,406.6 687,394.2 687.2,247.6 710,260 				"/>
			</g>
			<g>
				<polygon class="st11" points="710,260 687.2,247.6 687.3,221.9 710.1,234.3 				"/>
			</g>
			<g>
				<polygon class="st12" points="710.1,234.3 687.3,221.9 758.3,211.9 781.1,224.3 				"/>
			</g>
			<g class="st1">
				<defs>
					<path id="SVGID_23_" class="st1" d="M799.3,93l22.8,12.4c-11.5-6.2-24.8-9.4-39.1-8.6l-22.8-12.4
						C774.6,83.6,787.9,86.7,799.3,93z"/>
				</defs>
				<clipPath id="SVGID_24_">
					<use xlink:href="#SVGID_23_"  style="overflow:visible;"/>
				</clipPath>
				<g class="st22">
					<path class="st5" d="M783,96.7l-22.8-12.4c10.7-0.6,20.8,1.1,30,4.5l22.8,12.4C803.8,97.8,793.7,96.2,783,96.7"/>
					<path class="st6" d="M813.1,101.2l-22.8-12.4c3.1,1.2,6.2,2.6,9.1,4.1l22.8,12.4C819.2,103.8,816.2,102.4,813.1,101.2"/>
				</g>
			</g>
			<g class="st1">
				<defs>
					<path id="SVGID_25_" class="st1" d="M781.3,96.6l-22.8-12.4c0.5,0.1,1.2,0,1.7,0.1L783,96.7C782.5,96.6,781.8,96.7,781.3,96.6z
						"/>
				</defs>
				<clipPath id="SVGID_26_">
					<use xlink:href="#SVGID_25_"  style="overflow:visible;"/>
				</clipPath>
				<g class="st23">
					<path class="st5" d="M781.3,96.6l-22.8-12.4c0.5,0.1,1.2,0,1.7,0.1L783,96.7C782.5,96.6,781.8,96.7,781.3,96.6"/>
				</g>
			</g>
			<g>
				<polygon class="st11" points="710.2,166.1 687.4,153.7 687.5,127 710.2,139.4 				"/>
			</g>
			<g>
				<polygon class="st12" points="710.3,106.6 687.5,94.2 758.5,84.2 781.3,96.6 				"/>
			</g>
			<g>
				<polygon class="st11" points="710.2,139.4 687.5,127 687.5,94.2 710.3,106.6 				"/>
			</g>
			<g>
				<path class="st20" d="M781.3,96.6c0.5,0.1,1.2,0,1.7,0.1c44.4-2.3,79.2,32.9,79.1,81.5c-0.1,51.5-38.9,98.7-86.5,105.4
					c-1.7,0.2-3.6,0.5-5.4,0.6c-1.9,0.5-3.6,0.7-5.4,0.9l-0.2,113.7l-54.9,7.7L710,260l0-25.7l71-10c17.3-2.6,31.3-19.7,31.3-38.5
					c0-18.6-13.9-32-31.2-29.7l-71,10l0-26.7l0.1-32.8L781.3,96.6z"/>
			</g>
		</g>
	</g>
	<linearGradient id="SVGID_27_" gradientUnits="userSpaceOnUse" x1="13.5552" y1="368.7029" x2="281.4341" y2="368.7029">
		<stop  offset="0.4116" style="stop-color:#00FFFF;stop-opacity:0"/>
		<stop  offset="0.5384" style="stop-color:#00E0FF;stop-opacity:0.2032"/>
		<stop  offset="0.8138" style="stop-color:#0092FF;stop-opacity:0.6445"/>
		<stop  offset="1" style="stop-color:#005AFF;stop-opacity:0.9429"/>
	</linearGradient>
	<path class="st24" d="M281.4,338.3V226.1l-46.5,6.5c0,0-2.4,0.2-3.3-0.8l-14.3-7.8L13.6,245v268.2l267.9-55.1v-51.4l-35,4.9
		c0,0-2.1,0.2-3-0.5l-15.7-8.5l1.5-50.1c0,0,0.7-6.2,4.9-7.1L281.4,338.3z"/>
	<g>
		<g>
			<g class="st1">
				<g class="st1">
					<defs>
						<path id="SVGID_28_" class="st1" d="M241.5,258.9l11.4,6.2c-1.6-0.9-3.6-1.3-5.7-1l-11.4-6.2
							C237.9,257.7,239.8,258,241.5,258.9z"/>
					</defs>
					<clipPath id="SVGID_29_">
						<use xlink:href="#SVGID_28_"  style="overflow:visible;"/>
					</clipPath>
					<g class="st25">
						<path class="st26" d="M247.2,264.1l-11.4-6.2c2.1-0.3,4,0.1,5.7,1l11.4,6.2C251.2,264.2,249.3,263.9,247.2,264.1"/>
					</g>
				</g>
				<g class="st1">
					<defs>
						<path id="SVGID_30_" class="st1" d="M172.5,337.2l-11.4-6.2c-3-1.6-5-5-5-9l11.4,6.2C167.6,332.2,169.6,335.6,172.5,337.2z"/>
					</defs>
					<clipPath id="SVGID_31_">
						<use xlink:href="#SVGID_30_"  style="overflow:visible;"/>
					</clipPath>
					<g class="st27">
						<path class="st28" d="M172.5,337.2l-11.4-6.2c-3-1.6-5-5-5-9l11.4,6.2C167.6,332.2,169.6,335.6,172.5,337.2"/>
					</g>
				</g>
				<g>
					<polygon class="st29" points="178.3,273.8 167,267.6 235.8,257.9 247.2,264.1 					"/>
				</g>
				<g>
					<polygon class="st30" points="167.6,328.2 156.2,322 156.3,280.7 167.6,286.9 					"/>
				</g>
				<g>
					<path class="st31" d="M247.2,264.1c5.9-0.8,10.7,3.7,10.7,10l-0.1,41.3c0,6.3-4.8,12.2-10.7,13l-68.8,9.7
						c-5.9,0.8-10.7-3.7-10.7-10l0.1-41.3c0-6.3,4.8-12.2,10.7-13L247.2,264.1z"/>
				</g>
				<g class="st1">
					<defs>
						<path id="SVGID_32_" class="st1" d="M167.6,286.9l-11.4-6.2c0-6.3,4.8-12.2,10.7-13l11.4,6.2
							C172.5,274.6,167.7,280.5,167.6,286.9z"/>
					</defs>
					<clipPath id="SVGID_33_">
						<use xlink:href="#SVGID_32_"  style="overflow:visible;"/>
					</clipPath>
					<g class="st32">
						<path class="st28" d="M167.6,286.9l-11.4-6.2c0-2.8,1-5.6,2.6-7.8l11.4,6.2C168.6,281.3,167.7,284,167.6,286.9"/>
						<path class="st33" d="M170.2,279l-11.4-6.2c0.5-0.7,1.1-1.4,1.8-2.1L172,277C171.3,277.6,170.7,278.3,170.2,279"/>
						<path class="st34" d="M172,277l-11.4-6.2c0.6-0.6,1.2-1.1,1.9-1.5l11.4,6.2C173.3,275.9,172.6,276.4,172,277"/>
						<path class="st35" d="M173.9,275.5l-11.4-6.2c0.8-0.5,1.6-0.9,2.4-1.2l11.4,6.2C175.5,274.6,174.7,275,173.9,275.5"/>
						<path class="st26" d="M176.3,274.3l-11.4-6.2c0.7-0.2,1.3-0.4,2-0.5l11.4,6.2C177.7,273.9,177,274.1,176.3,274.3"/>
					</g>
				</g>
			</g>
		</g>
	</g>
	<g>
		<g>
			<g class="st1">
				<g class="st1">
					<defs>
						<path id="SVGID_34_" class="st1" d="M176,347l11.4,6.2c-1-0.5-2.2-0.8-3.4-0.6l-11.4-6.2C173.8,346.2,175,346.5,176,347z"/>
					</defs>
					<clipPath id="SVGID_35_">
						<use xlink:href="#SVGID_34_"  style="overflow:visible;"/>
					</clipPath>
					<g class="st36">
						<path class="st37" d="M184,352.6l-11.4-6.2c1.2-0.2,2.4,0.1,3.4,0.6l11.4,6.2C186.4,352.7,185.2,352.4,184,352.6"/>
					</g>
				</g>
				<g class="st1">
					<defs>
						<path id="SVGID_36_" class="st1" d="M136.7,398.5l-11.4-6.2c-1.8-1-3-3-3-5.4l11.4,6.2C133.7,395.6,134.9,397.6,136.7,398.5z"
							/>
					</defs>
					<clipPath id="SVGID_37_">
						<use xlink:href="#SVGID_36_"  style="overflow:visible;"/>
					</clipPath>
					<g class="st38">
						<path class="st39" d="M136.7,398.5l-11.4-6.2c-1.8-1-3-3-3-5.4l11.4,6.2C133.7,395.6,134.9,397.6,136.7,398.5"/>
					</g>
				</g>
				<g>
					<polygon class="st40" points="140.2,358.8 128.8,352.6 172.6,346.4 184,352.6 					"/>
				</g>
				<g>
					<polygon class="st41" points="133.7,393.1 122.3,386.9 122.4,360.4 133.8,366.6 					"/>
				</g>
				<g>
					<path class="st42" d="M184,352.6c3.5-0.5,6.4,2.2,6.4,6l0,26.5c0,3.8-2.9,7.3-6.4,7.8l-43.8,6.2c-3.5,0.5-6.4-2.2-6.4-6l0-26.5
						c0-3.8,2.9-7.3,6.4-7.8L184,352.6z"/>
				</g>
				<g class="st1">
					<defs>
						<path id="SVGID_38_" class="st1" d="M133.8,366.6l-11.4-6.2c0-3.8,2.9-7.3,6.4-7.8l11.4,6.2
							C136.7,359.3,133.8,362.8,133.8,366.6z"/>
					</defs>
					<clipPath id="SVGID_39_">
						<use xlink:href="#SVGID_38_"  style="overflow:visible;"/>
					</clipPath>
					<g class="st43">
						<path class="st39" d="M133.8,366.6l-11.4-6.2c0-1.7,0.6-3.3,1.5-4.7l11.4,6.2C134.3,363.2,133.8,364.9,133.8,366.6"/>
						<path class="st44" d="M135.3,361.9l-11.4-6.2c0.3-0.4,0.7-0.9,1.1-1.2l11.4,6.2C136,361,135.6,361.4,135.3,361.9"/>
						<path class="st45" d="M136.4,360.7l-11.4-6.2c0.4-0.3,0.7-0.6,1.2-0.9l11.4,6.2C137.1,360,136.7,360.3,136.4,360.7"/>
						<path class="st46" d="M137.5,359.7l-11.4-6.2c0.5-0.3,0.9-0.5,1.4-0.7L139,359C138.5,359.2,138,359.5,137.5,359.7"/>
						<path class="st37" d="M139,359l-11.4-6.2c0.4-0.1,0.8-0.2,1.2-0.3l11.4,6.2C139.8,358.8,139.4,358.9,139,359"/>
					</g>
				</g>
			</g>
		</g>
	</g>
	<g>
		<g>
			<g class="st1">
				<g class="st1">
					<defs>
						<path id="SVGID_40_" class="st1" d="M97.5,327.5l11.4,6.2c-1.6-0.9-3.6-1.3-5.7-1l-11.4-6.2C93.9,326.2,95.9,326.6,97.5,327.5
							z"/>
					</defs>
					<clipPath id="SVGID_41_">
						<use xlink:href="#SVGID_40_"  style="overflow:visible;"/>
					</clipPath>
					<g class="st47">
						<path class="st48" d="M103.2,332.7l-11.4-6.2c2.1-0.3,4,0.1,5.7,1l11.4,6.2C107.3,332.8,105.3,332.4,103.2,332.7"/>
					</g>
				</g>
				<g class="st1">
					<defs>
						<path id="SVGID_42_" class="st1" d="M29.7,404.8l-11.4-6.2c-3-1.6-5-5-5-9l11.4,6.2C24.7,399.8,26.7,403.2,29.7,404.8z"/>
					</defs>
					<clipPath id="SVGID_43_">
						<use xlink:href="#SVGID_42_"  style="overflow:visible;"/>
					</clipPath>
					<g class="st49">
						<path class="st50" d="M29.7,404.8l-11.4-6.2c-3-1.6-5-5-5-9l11.4,6.2C24.7,399.8,26.7,403.2,29.7,404.8"/>
					</g>
				</g>
				<g>
					<polygon class="st51" points="35.5,342.2 24.1,336 91.8,326.5 103.2,332.7 					"/>
				</g>
				<g>
					<polygon class="st52" points="24.7,395.7 13.3,389.5 13.4,349.1 24.8,355.3 					"/>
				</g>
				<g>
					<path class="st53" d="M103.2,332.7c5.9-0.8,10.7,3.7,10.7,10l-0.1,40.5c0,6.3-4.8,12.2-10.7,13l-67.7,9.5
						c-5.9,0.8-10.7-3.7-10.7-10l0.1-40.5c0-6.3,4.8-12.2,10.7-13L103.2,332.7z"/>
				</g>
				<g class="st1">
					<defs>
						<path id="SVGID_44_" class="st1" d="M24.8,355.3l-11.4-6.2c0-6.3,4.8-12.2,10.7-13l11.4,6.2C29.6,343.1,24.8,348.9,24.8,355.3
							z"/>
					</defs>
					<clipPath id="SVGID_45_">
						<use xlink:href="#SVGID_44_"  style="overflow:visible;"/>
					</clipPath>
					<g class="st54">
						<path class="st50" d="M24.8,355.3l-11.4-6.2c0-2.8,1-5.6,2.6-7.8l11.4,6.2C25.8,349.7,24.8,352.4,24.8,355.3"/>
						<path class="st55" d="M27.4,347.4L16,341.2c0.5-0.7,1.1-1.4,1.8-2.1l11.4,6.2C28.5,346,27.9,346.7,27.4,347.4"/>
						<path class="st56" d="M29.1,345.4l-11.4-6.2c0.6-0.6,1.2-1.1,1.9-1.5l11.4,6.2C30.4,344.3,29.7,344.8,29.1,345.4"/>
						<path class="st57" d="M31.1,343.9l-11.4-6.2c0.8-0.5,1.6-0.9,2.4-1.2l11.4,6.2C32.6,343,31.8,343.4,31.1,343.9"/>
						<path class="st48" d="M33.5,342.7l-11.4-6.2c0.7-0.2,1.3-0.4,2-0.5l11.4,6.2C34.8,342.3,34.1,342.5,33.5,342.7"/>
					</g>
				</g>
			</g>
		</g>
	</g>
	<g>
		<g>
			<g class="st1">
				<g class="st1">
					<defs>
						<path id="SVGID_46_" class="st1" d="M118.2,277.4l11.4,6.2c-1-0.5-2.1-0.8-3.4-0.6l-11.4-6.2
							C116.1,276.7,117.3,276.9,118.2,277.4z"/>
					</defs>
					<clipPath id="SVGID_47_">
						<use xlink:href="#SVGID_46_"  style="overflow:visible;"/>
					</clipPath>
					<g class="st58">
						<path class="st59" d="M126.3,283l-11.4-6.2c1.2-0.2,2.4,0.1,3.4,0.6l11.4,6.2C128.7,283.1,127.5,282.9,126.3,283"/>
					</g>
				</g>
				<g class="st1">
					<defs>
						<path id="SVGID_48_" class="st1" d="M91,318.7l-11.4-6.2c-1.8-1-3-2.9-3-5.4l11.4,6.2C88,315.8,89.2,317.7,91,318.7z"/>
					</defs>
					<clipPath id="SVGID_49_">
						<use xlink:href="#SVGID_48_"  style="overflow:visible;"/>
					</clipPath>
					<g class="st60">
						<path class="st61" d="M91,318.7l-11.4-6.2c-1.8-1-3-2.9-3-5.4l11.4,6.2C88,315.8,89.2,317.7,91,318.7"/>
					</g>
				</g>
				<g>
					<polygon class="st62" points="94.4,287.5 83,281.3 114.9,276.8 126.3,283 					"/>
				</g>
				<g>
					<polygon class="st63" points="88,313.3 76.6,307.1 76.7,289.1 88.1,295.3 					"/>
				</g>
				<g>
					<path class="st64" d="M126.3,283c3.5-0.5,6.4,2.2,6.3,6l0,18.1c0,3.8-2.9,7.3-6.4,7.8l-31.8,4.5c-3.5,0.5-6.4-2.2-6.3-6l0-18.1
						c0-3.8,2.9-7.3,6.4-7.8L126.3,283z"/>
				</g>
				<g class="st1">
					<defs>
						<path id="SVGID_50_" class="st1" d="M88.1,295.3l-11.4-6.2c0-3.8,2.9-7.3,6.4-7.8l11.4,6.2C90.9,288,88.1,291.5,88.1,295.3z"
							/>
					</defs>
					<clipPath id="SVGID_51_">
						<use xlink:href="#SVGID_50_"  style="overflow:visible;"/>
					</clipPath>
					<g class="st65">
						<path class="st61" d="M88.1,295.3l-11.4-6.2c0-1.7,0.6-3.3,1.5-4.6l11.4,6.2C88.6,292,88.1,293.6,88.1,295.3"/>
						<path class="st66" d="M89.6,290.6l-11.4-6.2c0.3-0.4,0.7-0.9,1.1-1.2l11.4,6.2C90.3,289.8,89.9,290.2,89.6,290.6"/>
						<path class="st67" d="M90.7,289.4l-11.4-6.2c0.4-0.3,0.7-0.6,1.2-0.9l11.4,6.2C91.4,288.8,91,289.1,90.7,289.4"/>
						<path class="st68" d="M91.8,288.5l-11.4-6.2c0.5-0.3,0.9-0.5,1.4-0.7l11.4,6.2C92.7,288,92.3,288.2,91.8,288.5"/>
						<path class="st59" d="M93.2,287.8l-11.4-6.2c0.4-0.1,0.8-0.2,1.2-0.3l11.4,6.2C94,287.6,93.6,287.7,93.2,287.8"/>
					</g>
				</g>
			</g>
		</g>
	</g>
</g>
</svg>
