<?xml version="1.0" encoding="utf-8"?>
<!-- Generator: Adobe Illustrator 25.4.1, SVG Export Plug-In . SVG Version: 6.00 Build 0)  -->
<svg version="1.1" id="Layer_1" xmlns="http://www.w3.org/2000/svg" xmlns:xlink="http://www.w3.org/1999/xlink" x="0px" y="0px"
	 viewBox="0 0 904.5 567.8" style="enable-background:new 0 0 904.5 567.8;" xml:space="preserve">
<style type="text/css">
	.st0{enable-background:new    ;}
	.st1{clip-path:url(#SVGID_00000161599647463497645220000001480404776163055781_);enable-background:new    ;}
	.st2{fill:#858585;}
	.st3{clip-path:url(#SVGID_00000111160877087173476390000013767121493065688749_);enable-background:new    ;}
	.st4{fill:#9E9E9E;}
	.st5{fill:#999999;}
	.st6{fill:#949494;}
	.st7{fill:#8F8F8F;}
	.st8{fill:#8A8A8A;}
	.st9{clip-path:url(#SVGID_00000152249250709050449420000009990346819740252579_);enable-background:new    ;}
	.st10{fill:#818181;}
	.st11{fill:#A6A6A6;}
	.st12{clip-path:url(#SVGID_00000015354788207646505450000009499868976611364014_);enable-background:new    ;}
	.st13{fill:#808080;}
	.st14{clip-path:url(#SVGID_00000072275347338704984700000013929299971361670060_);enable-background:new    ;}
	.st15{clip-path:url(#SVGID_00000126298137441165067480000008123417260431933327_);enable-background:new    ;}
	.st16{clip-path:url(#SVGID_00000100346774525517127290000013862483198383187609_);enable-background:new    ;}
	.st17{clip-path:url(#SVGID_00000096757956860129362680000007308182280089951362_);enable-background:new    ;}
	.st18{clip-path:url(#SVGID_00000105388662978499490700000018161743489663279238_);enable-background:new    ;}
	.st19{fill:#E7E7E7;}
	.st20{clip-path:url(#SVGID_00000034777363515746325190000012771063966598106755_);enable-background:new    ;}
	.st21{clip-path:url(#SVGID_00000062194467605453169020000014653063157812319137_);enable-background:new    ;}
	.st22{clip-path:url(#SVGID_00000145741101874515625460000006684028255026079126_);enable-background:new    ;}
	.st23{fill:url(#SVGID_00000042739001615618727210000006023913400144871317_);}
	.st24{clip-path:url(#SVGID_00000124860426339009458340000008349333655445062332_);enable-background:new    ;}
	.st25{fill:#8C9123;}
	.st26{clip-path:url(#SVGID_00000109729543355981486580000011795233305150165636_);enable-background:new    ;}
	.st27{fill:#797E1F;}
	.st28{fill:#939925;}
	.st29{fill:#757A1E;}
	.st30{fill:#D5DD36;}
	.st31{clip-path:url(#SVGID_00000085952640517282796200000018277637907255019942_);enable-background:new    ;}
	.st32{fill:#7E8320;}
	.st33{fill:#828821;}
	.st34{fill:#878C22;}
	.st35{clip-path:url(#SVGID_00000083072197300946586610000010235775730208669110_);enable-background:new    ;}
	.st36{fill:#196788;}
	.st37{clip-path:url(#SVGID_00000163754065095286754400000010274678319229181618_);enable-background:new    ;}
	.st38{fill:#155976;}
	.st39{fill:#1A6C8F;}
	.st40{fill:#155672;}
	.st41{fill:#259CCF;}
	.st42{clip-path:url(#SVGID_00000155137133966556468310000014030048602406836869_);enable-background:new    ;}
	.st43{fill:#165C7A;}
	.st44{fill:#17607F;}
	.st45{fill:#186383;}
	.st46{clip-path:url(#SVGID_00000113325058378270107260000005643274154400777625_);enable-background:new    ;}
	.st47{fill:#8F3567;}
	.st48{clip-path:url(#SVGID_00000034801494359341461640000001688859581880462007_);enable-background:new    ;}
	.st49{fill:#7C2E59;}
	.st50{fill:#97386D;}
	.st51{fill:#782D56;}
	.st52{fill:#DA519D;}
	.st53{clip-path:url(#SVGID_00000002366213445226378060000015506111425149323920_);enable-background:new    ;}
	.st54{fill:#81305D;}
	.st55{fill:#863260;}
	.st56{fill:#8B3464;}
	.st57{clip-path:url(#SVGID_00000101095683047893336390000001078430487093054381_);enable-background:new    ;}
	.st58{fill:#232B57;}
	.st59{clip-path:url(#SVGID_00000038377339733512210130000003166136194460561339_);enable-background:new    ;}
	.st60{fill:#1E254B;}
	.st61{fill:#252D5C;}
	.st62{fill:#1D2449;}
	.st63{fill:#354185;}
	.st64{clip-path:url(#SVGID_00000114772113805015985830000000140931334071673011_);enable-background:new    ;}
	.st65{fill:#1F264E;}
	.st66{fill:#202851;}
	.st67{fill:#222954;}
</style>
<g>
	<g>
		<g class="st0">
			<g class="st0">
				<g>
					<defs>
						<path id="SVGID_1_" d="M526.1,432l-22.8-12.4c-0.1-0.1-0.3-0.2-0.4-0.3l22.8,12.4C525.8,431.8,525.9,431.9,526.1,432z"/>
					</defs>
					<clipPath id="SVGID_00000155826235275188907640000011745589591096118430_">
						<use xlink:href="#SVGID_1_"  style="overflow:visible;"/>
					</clipPath>
					<g style="clip-path:url(#SVGID_00000155826235275188907640000011745589591096118430_);enable-background:new    ;">
						<path class="st2" d="M526.1,432l-22.8-12.4c-0.1-0.1-0.3-0.2-0.4-0.3l22.8,12.4C525.8,431.8,525.9,431.9,526.1,432"/>
					</g>
				</g>
			</g>
			<g class="st0">
				<g>
					<defs>
						<path id="SVGID_00000093157675487777741650000014230307855822943393_" d="M549.7,186.8l22.8,12.4c23.5,12.8,39,38.9,38.9,71.1
							c-0.1,50.2-37.8,95.9-84.1,102.4l-22.8-12.4c46.3-6.5,84-52.3,84.1-102.4C588.7,225.8,573.1,199.6,549.7,186.8z"/>
					</defs>
					<clipPath id="SVGID_00000167364783726419432450000015288731768224294064_">
						<use xlink:href="#SVGID_00000093157675487777741650000014230307855822943393_"  style="overflow:visible;"/>
					</clipPath>
					<g style="clip-path:url(#SVGID_00000167364783726419432450000015288731768224294064_);enable-background:new    ;">
						<path class="st4" d="M527.3,372.8l-22.8-12.4c4-0.6,8-1.4,11.9-2.6l22.8,12.4C535.3,371.3,531.3,372.2,527.3,372.8"/>
						<path class="st5" d="M539.2,370.2l-22.8-12.4c7-2.1,13.8-5,20.1-8.8l22.8,12.4C552.9,365.2,546.2,368.1,539.2,370.2"/>
						<path class="st6" d="M559.3,361.5l-22.8-12.4c5-2.9,9.8-6.3,14.3-10.2l22.8,12.4C569.1,355.1,564.3,358.5,559.3,361.5"/>
						<path class="st7" d="M573.6,351.3l-22.8-12.4c4.4-3.7,8.4-7.8,12.2-12.3l22.8,12.4C582,343.5,577.9,347.6,573.6,351.3"/>
						<path class="st8" d="M585.7,339l-22.8-12.4c4.2-5,8-10.4,11.3-16.1l22.8,12.4C593.7,328.7,590,334.1,585.7,339"/>
						<path class="st2" d="M597,322.9l-22.8-12.4c9-15.7,14.3-33.8,14.4-52.6c0.1-32.2-15.5-58.3-38.9-71.1l22.8,12.4
							c23.5,12.8,39,38.9,38.9,71.1C611.4,289.1,606.1,307.2,597,322.9"/>
					</g>
				</g>
			</g>
			<g class="st0">
				<g>
					<defs>
						<path id="SVGID_00000072267315075170672780000014108833080639955089_" d="M579.3,132.6l22.8,12.4
							c-21.5-11.7-47-16.6-74.4-12.8l-22.8-12.4C532.3,116,557.8,120.9,579.3,132.6z"/>
					</defs>
					<clipPath id="SVGID_00000177458639473296932240000006993781285244529542_">
						<use xlink:href="#SVGID_00000072267315075170672780000014108833080639955089_"  style="overflow:visible;"/>
					</clipPath>
					<g style="clip-path:url(#SVGID_00000177458639473296932240000006993781285244529542_);enable-background:new    ;">
						<path class="st4" d="M527.7,132.3l-22.8-12.4c21.4-3,41.6-0.7,59.7,6.1l22.8,12.4C569.3,131.6,549.1,129.2,527.7,132.3"/>
						<path class="st5" d="M587.4,138.3l-22.8-12.4c5.1,1.9,10,4.1,14.7,6.7l22.8,12.4C597.4,142.5,592.5,140.2,587.4,138.3"/>
					</g>
				</g>
			</g>
			<g>
				<polygon class="st10" points="500.8,195.3 478,182.9 478.1,123.6 500.9,136 				"/>
			</g>
			<g>
				<polygon class="st11" points="500.9,136 478.1,123.6 504.9,119.9 527.7,132.3 				"/>
			</g>
			<g class="st0">
				<g>
					<defs>
						<path id="SVGID_00000144339250748017918030000002340200189315851673_" d="M398.5,199.3l22.8,12.4c8.7,4.8,14.5,14.5,14.5,26.5
							c0,18.8-14.1,35.9-31.3,38.3l-22.8-12.4c17.3-2.4,31.3-19.5,31.3-38.3C413,213.8,407.3,204.1,398.5,199.3z"/>
					</defs>
					<clipPath id="SVGID_00000088125968401962925540000005141664643055125922_">
						<use xlink:href="#SVGID_00000144339250748017918030000002340200189315851673_"  style="overflow:visible;"/>
					</clipPath>
					<g style="clip-path:url(#SVGID_00000088125968401962925540000005141664643055125922_);enable-background:new    ;">
						<path class="st4" d="M404.5,276.5l-22.8-12.4c1.5-0.2,3-0.5,4.4-1l22.8,12.4C407.5,276,406,276.3,404.5,276.5"/>
						<path class="st5" d="M408.9,275.6l-22.8-12.4c2.6-0.8,5.1-1.9,7.5-3.3l22.8,12.4C414,273.7,411.5,274.8,408.9,275.6"/>
						<path class="st6" d="M416.4,272.3l-22.8-12.4c1.9-1.1,3.6-2.4,5.3-3.8l22.8,12.4C420,270,418.3,271.2,416.4,272.3"/>
						<path class="st7" d="M421.7,268.5l-22.8-12.4c1.6-1.4,3.1-2.9,4.5-4.6l22.8,12.4C424.8,265.6,423.3,267.2,421.7,268.5"/>
						<path class="st8" d="M426.2,264l-22.8-12.4c1.6-1.9,3-3.9,4.2-6l22.8,12.4C429.2,260.1,427.8,262.1,426.2,264"/>
						<path class="st2" d="M430.4,258l-22.8-12.4c3.4-5.9,5.4-12.7,5.4-19.8c0-12-5.8-21.7-14.5-26.5l22.8,12.4
							c8.7,4.8,14.5,14.5,14.5,26.5C435.8,245.3,433.8,252.1,430.4,258"/>
					</g>
				</g>
			</g>
			<g>
				<polygon class="st10" points="294.3,465.2 271.5,452.8 271.6,392.5 294.4,404.9 				"/>
			</g>
			<g>
				<polygon class="st13" points="525.6,431.7 502.8,419.3 326.7,280 349.5,292.4 				"/>
			</g>
			<g>
				<polygon class="st11" points="349.6,285 326.8,272.6 381.7,264.1 404.5,276.5 				"/>
			</g>
			<g class="st0">
				<g>
					<defs>
						<path id="SVGID_00000058568663342897410830000013727457412883620791_" d="M429.9,140.4l22.8,12.4c-9.5-5.2-20.6-7.1-32.1-5.5
							l-22.8-12.4C409.3,133.3,420.5,135.3,429.9,140.4z"/>
					</defs>
					<clipPath id="SVGID_00000084494150889619318730000006592828181552448922_">
						<use xlink:href="#SVGID_00000058568663342897410830000013727457412883620791_"  style="overflow:visible;"/>
					</clipPath>
					<g style="clip-path:url(#SVGID_00000084494150889619318730000006592828181552448922_);enable-background:new    ;">
						<path class="st4" d="M420.6,147.3l-22.8-12.4c9.1-1.3,17.9-0.3,25.9,2.7l22.8,12.4C438.5,147,429.7,146,420.6,147.3"/>
						<path class="st5" d="M446.5,150l-22.8-12.4c2.1,0.8,4.2,1.7,6.2,2.8l22.8,12.4C450.7,151.7,448.7,150.8,446.5,150"/>
					</g>
				</g>
			</g>
			<g class="st0">
				<g>
					<defs>
						<path id="SVGID_00000040539297589682101760000016710778033361858991_" d="M243.4,411.2l-22.8-12.4c-1.5-0.8-2.5-2.5-2.5-4.7
							l22.8,12.4C240.9,408.7,241.9,410.4,243.4,411.2z"/>
					</defs>
					<clipPath id="SVGID_00000072990772666384154080000005433518239596294795_">
						<use xlink:href="#SVGID_00000040539297589682101760000016710778033361858991_"  style="overflow:visible;"/>
					</clipPath>
					<g style="clip-path:url(#SVGID_00000072990772666384154080000005433518239596294795_);enable-background:new    ;">
						<path class="st2" d="M243.4,411.2l-22.8-12.4c-1.5-0.8-2.5-2.5-2.5-4.7l22.8,12.4C240.9,408.7,241.9,410.4,243.4,411.2"/>
					</g>
				</g>
			</g>
			<g>
				<polygon class="st11" points="246.5,352.2 223.7,339.8 271.7,333.1 294.5,345.5 				"/>
			</g>
			<g>
				<polygon class="st10" points="240.9,406.5 218.1,394.1 218.2,346.6 241,359 				"/>
			</g>
			<g>
				<polygon class="st11" points="349.6,157.3 326.8,144.9 397.8,134.9 420.6,147.3 				"/>
			</g>
			<g class="st0">
				<g>
					<defs>
						<path id="SVGID_00000066485496508146604220000014817955394005636281_" d="M241,359l-22.8-12.4c0-3.4,2.4-6.3,5.5-6.7
							l22.8,12.4C243.4,352.6,241,355.6,241,359z"/>
					</defs>
					<clipPath id="SVGID_00000039841349787509863410000006042534354509196731_">
						<use xlink:href="#SVGID_00000066485496508146604220000014817955394005636281_"  style="overflow:visible;"/>
					</clipPath>
					<g style="clip-path:url(#SVGID_00000039841349787509863410000006042534354509196731_);enable-background:new    ;">
						<path class="st2" d="M241,359l-22.8-12.4c0-1.3,0.3-2.5,0.9-3.5l22.8,12.4C241.3,356.5,241,357.7,241,359"/>
						<path class="st8" d="M241.9,355.4L219.1,343c0.2-0.4,0.5-0.7,0.7-1l22.8,12.4C242.4,354.7,242.1,355.1,241.9,355.4"/>
						<path class="st7" d="M242.6,354.4L219.8,342c0.2-0.3,0.5-0.5,0.8-0.8l22.8,12.4C243.1,353.9,242.9,354.1,242.6,354.4"/>
						<path class="st6" d="M243.4,353.6l-22.8-12.4c0.3-0.2,0.6-0.5,0.9-0.7l22.8,12.4C244,353.2,243.7,353.4,243.4,353.6"/>
						<path class="st5" d="M244.3,353l-22.8-12.4c0.4-0.2,0.9-0.4,1.3-0.6l22.8,12.4C245.2,352.5,244.8,352.7,244.3,353"/>
						<path class="st4" d="M245.7,352.4L222.9,340c0.3-0.1,0.5-0.1,0.8-0.2l22.8,12.4C246.2,352.3,245.9,352.3,245.7,352.4"/>
					</g>
				</g>
			</g>
			<g>
				<polygon class="st11" points="348.2,157.5 325.4,145.1 326.8,144.9 349.6,157.3 				"/>
			</g>
			<g>
				<polygon class="st10" points="294.5,345.5 271.7,333.1 272,211.9 294.7,224.3 				"/>
			</g>
			<g>
				<polygon class="st11" points="322.3,161.1 299.5,148.7 325.4,145.1 348.2,157.5 				"/>
			</g>
			<g class="st0">
				<g>
					<defs>
						<path id="SVGID_00000044887882914866835730000002676728858027309486_" d="M232.1,232.2l-22.8-12.4c-1.4-0.8-2.3-2.4-2.3-4.4
							l22.8,12.4C229.8,229.8,230.7,231.4,232.1,232.2z"/>
					</defs>
					<clipPath id="SVGID_00000174591567911749458790000011355720181273087631_">
						<use xlink:href="#SVGID_00000044887882914866835730000002676728858027309486_"  style="overflow:visible;"/>
					</clipPath>
					<g style="clip-path:url(#SVGID_00000174591567911749458790000011355720181273087631_);enable-background:new    ;">
						<path class="st2" d="M232.1,232.2l-22.8-12.4c-1.4-0.8-2.3-2.4-2.3-4.4l22.8,12.4C229.8,229.8,230.7,231.4,232.1,232.2"/>
					</g>
				</g>
			</g>
			<g>
				<polygon class="st11" points="235.1,173.4 212.3,161 299.5,148.7 322.3,161.1 				"/>
			</g>
			<g>
				<polygon class="st10" points="229.8,227.8 207,215.4 207.1,167.3 229.9,179.7 				"/>
			</g>
			<g class="st0">
				<g>
					<defs>
						<path id="SVGID_00000126295564069107192910000005796554185134272427_" d="M229.9,179.7l-22.8-12.4c0-3.2,2.3-5.9,5.2-6.3
							l22.8,12.4C232.2,173.8,229.9,176.5,229.9,179.7z"/>
					</defs>
					<clipPath id="SVGID_00000011001737945107170880000007118301513472395143_">
						<use xlink:href="#SVGID_00000126295564069107192910000005796554185134272427_"  style="overflow:visible;"/>
					</clipPath>
					<g style="clip-path:url(#SVGID_00000011001737945107170880000007118301513472395143_);enable-background:new    ;">
						<path class="st2" d="M229.9,179.7l-22.8-12.4c0-1.2,0.3-2.3,0.9-3.3l22.8,12.4C230.2,177.4,229.9,178.5,229.9,179.7"/>
						<path class="st8" d="M230.8,176.4L208,164c0.2-0.3,0.4-0.7,0.7-1l22.8,12.4C231.2,175.7,231,176,230.8,176.4"/>
						<path class="st7" d="M231.5,175.4L208.7,163c0.2-0.3,0.5-0.5,0.7-0.7l22.8,12.4C231.9,174.9,231.7,175.2,231.5,175.4"/>
						<path class="st6" d="M232.2,174.7l-22.8-12.4c0.3-0.2,0.6-0.4,0.9-0.6l22.8,12.4C232.7,174.3,232.4,174.5,232.2,174.7"/>
						<path class="st5" d="M233,174.1l-22.8-12.4c0.4-0.2,0.8-0.4,1.3-0.5l22.8,12.4C233.9,173.7,233.4,173.9,233,174.1"/>
						<path class="st4" d="M234.3,173.6l-22.8-12.4c0.3-0.1,0.5-0.1,0.8-0.2l22.8,12.4C234.8,173.4,234.6,173.5,234.3,173.6"/>
					</g>
				</g>
			</g>
			<g>
				<path class="st19" d="M527.7,132.3c76.9-10.8,138.9,47.6,138.8,130.4c-0.2,81.9-61.1,157-136.6,169.2c-0.8,0.1-1.5,0.3-2.1,0.4
					c-0.8,0.1-1.4,0-2.2-0.6L349.5,292.4l-0.3,165l-54.9,7.7l0.1-60.2l-48,6.7c-3.1,0.4-5.5-1.8-5.5-5.2L241,359
					c0-3.4,2.4-6.3,5.5-6.7l48-6.7l0.2-121.2l-59.8,8.4c-2.9,0.4-5.2-1.7-5.2-4.9l0.1-48.1c0-3.2,2.3-5.9,5.2-6.3l87.2-12.3
					l25.9-3.6l1.4-0.2l71-10c18.7-2.6,36.4,4.2,47.6,18.8c39.6,51.1,22.6,114.3-16.3,147.5l75.4,59.1c46.3-6.5,84-52.3,84.1-102.4
					c0.1-50-37.3-85.3-83.8-78.8l-26.8,3.8l0.1-59.3L527.7,132.3z M404.5,276.5c17.3-2.4,31.3-19.5,31.3-38.3
					c0-18.6-13.9-31.8-31.2-29.4l-54.9,7.7l-0.1,68.4L404.5,276.5"/>
			</g>
		</g>
		<g class="st0">
			<g class="st0">
				<g>
					<defs>
						<path id="SVGID_00000116211355660546703800000016498710039645889934_" d="M774.9,146.6l22.8,12.4c8.9,4.8,14.7,14.7,14.7,26.8
							c0,18.8-14.1,35.9-31.3,38.5l-22.8-12.4c17.3-2.6,31.3-19.7,31.3-38.5C789.6,161.3,783.8,151.5,774.9,146.6z"/>
					</defs>
					<clipPath id="SVGID_00000050626117168480848660000014881190373511624075_">
						<use xlink:href="#SVGID_00000116211355660546703800000016498710039645889934_"  style="overflow:visible;"/>
					</clipPath>
					<g style="clip-path:url(#SVGID_00000050626117168480848660000014881190373511624075_);enable-background:new    ;">
						<path class="st4" d="M781.1,224.3l-22.8-12.4c1.4-0.2,2.8-0.5,4.2-0.9l22.8,12.4C783.9,223.8,782.5,224.1,781.1,224.3"/>
						<path class="st5" d="M785.2,223.4L762.4,211c2.6-0.8,5.2-1.9,7.6-3.3l22.8,12.4C790.4,221.5,787.9,222.6,785.2,223.4"/>
						<path class="st6" d="M792.8,220.1L770,207.7c1.9-1.1,3.7-2.4,5.4-3.8l22.8,12.4C796.5,217.7,794.7,219,792.8,220.1"/>
						<path class="st7" d="M798.2,216.3l-22.8-12.4c1.6-1.4,3.2-2.9,4.6-4.6l22.8,12.4C801.4,213.4,799.8,214.9,798.2,216.3"/>
						<path class="st8" d="M802.8,211.7L780,199.3c1.6-1.9,3-3.9,4.2-6l22.8,12.4C805.8,207.8,804.3,209.8,802.8,211.7"/>
						<path class="st2" d="M807,205.6l-22.8-12.4c3.4-5.9,5.4-12.7,5.4-19.8c0-12.1-5.9-22-14.7-26.8l22.8,12.4
							c8.9,4.8,14.7,14.7,14.7,26.8C812.4,192.9,810.4,199.7,807,205.6"/>
					</g>
				</g>
			</g>
			<g>
				<polygon class="st10" points="709.8,406.6 687,394.2 687.2,247.6 710,260 				"/>
			</g>
			<g>
				<polygon class="st10" points="710,260 687.2,247.6 687.3,221.9 710.1,234.3 				"/>
			</g>
			<g>
				<polygon class="st11" points="710.1,234.3 687.3,221.9 758.3,211.9 781.1,224.3 				"/>
			</g>
			<g class="st0">
				<g>
					<defs>
						<path id="SVGID_00000148628287085211022350000009780247943579586204_" d="M799.3,93l22.8,12.4c-11.5-6.2-24.8-9.4-39.1-8.6
							l-22.8-12.4C774.6,83.6,787.9,86.7,799.3,93z"/>
					</defs>
					<clipPath id="SVGID_00000119814676650717720970000005740463711806267524_">
						<use xlink:href="#SVGID_00000148628287085211022350000009780247943579586204_"  style="overflow:visible;"/>
					</clipPath>
					<g style="clip-path:url(#SVGID_00000119814676650717720970000005740463711806267524_);enable-background:new    ;">
						<path class="st4" d="M783,96.7l-22.8-12.4c10.7-0.6,20.8,1.1,30,4.5l22.8,12.4C803.8,97.8,793.7,96.2,783,96.7"/>
						<path class="st5" d="M813.1,101.2l-22.8-12.4c3.1,1.2,6.2,2.6,9.1,4.1l22.8,12.4C819.2,103.8,816.2,102.4,813.1,101.2"/>
					</g>
				</g>
			</g>
			<g class="st0">
				<g>
					<defs>
						<path id="SVGID_00000172428975533159750120000010995534370766381445_" d="M781.3,96.6l-22.8-12.4c0.5,0.1,1.2,0,1.7,0.1
							L783,96.7C782.5,96.6,781.8,96.7,781.3,96.6z"/>
					</defs>
					<clipPath id="SVGID_00000099632260670373382630000014220998553019470741_">
						<use xlink:href="#SVGID_00000172428975533159750120000010995534370766381445_"  style="overflow:visible;"/>
					</clipPath>
					<g style="clip-path:url(#SVGID_00000099632260670373382630000014220998553019470741_);enable-background:new    ;">
						<path class="st4" d="M781.3,96.6l-22.8-12.4c0.5,0.1,1.2,0,1.7,0.1L783,96.7C782.5,96.6,781.8,96.7,781.3,96.6"/>
					</g>
				</g>
			</g>
			<g>
				<polygon class="st10" points="710.2,166.1 687.4,153.7 687.5,127 710.2,139.4 				"/>
			</g>
			<g>
				<polygon class="st11" points="710.3,106.6 687.5,94.2 758.5,84.2 781.3,96.6 				"/>
			</g>
			<g>
				<polygon class="st10" points="710.2,139.4 687.5,127 687.5,94.2 710.3,106.6 				"/>
			</g>
			<g>
				<path class="st19" d="M781.3,96.6c0.5,0.1,1.2,0,1.7,0.1c44.4-2.3,79.2,32.9,79.1,81.5c-0.1,51.5-38.9,98.7-86.5,105.4
					c-1.7,0.2-3.6,0.5-5.4,0.6c-1.9,0.5-3.6,0.7-5.4,0.9l-0.2,113.7l-54.9,7.7L710,260v-25.7l71-10c17.3-2.6,31.3-19.7,31.3-38.5
					c0-18.6-13.9-32-31.2-29.7l-71,10v-26.7l0.1-32.8L781.3,96.6z"/>
			</g>
		</g>
	</g>
	
		<linearGradient id="SVGID_00000155833461365540253670000006317374241151116968_" gradientUnits="userSpaceOnUse" x1="13.6" y1="201.4" x2="281.5" y2="201.4" gradientTransform="matrix(1 0 0 -1 0 570)">
		<stop  offset="0.4116" style="stop-color:#00FFFF;stop-opacity:0"/>
		<stop  offset="0.5384" style="stop-color:#00E0FF;stop-opacity:0.2032"/>
		<stop  offset="0.8138" style="stop-color:#0092FF;stop-opacity:0.6445"/>
		<stop  offset="1" style="stop-color:#005AFF;stop-opacity:0.9429"/>
	</linearGradient>
	<path style="fill:url(#SVGID_00000155833461365540253670000006317374241151116968_);" d="M281.4,338.3V226.1l-46.5,6.5
		c0,0-2.4,0.2-3.3-0.8l-14.3-7.8L13.6,245v268.2l267.9-55.1v-51.4l-35,4.9c0,0-2.1,0.2-3-0.5l-15.7-8.5l1.5-50.1
		c0,0,0.7-6.2,4.9-7.1L281.4,338.3z"/>
	<g>
		<g>
			<g class="st0">
				<g class="st0">
					<g>
						<defs>
							<path id="SVGID_00000114752888277954564030000014750421968071767231_" d="M241.5,258.9l11.4,6.2c-1.6-0.9-3.6-1.3-5.7-1
								l-11.4-6.2C237.9,257.7,239.8,258,241.5,258.9z"/>
						</defs>
						<clipPath id="SVGID_00000178924380856752233130000008571890517494959294_">
							<use xlink:href="#SVGID_00000114752888277954564030000014750421968071767231_"  style="overflow:visible;"/>
						</clipPath>
						<g style="clip-path:url(#SVGID_00000178924380856752233130000008571890517494959294_);enable-background:new    ;">
							<path class="st25" d="M247.2,264.1l-11.4-6.2c2.1-0.3,4,0.1,5.7,1l11.4,6.2C251.2,264.2,249.3,263.9,247.2,264.1"/>
						</g>
					</g>
				</g>
				<g class="st0">
					<g>
						<defs>
							<path id="SVGID_00000170270314835149058960000014485663897185501336_" d="M172.5,337.2l-11.4-6.2c-3-1.6-5-5-5-9l11.4,6.2
								C167.6,332.2,169.6,335.6,172.5,337.2z"/>
						</defs>
						<clipPath id="SVGID_00000164498505895522505400000001574654962619452581_">
							<use xlink:href="#SVGID_00000170270314835149058960000014485663897185501336_"  style="overflow:visible;"/>
						</clipPath>
						<g style="clip-path:url(#SVGID_00000164498505895522505400000001574654962619452581_);enable-background:new    ;">
							<path class="st27" d="M172.5,337.2l-11.4-6.2c-3-1.6-5-5-5-9l11.4,6.2C167.6,332.2,169.6,335.6,172.5,337.2"/>
						</g>
					</g>
				</g>
				<g>
					<polygon class="st28" points="178.3,273.8 167,267.6 235.8,257.9 247.2,264.1 					"/>
				</g>
				<g>
					<polygon class="st29" points="167.6,328.2 156.2,322 156.3,280.7 167.6,286.9 					"/>
				</g>
				<g>
					<path class="st30" d="M247.2,264.1c5.9-0.8,10.7,3.7,10.7,10l-0.1,41.3c0,6.3-4.8,12.2-10.7,13l-68.8,9.7
						c-5.9,0.8-10.7-3.7-10.7-10l0.1-41.3c0-6.3,4.8-12.2,10.7-13L247.2,264.1z"/>
				</g>
				<g class="st0">
					<g>
						<defs>
							<path id="SVGID_00000108305379599591367010000011168418717431847593_" d="M167.6,286.9l-11.4-6.2c0-6.3,4.8-12.2,10.7-13
								l11.4,6.2C172.5,274.6,167.7,280.5,167.6,286.9z"/>
						</defs>
						<clipPath id="SVGID_00000058559286481384018840000002318729775190865029_">
							<use xlink:href="#SVGID_00000108305379599591367010000011168418717431847593_"  style="overflow:visible;"/>
						</clipPath>
						<g style="clip-path:url(#SVGID_00000058559286481384018840000002318729775190865029_);enable-background:new    ;">
							<path class="st27" d="M167.6,286.9l-11.4-6.2c0-2.8,1-5.6,2.6-7.8l11.4,6.2C168.6,281.3,167.7,284,167.6,286.9"/>
							<path class="st32" d="M170.2,279l-11.4-6.2c0.5-0.7,1.1-1.4,1.8-2.1L172,277C171.3,277.6,170.7,278.3,170.2,279"/>
							<path class="st33" d="M172,277l-11.4-6.2c0.6-0.6,1.2-1.1,1.9-1.5l11.4,6.2C173.3,275.9,172.6,276.4,172,277"/>
							<path class="st34" d="M173.9,275.5l-11.4-6.2c0.8-0.5,1.6-0.9,2.4-1.2l11.4,6.2C175.5,274.6,174.7,275,173.9,275.5"/>
							<path class="st25" d="M176.3,274.3l-11.4-6.2c0.7-0.2,1.3-0.4,2-0.5l11.4,6.2C177.7,273.9,177,274.1,176.3,274.3"/>
						</g>
					</g>
				</g>
			</g>
		</g>
	</g>
	<g>
		<g>
			<g class="st0">
				<g class="st0">
					<g>
						<defs>
							<path id="SVGID_00000029737866705212401760000013163008739548625830_" d="M176,347l11.4,6.2c-1-0.5-2.2-0.8-3.4-0.6
								l-11.4-6.2C173.8,346.2,175,346.5,176,347z"/>
						</defs>
						<clipPath id="SVGID_00000112612478627536007260000012727319265638203273_">
							<use xlink:href="#SVGID_00000029737866705212401760000013163008739548625830_"  style="overflow:visible;"/>
						</clipPath>
						<g style="clip-path:url(#SVGID_00000112612478627536007260000012727319265638203273_);enable-background:new    ;">
							<path class="st36" d="M184,352.6l-11.4-6.2c1.2-0.2,2.4,0.1,3.4,0.6l11.4,6.2C186.4,352.7,185.2,352.4,184,352.6"/>
						</g>
					</g>
				</g>
				<g class="st0">
					<g>
						<defs>
							<path id="SVGID_00000075125148719651774790000001498962722378082732_" d="M136.7,398.5l-11.4-6.2c-1.8-1-3-3-3-5.4l11.4,6.2
								C133.7,395.6,134.9,397.6,136.7,398.5z"/>
						</defs>
						<clipPath id="SVGID_00000001660360649438290090000016779457233793466033_">
							<use xlink:href="#SVGID_00000075125148719651774790000001498962722378082732_"  style="overflow:visible;"/>
						</clipPath>
						<g style="clip-path:url(#SVGID_00000001660360649438290090000016779457233793466033_);enable-background:new    ;">
							<path class="st38" d="M136.7,398.5l-11.4-6.2c-1.8-1-3-3-3-5.4l11.4,6.2C133.7,395.6,134.9,397.6,136.7,398.5"/>
						</g>
					</g>
				</g>
				<g>
					<polygon class="st39" points="140.2,358.8 128.8,352.6 172.6,346.4 184,352.6 					"/>
				</g>
				<g>
					<polygon class="st40" points="133.7,393.1 122.3,386.9 122.4,360.4 133.8,366.6 					"/>
				</g>
				<g>
					<path class="st41" d="M184,352.6c3.5-0.5,6.4,2.2,6.4,6v26.5c0,3.8-2.9,7.3-6.4,7.8l-43.8,6.2c-3.5,0.5-6.4-2.2-6.4-6v-26.5
						c0-3.8,2.9-7.3,6.4-7.8L184,352.6z"/>
				</g>
				<g class="st0">
					<g>
						<defs>
							<path id="SVGID_00000155136375643999795710000011385172673818583471_" d="M133.8,366.6l-11.4-6.2c0-3.8,2.9-7.3,6.4-7.8
								l11.4,6.2C136.7,359.3,133.8,362.8,133.8,366.6z"/>
						</defs>
						<clipPath id="SVGID_00000007402466681699721470000014079493611765260474_">
							<use xlink:href="#SVGID_00000155136375643999795710000011385172673818583471_"  style="overflow:visible;"/>
						</clipPath>
						<g style="clip-path:url(#SVGID_00000007402466681699721470000014079493611765260474_);enable-background:new    ;">
							<path class="st38" d="M133.8,366.6l-11.4-6.2c0-1.7,0.6-3.3,1.5-4.7l11.4,6.2C134.3,363.2,133.8,364.9,133.8,366.6"/>
							<path class="st43" d="M135.3,361.9l-11.4-6.2c0.3-0.4,0.7-0.9,1.1-1.2l11.4,6.2C136,361,135.6,361.4,135.3,361.9"/>
							<path class="st44" d="M136.4,360.7l-11.4-6.2c0.4-0.3,0.7-0.6,1.2-0.9l11.4,6.2C137.1,360,136.7,360.3,136.4,360.7"/>
							<path class="st45" d="M137.5,359.7l-11.4-6.2c0.5-0.3,0.9-0.5,1.4-0.7L139,359C138.5,359.2,138,359.5,137.5,359.7"/>
							<path class="st36" d="M139,359l-11.4-6.2c0.4-0.1,0.8-0.2,1.2-0.3l11.4,6.2C139.8,358.8,139.4,358.9,139,359"/>
						</g>
					</g>
				</g>
			</g>
		</g>
	</g>
	<g>
		<g>
			<g class="st0">
				<g class="st0">
					<g>
						<defs>
							<path id="SVGID_00000026878436501025412590000001108207220274037157_" d="M97.5,327.5l11.4,6.2c-1.6-0.9-3.6-1.3-5.7-1
								l-11.4-6.2C93.9,326.2,95.9,326.6,97.5,327.5z"/>
						</defs>
						<clipPath id="SVGID_00000178910642558778550670000017760210889061590677_">
							<use xlink:href="#SVGID_00000026878436501025412590000001108207220274037157_"  style="overflow:visible;"/>
						</clipPath>
						<g style="clip-path:url(#SVGID_00000178910642558778550670000017760210889061590677_);enable-background:new    ;">
							<path class="st47" d="M103.2,332.7l-11.4-6.2c2.1-0.3,4,0.1,5.7,1l11.4,6.2C107.3,332.8,105.3,332.4,103.2,332.7"/>
						</g>
					</g>
				</g>
				<g class="st0">
					<g>
						<defs>
							<path id="SVGID_00000085946924182079925350000010185237964402293425_" d="M29.7,404.8l-11.4-6.2c-3-1.6-5-5-5-9l11.4,6.2
								C24.7,399.8,26.7,403.2,29.7,404.8z"/>
						</defs>
						<clipPath id="SVGID_00000121272526645680490030000006846712752688102069_">
							<use xlink:href="#SVGID_00000085946924182079925350000010185237964402293425_"  style="overflow:visible;"/>
						</clipPath>
						<g style="clip-path:url(#SVGID_00000121272526645680490030000006846712752688102069_);enable-background:new    ;">
							<path class="st49" d="M29.7,404.8l-11.4-6.2c-3-1.6-5-5-5-9l11.4,6.2C24.7,399.8,26.7,403.2,29.7,404.8"/>
						</g>
					</g>
				</g>
				<g>
					<polygon class="st50" points="35.5,342.2 24.1,336 91.8,326.5 103.2,332.7 					"/>
				</g>
				<g>
					<polygon class="st51" points="24.7,395.7 13.3,389.5 13.4,349.1 24.8,355.3 					"/>
				</g>
				<g>
					<path class="st52" d="M103.2,332.7c5.9-0.8,10.7,3.7,10.7,10l-0.1,40.5c0,6.3-4.8,12.2-10.7,13l-67.7,9.5
						c-5.9,0.8-10.7-3.7-10.7-10l0.1-40.5c0-6.3,4.8-12.2,10.7-13L103.2,332.7z"/>
				</g>
				<g class="st0">
					<g>
						<defs>
							<path id="SVGID_00000056394857640409445450000017320902809210082441_" d="M24.8,355.3l-11.4-6.2c0-6.3,4.8-12.2,10.7-13
								l11.4,6.2C29.6,343.1,24.8,348.9,24.8,355.3z"/>
						</defs>
						<clipPath id="SVGID_00000076567982801223971480000010216135575493690755_">
							<use xlink:href="#SVGID_00000056394857640409445450000017320902809210082441_"  style="overflow:visible;"/>
						</clipPath>
						<g style="clip-path:url(#SVGID_00000076567982801223971480000010216135575493690755_);enable-background:new    ;">
							<path class="st49" d="M24.8,355.3l-11.4-6.2c0-2.8,1-5.6,2.6-7.8l11.4,6.2C25.8,349.7,24.8,352.4,24.8,355.3"/>
							<path class="st54" d="M27.4,347.4L16,341.2c0.5-0.7,1.1-1.4,1.8-2.1l11.4,6.2C28.5,346,27.9,346.7,27.4,347.4"/>
							<path class="st55" d="M29.1,345.4l-11.4-6.2c0.6-0.6,1.2-1.1,1.9-1.5l11.4,6.2C30.4,344.3,29.7,344.8,29.1,345.4"/>
							<path class="st56" d="M31.1,343.9l-11.4-6.2c0.8-0.5,1.6-0.9,2.4-1.2l11.4,6.2C32.6,343,31.8,343.4,31.1,343.9"/>
							<path class="st47" d="M33.5,342.7l-11.4-6.2c0.7-0.2,1.3-0.4,2-0.5l11.4,6.2C34.8,342.3,34.1,342.5,33.5,342.7"/>
						</g>
					</g>
				</g>
			</g>
		</g>
	</g>
	<g>
		<g>
			<g class="st0">
				<g class="st0">
					<g>
						<defs>
							<path id="SVGID_00000003798773867609060840000007019576290593855888_" d="M118.2,277.4l11.4,6.2c-1-0.5-2.1-0.8-3.4-0.6
								l-11.4-6.2C116.1,276.7,117.3,276.9,118.2,277.4z"/>
						</defs>
						<clipPath id="SVGID_00000112609142019444495080000008561010251862037903_">
							<use xlink:href="#SVGID_00000003798773867609060840000007019576290593855888_"  style="overflow:visible;"/>
						</clipPath>
						<g style="clip-path:url(#SVGID_00000112609142019444495080000008561010251862037903_);enable-background:new    ;">
							<path class="st58" d="M126.3,283l-11.4-6.2c1.2-0.2,2.4,0.1,3.4,0.6l11.4,6.2C128.7,283.1,127.5,282.9,126.3,283"/>
						</g>
					</g>
				</g>
				<g class="st0">
					<g>
						<defs>
							<path id="SVGID_00000064330217803429119420000006798854146028182946_" d="M91,318.7l-11.4-6.2c-1.8-1-3-2.9-3-5.4l11.4,6.2
								C88,315.8,89.2,317.7,91,318.7z"/>
						</defs>
						<clipPath id="SVGID_00000086670549884921796560000010465495954878137228_">
							<use xlink:href="#SVGID_00000064330217803429119420000006798854146028182946_"  style="overflow:visible;"/>
						</clipPath>
						<g style="clip-path:url(#SVGID_00000086670549884921796560000010465495954878137228_);enable-background:new    ;">
							<path class="st60" d="M91,318.7l-11.4-6.2c-1.8-1-3-2.9-3-5.4l11.4,6.2C88,315.8,89.2,317.7,91,318.7"/>
						</g>
					</g>
				</g>
				<g>
					<polygon class="st61" points="94.4,287.5 83,281.3 114.9,276.8 126.3,283 					"/>
				</g>
				<g>
					<polygon class="st62" points="88,313.3 76.6,307.1 76.7,289.1 88.1,295.3 					"/>
				</g>
				<g>
					<path class="st63" d="M126.3,283c3.5-0.5,6.4,2.2,6.3,6v18.1c0,3.8-2.9,7.3-6.4,7.8l-31.8,4.5c-3.5,0.5-6.4-2.2-6.3-6v-18.1
						c0-3.8,2.9-7.3,6.4-7.8L126.3,283z"/>
				</g>
				<g class="st0">
					<g>
						<defs>
							<path id="SVGID_00000059279467200501151000000006098095489161934527_" d="M88.1,295.3l-11.4-6.2c0-3.8,2.9-7.3,6.4-7.8
								l11.4,6.2C90.9,288,88.1,291.5,88.1,295.3z"/>
						</defs>
						<clipPath id="SVGID_00000001622194338681993040000006353631896065716641_">
							<use xlink:href="#SVGID_00000059279467200501151000000006098095489161934527_"  style="overflow:visible;"/>
						</clipPath>
						<g style="clip-path:url(#SVGID_00000001622194338681993040000006353631896065716641_);enable-background:new    ;">
							<path class="st60" d="M88.1,295.3l-11.4-6.2c0-1.7,0.6-3.3,1.5-4.6l11.4,6.2C88.6,292,88.1,293.6,88.1,295.3"/>
							<path class="st65" d="M89.6,290.6l-11.4-6.2c0.3-0.4,0.7-0.9,1.1-1.2l11.4,6.2C90.3,289.8,89.9,290.2,89.6,290.6"/>
							<path class="st66" d="M90.7,289.4l-11.4-6.2c0.4-0.3,0.7-0.6,1.2-0.9l11.4,6.2C91.4,288.8,91,289.1,90.7,289.4"/>
							<path class="st67" d="M91.8,288.5l-11.4-6.2c0.5-0.3,0.9-0.5,1.4-0.7l11.4,6.2C92.7,288,92.3,288.2,91.8,288.5"/>
							<path class="st58" d="M93.2,287.8l-11.4-6.2c0.4-0.1,0.8-0.2,1.2-0.3l11.4,6.2C94,287.6,93.6,287.7,93.2,287.8"/>
						</g>
					</g>
				</g>
			</g>
		</g>
	</g>
</g>
</svg>
