<?xml version="1.0" encoding="utf-8"?>
<!-- Generator: Adobe Illustrator 25.0.0, SVG Export Plug-In . SVG Version: 6.00 Build 0)  -->
<svg version="1.1" id="Layer_1" xmlns="http://www.w3.org/2000/svg" xmlns:xlink="http://www.w3.org/1999/xlink" x="0px" y="0px"
	 viewBox="0 0 410 161" style="enable-background:new 0 0 410 161;" xml:space="preserve">
<style type="text/css">
	.st0{fill:#FFFFFF;}
</style>
<g>
	<path class="st0" d="M216.7,0.5h-15.5v31.8h15.5h0c26.9,0,48.6,21.8,48.6,48.6c0,26.9-21.8,48.6-48.6,48.6l-43.7-37.4
		c22.5-14.9,32.3-47.5,9.3-77.9c-6.5-8.7-16.8-13.7-27.6-13.7h-41.1h-0.8H97.8H47.3c-1.7,0-3,1.3-3,3v25.8c0,1.7,1.3,3,3,3h34.6v65
		H54.1c-1.8,0-3.2,1.4-3.2,3.2V126c0,1.8,1.4,3.2,3.2,3.2h27.8v32.3h31.8V73l102.1,88c0.8,0.7,1.5,0.4,2.5,0.4
		c43.7-0.9,78.9-36.6,78.9-80.5C297.2,36.5,261.2,0.5,216.7,0.5z M145.5,68.6L145.5,68.6L113.7,69V32.3h31.8v0
		c10,0,18.1,8.1,18.1,18.1C163.6,60.5,155.5,68.6,145.5,68.6z"/>
	<path class="st0" d="M21.2,76.5h45.7c1.4,0,2.6-1.2,2.6-2.6V47.3c0-1.4-1.2-2.6-2.6-2.6H21.2c-1.4,0-2.6,1.2-2.6,2.6V74
		C18.6,75.4,19.8,76.5,21.2,76.5z"/>
	<path class="st0" d="M17,105.3h22.6c0.8,0,1.4-0.6,1.4-1.4V90.8c0-0.8-0.6-1.4-1.4-1.4H17c-0.8,0-1.4,0.6-1.4,1.4v13.1
		C15.5,104.7,16.2,105.3,17,105.3z"/>
	<path class="st0" d="M45.9,129.6h-22c-1,0-1.7,0.8-1.7,1.7v12.5c0,1,0.8,1.7,1.7,1.7h22c1,0,1.7-0.8,1.7-1.7v-12.5
		C47.6,130.4,46.8,129.6,45.9,129.6z"/>
	<path class="st0" d="M17.1,113.7h-16c-0.8,0-1.5,0.7-1.5,1.5v8.9c0,0.8,0.7,1.5,1.5,1.5h16c0.8,0,1.5-0.7,1.5-1.5v-8.9
		C18.6,114.4,18,113.7,17.1,113.7z"/>
	<path class="st0" d="M364.5,0.7c-0.3-0.1-0.7-0.1-1-0.2h-41.1v17.6v14.3h41.1v0c10,0.1,18.1,8.3,18.1,18.3
		c0,10.1-8.1,18.2-18.1,18.3v0h-41.1v13.8v78.6h31.8v-61c1,0,2,0,3.1-0.1c1,0.1,2.1,0.1,3.1,0.1c27.6,0,50-22.4,50-50
		C410.4,24.3,390.2,2.8,364.5,0.7z"/>
</g>
</svg>
