<?xml version="1.0" encoding="utf-8"?>
<!-- Generator: Adobe Illustrator 25.0.0, SVG Export Plug-In . SVG Version: 6.00 Build 0)  -->
<svg version="1.1" id="Layer_1" xmlns="http://www.w3.org/2000/svg" xmlns:xlink="http://www.w3.org/1999/xlink" x="0px" y="0px"
	 viewBox="0 0 410 197" style="enable-background:new 0 0 410 197;" xml:space="preserve">
<style type="text/css">
	.st0{fill:#FFFFFF;}
	.st1{fill:#4338C9;}
</style>
<g>
	<path class="st0" d="M216.7,0.5h-15.5v31.8h15.5h0c26.9,0,48.6,21.8,48.6,48.6c0,26.9-21.8,48.6-48.6,48.6l-43.7-37.4
		c22.5-14.9,32.3-47.5,9.3-77.9c-6.5-8.7-16.8-13.7-27.6-13.7h-41.1h-0.8H97.8H47.3c-1.7,0-3,1.3-3,3v25.8c0,1.7,1.3,3,3,3h34.6v65
		H54.1c-1.8,0-3.2,1.4-3.2,3.2V126c0,1.8,1.4,3.2,3.2,3.2h27.8v32.3h31.8V73l102.1,88c0.8,0.7,1.5,0.4,2.5,0.4
		c43.7-0.9,78.9-36.6,78.9-80.5C297.2,36.5,261.2,0.5,216.7,0.5z M145.5,68.6L145.5,68.6L113.7,69V32.3h31.8v0
		c10,0,18.1,8.1,18.1,18.1C163.6,60.5,155.5,68.6,145.5,68.6z"/>
	<path class="st1" d="M21.2,76.5h45.7c1.4,0,2.6-1.2,2.6-2.6V47.3c0-1.4-1.2-2.6-2.6-2.6H21.2c-1.4,0-2.6,1.2-2.6,2.6V74
		C18.6,75.4,19.8,76.5,21.2,76.5z"/>
	<path class="st1" d="M17,105.3h22.6c0.8,0,1.4-0.6,1.4-1.4V90.8c0-0.8-0.6-1.4-1.4-1.4H17c-0.8,0-1.4,0.6-1.4,1.4v13.1
		C15.5,104.7,16.2,105.3,17,105.3z"/>
	<path class="st1" d="M45.9,129.6h-22c-1,0-1.7,0.8-1.7,1.7v12.5c0,1,0.8,1.7,1.7,1.7h22c1,0,1.7-0.8,1.7-1.7v-12.5
		C47.6,130.4,46.8,129.6,45.9,129.6z"/>
	<path class="st1" d="M17.1,113.7h-16c-0.8,0-1.5,0.7-1.5,1.5v8.9c0,0.8,0.7,1.5,1.5,1.5h16c0.8,0,1.5-0.7,1.5-1.5v-8.9
		C18.6,114.4,18,113.7,17.1,113.7z"/>
	<path class="st0" d="M364.5,0.7c-0.3-0.1-0.7-0.1-1-0.2h-41.1v17.6v14.3h41.1v0c10,0.1,18.1,8.3,18.1,18.3
		c0,10.1-8.1,18.2-18.1,18.3v0h-41.1v13.8v78.6h31.8v-61c1,0,2,0,3.1-0.1c1,0.1,2.1,0.1,3.1,0.1c27.6,0,50-22.4,50-50
		C410.4,24.3,390.2,2.8,364.5,0.7z"/>
</g>
<g>
	<path class="st1" d="M12.9,196.5c-0.2-0.8-0.5-1.9-1.3-4.1c-0.8-2.3-1.2-2.9-1.8-3.5c-0.6-0.5-1.2-0.7-2.1-0.7H5v4.4
		c0,1.8,0.1,2.8,0.2,4h-5.7c0.2-1.2,0.2-2,0.2-4v-14.3c0-1.6-0.1-2.6-0.2-3.9c1.2,0.1,2.1,0.1,4,0.1h6.9c4.3,0,6.8,2.2,6.8,6
		c0,1.9-0.5,3.4-1.6,4.4c-0.7,0.6-1.2,0.9-2.5,1.3c1.4,0.4,2,1,2.8,2.9c0.4,0.8,0.8,1.8,2,4.6c0.3,0.7,0.6,1.4,1.3,2.8H12.9z
		 M9.2,183.6c1.6,0,2.5-1,2.5-2.5c0-1.5-0.8-2.3-2.5-2.3H5v4.7H9.2z"/>
	<path class="st1" d="M25.3,189.9c0.3,2.1,1.5,3.3,3.6,3.3c1.1,0,2-0.3,2.7-1c0.4-0.4,0.6-0.7,0.8-1.4l4.6,1.3c-0.6,1.4-1,2-1.8,2.7
		c-1.5,1.5-3.6,2.3-6.3,2.3c-2.6,0-4.6-0.7-6.2-2.3c-1.6-1.6-2.4-3.8-2.4-6.5c0-5.3,3.4-8.7,8.4-8.7c4.1,0,7,2.3,8,6.2
		c0.2,0.8,0.3,2,0.4,3.5c0,0.1,0,0.3,0,0.5H25.3z M32.2,186.2c-0.4-1.7-1.5-2.6-3.3-2.6c-1.9,0-3,0.8-3.5,2.6H32.2z"/>
	<path class="st1" d="M44,191c0.3,1.4,1.2,2,2.9,2c1.6,0,2.5-0.5,2.5-1.3c0-0.4-0.2-0.7-0.6-1c-0.4-0.2-0.7-0.3-2.2-0.6
		c-2-0.4-3.1-0.7-3.9-1c-1.3-0.5-2.1-1.1-2.7-1.9c-0.4-0.7-0.7-1.6-0.7-2.5c0-3.2,2.7-5.1,7.1-5.1c2.5,0,4.4,0.6,5.7,1.7
		c0.9,0.8,1.3,1.5,1.7,3l-5.1,0.6c-0.1-1.1-0.8-1.6-2.2-1.6c-1.4,0-2.2,0.5-2.2,1.1c0,0.7,0.6,1,3.2,1.6c2.6,0.6,3.4,0.8,4.4,1.3
		c1.7,0.8,2.5,2.1,2.5,4.1c0,1.4-0.5,2.7-1.4,3.5c-1.3,1.3-3.4,1.9-6.3,1.9c-3.3,0-5.7-0.9-7-2.7c-0.5-0.7-0.8-1.4-1.1-2.7L44,191z"
		/>
	<path class="st1" d="M56,188.3c0-5.3,3.4-8.7,8.8-8.7c5.4,0,8.8,3.4,8.8,8.6c0,5.3-3.5,8.8-8.8,8.8C59.4,197.1,56,193.7,56,188.3z
		 M61.1,188.3c0,2.9,1.4,4.7,3.7,4.7s3.6-1.7,3.6-4.7c0-3-1.4-4.7-3.6-4.7C62.5,183.6,61.1,185.4,61.1,188.3z"/>
	<path class="st1" d="M92.4,180.3c-0.2,1.2-0.2,2.4-0.2,4v8.2c0,1.8,0.1,2.9,0.2,4h-5.3v-1.1c0-0.1,0-0.5,0-0.7
		c-1.8,1.6-3.3,2.3-5.5,2.3c-1.8,0-3.2-0.5-4.2-1.5c-1.1-1.1-1.5-2.4-1.5-4.5v-6.7c0-1.5-0.1-2.9-0.2-4h5.5c-0.2,1.3-0.2,2.4-0.2,4
		v5.4c0,1.1,0.1,1.6,0.4,2c0.4,0.5,1,0.7,1.7,0.7c1.5,0,2.9-1,4-2.7v-5.4c0-1.5-0.1-2.6-0.2-4H92.4z"/>
	<path class="st1" d="M107.1,185.1c-1.2-0.4-1.9-0.5-2.7-0.5c-1.4,0-2.4,0.5-3.2,1.4c-0.5,0.6-0.7,1.2-0.8,2.4v4.1
		c0,1.7,0.1,2.7,0.2,4h-5.5c0.2-1.3,0.2-2.3,0.2-4v-8.2c0-1.9-0.1-2.9-0.2-4h5.3v2.1c1.3-1.7,2.9-2.4,5.3-2.4c0.8,0,1.4,0.1,2.6,0.3
		L107.1,185.1z"/>
	<path class="st1" d="M120.8,186.2c-0.2-0.8-0.4-1.2-0.7-1.6c-0.5-0.6-1.3-0.9-2.2-0.9c-2.1,0-3.4,1.7-3.4,4.6
		c0,2.9,1.4,4.7,3.5,4.7c1,0,2-0.4,2.5-1.2c0.2-0.3,0.4-0.6,0.5-1.2l4.9,0.8c-0.3,1.1-0.6,1.9-1.1,2.6c-1.3,2-3.7,3.1-6.8,3.1
		c-2.5,0-4.7-0.8-6.2-2.3c-1.5-1.5-2.4-3.8-2.4-6.4c0-5.3,3.3-8.7,8.5-8.7c4.1,0,6.9,2,7.8,5.5L120.8,186.2z"/>
	<path class="st1" d="M132,189.9c0.3,2.1,1.5,3.3,3.6,3.3c1.1,0,2-0.3,2.7-1c0.4-0.4,0.6-0.7,0.8-1.4l4.6,1.3c-0.6,1.4-1,2-1.8,2.7
		c-1.5,1.5-3.6,2.3-6.3,2.3c-2.6,0-4.6-0.7-6.2-2.3c-1.6-1.6-2.4-3.8-2.4-6.5c0-5.3,3.4-8.7,8.4-8.7c4.1,0,7,2.3,8,6.2
		c0.2,0.8,0.3,2,0.4,3.5c0,0.1,0,0.3,0,0.5H132z M138.9,186.2c-0.4-1.7-1.5-2.6-3.3-2.6c-1.9,0-3,0.8-3.5,2.6H138.9z"/>
	<path class="st1" d="M155.4,178.2c0-1.8-0.1-2.7-0.2-3.9c1.1,0.1,1.7,0.1,3.9,0.1h5.5c3.3,0,5.9,0.9,7.7,2.6
		c1.9,1.9,2.9,4.7,2.9,8.2c0,3.6-1.1,6.6-3.1,8.6c-1.8,1.8-4.3,2.7-7.5,2.7h-5.6c-2,0-2.8,0-3.9,0.1c0.2-1.2,0.2-2,0.2-3.9V178.2z
		 M164.2,191.8c1.7,0,2.9-0.5,3.9-1.4c1.1-1.1,1.7-2.9,1.7-5.1c0-2.3-0.5-3.9-1.5-4.9c-0.9-0.9-2.2-1.4-4.1-1.4h-3.5v12.8H164.2z"/>
	<path class="st1" d="M183.2,180.3c-0.2,1.1-0.2,2.1-0.2,4v8.2c0,1.4,0.1,2.9,0.2,4h-5.5c0.2-1.3,0.2-2.3,0.2-4v-8.2
		c0-1.7-0.1-2.8-0.2-4H183.2z M183.1,174.4v4h-5.4v-4H183.1z"/>
	<path class="st1" d="M190.6,191c0.3,1.4,1.2,2,2.9,2c1.6,0,2.5-0.5,2.5-1.3c0-0.4-0.2-0.7-0.6-1c-0.4-0.2-0.7-0.3-2.2-0.6
		c-2-0.4-3.1-0.7-3.9-1c-1.3-0.5-2.1-1.1-2.7-1.9c-0.4-0.7-0.7-1.6-0.7-2.5c0-3.2,2.7-5.1,7.1-5.1c2.5,0,4.4,0.6,5.7,1.7
		c0.9,0.8,1.3,1.5,1.7,3l-5.1,0.6c-0.1-1.1-0.8-1.6-2.2-1.6c-1.4,0-2.2,0.5-2.2,1.1c0,0.7,0.6,1,3.2,1.6c2.6,0.6,3.4,0.8,4.4,1.3
		c1.7,0.8,2.5,2.1,2.5,4.1c0,1.4-0.5,2.7-1.4,3.5c-1.3,1.3-3.4,1.9-6.3,1.9c-3.3,0-5.7-0.9-7-2.7c-0.5-0.7-0.8-1.4-1.1-2.7
		L190.6,191z"/>
	<path class="st1" d="M214.2,186.2c-0.2-0.8-0.4-1.2-0.7-1.6c-0.5-0.6-1.3-0.9-2.2-0.9c-2.1,0-3.4,1.7-3.4,4.6
		c0,2.9,1.4,4.7,3.5,4.7c1,0,2-0.4,2.5-1.2c0.2-0.3,0.4-0.6,0.5-1.2l4.9,0.8c-0.3,1.1-0.6,1.9-1.1,2.6c-1.3,2-3.7,3.1-6.8,3.1
		c-2.5,0-4.7-0.8-6.2-2.3c-1.5-1.5-2.4-3.8-2.4-6.4c0-5.3,3.3-8.7,8.5-8.7c4.1,0,6.9,2,7.8,5.5L214.2,186.2z"/>
	<path class="st1" d="M220.5,188.3c0-5.3,3.4-8.7,8.8-8.7c5.4,0,8.8,3.4,8.8,8.6c0,5.3-3.5,8.8-8.8,8.8
		C223.9,197.1,220.5,193.7,220.5,188.3z M225.6,188.3c0,2.9,1.4,4.7,3.7,4.7c2.3,0,3.6-1.7,3.6-4.7c0-3-1.4-4.7-3.6-4.7
		C227,183.6,225.6,185.4,225.6,188.3z"/>
	<path class="st1" d="M244.8,180.3c0.1,0.6,0.2,1.2,0.5,2.3l2.5,8.3c0,0.1,0.1,0.2,0.1,0.3c0.1,0.3,0.1,0.3,0.2,0.7
		c0.1-0.2,0.1-0.4,0.1-0.5c0-0.1,0.1-0.1,0.1-0.3c0.1-0.1,0.1-0.2,0.1-0.3l2.5-8.2c0.3-1,0.5-1.7,0.5-2.3h5.9
		c-0.5,1.2-0.7,1.7-1.1,2.6l-4.5,11.4c-0.5,1.1-0.6,1.6-0.7,2.2h-5.8c-0.1-0.7-0.3-1.1-0.7-2.2l-4.5-11.4c-0.2-0.4-0.5-1.2-1.1-2.6
		H244.8z"/>
	<path class="st1" d="M263.1,189.9c0.3,2.1,1.5,3.3,3.6,3.3c1.1,0,2-0.3,2.7-1c0.4-0.4,0.6-0.7,0.8-1.4l4.6,1.3
		c-0.6,1.4-1,2-1.8,2.7c-1.5,1.5-3.6,2.3-6.3,2.3c-2.6,0-4.6-0.7-6.2-2.3c-1.6-1.6-2.4-3.8-2.4-6.5c0-5.3,3.4-8.7,8.4-8.7
		c4.1,0,7,2.3,8,6.2c0.2,0.8,0.3,2,0.4,3.5c0,0.1,0,0.3,0,0.5H263.1z M270,186.2c-0.4-1.7-1.5-2.6-3.3-2.6c-1.9,0-3,0.8-3.5,2.6H270
		z"/>
	<path class="st1" d="M289.1,185.1c-1.2-0.4-1.9-0.5-2.7-0.5c-1.4,0-2.4,0.5-3.2,1.4c-0.5,0.6-0.7,1.2-0.8,2.4v4.1
		c0,1.7,0.1,2.7,0.2,4h-5.5c0.2-1.3,0.2-2.3,0.2-4v-8.2c0-1.9-0.1-2.9-0.2-4h5.3v2.1c1.3-1.7,2.9-2.4,5.3-2.4c0.8,0,1.4,0.1,2.6,0.3
		L289.1,185.1z"/>
	<path class="st1" d="M292.3,183.8c-1.1-2.7-1.2-2.9-1.6-3.6h5.8c0.1,0.8,0.5,2,1,3.4l2.4,6.1l2.4-6c0.7-1.8,1-2.6,1.1-3.5h5.8
		c-0.7,1.4-0.7,1.4-1.6,3.6l-6.1,14c-1.1,2.5-3,3.6-6,3.6c-1.2,0-2.2-0.1-3.6-0.5l0.6-4.2c0.9,0.5,1.4,0.6,2.1,0.6
		c1,0,1.8-0.5,2.1-1.2l0.6-1.1L292.3,183.8z"/>
	<path class="st1" d="M319.8,196.5c0.2-1.2,0.2-2.4,0.2-3.9v-14.4c0-1.4-0.1-2.6-0.2-3.9c1.2,0.1,2.2,0.1,3.9,0.1h5.8
		c5.3,0,8.1,2.5,8.1,7.1c0,4.7-3,7.5-8.2,7.5h-4.2v3.4c0,1.6,0.1,2.9,0.2,4H319.8z M329.3,184.5c1.9,0,2.9-1,2.9-2.9
		c0-1.8-1-2.8-2.9-2.8h-4v5.7H329.3z"/>
	<path class="st1" d="M339.2,188.3c0-5.3,3.4-8.7,8.8-8.7c5.4,0,8.8,3.4,8.8,8.6c0,5.3-3.5,8.8-8.8,8.8
		C342.6,197.1,339.2,193.7,339.2,188.3z M344.2,188.3c0,2.9,1.4,4.7,3.7,4.7c2.3,0,3.6-1.7,3.6-4.7c0-3-1.4-4.7-3.6-4.7
		C345.6,183.6,344.2,185.4,344.2,188.3z"/>
	<path class="st1" d="M370.8,185.1c-1.2-0.4-1.9-0.5-2.7-0.5c-1.4,0-2.4,0.5-3.2,1.4c-0.5,0.6-0.7,1.2-0.8,2.4v4.1
		c0,1.7,0.1,2.7,0.2,4h-5.5c0.2-1.3,0.2-2.3,0.2-4v-8.2c0-1.9-0.1-2.9-0.2-4h5.3v2.1c1.3-1.7,2.9-2.4,5.3-2.4c0.8,0,1.4,0.1,2.6,0.3
		L370.8,185.1z"/>
	<path class="st1" d="M375.7,179.7c0-1.3-0.1-2.4-0.2-3.6h5.4c-0.1,1.1-0.2,2.4-0.2,3.6v0.6h1c1.2,0,1.8,0,2.6-0.1v4.4
		c-0.8-0.1-1.5-0.2-2.4-0.2h-1.1v6.8c0,0.7,0.1,1.1,0.5,1.4c0.3,0.2,0.7,0.3,1.2,0.3c0.7,0,1.2-0.1,1.9-0.5l0.4,4
		c-1.2,0.4-2.2,0.5-3.7,0.5c-1.8,0-3.1-0.3-3.9-0.9c-1-0.8-1.4-1.7-1.4-3.5v-8.1h-1c-0.8,0-1.5,0.1-2.3,0.2v-4.4
		c0.8,0.1,1.4,0.2,2.4,0.2h1V179.7z"/>
	<path class="st1" d="M397,185.4c0-1.3-0.8-1.9-2.5-1.9c-1.7,0-2.6,0.6-3,1.9l-5.1-0.8c0.5-1.6,1.1-2.4,2.2-3.2c1.4-1,3.4-1.5,6-1.5
		c2,0,3.9,0.4,4.9,0.9c1.7,0.9,2.4,2.4,2.4,4.8v7.2c0,1.6,0.1,2.6,0.2,3.8H397v-1.2c-1.5,1.1-3,1.6-5.1,1.6c-2,0-3.5-0.5-4.6-1.5
		c-1-0.9-1.5-2.1-1.5-3.6c0-1.7,0.7-3,1.9-3.9c1.4-1,3.1-1.5,5.5-1.7c1-0.1,1.8-0.1,3.7-0.2V185.4z M397,189.4
		c-2.4,0.1-3.5,0.2-4.6,0.5c-1,0.3-1.5,1-1.5,1.8c0,1,0.8,1.5,2.2,1.5c1.1,0,2.3-0.4,3-1c0.6-0.5,1-1.2,1-2V189.4z"/>
	<path class="st1" d="M410.5,174.4c-0.2,1.1-0.2,2.2-0.2,4v14.1c0,1.6,0.1,2.6,0.2,4h-5.5c0.2-1.2,0.2-2.1,0.2-4v-14.1
		c0-1.9-0.1-3-0.2-4H410.5z"/>
</g>
</svg>
