<?xml version="1.0" encoding="utf-8"?>
<!-- Generator: Adobe Illustrator 25.0.0, SVG Export Plug-In . SVG Version: 6.00 Build 0)  -->
<svg version="1.1" id="Layer_1" xmlns="http://www.w3.org/2000/svg" xmlns:xlink="http://www.w3.org/1999/xlink" x="0px" y="0px"
	 viewBox="0 0 731 161" style="enable-background:new 0 0 731 161;" xml:space="preserve">
<style type="text/css">
	.st0{fill:#FFFFFF;}
</style>
<g>
	<path class="st0" d="M220.5,0.4H205v31.8h15.5h0c26.9,0,48.6,21.8,48.6,48.6c0,26.9-21.8,48.6-48.6,48.6L176.8,92
		c22.5-14.9,32.3-47.5,9.3-77.9c-6.5-8.7-16.8-13.7-27.6-13.7h-41.1h-0.8h-15.1H51.1c-1.7,0-3,1.3-3,3v25.8c0,1.7,1.3,3,3,3h34.6v65
		H57.8c-1.8,0-3.2,1.4-3.2,3.2v25.5c0,1.8,1.4,3.2,3.2,3.2h27.8v32.3h31.8V72.9l102.1,88c0.8,0.7,1.5,0.4,2.5,0.4
		c43.7-0.9,78.9-36.6,78.9-80.5C300.9,36.4,264.9,0.4,220.5,0.4z M149.3,68.4L149.3,68.4l-31.8,0.5V32.2h31.8v0
		c10,0,18.1,8.1,18.1,18.1C167.4,60.3,159.3,68.4,149.3,68.4z"/>
	<path class="st0" d="M25,76.4h45.7c1.4,0,2.6-1.2,2.6-2.6V47.2c0-1.4-1.2-2.6-2.6-2.6H25c-1.4,0-2.6,1.2-2.6,2.6v26.7
		C22.4,75.2,23.5,76.4,25,76.4z"/>
	<path class="st0" d="M20.7,105.1h22.6c0.8,0,1.4-0.6,1.4-1.4V90.6c0-0.8-0.6-1.4-1.4-1.4H20.7c-0.8,0-1.4,0.6-1.4,1.4v13.1
		C19.3,104.5,19.9,105.1,20.7,105.1z"/>
	<path class="st0" d="M49.6,129.5h-22c-1,0-1.7,0.8-1.7,1.7v12.5c0,1,0.8,1.7,1.7,1.7h22c1,0,1.7-0.8,1.7-1.7v-12.5
		C51.4,130.2,50.6,129.5,49.6,129.5z"/>
	<path class="st0" d="M20.9,113.5h-16c-0.8,0-1.5,0.7-1.5,1.5v8.9c0,0.8,0.7,1.5,1.5,1.5h16c0.8,0,1.5-0.7,1.5-1.5v-8.9
		C22.4,114.2,21.7,113.5,20.9,113.5z"/>
	<path class="st0" d="M368.3,0.5c-0.3-0.1-0.7-0.1-1-0.2h-41.1v17.6v14.3h41.1v0c10,0.1,18.1,8.3,18.1,18.3
		c0,10.1-8.1,18.2-18.1,18.3v0h-41.1v13.8v78.6H358v-61c1,0,2,0,3.1-0.1c1,0.1,2.1,0.1,3.1,0.1c27.6,0,50-22.4,50-50
		C414.1,24.1,394,2.6,368.3,0.5z"/>
</g>
<g>
	<path class="st0" d="M467.4,41.9c-0.3-1.6-0.9-3.6-2.4-7.6c-1.6-4.3-2.2-5.4-3.4-6.5c-1-0.9-2.3-1.3-3.8-1.3h-5v8
		c0,3.3,0.1,5.1,0.4,7.4h-10.5c0.3-2.3,0.4-3.7,0.4-7.3V8.2c0-3-0.1-4.9-0.4-7.2c2.2,0.1,4,0.1,7.3,0.1h12.7
		c7.9,0,12.5,4.1,12.5,11.2c0,3.5-1,6.2-2.9,8c-1.2,1.1-2.3,1.7-4.7,2.5c2.5,0.8,3.6,1.9,5.2,5.4c0.7,1.6,1.4,3.2,3.6,8.5
		c0.5,1.4,1.1,2.6,2.4,5.2H467.4z M460.4,18.1c2.9,0,4.7-1.8,4.7-4.6c0-2.7-1.6-4.2-4.6-4.2h-7.7v8.7H460.4z"/>
	<path class="st0" d="M490.2,29.7c0.5,4,2.8,6.1,6.7,6.1c2,0,3.7-0.6,4.9-1.8c0.7-0.7,1.1-1.2,1.5-2.5l8.5,2.4
		c-1.1,2.5-1.9,3.7-3.2,5c-2.8,2.7-6.7,4.2-11.6,4.2c-4.8,0-8.6-1.4-11.4-4.2c-2.9-2.9-4.5-7.1-4.5-12c0-9.7,6.2-16.1,15.6-16.1
		c7.6,0,13,4.2,14.7,11.5c0.4,1.6,0.6,3.6,0.7,6.4c0,0.2,0,0.5,0,1H490.2z M503,23c-0.7-3.1-2.8-4.8-6.2-4.8c-3.5,0-5.6,1.6-6.4,4.8
		H503z"/>
	<path class="st0" d="M524.8,31.9c0.5,2.5,2.2,3.7,5.4,3.7c2.9,0,4.6-0.8,4.6-2.4c0-0.7-0.4-1.4-1.1-1.8c-0.7-0.4-1.3-0.6-4-1.1
		c-3.7-0.7-5.6-1.2-7.3-1.8c-2.4-0.9-4-2-4.9-3.5c-0.8-1.3-1.2-3-1.2-4.7c0-5.9,4.9-9.5,13.1-9.5c4.7,0,8.1,1,10.4,3.1
		c1.6,1.4,2.4,2.8,3.2,5.6l-9.5,1c-0.2-2-1.5-2.9-4.1-2.9c-2.5,0-4.1,0.8-4.1,2.1c0,1.3,1,1.8,5.9,2.9c4.8,1,6.3,1.5,8,2.4
		c3.2,1.6,4.7,4,4.7,7.5c0,2.6-0.9,4.9-2.5,6.5c-2.4,2.4-6.4,3.6-11.6,3.6c-6.2,0-10.5-1.7-12.9-4.9c-1-1.4-1.5-2.5-2-4.9
		L524.8,31.9z"/>
	<path class="st0" d="M547,26.9c0-9.8,6.3-16,16.2-16c9.9,0,16.2,6.2,16.2,15.9c0,9.8-6.5,16.2-16.2,16.2
		C553.3,43.1,547,36.8,547,26.9z M556.3,26.9c0,5.4,2.5,8.7,6.8,8.7s6.7-3.2,6.7-8.6c0-5.5-2.5-8.7-6.7-8.7
		C558.9,18.3,556.3,21.5,556.3,26.9z"/>
	<path class="st0" d="M614.1,12c-0.3,2.3-0.4,4.4-0.4,7.3v15.1c0,3.4,0.1,5.4,0.4,7.3h-9.8v-2.1c0-0.2,0-1,0-1.3
		c-3.2,3-6,4.2-10.2,4.2c-3.3,0-5.9-0.9-7.8-2.7c-2-2-2.8-4.4-2.8-8.2V19.4c0-2.8-0.1-5.3-0.4-7.3h10.2c-0.3,2.4-0.4,4.4-0.4,7.3v10
		c0,2,0.2,2.9,0.8,3.7c0.7,0.9,1.8,1.4,3.2,1.4c2.7,0,5.4-1.9,7.3-5v-10c0-2.7-0.1-4.8-0.4-7.3H614.1z"/>
	<path class="st0" d="M641.3,20.9c-2.3-0.7-3.5-0.9-5-0.9c-2.5,0-4.4,0.9-5.8,2.6c-0.9,1.2-1.3,2.2-1.5,4.4v7.6c0,3.1,0.1,5,0.4,7.3
		h-10.1c0.3-2.5,0.4-4.2,0.4-7.4V19.4c0-3.6-0.1-5.3-0.4-7.4h9.8v3.9c2.4-3.1,5.3-4.5,9.8-4.5c1.6,0,2.5,0.1,4.9,0.6L641.3,20.9z"/>
	<path class="st0" d="M666.6,22.9c-0.4-1.5-0.7-2.2-1.4-2.9c-1-1.1-2.4-1.7-4.1-1.7c-4,0-6.3,3.1-6.3,8.5c0,5.3,2.5,8.7,6.4,8.7
		c1.9,0,3.7-0.8,4.7-2.2c0.4-0.6,0.7-1.1,0.9-2.3l9,1.4c-0.5,2.1-1.1,3.4-2.1,4.9c-2.4,3.6-6.9,5.6-12.6,5.6
		c-4.7,0-8.7-1.5-11.4-4.2c-2.8-2.8-4.4-7.1-4.4-11.9c0-9.8,6.2-16.1,15.7-16.1c7.5,0,12.8,3.7,14.4,10.2L666.6,22.9z"/>
	<path class="st0" d="M687.4,29.7c0.5,4,2.8,6.1,6.7,6.1c2,0,3.7-0.6,4.9-1.8c0.7-0.7,1.1-1.2,1.5-2.5l8.5,2.4
		c-1.1,2.5-1.9,3.7-3.2,5c-2.8,2.7-6.7,4.2-11.6,4.2c-4.8,0-8.6-1.4-11.4-4.2c-2.9-2.9-4.5-7.1-4.5-12c0-9.7,6.2-16.1,15.6-16.1
		c7.6,0,13,4.2,14.7,11.5c0.4,1.6,0.6,3.6,0.7,6.4c0,0.2,0,0.5,0,1H687.4z M700.1,23c-0.7-3.1-2.8-4.8-6.2-4.8
		c-3.5,0-5.6,1.6-6.4,4.8H700.1z"/>
	<path class="st0" d="M443.1,67c0-3.3-0.1-4.9-0.4-7.2c2,0.1,3.2,0.1,7.3,0.1h10.2c6,0,10.9,1.7,14.2,4.9c3.6,3.5,5.4,8.7,5.4,15.2
		c0,6.7-2,12.1-5.7,15.8c-3.3,3.2-7.9,4.9-13.8,4.9h-10.3c-3.8,0-5.1,0-7.2,0.1c0.3-2.2,0.4-3.8,0.4-7.2V67z M459.4,92.2
		c3.2,0,5.4-0.8,7.2-2.6c2-2.1,3.1-5.3,3.1-9.4c0-4.2-0.9-7.2-2.8-9.1c-1.7-1.7-4.1-2.5-7.6-2.5h-6.4v23.6H459.4z"/>
	<path class="st0" d="M494.4,70.8c-0.3,2-0.4,4-0.4,7.4v15.1c0,2.6,0.1,5.3,0.4,7.4h-10.2c0.3-2.4,0.4-4.3,0.4-7.4V78.2
		c0-3.2-0.1-5.2-0.4-7.4H494.4z M494.3,60v7.3h-9.9V60H494.3z"/>
	<path class="st0" d="M508.2,90.7c0.5,2.5,2.2,3.7,5.4,3.7c2.9,0,4.6-0.8,4.6-2.4c0-0.7-0.4-1.4-1.1-1.8c-0.7-0.4-1.3-0.6-4-1.1
		c-3.7-0.7-5.6-1.2-7.3-1.8c-2.4-0.9-4-2-4.9-3.5c-0.8-1.3-1.2-3-1.2-4.7c0-5.9,4.9-9.5,13.1-9.5c4.7,0,8.1,1,10.4,3.1
		c1.6,1.4,2.4,2.8,3.2,5.6l-9.5,1c-0.2-2-1.5-2.9-4.1-2.9c-2.5,0-4.1,0.8-4.1,2.1c0,1.3,1,1.8,5.9,2.9c4.8,1,6.3,1.5,8,2.4
		c3.2,1.6,4.7,4,4.7,7.5c0,2.6-0.9,4.9-2.5,6.5c-2.4,2.4-6.4,3.6-11.6,3.6c-6.2,0-10.5-1.7-12.9-4.9c-1-1.4-1.5-2.5-2-4.9
		L508.2,90.7z"/>
	<path class="st0" d="M551.7,81.7c-0.4-1.5-0.7-2.2-1.4-2.9c-1-1.1-2.4-1.7-4.1-1.7c-4,0-6.3,3.1-6.3,8.5c0,5.3,2.5,8.7,6.4,8.7
		c1.9,0,3.7-0.8,4.7-2.2c0.4-0.6,0.7-1.1,0.9-2.3l9,1.4c-0.5,2.1-1.1,3.4-2.1,4.9c-2.4,3.6-6.9,5.6-12.6,5.6
		c-4.7,0-8.7-1.5-11.4-4.2c-2.8-2.8-4.4-7.1-4.4-11.9c0-9.8,6.2-16.1,15.7-16.1c7.5,0,12.8,3.7,14.4,10.2L551.7,81.7z"/>
	<path class="st0" d="M563.4,85.7c0-9.8,6.3-16,16.2-16c9.9,0,16.2,6.2,16.2,15.9c0,9.8-6.5,16.2-16.2,16.2
		C569.7,101.9,563.4,95.6,563.4,85.7z M572.8,85.7c0,5.4,2.5,8.7,6.8,8.7s6.7-3.2,6.7-8.6c0-5.5-2.5-8.7-6.7-8.7
		C575.3,77.1,572.8,80.3,572.8,85.7z"/>
	<path class="st0" d="M608.3,70.8c0.1,1.2,0.3,2.2,0.9,4.2l4.6,15.2c0,0.1,0.1,0.3,0.2,0.5c0.1,0.5,0.1,0.5,0.4,1.4
		c0.1-0.4,0.2-0.7,0.2-0.9c0-0.1,0.1-0.2,0.1-0.5c0.1-0.2,0.1-0.4,0.2-0.6l4.6-15.2c0.5-1.8,0.8-3.1,0.9-4.2h10.9
		c-1,2.2-1.4,3.1-2,4.8l-8.2,21c-0.8,2.1-1.1,2.9-1.3,4.1h-10.7c-0.2-1.2-0.5-2-1.3-4.1l-8.2-21c-0.3-0.7-1-2.3-2.1-4.8H608.3z"/>
	<path class="st0" d="M642,88.5c0.5,4,2.8,6.1,6.7,6.1c2,0,3.7-0.6,4.9-1.8c0.7-0.7,1.1-1.2,1.5-2.5l8.5,2.4c-1.1,2.5-1.9,3.7-3.2,5
		c-2.8,2.7-6.7,4.2-11.6,4.2c-4.8,0-8.6-1.4-11.4-4.2c-2.9-2.9-4.5-7.1-4.5-12c0-9.7,6.2-16.1,15.6-16.1c7.6,0,13,4.2,14.7,11.5
		c0.4,1.6,0.6,3.6,0.7,6.4c0,0.2,0,0.5,0,1H642z M654.7,81.8c-0.7-3.1-2.8-4.8-6.2-4.8c-3.5,0-5.6,1.6-6.4,4.8H654.7z"/>
	<path class="st0" d="M690,79.7c-2.3-0.7-3.5-0.9-5-0.9c-2.5,0-4.4,0.9-5.8,2.6c-0.9,1.2-1.3,2.2-1.5,4.4v7.6c0,3.1,0.1,5,0.4,7.3
		H668c0.3-2.4,0.4-4.2,0.4-7.4V78.2c0-3.6-0.1-5.3-0.4-7.4h9.8v3.9c2.4-3.1,5.3-4.5,9.8-4.5c1.6,0,2.5,0.1,4.9,0.6L690,79.7z"/>
	<path class="st0" d="M696,77.4c-2.1-4.9-2.3-5.3-2.9-6.6h10.6c0.2,1.6,0.9,3.7,1.9,6.3l4.5,11.3l4.4-11.1c1.4-3.4,1.8-4.8,2.1-6.5
		h10.6c-1.2,2.5-1.2,2.5-2.9,6.6L713,103.3c-2,4.6-5.5,6.7-11.1,6.7c-2.2,0-4-0.2-6.7-0.8l1.1-7.8c1.6,0.8,2.5,1.1,3.8,1.1
		c1.9,0,3.2-0.8,4-2.3l1-2.1L696,77.4z"/>
	<path class="st0" d="M442.7,159.5c0.3-2.2,0.4-4.4,0.4-7.3v-26.5c0-2.6-0.1-4.9-0.4-7.2c2.3,0.1,4.1,0.1,7.2,0.1h10.7
		c9.7,0,15,4.7,15,13.2c0,8.7-5.6,13.9-15.1,13.9h-7.7v6.3c0,2.9,0.1,5.3,0.4,7.4H442.7z M460.1,137.5c3.4,0,5.4-1.9,5.4-5.3
		c0-3.4-1.9-5.1-5.4-5.1h-7.3v10.4H460.1z"/>
	<path class="st0" d="M478.3,144.5c0-9.8,6.3-16,16.2-16c9.9,0,16.2,6.2,16.2,15.9c0,9.8-6.5,16.2-16.2,16.2
		C484.6,160.7,478.3,154.4,478.3,144.5z M487.7,144.5c0,5.4,2.5,8.7,6.8,8.7s6.7-3.2,6.7-8.6c0-5.5-2.5-8.7-6.7-8.7
		C490.2,135.9,487.7,139.1,487.7,144.5z"/>
	<path class="st0" d="M536.7,138.5c-2.3-0.7-3.5-0.9-5-0.9c-2.5,0-4.4,0.9-5.8,2.6c-0.9,1.2-1.3,2.2-1.5,4.4v7.6
		c0,3.1,0.1,5,0.4,7.3h-10.1c0.3-2.4,0.4-4.2,0.4-7.4V137c0-3.6-0.1-5.3-0.4-7.4h9.8v3.9c2.4-3.1,5.3-4.5,9.8-4.5
		c1.6,0,2.5,0.1,4.9,0.6L536.7,138.5z"/>
	<path class="st0" d="M545.9,128.6c0-2.5-0.1-4.4-0.4-6.7h10c-0.2,2-0.4,4.4-0.4,6.7v1h1.8c2.2,0,3.3,0,4.8-0.2v8.1
		c-1.5-0.2-2.7-0.3-4.5-0.3h-2.1v12.5c0,1.4,0.2,2.1,0.9,2.5c0.5,0.3,1.3,0.5,2.3,0.5c1.3,0,2.2-0.2,3.4-0.9l0.7,7.4
		c-2.2,0.7-4.1,1-6.8,1c-3.3,0-5.6-0.5-7.2-1.7c-1.9-1.4-2.5-3.1-2.5-6.4v-15H544c-1.6,0-2.8,0.1-4.3,0.3v-8.2
		c1.4,0.2,2.6,0.3,4.4,0.3h1.8V128.6z"/>
	<path class="st0" d="M585.1,139.1c0-2.4-1.4-3.4-4.7-3.4c-3.1,0-4.8,1-5.5,3.4l-9.4-1.5c1-2.9,2.1-4.5,4.1-5.9
		c2.6-1.9,6.3-2.8,11-2.8c3.6,0,7.2,0.7,9.1,1.7c3.1,1.7,4.5,4.4,4.5,8.8v13.2c0,3,0.1,4.8,0.3,7h-9.5v-2.3
		c-2.7,2.1-5.5,2.9-9.5,2.9c-3.7,0-6.5-0.9-8.5-2.7c-1.8-1.6-2.7-4-2.7-6.7c0-3.1,1.2-5.5,3.6-7.2c2.5-1.8,5.8-2.8,10.2-3.2
		c1.9-0.2,3.4-0.2,6.9-0.3V139.1z M585.1,146.5c-4.4,0.1-6.5,0.3-8.5,1c-1.8,0.6-2.8,1.8-2.8,3.2c0,1.8,1.5,2.8,4,2.8
		c2,0,4.2-0.7,5.5-1.9c1.1-1,1.8-2.3,1.8-3.8V146.5z"/>
	<path class="st0" d="M610,118.8c-0.3,2.1-0.4,4.1-0.4,7.4v26c0,2.9,0.1,4.8,0.4,7.4h-10.2c0.3-2.2,0.4-3.9,0.4-7.4v-26
		c0-3.5-0.1-5.5-0.4-7.4H610z"/>
</g>
</svg>
