<?xml version="1.0" encoding="utf-8"?>
<!-- Generator: Adobe Illustrator 25.0.0, SVG Export Plug-In . SVG Version: 6.00 Build 0)  -->
<svg version="1.1" id="Layer_1" xmlns="http://www.w3.org/2000/svg" xmlns:xlink="http://www.w3.org/1999/xlink" x="0px" y="0px"
	 viewBox="0 0 410 410" style="enable-background:new 0 0 410 410;" xml:space="preserve">
<style type="text/css">
	.st0{fill:#4338C9;}
	.st1{fill:#FFFFFF;}
</style>
<rect class="st0" width="410" height="410"/>
<g>
	<path class="st1" d="M212.6,132.8h-13.9v28.7h13.9h0c24.2,0,43.8,19.6,43.8,43.8S236.8,249,212.6,249l-39.3-33.7
		c20.3-13.4,29-42.8,8.4-70.2c-5.9-7.8-15.1-12.4-24.9-12.4h-37h-0.7h-13.6H60.1c-1.5,0-2.7,1.2-2.7,2.7v23.2c0,1.5,1.2,2.7,2.7,2.7
		h31.1V220h-25c-1.6,0-2.9,1.3-2.9,2.9v23c0,1.6,1.3,2.9,2.9,2.9h25v29.1h28.7v-79.6l92,79.2c0.7,0.6,1.3,0.4,2.2,0.4
		c39.3-0.8,71-32.9,71-72.4C285.1,165.2,252.6,132.8,212.6,132.8z M148.5,194.1L148.5,194.1l-28.7,0.4v-33h28.7v0
		c9,0,16.3,7.3,16.3,16.3C164.8,186.8,157.5,194.1,148.5,194.1z"/>
	<path class="st1" d="M36.6,201.3h41.1c1.3,0,2.3-1,2.3-2.3v-24c0-1.3-1-2.3-2.3-2.3H36.6c-1.3,0-2.3,1-2.3,2.3v24
		C34.3,200.2,35.3,201.3,36.6,201.3z"/>
	<path class="st1" d="M32.8,227.1h20.3c0.7,0,1.3-0.6,1.3-1.3v-11.8c0-0.7-0.6-1.3-1.3-1.3H32.8c-0.7,0-1.3,0.6-1.3,1.3v11.8
		C31.5,226.6,32.1,227.1,32.8,227.1z"/>
	<path class="st1" d="M58.8,249H39c-0.9,0-1.5,0.7-1.5,1.5v11.2c0,0.9,0.7,1.5,1.5,1.5h19.8c0.9,0,1.5-0.7,1.5-1.5v-11.2
		C60.4,249.7,59.7,249,58.8,249z"/>
	<path class="st1" d="M32.9,234.7H18.5c-0.8,0-1.4,0.6-1.4,1.4v8c0,0.8,0.6,1.4,1.4,1.4h14.4c0.8,0,1.4-0.6,1.4-1.4v-8
		C34.3,235.3,33.7,234.7,32.9,234.7z"/>
	<path class="st1" d="M345.7,132.9c-0.3-0.1-0.6-0.1-0.9-0.2h-37v15.8v12.9h37v0c9,0.1,16.3,7.5,16.3,16.5c0,9.1-7.3,16.4-16.3,16.5
		v0h-37v12.5v70.7h28.7v-54.9c0.9,0,1.8,0,2.8-0.1c0.9,0.1,1.9,0.1,2.8,0.1c24.8,0,45-20.1,45-45C387,154.2,368.8,134.8,345.7,132.9
		z"/>
</g>
</svg>
