<?xml version="1.0" standalone="no"?>
<!DOCTYPE svg PUBLIC "-//W3C//DTD SVG 20010904//EN"
 "http://www.w3.org/TR/2001/REC-SVG-20010904/DTD/svg10.dtd">
<svg version="1.0" xmlns="http://www.w3.org/2000/svg"
 width="700.000000pt" height="700.000000pt" viewBox="0 0 700.000000 700.000000"
 preserveAspectRatio="xMidYMid meet">
<metadata>
Created by potrace 1.14, written by Peter Selinger 2001-2017
</metadata>
<g transform="translate(0.000000,700.000000) scale(0.100000,-0.100000)"
fill="#000000" stroke="none">
<path d="M0 3500 l0 -3500 3500 0 3500 0 0 3500 0 3500 -3500 0 -3500 0 0
-3500z m2862 1202 c88 -35 176 -99 227 -164 72 -92 135 -208 171 -315 42 -127
53 -295 26 -419 -35 -158 -134 -321 -262 -430 l-62 -52 333 -286 c374 -320
336 -299 479 -272 254 49 467 231 556 476 132 360 -31 762 -375 926 -122 59
-205 74 -397 74 l-168 0 0 245 0 245 179 0 c248 0 403 -30 587 -115 235 -108
462 -330 582 -570 170 -343 171 -747 3 -1091 -147 -298 -390 -517 -699 -628
-102 -36 -257 -66 -346 -66 l-76 0 -782 674 -783 674 -3 -674 -2 -674 -245 0
-245 0 0 245 0 245 -222 0 c-192 0 -224 2 -240 17 -16 15 -18 35 -18 228 0
153 3 216 13 228 10 15 40 17 237 19 l225 3 0 500 0 500 -274 3 c-182 1 -279
6 -288 13 -18 16 -19 439 -1 457 10 10 214 12 913 10 l900 -3 57 -23z m3221
-8 c248 -89 428 -280 499 -530 31 -111 32 -286 0 -397 -54 -189 -165 -341
-324 -444 -128 -83 -266 -123 -422 -123 l-86 0 -2 -467 -3 -468 -242 -3 -243
-2 0 710 0 710 328 0 c379 0 400 3 480 75 70 63 95 125 90 225 -2 64 -8 84
-33 125 -35 57 -100 110 -153 125 -22 6 -173 10 -374 10 l-338 0 0 246 0 245
368 -3 367 -3 88 -31z m-4723 -663 c6 -12 10 -102 10 -223 0 -168 -3 -207 -16
-226 l-15 -22 -363 0 c-268 0 -365 3 -374 12 -13 13 -18 459 -5 471 3 4 174 7
379 7 359 0 374 -1 384 -19z m-432 -783 c3 -115 2 -118 -20 -123 -13 -3 -99
-4 -193 -3 l-170 3 -3 109 c-1 61 0 116 2 123 4 11 44 13 193 11 l188 -3 3
-117z m-344 -274 c9 -23 7 -137 -2 -152 -7 -9 -43 -12 -148 -10 l-139 3 -3 74
c-2 41 -1 80 2 88 4 10 37 13 145 13 117 0 140 -2 145 -16z m441 -344 l0 -115
-190 0 -190 0 -3 104 c-1 58 0 111 2 118 4 11 44 13 193 11 l188 -3 0 -115z"/>
<path d="M2050 3960 l0 -280 188 0 c274 1 381 12 436 44 152 89 184 305 63
429 -79 80 -85 82 -404 85 l-283 3 0 -281z"/>
</g>
</svg>
