<?xml version="1.0" encoding="utf-8"?>
<!-- Generator: Adobe Illustrator 25.0.0, SVG Export Plug-In . SVG Version: 6.00 Build 0)  -->
<svg version="1.1" id="Layer_1" xmlns="http://www.w3.org/2000/svg" xmlns:xlink="http://www.w3.org/1999/xlink" x="0px" y="0px"
	 viewBox="0 0 672.6 127.5" style="enable-background:new 0 0 672.6 127.5;" xml:space="preserve">
<style type="text/css">
	.st0{fill:#FFFFFF;}
	.st1{fill:#679EC1;}
	.st2{fill:#6DB56D;}
	.st3{fill:#EB8231;}
</style>
<g transform="translate(290 235.533)">
	<g transform="translate(146.974 35.689)">
		<path class="st0" d="M-259.1-225.8c-0.2,0.4-0.5,0.8-0.9,1.1c-0.4,0.2-0.8,0.3-1.2,0.3c-0.6,0-1.1-0.2-1.6-0.5
			c-0.6-0.4-1.3-0.8-2.1-1.2c-0.9-0.5-1.8-0.9-2.8-1.2c-1.2-0.4-2.5-0.6-3.8-0.5c-1.2,0-2.3,0.1-3.4,0.5c-0.9,0.3-1.7,0.7-2.4,1.3
			c-0.6,0.5-1.1,1.2-1.5,1.9c-0.3,0.8-0.5,1.7-0.5,2.5c0,1.1,0.3,2.1,1,2.9c0.7,0.8,1.6,1.5,2.6,2c1.2,0.6,2.5,1.1,3.7,1.5
			c1.4,0.4,2.8,0.9,4.3,1.4c1.5,0.5,2.9,1.1,4.3,1.8c1.4,0.6,2.6,1.5,3.7,2.5c1.1,1,2,2.3,2.6,3.7c0.7,1.7,1,3.5,1,5.3
			c0,2.2-0.4,4.3-1.2,6.4c-0.8,1.9-1.9,3.7-3.4,5.2c-1.6,1.5-3.4,2.7-5.5,3.5c-2.4,0.9-4.9,1.3-7.4,1.3c-1.6,0-3.2-0.1-4.7-0.5
			c-1.5-0.3-3-0.8-4.5-1.3c-1.4-0.6-2.7-1.3-4-2.1c-1.2-0.8-2.3-1.7-3.3-2.7l2.7-4.5c0.3-0.3,0.6-0.6,0.9-0.8
			c0.4-0.2,0.8-0.3,1.2-0.3c0.7,0,1.3,0.3,1.9,0.7c0.7,0.5,1.5,1,2.4,1.6c1,0.6,2.1,1.2,3.2,1.6c1.4,0.5,3,0.7,4.5,0.7
			c2.2,0.1,4.4-0.6,6.2-1.9c1.5-1.4,2.3-3.4,2.2-5.4c0-1.2-0.3-2.3-1-3.2c-0.7-0.9-1.6-1.6-2.6-2.1c-1.2-0.6-2.4-1.1-3.7-1.4
			c-1.4-0.4-2.8-0.8-4.2-1.3c-1.4-0.5-2.9-1-4.2-1.7c-1.4-0.6-2.6-1.5-3.7-2.5c-1.1-1.1-2-2.4-2.6-3.9c-0.7-1.8-1.1-3.8-1-5.8
			c0-3.8,1.6-7.4,4.3-9.9c1.5-1.4,3.3-2.5,5.2-3.2c2.2-0.8,4.6-1.3,7-1.2c2.8,0,5.6,0.4,8.2,1.4c2.4,0.8,4.6,2.2,6.4,3.9
			L-259.1-225.8z"/>
	</g>
	<g transform="translate(186.331 50.22)">
		<path class="st0" d="M-260.1-199.4h-3.9c-0.7,0-1.3-0.1-1.9-0.4c-0.5-0.3-0.9-0.9-1-1.5l-0.8-2.5c-0.8,0.8-1.7,1.5-2.7,2.1
			c-0.8,0.6-1.8,1.1-2.7,1.5c-1,0.4-1.9,0.7-3,0.9c-1.2,0.2-2.4,0.3-3.6,0.3c-1.4,0-2.8-0.2-4.2-0.6c-1.2-0.4-2.3-1-3.3-1.8
			c-0.9-0.8-1.7-1.9-2.2-3c-0.5-1.3-0.8-2.8-0.8-4.2c0-1.4,0.4-2.8,1.1-4c0.9-1.5,2.1-2.7,3.6-3.5c2-1.2,4.3-2.1,6.6-2.6
			c3.4-0.8,6.8-1.1,10.2-1v-2.2c0.1-1.9-0.4-3.8-1.5-5.3c-1.1-1.2-2.7-1.9-4.4-1.8c-1.2,0-2.4,0.1-3.6,0.5c-0.8,0.3-1.7,0.7-2.4,1.1
			l-1.9,1.1c-0.6,0.3-1.2,0.5-1.9,0.5c-0.5,0-1.1-0.1-1.5-0.4c-0.4-0.3-0.8-0.7-1-1.1l-1.5-2.7c4.1-3.7,9.4-5.7,14.9-5.6
			c1.9,0,3.8,0.3,5.6,1c1.6,0.6,3,1.6,4.2,2.8c1.2,1.2,2,2.7,2.6,4.3c0.6,1.8,0.9,3.7,0.9,5.5L-260.1-199.4z M-276.8-204.7
			c0.8,0,1.6-0.1,2.4-0.2c0.7-0.2,1.4-0.4,2.1-0.7c0.7-0.3,1.3-0.7,1.9-1.2c0.6-0.5,1.2-1.1,1.8-1.7v-6c-2.1,0-4.2,0.1-6.3,0.5
			c-1.4,0.2-2.8,0.6-4.1,1.2c-0.9,0.4-1.6,1-2.2,1.8c-0.4,0.6-0.6,1.4-0.6,2.1c-0.1,1.2,0.4,2.5,1.4,3.3
			C-279.4-205-278.2-204.6-276.8-204.7L-276.8-204.7z"/>
	</g>
	<g transform="translate(221.452 50.201)">
		<path class="st0" d="M-274.1-235.5c1.5,0,2.9,0.1,4.3,0.5c1.3,0.3,2.5,0.7,3.7,1.4h10.3v3.2c0,0.5-0.1,0.9-0.4,1.3
			c-0.4,0.4-0.9,0.6-1.4,0.6l-3.2,0.6c0.2,0.6,0.4,1.3,0.5,1.9c0.1,0.7,0.2,1.4,0.2,2.1c0,1.7-0.3,3.3-1.1,4.8
			c-0.7,1.4-1.7,2.6-2.9,3.5c-1.3,1-2.8,1.8-4.4,2.3c-1.8,0.6-3.7,0.8-5.6,0.8c-1.3,0-2.6-0.1-3.9-0.4c-1.1,0.7-1.7,1.4-1.7,2.3
			c0,0.7,0.4,1.3,1,1.6c0.8,0.4,1.7,0.6,2.6,0.7c1.2,0.1,2.5,0.2,3.7,0.2c1.4,0,2.8,0.1,4.2,0.2c1.4,0.1,2.8,0.3,4.2,0.6
			c1.3,0.3,2.5,0.7,3.7,1.4c1.1,0.7,2,1.6,2.6,2.7c0.7,1.3,1.1,2.7,1,4.2c0,1.6-0.4,3.2-1.2,4.6c-0.8,1.5-2,2.9-3.4,4
			c-1.6,1.2-3.5,2.2-5.4,2.8c-2.4,0.7-4.8,1.1-7.3,1.1c-2.4,0-4.8-0.2-7.1-0.8c-1.8-0.4-3.4-1.1-5-2.1c-1.2-0.8-2.2-1.8-2.9-3.1
			c-0.6-1.1-1-2.3-1-3.5c0-1.5,0.5-3,1.5-4.2c1.2-1.2,2.6-2.2,4.2-2.7c-0.9-0.5-1.6-1.1-2.1-1.9c-0.6-0.9-0.8-2-0.8-3.1
			c0-0.6,0.1-1.1,0.3-1.6c0.2-0.6,0.5-1.2,0.9-1.8c0.4-0.6,0.9-1.1,1.4-1.6c0.6-0.5,1.3-1,2.1-1.3c-1.7-0.9-3.2-2.2-4.3-3.9
			c-1.1-1.7-1.6-3.7-1.5-5.7c-0.1-3.3,1.4-6.4,4-8.4c1.3-1,2.9-1.8,4.5-2.3C-278-235.4-276-235.6-274.1-235.5z M-264.7-197.9
			c0-0.6-0.2-1.3-0.6-1.8c-0.5-0.5-1.1-0.9-1.8-1c-0.8-0.3-1.7-0.5-2.5-0.5c-1-0.1-2-0.2-3.1-0.2h-3.3c-1.1,0-2.2-0.1-3.3-0.4
			c-0.9,0.5-1.7,1.1-2.3,1.9c-0.6,0.7-0.9,1.6-0.9,2.5c0,0.6,0.2,1.2,0.5,1.8c0.4,0.6,0.9,1.1,1.5,1.4c0.8,0.4,1.7,0.8,2.7,0.9
			c1.3,0.2,2.7,0.4,4,0.3c1.4,0,2.8-0.1,4.1-0.4c1-0.2,2-0.5,2.9-1c0.7-0.4,1.2-0.9,1.7-1.6C-264.9-196.5-264.7-197.2-264.7-197.9z
			 M-274.1-218c0.9,0,1.9-0.1,2.8-0.4c0.7-0.3,1.4-0.7,2-1.2c0.5-0.5,0.9-1.1,1.2-1.8c0.3-0.8,0.4-1.5,0.4-2.4
			c0.1-1.5-0.5-3.1-1.6-4.2c-2.8-2.1-6.7-2.1-9.5,0c-1.1,1.1-1.7,2.6-1.6,4.2c0,0.8,0.1,1.6,0.4,2.3c0.3,0.7,0.7,1.3,1.2,1.8
			c0.6,0.5,1.2,1,2,1.2C-276-218.1-275-218-274.1-218z"/>
	</g>
	<g transform="translate(258.906 50.26)">
		<path class="st0" d="M-272.7-235.5c2.1,0,4.2,0.3,6.2,1.1c1.8,0.7,3.5,1.7,4.9,3.1c1.4,1.4,2.5,3.2,3.2,5.1
			c0.8,2.2,1.2,4.5,1.2,6.8c0,0.5,0,1.1,0,1.6c0,0.4-0.1,0.7-0.3,1c-0.1,0.2-0.4,0.4-0.6,0.5c-0.3,0.1-0.6,0.2-1,0.2h-22.2
			c0,3,1,5.8,3,8c1.8,1.8,4.3,2.7,6.8,2.6c1.2,0,2.4-0.1,3.6-0.5c0.9-0.3,1.8-0.6,2.6-1.1l2-1.1c0.5-0.3,1.1-0.5,1.7-0.5
			c0.3,0,0.6,0.1,0.9,0.2c0.3,0.1,0.5,0.3,0.7,0.6l2.5,3.1c-0.9,1.1-2,2-3.2,2.8c-1.2,0.7-2.4,1.3-3.7,1.8c-1.3,0.4-2.6,0.8-3.9,1
			c-1.3,0.2-2.6,0.3-3.9,0.3c-2.4,0-4.7-0.4-6.9-1.2c-2.1-0.8-4-2-5.6-3.6c-1.6-1.7-2.9-3.7-3.7-6c-1-2.6-1.4-5.4-1.4-8.2
			c0-2.3,0.4-4.6,1.2-6.8c0.7-2.1,1.9-4,3.4-5.6c1.5-1.6,3.3-2.9,5.3-3.8C-277.7-235.2-275.2-235.6-272.7-235.5z M-272.5-229.4
			c-2.2-0.1-4.3,0.6-5.9,2.1c-1.5,1.7-2.5,3.8-2.7,6h16.2c0-1.1-0.2-2.1-0.5-3.1c-0.3-0.9-0.8-1.8-1.4-2.6c-0.6-0.8-1.5-1.4-2.4-1.8
			C-270.2-229.2-271.4-229.4-272.5-229.4L-272.5-229.4z"/>
	</g>
	<g transform="translate(301.734 37.337)">
		<path class="st0" d="M-290-186.5v-49h14.2c2.5,0,4.9,0.2,7.3,0.8c1.8,0.5,3.6,1.3,5.1,2.4c1.3,1,2.4,2.4,3,3.9
			c0.7,1.7,1,3.5,1,5.3c0,1.3-0.2,2.5-0.7,3.7c-0.5,1.2-1.1,2.3-2,3.3c-0.9,1.1-2,1.9-3.2,2.7c-1.3,0.8-2.8,1.4-4.3,1.8
			c3.3,0.3,6.4,1.7,8.9,3.9c2.1,2.1,3.3,4.9,3.1,7.9c0,1.9-0.4,3.8-1.1,5.6c-0.7,1.6-1.8,3-3.2,4.1c-1.5,1.2-3.3,2.1-5.2,2.7
			c-2.3,0.6-4.7,1-7.1,0.9L-290-186.5z M-286.4-212.6h10.7c2,0,4-0.2,5.9-0.9c1.5-0.5,2.8-1.3,4-2.3c1-0.9,1.8-2,2.3-3.2
			c0.5-1.2,0.7-2.4,0.7-3.7c0.2-2.9-1-5.6-3.2-7.5c-2.1-1.7-5.3-2.5-9.7-2.5h-10.7L-286.4-212.6z M-286.4-210v20.6h12.4
			c3.5,0.3,7-0.7,9.8-2.8c2.3-2,3.5-4.9,3.3-7.8c0-1.4-0.3-2.9-0.9-4.2c-0.6-1.2-1.5-2.3-2.6-3.2c-1.2-0.9-2.6-1.6-4.1-2
			c-1.8-0.5-3.7-0.7-5.5-0.7L-286.4-210z"/>
	</g>
	<g transform="translate(344.718 36.866)">
		<path class="st0" d="M-283.8-232.4c0,0.4-0.1,0.8-0.3,1.2c-0.2,0.4-0.4,0.7-0.7,1c-0.3,0.3-0.6,0.5-1,0.7c-0.8,0.3-1.6,0.3-2.4,0
			c-0.4-0.2-0.7-0.4-1-0.7c-0.3-0.3-0.5-0.6-0.7-1c-0.2-0.4-0.2-0.8-0.2-1.2c0-0.4,0.1-0.8,0.2-1.2c0.3-0.7,0.9-1.3,1.6-1.6
			c0.8-0.3,1.6-0.3,2.4,0c0.4,0.2,0.7,0.4,1,0.7c0.3,0.3,0.5,0.6,0.7,1C-283.9-233.3-283.8-232.9-283.8-232.4z M-285.3-220.6v34.5
			h-3.3v-34.5L-285.3-220.6z"/>
	</g>
	<g transform="translate(359.425 51.338)">
		<path class="st0" d="M-274.2-235.5c2.3,0,4.6,0.4,6.7,1.3c1.9,0.8,3.6,2,5,3.5c1.4,1.6,2.5,3.5,3.1,5.6c1.4,4.8,1.4,9.9,0,14.6
			c-0.6,2.1-1.7,4-3.1,5.6c-1.4,1.5-3.1,2.8-5,3.5c-4.3,1.7-9.1,1.7-13.4,0c-1.9-0.8-3.6-2-5-3.5c-1.4-1.6-2.5-3.5-3.1-5.6
			c-1.4-4.8-1.4-9.9,0-14.6c0.6-2.1,1.7-4,3.1-5.6c1.4-1.5,3.1-2.7,5-3.5C-278.7-235.1-276.5-235.6-274.2-235.5z M-274.2-202.7
			c1.8,0,3.7-0.3,5.3-1.1c1.5-0.7,2.9-1.7,3.9-3c1.1-1.4,1.9-3,2.3-4.8c1.1-4.1,1.1-8.3,0.1-12.4c-0.4-1.7-1.2-3.4-2.3-4.8
			c-1-1.3-2.4-2.4-3.9-3.1c-3.5-1.4-7.4-1.4-10.8,0c-1.5,0.7-2.9,1.8-3.9,3.1c-1.1,1.4-1.9,3.1-2.4,4.8c-1,4.1-1,8.4,0,12.5
			c0.5,1.7,1.2,3.3,2.3,4.8c1,1.3,2.4,2.4,3.9,3C-277.9-202.9-276-202.6-274.2-202.7L-274.2-202.7z"/>
	</g>
	<g transform="translate(400.115 51.397)">
		<path class="st0" d="M-290-200.5V-235h1.8c0.3,0,0.5,0,0.7,0.2c0.2,0.2,0.3,0.4,0.3,0.7l0.3,5.2c1.5-1.9,3.4-3.6,5.5-4.8
			c2.2-1.2,4.6-1.8,7.1-1.8c1.7,0,3.4,0.3,5,0.9c1.4,0.6,2.6,1.5,3.6,2.6c1,1.2,1.7,2.6,2.2,4.1c0.5,1.8,0.8,3.6,0.7,5.4v22h-3.3
			v-22c0.2-2.7-0.6-5.4-2.2-7.6c-1.7-1.9-4.2-3-6.8-2.8c-2.2,0-4.4,0.6-6.3,1.8c-2,1.2-3.8,2.9-5.2,4.8v25.8H-290z"/>
	</g>
	<g transform="translate(435.55 51.338)">
		<path class="st0" d="M-274.3-235.5c1.9,0,3.7,0.3,5.4,1c1.6,0.7,3.1,1.7,4.3,2.9c1.3,1.4,2.2,3,2.9,4.7c0.7,2.1,1.1,4.3,1,6.4
			c0,0.4,0,0.7-0.2,1c-0.2,0.2-0.4,0.3-0.7,0.3h-25v0.7c0,2.3,0.3,4.6,0.9,6.8c0.5,1.8,1.4,3.5,2.6,4.9c1.1,1.3,2.5,2.3,4.1,3
			c1.7,0.7,3.5,1,5.3,1c1.5,0,3.1-0.2,4.5-0.6c1.1-0.3,2.2-0.8,3.2-1.3c0.7-0.4,1.4-0.8,2.1-1.3c0.3-0.3,0.7-0.5,1.1-0.6
			c0.3,0,0.5,0.1,0.7,0.4l0.9,1.1c-0.6,0.8-1.4,1.4-2.2,1.9c-1,0.6-2,1.1-3.1,1.5c-1.2,0.4-2.3,0.8-3.6,1c-1.3,0.3-2.6,0.4-3.9,0.4
			c-2.2,0-4.4-0.4-6.5-1.2c-1.9-0.8-3.6-2-5-3.5c-1.5-1.7-2.7-3.7-3.4-5.9c-0.8-2.5-1.2-5.2-1.1-7.8c0-2.3,0.3-4.6,1.1-6.8
			c0.6-2,1.7-3.8,3.1-5.4c1.4-1.5,3-2.7,4.9-3.5C-278.8-235.1-276.6-235.6-274.3-235.5z M-274.3-233.1c-1.6,0-3.3,0.3-4.8,0.8
			c-1.4,0.5-2.6,1.3-3.7,2.4c-1.1,1.1-1.9,2.4-2.5,3.7c-0.7,1.6-1.1,3.2-1.3,4.9h22.8c0-1.7-0.2-3.4-0.8-5c-0.5-1.4-1.2-2.6-2.2-3.7
			c-0.9-1-2.1-1.8-3.3-2.3C-271.3-232.8-272.8-233.1-274.3-233.1L-274.3-233.1z"/>
	</g>
	<g transform="translate(470.357 39.768)">
		<path class="st0" d="M-276.7-188.4c-2,0.1-4-0.6-5.5-1.9c-1.4-1.7-2.1-3.8-2-6v-23.6h-5c-0.2,0-0.4-0.1-0.6-0.2
			c-0.2-0.1-0.3-0.4-0.2-0.6v-1.3l5.9-0.4l0.8-12.4c0-0.2,0.1-0.4,0.3-0.6c0.2-0.2,0.4-0.3,0.6-0.2h1.5v13.2h10.9v2.5h-10.9v23.4
			c0,0.8,0.1,1.7,0.4,2.4c0.2,0.7,0.5,1.3,1,1.8c0.4,0.4,0.9,0.8,1.5,1c0.6,0.2,1.2,0.3,1.9,0.3c0.7,0,1.5-0.1,2.2-0.4
			c0.5-0.2,1.1-0.5,1.6-0.8c0.4-0.2,0.7-0.5,1.1-0.8c0.2-0.2,0.4-0.3,0.7-0.4c0.2,0,0.4,0.2,0.6,0.4l0.9,1.4c-0.9,1-2.1,1.8-3.4,2.3
			C-273.8-188.6-275.3-188.3-276.7-188.4z"/>
	</g>
	<g transform="translate(494.516 51.75)">
		<path class="st0" d="M-290-235.4h2.6c0.3,0,0.6,0.1,0.8,0.3c0.2,0.1,0.3,0.3,0.4,0.6l8.7,27.2c0.2,0.5,0.3,1,0.4,1.5l0.3,1.4
			c0.1-0.5,0.2-1,0.4-1.4c0.1-0.5,0.3-1,0.5-1.5l9.3-27.4c0-0.2,0.2-0.4,0.3-0.6c0.2-0.1,0.4-0.2,0.6-0.2h1.3c0.2,0,0.5,0.1,0.6,0.2
			c0.2,0.1,0.3,0.3,0.4,0.6l9.2,27.4c0.3,1,0.6,2,0.8,3c0.1-0.5,0.2-1,0.3-1.5c0.1-0.5,0.3-1,0.4-1.5l8.8-27.2
			c0.1-0.3,0.2-0.5,0.4-0.6c0.2-0.2,0.5-0.2,0.7-0.2h2.4l-11.7,34.4h-2.4c-0.4,0-0.6-0.2-0.8-0.7l-9.5-28c-0.1-0.3-0.2-0.7-0.3-1
			s-0.2-0.7-0.2-1c-0.1,0.3-0.1,0.7-0.2,1c-0.1,0.4-0.2,0.7-0.3,1l-9.6,28c0,0.2-0.1,0.4-0.3,0.5c-0.2,0.1-0.3,0.2-0.6,0.2h-2.3
			L-290-235.4z"/>
	</g>
	<g transform="translate(548.56 51.338)">
		<path class="st0" d="M-274.2-235.5c2.3,0,4.6,0.4,6.7,1.3c1.9,0.8,3.6,2,5,3.5c1.4,1.6,2.5,3.5,3.1,5.6c1.4,4.8,1.4,9.9,0,14.6
			c-0.6,2.1-1.7,4-3.1,5.6c-1.4,1.5-3.1,2.8-5,3.5c-4.3,1.7-9.1,1.7-13.4,0c-1.9-0.8-3.6-2-5-3.5c-1.4-1.6-2.5-3.5-3.1-5.6
			c-1.4-4.8-1.4-9.9,0-14.6c0.6-2.1,1.7-4,3.1-5.6c1.4-1.5,3.1-2.7,5-3.5C-278.7-235.1-276.5-235.6-274.2-235.5z M-274.2-202.7
			c1.8,0,3.7-0.3,5.3-1.1c1.5-0.7,2.9-1.7,3.9-3c1.1-1.4,1.9-3,2.3-4.8c1-4.1,1-8.4,0-12.5c-0.4-1.7-1.2-3.4-2.3-4.8
			c-1-1.3-2.4-2.4-3.9-3.1c-3.5-1.4-7.4-1.4-10.8,0c-1.5,0.7-2.9,1.7-3.9,3.1c-1.1,1.5-1.8,3.1-2.3,4.8c-1,4.1-1,8.4,0,12.5
			c0.5,1.7,1.2,3.3,2.3,4.8c1,1.3,2.4,2.4,3.9,3C-277.9-202.9-276-202.6-274.2-202.7L-274.2-202.7z"/>
	</g>
	<g transform="translate(589.231 51.299)">
		<path class="st0" d="M-290-200.5v-34.5h1.8c0.3,0,0.6,0.1,0.9,0.2c0.2,0.2,0.3,0.5,0.3,0.8l0.3,7.3c0.9-2.5,2.5-4.8,4.5-6.6
			c1.9-1.6,4.4-2.5,6.9-2.4c1,0,2,0.1,2.9,0.3c0.9,0.2,1.7,0.5,2.5,1l-0.5,2.3c0,0.2-0.1,0.3-0.2,0.4c-0.1,0.1-0.3,0.1-0.5,0.1
			c-0.2,0-0.4-0.1-0.6-0.1l-1-0.3c-0.5-0.1-0.9-0.2-1.4-0.3c-0.6-0.1-1.3-0.1-1.9-0.1c-2.4-0.1-4.7,0.8-6.5,2.5
			c-1.9,2-3.3,4.4-4.1,7.1v22.3H-290z"/>
	</g>
	<g transform="translate(617.684 35.944)">
		<path class="st0" d="M-286.7-235.5v30.7h1.6c0.3,0,0.6,0,0.9-0.1c0.4-0.1,0.7-0.4,1-0.7l13.9-13.1c0.2-0.2,0.5-0.4,0.8-0.6
			c0.3-0.2,0.7-0.3,1-0.2h2.9l-15.3,14.4l-0.7,0.6c-0.2,0.2-0.4,0.4-0.7,0.5c0.3,0.2,0.7,0.4,0.9,0.7l0.8,0.8l16,17.4h-2.9
			c-0.3,0-0.6-0.1-0.9-0.2c-0.3-0.2-0.5-0.4-0.8-0.6l-14.5-15.6c-0.3-0.3-0.7-0.6-1.1-0.8c-0.5-0.2-1-0.3-1.5-0.2h-1.6v17.4h-3.3
			v-50.3H-286.7z"/>
	</g>
	<g transform="translate(649.393 51.26)">
		<path class="st0" d="M-268.3-230.6c-0.1,0.3-0.4,0.5-0.8,0.5c-0.4,0-0.7-0.2-1-0.4c-0.5-0.4-1-0.7-1.6-1c-0.8-0.4-1.6-0.7-2.4-1
			c-1.2-0.3-2.4-0.5-3.6-0.4c-1.2,0-2.3,0.2-3.4,0.5c-1,0.3-1.9,0.8-2.6,1.4c-0.7,0.6-1.3,1.3-1.8,2.1c-0.4,0.8-0.6,1.6-0.6,2.5
			c0,1,0.3,1.9,0.8,2.7c0.6,0.7,1.4,1.3,2.2,1.8c1,0.5,2,1,3.1,1.3l3.6,1.1c1.2,0.4,2.4,0.8,3.6,1.2c1.1,0.4,2.1,1,3.1,1.8
			c0.9,0.7,1.6,1.5,2.2,2.5c0.6,1.1,0.9,2.3,0.8,3.5c0,1.4-0.3,2.9-0.8,4.2c-0.5,1.3-1.3,2.4-2.4,3.4c-1.1,1-2.4,1.8-3.8,2.2
			c-1.7,0.6-3.4,0.9-5.2,0.8c-2.2,0.1-4.3-0.3-6.3-1.2c-1.7-0.8-3.3-1.8-4.7-3l0.8-1.2c0.1-0.2,0.2-0.3,0.4-0.4
			c0.2-0.1,0.4-0.2,0.6-0.1c0.4,0.1,0.8,0.2,1.1,0.5c0.6,0.4,1.2,0.8,1.8,1.2c0.8,0.5,1.7,0.9,2.6,1.2c1.3,0.4,2.6,0.6,3.9,0.5
			c1.3,0,2.6-0.2,3.9-0.6c1-0.4,2-0.9,2.8-1.6c0.8-0.7,1.4-1.5,1.8-2.4c0.4-0.9,0.6-2,0.6-3c0-1-0.3-2-0.8-2.9
			c-0.6-0.8-1.3-1.5-2.2-1.9c-1-0.6-2-1-3.1-1.4l-3.6-1.1c-1.2-0.4-2.4-0.8-3.6-1.2c-1.1-0.4-2.1-1-3.1-1.7
			c-0.9-0.7-1.6-1.5-2.2-2.4c-0.6-1.1-0.9-2.3-0.8-3.5c0-1.2,0.3-2.4,0.8-3.5c0.5-1.2,1.2-2.2,2.2-3c1.1-0.9,2.3-1.6,3.6-2
			c1.5-0.5,3.2-0.8,4.8-0.8c1.9,0,3.8,0.3,5.6,0.9c1.7,0.6,3.2,1.6,4.5,2.8L-268.3-230.6z"/>
	</g>
	<g transform="translate(0 21.12)">
		<path class="st1" d="M-258.7-183l-1,1.7c0.9,0.6,2.1,0.3,2.7-0.7c0.2-0.3,0.3-0.6,0.3-1L-258.7-183z M-258.5-216.6l2,0
			c0-0.7-0.4-1.4-1-1.7L-258.5-216.6z M-288-233.6l1-1.7c-0.9-0.5-2.1-0.2-2.7,0.7c-0.2,0.3-0.3,0.6-0.3,1L-288-233.6z M-288-200.7
			h-2c0,0.7,0.4,1.3,0.9,1.7L-288-200.7z M-256.7-182.9l0.2-33.7l-3.9,0l-0.2,33.7L-256.7-182.9z M-257.5-218.3l-29.5-16.9l-2,3.4
			l29.5,16.9L-257.5-218.3z M-290-233.6l0.1,32.9l3.9,0l-0.1-32.9L-290-233.6z M-289-199l29.3,17.7l2-3.4l-29.3-17.7L-289-199z"/>
	</g>
	<g transform="translate(29.532 57.26)">
		<path class="st1" d="M-289-220.8c-0.9,0.5-1.3,1.7-0.7,2.7c0.5,0.9,1.7,1.3,2.7,0.7l0,0L-289-220.8z M-262.3-233.6l1,1.7
			c0.9-0.5,1.2-1.7,0.7-2.7c-0.5-0.9-1.7-1.2-2.6-0.7L-262.3-233.6z M-272-230.4c-0.9,0.5-1.3,1.7-0.7,2.7c0.5,0.9,1.7,1.3,2.7,0.7
			L-272-230.4z M-287.1-217.4l25.8-14.5l-1.9-3.4l-25.8,14.5L-287.1-217.4z M-263.2-235.3l-8.7,4.9l1.9,3.4l8.7-4.9L-263.2-235.3z"
			/>
	</g>
	<g transform="translate(29.493 72.595)">
		<path class="st1" d="M-258.7-183l-1,1.7c0.9,0.6,2.1,0.3,2.7-0.7c0.2-0.3,0.3-0.6,0.3-1L-258.7-183z M-258.5-216.6l2,0
			c0-0.7-0.4-1.4-1-1.7L-258.5-216.6z M-288-233.6l1-1.7c-0.9-0.5-2.1-0.2-2.7,0.7c-0.2,0.3-0.3,0.6-0.3,1L-288-233.6z M-288-200.7
			h-2c0,0.7,0.4,1.3,0.9,1.7L-288-200.7z M-256.7-182.9l0.2-33.7l-3.9,0l-0.2,33.7L-256.7-182.9z M-257.5-218.3l-29.6-16.9l-1.9,3.4
			l29.6,16.9L-257.5-218.3z M-290-233.6l0.1,32.9l3.9,0l-0.1-32.9L-290-233.6z M-289-199l29.3,17.7l2-3.4l-29.3-17.7L-289-199z"/>
	</g>
	<g transform="translate(65.065 73.007)">
		<path class="st2" d="M-258.6-233.6l2,0c0-1.1-0.8-2-1.9-2c-0.4,0-0.7,0.1-1,0.3L-258.6-233.6z M-288-216.9l-1-1.7
			c-0.6,0.3-1,1-1,1.7L-288-216.9z M-288-183h-2c0,1.1,0.9,2,2,2c0.3,0,0.7-0.1,1-0.3L-288-183z M-259.4-199.5l1,1.7
			c0.6-0.3,1-1,1-1.7L-259.4-199.5z M-259.5-235.3l-29.5,16.7l1.9,3.4l29.5-16.7L-259.5-235.3z M-290-216.9l0,33.9h3.9l0-33.9
			L-290-216.9z M-287-181.3l28.6-16.5l-2-3.4l-28.6,16.5L-287-181.3z M-257.4-199.5l0.8-34.1l-3.9-0.1l-0.8,34.1L-257.4-199.5z"/>
	</g>
	<g transform="translate(69.025 57.26)">
		<path class="st2" d="M-263.5-216.9c0.9,0.5,2.1,0.2,2.7-0.7c0.5-0.9,0.2-2.1-0.7-2.7l0,0L-263.5-216.9z M-288-233.6l1-1.7
			c-0.9-0.5-2.1-0.2-2.7,0.7c-0.5,0.9-0.2,2.1,0.7,2.7L-288-233.6z M-280.4-226.8c0.9,0.5,2.1,0.2,2.7-0.7c0.5-0.9,0.2-2.1-0.7-2.7
			L-280.4-226.8z M-261.5-220.3l-25.5-14.9l-2,3.4l25.5,14.9L-261.5-220.3z M-289-231.9l8.7,5.1l2-3.4l-8.7-5.1L-289-231.9z"/>
	</g>
	<g transform="translate(95.166 21.884)">
		<path class="st2" d="M-258.6-233.6l2,0c0-1.1-0.8-2-1.9-2c-0.4,0-0.7,0.1-1,0.3L-258.6-233.6z M-288-216.9l-1-1.7
			c-0.6,0.3-1,1-1,1.7L-288-216.9z M-288-183h-2c0,1.1,0.9,2,2,2c0.3,0,0.7-0.1,1-0.3L-288-183z M-259.4-199.5l1,1.7
			c0.6-0.3,1-1,1-1.7L-259.4-199.5z M-259.5-235.3l-29.5,16.7l1.9,3.4l29.5-16.7L-259.5-235.3z M-290-216.9l0,33.9h3.9l0-33.9
			L-290-216.9z M-287-181.3l28.6-16.5l-2-3.4l-28.6,16.5L-287-181.3z M-257.4-199.5l0.8-34l-3.9-0.1l-0.8,34L-257.4-199.5z"/>
	</g>
	<g transform="translate(63.182 0.333)">
		<path class="st3" d="M-288-217.2l-0.9-1.7c-1,0.5-1.3,1.7-0.8,2.7c0.2,0.3,0.4,0.6,0.7,0.8L-288-217.2z M-258.8-200.2l-1,1.7
			c0.6,0.4,1.4,0.4,2,0L-258.8-200.2z M-229.3-217.2l1,1.7c0.9-0.5,1.3-1.7,0.7-2.7c-0.2-0.3-0.4-0.5-0.7-0.7L-229.3-217.2z
			 M-258-233.6l1-1.7c-0.6-0.3-1.3-0.3-1.9,0L-258-233.6z M-289-215.6l29.2,17l2-3.4l-29.3-17L-289-215.6z M-257.8-198.5l29.5-17
			l-2-3.4l-29.5,17L-257.8-198.5z M-228.3-218.9l-28.7-16.4l-1.9,3.4l28.7,16.4L-228.3-218.9z M-258.9-235.3L-289-219l1.9,3.4
			l30.1-16.3L-258.9-235.3z"/>
	</g>
	<g transform="translate(62.202 17.021)">
		<path class="st3" d="M-285.8-233.6c0-1.1-0.9-2-1.9-2c-1.1,0-2,0.9-2,1.9L-285.8-233.6z M-288-204.2l-2,0c0,1.1,0.9,2,1.9,2
			c1.1,0,2-0.9,2-1.9l0,0L-288-204.2z M-286-214.1c0-1.1-0.9-2-1.9-2c-1.1,0-2,0.9-2,1.9L-286-214.1z M-289.7-233.6l-0.3,29.4l3.9,0
			l0.3-29.4L-289.7-233.6z M-286.1-204.1l0.1-10l-3.9,0l-0.1,10L-286.1-204.1z"/>
	</g>
	<g transform="translate(3.549)">
		<path class="st3" d="M-288-217.2l-0.9-1.7c-1,0.5-1.3,1.7-0.8,2.7c0.2,0.3,0.4,0.6,0.7,0.8L-288-217.2z M-258.8-200.2l-1,1.7
			c0.6,0.4,1.4,0.4,2,0L-258.8-200.2z M-229.3-217.2l1,1.7c0.9-0.5,1.3-1.7,0.7-2.7c-0.2-0.3-0.4-0.5-0.7-0.7L-229.3-217.2z
			 M-258-233.6l1-1.7c-0.6-0.3-1.3-0.3-1.9,0L-258-233.6z M-289-215.6l29.3,17l2-3.4l-29.3-17L-289-215.6z M-257.8-198.5l29.5-17
			l-2-3.4l-29.5,17L-257.8-198.5z M-228.3-218.9l-28.7-16.4l-1.9,3.4l28.7,16.4L-228.3-218.9z M-258.9-235.3L-289-219l1.9,3.4
			l30.1-16.3L-258.9-235.3z"/>
	</g>
</g>
</svg>
