<?xml version="1.0" encoding="utf-8"?>
<!-- Generator: Adobe Illustrator 25.0.0, SVG Export Plug-In . SVG Version: 6.00 Build 0)  -->
<svg version="1.1" id="Layer_1" xmlns="http://www.w3.org/2000/svg" xmlns:xlink="http://www.w3.org/1999/xlink" x="0px" y="0px"
	 viewBox="0 0 100 100" style="enable-background:new 0 0 100 100;" xml:space="preserve">
<style type="text/css">
	.st0{fill:#14b8a6;}
</style>
<path class="st0" d="M0,0v100h52.4c-11.6-7.2-23.2-14.5-34.8-21.7c-2.3-1.4-3.4-3.2-3.4-6c-0.1-17.1-0.3-34.2-0.7-51.3
	c-0.1-4.9,1.6-8.8,5.7-11.3c3.9-2.3,8.2-3.8,12.3-5.7c1.4,0,2.7,0,4.1,0c1.1,0.5,2.3,1,3.4,1.6C54,13.4,69,21.1,84,28.8
	c2.2,1.1,3,2.5,3,4.9c-0.1,18.7,0,37.4,0,56.1c0,3.3-1.6,5.1-4.3,5.1c-3.4,0-4.7-1.3-4.7-5c0-17.3,0-34.5,0-51.8
	c0-2.1-0.7-3.2-2.5-4.2C62.4,27,49.3,19.9,36.2,12.9c-4.8-2.5-12.2-0.2-14.7,4.8c0.7,0.4,1.4,0.8,2.1,1.2C36.8,26.3,50,33.7,63.3,41
	c1.9,1,2.7,2.2,2.7,4.4c-0.1,18.2-0.1,36.4,0,54.6H100V0H0z"/>
</svg>
