<?xml version="1.0" encoding="utf-8"?>
<!-- Generator: Adobe Illustrator 25.0.0, SVG Export Plug-In . SVG Version: 6.00 Build 0)  -->
<svg version="1.1" id="Layer_1" xmlns="http://www.w3.org/2000/svg" xmlns:xlink="http://www.w3.org/1999/xlink" x="0px" y="0px"
	 viewBox="0 0 100 100" style="enable-background:new 0 0 100 100;" xml:space="preserve">
<style type="text/css">
	.st0{enable-background:new    ;}
	.st1{fill:#13B3A1;}
	.st2{fill:url(#SVGID_1_);}
	.st3{fill:#0C6C61;}
	.st4{fill:#0A5E55;}
	.st5{fill:url(#SVGID_2_);}
	.st6{fill:#0D796D;}
	.st7{fill:#0A6057;}
	.st8{fill:#0E8578;}
</style>
<g>
	<g>
		<g class="st0">
			<g>
				<polygon class="st1" points="65.7,69.8 37.9,37.9 69.6,29.4 97.3,61.3 				"/>
			</g>
			<linearGradient id="SVGID_1_" gradientUnits="userSpaceOnUse" x1="61.3692" y1="46.791" x2="77.5792" y2="32.4881">
				<stop  offset="3.445087e-02" style="stop-color:#13B1A0"/>
				<stop  offset="0.5582" style="stop-color:#57EAD5"/>
				<stop  offset="0.9803" style="stop-color:#13B3A1"/>
			</linearGradient>
			<path class="st2" d="M70.9,17.5c-0.1,0-0.2,0-0.4,0c-0.3,0-0.5,0-0.8,0c-0.2,0-0.3,0-0.5,0c0,0-0.1,0-0.1,0c-0.1,0-0.2,0-0.3,0
				c-0.3,0-0.6,0.1-0.9,0.1c-0.3,0-0.6,0.1-0.9,0.1c-0.3,0-0.6,0.1-0.9,0.1c-0.3,0-0.6,0.1-1,0.2c-0.3,0.1-0.7,0.1-1,0.2l0,0h0l0,0
				c-0.1,0-0.2,0-0.3,0.1c-0.1,0-0.1,0-0.2,0c-0.2,0-0.4,0.1-0.6,0.1c-0.4,0.1-0.7,0.2-1.1,0.3c-0.2,0-0.3,0.1-0.5,0.1
				C61.4,19,61.2,19,61,19.1c-0.4,0.1-0.8,0.2-1.1,0.3c-0.2,0-0.3,0.1-0.5,0.1c-0.1,0-0.2,0.1-0.3,0.1c-0.1,0-0.3,0.1-0.4,0.1
				c-0.4,0.1-0.8,0.3-1.2,0.4c-0.1,0-0.2,0.1-0.4,0.1c-0.1,0-0.2,0.1-0.3,0.1c-0.2,0.1-0.4,0.1-0.6,0.2c-0.4,0.2-0.9,0.4-1.3,0.5
				c0,0-0.1,0-0.1,0c-0.1,0-0.2,0.1-0.3,0.1c-0.3,0.1-0.7,0.3-1,0.5c-0.2,0.1-0.4,0.2-0.6,0.3c-0.2,0.1-0.3,0.2-0.5,0.2
				c-0.1,0.1-0.2,0.1-0.3,0.2c-0.3,0.2-0.6,0.3-0.9,0.5c-0.2,0.1-0.5,0.2-0.7,0.4c-0.1,0-0.1,0.1-0.2,0.1c-1.1,0.6-2.1,1.1-3,1.7
				c-0.9,0.5-1.7,1-2.4,1.5c-1,0.6-1.8,1.2-2.6,1.8c-0.2,0.1-0.3,0.3-0.5,0.4c-0.2,0.1-0.3,0.2-0.5,0.4c-0.1,0.1-0.3,0.2-0.4,0.3
				c-0.4,0.3-0.7,0.6-1.1,0.8c-0.2,0.1-0.3,0.2-0.5,0.4c-0.1,0-0.1,0.1-0.2,0.1c-0.1,0.1-0.2,0.1-0.2,0.2c-0.1,0.1-0.2,0.1-0.2,0.2
				c-0.1,0.1-0.1,0.1-0.2,0.2c-0.1,0.1-0.2,0.2-0.3,0.2c0,0-0.1,0.1-0.1,0.1c-0.1,0.1-0.2,0.2-0.3,0.3c0,0-0.1,0.1-0.1,0.1
				c-0.1,0-0.1,0.1-0.1,0.1c-0.1,0.1-0.2,0.2-0.3,0.2c0,0,0,0,0,0c-0.1,0.1-0.1,0.1-0.2,0.1l27.8,31.9c0.1,0,0.1-0.1,0.2-0.2
				c0.1-0.1,0.2-0.2,0.3-0.3c0,0,0.1-0.1,0.1-0.1c0.1-0.1,0.3-0.3,0.5-0.4c0.1-0.1,0.2-0.2,0.3-0.2c0.1-0.1,0.2-0.2,0.3-0.3
				c0.1-0.1,0.2-0.2,0.4-0.3c0.1-0.1,0.2-0.2,0.3-0.3c0.1-0.1,0.3-0.2,0.4-0.4c0.3-0.2,0.5-0.4,0.8-0.6c0.1-0.1,0.3-0.2,0.4-0.3
				c0.2-0.2,0.5-0.4,0.8-0.6c0.2-0.1,0.3-0.3,0.5-0.4c0,0,0.1,0,0.1-0.1c0.5-0.4,1-0.7,1.6-1.1c0.1-0.1,0.3-0.2,0.4-0.3
				c1.8-1.2,3.8-2.4,6-3.6c0.2-0.1,0.5-0.2,0.7-0.4c0.4-0.2,0.8-0.4,1.3-0.6c0.2-0.1,0.3-0.2,0.5-0.3c0.5-0.3,1.1-0.5,1.6-0.8
				c0.1,0,0.2-0.1,0.3-0.1c0.6-0.3,1.3-0.5,2-0.8c0.1,0,0.2-0.1,0.3-0.1c0.7-0.3,1.3-0.5,2-0.7c0.1,0,0.2-0.1,0.3-0.1
				c0.7-0.2,1.5-0.5,2.2-0.7c0.7-0.2,1.4-0.4,2.1-0.5c0.1,0,0.1,0,0.2,0c0.5-0.1,1.1-0.2,1.7-0.3c0,0,0.1,0,0.1,0
				c0.5-0.1,1.1-0.2,1.6-0.2c0,0,0.1,0,0.1,0c0.5-0.1,1.1-0.1,1.6-0.2c0,0,0.1,0,0.1,0c0.6,0,1.1-0.1,1.7-0.1c0,0,0,0,0,0L70.9,17.5
				z"/>
			<g>
				<polygon class="st1" points="31.3,79.1 3.5,47.2 34.7,38.8 62.5,70.7 				"/>
			</g>
			<g>
				<polygon class="st3" points="31,81.8 3.2,49.9 3.5,47.2 31.3,79.1 				"/>
			</g>
			<g>
				<polygon class="st4" points="33.7,74.1 6,42.2 4.8,35.3 32.6,67.2 				"/>
			</g>
			<g class="st0">
				<linearGradient id="SVGID_2_" gradientUnits="userSpaceOnUse" x1="24.5761" y1="58.3746" x2="49.5042" y2="37.9417">
					<stop  offset="3.445087e-02" style="stop-color:#13B1A0"/>
					<stop  offset="0.5582" style="stop-color:#57EAD5"/>
					<stop  offset="1" style="stop-color:#13B3A1"/>
				</linearGradient>
				<path class="st5" d="M36.9,32.8c0,0-0.1,0-0.1-0.1l0,0c0,0-0.1,0-0.1,0c-0.1,0-0.1-0.1-0.2-0.1c0,0-0.1,0-0.1-0.1
					c0,0-0.1,0-0.1,0c-0.1,0-0.2-0.1-0.2-0.1c-0.1,0-0.1,0-0.2-0.1c0,0-0.1,0-0.1-0.1c-0.1,0-0.2-0.1-0.2-0.1c-0.1,0-0.1,0-0.2-0.1
					c-0.1,0-0.2-0.1-0.2-0.1C35,32,34.9,32,34.9,32c-0.1,0-0.1,0-0.2-0.1c-0.1,0-0.3-0.1-0.4-0.1c-0.1,0-0.1,0-0.2-0.1
					c0,0-0.1,0-0.1,0c-0.2-0.1-0.4-0.1-0.7-0.2c0,0,0,0-0.1,0c0,0,0,0,0,0c-0.2-0.1-0.4-0.1-0.6-0.2c-0.1,0-0.2,0-0.3-0.1
					c-0.1,0-0.1,0-0.2,0c-0.1,0-0.2,0-0.3-0.1c-0.2-0.1-0.5-0.1-0.7-0.2c-0.2,0-0.5-0.1-0.8-0.1c-0.2,0-0.3-0.1-0.5-0.1
					c-0.1,0-0.1,0-0.2,0c0,0-0.1,0-0.1,0c-0.3,0-0.5-0.1-0.8-0.1c-0.2,0-0.3,0-0.5-0.1c-0.1,0-0.1,0-0.2,0c0,0-0.1,0-0.1,0
					c-0.3,0-0.5-0.1-0.8-0.1c-0.2,0-0.4,0-0.6,0c0,0-0.1,0-0.1,0c0,0-0.1,0-0.1,0c-0.3,0-0.5,0-0.8,0c-0.3,0-0.5,0-0.8,0
					c0,0,0,0,0,0c0,0,0,0,0,0c-0.3,0-0.5,0-0.8,0c-0.3,0-0.6,0-0.8,0c-0.1,0-0.1,0-0.2,0c-0.1,0-0.1,0-0.2,0c-0.2,0-0.3,0-0.5,0
					c-0.3,0-0.6,0-0.9,0.1c-0.1,0-0.3,0-0.4,0c-0.1,0-0.1,0-0.2,0c-0.1,0-0.2,0-0.3,0c-0.3,0-0.6,0.1-0.9,0.1
					c-0.3,0-0.6,0.1-0.8,0.1c0,0,0,0-0.1,0c0,0,0,0,0,0c-0.3,0-0.6,0.1-1,0.2c-0.3,0.1-0.7,0.1-1,0.2c-0.1,0-0.1,0-0.2,0
					c-0.1,0-0.1,0-0.2,0c-0.2,0.1-0.5,0.1-0.7,0.2c-0.3,0.1-0.7,0.2-1.1,0.3c-0.2,0-0.3,0.1-0.5,0.1c-0.2,0.1-0.4,0.1-0.6,0.2
					c-0.4,0.1-0.7,0.2-1.1,0.3c-0.1,0-0.3,0.1-0.4,0.1c-0.1,0-0.2,0.1-0.3,0.1c-0.2,0.1-0.3,0.1-0.5,0.2c-0.4,0.1-0.8,0.3-1.1,0.4
					c-0.4,0.1-0.8,0.3-1.2,0.4c-0.4,0.2-0.8,0.3-1.2,0.5c-0.4,0.2-0.8,0.4-1.3,0.6c-0.5,0.2-0.9,0.4-1.4,0.7
					c-0.1,0.1-0.3,0.1-0.4,0.2l27.8,31.9c0.6-0.3,1.2-0.6,1.8-0.9c0,0,0,0,0,0c0.5-0.3,1.1-0.5,1.6-0.7c0.1,0,0.2-0.1,0.2-0.1
					c1.1-0.5,2.2-0.9,3.3-1.2c0.1,0,0.2-0.1,0.3-0.1c0.7-0.2,1.4-0.4,2.1-0.6c0.8-0.2,1.5-0.4,2.2-0.5c0.1,0,0.1,0,0.2,0
					c0.7-0.2,1.5-0.3,2.2-0.4c0,0,0,0,0.1,0c0.7-0.1,1.4-0.2,2-0.3c0.1,0,0.1,0,0.2,0c0.6-0.1,1.2-0.1,1.8-0.1c0.1,0,0.1,0,0.2,0
					c0.6,0,1.2,0,1.8,0c0,0,0,0,0,0c0.6,0,1.2,0,1.7,0.1c0,0,0.1,0,0.1,0c0.5,0,1,0.1,1.5,0.1c0.1,0,0.1,0,0.1,0
					c0.5,0.1,0.9,0.1,1.4,0.2c0,0,0.1,0,0.1,0c1.4,0.2,2.7,0.5,3.7,0.8c0,0,0,0,0,0c0.3,0.1,0.6,0.2,0.9,0.3c0,0,0,0,0,0
					c0.6,0.2,1,0.4,1.4,0.5c0.1,0,0.1,0,0.2,0.1c0.1,0.1,0.2,0.1,0.3,0.1c0.1,0,0.1,0.1,0.2,0.1c0.1,0,0.2,0.1,0.2,0.1L36.9,32.8z"
					/>
				<path class="st6" d="M64.6,64.7L36.8,32.8c0,0,0.1,0,0.1,0.1l27.8,31.9C64.7,64.7,64.6,64.7,64.6,64.7"/>
			</g>
			<g>
				<path class="st7" d="M89.4,50.8c3-0.8,6.1-1.3,9.3-1.4l-2.8,7.9c-0.1,0-2.3-0.7-7.5,0.7c-4.9,1.3-12.3,4.5-22.6,11.8l31.7-8.5
					L97,64L31,81.8l0.3-2.7l31.2-8.4c-9.1-2-16.2-1.3-21,0c-5.1,1.4-7.6,3.3-7.7,3.4l-1.1-6.8c3.3-1.7,6.5-2.8,9.4-3.6
					c12.7-3.4,21.3,0.4,22.7,1.1C66.4,63.2,76.5,54.3,89.4,50.8z"/>
			</g>
		</g>
	</g>
	<g>
		<path class="st8" d="M43.9,35.9c-0.1,0-0.2,0-0.3-0.1c-0.2-0.2-0.2-0.5,0-0.7c0.1-0.1,9.9-10.4,28.9-11.6c0.3,0,0.5,0.2,0.5,0.5
			c0,0.3-0.2,0.5-0.5,0.5c-18.6,1.2-28.1,11.2-28.2,11.3C44.2,35.9,44,35.9,43.9,35.9z"/>
	</g>
	<g>
		<path class="st8" d="M48.2,40.9c-0.1,0-0.2,0-0.3-0.1c-0.2-0.2-0.2-0.5,0-0.7c0.1-0.1,9.9-10.4,28.9-11.6c0.3,0,0.5,0.2,0.5,0.5
			s-0.2,0.5-0.5,0.5c-18.6,1.2-28.1,11.2-28.2,11.3C48.4,40.8,48.3,40.9,48.2,40.9z"/>
	</g>
	<g>
		<path class="st8" d="M52.7,45.9c-0.1,0-0.2,0-0.3-0.1c-0.2-0.2-0.2-0.5,0-0.7c0.1-0.1,9.9-10.4,28.9-11.6c0.3,0,0.5,0.2,0.5,0.5
			c0,0.3-0.2,0.5-0.5,0.5C62.7,35.6,53.1,45.6,53,45.7C52.9,45.8,52.8,45.9,52.7,45.9z"/>
	</g>
	<g>
		<path class="st8" d="M57.5,51.6c-0.1,0-0.2,0-0.3-0.1c-0.2-0.2-0.2-0.5,0-0.7C57.2,50.7,67,40.4,86,39.1c0.3,0,0.5,0.2,0.5,0.5
			s-0.2,0.5-0.5,0.5C67.5,41.4,58,51.4,57.9,51.5C57.8,51.6,57.6,51.6,57.5,51.6z"/>
	</g>
</g>
</svg>
