<?xml version="1.0" encoding="utf-8"?>
<!-- Generator: Adobe Illustrator 25.0.0, SVG Export Plug-In . SVG Version: 6.00 Build 0)  -->
<svg version="1.1" id="Layer_1" xmlns="http://www.w3.org/2000/svg" xmlns:xlink="http://www.w3.org/1999/xlink" x="0px" y="0px"
	 viewBox="0 0 100 100" style="enable-background:new 0 0 100 100;" xml:space="preserve">
<style type="text/css">
	.st0{enable-background:new    ;}
	.st1{fill:#B21445;}
	.st2{clip-path:url(#SVGID_3_);enable-background:new    ;}
	.st3{clip-path:url(#SVGID_5_);}
	.st4{fill:#9E0E42;}
	.st5{clip-path:url(#SVGID_7_);enable-background:new    ;}
	.st6{fill:#992C2C;}
	.st7{fill:#942A2A;}
	.st8{clip-path:url(#SVGID_9_);enable-background:new    ;}
	.st9{fill:#9E2D2D;}
	.st10{fill:#F75E7B;}
	.st11{clip-path:url(#SVGID_11_);enable-background:new    ;}
	.st12{fill:#812B2B;}
	.st13{clip-path:url(#SVGID_13_);}
	.st14{clip-path:url(#SVGID_15_);enable-background:new    ;}
	.st15{clip-path:url(#SVGID_17_);}
	.st16{clip-path:url(#SVGID_19_);enable-background:new    ;}
	.st17{clip-path:url(#SVGID_21_);enable-background:new    ;}
	.st18{clip-path:url(#SVGID_23_);enable-background:new    ;}
	.st19{clip-path:url(#SVGID_25_);enable-background:new    ;}
	.st20{clip-path:url(#SVGID_27_);}
</style>
<g>
	<g>
		<g class="st0">
			<g class="st0">
				<g>
					<g>
						<path id="SVGID_1_" class="st1" d="M77.9,74.4l-3.6-2c2.9-0.4,5.3-3.3,5.3-6.5l3.6,2C83.3,71.1,80.9,74,77.9,74.4z"/>
					</g>
					<g>
						<defs>
							<path id="SVGID_2_" d="M77.9,74.4l-3.6-2c2.9-0.4,5.3-3.3,5.3-6.5l3.6,2C83.3,71.1,80.9,74,77.9,74.4z"/>
						</defs>
						<clipPath id="SVGID_3_">
							<use xlink:href="#SVGID_2_"  style="overflow:visible;"/>
						</clipPath>
						<g class="st2">
							<path class="st1" d="M77.9,74.4l-3.6-2c0.5-0.1,1.1-0.2,1.6-0.5l3.6,2C79,74.2,78.5,74.3,77.9,74.4"/>
							<path class="st1" d="M79.5,73.9l-3.6-2c0.3-0.1,0.6-0.3,0.9-0.5l3.6,2C80.1,73.6,79.8,73.8,79.5,73.9"/>
							<path class="st1" d="M80.4,73.4l-3.6-2c0.2-0.2,0.4-0.3,0.6-0.5l3.6,2C80.8,73.1,80.6,73.3,80.4,73.4"/>
							<path class="st1" d="M81,72.9l-3.6-2c0.2-0.2,0.4-0.4,0.5-0.6l3.6,2C81.4,72.6,81.2,72.8,81,72.9"/>
							<path class="st1" d="M81.5,72.4l-3.6-2c0.2-0.2,0.3-0.4,0.5-0.6l3.6,2C81.9,72,81.7,72.2,81.5,72.4"/>
							<path class="st1" d="M82,71.8l-3.6-2c0.2-0.2,0.3-0.5,0.4-0.7l3.6,2C82.3,71.3,82.2,71.5,82,71.8"/>
							<path class="st1" d="M82.5,71.1l-3.6-2c0.2-0.3,0.3-0.6,0.4-0.9l3.6,2C82.8,70.5,82.6,70.8,82.5,71.1"/>
							<path class="st1" d="M82.9,70.2l-3.6-2c0.3-0.7,0.4-1.5,0.4-2.3l3.6,2C83.3,68.7,83.1,69.4,82.9,70.2"/>
						</g>
					</g>
				</g>
			</g>
			<g>
				<polygon class="st1" points="83.3,67.9 79.6,65.9 79.7,30.3 83.3,32.3 				"/>
			</g>
			<g class="st0">
				<g>
					<g>
						<defs>
							<path id="SVGID_4_" d="M77.2,25.8l3.6,2c1.5,0.8,2.5,2.5,2.5,4.5l-3.6-2C79.7,28.3,78.7,26.6,77.2,25.8z"/>
						</defs>
						<clipPath id="SVGID_5_">
							<use xlink:href="#SVGID_4_"  style="overflow:visible;"/>
						</clipPath>
						<g class="st3">
							<path class="st4" d="M83.3,32.3l-3.6-2c0-2-1-3.7-2.5-4.5l3.6,2C82.4,28.6,83.4,30.3,83.3,32.3"/>
						</g>
					</g>
				</g>
			</g>
			<g class="st0">
				<g>
					<g>
						<defs>
							<path id="SVGID_6_" d="M82.9,15.3l3.6,2C84,16,81.1,15.4,78,15.8l-3.6-2C77.5,13.4,80.5,13.9,82.9,15.3z"/>
						</defs>
						<clipPath id="SVGID_7_">
							<use xlink:href="#SVGID_6_"  style="overflow:visible;"/>
						</clipPath>
						<g class="st5">
							<path class="st1" d="M78,15.8l-3.6-2c1.9-0.3,3.8-0.2,5.5,0.3l3.6,2C81.8,15.6,80,15.5,78,15.8"/>
							<path class="st6" d="M83.6,16.1l-3.6-2c0.9,0.2,1.7,0.5,2.5,0.9l3.6,2C85.3,16.6,84.4,16.3,83.6,16.1"/>
							<path class="st7" d="M86.1,17l-3.6-2c0.2,0.1,0.3,0.2,0.5,0.3l3.6,2C86.4,17.2,86.3,17.1,86.1,17"/>
						</g>
					</g>
				</g>
			</g>
			<g>
				<polygon class="st1" points="27.6,81.5 24,79.5 74.3,72.4 77.9,74.4 				"/>
			</g>
			<g class="st0">
				<g>
					<g>
						<defs>
							<path id="SVGID_8_" d="M24.8,81l-3.6-2c0.8,0.4,1.8,0.6,2.8,0.5l3.6,2C26.6,81.6,25.6,81.4,24.8,81z"/>
						</defs>
						<clipPath id="SVGID_9_">
							<use xlink:href="#SVGID_8_"  style="overflow:visible;"/>
						</clipPath>
						<g class="st8">
							<path class="st7" d="M24.8,81l-3.6-2c0.1,0,0.1,0.1,0.2,0.1l3.6,2C24.9,81,24.8,81,24.8,81"/>
							<path class="st6" d="M25,81.1l-3.6-2c0.3,0.1,0.5,0.2,0.8,0.3l3.6,2C25.5,81.3,25.2,81.2,25,81.1"/>
							<path class="st9" d="M25.8,81.4l-3.6-2c0.6,0.1,1.2,0.2,1.8,0.1l3.6,2C27,81.6,26.4,81.5,25.8,81.4"/>
						</g>
					</g>
				</g>
			</g>
			<g>
				<polygon class="st1" points="27.7,22.8 24.1,20.9 74.4,13.8 78,15.8 				"/>
			</g>
			<g>
				<path class="st10" d="M78,15.8c8.8-1.2,16,5.5,16,15v35.6c0,9.5-7.2,18.3-16.1,19.5L27.6,93c-8.8,1.2-16-5.5-16-15l0.1-35.6
					c0-9.5,7.2-18.3,16.1-19.5L78,15.8z M83.3,67.9l0.1-35.6c0-3.2-2.4-5.4-5.3-5l-50.4,7.1c-2.9,0.4-5.3,3.3-5.3,6.5l-0.1,35.6
					c0,3.2,2.4,5.4,5.3,5l50.3-7.1C80.9,74,83.3,71.1,83.3,67.9"/>
			</g>
			<g class="st0">
				<path class="st1" d="M11.6,78l0.1-35.6c0-0.6,0-1.2,0.1-1.8c0-0.2,0.1-0.4,0.1-0.6c0-0.4,0.1-0.8,0.2-1.1c0-0.2,0.1-0.5,0.2-0.7
					c0.1-0.3,0.1-0.7,0.2-1c0.1-0.2,0.2-0.5,0.2-0.7c0.1-0.3,0.2-0.6,0.3-0.9c0-0.1,0.1-0.2,0.1-0.4c0.2-0.4,0.3-0.8,0.5-1.1
					c0.1-0.2,0.2-0.3,0.3-0.5c0.2-0.3,0.3-0.7,0.5-1c0.1-0.1,0.1-0.3,0.2-0.4c0.2-0.4,0.5-0.7,0.7-1.1c0-0.1,0.1-0.1,0.1-0.2
					c2.9-4.2,7.4-7.3,12.3-8l-3.6-2c-4.9,0.7-9.3,3.7-12.3,7.9l0,0c0,0,0,0,0,0.1s-0.1,0.1-0.1,0.2c-0.2,0.4-0.5,0.7-0.7,1.1
					c-0.1,0.1-0.1,0.3-0.2,0.4c-0.1,0.1-0.1,0.2-0.2,0.4c-0.1,0.2-0.2,0.4-0.3,0.6s-0.2,0.3-0.3,0.5c-0.2,0.4-0.3,0.8-0.5,1.1
					c0,0.1-0.1,0.2-0.1,0.4c0,0,0,0,0,0.1c-0.1,0.3-0.2,0.6-0.3,0.9c-0.1,0.2-0.2,0.5-0.2,0.7c-0.1,0.3-0.2,0.7-0.2,1
					c-0.1,0.2-0.1,0.5-0.2,0.7c-0.1,0.4-0.1,0.8-0.2,1.1c0,0.2-0.1,0.4-0.1,0.6C8.1,39.2,8,39.8,8,40.4V76c0,6.1,3,11.1,7.4,13.6
					l3.6,2C14.6,89.1,11.6,84.1,11.6,78z"/>
				<path class="st1" d="M15.5,30.8l-3.6-2c0.4-0.6,0.9-1.3,1.4-1.8l3.6,2C16.4,29.5,15.9,30.1,15.5,30.8"/>
				<path class="st1" d="M16.9,28.9l-3.6-2c0.5-0.6,1.1-1.1,1.6-1.7l3.6,2C18,27.8,17.4,28.4,16.9,28.9"/>
				<path class="st1" d="M18.5,27.3l-3.6-2c0.6-0.6,1.3-1.1,1.9-1.5l3.6,2C19.8,26.2,19.2,26.7,18.5,27.3"/>
				<path class="st6" d="M20.5,25.8l-3.6-2c0.8-0.6,1.7-1.1,2.6-1.5l3.6,2C22.2,24.7,21.3,25.2,20.5,25.8"/>
				<path class="st1" d="M23.1,24.2l-3.6-2c1.5-0.7,3-1.2,4.7-1.4l3.6,2C26.1,23.1,24.6,23.6,23.1,24.2"/>
			</g>
		</g>
	</g>
	<g>
		<g class="st0">
			<g class="st0">
				<g>
					<defs>
						<path id="SVGID_10_" d="M69.1,54.4l1.8,1c-0.4-0.2-0.9-0.3-1.3-0.2l-1.8-1C68.2,54.1,68.7,54.2,69.1,54.4z"/>
					</defs>
					<clipPath id="SVGID_11_">
						<use xlink:href="#SVGID_10_"  style="overflow:visible;"/>
					</clipPath>
					<g class="st11">
						<path class="st12" d="M69.5,55.2l-1.8-1c0.5-0.1,1,0,1.3,0.2l1.8,1C70.5,55.2,70,55.1,69.5,55.2"/>
					</g>
				</g>
			</g>
			<g>
				<polygon class="st4" points="34.8,60.1 32.9,59.1 67.7,54.2 69.5,55.2 				"/>
			</g>
			<g class="st0">
				<g>
					<defs>
						<path id="SVGID_12_" d="M33.4,65.3l-1.8-1c-0.7-0.4-1.2-1.2-1.2-2.1c0-1.5,1.1-2.9,2.5-3.1l1.8,1c-1.4,0.2-2.5,1.6-2.5,3.1
							C32.2,64.1,32.7,64.9,33.4,65.3z"/>
					</defs>
					<clipPath id="SVGID_13_">
						<use xlink:href="#SVGID_12_"  style="overflow:visible;"/>
					</clipPath>
					<g class="st13">
						<path class="st4" d="M33.4,65.3l-1.8-1c-0.7-0.4-1.2-1.2-1.2-2.1c0-1.5,1.1-2.9,2.5-3.1l1.8,1c-1.4,0.2-2.5,1.6-2.5,3.1
							C32.2,64.1,32.7,64.9,33.4,65.3"/>
					</g>
				</g>
			</g>
			<g>
				<path class="st10" d="M69.5,55.2c1.4-0.2,2.5,0.9,2.5,2.4s-1.2,2.9-2.5,3.1l-34.8,4.9c-1.4,0.2-2.5-0.9-2.5-2.4s1.1-2.9,2.5-3.1
					L69.5,55.2z"/>
			</g>
		</g>
	</g>
	<g>
		<g class="st0">
			<g class="st0">
				<g>
					<defs>
						<path id="SVGID_14_" d="M69.1,63.2l1.8,1C70.5,64,70,63.9,69.5,64l-1.8-1C68.2,62.9,68.7,63,69.1,63.2z"/>
					</defs>
					<clipPath id="SVGID_15_">
						<use xlink:href="#SVGID_14_"  style="overflow:visible;"/>
					</clipPath>
					<g class="st14">
						<path class="st12" d="M69.5,64l-1.8-1c0.5-0.1,1,0,1.3,0.2l1.8,1C70.5,64,70,63.9,69.5,64"/>
					</g>
				</g>
			</g>
			<g>
				<polygon class="st4" points="34.8,68.9 32.9,67.9 67.7,63 69.5,64 				"/>
			</g>
			<g class="st0">
				<g>
					<defs>
						<path id="SVGID_16_" d="M33.4,74.1l-1.8-1c-0.7-0.4-1.2-1.2-1.2-2.1c0-1.5,1.1-2.9,2.5-3.1l1.8,1c-1.4,0.2-2.5,1.6-2.5,3.1
							C32.2,72.9,32.7,73.7,33.4,74.1z"/>
					</defs>
					<clipPath id="SVGID_17_">
						<use xlink:href="#SVGID_16_"  style="overflow:visible;"/>
					</clipPath>
					<g class="st15">
						<path class="st4" d="M33.4,74.1l-1.8-1c-0.7-0.4-1.2-1.2-1.2-2.1c0-1.5,1.1-2.9,2.5-3.1l1.8,1c-1.4,0.2-2.5,1.6-2.5,3.1
							C32.2,72.9,32.7,73.7,33.4,74.1"/>
					</g>
				</g>
			</g>
			<g>
				<path class="st10" d="M69.5,64c1.4-0.2,2.5,0.9,2.5,2.4s-1.2,2.9-2.5,3.1l-34.8,4.9c-1.4,0.2-2.5-0.9-2.5-2.4s1.1-2.9,2.5-3.1
					L69.5,64z"/>
			</g>
		</g>
	</g>
	<g>
		<g class="st0">
			<g class="st0">
				<g>
					<defs>
						<path id="SVGID_18_" d="M71.7,30.6l1.8,1c-0.6-0.3-1.2-0.4-1.9-0.3l-1.8-1C70.4,30.2,71.1,30.3,71.7,30.6z"/>
					</defs>
					<clipPath id="SVGID_19_">
						<use xlink:href="#SVGID_18_"  style="overflow:visible;"/>
					</clipPath>
					<g class="st16">
						<path class="st12" d="M71.6,31.3l-1.8-1c0.7-0.1,1.4,0,1.9,0.3l1.8,1C72.9,31.3,72.3,31.2,71.6,31.3"/>
					</g>
				</g>
			</g>
			<g class="st0">
				<g>
					<defs>
						<path id="SVGID_20_" d="M30.8,55.1l-1.8-1c-1-0.6-1.7-1.7-1.7-3.1l1.8,1C29.1,53.5,29.8,54.6,30.8,55.1z"/>
					</defs>
					<clipPath id="SVGID_21_">
						<use xlink:href="#SVGID_20_"  style="overflow:visible;"/>
					</clipPath>
					<g class="st17">
						<path class="st4" d="M30.8,55.1l-1.8-1c-1-0.6-1.7-1.7-1.7-3.1l1.8,1C29.1,53.5,29.8,54.6,30.8,55.1"/>
					</g>
				</g>
			</g>
			<g>
				<polygon class="st4" points="32.8,36.7 30.9,35.8 69.7,30.3 71.6,31.3 				"/>
			</g>
			<g>
				<polygon class="st4" points="29.1,52.1 27.3,51.1 27.3,40.2 29.1,41.2 				"/>
			</g>
			<g>
				<path class="st10" d="M71.6,31.3c2-0.3,3.6,1.3,3.6,3.4v10.9c0,2.2-1.6,4.1-3.6,4.4l-38.8,5.5c-2,0.3-3.6-1.3-3.6-3.4V41.2
					c0-2.2,1.6-4.1,3.6-4.4L71.6,31.3z"/>
			</g>
			<g class="st0">
				<g>
					<defs>
						<path id="SVGID_22_" d="M29.1,41.2l-1.8-1c0-2.2,1.6-4.1,3.6-4.4l1.8,1C30.8,37,29.1,39,29.1,41.2z"/>
					</defs>
					<clipPath id="SVGID_23_">
						<use xlink:href="#SVGID_22_"  style="overflow:visible;"/>
					</clipPath>
					<g class="st18">
						<path class="st4" d="M29.1,41.2l-1.8-1c0-2.2,1.6-4.1,3.6-4.4l1.8,1C30.8,37,29.1,39,29.1,41.2"/>
					</g>
				</g>
			</g>
		</g>
	</g>
	<g>
		<g class="st0">
			<g>
				<polygon class="st1" points="15.3,21.1 13.4,20.1 22.6,24.1 24.4,25.1 				"/>
			</g>
			<g>
				<polygon class="st1" points="10.8,22.4 9,21.4 13.4,16.1 15.3,17.1 				"/>
			</g>
			<g>
				<polygon class="st1" points="11.2,12.4 9.4,11.5 18.1,14.6 19.9,15.6 				"/>
			</g>
			<g class="st0">
				<g>
					<defs>
						<path id="SVGID_24_" d="M8,7.2l1.8,1C9.3,7.9,8.7,7.8,8,7.9l-1.8-1C6.8,6.8,7.5,7,8,7.2z"/>
					</defs>
					<clipPath id="SVGID_25_">
						<use xlink:href="#SVGID_24_"  style="overflow:visible;"/>
					</clipPath>
					<g class="st19">
						<path class="st12" d="M8,7.9l-1.8-1C6.8,6.8,7.5,7,8,7.2l1.8,1C9.3,7.9,8.7,7.8,8,7.9"/>
					</g>
				</g>
			</g>
			<g class="st0">
				<g>
					<defs>
						<path id="SVGID_26_" d="M6.1,15.1l-1.8-1c-1-0.5-1.6-1.6-1.6-2.9c0-2.1,1.6-4,3.5-4.2L8,8c-1.9,0.3-3.5,2.2-3.5,4.2
							C4.5,13.5,5.1,14.6,6.1,15.1z"/>
					</defs>
					<clipPath id="SVGID_27_">
						<use xlink:href="#SVGID_26_"  style="overflow:visible;"/>
					</clipPath>
					<g class="st20">
						<path class="st1" d="M6.1,15.1l-1.8-1c-1-0.5-1.6-1.6-1.6-2.9c0-2.1,1.6-4,3.5-4.2L8,8c-1.9,0.3-3.5,2.2-3.5,4.2
							C4.5,13.5,5.1,14.6,6.1,15.1"/>
					</g>
				</g>
			</g>
			<g>
				<path class="st10" d="M8,7.9c1.9-0.3,3.5,1.2,3.5,3.3c0,0.4-0.1,0.9-0.2,1.3l8.7,3.2l-4.6,5.5l9.1,4l-1.3,2.7l-12.3-5.4l4.5-5.3
					L9.5,15c-0.4,0.3-0.9,0.4-1.4,0.5c-1.9,0.3-3.5-1.2-3.5-3.3C4.5,10.1,6.1,8.2,8,7.9z"/>
			</g>
		</g>
	</g>
</g>
</svg>
