<?xml version="1.0" encoding="utf-8"?>
<!-- Generator: Adobe Illustrator 25.4.1, SVG Export Plug-In . SVG Version: 6.00 Build 0)  -->
<svg version="1.1" id="Layer_1" xmlns="http://www.w3.org/2000/svg" xmlns:xlink="http://www.w3.org/1999/xlink" x="0px" y="0px"
	 viewBox="0 0 100 100" style="enable-background:new 0 0 100 100;" xml:space="preserve">
<style type="text/css">
	.st0{fill:#FFFFFF;}
</style>
<g>
	<path class="st0" d="M78,15.8l-50.2,7.1c-1.8,0.2-3.4,0.8-5,1.5l-7.4-3.2l4.6-5.5l-8.7-3.2c0.1-0.4,0.2-0.9,0.2-1.3
		c0-2.1-1.6-3.6-3.5-3.3c-1.9,0.3-3.5,2.2-3.4,4.3c0,2.1,1.6,3.6,3.5,3.3c0.5-0.1,1-0.2,1.4-0.5l5.9,2.2l-4.5,5.3l8.8,3.9
		c-4.8,3.7-8,9.7-8,16L11.6,78c0,9.5,7.2,16.2,16,15l50.3-7.1c8.9-1.2,16.1-10,16.1-19.5V30.8C94,21.3,86.8,14.6,78,15.8z
		 M83.3,67.9c0,3.2-2.4,6.1-5.4,6.5l-50.3,7.1c-2.9,0.4-5.3-1.8-5.3-5l0.1-35.6c0-3.2,2.4-6.1,5.3-6.5l50.4-7.1
		c2.9-0.4,5.3,1.8,5.3,5L83.3,67.9z"/>
	<path class="st0" d="M69.5,55.2l-34.8,4.9c-1.4,0.2-2.5,1.6-2.5,3.1s1.1,2.6,2.5,2.4l34.8-4.9c1.3-0.2,2.5-1.6,2.5-3.1
		S70.9,55,69.5,55.2z"/>
	<path class="st0" d="M69.5,64l-34.8,4.9c-1.4,0.2-2.5,1.6-2.5,3.1s1.1,2.6,2.5,2.4l34.8-4.9c1.3-0.2,2.5-1.6,2.5-3.1
		S70.9,63.8,69.5,64z"/>
	<path class="st0" d="M71.6,31.3l-38.8,5.5c-2,0.3-3.6,2.2-3.6,4.4v10.9c0,2.1,1.6,3.7,3.6,3.4L71.6,50c2-0.3,3.6-2.2,3.6-4.4V34.7
		C75.2,32.6,73.6,31,71.6,31.3z"/>
</g>
</svg>
