<?xml version="1.0" encoding="utf-8"?>
<!-- Generator: Adobe Illustrator 25.4.1, SVG Export Plug-In . SVG Version: 6.00 Build 0)  -->
<svg version="1.1" id="Layer_1" xmlns="http://www.w3.org/2000/svg" xmlns:xlink="http://www.w3.org/1999/xlink" x="0px" y="0px"
	 viewBox="0 0 100 100" style="enable-background:new 0 0 100 100;" xml:space="preserve">
<style type="text/css">
	.st0{fill:#FFFFFF;}
</style>
<g>
	<polygon class="st0" points="37.1,87.7 37.1,87.7 37.1,87.6 	"/>
	<polygon class="st0" points="36.9,78 36.9,78 36.9,77.9 	"/>
	<path class="st0" d="M64.9,7c-6.3-3.2-13-4.1-19.9-3.1C26.6,6.4,15.4,23.6,20.6,41.5c1.6,5.5,4.4,10.3,7.3,15.1
		c2.7,4.6,5.7,9,7,14.2c0.7,2.5,2.7,4.4,5.2,4.9c-2,0.4-3.2,1-3.2,1.6c0.1,0.7,1.7,1.3,4.4,1.7c-0.1,0-0.2,0-0.3,0h-0.1
		c-0.2,0-0.4-0.1-0.6-0.1s-0.4-0.1-0.6-0.1h-0.1c-0.2,0-0.3-0.1-0.5-0.1c-0.1,0-0.3-0.1-0.4-0.1h-0.1c-0.1,0-0.3-0.1-0.4-0.1
		s-0.3-0.1-0.4-0.1c0,0,0,0-0.1,0s-0.2-0.1-0.3-0.1c-0.1,0-0.1-0.1-0.2-0.1s-0.1-0.1-0.2-0.1L36.9,78l0.1,7.1v0.1l0.1,0.1
		c0,0,0.1,0.1,0.2,0.1c0.1,0,0.1,0.1,0.2,0.1s0.2,0.1,0.3,0.1c0,0,0,0,0.1,0c0.1,0,0.2,0.1,0.3,0.1c0.1,0,0.3,0.1,0.4,0.1h0.1
		c0,0,0.1,0,0.1,0c-1.3,0.4-2,0.8-2,1.3c0,0.4,0.7,0.8,1.9,1.2c-0.1,0-0.2-0.1-0.3-0.1c-0.1,0-0.3-0.1-0.4-0.1c0,0,0,0-0.1,0
		c-0.1,0-0.2-0.1-0.3-0.1c-0.1,0-0.1-0.1-0.2-0.1c-0.1,0-0.1-0.1-0.2-0.1l-0.1-0.1l0.1,7.1v0.1l0.1,0.1c0,0,0.1,0.1,0.2,0.1
		s0.1,0.1,0.2,0.1c0.1,0,0.2,0.1,0.3,0.1c0,0,0,0,0.1,0c0.1,0,0.2,0.1,0.3,0.1c0.1,0,0.3,0.1,0.4,0.1h0.1c0.1,0,0.3,0.1,0.4,0.1
		c0.1,0,0.3,0.1,0.5,0.1h0.1c0.2,0,0.4,0.1,0.6,0.1s0.4,0.1,0.6,0.1h0.1c0.2,0,0.4,0.1,0.6,0.1s0.4,0.1,0.7,0.1c0.1,0,0.1,0,0.2,0
		c0.2,0,0.5,0,0.7,0.1c0.2,0,0.5,0,0.7,0.1c0.1,0,0.1,0,0.2,0c0.3,0,0.5,0,0.8,0.1c0.2,0,0.5,0,0.7,0c0.1,0,0.1,0,0.2,0
		c0.2,0,0.4,0,0.7,0h0.1c0.3,0,0.5,0,0.8,0c0.1,0,0.1,0,0.2,0c0.2,0,0.4,0,0.7,0h0.1c0.5,0,1,0,1.5,0c0.1,0,0.3,0,0.4,0
		c0,0,0,0,0.1,0c0.5,0,1,0,1.4,0c0.3,0,0.7,0,1,0h0.1c0.3,0,0.6,0,1-0.1c0.1,0,0.1,0,0.2,0c0.3,0,0.6,0,0.9-0.1h0.1
		c0.3,0,0.6-0.1,0.9-0.1h0.1c0.1,0,0.3,0,0.4,0c0.1,0,0.1,0,0.2,0c0.1,0,0.3,0,0.4,0c0.1,0,0.1,0,0.2,0s0.2,0,0.3,0
		c0.1,0,0.1,0,0.2,0s0.2,0,0.3,0h0.1c0.1,0,0.2,0,0.3-0.1h0.1c0.1,0,0.3-0.1,0.4-0.1c0.1,0,0.3-0.1,0.4-0.1h0.1c0.1,0,0.2,0,0.3-0.1
		h0.1c0.1,0,0.1,0,0.2-0.1h0.1c0.1,0,0.1,0,0.2-0.1h0.1c0.1,0,0.1,0,0.2-0.1H61c0.1,0,0.1,0,0.2-0.1c0,0,0,0,0.1,0c0,0,0,0,0.1,0
		c0,0,0.1,0,0.1-0.1c0,0,0,0,0.1,0c0,0,0.1,0,0.1-0.1c0,0,0,0,0.1,0c0,0,0.1,0,0.1-0.1c0,0,0,0,0.1,0c0,0,0.1,0,0.1-0.1l0.1-0.1
		c0.9-0.4,0.9-0.5,0.9-0.5c0-0.1,0.1-0.2,0-0.2L63,86.9V87c0,0,0,0,0,0.1c0,0,0,0.1-0.1,0.1C63,87.1,63,87,63,86.9
		c0-0.5-0.8-0.9-2.1-1.2c0,0,0,0,0.1-0.1c0,0,0,0,0.1,0c0,0,0,0,0.1,0c0,0,0.1,0,0.1-0.1c0,0,0,0,0.1,0c0,0,0.1,0,0.1-0.1
		c0,0,0,0,0.1,0c0,0,0.1,0,0.1-0.1c0,0,0,0,0.1,0c0,0,0.1,0,0.1-0.1l0.1-0.1c1.2-0.5,1.2-0.5,1.2-0.5c0-0.1,0.1-0.2,0-0.2l-0.1-7.2
		v0.1c0,0,0,0,0,0.1c0,0,0,0.1-0.1,0.1l-0.1,0.1c0,0-0.1,0-0.1,0.1c0,0,0,0-0.1,0c0.3-0.2,0.4-0.4,0.4-0.6c0-0.6-1.1-1-2.9-1.4
		c2.4-0.6,4.5-2.4,5-4.9c1.1-4,3.1-7.7,5.3-11.3c1.2-2,2.5-4,3.7-6.1c2.9-5,5.4-10.1,6.2-15.9C82.1,24.6,76.6,12.9,64.9,7z
		 M45.1,89.2c-0.2,0-0.4,0-0.6-0.1c0.3,0,0.5,0,0.8,0.1C45.2,89.2,45.2,89.2,45.1,89.2z M53.2,89.2h-0.1c0,0,0,0,0,0
		C53.1,89.2,53.2,89.2,53.2,89.2C53.3,89.2,53.2,89.2,53.2,89.2z M62.6,77.8C62.6,77.8,62.6,77.8,62.6,77.8
		C62.6,77.8,62.6,77.8,62.6,77.8C62.6,77.8,62.6,77.8,62.6,77.8z M62.4,77.9C62.4,77.9,62.4,77.9,62.4,77.9
		C62.4,77.9,62.4,77.9,62.4,77.9C62.4,77.9,62.4,77.9,62.4,77.9z M62.2,78C62.2,78,62.2,78,62.2,78C62.2,78,62.2,78,62.2,78
		C62.2,78,62.2,78,62.2,78z"/>
</g>
</svg>
