<?xml version="1.0" encoding="utf-8"?>
<!-- Generator: Adobe Illustrator 25.0.0, SVG Export Plug-In . SVG Version: 6.00 Build 0)  -->
<svg version="1.1" id="Layer_1" xmlns="http://www.w3.org/2000/svg" xmlns:xlink="http://www.w3.org/1999/xlink" x="0px" y="0px"
	 viewBox="0 0 100 100" style="enable-background:new 0 0 100 100;" xml:space="preserve">
<style type="text/css">
	.st0{enable-background:new    ;}
	.st1{fill:#9F1239;}
	.st2{fill:url(#SVGID_1_);}
	.st3{fill:url(#SVGID_2_);}
	.st4{fill:url(#SVGID_3_);}
	.st5{fill:#FDA4AF;}
</style>
<g>
	<g class="st0">
		<g>
			<path class="st1" d="M50.1,89.3c-7.3,0.1-13.2-0.9-13.3-2.2s5.7-2.4,12.9-2.4c7.3-0.1,13.2,0.9,13.3,2.2
				C63.2,88.1,57.4,89.2,50.1,89.3z"/>
		</g>
		
			<linearGradient id="SVGID_1_" gradientUnits="userSpaceOnUse" x1="36.6592" y1="10.3262" x2="63.1626" y2="10.3262" gradientTransform="matrix(1 0 0 -1 0 102)">
			<stop  offset="0" style="stop-color:#E11D48"/>
			<stop  offset="0.2671" style="stop-color:#FB7185"/>
			<stop  offset="1" style="stop-color:#E11D48"/>
		</linearGradient>
		<path class="st2" d="M63.1,94.3L63.1,94.3C63.1,94.3,63.1,94.2,63.1,94.3L63.1,94.3c0-0.1,0.1-0.2,0-0.2l-0.1-7.2c0,0,0,0.1,0,0.1
			c0,0,0,0,0,0.1v0c0,0,0,0.1-0.1,0.1l0,0c0,0-0.1,0.1-0.1,0.1l0,0c0,0-0.1,0-0.1,0.1c0,0,0,0-0.1,0c0,0-0.1,0-0.1,0.1
			c0,0,0,0-0.1,0c0,0-0.1,0-0.1,0.1c0,0,0,0-0.1,0c0,0-0.1,0-0.1,0.1c0,0,0,0-0.1,0c0,0-0.1,0-0.1,0c-0.1,0-0.1,0-0.2,0.1
			c0,0-0.1,0-0.1,0c-0.1,0-0.1,0-0.2,0.1c0,0-0.1,0-0.1,0c-0.1,0-0.1,0-0.2,0.1c0,0-0.1,0-0.1,0c-0.1,0-0.1,0-0.2,0.1
			c0,0-0.1,0-0.1,0c-0.1,0-0.2,0-0.3,0.1c0,0-0.1,0-0.1,0c-0.1,0-0.3,0.1-0.4,0.1c0,0,0,0,0,0c-0.1,0-0.3,0.1-0.4,0.1
			c0,0-0.1,0-0.1,0c-0.1,0-0.2,0-0.3,0.1c-0.1,0-0.1,0-0.2,0c-0.1,0-0.2,0-0.3,0c-0.1,0-0.1,0-0.2,0c-0.1,0-0.2,0-0.3,0
			c-0.1,0-0.1,0-0.2,0c-0.1,0-0.3,0-0.4,0c-0.1,0-0.1,0-0.2,0c-0.1,0-0.3,0-0.4,0c0,0-0.1,0-0.1,0C56,89,55.7,89,55.4,89
			c0,0-0.1,0-0.1,0c-0.3,0-0.6,0-0.9,0.1c-0.1,0-0.1,0-0.2,0c-0.3,0-0.6,0-1,0.1c0,0-0.1,0-0.1,0c-0.3,0-0.7,0-1,0c0,0,0,0,0,0
			c-0.5,0-1,0-1.4,0c-0.2,0-0.3,0-0.5,0c-0.5,0-1,0-1.5,0c-0.1,0-0.1,0-0.2,0c-0.2,0-0.4,0-0.7,0c-0.1,0-0.1,0-0.2,0
			c-0.3,0-0.5,0-0.8,0c0,0-0.1,0-0.1,0c-0.2,0-0.4,0-0.7,0c-0.1,0-0.1,0-0.2,0c-0.3,0-0.5,0-0.7,0h0c-0.3,0-0.5,0-0.8-0.1
			c-0.1,0-0.1,0-0.2,0c-0.3,0-0.5,0-0.7-0.1c0,0,0,0,0,0c-0.3,0-0.5,0-0.7-0.1c-0.1,0-0.1,0-0.2,0c-0.2,0-0.4,0-0.7-0.1c0,0,0,0,0,0
			c-0.2,0-0.4-0.1-0.6-0.1c0,0-0.1,0-0.1,0c-0.2,0-0.4-0.1-0.6-0.1l0,0c-0.2,0-0.4-0.1-0.6-0.1c0,0-0.1,0-0.1,0
			c-0.2,0-0.3-0.1-0.5-0.1l0,0c-0.1,0-0.3-0.1-0.4-0.1c0,0-0.1,0-0.1,0c-0.1,0-0.3-0.1-0.4-0.1l0,0c-0.1,0-0.3-0.1-0.4-0.1
			c0,0,0,0-0.1,0c-0.1,0-0.2-0.1-0.3-0.1l0,0c-0.1,0-0.1-0.1-0.2-0.1l0,0c-0.1,0-0.1-0.1-0.2-0.1l0,0c0,0-0.1-0.1-0.1-0.1
			c0,0,0,0,0,0c0,0,0-0.1,0-0.1l0,0l0,0l0.1,7.2c0,0,0,0.1,0,0.1c0,0,0,0,0,0c0,0,0.1,0.1,0.1,0.1l0,0c0,0,0.1,0.1,0.2,0.1l0,0
			c0.1,0,0.1,0.1,0.2,0.1l0,0c0.1,0,0.2,0.1,0.3,0.1c0,0,0,0,0.1,0c0.1,0,0.2,0.1,0.3,0.1l0,0c0.1,0,0.3,0.1,0.4,0.1
			c0,0,0.1,0,0.1,0c0.1,0,0.3,0.1,0.4,0.1l0,0c0.1,0,0.3,0.1,0.5,0.1c0,0,0.1,0,0.1,0c0.2,0,0.4,0.1,0.6,0.1l0,0
			c0.2,0,0.4,0.1,0.6,0.1c0,0,0.1,0,0.1,0c0.2,0,0.4,0.1,0.6,0.1c0,0,0,0,0,0c0.2,0,0.4,0.1,0.7,0.1c0.1,0,0.1,0,0.2,0
			c0.2,0,0.5,0,0.7,0.1c0,0,0,0,0,0c0.2,0,0.5,0,0.7,0.1c0.1,0,0.1,0,0.2,0c0.3,0,0.5,0,0.8,0.1l0,0h0c0.2,0,0.5,0,0.7,0
			c0.1,0,0.1,0,0.2,0c0.2,0,0.4,0,0.7,0c0,0,0.1,0,0.1,0c0.3,0,0.5,0,0.8,0c0.1,0,0.1,0,0.2,0c0.2,0,0.4,0,0.7,0c0,0,0.1,0,0.1,0h0
			c0.5,0,1,0,1.5,0c0.1,0,0.3,0,0.4,0c0,0,0,0,0.1,0c0.5,0,1,0,1.4,0l0,0l0,0c0.3,0,0.7,0,1,0c0,0,0.1,0,0.1,0c0.3,0,0.6,0,1-0.1
			c0.1,0,0.1,0,0.2,0c0.3,0,0.6,0,0.9-0.1c0,0,0.1,0,0.1,0c0.3,0,0.6-0.1,0.9-0.1l0,0c0,0,0.1,0,0.1,0c0.1,0,0.3,0,0.4,0
			c0.1,0,0.1,0,0.2,0c0.1,0,0.3,0,0.4,0c0.1,0,0.1,0,0.2,0c0.1,0,0.2,0,0.3,0c0.1,0,0.1,0,0.2,0c0.1,0,0.2,0,0.3,0c0,0,0.1,0,0.1,0
			c0,0,0,0,0,0c0.1,0,0.2,0,0.3-0.1c0,0,0.1,0,0.1,0c0.1,0,0.3-0.1,0.4-0.1c0,0,0,0,0,0c0.1,0,0.3-0.1,0.4-0.1c0,0,0.1,0,0.1,0
			c0.1,0,0.2,0,0.3-0.1c0,0,0.1,0,0.1,0c0.1,0,0.1,0,0.2-0.1c0,0,0.1,0,0.1,0c0.1,0,0.1,0,0.2-0.1c0,0,0.1,0,0.1,0
			c0.1,0,0.1,0,0.2-0.1c0,0,0.1,0,0.1,0c0.1,0,0.1,0,0.2-0.1c0,0,0,0,0.1,0c0,0,0,0,0,0c0,0,0,0,0.1,0c0,0,0.1,0,0.1-0.1
			c0,0,0,0,0.1,0c0,0,0.1,0,0.1-0.1c0,0,0,0,0.1,0c0,0,0.1,0,0.1-0.1c0,0,0,0,0.1,0c0,0,0.1,0,0.1-0.1l0,0c0,0,0.1-0.1,0.1-0.1l0,0
			C63.1,94.4,63.1,94.3,63.1,94.3z"/>
	</g>
</g>
<g>
	<g class="st0">
		<g>
			<path class="st1" d="M50.2,79.5c-7.3,0.1-13.2-0.9-13.3-2.2s5.7-2.4,12.9-2.4c7.3-0.1,13.2,0.9,13.3,2.2S57.5,79.5,50.2,79.5z"/>
		</g>
		
			<linearGradient id="SVGID_2_" gradientUnits="userSpaceOnUse" x1="36.7483" y1="20.0693" x2="63.2517" y2="20.0693" gradientTransform="matrix(1 0 0 -1 0 102)">
			<stop  offset="0" style="stop-color:#E11D48"/>
			<stop  offset="0.2671" style="stop-color:#FB7185"/>
			<stop  offset="1" style="stop-color:#E11D48"/>
		</linearGradient>
		<path class="st3" d="M63.2,84.6L63.2,84.6C63.2,84.5,63.2,84.5,63.2,84.6L63.2,84.6c0-0.1,0.1-0.2,0-0.2l-0.1-7.2c0,0,0,0.1,0,0.1
			c0,0,0,0,0,0.1v0c0,0,0,0.1-0.1,0.1l0,0c0,0-0.1,0.1-0.1,0.1l0,0c0,0-0.1,0-0.1,0.1c0,0,0,0-0.1,0c0,0-0.1,0-0.1,0.1
			c0,0,0,0-0.1,0c0,0-0.1,0-0.1,0.1c0,0,0,0-0.1,0c0,0-0.1,0-0.1,0.1c0,0,0,0-0.1,0c0,0-0.1,0-0.1,0c-0.1,0-0.1,0-0.2,0.1
			c0,0-0.1,0-0.1,0c-0.1,0-0.1,0-0.2,0.1c0,0-0.1,0-0.1,0c-0.1,0-0.1,0-0.2,0.1c0,0-0.1,0-0.1,0c-0.1,0-0.1,0-0.2,0.1
			c0,0-0.1,0-0.1,0c-0.1,0-0.2,0-0.3,0.1c0,0-0.1,0-0.1,0c-0.1,0-0.3,0.1-0.4,0.1c0,0,0,0,0,0c-0.1,0-0.3,0.1-0.4,0.1
			c0,0-0.1,0-0.1,0c-0.1,0-0.2,0-0.3,0.1c-0.1,0-0.1,0-0.2,0c-0.1,0-0.2,0-0.3,0c-0.1,0-0.1,0-0.2,0c-0.1,0-0.2,0-0.3,0
			c-0.1,0-0.1,0-0.2,0c-0.1,0-0.3,0-0.4,0c-0.1,0-0.1,0-0.2,0c-0.1,0-0.3,0-0.4,0c0,0-0.1,0-0.1,0c-0.3,0-0.6,0.1-0.9,0.1
			c0,0-0.1,0-0.1,0c-0.3,0-0.6,0-0.9,0.1c-0.1,0-0.1,0-0.2,0c-0.3,0-0.6,0-1,0.1c0,0-0.1,0-0.1,0c-0.3,0-0.7,0-1,0c0,0,0,0,0,0
			c-0.5,0-1,0-1.4,0c-0.2,0-0.3,0-0.5,0c-0.5,0-1,0-1.5,0c-0.1,0-0.1,0-0.2,0c-0.2,0-0.4,0-0.7,0c-0.1,0-0.1,0-0.2,0
			c-0.3,0-0.5,0-0.8,0c0,0-0.1,0-0.1,0c-0.2,0-0.4,0-0.7,0c-0.1,0-0.1,0-0.2,0c-0.3,0-0.5,0-0.7,0h0c-0.3,0-0.5,0-0.8-0.1
			c-0.1,0-0.1,0-0.2,0c-0.3,0-0.5,0-0.7-0.1c0,0,0,0,0,0c-0.3,0-0.5,0-0.7-0.1c-0.1,0-0.1,0-0.2,0c-0.2,0-0.4,0-0.7-0.1c0,0,0,0,0,0
			C41.4,79,41.2,79,41,79c0,0-0.1,0-0.1,0c-0.2,0-0.4-0.1-0.6-0.1l0,0c-0.2,0-0.4-0.1-0.6-0.1c0,0-0.1,0-0.1,0
			c-0.2,0-0.3-0.1-0.5-0.1l0,0c-0.1,0-0.3-0.1-0.4-0.1c0,0-0.1,0-0.1,0c-0.1,0-0.3-0.1-0.4-0.1l0,0c-0.1,0-0.3-0.1-0.4-0.1
			c0,0,0,0-0.1,0c-0.1,0-0.2-0.1-0.3-0.1l0,0c-0.1,0-0.1-0.1-0.2-0.1l0,0c-0.1,0-0.1-0.1-0.2-0.1l0,0c0,0-0.1-0.1-0.1-0.1
			c0,0,0,0,0,0c0,0,0-0.1,0-0.1l0,0l0,0l0.1,7.2c0,0,0,0.1,0,0.1c0,0,0,0,0,0c0,0,0.1,0.1,0.1,0.1l0,0c0,0,0.1,0.1,0.2,0.1l0,0
			c0.1,0,0.1,0.1,0.2,0.1l0,0c0.1,0,0.2,0.1,0.3,0.1c0,0,0,0,0.1,0c0.1,0,0.2,0.1,0.3,0.1l0,0c0.1,0,0.3,0.1,0.4,0.1
			c0,0,0.1,0,0.1,0c0.1,0,0.3,0.1,0.4,0.1l0,0c0.1,0,0.3,0.1,0.5,0.1c0,0,0.1,0,0.1,0c0.2,0,0.4,0.1,0.6,0.1l0,0
			c0.2,0,0.4,0.1,0.6,0.1c0,0,0.1,0,0.1,0c0.2,0,0.4,0.1,0.6,0.1c0,0,0,0,0,0c0.2,0,0.4,0.1,0.7,0.1c0.1,0,0.1,0,0.2,0
			c0.2,0,0.5,0,0.7,0.1c0,0,0,0,0,0c0.2,0,0.5,0,0.7,0.1c0.1,0,0.1,0,0.2,0c0.3,0,0.5,0,0.8,0.1l0,0h0c0.2,0,0.5,0,0.7,0
			c0.1,0,0.1,0,0.2,0c0.2,0,0.4,0,0.7,0c0,0,0.1,0,0.1,0c0.3,0,0.5,0,0.8,0c0.1,0,0.1,0,0.2,0c0.2,0,0.4,0,0.7,0c0,0,0.1,0,0.1,0h0
			c0.5,0,1,0,1.5,0c0.1,0,0.3,0,0.4,0c0,0,0,0,0.1,0c0.5,0,1,0,1.4,0l0,0l0,0c0.3,0,0.7,0,1,0c0,0,0.1,0,0.1,0c0.3,0,0.6,0,1-0.1
			c0.1,0,0.1,0,0.2,0c0.3,0,0.6,0,0.9-0.1c0,0,0.1,0,0.1,0c0.3,0,0.6-0.1,0.9-0.1l0,0c0,0,0.1,0,0.1,0c0.1,0,0.3,0,0.4,0
			c0.1,0,0.1,0,0.2,0c0.1,0,0.3,0,0.4,0c0.1,0,0.1,0,0.2,0c0.1,0,0.2,0,0.3,0c0.1,0,0.1,0,0.2,0c0.1,0,0.2,0,0.3,0c0,0,0.1,0,0.1,0
			c0,0,0,0,0,0c0.1,0,0.2,0,0.3-0.1c0,0,0.1,0,0.1,0c0.1,0,0.3-0.1,0.4-0.1c0,0,0,0,0,0c0.1,0,0.3-0.1,0.4-0.1c0,0,0.1,0,0.1,0
			c0.1,0,0.2,0,0.3-0.1c0,0,0.1,0,0.1,0c0.1,0,0.1,0,0.2-0.1c0,0,0.1,0,0.1,0c0.1,0,0.1,0,0.2-0.1c0,0,0.1,0,0.1,0
			c0.1,0,0.1,0,0.2-0.1c0,0,0.1,0,0.1,0c0.1,0,0.1,0,0.2-0.1c0,0,0,0,0.1,0c0,0,0,0,0,0c0,0,0,0,0.1,0c0,0,0.1,0,0.1-0.1
			c0,0,0,0,0.1,0c0,0,0.1,0,0.1-0.1c0,0,0,0,0.1,0c0,0,0.1,0,0.1-0.1c0,0,0,0,0.1,0c0,0,0.1,0,0.1-0.1l0,0c0,0,0.1-0.1,0.1-0.1l0,0
			C63.2,84.6,63.2,84.6,63.2,84.6z"/>
	</g>
</g>
<g>
	<radialGradient id="SVGID_3_" cx="50.3488" cy="30.8243" r="33.5601" gradientUnits="userSpaceOnUse">
		<stop  offset="0.6189" style="stop-color:#FB7185"/>
		<stop  offset="1" style="stop-color:#E11D48"/>
	</radialGradient>
	<path class="st4" d="M58.5,75.9h-17c-3.1,0-5.8-2.1-6.6-5.1c-1.3-5.2-4.3-9.6-7-14.2c-2.9-4.8-5.7-9.6-7.3-15.1
		C15.4,23.6,26.6,6.4,45,3.9c6.9-1,13.6-0.1,19.9,3.1c11.7,5.9,17.2,17.6,15.5,30.5c-0.8,5.8-3.3,10.9-6.2,15.9
		c-1.2,2.1-2.5,4.1-3.7,6.1c-2.2,3.6-4.2,7.3-5.3,11.3C64.5,73.8,61.6,75.9,58.5,75.9z"/>
</g>
<g>
	<path class="st5" d="M54,62.1c0,1.1-0.4,2-1.2,2.8C52,65.6,51,66,49.9,66c-1,0-1.9-0.4-2.7-1.1c-0.8-0.8-1.1-1.6-1.1-2.7
		c0-1.1,0.4-2.1,1.2-2.8c0.8-0.7,1.7-1.1,2.9-1.1c1.1,0,2,0.4,2.7,1.1S54,61,54,62.1z M53.8,24.7c0,0.3-0.2,3-0.7,8l-1.8,20.1
		c-0.1,0.9-0.5,1.3-1.1,1.3c-0.7,0-1-0.4-1.1-1.3L47,32.7c-0.4-4.2-0.6-6.8-0.6-8c0-3.8,1.3-5.8,3.9-5.8c2.3,0,3.5,1.9,3.5,5.6
		L53.8,24.7z"/>
</g>
</svg>
