<svg id="Layer_1" data-name="Layer 1" xmlns="http://www.w3.org/2000/svg" viewBox="0 0 100 100"><defs><style>.cls-1{fill:#a855f7;}</style></defs><path class="cls-1" d="M0,0V100H27.84c0-.28,0-.56-.05-.85q-.36-25-.68-50a2.6,2.6,0,0,0-.39-1.38Q22.55,40.8,18.4,33.86c-.12-.19-.24-.38-.38-.63l-2.14,1.31a2.46,2.46,0,0,1-2.61.09,2.66,2.66,0,0,1-.17-4.58c2.07-1.31,4.17-2.58,6.25-3.87L35,16.56a2.51,2.51,0,0,1,3,.07,2.65,2.65,0,0,1,0,4.26c-.58.42-1.22.77-1.83,1.15l-.52.33c.1.2.18.35.27.5Q40.16,30,44.43,37.09a1.9,1.9,0,0,0,.68.67L79.56,56.52c3.32,1.81,6.66,3.59,10,5.45a15.4,15.4,0,0,1,5.42,4.86,9,9,0,0,1,.59,9.73,12.6,12.6,0,0,1-4.3,4.77c-3.45,2.25-7,4.41-10.46,6.58L61.18,100H100V0Z"/></svg>