<?xml version="1.0" encoding="utf-8"?>
<!-- Generator: Adobe Illustrator 25.0.0, SVG Export Plug-In . SVG Version: 6.00 Build 0)  -->
<svg version="1.1" id="Layer_1" xmlns="http://www.w3.org/2000/svg" xmlns:xlink="http://www.w3.org/1999/xlink" x="0px" y="0px"
	 viewBox="0 0 100 100" style="enable-background:new 0 0 100 100;" xml:space="preserve">
<style type="text/css">
	.st0{enable-background:new    ;}
	.st1{clip-path:url(#SVGID_2_);enable-background:new    ;}
	.st2{fill:#8B5CF6;}
	.st3{fill:url(#SVGID_3_);}
	.st4{fill:#462E7C;}
	.st5{clip-path:url(#SVGID_5_);enable-background:new    ;}
	.st6{fill:#D1BEFB;}
	.st7{clip-path:url(#SVGID_7_);enable-background:new    ;}
	.st8{clip-path:url(#SVGID_9_);enable-background:new    ;}
	.st9{clip-path:url(#SVGID_11_);enable-background:new    ;}
	.st10{clip-path:url(#SVGID_13_);enable-background:new    ;}
	.st11{clip-path:url(#SVGID_15_);enable-background:new    ;}
	.st12{clip-path:url(#SVGID_17_);fill:url(#SVGID_18_);}
	.st13{fill:#6D4CD6;}
	.st14{fill:url(#SVGID_19_);}
	.st15{clip-path:url(#SVGID_21_);enable-background:new    ;}
	.st16{fill:#6845B9;}
	.st17{fill:url(#SVGID_22_);}
	.st18{fill:#6241AE;}
	.st19{clip-path:url(#SVGID_24_);enable-background:new    ;}
	.st20{clip-path:url(#SVGID_26_);enable-background:new    ;}
</style>
<g>
	<g>
		<g class="st0">
			<g class="st0">
				<defs>
					<path id="SVGID_1_" class="st0" d="M7.2,49.8c0.2-0.8,1.8-0.9,4.4-0.3c3.5,0.9,7.3,2.9,8.6,4.4c-2.3,3.8-7.1,2.8-7.9,2.6
						c0,0-0.1-0.1-0.1-0.1c-0.1,0-0.1,0-0.1,0s0.1,0.1,0.1,0.1s0.1,0,0.1,0c0.8,0.2,5.6,1.2,7.9-2.6c0.4,0.5,0.5,0.9,0.3,1.2
						c-0.3,0.5-1.1,1.7-2.9,2.2c-1.2,0.4-2.6,0.4-4.2,0c-0.5-0.1-1.3-0.4-2.3-0.9c-0.7-0.3-1.3-0.8-1.8-1.2
						c-1.5-1.3-1.9-2.5-2.1-3.4C6.9,51,7.1,50.2,7.2,49.8z"/>
				</defs>
				<clipPath id="SVGID_2_">
					<use xlink:href="#SVGID_1_"  style="overflow:visible;"/>
				</clipPath>
				<g class="st1">
					<path class="st2" d="M7.2,49.8c-0.4,2.7,0.8,4.9,3.5,6.5c3,1.7,6.5,1.9,8.4,0.4c0.7-0.5,1-0.9,1.4-1.5c0.2-0.3,0.1-0.7-0.3-1.2
						c-2.3,3.8-7.1,2.8-7.9,2.6c0,0,0,0-0.1,0s-0.1,0-0.1-0.1s0,0,0.1,0c0.1,0,0.1,0,0.1,0.1c0.8,0.2,5.6,1.2,7.9-2.6
						c-1.3-1.6-5.1-3.6-8.6-4.4C9,48.9,7.3,49,7.2,49.8"/>
					<path class="st2" d="M12.3,56.6c-0.1,0-0.2,0-0.2-0.1C12.2,56.5,12.3,56.5,12.3,56.6c0.8,0.2,5.6,1.2,7.9-2.6
						c-1-1.3-3.7-2.8-6.5-3.8c-0.1,0.1-0.3,0.3-0.4,0.4c-1.5,0.8-3.6,0.3-4-1.5c-1.3-0.1-2,0.2-2.1,0.7c0,0.2-0.1,0.4-0.1,0.6l0,0.2
						l0,0.6c0,0.2,0.1,0.5,0.1,0.7l0.1,0.5c0.1,0.2,0.2,0.5,0.3,0.7l0.2,0.4c0.1,0.2,0.3,0.5,0.5,0.7l0.3,0.3
						C8.7,54.7,8.9,54.9,9,55l0.3,0.2c0.1,0.1,0.2,0.2,0.4,0.3l0.3,0.2c0.1,0.1,0.2,0.1,0.3,0.2l0.2,0.2c0.1,0,0.2,0.1,0.3,0.2
						l0.2,0.1c0.1,0,0.2,0.1,0.2,0.1l0.2,0.1c0.1,0,0.2,0.1,0.2,0.1l0.2,0.1c0.1,0,0.1,0.1,0.2,0.1l0.2,0.1c0.1,0,0.2,0.1,0.2,0.1
						l0.2,0.1c0.1,0,0.2,0.1,0.2,0.1l0.2,0.1c0.1,0,0.2,0.1,0.3,0.1l0.3,0.1c0.1,0,0.2,0,0.3,0.1l0.3,0.1c0.1,0,0.3,0,0.4,0l0.4,0
						c0.1,0,0.3,0,0.4,0l0.4,0c0.2,0,0.4,0,0.6,0l0.4-0.1c0.2,0,0.5-0.1,0.8-0.2l0.5-0.2c0.6-0.3,0.6-0.3,1-0.6l0.4-0.4
						c0.5-0.5,0.6-0.6,0.9-1.1c0.2-0.3,0.1-0.7-0.3-1.2C17.9,57.8,13.1,56.8,12.3,56.6"/>
				</g>
			</g>
			<path class="st2" d="M9.2,49.1L26.1,7c-1.1-0.1-1.9,0.1-2,0.6L7.2,49.7C7.4,49.3,8.1,49.1,9.2,49.1"/>
			<linearGradient id="SVGID_3_" gradientUnits="userSpaceOnUse" x1="17.9595" y1="29.6028" x2="27.1819" y2="33.2774">
				<stop  offset="0" style="stop-color:#6D4CD6"/>
				<stop  offset="0.4517" style="stop-color:#8B5CF6"/>
				<stop  offset="0.6724" style="stop-color:#D1BEFB"/>
				<stop  offset="1" style="stop-color:#8B5CF6"/>
			</linearGradient>
			<path class="st3" d="M26,41.5c1.2-2.9,2.3-5.8,3.5-8.8l2.5-6.2c0.3-0.9,0.7-1.7,1-2.5l0.5-1.1c1.4-3.5,2.7-6.8,4-9.9
				c0.1-0.3,0-0.6-0.4-1.1c-0.1-0.1-0.3-0.3-0.4-0.4c0,0-0.1-0.1-0.1-0.1c-0.2-0.1-0.3-0.3-0.5-0.4c0,0-0.1-0.1-0.1-0.1
				c-0.2-0.1-0.4-0.3-0.6-0.4c0,0-0.1,0-0.1-0.1c-0.2-0.1-0.5-0.3-0.7-0.4c-0.1,0-0.1-0.1-0.2-0.1c-0.3-0.1-0.5-0.3-0.8-0.4
				c0,0-0.1,0-0.1-0.1c-0.3-0.1-0.5-0.3-0.8-0.4c-0.1,0-0.1,0-0.2-0.1c-0.3-0.1-0.6-0.3-0.9-0.4c-0.1,0-0.1-0.1-0.2-0.1
				c-0.3-0.1-0.6-0.2-1-0.4c0,0,0,0,0,0c0,0,0,0,0,0c-0.3-0.1-0.6-0.2-0.9-0.3c-0.1,0-0.1,0-0.2-0.1c-0.3-0.1-0.6-0.2-0.9-0.2
				c-0.3-0.1-0.5-0.1-0.8-0.2c-0.1,0-0.1,0-0.2,0c-0.2,0-0.4-0.1-0.6-0.1c-0.1,0-0.1,0-0.2,0c-0.2,0-0.4,0-0.6-0.1l0,0
				c-1.1-0.1-1.9,0.1-2,0.6l-4,9.9c-0.2,0.4-0.3,0.8-0.5,1.1l-1,2.5c-0.8,2-1.6,4.1-2.5,6.2l-3.5,8.8c-0.3,0.9-0.7,1.7-1,2.5
				l-0.5,1.1c-1.4,3.5-2.7,6.8-4,9.9c-0.1,0.3,0,0.6,0.4,1.1c0.1,0.1,0.3,0.3,0.4,0.4c0,0,0.1,0.1,0.1,0.1c0.2,0.1,0.3,0.3,0.5,0.4
				c0,0,0.1,0.1,0.1,0.1c0.2,0.1,0.4,0.3,0.6,0.4c0,0,0.1,0,0.1,0.1c0.2,0.1,0.5,0.3,0.7,0.4c0.1,0,0.1,0.1,0.2,0.1
				c0.3,0.1,0.5,0.3,0.8,0.4c0,0,0.1,0,0.1,0.1c0.3,0.1,0.5,0.3,0.8,0.4c0.1,0,0.1,0,0.2,0.1c0.3,0.1,0.6,0.3,0.9,0.4
				c0.1,0,0.1,0.1,0.2,0.1c0.3,0.1,0.6,0.2,1,0.4c0,0,0,0,0,0c0,0,0,0,0,0c0.3,0.1,0.6,0.2,0.9,0.3c0.1,0,0.1,0,0.2,0.1
				c0.3,0.1,0.6,0.2,0.9,0.2c0.3,0.1,0.5,0.1,0.8,0.2c0.1,0,0.1,0,0.2,0c0.2,0,0.4,0.1,0.6,0.1c0.1,0,0.1,0,0.2,0
				c0.2,0,0.4,0,0.6,0.1c0,0,0,0,0,0c0,0,0.1,0,0.1,0c0.2,0,0.3,0,0.5,0c0,0,0.1,0,0.1,0c0.2,0,0.3,0,0.4,0c0,0,0.1,0,0.1,0
				c0.1,0,0.2-0.1,0.3-0.1c0,0,0,0,0,0c0.1,0,0.2-0.1,0.3-0.2c0,0,0,0,0,0c0.1-0.1,0.1-0.1,0.1-0.2l4-9.9c0.2-0.4,0.3-0.8,0.5-1.1
				L26,41.5z"/>
			<g>
				<path class="st4" d="M38.4,12.2c1.5,1.9-0.7,2.6-4.9,1.5s-8.9-3.5-10.4-5.4s0.7-2.6,4.9-1.5S36.9,10.3,38.4,12.2z M37.1,11.9
					c-1.3-1.6-5.1-3.6-8.6-4.4s-5.3-0.3-4,1.3c1.3,1.6,5.1,3.6,8.6,4.4C36.5,14,38.3,13.4,37.1,11.9"/>
			</g>
			<g class="st0">
				<defs>
					<path id="SVGID_4_" class="st0" d="M13,54.2c-0.3,0.8-0.6,1.5-0.9,2.3c0,0,0,0,0.1,0c0.1,0,0.1,0,0.1,0.1l0.9-2.3
						C13.1,54.3,13.1,54.2,13,54.2z M30,12.1l2-5C31.3,8.8,30.7,10.4,30,12.1C30,12.1,30,12.1,30,12.1z"/>
				</defs>
				<clipPath id="SVGID_5_">
					<use xlink:href="#SVGID_4_"  style="overflow:visible;"/>
				</clipPath>
				<g class="st5">
					<path class="st2" d="M32,7.1L12.3,56.6c0,0-0.1,0-0.1-0.1L32,7.1"/>
					<path class="st6" d="M32,7.1L12.2,56.5c0,0,0,0,0,0c0,0,0,0,0,0L32,7.1"/>
					<path class="st2" d="M32,7.1L12.1,56.5c0,0,0,0,0,0L32,7.1"/>
				</g>
			</g>
			<g class="st0">
				<defs>
					<path id="SVGID_6_" class="st0" d="M13,54.2c-0.3,0.8-0.6,1.5-0.9,2.3c0,0,0,0,0,0c0,0,0.1,0.1,0.1,0.1c0,0,0.1,0,0.1,0
						l0.9-2.3C13.2,54.3,13.1,54.2,13,54.2z M30,12.1l2-5l0,0C31.3,8.8,30.7,10.4,30,12.1C30,12.1,30,12.1,30,12.1z"/>
				</defs>
				<clipPath id="SVGID_7_">
					<use xlink:href="#SVGID_6_"  style="overflow:visible;"/>
				</clipPath>
				<g class="st7">
					<path class="st2" d="M32,7.1L12.1,56.5c0,0,0,0,0,0c0,0,0.1,0,0.1,0.1L32,7.1"/>
					<path class="st6" d="M32,7.1L12.2,56.6c0,0,0,0,0,0c0,0,0,0,0,0L32,7.1"/>
					<path class="st2" d="M32,7.1L12.3,56.6c0,0,0,0,0,0L32,7.1"/>
				</g>
			</g>
			<g class="st0">
				<defs>
					<path id="SVGID_8_" class="st0" d="M13.2,54.3l-0.9,2.3c0,0,0,0,0,0L13.2,54.3C13.2,54.3,13.2,54.3,13.2,54.3z M30,12.1l2-5
						L30,12.1C30,12.1,30,12.1,30,12.1z"/>
				</defs>
				<clipPath id="SVGID_9_">
					<use xlink:href="#SVGID_8_"  style="overflow:visible;"/>
				</clipPath>
				<g class="st8">
					<path class="st2" d="M32,7.1L12.3,56.6c0,0,0,0,0,0L32,7.1"/>
				</g>
			</g>
			<g class="st0">
				<defs>
					<path id="SVGID_10_" class="st0" d="M8.3,54.3c-1.1-1.4-1.4-2.8-1.1-4.5c-0.1,0.3,0.1,0.6,0.4,1c1.3,1.6,5.1,3.6,8.6,4.4
						c2.4,0.6,4,0.5,4.4-0.1c-0.5,0.8-0.6,0.8-1.2,1.3c0,0-0.4,0.3-1.1,0.7c-0.9,0.4-2,0.6-3.1,0.5C12,57.4,9.5,55.8,8.3,54.3z"/>
				</defs>
				<clipPath id="SVGID_11_">
					<use xlink:href="#SVGID_10_"  style="overflow:visible;"/>
				</clipPath>
				<g class="st9">
					<path class="st2" d="M8.3,54.3c-1.4-1.8-1.3-3.4-1.1-4.5c-0.1,0.3,0.1,0.6,0.4,1c1.3,1.6,5.1,3.6,8.6,4.4
						c2.4,0.6,4,0.5,4.4-0.1C17.1,59.9,10.3,56.9,8.3,54.3"/>
					<path class="st2" d="M19.1,56.6c-0.4,0.3-0.8,0.5-1.5,0.7l-0.4,0.1c-0.2,0-0.5,0.1-0.8,0.1l-0.4,0c-0.2,0-0.4,0-0.6,0l-0.4,0
						c-0.1,0-0.3,0-0.4,0l-0.3,0c-0.1,0-0.2,0-0.3-0.1l-0.3-0.1c-0.1,0-0.2,0-0.3-0.1l-0.3-0.1c-0.1,0-0.2-0.1-0.3-0.1l-0.2-0.1
						c-0.1,0-0.2-0.1-0.2-0.1L12.2,57c-0.1,0-0.2-0.1-0.2-0.1l-0.2-0.1c-0.1,0-0.1-0.1-0.2-0.1l-0.2-0.1c-0.1,0-0.2-0.1-0.2-0.1
						l-0.2-0.1c-0.1,0-0.2-0.1-0.2-0.1l-0.2-0.1c-0.1,0-0.2-0.1-0.3-0.2l-0.3-0.2c-0.1-0.1-0.2-0.1-0.3-0.2l-0.3-0.2
						C9.2,55.3,9.1,55.1,9,55l-0.3-0.3c-0.1-0.1-0.3-0.3-0.4-0.5L8,53.9c-0.1-0.2-0.3-0.5-0.4-0.7l-0.2-0.5
						c-0.1-0.2-0.2-0.5-0.2-0.7l-0.1-0.6c0-0.2,0-0.5,0-0.8L7.1,50l0-0.2c-0.1,0.3,0.1,0.6,0.4,1c1.1,1.4,4.4,3.2,7.6,4.1
						c0,0,0,0,0,0.1c0.8,0.6,1.4,0.8,2.6,0.6c1.4,0.2,2.4,0,2.7-0.4c-0.1,0.2-0.3,0.4-0.4,0.5C19.7,56.1,19.5,56.4,19.1,56.6"/>
				</g>
			</g>
			<g class="st0">
				<defs>
					<path id="SVGID_12_" class="st0" d="M38.8,13.5c0.1-0.3,0-0.8-0.4-1.3L39.7,9c0.4,0.5,0.6,1,0.4,1.3
						C39.7,11.3,39.2,12.6,38.8,13.5z"/>
				</defs>
				<clipPath id="SVGID_13_">
					<use xlink:href="#SVGID_12_"  style="overflow:visible;"/>
				</clipPath>
				<g class="st10">
					<path class="st2" d="M38.8,13.5l1.3-3.2c0.1-0.3,0-0.8-0.4-1.3l-1.3,3.2C38.8,12.7,39,13.2,38.8,13.5"/>
				</g>
			</g>
			<g class="st0">
				<defs>
					<path id="SVGID_14_" class="st0" d="M23.9,3.9c0.3-0.8,2.3-1,5.3-0.2c4.2,1.1,8.9,3.5,10.4,5.4l-1.3,3.2
						c-1.5-1.9-6.2-4.3-10.4-5.4c-3-0.8-5-0.6-5.3,0.2C23,6.1,23.6,4.8,23.9,3.9z"/>
				</defs>
				<clipPath id="SVGID_15_">
					<use xlink:href="#SVGID_14_"  style="overflow:visible;"/>
				</clipPath>
				<g class="st11">
					<path class="st2" d="M38.4,12.2L39.7,9c-1.2-1.5-4.5-3.4-8-4.6l-1.3,3.2C33.8,8.8,37.2,10.7,38.4,12.2"/>
					<path class="st6" d="M30.4,7.6l1.3-3.2c-0.8-0.3-1.6-0.5-2.4-0.7c-1.1-0.3-2.1-0.4-2.9-0.5l-1.3,3.2c0.8,0,1.8,0.2,2.9,0.5
						C28.8,7,29.6,7.3,30.4,7.6"/>
					<path class="st2" d="M25.1,6.4l1.3-3.2c-1.4-0.1-2.3,0.2-2.5,0.7L22.7,7C22.9,6.5,23.7,6.3,25.1,6.4"/>
				</g>
			</g>
			<g class="st0">
				<defs>
					<path id="SVGID_16_" class="st0" d="M22.7,7l1.3-3.2c-0.1,0.3,0,0.8,0.4,1.3c1.5,1.9,6.2,4.3,10.4,5.4c3,0.8,5,0.6,5.3-0.2
						l-1.3,3.2c-0.3,0.8-2.3,1-5.3,0.2c-4.2-1.1-8.9-3.5-10.4-5.4C22.7,7.8,22.5,7.4,22.7,7z"/>
				</defs>
				<clipPath id="SVGID_17_">
					<use xlink:href="#SVGID_16_"  style="overflow:visible;"/>
				</clipPath>
				<linearGradient id="SVGID_18_" gradientUnits="userSpaceOnUse" x1="30.5775" y1="9.583" x2="34.9725" y2="11.2401">
					<stop  offset="0" style="stop-color:#6D4CD6"/>
					<stop  offset="0.4517" style="stop-color:#8B5CF6"/>
					<stop  offset="0.6724" style="stop-color:#D1BEFB"/>
					<stop  offset="1" style="stop-color:#8B5CF6"/>
				</linearGradient>
				<path class="st12" d="M37.6,11c-0.8,0-1.8-0.2-2.9-0.5c-0.8-0.2-1.6-0.4-2.4-0.7c-3.5-1.2-6.8-3.1-8-4.6c-0.4-0.5-0.6-1-0.4-1.3
					L22.7,7c-0.1,0.3,0,0.8,0.4,1.3c1.2,1.5,4.5,3.4,8,4.6c0.8,0.3,1.6,0.5,2.4,0.7c1.1,0.3,2.1,0.4,2.9,0.5
					c1.4,0.1,2.3-0.2,2.5-0.7l1.3-3.2C39.9,10.9,39,11.1,37.6,11z"/>
			</g>
			<g>
				<ellipse transform="matrix(0.3721 -0.9282 0.9282 0.3721 13.5205 34.1752)" class="st6" cx="32" cy="7.1" rx="2.4" ry="8.7"/>
			</g>
		</g>
		<g>
			<ellipse transform="matrix(0.3721 -0.9282 0.9282 0.3721 13.5205 34.1752)" class="st13" cx="32" cy="7.1" rx="1.8" ry="6.3"/>
		</g>
	</g>
	<g>
		<g class="st0">
			<linearGradient id="SVGID_19_" gradientUnits="userSpaceOnUse" x1="54.2426" y1="67.2127" x2="76.4486" y2="58.7601">
				<stop  offset="0" style="stop-color:#6D4CD6"/>
				<stop  offset="0.4517" style="stop-color:#8B5CF6"/>
				<stop  offset="0.6724" style="stop-color:#D1BEFB"/>
				<stop  offset="1" style="stop-color:#8B5CF6"/>
			</linearGradient>
			<path class="st14" d="M89.2,84.4c0-0.1,0.1-0.2,0.1-0.2c0,0,0,0,0,0l0,0c0.1-0.2,0.1-0.3,0.1-0.5c0-0.1,0-0.1,0-0.2
				c0.1-0.4,0.2-0.8,0.2-1.2c0,0,0-0.1,0-0.1c0.1-0.6,0-1.3-0.1-1.8c-0.1-0.3-0.2-0.6-0.2-0.8c0,0,0,0,0,0c0,0,0,0,0,0
				c-0.1-0.2-0.1-0.4-0.3-0.7c0-0.1-0.1-0.2-0.1-0.2l0,0c0,0,0,0,0,0c-0.1-0.3-0.3-0.7-0.6-1.2c-0.1-0.1-0.1-0.2-0.2-0.3
				c0-0.1-0.1-0.2-0.1-0.3c-0.1-0.1-0.1-0.2-0.2-0.3c-0.1-0.3-0.3-0.5-0.4-0.8c0-0.1-0.1-0.1-0.1-0.2c-0.3-0.7-0.7-1.4-1.1-2.2
				c0,0,0-0.1-0.1-0.1c-0.1-0.1-0.1-0.2-0.2-0.4c-0.3-0.6-0.7-1.3-1.1-2c-0.1-0.2-0.2-0.4-0.3-0.6c-1.2-2.3-2.1-3.8-2.6-4.8
				c-4.6-8.3-10.6-19-16.2-28.7c-0.1-0.2-0.2-0.4-0.4-0.6c0,0,0,0,0,0c-0.1-0.1-0.2-0.3-0.2-0.4c0-0.1-0.1-0.2-0.2-0.3
				c-0.1-0.1-0.1-0.2-0.2-0.3c-0.1-0.1-0.2-0.3-0.3-0.4s-0.3-0.3-0.5-0.4c-2.4-1.3-8.2-1.9-13-1.3c-3,0.4-4.8,1.2-5.3,2
				c-0.1,0.2-0.2,0.4-0.3,0.6c-0.1,0.2-0.3,0.5-0.4,0.7c-5.6,9.7-11.7,20.4-16.4,28.8c-0.6,1-1.1,2-1.6,2.9c0,0,0,0,0,0c0,0,0,0,0,0
				c0,0,0,0,0,0c0,0,0,0,0,0c-0.4,0.8-1,1.8-1.4,2.6l0,0c-0.4,0.7-0.9,1.6-1.3,2.3c-0.1,0.2-0.2,0.4-0.4,0.7
				c-0.3,0.5-0.5,0.9-0.7,1.4c0,0,0,0,0,0.1l0,0c0,0,0,0,0,0c-0.1,0.2-0.2,0.5-0.4,0.7c-0.1,0.3-0.3,0.5-0.4,0.7c0,0,0,0.1-0.1,0.1
				c0,0,0,0.1-0.1,0.1c0,0,0,0,0,0c0,0,0,0,0,0c-0.1,0.1-0.1,0.3-0.2,0.4c0,0.1-0.1,0.2-0.1,0.3c0,0.1-0.1,0.1-0.1,0.2
				c-0.4,0.7-0.6,1.3-0.7,1.7c-0.1,0.2-0.1,0.4-0.2,0.8c-0.2,1-0.2,2.1,0.1,3.2c0,0.1,0,0.1,0,0.2c0,0.2,0.1,0.3,0.1,0.5l0,0
				c0,0,0,0,0,0c0,0.1,0.1,0.1,0.1,0.2c0,0,0,0,0,0c0.1,0.2,0.1,0.3,0.2,0.4c0,0.1,0,0.1,0.1,0.2c0.2,0.4,0.4,0.8,0.6,1.2
				c0,0.1,0.1,0.1,0.1,0.2c0,0,0.1,0.1,0.1,0.1c0.1,0.2,0.3,0.4,0.4,0.6c0,0,0,0,0,0c0.6,0.8,1.2,1.5,1.9,2.2c0,0,0,0,0,0
				c0,0,0,0,0.1,0.1c0.1,0.1,0.1,0.1,0.2,0.2l0,0c0.1,0.1,0.3,0.3,0.4,0.4c0,0,0,0,0.1,0.1c0.1,0.1,0.1,0.1,0.2,0.2
				c0.1,0,0.1,0.1,0.2,0.1l0,0c0,0,0,0,0,0c0,0,0,0,0,0l0,0c0.1,0.1,0.3,0.2,0.4,0.3l0.1,0c0.1,0.1,0.1,0.1,0.2,0.2l0.1,0.1
				c0,0,0,0,0,0c0,0,0,0,0,0l0.3,0.3l0.2,0.2l0,0l0,0c0.1,0,0.1,0.1,0.2,0.1c0,0,0,0,0,0c0,0,0,0,0,0c0,0,0,0,0,0c0,0,0.1,0,0.1,0.1
				c0.3,0.2,0.6,0.4,1,0.6c7.2,4.1,25.1,5.8,39.9,3.9c0.8-0.1,1.6-0.2,2.4-0.4c0.1,0,0.1,0,0.2,0c0.7-0.1,1.5-0.3,2.1-0.4
				c0,0,0.1,0,0.2,0c0,0,0.1,0,0.1,0c0.7-0.1,1.3-0.3,1.9-0.4c0.1,0,0.2,0,0.3-0.1c0.6-0.2,1.2-0.3,1.7-0.5c0.1,0,0.2-0.1,0.3-0.1
				c0.5-0.2,1-0.3,1.5-0.5c0.1,0,0.2-0.1,0.2-0.1c0.5-0.2,0.9-0.4,1.3-0.5c0.1,0,0.1-0.1,0.2-0.1c0.4-0.2,0.8-0.4,1.2-0.6
				c0,0,0.1-0.1,0.1-0.1c0.4-0.2,0.7-0.4,1-0.6c0,0,0,0,0,0c0,0,0,0,0,0c0,0,0,0,0,0c0,0,0,0,0,0c0.1,0,0.1-0.1,0.2-0.1c0,0,0,0,0,0
				l0,0l0.2-0.2l0.3-0.3c0,0,0,0,0,0c0,0,0,0,0,0l0,0c0,0,0.1,0,0.1-0.1c0.1,0,0.1-0.1,0.2-0.1c0,0,0,0,0.1-0.1
				c0.1-0.1,0.3-0.2,0.4-0.3l0,0c0,0,0,0,0,0c0,0,0,0,0,0l0,0c0,0,0.1-0.1,0.2-0.1c0.1-0.1,0.1-0.1,0.2-0.2c0,0,0,0,0.1-0.1
				c0.1-0.1,0.3-0.3,0.4-0.4l0.1-0.1c0,0,0,0,0,0c0,0,0,0,0,0l0.1-0.1c0,0,0.1-0.1,0.1-0.1c0,0,0,0,0.1-0.1c0.1-0.1,0.2-0.2,0.3-0.3
				c0.1-0.1,0.3-0.3,0.4-0.5l0.1-0.1c0,0,0,0,0,0c0,0,0,0,0,0l0.1-0.1c0.1-0.2,0.3-0.3,0.4-0.5c0,0,0,0,0,0c0-0.1,0.1-0.1,0.1-0.2
				c0,0,0,0,0,0c0.1-0.1,0.1-0.2,0.2-0.2c0,0,0,0,0-0.1l0.1-0.1c0,0,0,0,0,0c0,0,0,0,0,0l0,0c0.1-0.1,0.1-0.2,0.2-0.2
				c0.1-0.1,0.2-0.3,0.3-0.4c0-0.1,0.1-0.1,0.1-0.2c0.1-0.2,0.2-0.4,0.3-0.5c0,0,0,0,0,0c0,0,0,0,0,0c0-0.1,0.1-0.2,0.1-0.2
				c0.1-0.2,0.2-0.4,0.3-0.5c0,0,0-0.1,0.1-0.2C89,84.7,89.1,84.5,89.2,84.4C89.1,84.4,89.1,84.4,89.2,84.4z"/>
			<g class="st0">
				<defs>
					<path id="SVGID_20_" class="st0" d="M68.5,19.9c0-0.5-0.4-1.1-1.3-1.6l0-3.4c0.9,0.5,1.3,1.1,1.3,1.6
						C68.6,17.5,68.5,18.9,68.5,19.9z"/>
				</defs>
				<clipPath id="SVGID_21_">
					<use xlink:href="#SVGID_20_"  style="overflow:visible;"/>
				</clipPath>
				<g class="st15">
					<path class="st16" d="M68.5,19.9l0-3.4c0-0.5-0.4-1.1-1.3-1.6l0,3.4C68.1,18.8,68.5,19.4,68.5,19.9"/>
				</g>
			</g>
			<linearGradient id="SVGID_22_" gradientUnits="userSpaceOnUse" x1="51.8171" y1="27.7786" x2="63.7081" y2="27.6353">
				<stop  offset="0" style="stop-color:#6D4CD6"/>
				<stop  offset="0.4517" style="stop-color:#8B5CF6"/>
				<stop  offset="0.6724" style="stop-color:#D1BEFB"/>
				<stop  offset="1" style="stop-color:#8B5CF6"/>
			</linearGradient>
			<path class="st17" d="M65.1,35.6l0-2.3c0-2.4,0-5,0-7.5l0-3.7c0-0.8,0-1.5,0-2.3c0-0.4-0.3-0.8-1-1.2c-0.2-0.1-0.4-0.2-0.6-0.3
				c-0.1,0-0.1-0.1-0.2-0.1c-0.2-0.1-0.3-0.1-0.5-0.2c-0.1,0-0.1,0-0.2-0.1c-0.3-0.1-0.5-0.2-0.8-0.2c0,0,0,0,0,0
				c-0.3-0.1-0.6-0.1-0.9-0.2c-0.1,0-0.2,0-0.3-0.1c-0.2,0-0.5-0.1-0.7-0.1c-0.1,0-0.2,0-0.3,0c-0.3,0-0.7-0.1-1-0.1c0,0,0,0-0.1,0
				c-0.3,0-0.7-0.1-1-0.1c-0.1,0-0.2,0-0.3,0c-0.3,0-0.6,0-0.8,0c-0.1,0-0.1,0-0.2,0c0,0,0,0-0.1,0c-0.8,0-1.6,0-2.4,0
				c-0.1,0-0.1,0-0.2,0c-0.8,0-1.6,0.1-2.4,0.2c-0.4,0.1-0.9,0.1-1.2,0.2c-0.1,0-0.3,0.1-0.4,0.1c-0.2,0.1-0.5,0.1-0.7,0.2
				c-0.1,0-0.3,0.1-0.4,0.1c-0.2,0.1-0.4,0.1-0.6,0.2c-0.1,0-0.2,0.1-0.3,0.1c-0.2,0.1-0.3,0.1-0.4,0.2c0,0,0,0-0.1,0
				c-0.1,0.1-0.2,0.1-0.3,0.2c-0.1,0-0.2,0.1-0.3,0.1c-0.1,0.1-0.2,0.1-0.3,0.2c-0.1,0-0.1,0.1-0.2,0.1c-0.1,0.1-0.1,0.2-0.2,0.2
				c0,0-0.1,0.1-0.1,0.1c-0.1,0.1-0.1,0.2-0.1,0.4l0,4.5c0,1.1,0,2.2,0,3.3l0,3.3c0,1.6,0,3.1,0,4.5c0,0.4,0.3,0.8,1,1.2
				c0.2,0.1,0.4,0.2,0.6,0.3c0.1,0,0.1,0.1,0.2,0.1c0.2,0.1,0.3,0.1,0.5,0.2c0.1,0,0.1,0,0.2,0.1c0.3,0.1,0.5,0.2,0.8,0.2
				c0,0,0,0,0,0c0.3,0.1,0.6,0.1,0.9,0.2c0.1,0,0.2,0,0.3,0.1c0.2,0,0.5,0.1,0.7,0.1c0.1,0,0.2,0,0.3,0c0.3,0,0.7,0.1,1,0.1
				c0,0,0,0,0.1,0c0.3,0,0.7,0.1,1,0.1c0.1,0,0.2,0,0.3,0c0.3,0,0.6,0,0.8,0c0.1,0,0.1,0,0.2,0c0,0,0,0,0.1,0c0.8,0,1.6,0,2.4,0
				c0.1,0,0.1,0,0.2,0c0.8,0,1.6-0.1,2.4-0.2c0.4-0.1,0.9-0.1,1.2-0.2c0.1,0,0.2-0.1,0.4-0.1c0.2-0.1,0.5-0.1,0.7-0.2
				c0.1,0,0.3-0.1,0.4-0.1c0.2-0.1,0.4-0.1,0.6-0.2c0.1,0,0.2-0.1,0.3-0.1c0.2-0.1,0.3-0.1,0.4-0.2c0,0,0,0,0.1,0
				c0.1-0.1,0.2-0.1,0.3-0.2c0.1,0,0.2-0.1,0.3-0.1c0.1-0.1,0.2-0.1,0.3-0.2c0.1,0,0.1-0.1,0.2-0.1c0.1-0.1,0.1-0.2,0.2-0.2
				c0,0,0.1-0.1,0.1-0.1C65,35.8,65.1,35.7,65.1,35.6z"/>
			<g>
				<path class="st18" d="M67.2,18.3c3.2,1.8,0.5,4-6,4.9s-14.4,0.1-17.6-1.7s-0.5-4,6-4.9C56.1,15.7,64,16.5,67.2,18.3z M64.1,18.7
					c-2.4-1.3-8.2-1.9-13-1.3s-6.8,2.3-4.5,3.6c2.4,1.3,8.2,1.9,13,1.3S66.5,20.1,64.1,18.7"/>
			</g>
			<g class="st0">
				<defs>
					<path id="SVGID_23_" class="st0" d="M42.2,16.4c0-1.4,2.7-2.6,7.4-3.3c6.5-0.9,14.4-0.1,17.6,1.7l0,3.4
						c-3.2-1.8-11.1-2.6-17.6-1.7c-4.7,0.6-7.4,1.9-7.4,3.3C42.2,18.8,42.2,17.5,42.2,16.4z"/>
				</defs>
				<clipPath id="SVGID_24_">
					<use xlink:href="#SVGID_23_"  style="overflow:visible;"/>
				</clipPath>
				<g class="st19">
					<path class="st16" d="M67.2,18.3l0-3.4c-2.1-1.2-6.4-2-10.9-2.1l0,3.4C60.8,16.3,65.1,17.1,67.2,18.3"/>
					<path class="st2" d="M56.3,16.2l0-3.4c-2.2,0-4.6,0.1-6.7,0.4c-2.4,0.3-4.3,0.8-5.6,1.4l0,3.4c1.3-0.6,3.2-1.1,5.6-1.4
						C51.7,16.3,54,16.2,56.3,16.2"/>
					<path class="st16" d="M44,18l0-3.4c-1.2,0.6-1.8,1.2-1.8,1.8l0,3.4C42.2,19.2,42.8,18.6,44,18"/>
				</g>
			</g>
			<g class="st0">
				<defs>
					<path id="SVGID_25_" class="st0" d="M42.2,19.9l0-3.4c0,0.5,0.4,1.1,1.3,1.6c3.2,1.8,11.1,2.6,17.6,1.7
						c4.7-0.6,7.4-1.9,7.4-3.3l0,3.4c0,1.4-2.7,2.6-7.4,3.3c-6.5,0.9-14.4,0.1-17.6-1.7C42.6,21,42.2,20.4,42.2,19.9z"/>
				</defs>
				<clipPath id="SVGID_26_">
					<use xlink:href="#SVGID_25_"  style="overflow:visible;"/>
				</clipPath>
				<g class="st20">
					<path class="st16" d="M42.2,19.9l0-3.4c0,0.5,0.4,1.1,1.3,1.6c2.1,1.2,6.4,2,10.9,2.1l0,3.4c-4.5-0.1-8.8-0.8-10.9-2.1
						C42.6,21,42.2,20.4,42.2,19.9"/>
					<path class="st2" d="M54.4,23.5l0-3.4c2.2,0,4.6-0.1,6.7-0.4c2.4-0.3,4.3-0.8,5.6-1.4l0,3.4c-1.3,0.6-3.2,1.1-5.6,1.4
						C59,23.5,56.7,23.6,54.4,23.5"/>
					<path class="st16" d="M66.7,21.8l0-3.4c1.2-0.6,1.8-1.2,1.8-1.8l0,3.4C68.5,20.6,67.9,21.2,66.7,21.8"/>
				</g>
			</g>
			<g>
				
					<ellipse transform="matrix(1.857401e-03 -1 1 1.857401e-03 38.8195 71.7947)" class="st6" cx="55.4" cy="16.5" rx="3.7" ry="13.2"/>
			</g>
		</g>
	</g>
	<g>
		
			<ellipse transform="matrix(1.857401e-03 -1 1 1.857401e-03 38.8195 71.7947)" class="st13" cx="55.4" cy="16.5" rx="2.9" ry="10.5"/>
	</g>
	<ellipse class="st13" cx="56.3" cy="60.7" rx="20.9" ry="4.2"/>
	<circle class="st2" cx="40.7" cy="73.4" r="2.3"/>
	<circle class="st2" cx="51" cy="51.9" r="3.4"/>
	<circle class="st2" cx="59.1" cy="74.4" r="4.4"/>
	<path class="st16" d="M89.7,80.2c0,0.1-0.1,0.3-0.1,0.4c0,0.1,0,0.1,0,0.2c0,0.2-0.1,0.3-0.1,0.5l0,0c0,0,0,0,0,0
		c0,0.1-0.1,0.2-0.1,0.2c0,0,0,0,0,0c-0.1,0.2-0.1,0.3-0.2,0.5c0,0,0,0.1-0.1,0.2c-0.1,0.2-0.2,0.3-0.3,0.5c0,0.1-0.1,0.1-0.1,0.2
		c0,0,0,0,0,0c0,0,0,0,0,0c-0.1,0.1-0.2,0.3-0.3,0.5c0,0.1-0.1,0.1-0.1,0.2c-0.1,0.1-0.2,0.3-0.3,0.4c-0.1,0.1-0.1,0.2-0.2,0.2l0,0
		c0,0,0,0,0,0c0,0,0,0,0,0l-0.1,0.1c0,0,0,0,0,0.1c-0.1,0.1-0.1,0.1-0.2,0.2c0,0,0,0,0,0c0,0.1-0.1,0.1-0.1,0.2c0,0,0,0,0,0
		c-0.1,0.2-0.3,0.3-0.4,0.5l-0.1,0.1c0,0,0,0,0,0c0,0,0,0,0,0l-0.1,0.1c-0.1,0.2-0.3,0.3-0.4,0.5c-0.1,0.1-0.2,0.2-0.3,0.3
		c0,0,0,0-0.1,0.1c0,0-0.1,0.1-0.1,0.1l-0.1,0.1c0,0,0,0,0,0c0,0,0,0,0,0l-0.1,0.1c-0.1,0.1-0.3,0.3-0.4,0.4c0,0,0,0-0.1,0.1
		c-0.1,0.1-0.1,0.1-0.2,0.2c-0.1,0-0.1,0.1-0.2,0.1l0,0c0,0,0,0,0,0c0,0,0,0,0,0l0,0c-0.1,0.1-0.3,0.2-0.4,0.3c0,0,0,0-0.1,0.1
		c-0.1,0-0.1,0.1-0.2,0.1c0,0-0.1,0-0.1,0.1l0,0c0,0,0,0,0,0c0,0,0,0,0,0l-0.3,0.3l-0.2,0.2l0,0c0,0,0,0,0,0c-0.1,0-0.1,0.1-0.2,0.1
		c0,0,0,0,0,0c0,0,0,0,0,0c0,0,0,0,0,0c0,0,0,0,0,0c-0.3,0.2-0.6,0.4-1,0.6c0,0-0.1,0.1-0.1,0.1c-0.4,0.2-0.7,0.4-1.2,0.6
		c-0.1,0-0.1,0.1-0.2,0.1c-0.4,0.2-0.9,0.4-1.3,0.5c-0.1,0-0.1,0.1-0.2,0.1c-0.5,0.2-1,0.3-1.5,0.5c-0.1,0-0.2,0.1-0.3,0.1
		c-0.5,0.2-1.1,0.3-1.7,0.5c-0.1,0-0.2,0-0.3,0.1c-0.6,0.2-1.2,0.3-1.9,0.4c0,0-0.1,0-0.1,0c0,0-0.1,0-0.2,0
		c-0.7,0.1-1.4,0.3-2.1,0.4c-0.1,0-0.1,0-0.2,0c-0.8,0.1-1.6,0.3-2.4,0.4c-14.8,2-32.6,0.3-39.9-3.9c-0.4-0.2-0.7-0.4-1-0.6
		c0,0-0.1,0-0.1-0.1c0,0,0,0,0,0c0,0,0,0,0,0c0,0,0,0,0,0c-0.1,0-0.1-0.1-0.2-0.1l0,0l0,0l-0.2-0.2l-0.3-0.3c0,0,0,0,0,0
		c0,0,0,0,0,0L26.7,88c-0.1-0.1-0.1-0.1-0.2-0.2l-0.1,0c-0.1-0.1-0.3-0.2-0.4-0.3l0,0c0,0,0,0,0,0c0,0,0,0,0,0l0,0
		c0,0-0.1-0.1-0.2-0.1c-0.1-0.1-0.1-0.1-0.2-0.2c0,0,0,0-0.1-0.1c-0.1-0.1-0.3-0.3-0.4-0.4l0,0c-0.1-0.1-0.1-0.1-0.2-0.2
		c0,0,0,0-0.1-0.1c0,0,0,0,0,0c-0.7-0.7-1.3-1.4-1.9-2.2c0,0,0,0,0,0c-0.1-0.2-0.3-0.4-0.4-0.6c0,0-0.1-0.1-0.1-0.1
		c0-0.1-0.1-0.1-0.1-0.2c-0.2-0.4-0.4-0.8-0.6-1.2c0,0,0-0.1-0.1-0.2c-0.1-0.1-0.1-0.3-0.2-0.4c0,0,0,0,0,0c0-0.1-0.1-0.1-0.1-0.2
		c0,0,0,0,0,0l0,0c-0.1-0.2-0.1-0.3-0.1-0.5c0-0.1,0-0.1,0-0.2c0-0.1-0.1-0.3-0.1-0.4c0,0,0,0,0,0.1c-0.2,1-0.2,2.1,0.1,3.2
		c0,0.1,0,0.1,0,0.2c0,0.2,0.1,0.3,0.1,0.5l0,0c0,0,0,0,0,0c0,0.1,0.1,0.1,0.1,0.2c0,0,0,0,0,0c0.1,0.2,0.1,0.3,0.2,0.4
		c0,0.1,0,0.1,0.1,0.2c0.2,0.4,0.4,0.8,0.6,1.2c0,0.1,0.1,0.1,0.1,0.2c0,0,0.1,0.1,0.1,0.1c0.1,0.2,0.3,0.4,0.4,0.6c0,0,0,0,0,0
		c0.6,0.8,1.2,1.5,1.9,2.2c0,0,0,0,0,0c0,0,0,0,0.1,0.1c0.1,0.1,0.1,0.1,0.2,0.2l0,0c0.1,0.1,0.3,0.3,0.4,0.4c0,0,0,0,0.1,0.1
		c0.1,0.1,0.1,0.1,0.2,0.2c0.1,0,0.1,0.1,0.2,0.1l0,0c0,0,0,0,0,0c0,0,0,0,0,0l0,0c0.1,0.1,0.3,0.2,0.4,0.3l0.1,0
		c0.1,0.1,0.1,0.1,0.2,0.2l0.1,0.1c0,0,0,0,0,0c0,0,0,0,0,0l0.3,0.3l0.2,0.2l0,0l0,0c0.1,0,0.1,0.1,0.2,0.1c0,0,0,0,0,0c0,0,0,0,0,0
		c0,0,0,0,0,0c0,0,0.1,0,0.1,0.1c0.3,0.2,0.6,0.4,1,0.6c7.2,4.1,25.1,5.8,39.9,3.9c0.8-0.1,1.6-0.2,2.4-0.4c0.1,0,0.1,0,0.2,0
		c0.7-0.1,1.5-0.3,2.1-0.4c0,0,0.1,0,0.2,0c0,0,0.1,0,0.1,0c0.7-0.1,1.3-0.3,1.9-0.4c0.1,0,0.2,0,0.3-0.1c0.6-0.2,1.2-0.3,1.7-0.5
		c0.1,0,0.2-0.1,0.3-0.1c0.5-0.2,1-0.3,1.5-0.5c0.1,0,0.2-0.1,0.2-0.1c0.5-0.2,0.9-0.4,1.3-0.5c0.1,0,0.1-0.1,0.2-0.1
		c0.4-0.2,0.8-0.4,1.2-0.6c0,0,0.1-0.1,0.1-0.1c0.4-0.2,0.7-0.4,1-0.6c0,0,0,0,0,0c0,0,0,0,0,0c0,0,0,0,0,0c0,0,0,0,0,0
		c0.1,0,0.1-0.1,0.2-0.1c0,0,0,0,0,0l0,0l0.2-0.2l0.3-0.3c0,0,0,0,0,0c0,0,0,0,0,0l0,0c0,0,0.1,0,0.1-0.1c0.1,0,0.1-0.1,0.2-0.1
		c0,0,0,0,0.1-0.1c0.1-0.1,0.3-0.2,0.4-0.3l0,0c0,0,0,0,0,0c0,0,0,0,0,0l0,0c0,0,0.1-0.1,0.2-0.1c0.1-0.1,0.1-0.1,0.2-0.2
		c0,0,0,0,0.1-0.1c0.1-0.1,0.3-0.3,0.4-0.4l0.1-0.1c0,0,0,0,0,0c0,0,0,0,0,0l0.1-0.1c0,0,0.1-0.1,0.1-0.1c0,0,0,0,0.1-0.1
		c0.1-0.1,0.2-0.2,0.3-0.3c0.1-0.1,0.3-0.3,0.4-0.5l0.1-0.1c0,0,0,0,0,0c0,0,0,0,0,0l0.1-0.1c0.1-0.2,0.3-0.3,0.4-0.5c0,0,0,0,0,0
		c0-0.1,0.1-0.1,0.1-0.2c0,0,0,0,0,0c0.1-0.1,0.1-0.2,0.2-0.2c0,0,0,0,0-0.1l0.1-0.1c0,0,0,0,0,0c0,0,0,0,0,0l0,0
		c0.1-0.1,0.1-0.2,0.2-0.2c0.1-0.1,0.2-0.3,0.3-0.4c0-0.1,0.1-0.1,0.1-0.2c0.1-0.2,0.2-0.4,0.3-0.5c0,0,0,0,0,0c0,0,0,0,0,0
		c0-0.1,0.1-0.2,0.1-0.2c0.1-0.2,0.2-0.4,0.3-0.5c0,0,0-0.1,0.1-0.2c0.1-0.2,0.1-0.3,0.2-0.5c0,0,0,0,0,0c0-0.1,0.1-0.2,0.1-0.2
		c0,0,0,0,0,0l0,0c0.1-0.2,0.1-0.3,0.1-0.5c0-0.1,0-0.1,0-0.2c0.1-0.4,0.2-0.8,0.2-1.2c0,0,0-0.1,0-0.1c0.1-0.6,0-1.3-0.1-1.8
		C89.7,80.2,89.7,80.2,89.7,80.2z"/>
</g>
</svg>
