<?xml version="1.0" encoding="utf-8"?>
<!-- Generator: Adobe Illustrator 25.4.1, SVG Export Plug-In . SVG Version: 6.00 Build 0)  -->
<svg version="1.1" id="Layer_1" xmlns="http://www.w3.org/2000/svg" xmlns:xlink="http://www.w3.org/1999/xlink" x="0px" y="0px"
	 viewBox="0 0 100 100" style="enable-background:new 0 0 100 100;" xml:space="preserve">
<style type="text/css">
	.st0{fill:#FFFFFF;}
</style>
<g>
	<path class="st0" d="M20.6,54.9c0-0.1,0-0.1,0-0.2l3.8-9.5c0.2-0.4,0.3-0.8,0.5-1.1l1.1-2.6c1.2-2.9,2.3-5.8,3.5-8.8l2.5-6.2
		c0.3-0.9,0.7-1.7,1-2.5l0.5-1.1c1.2-3,2.4-5.9,3.5-8.7c0.9,0,1.6-0.2,1.8-0.6c0-0.1,0.1-0.1,0.1-0.2l1.3-3.2c0,0.1-0.1,0.1-0.1,0.1
		c0,0,0,0,0-0.1c0.2-0.3,0-0.8-0.4-1.3c-1.2-1.5-4.5-3.4-8-4.6c-0.6-0.2-1.3-0.4-1.9-0.6c-0.1,0-0.2-0.1-0.3-0.1c0,0-0.1,0-0.1,0
		c0,0,0,0,0,0c-0.2,0-0.4-0.1-0.6-0.1c-0.1,0-0.2,0-0.2-0.1c-0.7-0.1-1.3-0.2-1.9-0.3c0,0-0.1,0-0.1,0c-0.4,0-0.7,0-1,0
		c-0.1,0-0.2,0-0.2,0c0,0-0.1,0-0.1,0c-0.1,0-0.2,0-0.3,0.1c0,0,0,0,0,0c-0.1,0-0.2,0.1-0.2,0.1c0,0,0,0-0.1,0c0,0,0,0,0,0
		c0,0-0.1,0-0.1,0.1c0,0-0.1,0-0.1,0.1c0,0-0.1,0.1-0.1,0.1c-0.1,0.1-0.1,0.1-0.2,0.2l-0.5,1.3c-0.3,0.7-0.6,1.4-0.8,1.9
		C22.6,7,22.7,7,22.7,7c0,0.1-0.1,0.2-0.1,0.3c0,0.3,0.1,0.7,0.5,1.1c0.1,0.2,0.3,0.3,0.4,0.5L20,17.5c-0.2,0.4-0.3,0.8-0.5,1.1
		l-1,2.5c-0.8,2-1.6,4.1-2.5,6.2l-3.5,8.8c-0.3,0.9-0.7,1.7-1,2.5L11,39.7c-1.4,3.5-2.7,6.8-4,9.9c-0.1,0.2,0,0.4,0.1,0.6v0
		C7,50.6,7,51,7.1,51.4c0,0,0,0,0,0l0,0.1c0,0,0,0.1,0,0.1c0,0.1,0,0.2,0.1,0.3c0,0.1,0,0.2,0,0.2c0,0.1,0.1,0.2,0.1,0.4
		c0,0.1,0.1,0.3,0.2,0.4c0,0,0,0,0,0.1c0,0,0,0.1,0,0.1l0,0.1c0,0,0,0,0,0c0.1,0.1,0.1,0.3,0.2,0.4c0,0,0,0,0,0.1
		c0,0,0.1,0.1,0.1,0.1c0,0,0,0.1,0.1,0.1L8.1,54c0.1,0.1,0.2,0.2,0.2,0.3c0.1,0.2,0.3,0.4,0.5,0.6c0,0,0,0,0,0
		C8.9,55,9,55.1,9.1,55.2c0.1,0.1,0.2,0.2,0.3,0.2l0.1,0.1c0,0,0.1,0.1,0.1,0.1c0.1,0.1,0.3,0.2,0.4,0.3c0.1,0,0.1,0.1,0.2,0.1
		c0.1,0,0.1,0.1,0.2,0.1c0,0,0,0,0,0c0.1,0.1,0.1,0.1,0.2,0.2c0.4,0.3,0.9,0.5,1.4,0.6c0,0,0.1,0.1,0.1,0.1c0.1,0,0.2,0.1,0.2,0.1
		l0.2,0.1c0.1,0,0.2,0.1,0.2,0.1l0.2,0.1c0.1,0,0.2,0.1,0.3,0.1l0.3,0.1c0.1,0,0.2,0,0.3,0.1l0.3,0.1c0.1,0,0.3,0,0.4,0H15
		c0.1,0,0.3,0,0.4,0h0.4c0.2,0,0.4,0,0.6,0l0.4-0.1c0.2,0,0.5-0.1,0.8-0.2l0.5-0.2c0.6-0.3,0.6-0.3,1-0.6c0,0,0,0,0,0
		c0.4-0.3,0.6-0.5,0.8-0.7c0.2-0.2,0.4-0.4,0.7-0.9c0,0-0.1,0.1-0.1,0.1C20.6,55.1,20.6,55,20.6,54.9z"/>
	<path class="st0" d="M89.6,80.6c0,0.1,0,0.1,0,0.2c0,0,0,0.1,0,0.1c0-0.2-0.1-0.3-0.1-0.5c-0.1-0.3-0.2-0.6-0.2-0.8
		c-0.1-0.2-0.1-0.4-0.3-0.7c0-0.1-0.1-0.2-0.1-0.2c-0.1-0.3-0.3-0.7-0.6-1.2c-0.1-0.1-0.1-0.2-0.2-0.3c0-0.1-0.1-0.2-0.1-0.3
		c-0.1-0.1-0.1-0.2-0.2-0.3c-0.1-0.3-0.3-0.5-0.4-0.8c0-0.1-0.1-0.1-0.1-0.2c-0.3-0.7-0.7-1.4-1.1-2.2c0,0,0-0.1-0.1-0.1
		c-0.1-0.1-0.1-0.2-0.2-0.4c-0.3-0.6-0.7-1.3-1.1-2c-0.1-0.2-0.2-0.4-0.3-0.6c-1.2-2.3-2.1-3.8-2.6-4.8c-4.6-8.3-10.6-19-16.2-28.7
		c-0.1-0.2-0.2-0.4-0.4-0.6c-0.1-0.1-0.2-0.3-0.2-0.4c0,0,0-0.1,0-0.1c0,0,0-0.1,0-0.1v-2.3c0-2.4,0-5,0-7.5v-3.4
		c0.6-0.2,1.1-0.4,1.6-0.6v0c0.4-0.2,0.7-0.4,1-0.6c0.1-0.1,0.2-0.2,0.3-0.2c0.1,0,0.1-0.1,0.2-0.1c0.4-0.4,0.5-0.8,0.4-1.2
		c0-0.8,0.1-1.9,0-2.8c0.1-0.1,0.1-0.3,0.1-0.4c0-2-5.6-3.6-12.7-3.7c0,0,0,0,0,0c-0.2,0-0.3,0-0.5,0c-0.2,0-0.4,0-0.6,0
		c-0.1,0-0.2,0-0.3,0c-0.3,0-0.6,0-0.9,0c-0.1,0-0.3,0-0.4,0c-0.3,0-0.6,0-0.9,0.1c-0.1,0-0.2,0-0.3,0c-0.4,0-0.7,0.1-1.1,0.1
		c0,0-0.1,0-0.1,0c-2.7,0.3-5,0.8-6.5,1.5c-0.1,0.1-0.3,0.1-0.4,0.2c0,0,0,0-0.1,0c-1,0.5-1.6,1.1-1.6,1.8c0,0,0,0.1,0,0.1
		c0,1.1,0,2.3,0,3.3v0.1c0,0.5,0.4,1.1,1.3,1.6c0.5,0.3,1.2,0.6,2,0.9v1.8c0,1.1,0,2.2,0,3.3v3.3c0,1.6,0,3.1,0,4.5v0
		c-0.1,0.1-0.1,0.3-0.2,0.4c-0.1,0.2-0.3,0.5-0.4,0.7c-5.6,9.7-11.7,20.4-16.4,28.8c-0.6,1-1.1,2-1.6,2.9c-0.4,0.8-1,1.8-1.4,2.6
		c-0.4,0.7-0.9,1.6-1.3,2.3c-0.1,0.2-0.2,0.4-0.4,0.7c-0.3,0.5-0.5,0.9-0.7,1.4c0,0,0,0,0,0.1c-0.1,0.2-0.2,0.5-0.4,0.7
		c-0.1,0.3-0.3,0.5-0.4,0.7c0,0,0,0.1-0.1,0.1c0,0,0,0.1-0.1,0.1c-0.1,0.1-0.1,0.3-0.2,0.4c0,0.1-0.1,0.2-0.1,0.3
		c0,0.1-0.1,0.1-0.1,0.2c-0.4,0.7-0.6,1.3-0.7,1.7c-0.1,0.2-0.1,0.4-0.2,0.8c-0.2,1-0.2,2.1,0.1,3.2c0,0.1,0,0.1,0,0.2
		c0,0.2,0.1,0.3,0.1,0.5c0,0.1,0.1,0.1,0.1,0.2c0.1,0.2,0.1,0.3,0.2,0.4c0,0.1,0,0.1,0.1,0.2c0.2,0.4,0.4,0.8,0.6,1.2
		c0,0.1,0.1,0.1,0.1,0.2l0.1,0.1c0.1,0.2,0.3,0.4,0.4,0.6c0.6,0.8,1.2,1.5,1.9,2.2c0,0,0,0,0.1,0.1c0.1,0.1,0.1,0.1,0.2,0.2
		c0.1,0.1,0.3,0.3,0.4,0.4c0,0,0,0,0.1,0.1c0.1,0.1,0.1,0.1,0.2,0.2c0.1,0,0.1,0.1,0.2,0.1c0.1,0.1,0.3,0.2,0.4,0.3h0.1
		c0.1,0.1,0.1,0.1,0.2,0.2l0.1,0.1l0.3,0.3l0.2,0.2c0.1,0,0.1,0.1,0.2,0.1c0,0,0.1,0,0.1,0.1c0.3,0.2,0.6,0.4,1,0.6
		c1.1,0.7,2.6,1.2,4.2,1.8c8.6,2.9,23.4,3.9,36,2.2c0.8-0.1,1.6-0.2,2.4-0.4c0.1,0,0.1,0,0.2,0c0.7-0.1,1.5-0.3,2.1-0.4
		c0,0,0.1,0,0.2,0h0.1c0.7-0.1,1.3-0.3,1.9-0.4c0.1,0,0.2,0,0.3-0.1c0.6-0.2,1.2-0.3,1.7-0.5c0.1,0,0.2-0.1,0.3-0.1
		c0.5-0.2,1-0.3,1.5-0.5c0.1,0,0.2-0.1,0.2-0.1c0.5-0.2,0.9-0.4,1.3-0.5c0.1,0,0.1-0.1,0.2-0.1c0.4-0.2,0.8-0.4,1.2-0.6l0.1-0.1
		c0.4-0.2,0.7-0.4,1-0.6c0.1,0,0.1-0.1,0.2-0.1l0.2-0.2l0.3-0.3c0,0,0.1,0,0.1-0.1c0.1,0,0.1-0.1,0.2-0.1c0,0,0,0,0.1-0.1
		c0.1-0.1,0.3-0.2,0.4-0.3c0,0,0.1-0.1,0.2-0.1c0.1-0.1,0.1-0.1,0.2-0.2c0,0,0,0,0.1-0.1c0.1-0.1,0.3-0.3,0.4-0.4l0.1-0.1l0.1-0.1
		l0.1-0.1c0,0,0,0,0.1-0.1c0.1-0.1,0.2-0.2,0.3-0.3c0.1-0.1,0.3-0.3,0.4-0.5l0.1-0.1l0.1-0.1c0.1-0.2,0.3-0.3,0.4-0.5
		c0-0.1,0.1-0.1,0.1-0.2c0.1-0.1,0.1-0.2,0.2-0.2c0,0,0,0,0-0.1l0.1-0.1c0.1-0.1,0.1-0.2,0.2-0.2c0.1-0.1,0.2-0.3,0.3-0.4
		c0-0.1,0.1-0.1,0.1-0.2c0.1-0.2,0.2-0.4,0.3-0.5c0-0.1,0.1-0.2,0.1-0.2c0.1-0.2,0.2-0.4,0.3-0.5c0,0,0-0.1,0.1-0.2
		c0.1-0.2,0.1-0.3,0.2-0.5c0-0.1,0.1-0.2,0.1-0.2c0.1-0.2,0.1-0.3,0.1-0.5c0-0.1,0-0.1,0-0.2c0.1-0.4,0.2-0.8,0.2-1.2v-0.1
		C89.8,81.8,89.7,81.1,89.6,80.6z M43.7,18.2C43.7,18.2,43.7,18.2,43.7,18.2C43.7,18.2,43.7,18.2,43.7,18.2
		C43.8,18.1,43.8,18.2,43.7,18.2C43.8,18.2,43.8,18.2,43.7,18.2z"/>
	<path class="st0" d="M89.6,80.6L89.6,80.6c0-0.1,0.1-0.2,0.1-0.3C89.6,80.4,89.6,80.5,89.6,80.6z"/>
</g>
</svg>
