<?xml version="1.0" encoding="utf-8"?>
<!-- Generator: Adobe Illustrator 25.4.1, SVG Export Plug-In . SVG Version: 6.00 Build 0)  -->
<svg version="1.1" id="Layer_1" xmlns="http://www.w3.org/2000/svg" xmlns:xlink="http://www.w3.org/1999/xlink" x="0px" y="0px"
	 viewBox="0 0 100 100" style="enable-background:new 0 0 100 100;" xml:space="preserve">
<style type="text/css">
	.st0{fill:#FFFFFF;}
</style>
<g>
	<path class="st0" d="M86.3,84.5C86.4,84.5,86.4,84.4,86.3,84.5L86.3,84.5z"/>
	<path class="st0" d="M86.2,64.4c0,0.1,0,0.3,0,0.4c0,0.1,0,0.1-0.1,0.2v0.1c0,0.1-0.1,0.2-0.2,0.3c-0.1,0.1-0.2,0.2-0.3,0.3
		l-0.1,0.1c-0.1,0.1-0.2,0.1-0.2,0.2c0,0-0.1,0.1-0.2,0.1c-0.1,0.1-0.2,0.1-0.3,0.2c-0.1,0-0.1,0.1-0.2,0.1
		c-0.1,0.1-0.2,0.1-0.3,0.2c-0.1,0-0.1,0.1-0.2,0.1c-0.1,0.1-0.2,0.1-0.4,0.2c-0.1,0-0.1,0.1-0.2,0.1c-0.1,0-0.2,0.1-0.3,0.1
		c-0.2,0.1-0.3,0.1-0.5,0.2c-0.1,0-0.2,0.1-0.3,0.1c-0.2,0.1-0.3,0.1-0.5,0.2c-0.1,0-0.2,0.1-0.4,0.1c-0.2,0.1-0.4,0.1-0.6,0.2
		c-0.1,0-0.3,0.1-0.4,0.1c-0.2,0.1-0.4,0.1-0.6,0.2c-0.1,0-0.3,0.1-0.4,0.1c-0.2,0.1-0.5,0.1-0.7,0.2c-0.1,0-0.2,0.1-0.4,0.1
		c-0.4,0.1-0.7,0.2-1.1,0.2c0,0,0,0-0.1,0C76.8,68.9,76.4,69,76,69c-0.1,0-0.3,0.1-0.4,0.1c-0.3,0.1-0.6,0.1-0.9,0.2
		c-0.2,0-0.3,0.1-0.5,0.1c-0.3,0-0.6,0.1-0.9,0.1c-0.2,0-0.4,0.1-0.6,0.1c-0.3,0-0.6,0.1-0.9,0.1c-0.2,0-0.4,0.1-0.6,0.1
		c-0.3,0-0.7,0.1-1,0.1c-0.2,0-0.4,0-0.6,0.1c-0.4,0-0.8,0.1-1.2,0.1c-0.1,0-0.2,0-0.4,0c-0.8,0.1-1.6,0.2-2.4,0.2
		c-0.1,0-0.3,0-0.4,0c-0.8,0.1-1.6,0.1-2.5,0.2c-0.2,0-0.3,0-0.5,0c-0.8,0.1-1.7,0.1-2.6,0.2c-0.1,0-0.3,0-0.4,0
		c-0.9,0-1.9,0.1-2.8,0.1c0,0,0,0-0.1,0c-1.3,0-2.6,0.1-3.9,0.1c-0.5,0-0.9,0-1.4,0c-1.4,0-2.7,0-4,0c-0.2,0-0.3,0-0.5,0
		c-0.6,0-1.2,0-1.8,0c-0.2,0-0.4,0-0.5,0c-0.7,0-1.4,0-2.2-0.1c-0.1,0-0.3,0-0.4,0c-0.6,0-1.2-0.1-1.8-0.1c-0.2,0-0.4,0-0.6,0
		c-0.7,0-1.3-0.1-2-0.1h-0.1c-0.7,0-1.4-0.1-2.1-0.2c-0.2,0-0.3,0-0.5,0c-0.7-0.1-1.3-0.1-2-0.2c0,0,0,0-0.1,0
		c-0.7-0.1-1.3-0.1-1.9-0.2c-0.2,0-0.3,0-0.5-0.1c-0.6-0.1-1.2-0.1-1.8-0.2c0,0,0,0-0.1,0c-0.6-0.1-1.2-0.2-1.7-0.3
		c-0.1,0-0.3,0-0.4-0.1c-0.5-0.1-1.1-0.2-1.6-0.3c-0.5-0.1-1-0.2-1.5-0.3c-0.1,0-0.2,0-0.3-0.1c-0.5-0.1-0.9-0.2-1.3-0.3
		c-0.4-0.1-0.8-0.2-1.2-0.3c-0.1,0-0.2-0.1-0.3-0.1c-0.4-0.1-0.7-0.2-1.1-0.3c-0.3-0.1-0.7-0.2-1-0.4c-0.1,0-0.1-0.1-0.2-0.1
		c-0.3-0.1-0.6-0.2-0.8-0.4c-0.2-0.1-0.4-0.3-0.6-0.4L16,66.2c-0.2-0.1-0.3-0.3-0.5-0.4c-0.1-0.1-0.2-0.3-0.3-0.4c0,0,0-0.1-0.1-0.1
		C15,65.2,15,65,15,64.9l0.2,19.5c0,0.1,0.1,0.3,0.1,0.4c0,0,0,0.1,0.1,0.1c0.1,0.1,0.2,0.3,0.3,0.4c0.1,0.1,0.3,0.3,0.5,0.4
		l0.1,0.1c0.2,0.1,0.4,0.3,0.6,0.4c0.2,0.1,0.5,0.3,0.8,0.4c0.1,0,0.1,0.1,0.2,0.1c0.3,0.1,0.6,0.2,0.9,0.4c0.3,0.1,0.7,0.2,1.1,0.3
		c0.1,0,0.2,0.1,0.3,0.1c0.4,0.1,0.8,0.2,1.2,0.3c0.4,0.1,0.9,0.2,1.3,0.3c0.1,0,0.2,0.1,0.4,0.1c0.5,0.1,1,0.2,1.5,0.3
		c0.5,0.1,1,0.2,1.6,0.3c0.1,0,0.3,0,0.4,0.1c0.6,0.1,1.1,0.2,1.7,0.3c0,0,0,0,0.1,0c0.6,0.1,1.2,0.2,1.8,0.2c0.2,0,0.3,0,0.5,0.1
		c0.6,0.1,1.3,0.1,1.9,0.2c0,0,0,0,0.1,0c0.6,0.1,1.3,0.1,2,0.2c0.2,0,0.3,0,0.5,0c0.7,0.1,1.4,0.1,2.1,0.2h0.1c0.6,0,1.3,0.1,2,0.1
		c0.2,0,0.4,0,0.6,0c0.6,0,1.2,0.1,1.8,0.1c0.1,0,0.3,0,0.4,0c0.7,0,1.4,0,2.2,0.1c0.2,0,0.4,0,0.5,0c0.6,0,1.2,0,1.8,0
		c0.1,0,0.2,0,0.4,0h0.1c1.3,0,2.7,0,4,0c0.4,0,0.8,0,1.2,0c0.1,0,0.1,0,0.2,0c1.3,0,2.6-0.1,3.9-0.1c0.9,0,1.9-0.1,2.8-0.1
		c0.1,0,0.3,0,0.4,0c0.9,0,1.7-0.1,2.6-0.2c0.2,0,0.3,0,0.5,0c0.8-0.1,1.7-0.1,2.5-0.2c0.1,0,0.3,0,0.4,0c0.8-0.1,1.6-0.2,2.4-0.2
		c0.1,0,0.2,0,0.3,0c0.4,0,0.8-0.1,1.2-0.1c0.2,0,0.4,0,0.6-0.1c0.3,0,0.7-0.1,1-0.1c0.2,0,0.4-0.1,0.6-0.1c0.3,0,0.6-0.1,0.9-0.1
		c0.2,0,0.4-0.1,0.6-0.1c0.3,0,0.6-0.1,0.9-0.1c0.1,0,0.2,0,0.4-0.1c0.1,0,0.1,0,0.1,0c0.3-0.1,0.6-0.1,0.9-0.2
		c0.1,0,0.3-0.1,0.4-0.1c0.4-0.1,0.8-0.2,1.2-0.2c0,0,0,0,0.1,0c0.4-0.1,0.7-0.2,1.1-0.2c0.1,0,0.2-0.1,0.4-0.1
		c0.2-0.1,0.5-0.1,0.7-0.2c0.1,0,0.3-0.1,0.4-0.1c0.2-0.1,0.4-0.1,0.6-0.2c0.1,0,0.3-0.1,0.4-0.1c0.2-0.1,0.4-0.1,0.6-0.2
		c0.1,0,0.2-0.1,0.4-0.1c0.2-0.1,0.3-0.1,0.5-0.2c0.1,0,0.2-0.1,0.3-0.1c0.2-0.1,0.3-0.1,0.5-0.2c0.1,0,0.1-0.1,0.2-0.1
		c0,0,0,0,0.1,0s0.1-0.1,0.2-0.1c0.1-0.1,0.3-0.1,0.4-0.2c0.1,0,0.1-0.1,0.2-0.1c0.1-0.1,0.2-0.1,0.3-0.2c0.1,0,0.1-0.1,0.2-0.1
		c0.1-0.1,0.2-0.1,0.3-0.2c0.1,0,0.1-0.1,0.2-0.1c0.1-0.1,0.2-0.1,0.2-0.2l0.1-0.1c0.1-0.1,0.2-0.2,0.3-0.3c0.3-0.2,0.4-0.3,0.4-0.4
		c0.1-0.1,0.1-0.2,0.1-0.2c0-0.1,0.1-0.3,0-0.4L86.2,64.4z"/>
	<path class="st0" d="M86.2,40c0,0.1,0,0.3,0,0.4c0,0.1,0,0.1-0.1,0.2v0.1c0,0.1-0.1,0.2-0.2,0.3c-0.1,0.1-0.2,0.2-0.3,0.3l-0.1,0.1
		c-0.1,0.1-0.2,0.1-0.2,0.2c0,0-0.1,0.1-0.2,0.1c-0.1,0.1-0.2,0.1-0.3,0.2c-0.1,0-0.1,0.1-0.2,0.1c-0.1,0.1-0.2,0.1-0.3,0.2
		c-0.1,0-0.1,0.1-0.2,0.1c-0.1,0.1-0.2,0.1-0.4,0.2c-0.1,0-0.1,0.1-0.2,0.1c-0.1,0-0.2,0.1-0.3,0.1c-0.2,0.1-0.3,0.1-0.5,0.2
		c-0.1,0-0.2,0.1-0.3,0.1c-0.1-0.1-0.2,0-0.4,0c-0.1,0-0.2,0.1-0.4,0.1c-0.2,0.1-0.4,0.1-0.6,0.2c-0.1,0-0.3,0.1-0.4,0.1
		c-0.2,0.1-0.4,0.1-0.6,0.2c-0.1,0-0.3,0.1-0.4,0.1c-0.2,0.1-0.5,0.1-0.7,0.2c-0.1,0-0.2,0.1-0.4,0.1c-0.4,0.1-0.7,0.2-1.1,0.2
		c0,0,0,0-0.1,0c-0.4,0.1-0.8,0.2-1.2,0.2c-0.1,0-0.3,0.1-0.4,0.1c-0.3,0.1-0.6,0.1-0.9,0.2c-0.2,0-0.3,0.1-0.5,0.1
		c-0.3,0-0.6,0.1-0.9,0.1C73.2,45,73,45,72.8,45c-0.3,0-0.6,0.1-0.9,0.1c-0.2,0-0.4,0.1-0.6,0.1c-0.3,0-0.7,0.1-1,0.1
		c-0.2,0-0.4,0-0.6,0.1c-0.4,0-0.8,0.1-1.2,0.1c-0.1,0-0.2,0-0.4,0c-0.8,0.1-1.6,0.2-2.4,0.2c-0.1,0-0.3,0-0.4,0
		c-0.8,0.1-1.6,0.1-2.5,0.2c-0.2,0-0.3,0-0.5,0c-0.8,0.1-1.7,0.1-2.6,0.2c-0.1,0-0.3,0-0.4,0c-0.9,0-1.9,0.1-2.8,0.1c0,0,0,0-0.1,0
		c-1.3,0-2.6,0.1-3.9,0.1c-0.5,0-0.9,0-1.4,0c-1.4,0-2.7,0-4,0c-0.2,0-0.3,0-0.5,0c-0.6,0-1.2,0-1.8,0c-0.2,0-0.4,0-0.5,0
		c-0.7,0-1.4,0-2.2-0.1c-0.1,0-0.3,0-0.4,0c-0.6,0-1.2-0.1-1.8-0.1c-0.2,0-0.4,0-0.6,0c-0.7,0-1.3-0.1-2-0.1h-0.1
		c-0.7,0-1.4-0.1-2.1-0.2c-0.2,0-0.3,0-0.5,0c-0.7-0.1-1.3-0.1-2-0.2c0,0,0,0-0.1,0c-0.7-0.1-1.3-0.1-1.9-0.2c-0.2,0-0.3,0-0.5-0.1
		c-0.6-0.1-1.2-0.1-1.8-0.2c0,0,0,0-0.1,0c-0.6-0.1-1.2-0.2-1.7-0.3c-0.1,0-0.3,0-0.4-0.1c-0.5-0.1-1.1-0.2-1.6-0.3
		c-0.5-0.1-1-0.2-1.5-0.3c-0.1,0-0.2,0-0.3-0.1c-0.5-0.1-0.9-0.2-1.3-0.3c-0.4-0.1-0.8-0.2-1.2-0.3c-0.1,0-0.2-0.1-0.3-0.1
		c-0.4-0.1-0.7-0.2-1.1-0.3c-0.3-0.1-0.7-0.2-1-0.4c-0.1,0-0.1-0.1-0.2-0.1c-0.3-0.1-0.6-0.2-0.8-0.4c-0.2-0.1-0.4-0.3-0.6-0.4
		l-0.1-0.1c-0.2-0.1-0.3-0.3-0.5-0.4c-0.1-0.1-0.2-0.3-0.3-0.4c0,0,0-0.1-0.1-0.1c-0.1-0.1-0.1-0.3-0.1-0.4l0.2,19.5
		c0,0.1,0.1,0.3,0.1,0.4c0,0,0,0.1,0.1,0.1c0.1,0.1,0.2,0.3,0.3,0.4c0.1,0.1,0.3,0.3,0.5,0.4l0.1,0.1c0.2,0.1,0.4,0.3,0.6,0.4
		c0.2,0.1,0.5,0.3,0.8,0.4c0.1,0,0.1,0.1,0.2,0.1c0.3,0.1,0.6,0.2,0.9,0.4c0.3,0.1,0.7,0.2,1.1,0.3c0.1,0,0.2,0.1,0.3,0.1
		c0.4,0.1,0.8,0.2,1.2,0.3c0.4,0.1,0.9,0.2,1.3,0.3c0.1,0,0.2,0.1,0.4,0.1c0.5,0.1,1,0.2,1.5,0.3c0.5,0.1,1,0.2,1.6,0.3
		c0.1,0,0.3,0,0.4,0.1c0.6,0.1,1.1,0.2,1.7,0.3c0,0,0,0,0.1,0c0.6,0.1,1.2,0.2,1.8,0.2c0.2,0,0.3,0,0.5,0.1c0.6,0.1,1.3,0.1,1.9,0.2
		c0,0,0,0,0.1,0c0.6,0.1,1.3,0.1,2,0.2c0.2,0,0.3,0,0.5,0c0.7,0.1,1.4,0.1,2.1,0.2h0.1c0.6,0,1.3,0.1,2,0.1c0.2,0,0.4,0,0.6,0
		c0.6,0,1.2,0.1,1.8,0.1c0.1,0,0.3,0,0.4,0c0.7,0,1.4,0,2.2,0.1c0.2,0,0.4,0,0.5,0c0.6,0,1.2,0,1.8,0c0.1,0,0.2,0,0.4,0h0.1
		c1.3,0,2.7,0,4,0c0.4,0,0.8,0,1.2,0c0.1,0,0.1,0,0.2,0c1.3,0,2.6-0.1,3.9-0.1c0.9,0,1.9-0.1,2.8-0.1c0.1,0,0.3,0,0.4,0
		c0.9,0,1.7-0.1,2.6-0.2c0.2,0,0.3,0,0.5,0c0.8-0.1,1.7-0.1,2.5-0.2c0.1,0,0.3,0,0.4,0c0.8-0.1,1.6-0.2,2.4-0.2c0.1,0,0.2,0,0.3,0
		c0.4,0,0.8-0.1,1.2-0.1c0.2,0,0.4,0,0.6-0.1c0.3,0,0.7-0.1,1-0.1c0.2,0,0.4-0.1,0.6-0.1c0.3,0,0.6-0.1,0.9-0.1
		c0.2,0,0.4-0.1,0.6-0.1c0.3,0,0.6-0.1,0.9-0.1c0.1,0,0.2,0,0.4-0.1c0.1,0,0.1,0,0.1,0c0.3-0.1,0.6-0.1,0.9-0.2
		c0.1,0,0.3-0.1,0.4-0.1c0.4-0.1,0.8-0.2,1.2-0.2c0,0,0,0,0.1,0c0.4-0.1,0.7-0.2,1.1-0.2c0.1,0,0.2-0.1,0.4-0.1
		c0.2-0.1,0.5-0.1,0.7-0.2c0.1,0,0.3-0.1,0.4-0.1c0.2-0.1,0.4-0.1,0.6-0.2c0.1,0,0.3-0.1,0.4-0.1c0.2-0.1,0.4-0.1,0.6-0.2
		c0.1,0,0.2-0.1,0.4-0.1c0.2-0.1,0.3-0.1,0.5-0.2c0.1,0,0.2-0.1,0.3-0.1c0.2-0.1,0.3-0.1,0.5-0.2c0.1,0,0.1-0.1,0.2-0.1
		c0,0,0,0,0.1,0c0.1,0,0.1-0.1,0.2-0.1c0.1-0.1,0.3-0.1,0.4-0.2c0.1,0,0.1-0.1,0.2-0.1c0.1-0.1,0.2-0.1,0.3-0.2
		c0.1,0,0.1-0.1,0.2-0.1c0.1-0.1,0.2-0.1,0.3-0.2c0.1,0,0.1-0.1,0.2-0.1c0.1-0.1,0.2-0.1,0.2-0.2l0.1-0.1c0.1-0.1,0.2-0.2,0.3-0.3
		c0.2,0,0.2-0.1,0.3-0.2c0.1-0.1,0.1-0.2,0.1-0.2c0-0.1,0.1-0.3,0-0.4L86.2,40z"/>
	<path class="st0" d="M15.3,36c0,0,0,0.1,0.1,0.1c0.1,0.1,0.2,0.3,0.3,0.4c0.1,0.1,0.3,0.3,0.5,0.4l0.1,0.1c0.2,0.1,0.4,0.3,0.6,0.4
		c0.2,0.1,0.5,0.3,0.8,0.4c0.1,0,0.1,0.1,0.2,0.1c0.3,0.1,0.6,0.2,0.9,0.4c0.3,0.1,0.7,0.2,1.1,0.3c0.1,0,0.2,0.1,0.3,0.1
		c0.4,0.1,0.8,0.2,1.2,0.3c0.4,0.1,0.9,0.2,1.3,0.3c0.1,0,0.2,0.1,0.4,0.1c0.5,0.1,1,0.2,1.5,0.3c0.5,0.1,1,0.2,1.6,0.3
		c0.1,0,0.3,0,0.4,0.1c0.6,0.1,1.1,0.2,1.7,0.3c0,0,0,0,0.1,0c0.6,0.1,1.2,0.2,1.8,0.2c0.2,0,0.3,0,0.5,0.1c0.6,0.1,1.3,0.1,1.9,0.2
		c0,0,0,0,0.1,0c0.6,0.1,1.3,0.1,2,0.2c0.2,0,0.3,0,0.5,0c0.7,0.1,1.4,0.1,2.1,0.2h0.1c0.6,0,1.3,0.1,2,0.1c0.2,0,0.4,0,0.6,0
		c0.6,0,1.2,0.1,1.8,0.1c0.1,0,0.3,0,0.4,0c0.7,0,1.4,0,2.2,0.1c0.2,0,0.4,0,0.5,0c0.6,0,1.2,0,1.8,0c0.1,0,0.2,0,0.4,0h0.1
		c1.3,0,2.7,0,4,0c0.4,0,0.8,0,1.2,0c0.1,0,0.1,0,0.2,0c1.3,0,2.6-0.1,3.9-0.1c0.9,0,1.9-0.1,2.8-0.1c0.1,0,0.3,0,0.4,0
		c0.9,0,1.7-0.1,2.6-0.2c0.2,0,0.3,0,0.5,0c0.8-0.1,1.7-0.1,2.5-0.2c0.1,0,0.3,0,0.4,0c0.8-0.1,1.6-0.2,2.4-0.2c0.1,0,0.2,0,0.3,0
		c0.4,0,0.8-0.1,1.2-0.1c0.2,0,0.4,0,0.6-0.1c0.3,0,0.7-0.1,1-0.1c0.2,0,0.4-0.1,0.6-0.1c0.3,0,0.6-0.1,0.9-0.1
		c0.2,0,0.4-0.1,0.6-0.1c0.3,0,0.6-0.1,0.9-0.1c0.1,0,0.2,0,0.4-0.1c0.1,0,0.1,0,0.1,0c0.3-0.1,0.6-0.1,0.9-0.2
		c0.1,0,0.3-0.1,0.4-0.1c0.4-0.1,0.8-0.2,1.2-0.2c0,0,0,0,0.1,0c0.4-0.1,0.7-0.2,1.1-0.2c0.1,0,0.2-0.1,0.4-0.1
		c0.2-0.1,0.5-0.1,0.7-0.2c0.1,0,0.3-0.1,0.4-0.1c0.2-0.1,0.4-0.1,0.6-0.2c0.1,0,0.3-0.1,0.4-0.1c0.2-0.1,0.4-0.1,0.6-0.2
		c0.1,0,0.2-0.1,0.4-0.1c0.2-0.1,0.3-0.1,0.5-0.2c0.1,0,0.2-0.1,0.3-0.1c0.2-0.1,0.3-0.1,0.5-0.2c0.1,0,0.1-0.1,0.2-0.1
		c0,0,0,0,0.1,0s0.1-0.1,0.2-0.1c0.1-0.1,0.3-0.1,0.4-0.2c0.1,0,0.1-0.1,0.2-0.1c0.1-0.1,0.2-0.1,0.3-0.2c0.1,0,0.1-0.1,0.2-0.1
		c0.1-0.1,0.2-0.1,0.3-0.2c0.1,0,0.1-0.1,0.2-0.1c0.1-0.1,0.2-0.1,0.2-0.2l0.1-0.1c0.1-0.1,0.2-0.2,0.3-0.3c0.3-0.2,0.3-0.3,0.4-0.4
		c0.1-0.1,0.1-0.2,0.1-0.2c0-0.1,0.1-0.3,0-0.4l-0.2-19.5c0,0.1,0,0.3,0,0.4s0,0.1-0.1,0.2v0.1c0,0.1-0.1,0.2-0.2,0.3
		c-0.1,0.1-0.2,0.2-0.3,0.3L85.5,17c-0.1,0.1-0.2,0.1-0.2,0.2c0,0-0.1,0.1-0.2,0.1c-0.1,0.1-0.2,0.1-0.3,0.2c-0.1,0-0.1,0.1-0.2,0.1
		c-0.1,0.1-0.2,0.1-0.3,0.2c-0.1,0-0.1,0.1-0.2,0.1C84,18,83.9,18,83.7,18.1c-0.1,0-0.1,0.1-0.2,0.1s-0.2,0.1-0.3,0.1
		c-0.2,0.1-0.3,0.1-0.5,0.2c-0.1,0-0.2,0.1-0.3,0.1c-0.2,0.1-0.3,0.1-0.5,0.2c-0.1,0-0.2,0.1-0.4,0.1c-0.2,0.1-0.4,0.1-0.6,0.2
		c-0.1,0-0.3,0.1-0.4,0.1c-0.2,0.1-0.4,0.1-0.6,0.2c-0.1,0-0.3,0.1-0.4,0.1c-0.2,0.1-0.5,0.1-0.7,0.2c-0.1,0-0.2,0.1-0.4,0.1
		C78,19.9,77.7,20,77.3,20c0,0,0,0-0.1,0c-0.4,0.1-0.8,0.2-1.2,0.2c-0.1,0-0.3,0.1-0.4,0.1c-0.3,0.1-0.6,0.1-0.9,0.2
		c-0.2,0-0.3,0.1-0.5,0.1c-0.3,0-0.6,0.1-0.9,0.1c-0.2,0-0.4,0.1-0.6,0.1c-0.3,0-0.6,0.1-0.9,0.1c-0.2,0-0.4,0.1-0.6,0.1
		c-0.3,0-0.7,0.1-1,0.1c-0.2,0-0.4,0-0.6,0.1c-0.4,0-0.8,0.1-1.2,0.1c-0.1,0-0.2,0-0.4,0c-0.8,0.1-1.6,0.2-2.4,0.2
		c-0.1,0-0.2,0-0.3,0c12.5-1.1,21.1-3.4,20.9-6c-0.3-3.5-16.3-6.2-35.9-6c-19.5,0.2-35.2,3.1-34.9,6.6c0.3,3.3,14.2,5.8,32,6
		c-0.1,0-0.2,0-0.4,0c-0.2,0-0.3,0-0.5,0c-0.6,0-1.2,0-1.8,0c-0.2,0-0.4,0-0.5,0c-0.7,0-1.4,0-2.2-0.1c-0.1,0-0.3,0-0.4,0
		c-0.6,0-1.2-0.1-1.8-0.1c-0.2,0-0.4,0-0.6,0c-0.7,0-1.3-0.1-2-0.1h-0.1c-0.7,0-1.4-0.1-2.1-0.2c-0.2,0-0.3,0-0.5,0
		c-0.7-0.1-1.3-0.1-2-0.2c0,0,0,0-0.1,0c-0.7-0.1-1.3-0.1-1.9-0.2c-0.2,0-0.3,0-0.5-0.1c-0.6-0.1-1.2-0.1-1.8-0.2c0,0,0,0-0.1,0
		c-0.6-0.1-1.2-0.2-1.7-0.3c-0.1,0-0.3,0-0.4-0.1c-0.5-0.1-1.1-0.2-1.6-0.3c-0.5-0.1-1-0.2-1.5-0.3c-0.1,0-0.2,0-0.3-0.1
		c-0.5-0.1-0.9-0.2-1.3-0.3c-0.4-0.1-0.8-0.2-1.2-0.3c-0.1,0-0.2-0.1-0.3-0.1c-0.4-0.1-0.7-0.2-1.1-0.3c-0.3-0.1-0.7-0.2-1-0.4
		c-0.1,0-0.1-0.1-0.2-0.1c-0.3-0.1-0.6-0.2-0.8-0.4c-0.2-0.1-0.4-0.3-0.6-0.4L16,17.4c-0.2-0.1-0.3-0.3-0.5-0.4
		c-0.1-0.1-0.2-0.3-0.3-0.4c0,0,0-0.1-0.1-0.1C15,16.4,15,16.2,15,16.1l0.2,19.5C15.2,35.7,15.3,35.9,15.3,36z M59.6,21.9
		c-0.1,0-0.3,0-0.4,0c-0.1,0-0.3,0-0.4,0c0.6,0,1.3-0.1,1.9-0.1C60.3,21.8,60,21.9,59.6,21.9z M62.7,21.7
		C62.7,21.7,62.6,21.7,62.7,21.7c0.1,0,0.3,0,0.5,0C63,21.7,62.9,21.7,62.7,21.7z M53.1,22.1c-0.2,0-0.5,0-0.7,0c-0.4,0-0.7,0-1.1,0
		c0,0,0,0,0,0C51.9,22.1,52.5,22.1,53.1,22.1z"/>
</g>
</svg>
