<?xml version="1.0" encoding="utf-8"?>
<!-- Generator: Adobe Illustrator 25.0.0, SVG Export Plug-In . SVG Version: 6.00 Build 0)  -->
<svg version="1.1" id="Layer_1" xmlns="http://www.w3.org/2000/svg" xmlns:xlink="http://www.w3.org/1999/xlink" x="0px" y="0px"
	 viewBox="0 0 100 100" style="enable-background:new 0 0 100 100;" xml:space="preserve">
<style type="text/css">
	.st0{enable-background:new    ;}
	.st1{fill:#813B0B;}
	.st2{fill:url(#SVGID_1_);}
	.st3{fill:url(#SVGID_2_);}
	.st4{fill:url(#SVGID_3_);}
</style>
<g>
	<g class="st0">
		<g>
			<path class="st1" d="M51.4,70.9c-19.6,0.2-35.6-2.5-35.9-6c-0.3-3.5,15.4-6.4,34.9-6.6c19.6-0.2,35.6,2.5,35.9,6
				C86.6,67.8,70.9,70.7,51.4,70.9z"/>
		</g>
		<linearGradient id="SVGID_1_" gradientUnits="userSpaceOnUse" x1="15.4971" y1="77.3785" x2="86.4958" y2="77.3785">
			<stop  offset="0" style="stop-color:#A64D0F"/>
			<stop  offset="0.4359" style="stop-color:#F97316"/>
			<stop  offset="0.6033" style="stop-color:#FCB788"/>
			<stop  offset="0.8004" style="stop-color:#F97316"/>
			<stop  offset="1" style="stop-color:#CF6012"/>
		</linearGradient>
		<path class="st2" d="M86.3,84.5C86.4,84.5,86.4,84.4,86.3,84.5c0.1-0.1,0.1-0.2,0.1-0.2c0,0,0,0,0,0c0-0.1,0.1-0.3,0-0.4
			l-0.2-19.5c0,0.1,0,0.3,0,0.4c0,0.1,0,0.1-0.1,0.2c0,0,0,0.1,0,0.1c0,0.1-0.1,0.2-0.2,0.3c0,0,0,0,0,0c-0.1,0.1-0.2,0.2-0.3,0.3
			c0,0-0.1,0.1-0.1,0.1c-0.1,0.1-0.2,0.1-0.2,0.2c0,0-0.1,0.1-0.2,0.1c-0.1,0.1-0.2,0.1-0.3,0.2c-0.1,0-0.1,0.1-0.2,0.1
			c-0.1,0.1-0.2,0.1-0.3,0.2c-0.1,0-0.1,0.1-0.2,0.1c-0.1,0.1-0.2,0.1-0.4,0.2c-0.1,0-0.1,0.1-0.2,0.1c-0.1,0-0.2,0.1-0.3,0.1
			c-0.2,0.1-0.3,0.1-0.5,0.2c-0.1,0-0.2,0.1-0.3,0.1c-0.2,0.1-0.3,0.1-0.5,0.2c-0.1,0-0.2,0.1-0.4,0.1c-0.2,0.1-0.4,0.1-0.6,0.2
			c-0.1,0-0.3,0.1-0.4,0.1c-0.2,0.1-0.4,0.1-0.6,0.2c-0.1,0-0.3,0.1-0.4,0.1c-0.2,0.1-0.5,0.1-0.7,0.2c-0.1,0-0.2,0.1-0.4,0.1
			c-0.4,0.1-0.7,0.2-1.1,0.2c0,0,0,0-0.1,0c-0.4,0.1-0.8,0.2-1.2,0.2c-0.1,0-0.3,0.1-0.4,0.1c-0.3,0.1-0.6,0.1-0.9,0.2
			c-0.2,0-0.3,0.1-0.5,0.1c-0.3,0-0.6,0.1-0.9,0.1c-0.2,0-0.4,0.1-0.6,0.1c-0.3,0-0.6,0.1-0.9,0.1c-0.2,0-0.4,0.1-0.6,0.1
			c-0.3,0-0.7,0.1-1,0.1c-0.2,0-0.4,0-0.6,0.1c-0.4,0-0.8,0.1-1.2,0.1c-0.1,0-0.2,0-0.4,0c-0.8,0.1-1.6,0.2-2.4,0.2
			c-0.1,0-0.3,0-0.4,0c-0.8,0.1-1.6,0.1-2.5,0.2c-0.2,0-0.3,0-0.5,0c-0.8,0.1-1.7,0.1-2.6,0.2c-0.1,0-0.3,0-0.4,0
			c-0.9,0-1.9,0.1-2.8,0.1c0,0,0,0-0.1,0c-1.3,0-2.6,0.1-3.9,0.1c-0.5,0-0.9,0-1.4,0c-1.4,0-2.7,0-4,0c-0.2,0-0.3,0-0.5,0
			c-0.6,0-1.2,0-1.8,0c-0.2,0-0.4,0-0.5,0c-0.7,0-1.4,0-2.2-0.1c-0.1,0-0.3,0-0.4,0c-0.6,0-1.2-0.1-1.8-0.1c-0.2,0-0.4,0-0.6,0
			c-0.7,0-1.3-0.1-2-0.1c0,0-0.1,0-0.1,0c-0.7,0-1.4-0.1-2.1-0.2c-0.2,0-0.3,0-0.5,0c-0.7-0.1-1.3-0.1-2-0.2c0,0,0,0-0.1,0
			c-0.7-0.1-1.3-0.1-1.9-0.2c-0.2,0-0.3,0-0.5-0.1c-0.6-0.1-1.2-0.1-1.8-0.2c0,0,0,0-0.1,0c-0.6-0.1-1.2-0.2-1.7-0.3
			c-0.1,0-0.3,0-0.4-0.1c-0.5-0.1-1.1-0.2-1.6-0.3c0,0,0,0,0,0c-0.5-0.1-1-0.2-1.5-0.3c-0.1,0-0.2,0-0.3-0.1
			c-0.5-0.1-0.9-0.2-1.3-0.3c0,0,0,0,0,0c-0.4-0.1-0.8-0.2-1.2-0.3c-0.1,0-0.2-0.1-0.3-0.1c-0.4-0.1-0.7-0.2-1.1-0.3c0,0,0,0,0,0
			c-0.3-0.1-0.7-0.2-1-0.4c-0.1,0-0.1-0.1-0.2-0.1c-0.3-0.1-0.6-0.2-0.8-0.4c0,0,0,0,0,0c-0.2-0.1-0.4-0.3-0.6-0.4
			c0,0-0.1-0.1-0.1-0.1c-0.2-0.1-0.3-0.3-0.5-0.4c0,0,0,0,0,0c-0.1-0.1-0.2-0.3-0.3-0.4c0,0,0-0.1-0.1-0.1c-0.1-0.1-0.1-0.3-0.1-0.4
			v0l0,0l0.2,19.5c0,0.1,0.1,0.3,0.1,0.4c0,0,0,0.1,0.1,0.1c0.1,0.1,0.2,0.3,0.3,0.4c0,0,0,0,0,0c0.1,0.1,0.3,0.3,0.5,0.4
			c0,0,0.1,0.1,0.1,0.1c0.2,0.1,0.4,0.3,0.6,0.4c0,0,0,0,0,0c0.2,0.1,0.5,0.3,0.8,0.4c0.1,0,0.1,0.1,0.2,0.1
			c0.3,0.1,0.6,0.2,0.9,0.4c0,0,0,0,0,0c0.3,0.1,0.7,0.2,1.1,0.3c0.1,0,0.2,0.1,0.3,0.1c0.4,0.1,0.8,0.2,1.2,0.3c0,0,0,0,0,0
			c0.4,0.1,0.9,0.2,1.3,0.3c0.1,0,0.2,0.1,0.4,0.1c0.5,0.1,1,0.2,1.5,0.3c0,0,0,0,0,0c0.5,0.1,1,0.2,1.6,0.3c0.1,0,0.3,0,0.4,0.1
			c0.6,0.1,1.1,0.2,1.7,0.3c0,0,0,0,0.1,0c0.6,0.1,1.2,0.2,1.8,0.2c0.2,0,0.3,0,0.5,0.1c0.6,0.1,1.3,0.1,1.9,0.2c0,0,0,0,0.1,0
			c0.6,0.1,1.3,0.1,2,0.2c0.2,0,0.3,0,0.5,0c0.7,0.1,1.4,0.1,2.1,0.2c0,0,0,0,0,0c0,0,0.1,0,0.1,0c0.6,0,1.3,0.1,2,0.1
			c0.2,0,0.4,0,0.6,0c0.6,0,1.2,0.1,1.8,0.1c0.1,0,0.3,0,0.4,0c0.7,0,1.4,0,2.2,0.1c0.2,0,0.4,0,0.5,0c0.6,0,1.2,0,1.8,0
			c0.1,0,0.2,0,0.4,0c0,0,0.1,0,0.1,0c1.3,0,2.7,0,4,0c0.4,0,0.8,0,1.2,0c0.1,0,0.1,0,0.2,0c1.3,0,2.6-0.1,3.9-0.1c0,0,0,0,0,0
			c0,0,0,0,0,0c0.9,0,1.9-0.1,2.8-0.1c0.1,0,0.3,0,0.4,0c0.9,0,1.7-0.1,2.6-0.2c0.2,0,0.3,0,0.5,0c0.8-0.1,1.7-0.1,2.5-0.2
			c0.1,0,0.3,0,0.4,0c0.8-0.1,1.6-0.2,2.4-0.2c0,0,0,0,0,0c0.1,0,0.2,0,0.3,0c0.4,0,0.8-0.1,1.2-0.1c0.2,0,0.4,0,0.6-0.1
			c0.3,0,0.7-0.1,1-0.1c0.2,0,0.4-0.1,0.6-0.1c0.3,0,0.6-0.1,0.9-0.1c0.2,0,0.4-0.1,0.6-0.1c0.3,0,0.6-0.1,0.9-0.1
			c0.1,0,0.2,0,0.4-0.1c0.1,0,0.1,0,0.1,0c0.3-0.1,0.6-0.1,0.9-0.2c0.1,0,0.3-0.1,0.4-0.1c0.4-0.1,0.8-0.2,1.2-0.2c0,0,0,0,0.1,0
			c0.4-0.1,0.7-0.2,1.1-0.2c0.1,0,0.2-0.1,0.4-0.1c0.2-0.1,0.5-0.1,0.7-0.2c0.1,0,0.3-0.1,0.4-0.1c0.2-0.1,0.4-0.1,0.6-0.2
			c0.1,0,0.3-0.1,0.4-0.1c0.2-0.1,0.4-0.1,0.6-0.2c0.1,0,0.2-0.1,0.4-0.1c0.2-0.1,0.3-0.1,0.5-0.2c0.1,0,0.2-0.1,0.3-0.1
			c0.2-0.1,0.3-0.1,0.5-0.2c0.1,0,0.1-0.1,0.2-0.1c0,0,0,0,0.1,0c0.1,0,0.1-0.1,0.2-0.1c0.1-0.1,0.3-0.1,0.4-0.2
			c0.1,0,0.1-0.1,0.2-0.1c0.1-0.1,0.2-0.1,0.3-0.2c0.1,0,0.1-0.1,0.2-0.1c0.1-0.1,0.2-0.1,0.3-0.2c0.1,0,0.1-0.1,0.2-0.1
			c0.1-0.1,0.2-0.1,0.2-0.2c0,0,0.1-0.1,0.1-0.1c0.1-0.1,0.2-0.2,0.3-0.3c0,0,0,0,0,0C86.2,84.7,86.3,84.6,86.3,84.5z"/>
	</g>
</g>
<g>
	<g class="st0">
		<g>
			<path class="st1" d="M51.3,46.5c-19.6,0.2-35.6-2.5-35.9-6c-0.3-3.5,15.4-6.4,34.9-6.6c19.6-0.2,35.6,2.5,35.9,6
				C86.5,43.4,70.9,46.4,51.3,46.5z"/>
		</g>
		<linearGradient id="SVGID_2_" gradientUnits="userSpaceOnUse" x1="15.4147" y1="52.9943" x2="86.4135" y2="52.9943">
			<stop  offset="0" style="stop-color:#A64D0F"/>
			<stop  offset="0.4359" style="stop-color:#F97316"/>
			<stop  offset="0.6033" style="stop-color:#FCB788"/>
			<stop  offset="0.8004" style="stop-color:#F97316"/>
			<stop  offset="1" style="stop-color:#CF6012"/>
		</linearGradient>
		<path class="st3" d="M86.3,60.1C86.3,60.1,86.3,60,86.3,60.1c0.1-0.1,0.1-0.2,0.1-0.2c0,0,0,0,0,0c0-0.1,0.1-0.3,0-0.4L86.2,40
			c0,0.1,0,0.3,0,0.4c0,0.1,0,0.1-0.1,0.2c0,0,0,0.1,0,0.1c0,0.1-0.1,0.2-0.2,0.3c0,0,0,0,0,0c-0.1,0.1-0.2,0.2-0.3,0.3
			c0,0-0.1,0.1-0.1,0.1c-0.1,0.1-0.2,0.1-0.2,0.2c0,0-0.1,0.1-0.2,0.1c-0.1,0.1-0.2,0.1-0.3,0.2c-0.1,0-0.1,0.1-0.2,0.1
			c-0.1,0.1-0.2,0.1-0.3,0.2c-0.1,0-0.1,0.1-0.2,0.1c-0.1,0.1-0.2,0.1-0.4,0.2c-0.1,0-0.1,0.1-0.2,0.1c-0.1,0-0.2,0.1-0.3,0.1
			c-0.2,0.1-0.3,0.1-0.5,0.2c-0.1,0-0.2,0.1-0.3,0.1C82.3,42.9,82.2,43,82,43c-0.1,0-0.2,0.1-0.4,0.1c-0.2,0.1-0.4,0.1-0.6,0.2
			c-0.1,0-0.3,0.1-0.4,0.1c-0.2,0.1-0.4,0.1-0.6,0.2c-0.1,0-0.3,0.1-0.4,0.1c-0.2,0.1-0.5,0.1-0.7,0.2c-0.1,0-0.2,0.1-0.4,0.1
			c-0.4,0.1-0.7,0.2-1.1,0.2c0,0,0,0-0.1,0c-0.4,0.1-0.8,0.2-1.2,0.2c-0.1,0-0.3,0.1-0.4,0.1c-0.3,0.1-0.6,0.1-0.9,0.2
			c-0.2,0-0.3,0.1-0.5,0.1c-0.3,0-0.6,0.1-0.9,0.1C73.2,45,73,45,72.8,45c-0.3,0-0.6,0.1-0.9,0.1c-0.2,0-0.4,0.1-0.6,0.1
			c-0.3,0-0.7,0.1-1,0.1c-0.2,0-0.4,0-0.6,0.1c-0.4,0-0.8,0.1-1.2,0.1c-0.1,0-0.2,0-0.4,0c-0.8,0.1-1.6,0.2-2.4,0.2
			c-0.1,0-0.3,0-0.4,0c-0.8,0.1-1.6,0.1-2.5,0.2c-0.2,0-0.3,0-0.5,0c-0.8,0.1-1.7,0.1-2.6,0.2c-0.1,0-0.3,0-0.4,0
			c-0.9,0-1.9,0.1-2.8,0.1c0,0,0,0-0.1,0c-1.3,0-2.6,0.1-3.9,0.1c-0.5,0-0.9,0-1.4,0c-1.4,0-2.7,0-4,0c-0.2,0-0.3,0-0.5,0
			c-0.6,0-1.2,0-1.8,0c-0.2,0-0.4,0-0.5,0c-0.7,0-1.4,0-2.2-0.1c-0.1,0-0.3,0-0.4,0c-0.6,0-1.2-0.1-1.8-0.1c-0.2,0-0.4,0-0.6,0
			c-0.7,0-1.3-0.1-2-0.1c0,0-0.1,0-0.1,0c-0.7,0-1.4-0.1-2.1-0.2c-0.2,0-0.3,0-0.5,0c-0.7-0.1-1.3-0.1-2-0.2c0,0,0,0-0.1,0
			c-0.7-0.1-1.3-0.1-1.9-0.2c-0.2,0-0.3,0-0.5-0.1c-0.6-0.1-1.2-0.1-1.8-0.2c0,0,0,0-0.1,0c-0.6-0.1-1.2-0.2-1.7-0.3
			c-0.1,0-0.3,0-0.4-0.1c-0.5-0.1-1.1-0.2-1.6-0.3c0,0,0,0,0,0c-0.5-0.1-1-0.2-1.5-0.3c-0.1,0-0.2,0-0.3-0.1
			c-0.5-0.1-0.9-0.2-1.3-0.3c0,0,0,0,0,0c-0.4-0.1-0.8-0.2-1.2-0.3c-0.1,0-0.2-0.1-0.3-0.1c-0.4-0.1-0.7-0.2-1.1-0.3c0,0,0,0,0,0
			c-0.3-0.1-0.7-0.2-1-0.4c-0.1,0-0.1-0.1-0.2-0.1c-0.3-0.1-0.6-0.2-0.8-0.4c0,0,0,0,0,0c-0.2-0.1-0.4-0.3-0.6-0.4
			c0,0-0.1-0.1-0.1-0.1c-0.2-0.1-0.3-0.3-0.5-0.4c0,0,0,0,0,0c-0.1-0.1-0.2-0.3-0.3-0.4c0,0,0-0.1-0.1-0.1c-0.1-0.1-0.1-0.3-0.1-0.4
			v0l0,0l0.2,19.5c0,0.1,0.1,0.3,0.1,0.4c0,0,0,0.1,0.1,0.1c0.1,0.1,0.2,0.3,0.3,0.4c0,0,0,0,0,0c0.1,0.1,0.3,0.3,0.5,0.4
			c0,0,0.1,0.1,0.1,0.1c0.2,0.1,0.4,0.3,0.6,0.4c0,0,0,0,0,0c0.2,0.1,0.5,0.3,0.8,0.4c0.1,0,0.1,0.1,0.2,0.1
			c0.3,0.1,0.6,0.2,0.9,0.4c0,0,0,0,0,0c0.3,0.1,0.7,0.2,1.1,0.3c0.1,0,0.2,0.1,0.3,0.1c0.4,0.1,0.8,0.2,1.2,0.3c0,0,0,0,0,0
			c0.4,0.1,0.9,0.2,1.3,0.3c0.1,0,0.2,0.1,0.4,0.1c0.5,0.1,1,0.2,1.5,0.3c0,0,0,0,0,0c0.5,0.1,1,0.2,1.6,0.3c0.1,0,0.3,0,0.4,0.1
			c0.6,0.1,1.1,0.2,1.7,0.3c0,0,0,0,0.1,0c0.6,0.1,1.2,0.2,1.8,0.2c0.2,0,0.3,0,0.5,0.1c0.6,0.1,1.3,0.1,1.9,0.2c0,0,0,0,0.1,0
			c0.6,0.1,1.3,0.1,2,0.2c0.2,0,0.3,0,0.5,0c0.7,0.1,1.4,0.1,2.1,0.2c0,0,0,0,0,0c0,0,0.1,0,0.1,0c0.6,0,1.3,0.1,2,0.1
			c0.2,0,0.4,0,0.6,0c0.6,0,1.2,0.1,1.8,0.1c0.1,0,0.3,0,0.4,0c0.7,0,1.4,0,2.2,0.1c0.2,0,0.4,0,0.5,0c0.6,0,1.2,0,1.8,0
			c0.1,0,0.2,0,0.4,0c0,0,0.1,0,0.1,0c1.3,0,2.7,0,4,0c0.4,0,0.8,0,1.2,0c0.1,0,0.1,0,0.2,0c1.3,0,2.6-0.1,3.9-0.1c0,0,0,0,0,0
			c0,0,0,0,0,0c0.9,0,1.9-0.1,2.8-0.1c0.1,0,0.3,0,0.4,0c0.9,0,1.7-0.1,2.6-0.2c0.2,0,0.3,0,0.5,0c0.8-0.1,1.7-0.1,2.5-0.2
			c0.1,0,0.3,0,0.4,0c0.8-0.1,1.6-0.2,2.4-0.2c0,0,0,0,0,0c0.1,0,0.2,0,0.3,0c0.4,0,0.8-0.1,1.2-0.1c0.2,0,0.4,0,0.6-0.1
			c0.3,0,0.7-0.1,1-0.1c0.2,0,0.4-0.1,0.6-0.1c0.3,0,0.6-0.1,0.9-0.1c0.2,0,0.4-0.1,0.6-0.1c0.3,0,0.6-0.1,0.9-0.1
			c0.1,0,0.2,0,0.4-0.1c0.1,0,0.1,0,0.1,0c0.3-0.1,0.6-0.1,0.9-0.2c0.1,0,0.3-0.1,0.4-0.1c0.4-0.1,0.8-0.2,1.2-0.2c0,0,0,0,0.1,0
			c0.4-0.1,0.7-0.2,1.1-0.2c0.1,0,0.2-0.1,0.4-0.1c0.2-0.1,0.5-0.1,0.7-0.2c0.1,0,0.3-0.1,0.4-0.1c0.2-0.1,0.4-0.1,0.6-0.2
			c0.1,0,0.3-0.1,0.4-0.1c0.2-0.1,0.4-0.1,0.6-0.2c0.1,0,0.2-0.1,0.4-0.1c0.2-0.1,0.3-0.1,0.5-0.2c0.1,0,0.2-0.1,0.3-0.1
			c0.2-0.1,0.3-0.1,0.5-0.2c0.1,0,0.1-0.1,0.2-0.1c0,0,0,0,0.1,0c0.1,0,0.1-0.1,0.2-0.1c0.1-0.1,0.3-0.1,0.4-0.2
			c0.1,0,0.1-0.1,0.2-0.1c0.1-0.1,0.2-0.1,0.3-0.2c0.1,0,0.1-0.1,0.2-0.1c0.1-0.1,0.2-0.1,0.3-0.2c0.1,0,0.1-0.1,0.2-0.1
			c0.1-0.1,0.2-0.1,0.2-0.2c0,0,0.1-0.1,0.1-0.1c0.1-0.1,0.2-0.2,0.3-0.3c0,0,0,0,0,0C86.2,60.3,86.2,60.2,86.3,60.1z"/>
	</g>
</g>
<g>
	<g class="st0">
		<g>
			<path class="st1" d="M51.3,22.1c-19.6,0.2-35.6-2.5-35.9-6c-0.3-3.5,15.4-6.4,34.9-6.6c19.6-0.2,35.6,2.5,35.9,6
				C86.5,19,70.9,22,51.3,22.1z"/>
		</g>
		<linearGradient id="SVGID_3_" gradientUnits="userSpaceOnUse" x1="15.4147" y1="28.6101" x2="86.4135" y2="28.6101">
			<stop  offset="0" style="stop-color:#A64D0F"/>
			<stop  offset="0.4359" style="stop-color:#F97316"/>
			<stop  offset="0.6033" style="stop-color:#FCB788"/>
			<stop  offset="0.8004" style="stop-color:#F97316"/>
			<stop  offset="1" style="stop-color:#CF6012"/>
		</linearGradient>
		<path class="st4" d="M86.3,35.7C86.3,35.7,86.3,35.7,86.3,35.7c0.1-0.1,0.1-0.2,0.1-0.2c0,0,0,0,0,0c0-0.1,0.1-0.3,0-0.4
			l-0.2-19.5c0,0.1,0,0.3,0,0.4c0,0.1,0,0.1-0.1,0.2c0,0,0,0.1,0,0.1c0,0.1-0.1,0.2-0.2,0.3c0,0,0,0,0,0c-0.1,0.1-0.2,0.2-0.3,0.3
			c0,0-0.1,0.1-0.1,0.1c-0.1,0.1-0.2,0.1-0.2,0.2c0,0-0.1,0.1-0.2,0.1c-0.1,0.1-0.2,0.1-0.3,0.2c-0.1,0-0.1,0.1-0.2,0.1
			c-0.1,0.1-0.2,0.1-0.3,0.2c-0.1,0-0.1,0.1-0.2,0.1c-0.1,0.1-0.2,0.1-0.4,0.2c-0.1,0-0.1,0.1-0.2,0.1c-0.1,0-0.2,0.1-0.3,0.1
			c-0.2,0.1-0.3,0.1-0.5,0.2c-0.1,0-0.2,0.1-0.3,0.1c-0.2,0.1-0.3,0.1-0.5,0.2c-0.1,0-0.2,0.1-0.4,0.1c-0.2,0.1-0.4,0.1-0.6,0.2
			c-0.1,0-0.3,0.1-0.4,0.1c-0.2,0.1-0.4,0.1-0.6,0.2c-0.1,0-0.3,0.1-0.4,0.1c-0.2,0.1-0.5,0.1-0.7,0.2c-0.1,0-0.2,0.1-0.4,0.1
			c-0.4,0.1-0.7,0.2-1.1,0.2c0,0,0,0-0.1,0c-0.4,0.1-0.8,0.2-1.2,0.2c-0.1,0-0.3,0.1-0.4,0.1c-0.3,0.1-0.6,0.1-0.9,0.2
			c-0.2,0-0.3,0.1-0.5,0.1c-0.3,0-0.6,0.1-0.9,0.1c-0.2,0-0.4,0.1-0.6,0.1c-0.3,0-0.6,0.1-0.9,0.1c-0.2,0-0.4,0.1-0.6,0.1
			c-0.3,0-0.7,0.1-1,0.1c-0.2,0-0.4,0-0.6,0.1c-0.4,0-0.8,0.1-1.2,0.1c-0.1,0-0.2,0-0.4,0c-0.8,0.1-1.6,0.2-2.4,0.2
			c-0.1,0-0.3,0-0.4,0c-0.8,0.1-1.6,0.1-2.5,0.2c-0.2,0-0.3,0-0.5,0c-0.8,0.1-1.7,0.1-2.6,0.2c-0.1,0-0.3,0-0.4,0
			c-0.9,0-1.9,0.1-2.8,0.1c0,0,0,0-0.1,0c-1.3,0-2.6,0.1-3.9,0.1c-0.5,0-0.9,0-1.4,0c-1.4,0-2.7,0-4,0c-0.2,0-0.3,0-0.5,0
			c-0.6,0-1.2,0-1.8,0c-0.2,0-0.4,0-0.5,0c-0.7,0-1.4,0-2.2-0.1c-0.1,0-0.3,0-0.4,0c-0.6,0-1.2-0.1-1.8-0.1c-0.2,0-0.4,0-0.6,0
			c-0.7,0-1.3-0.1-2-0.1c0,0-0.1,0-0.1,0c-0.7,0-1.4-0.1-2.1-0.2c-0.2,0-0.3,0-0.5,0c-0.7-0.1-1.3-0.1-2-0.2c0,0,0,0-0.1,0
			c-0.7-0.1-1.3-0.1-1.9-0.2c-0.2,0-0.3,0-0.5-0.1c-0.6-0.1-1.2-0.1-1.8-0.2c0,0,0,0-0.1,0c-0.6-0.1-1.2-0.2-1.7-0.3
			c-0.1,0-0.3,0-0.4-0.1c-0.5-0.1-1.1-0.2-1.6-0.3c0,0,0,0,0,0c-0.5-0.1-1-0.2-1.5-0.3c-0.1,0-0.2,0-0.3-0.1
			c-0.5-0.1-0.9-0.2-1.3-0.3c0,0,0,0,0,0c-0.4-0.1-0.8-0.2-1.2-0.3c-0.1,0-0.2-0.1-0.3-0.1c-0.4-0.1-0.7-0.2-1.1-0.3c0,0,0,0,0,0
			c-0.3-0.1-0.7-0.2-1-0.4c-0.1,0-0.1-0.1-0.2-0.1c-0.3-0.1-0.6-0.2-0.8-0.4c0,0,0,0,0,0c-0.2-0.1-0.4-0.3-0.6-0.4
			c0,0-0.1-0.1-0.1-0.1c-0.2-0.1-0.3-0.3-0.5-0.4c0,0,0,0,0,0c-0.1-0.1-0.2-0.3-0.3-0.4c0,0,0-0.1-0.1-0.1c-0.1-0.1-0.1-0.3-0.1-0.4
			v0l0,0l0.2,19.5c0,0.1,0.1,0.3,0.1,0.4c0,0,0,0.1,0.1,0.1c0.1,0.1,0.2,0.3,0.3,0.4c0,0,0,0,0,0c0.1,0.1,0.3,0.3,0.5,0.4
			c0,0,0.1,0.1,0.1,0.1c0.2,0.1,0.4,0.3,0.6,0.4c0,0,0,0,0,0c0.2,0.1,0.5,0.3,0.8,0.4c0.1,0,0.1,0.1,0.2,0.1
			c0.3,0.1,0.6,0.2,0.9,0.4c0,0,0,0,0,0c0.3,0.1,0.7,0.2,1.1,0.3c0.1,0,0.2,0.1,0.3,0.1c0.4,0.1,0.8,0.2,1.2,0.3c0,0,0,0,0,0
			c0.4,0.1,0.9,0.2,1.3,0.3c0.1,0,0.2,0.1,0.4,0.1c0.5,0.1,1,0.2,1.5,0.3c0,0,0,0,0,0c0.5,0.1,1,0.2,1.6,0.3c0.1,0,0.3,0,0.4,0.1
			c0.6,0.1,1.1,0.2,1.7,0.3c0,0,0,0,0.1,0c0.6,0.1,1.2,0.2,1.8,0.2c0.2,0,0.3,0,0.5,0.1c0.6,0.1,1.3,0.1,1.9,0.2c0,0,0,0,0.1,0
			c0.6,0.1,1.3,0.1,2,0.2c0.2,0,0.3,0,0.5,0c0.7,0.1,1.4,0.1,2.1,0.2c0,0,0,0,0,0c0,0,0.1,0,0.1,0c0.6,0,1.3,0.1,2,0.1
			c0.2,0,0.4,0,0.6,0c0.6,0,1.2,0.1,1.8,0.1c0.1,0,0.3,0,0.4,0c0.7,0,1.4,0,2.2,0.1c0.2,0,0.4,0,0.5,0c0.6,0,1.2,0,1.8,0
			c0.1,0,0.2,0,0.4,0c0,0,0.1,0,0.1,0c1.3,0,2.7,0,4,0c0.4,0,0.8,0,1.2,0c0.1,0,0.1,0,0.2,0c1.3,0,2.6-0.1,3.9-0.1c0,0,0,0,0,0
			c0,0,0,0,0,0c0.9,0,1.9-0.1,2.8-0.1c0.1,0,0.3,0,0.4,0c0.9,0,1.7-0.1,2.6-0.2c0.2,0,0.3,0,0.5,0c0.8-0.1,1.7-0.1,2.5-0.2
			c0.1,0,0.3,0,0.4,0c0.8-0.1,1.6-0.2,2.4-0.2c0,0,0,0,0,0c0.1,0,0.2,0,0.3,0c0.4,0,0.8-0.1,1.2-0.1c0.2,0,0.4,0,0.6-0.1
			c0.3,0,0.7-0.1,1-0.1c0.2,0,0.4-0.1,0.6-0.1c0.3,0,0.6-0.1,0.9-0.1c0.2,0,0.4-0.1,0.6-0.1c0.3,0,0.6-0.1,0.9-0.1
			c0.1,0,0.2,0,0.4-0.1c0.1,0,0.1,0,0.1,0c0.3-0.1,0.6-0.1,0.9-0.2c0.1,0,0.3-0.1,0.4-0.1c0.4-0.1,0.8-0.2,1.2-0.2c0,0,0,0,0.1,0
			c0.4-0.1,0.7-0.2,1.1-0.2c0.1,0,0.2-0.1,0.4-0.1c0.2-0.1,0.5-0.1,0.7-0.2c0.1,0,0.3-0.1,0.4-0.1c0.2-0.1,0.4-0.1,0.6-0.2
			c0.1,0,0.3-0.1,0.4-0.1c0.2-0.1,0.4-0.1,0.6-0.2c0.1,0,0.2-0.1,0.4-0.1c0.2-0.1,0.3-0.1,0.5-0.2c0.1,0,0.2-0.1,0.3-0.1
			c0.2-0.1,0.3-0.1,0.5-0.2c0.1,0,0.1-0.1,0.2-0.1c0,0,0,0,0.1,0c0.1,0,0.1-0.1,0.2-0.1c0.1-0.1,0.3-0.1,0.4-0.2
			c0.1,0,0.1-0.1,0.2-0.1c0.1-0.1,0.2-0.1,0.3-0.2c0.1,0,0.1-0.1,0.2-0.1c0.1-0.1,0.2-0.1,0.3-0.2c0.1,0,0.1-0.1,0.2-0.1
			c0.1-0.1,0.2-0.1,0.2-0.2c0,0,0.1-0.1,0.1-0.1c0.1-0.1,0.2-0.2,0.3-0.3c0,0,0,0,0,0C86.2,35.9,86.2,35.8,86.3,35.7z"/>
	</g>
</g>
</svg>
