<?xml version="1.0" encoding="utf-8"?>
<!-- Generator: Adobe Illustrator 25.0.0, SVG Export Plug-In . SVG Version: 6.00 Build 0)  -->
<svg version="1.1" id="Layer_1" xmlns="http://www.w3.org/2000/svg" xmlns:xlink="http://www.w3.org/1999/xlink" x="0px" y="0px"
	 viewBox="0 0 100 100" style="enable-background:new 0 0 100 100;" xml:space="preserve">
<style type="text/css">
	.st0{fill:#fb923c;}
</style>
<path class="st0" d="M0,0v12.7c0.2-0.1,0.5-0.3,0.8-0.4C7.1,8.9,14,7.8,21,6.9c2.6-0.3,5.2-0.5,7.7-0.8c3.1,0,6.3,0,9.4,0
	c3.4,0.4,6.8,0.7,10.2,1.2c6,0.9,11.9,2.2,17.3,5c3.5,1.8,5.1,4.5,5.4,8.7c0.4,6.1-2.4,9.3-7.5,11.5c-6,2.6-12.3,3.7-18.7,4.4
	c-11.5,1.2-22.9,1-34.1-1.9C8.8,34.4,6.9,33.7,5,33v7c9.1,3.1,18.7,3.7,28.3,3.7c12.9,0,25.7-1.1,37.4-8c0,3,0.2,5.9-0.1,8.8
	c-0.2,2.3-2,3.7-3.8,4.9c-4.2,2.7-9,4.1-13.8,5c-15.1,2.8-30.1,2.9-45-1.4c-1-0.3-2-0.7-3-1.1v7c11.4,3.9,23.3,4.2,35.3,3.6
	c7.3-0.4,14.5-1.2,21.5-3.6c3-1.1,5.9-2.6,8.9-3.9c0,2.7,0.2,5.7-0.1,8.6c-0.2,2.2-1.9,3.5-3.6,4.6c-4,2.6-8.4,4-13.1,4.9
	c-15.6,3.2-31.2,3.1-46.5-1.4c-0.8-0.2-1.6-0.5-2.4-0.8v6.9c9,3.1,18.5,3.7,28.1,3.7c13,0,25.9-1.1,37.6-8c0,3,0.2,5.9-0.1,8.7
	c-0.2,2.2-1.8,3.5-3.5,4.7c-4.3,2.9-9.2,4.3-14.2,5.2c-4.5,0.7-9,1.1-13.5,1.7c-0.6,0.1-1.1,0.2-1.7,0.3c-3,0-6,0-9,0
	c-4.3-0.5-8.7-0.7-12.9-1.6C10.8,91.3,6,89.8,1.3,88c-0.4-0.2-0.9-0.4-1.3-0.6V100h100V0H0z"/>
</svg>
