<?xml version="1.0" encoding="utf-8"?>
<!-- Generator: Adobe Illustrator 25.0.0, SVG Export Plug-In . SVG Version: 6.00 Build 0)  -->
<svg version="1.1" id="Layer_1" xmlns="http://www.w3.org/2000/svg" xmlns:xlink="http://www.w3.org/1999/xlink" x="0px" y="0px"
	 viewBox="0 0 100 100" style="enable-background:new 0 0 100 100;" xml:space="preserve">
<style type="text/css">
	.st0{enable-background:new    ;}
	.st1{clip-path:url(#SVGID_2_);enable-background:new    ;}
	.st2{fill:#EAD053;}
	.st3{clip-path:url(#SVGID_4_);enable-background:new    ;}
	.st4{fill:#75682A;}
	.st5{clip-path:url(#SVGID_6_);enable-background:new    ;}
	.st6{fill:#A5933B;}
	.st7{clip-path:url(#SVGID_8_);enable-background:new    ;}
	.st8{clip-path:url(#SVGID_10_);enable-background:new    ;}
	.st9{fill:#81732E;}
	.st10{clip-path:url(#SVGID_12_);enable-background:new    ;}
	.st11{clip-path:url(#SVGID_14_);enable-background:new    ;}
	.st12{clip-path:url(#SVGID_16_);enable-background:new    ;}
	.st13{clip-path:url(#SVGID_18_);enable-background:new    ;}
	.st14{clip-path:url(#SVGID_20_);enable-background:new    ;}
	.st15{fill:#CCB648;}
</style>
<g>
	<g class="st0">
		<g class="st0">
			<defs>
				<path id="SVGID_1_" class="st0" d="M72.6,87.8l-6.2-3.4c-0.1-0.1-0.3-0.1-0.4-0.2l6.2,3.4C72.3,87.7,72.4,87.7,72.6,87.8z"/>
			</defs>
			<clipPath id="SVGID_2_">
				<use xlink:href="#SVGID_1_"  style="overflow:visible;"/>
			</clipPath>
			<g class="st1">
				<path class="st2" d="M72.6,87.8l-6.2-3.4c-0.1-0.1-0.3-0.1-0.4-0.2l6.2,3.4C72.3,87.7,72.4,87.7,72.6,87.8"/>
			</g>
		</g>
		<g class="st0">
			<defs>
				<path id="SVGID_3_" class="st0" d="M86.4,26.4l6.2,3.4c-1-0.5-2.1-0.8-3.5-0.6l-6.2-3.4C84.2,25.7,85.4,25.9,86.4,26.4z"/>
			</defs>
			<clipPath id="SVGID_4_">
				<use xlink:href="#SVGID_3_"  style="overflow:visible;"/>
			</clipPath>
			<g class="st3">
				<path class="st2" d="M89.1,29.2l-6.2-3.4c1.3-0.2,2.5,0,3.5,0.6l6.2,3.4C91.6,29.3,90.5,29.1,89.1,29.2"/>
			</g>
		</g>
		<g>
			<polygon class="st4" points="72.2,87.6 65.9,84.2 52.4,75.5 58.7,78.9 			"/>
		</g>
		<g class="st0">
			<defs>
				<path id="SVGID_5_" class="st0" d="M52.1,75.3l6.2,3.4c0.1,0.1,0.2,0.1,0.3,0.2l-6.2-3.4C52.3,75.4,52.2,75.3,52.1,75.3z"/>
			</defs>
			<clipPath id="SVGID_6_">
				<use xlink:href="#SVGID_5_"  style="overflow:visible;"/>
			</clipPath>
			<g class="st5">
				<path class="st2" d="M58.7,78.9l-6.2-3.4c-0.1-0.1-0.2-0.1-0.3-0.2l6.2,3.4C58.4,78.7,58.6,78.8,58.7,78.9"/>
			</g>
		</g>
		<g>
			<polygon class="st6" points="72.4,31.6 66.2,28.2 82.9,25.8 89.1,29.2 			"/>
		</g>
		<g class="st0">
			<defs>
				<path id="SVGID_7_" class="st0" d="M69,31l-6.2-3.4c1,0.5,2.2,0.8,3.5,0.6l6.2,3.4C71.2,31.8,70,31.5,69,31z"/>
			</defs>
			<clipPath id="SVGID_8_">
				<use xlink:href="#SVGID_7_"  style="overflow:visible;"/>
			</clipPath>
			<g class="st7">
				<path class="st2" d="M69,31l-6.2-3.4c1,0.5,2.2,0.8,3.5,0.6l6.2,3.4C71.2,31.8,70,31.5,69,31"/>
			</g>
		</g>
		<g class="st0">
			<defs>
				<path id="SVGID_9_" class="st0" d="M30.3,93.7L24,90.3c-2.3-1.3-3.7-4.1-2.7-7.7l6.2,3.4C26.6,89.6,28,92.5,30.3,93.7z"/>
			</defs>
			<clipPath id="SVGID_10_">
				<use xlink:href="#SVGID_9_"  style="overflow:visible;"/>
			</clipPath>
			<g class="st8">
				<path class="st2" d="M30.3,93.7L24,90.3c-2.3-1.3-3.7-4.1-2.7-7.7l6.2,3.4C26.6,89.6,28,92.5,30.3,93.7"/>
			</g>
		</g>
		<g>
			<polygon class="st9" points="27.6,86.1 21.4,82.7 26.6,64.8 32.8,68.2 			"/>
		</g>
		<g class="st0">
			<defs>
				<path id="SVGID_11_" class="st0" d="M32.8,68.2l-6.2-3.4c0.9-3-0.1-6-2.3-7.5l6.2,3.4C32.7,62.2,33.7,65.2,32.8,68.2z"/>
			</defs>
			<clipPath id="SVGID_12_">
				<use xlink:href="#SVGID_11_"  style="overflow:visible;"/>
			</clipPath>
			<g class="st10">
				<path class="st2" d="M32.8,68.2l-6.2-3.4c0.9-3-0.1-6-2.3-7.5l6.2,3.4C32.7,62.2,33.7,65.2,32.8,68.2"/>
			</g>
		</g>
		<g class="st0">
			<defs>
				<path id="SVGID_13_" class="st0" d="M52.3,4.4l6.2,3.4c-1.1-0.6-2.3-0.8-3.5-0.6l-6.2-3.4C50,3.7,51.2,3.9,52.3,4.4z"/>
			</defs>
			<clipPath id="SVGID_14_">
				<use xlink:href="#SVGID_13_"  style="overflow:visible;"/>
			</clipPath>
			<g class="st11">
				<path class="st2" d="M55,7.2l-6.2-3.4c1.2-0.2,2.4,0,3.5,0.6l6.2,3.4C57.5,7.3,56.2,7.1,55,7.2"/>
			</g>
		</g>
		<g class="st0">
			<defs>
				<path id="SVGID_15_" class="st0" d="M37.5,36.5l-6.2-3.4c2.8-0.4,5.3-2.7,6.2-5.7l6.2,3.4C42.8,33.8,40.3,36.1,37.5,36.5z"/>
			</defs>
			<clipPath id="SVGID_16_">
				<use xlink:href="#SVGID_15_"  style="overflow:visible;"/>
			</clipPath>
			<g class="st12">
				<path class="st2" d="M37.5,36.5l-6.2-3.4c2.8-0.4,5.3-2.7,6.2-5.7l6.2,3.4C42.8,33.8,40.3,36.1,37.5,36.5"/>
			</g>
		</g>
		<g>
			<polygon class="st9" points="43.7,30.8 37.4,27.4 42.6,9.5 48.9,12.9 			"/>
		</g>
		<g class="st0">
			<defs>
				<path id="SVGID_17_" class="st0" d="M48.9,12.9l-6.2-3.4c1-3.4,3.6-5.3,6.1-5.7L55,7.2C52.4,7.6,49.8,9.6,48.9,12.9z"/>
			</defs>
			<clipPath id="SVGID_18_">
				<use xlink:href="#SVGID_17_"  style="overflow:visible;"/>
			</clipPath>
			<g class="st13">
				<path class="st2" d="M48.9,12.9l-6.2-3.4c1-3.4,3.6-5.3,6.1-5.7L55,7.2C52.4,7.6,49.8,9.6,48.9,12.9"/>
			</g>
		</g>
		<g>
			<polygon class="st4" points="30.5,60.7 24.2,57.3 10.7,48.6 17,52 			"/>
		</g>
		<g>
			<polygon class="st6" points="20.8,38.8 14.5,35.4 31.3,33.1 37.5,36.5 			"/>
		</g>
		<g class="st0">
			<defs>
				<path id="SVGID_19_" class="st0" d="M17,52l-6.2-3.4c-5.1-3.3-2.4-12.3,3.8-13.1l6.2,3.4C14.5,39.7,11.9,48.7,17,52z"/>
			</defs>
			<clipPath id="SVGID_20_">
				<use xlink:href="#SVGID_19_"  style="overflow:visible;"/>
			</clipPath>
			<g class="st14">
				<path class="st2" d="M17,52l-6.2-3.4c-5.1-3.3-2.4-12.3,3.8-13.1l6.2,3.4C14.5,39.7,11.9,48.7,17,52"/>
			</g>
		</g>
		<g>
			<path class="st15" d="M55,7.2c2.6-0.4,5.2,0.9,6.1,4l5.1,16.4c0.9,2.7,3.3,4.3,6.1,3.9l16.7-2.4c6.3-0.9,8.8,7.4,3.8,12.1
				L79.4,53.8c-2.3,2.1-3.2,5.4-2.4,8.1l5.1,16.4c1.5,4.7-2.2,9.5-6.2,10c-1.3,0.2-2.6-0.1-3.8-0.8l-13.5-8.7
				c-1.1-0.7-2.5-1-3.8-0.8c-1.3,0.2-2.7,0.8-3.8,1.9L37.5,92.5c-1.2,1.1-2.5,1.7-3.8,1.9c-4,0.6-7.6-3.2-6.2-8.3l5.2-17.9
				c0.9-3-0.1-6-2.3-7.5L17,52c-5.1-3.3-2.4-12.3,3.8-13.1l16.7-2.4c2.8-0.4,5.3-2.7,6.2-5.7l5.2-17.9C49.8,9.6,52.4,7.6,55,7.2z"/>
		</g>
	</g>
</g>
</svg>
