<?xml version="1.0" encoding="utf-8"?>
<!-- Generator: Adobe Illustrator 25.0.0, SVG Export Plug-In . SVG Version: 6.00 Build 0)  -->
<svg version="1.1" id="Layer_1" xmlns="http://www.w3.org/2000/svg" xmlns:xlink="http://www.w3.org/1999/xlink" x="0px" y="0px"
	 viewBox="0 0 100 100" style="enable-background:new 0 0 100 100;" xml:space="preserve">
<style type="text/css">
	.st0{fill:#7659A5;}
</style>
<path class="st0" d="M84.8,85.2c-1.1,0-1.9-0.9-1.9-1.9V67.9c0-1.1,0.9-1.9,1.9-1.9H100V26.8H80.7c-1,0-1.8-0.8-1.8-1.8V9.5
	c0-1,0.8-1.8,1.8-1.8H100V0H0v100h100V85.2H84.8z M63.5,35.9c0-0.9,0.7-1.5,1.5-1.5h27.4c0.9,0,1.5,0.7,1.5,1.5v16
	c0,0.9-0.7,1.5-1.5,1.5H65c-0.9,0-1.5-0.7-1.5-1.5V35.9z M61.6,61.9c0-0.5,0.4-0.9,0.9-0.9H76c0.5,0,0.9,0.4,0.9,0.9v7.9
	c0,0.5-0.4,0.9-0.9,0.9H62.5c-0.5,0-0.9-0.3-0.9-0.9V61.9z M63.5,82c0,0.5-0.4,0.9-0.9,0.9h-9.6C52.4,83,52,82.6,52,82v-5.3
	c0-0.5,0.4-0.9,0.9-0.9h9.6c0.5,0,0.9,0.4,0.9,0.9V82z M80.8,93.8c0,0.5-0.4,1-1,1H66.6c-0.5,0-1-0.4-1-1v-7.5c0-0.5,0.4-1,1-1h13.2
	c0.6,0,1.1,0.5,1,1V93.8z"/>
</svg>
