<?xml version="1.0" encoding="utf-8"?>
<!-- Generator: Adobe Illustrator 25.0.0, SVG Export Plug-In . SVG Version: 6.00 Build 0)  -->
<svg version="1.1" id="Layer_1" xmlns="http://www.w3.org/2000/svg" xmlns:xlink="http://www.w3.org/1999/xlink" x="0px" y="0px"
	 viewBox="0 0 100 100" style="enable-background:new 0 0 100 100;" xml:space="preserve">
<style type="text/css">
	.st0{fill:#ec4899;}
</style>
<path class="st0" d="M99.2,73.4c-2.8,1.8-5.7,3.1-8.9,3.8c-2.8,0.7-5.7,1.4-8.6,1.9c-3.5,0.5-7,0.9-10.5,0.7c-3-0.1-5.9-0.1-8.9-0.4
	c-2.3-0.2-4.7-0.7-7-1.2c-2.6-0.6-5.1-1.2-7.6-2.1c-3.3-1.2-6.5-2.7-8.7-5.6c-0.8-1.1-1.4-2.3-1.3-3.6c0.1-2.4,0.2-4.7,0.4-7.1
	c0.2-2.9,0.4-5.8,0.5-8.6c0-0.6,0.3-0.7,0.8-0.5c3.4,1.1,6.9,2.2,10.3,3.3c2.9,0.9,5.9,1.9,8.8,2.8c3.2,1,6.4,2,9.6,3
	c2.2,0.7,4.3,0.3,6.4-0.4c2.3-0.8,4.6-1.5,6.9-2.2c2.2-0.7,4.5-1.4,6.7-2.1c2.3-0.7,4.6-1.5,7-2.2c1.6-0.5,3.3-1,4.9-1.6v-6.9
	c0,0-0.1,0-0.1,0c-2.2,0.7-4.5,1.4-6.8,2.1c-2,0.6-3.9,1.3-5.9,1.9c-2.2,0.7-4.4,1.4-6.6,2c-2.7,0.8-5.4,1.6-8,2.5
	c-1.3,0.4-2.4,0.5-3.7,0c-3.1-1-6.2-2-9.3-2.9c-3-0.9-5.9-1.9-8.8-2.8c-3-0.9-5.9-1.8-8.9-2.8c-1.5-0.5-3.1-1-4.6-1.5
	c-0.5-0.2-0.9-0.1-1.3,0.3c-1.9,2-3,4.4-3.6,7c-0.5,2.2-0.8,4.5-1.2,6.7c0,0.3,0.2,0.9,0.5,1c2.9,1.9,3.3,5.7,2,8.2
	c-0.4,0.7-1,1.4-1.6,1.9c-0.5,0.4-0.7,0.8-0.6,1.4c0.6,3.9,1.1,7.9,1.6,11.8c0.4,2.9,0.8,5.7,1.2,8.6c0.1,0.4,0.1,0.7,0.1,1.1
	c0,1-0.7,1.8-1.7,1.8c-3.2,0-6.5,0-9.7,0c-1,0-1.7-0.7-1.7-1.7c0.1-1.1,0.2-2.3,0.4-3.4c0.5-4.1,1.1-8.2,1.7-12.4
	c0.3-1.9,0.5-3.9,0.9-5.8c0.1-0.6,0-1-0.5-1.3c-2.9-2-3-6.5-1.2-8.7c0.2-0.3,0.4-0.7,0.7-0.8c1.5-0.7,1.4-2.1,1.6-3.4
	c0.4-2.3,0.7-4.7,1.3-7c0.6-2.6,1.8-5,3.3-7.2c0.1-0.1,0.1-0.2,0.3-0.5c-1.1-0.4-2.2-0.7-3.3-1.1c-2.7-0.8-5.3-1.7-8-2.5
	c-1.9-0.6-3.7-1.2-5.6-1.7c-0.9-0.3-1.4-0.8-1.4-1.6c0-0.8,0.5-1.4,1.3-1.6c3.9-1.2,7.8-2.4,11.7-3.7c4.4-1.4,8.7-2.8,13.1-4.1
	c4-1.3,8.1-2.5,12.1-3.7c2.6-0.8,5.2-1.7,7.8-2.5c3.3-1,6.6-2.1,10-3.1c0.9-0.3,1.8-0.6,2.7-0.9c1-0.3,1.9,0.1,2.8,0.4
	c3.4,1,6.8,2.1,10.2,3.2c3.3,1.1,6.7,2.1,10,3.2c2.4,0.7,4.8,1.5,7.2,2.2V0H0v100h100V72.9C99.7,73,99.5,73.2,99.2,73.4z"/>
</svg>
