<?xml version="1.0" encoding="utf-8"?>
<!-- Generator: Adobe Illustrator 25.0.0, SVG Export Plug-In . SVG Version: 6.00 Build 0)  -->
<svg version="1.1" id="Layer_1" xmlns="http://www.w3.org/2000/svg" xmlns:xlink="http://www.w3.org/1999/xlink" x="0px" y="0px"
	 viewBox="0 0 100 100" style="enable-background:new 0 0 100 100;" xml:space="preserve">
<style type="text/css">
	.st0{enable-background:new    ;}
	.st1{fill:#D6418B;}
	.st2{fill:#952D60;}
	.st3{fill:#7B254F;}
	.st4{fill:url(#SVGID_1_);}
	.st5{fill:#B72C75;}
</style>
<g>
	<g>
		<g class="st0">
			<g>
				<polygon class="st1" points="7.4,17.3 75.3,13.9 74.1,65.7 6.2,69.1 				"/>
			</g>
			<g>
				<polygon class="st2" points="4.8,16.5 72.7,13.1 75.3,13.9 7.4,17.3 				"/>
			</g>
			<g>
				<polygon class="st3" points="7.4,17.3 6.2,69.1 31.6,76.5 31.5,81.5 3.4,73.4 3.5,71.9 3.6,68.4 4.8,16.5 				"/>
			</g>
			<g>
				<polygon class="st2" points="6.2,69.1 74.1,65.7 99.5,73.1 31.6,76.5 				"/>
			</g>
			<g>
				<polygon class="st1" points="31.6,76.5 99.5,73.1 99.4,78.1 31.5,81.5 				"/>
			</g>
		</g>
	</g>
	<linearGradient id="SVGID_1_" gradientUnits="userSpaceOnUse" x1="12.6089" y1="69.5856" x2="68.4359" y2="13.7586">
		<stop  offset="0" style="stop-color:#FFFFFF;stop-opacity:0.5"/>
		<stop  offset="1" style="stop-color:#FFFFFF;stop-opacity:0"/>
	</linearGradient>
	<path class="st4" d="M70.4,16.7l-58.5,2.5c-1.2,0-2.1,1-2.1,2.2L8.6,64.5c0,1.3,1,2.3,2.3,2.3l58.6-2.9c1.2-0.1,2.1-1,2.1-2.2
		L72.7,19C72.7,17.7,71.6,16.6,70.4,16.7z"/>
	<g id="Ufuv3k.tif">
		<g>
			<path class="st5" d="M50.6,40.8c-1.8,0.9-3.6,1.7-5.4,2.6c-1.4,0.6-2.7,1.3-4.1,1.9c-0.4,0.2-0.7,0.2-1,0
				c-7.4-3.5-14.8-7.1-22.1-10.6c-0.2-0.1-0.5-0.5-0.5-0.7c0-0.2,0.3-0.6,0.6-0.7c7.4-3.6,14.8-7.1,22.1-10.6c0.3-0.1,0.7-0.1,1,0
				c7.4,3.5,14.8,7.1,22.1,10.6c0.3,0.1,0.6,0.5,0.5,0.7c0,0.3-0.3,0.6-0.6,0.7c-3.5,1.7-7.1,3.4-10.6,5.1c-0.4,0.2-0.6,0.4-0.6,0.9
				c0,4.3,0,8.5,0,12.8c0,0.3,0.1,0.5,0.4,0.7c0.9,0.4,1.4,1.1,1.5,2c0.3,1.3,0.5,2.7,0.8,4.1c0.1,0.7-0.1,1.1-0.8,1.1
				c-1.7,0-3.4,0-5.1,0c-0.7,0-1-0.3-0.9-1c0.2-1.4,0.5-2.7,0.8-4.1c0.2-1,0.7-1.7,1.6-2.1c0.1-0.1,0.3-0.3,0.3-0.4
				c0-4.2,0-8.5,0-12.7C50.7,40.9,50.7,40.9,50.6,40.8z"/>
			<path class="st5" d="M23.8,39.1c1.2,0.6,2.3,1.1,3.4,1.6c4.1,2,8.2,3.9,12.3,5.9c0.7,0.4,1.5,0.4,2.2,0c2.3-1.1,4.6-2.2,6.9-3.3
				c0.2-0.1,0.4-0.2,0.6-0.3c0,0.2,0,0.4,0,0.5c0,2.6,0,5.2,0,7.8c0,0.4-0.1,0.6-0.5,0.7c-6.4,2.6-12.7,2.1-18.7-1.1
				c-2.1-1.1-4-2.4-5.8-4c-0.2-0.2-0.4-0.5-0.5-0.8C23.8,43.8,23.8,41.5,23.8,39.1z"/>
			<path class="st5" d="M53.5,49.4c0-2.7,0-5.4,0-8.1c0-0.1,0.1-0.3,0.2-0.4c1.2-0.6,2.5-1.2,3.8-1.8c0,0.4,0,0.7,0,0.9
				c0,2,0,4,0,5.9c0,0.4-0.1,0.7-0.5,1c-1.1,0.8-2.2,1.7-3.3,2.5C53.6,49.4,53.5,49.4,53.5,49.4z"/>
		</g>
	</g>
</g>
</svg>
