<?xml version="1.0" encoding="utf-8"?>
<!-- Generator: Adobe Illustrator 25.4.1, SVG Export Plug-In . SVG Version: 6.00 Build 0)  -->
<svg version="1.1" id="Layer_1" xmlns="http://www.w3.org/2000/svg" xmlns:xlink="http://www.w3.org/1999/xlink" x="0px" y="0px"
	 viewBox="0 0 100 100" style="enable-background:new 0 0 100 100;" xml:space="preserve">
<style type="text/css">
	.st0{fill:#FFFFFF;}
</style>
<path class="st0" d="M74.1,65.7l1.2-51.8l-2.6-0.8L4.8,16.5L3.6,68.4l-0.1,3.5l-0.1,1.5l28.1,8.1l67.9-3.4l0.1-5L74.1,65.7z
	 M30,50.9c-2.1-1.1-4-2.4-5.8-4c-0.2-0.2-0.4-0.5-0.5-0.8c0.1-2.3,0.1-4.6,0.1-7c1.2,0.6,2.3,1.1,3.4,1.6c4.1,2,8.2,3.9,12.3,5.9
	c0.7,0.4,1.5,0.4,2.2,0c2.3-1.1,4.6-2.2,6.9-3.3c0.2-0.1,0.4-0.2,0.6-0.3c0,0.2,0,0.4,0,0.5c0,2.6,0,5.2,0,7.8
	c0,0.4-0.1,0.6-0.5,0.7C42.3,54.6,36,54.1,30,50.9z M57.5,40c0,2,0,4,0,5.9c0,0.4-0.1,0.7-0.5,1c-1.1,0.8-2.2,1.7-3.3,2.5
	c-0.1,0-0.2,0-0.2,0c0-2.7,0-5.4,0-8.1c0-0.1,0.1-0.3,0.2-0.4c1.2-0.6,2.5-1.2,3.8-1.8C57.5,39.5,57.5,39.8,57.5,40z M63.8,34
	c0,0.3-0.3,0.6-0.6,0.7c-3.5,1.7-7.1,3.4-10.6,5.1C52.2,40,52,40.2,52,40.7c0,4.3,0,8.5,0,12.8c0,0.3,0.1,0.5,0.4,0.7
	c0.9,0.4,1.4,1.1,1.5,2c0.3,1.3,0.5,2.7,0.8,4.1c0.1,0.7-0.1,1.1-0.8,1.1c-1.7,0-3.4,0-5.1,0c-0.7,0-1-0.3-0.9-1
	c0.2-1.4,0.5-2.7,0.8-4.1c0.2-1,0.7-1.7,1.6-2.1c0.1-0.1,0.3-0.3,0.3-0.4c0-4.2,0-8.5,0-12.7c0.1-0.2,0.1-0.2,0-0.3
	c-1.8,0.9-3.6,1.7-5.4,2.6c-1.4,0.6-2.7,1.3-4.1,1.9c-0.4,0.2-0.7,0.2-1,0c-7.4-3.5-14.8-7.1-22.1-10.6c-0.2-0.1-0.5-0.5-0.5-0.7
	s0.3-0.6,0.6-0.7c7.4-3.6,14.8-7.1,22.1-10.6c0.3-0.1,0.7-0.1,1,0c7.4,3.5,14.8,7.1,22.1,10.6C63.6,33.4,63.9,33.8,63.8,34z"/>
</svg>
