<?xml version="1.0" encoding="utf-8"?>
<!-- Generator: Adobe Illustrator 25.4.1, SVG Export Plug-In . SVG Version: 6.00 Build 0)  -->
<svg version="1.1" id="Layer_1" xmlns="http://www.w3.org/2000/svg" xmlns:xlink="http://www.w3.org/1999/xlink" x="0px" y="0px"
	 viewBox="0 0 100 100" style="enable-background:new 0 0 100 100;" xml:space="preserve">
<style type="text/css">
	.st0{fill:#FFFFFF;}
</style>
<path class="st0" d="M85.1,64.8c-0.1-0.7-0.2-1.4-0.4-1.9c-0.1-0.3-0.2-0.6-0.3-1c-0.1-0.3-0.2-0.5-0.2-0.7L84,60.7
	c-0.2-0.5-0.4-1-0.6-1.4c-0.2-0.6-0.9-2-2.3-4.4c0,0,0,0,0-0.1c-0.2-0.3-0.3-0.6-0.5-0.9c-1-1.6-2.3-3.6-3.8-5.7
	c-6.1-8.8-14.3-18.4-19.3-24c0,0-0.1-0.1-0.1-0.1h0.1v-2.2l0.6-1.7c0.7-2.1,1.5-4.2,2.3-6.4l1.2-3.4c0.4-1.2,0.8-2.3,1.2-3.3
	c-0.6-0.5-0.6-0.5-0.6-0.6V6.4V6.3V6.2V6.1V6V5.9V5.8V5.7V5.6h-0.1H62h-0.1c-0.1,0-0.2,0-0.3-0.1h-0.1c-0.2,0-0.3,0-0.3,0
	c-0.1,0-0.1,0-0.3,0c0,0,0,0-0.1,0h-0.4c-0.1,0-0.3,0-0.5,0c-0.1,0-0.3,0-0.5,0s-0.4,0-0.6,0c-0.2,0-0.4,0-0.6,0s-0.4,0-0.6,0h-0.1
	c-0.1,0-0.2,0-0.3,0s-0.1,0-0.2,0c-0.1,0-0.2,0-0.2,0c-0.2,0-0.3,0-0.5,0h-0.1c-0.1,0-0.2,0-0.3,0c-0.2,0-0.3,0-0.5,0
	c-0.1,0-0.2,0-0.4,0h-0.1c-0.1,0-0.1,0-0.2,0c-0.1,0-0.2,0-0.2,0c-0.1,0-0.2,0-0.3,0c-0.2,0-0.5,0-0.8,0c-0.2,0-0.6,0-0.8,0
	s-0.6,0-0.8,0c-0.2,0-0.6,0-0.8,0c-0.2,0-0.6,0-0.8,0s-0.6,0-0.8,0c-0.1,0-0.2,0-0.2,0s0,0-0.1,0c-0.2,0-0.3,0-0.5,0s-0.6,0-0.8,0
	c-3.4,0-5.1,0-6.1,0.2c-0.1,0-0.2,0-0.3,0.1c-0.2,0-0.2,0.1-0.3,0.1H41c-0.1,0.2-0.2,0.4-0.2,0.7v0.1c1.5,4.8,3,9.6,4.5,14.5H45v2.2
	l-0.1,0.1l-0.1,0.1l-0.5,0.5c-0.2,0.2-0.4,0.5-0.7,0.7c0,0,0,0-0.1,0.1c-5.4,5.5-11.2,12-16.2,18.1c0,0,0,0,0,0.1l-0.1,0.1
	c-2.5,3.1-4.6,5.8-6.1,8c-0.1,0.1-0.2,0.3-0.3,0.4c-0.1,0.2-0.3,0.4-0.4,0.6c-0.1,0.1-0.2,0.3-0.3,0.4c-0.2,0.3-0.4,0.6-0.6,0.9
	l-0.1,0.1c-0.1,0.1-0.2,0.3-0.3,0.5c-0.4,0.6-0.8,1.2-1.1,1.7c-0.5,0.8-0.9,1.5-1.2,2.2c-0.1,0.1-0.1,0.2-0.2,0.3c0,0,0,0.1-0.1,0.1
	c-0.4,0.9-0.7,1.7-1,2.5c-0.1,0.2-0.1,0.4-0.1,0.5c-0.3,1.1-0.5,2.1-0.6,3.3c-0.1,0.9-0.2,1.9-0.3,3c-0.3,3.9,0,10.8,4.2,16.8
	c0.1,0.2,0.3,0.4,0.4,0.6c0.1,0.1,0.1,0.2,0.2,0.2c0.2,0.3,0.5,0.6,0.7,0.9c0,0,0,0,0.1,0.1c0.2,0.2,0.4,0.5,0.6,0.7
	c0.1,0.1,0.3,0.3,0.4,0.4c0.1,0.1,0.1,0.1,0.2,0.2l0.1,0.1c0.1,0.1,0.2,0.2,0.2,0.2c0.1,0.1,0.1,0.1,0.2,0.2
	c0.5,0.4,0.9,0.8,1.3,1.2c0.1,0.1,0.1,0.1,0.2,0.2c0.2,0.2,0.5,0.4,0.8,0.6c0.7,0.5,1.3,0.9,1.8,1.2c0.6,0.4,1.4,0.8,2.1,1.2
	c0.1,0.1,0.2,0.1,0.4,0.2c0.8,0.4,1.8,0.8,2.9,1.2c0.6,0.3,1.5,0.5,2.2,0.7c0.7,0.2,1.8,0.5,3.7,0.9c0.1,0,0.2,0,0.3,0.1l0.6,0.1
	c0.2,0,0.3,0.1,0.5,0.1c0.1,0,0.7,0.1,1.5,0.2c0.1,0,0.3,0,0.4,0.1c0,0,0,0,0.1,0c0.3,0,0.8,0.1,1.4,0.2h0.2c0.2,0,0.5,0.1,0.8,0.1
	l0.8,0.1c0.2,0,0.4,0,0.6,0H45c0.1,0,0.1,0,0.2,0c0.7,0.1,1.4,0.1,2.2,0.1c0.5,0.1,1.5,0.1,2.5,0.1c2.5,0,5,0,7.5-0.2
	c1-0.1,1.9-0.2,2.9-0.3c1-0.1,1.9-0.2,2.5-0.4c0.9-0.2,2.7-0.5,4.8-1.2c0.5-0.2,1-0.3,1.5-0.5c0.2-0.1,0.3-0.1,0.5-0.2
	c0.1,0,0.2-0.1,0.3-0.1c1.1-0.4,2.3-1,3.1-1.5c0,0,0,0,0.1,0c0,0,0.1,0,0.1-0.1c0.1-0.1,0.2-0.1,0.3-0.2c0.1,0,0.1-0.1,0.2-0.1
	c0.1-0.1,0.2-0.1,0.4-0.2s0.4-0.2,0.5-0.4c0.1-0.1,0.2-0.1,0.2-0.1c0.1-0.1,0.2-0.2,0.4-0.2c0.2-0.1,0.3-0.2,0.4-0.3l0.1-0.1
	c0.1-0.1,0.2-0.1,0.3-0.2l0.1-0.1c0.2-0.2,0.5-0.4,0.7-0.6s0.4-0.3,0.5-0.5c0.1-0.1,0.1-0.1,0.2-0.2c0.1,0,0.1-0.1,0.1-0.1
	c0.6-0.5,1.4-1.3,1.8-2c0.6-0.7,1.1-1.5,1.5-2.1c0.5-0.8,0.9-1.5,1.2-2.1c0,0,0,0,0-0.1c0.1-0.1,0.2-0.4,0.4-0.8
	c0-0.1,0.1-0.1,0.1-0.2c0.3-0.7,0.5-1.1,0.5-1.3v-0.1c0.2-0.6,0.5-1.3,0.7-2.1c0-0.1,0-0.2,0.1-0.3c0.3-0.9,0.4-1.7,0.6-2.7
	c0.2-1,0.3-1.9,0.4-2.8C85.5,69.5,85.4,67,85.1,64.8z M69.5,70.8c-1.5,5.4-9.8,6.5-13,6.9c-0.1,1.7-0.2,3.5-0.4,5.2
	c-1.7,0-3.4,0-5-0.1c0.1-1.6,0.1-3.3,0.2-5c-5.5-0.3-9-1-12.6-2.6c0.6-1,1.3-2.3,1.9-3.2c12.5,5,23.8,1.6,22.1-3.1
	c-0.9-2.4-5.6-3.4-9.4-4.2c-24.9-5.3-6.5-17.8-1.5-19c0-2.3,0-4.5-0.1-6.7c0.9,0,1.9,0,2.8,0c0.3,2.1,0.6,4.3,0.9,6.4
	c3.3,0.3,5.2,0.8,8,2.4c0,1.3,0,3.1-0.1,4.4c-12.6-6.1-17.7,1.4-15.7,5.2c1.3,2.4,6.4,3.7,11.9,5.1C64.1,63.5,71.1,65.2,69.5,70.8z"
	/>
</svg>
