<?xml version="1.0" encoding="utf-8"?>
<!-- Generator: Adobe Illustrator 25.0.0, SVG Export Plug-In . SVG Version: 6.00 Build 0)  -->
<svg version="1.1" id="Layer_1" xmlns="http://www.w3.org/2000/svg" xmlns:xlink="http://www.w3.org/1999/xlink" x="0px" y="0px"
	 viewBox="0 0 100 100" style="enable-background:new 0 0 100 100;" xml:space="preserve">
<style type="text/css">
	.st0{enable-background:new    ;}
	.st1{fill:url(#SVGID_1_);}
	.st2{fill:#916C03;}
	.st3{clip-path:url(#SVGID_3_);enable-background:new    ;}
	.st4{fill:#866705;}
	.st5{fill:url(#SVGID_4_);}
	.st6{fill:#9B6F0E;}
	.st7{fill:#FFE7B0;}
</style>
<g>
	<g class="st0">
		<g class="st0">
			<radialGradient id="SVGID_1_" cx="50" cy="59.7585" r="36.3042" gradientUnits="userSpaceOnUse">
				<stop  offset="2.107755e-02" style="stop-color:#F1CD5D"/>
				<stop  offset="0.4816" style="stop-color:#EAB308"/>
				<stop  offset="1" style="stop-color:#9C7705"/>
			</radialGradient>
			<path class="st1" d="M85.1,64.8c-0.1-0.7-0.2-1.4-0.4-1.9c0,0,0,0,0,0c0,0,0,0,0,0c-0.1-0.3-0.2-0.6-0.3-1
				c-0.1-0.3-0.2-0.5-0.2-0.7L84,60.7c-0.2-0.5-0.4-1-0.6-1.4c0,0,0,0,0,0c-0.2-0.6-0.9-2-2.3-4.4c0,0,0,0,0-0.1
				c-0.2-0.3-0.3-0.6-0.5-0.9c-1-1.6-2.3-3.6-3.8-5.7c-6.1-8.8-14.3-18.4-19.3-24c0,0,0,0,0,0c-0.2-0.2-0.5-0.5-0.7-0.8
				c-0.1-0.1-0.3-0.3-0.4-0.4c0,0-0.1,0-0.1,0c-0.1,0-0.2,0-0.3,0c-1.1-0.2-4.3-0.3-7.1-0.3c-2.1,0-3.3,0.1-3.4,0.2
				c-0.1,0.1-0.3,0.3-0.4,0.4l-0.2,0.2c0,0-0.1,0.1-0.1,0.1l-0.5,0.5c0,0,0,0,0,0c-0.2,0.2-0.4,0.5-0.7,0.7c0,0,0,0-0.1,0.1
				C38.1,30.4,32.3,36.9,27.3,43c0,0,0,0,0,0.1c0,0-0.1,0.1-0.1,0.1c-2.5,3.1-4.6,5.8-6.1,8l0,0c-0.1,0.1-0.2,0.3-0.3,0.4
				c-0.1,0.2-0.3,0.4-0.4,0.6c-0.1,0.1-0.2,0.3-0.3,0.4c-0.2,0.3-0.4,0.6-0.6,0.9l-0.1,0.1c-0.1,0.1-0.2,0.3-0.3,0.5
				c-0.4,0.6-0.8,1.2-1.1,1.7c0,0,0,0,0,0c0,0,0,0,0,0c0,0,0,0,0,0l0,0c-0.5,0.8-0.9,1.5-1.2,2.2c-0.1,0.1-0.1,0.2-0.2,0.3
				c0,0,0,0,0,0c0,0,0,0,0,0c0,0,0,0.1-0.1,0.1c-0.4,0.9-0.7,1.7-1,2.5c-0.1,0.2-0.1,0.4-0.1,0.5c-0.3,1.1-0.5,2.1-0.6,3.3
				c-0.1,0.9-0.2,1.9-0.3,3c0,0,0,0,0,0c0,0,0,0,0,0c-0.3,3.9,0,10.8,4.2,16.8c0.1,0.2,0.3,0.4,0.4,0.6c0.1,0.1,0.1,0.2,0.2,0.2
				c0.2,0.3,0.5,0.6,0.7,0.9c0,0,0,0,0.1,0.1c0.2,0.2,0.4,0.5,0.6,0.7c0.1,0.1,0.3,0.3,0.4,0.4c0.1,0.1,0.1,0.1,0.2,0.2
				c0,0,0.1,0.1,0.1,0.1c0.1,0.1,0.2,0.2,0.2,0.2c0.1,0.1,0.1,0.1,0.2,0.2c0.5,0.4,0.9,0.8,1.3,1.2c0.1,0.1,0.1,0.1,0.2,0.2
				c0.2,0.2,0.5,0.4,0.8,0.6c0.7,0.5,1.3,0.9,1.8,1.2c0.6,0.4,1.4,0.8,2.1,1.2c0.1,0.1,0.2,0.1,0.4,0.2c0.8,0.4,1.8,0.8,2.9,1.2
				c0,0,0,0,0,0c0.6,0.3,1.5,0.5,2.2,0.7c0.7,0.2,1.8,0.5,3.7,0.9c0.1,0,0.2,0,0.3,0.1l0.6,0.1c0.2,0,0.3,0.1,0.5,0.1
				c0.1,0,0.7,0.1,1.5,0.2c0.1,0,0.3,0,0.4,0.1c0,0,0,0,0.1,0c0.3,0,0.8,0.1,1.4,0.2l0.2,0c0.2,0,0.5,0.1,0.8,0.1l0.8,0.1
				c0.2,0,0.4,0,0.6,0l0.6,0c0.1,0,0.1,0,0.2,0c3.9,0.3,8,0.3,12.1,0c1-0.1,1.9-0.2,2.9-0.3c1-0.1,1.9-0.2,2.5-0.4
				c0.9-0.2,2.7-0.5,4.8-1.2c0,0,0,0,0,0l0,0c0.5-0.2,1-0.3,1.5-0.5c0,0,0,0,0,0c0.2-0.1,0.3-0.1,0.5-0.2c0.1,0,0.2-0.1,0.3-0.1
				c1.1-0.4,2.3-1,3.1-1.5c0,0,0,0,0.1,0c0,0,0.1,0,0.1-0.1c0.1-0.1,0.2-0.1,0.3-0.2c0.1,0,0.1-0.1,0.2-0.1c0.1-0.1,0.2-0.1,0.4-0.2
				c0.2-0.1,0.4-0.2,0.5-0.4c0.1-0.1,0.2-0.1,0.2-0.1c0.1-0.1,0.2-0.2,0.4-0.2c0,0,0,0,0,0c0.2-0.1,0.3-0.2,0.4-0.3l0,0
				c0,0,0.1-0.1,0.1-0.1c0.1-0.1,0.2-0.1,0.3-0.2c0,0,0.1-0.1,0.1-0.1c0.2-0.2,0.5-0.4,0.7-0.6c0.2-0.2,0.4-0.3,0.5-0.5
				c0.1-0.1,0.1-0.1,0.2-0.2c0.1,0,0.1-0.1,0.1-0.1c0.6-0.5,1.4-1.3,1.8-2c0,0,0,0,0,0c0.6-0.7,1.1-1.5,1.5-2.1
				c0.5-0.8,0.9-1.5,1.2-2.1c0,0,0,0,0-0.1c0.1-0.1,0.2-0.4,0.4-0.8c0,0,0,0,0,0c0-0.1,0.1-0.1,0.1-0.2c0.3-0.7,0.5-1.1,0.5-1.3
				c0,0,0-0.1,0-0.1c0.2-0.6,0.5-1.3,0.7-2.1c0,0,0,0,0,0l0,0c0,0,0,0,0,0c0-0.1,0-0.2,0.1-0.3c0.3-0.9,0.4-1.7,0.6-2.7
				c0.2-1,0.3-1.9,0.4-2.8C85.5,69.5,85.4,67,85.1,64.8z"/>
			<g>
				<path class="st2" d="M69.5,70.8c-1.5,5.4-9.8,6.5-13,6.9c-0.1,1.7-0.2,3.5-0.4,5.2c-1.7,0-3.4,0-5-0.1c0.1-1.6,0.1-3.3,0.2-5
					c-5.5-0.3-9-1-12.6-2.6c0.6-1,1.3-2.3,1.9-3.2c12.5,5,23.8,1.6,22.1-3.1c-0.9-2.4-5.6-3.4-9.4-4.2c-24.9-5.3-6.5-17.8-1.5-19
					c0-2.3,0-4.5-0.1-6.7c0.9,0,1.9,0,2.8,0c0.3,2.1,0.6,4.3,0.9,6.4c3.3,0.3,5.2,0.8,8,2.4c0,1.3,0,3.1-0.1,4.4
					c-12.6-6.1-17.7,1.4-15.7,5.2c1.3,2.4,6.4,3.7,11.9,5.1C64.1,63.5,71.1,65.2,69.5,70.8"/>
			</g>
		</g>
		<g class="st0">
			<defs>
				<path id="SVGID_2_" class="st0" d="M49.4,96.6c0.8,0,1.5,0,2.2,0c0.5,0.1-0.1,0.1-1.3,0.1c-1.2,0-2.6-0.1-3.1-0.1
					c-0.5-0.1,0.1-0.1,1.3-0.1c1.2,0,2.6,0.1,3.1,0.1C50.9,96.7,50.2,96.7,49.4,96.6z"/>
			</defs>
			<clipPath id="SVGID_3_">
				<use xlink:href="#SVGID_2_"  style="overflow:visible;"/>
			</clipPath>
			<g class="st3">
				<path class="st4" d="M49.4,96.6c0.8,0,1.5,0,2.2,0c-0.5-0.1-1.9-0.1-3.1-0.1c-1.2,0-1.8,0.1-1.3,0.1c0.5,0.1,1.9,0.1,3.1,0.1
					c1.2,0,1.8-0.1,1.3-0.1C50.9,96.7,50.2,96.7,49.4,96.6"/>
			</g>
		</g>
		<linearGradient id="SVGID_4_" gradientUnits="userSpaceOnUse" x1="40.2872" y1="13.9355" x2="62.2486" y2="13.9355">
			<stop  offset="2.107755e-02" style="stop-color:#F1CD5D"/>
			<stop  offset="0.4816" style="stop-color:#EAB308"/>
			<stop  offset="1" style="stop-color:#9C7705"/>
		</linearGradient>
		<path class="st5" d="M62.2,6.5c0,0,0-0.1,0-0.1l0-0.1c0,0,0,0,0,0l0,0l0-0.1c0,0,0,0,0,0c0,0,0,0,0,0l0-0.1l0-0.1l0-0.1
			c0,0,0,0,0,0l0,0c0,0,0,0,0,0l0,0c0,0,0-0.1,0-0.1l0-0.1l0,0c0,0,0,0,0,0c0,0,0,0,0,0c0,0,0,0,0,0l0,0l0,0l0,0l0-0.1l0,0
			c0,0,0,0,0,0l0,0l0,0l0,0c0,0,0,0,0,0c0,0,0,0,0,0l-0.1,0c0,0,0,0,0,0l0,0l-0.1,0l0,0c0,0,0,0,0,0c0,0,0,0,0,0l-0.1,0c0,0,0,0,0,0
			c-0.1,0-0.2,0-0.3-0.1c0,0-0.1,0-0.1,0c0,0,0,0,0,0c-0.2,0-0.3,0-0.3,0c0,0,0,0,0,0c0,0,0,0,0,0c0,0,0,0,0,0c-0.1,0-0.1,0-0.3,0
			c0,0,0,0-0.1,0c0,0,0,0,0,0c0,0,0,0,0,0l-0.4,0c-0.1,0-0.3,0-0.5,0l0,0c0,0,0,0,0,0c0,0,0,0,0,0l0,0c-0.1,0-0.3,0-0.5,0
			c-0.2,0-0.4,0-0.6,0l0,0c0,0,0,0,0,0c0,0,0,0,0,0l0,0c-0.2,0-0.4,0-0.6,0c-0.2,0-0.4,0-0.6,0l0,0c0,0-0.1,0-0.1,0
			c-0.1,0-0.2,0-0.3,0c-0.1,0-0.1,0-0.2,0c-0.1,0-0.2,0-0.2,0c-0.2,0-0.3,0-0.5,0c0,0,0,0,0,0l-0.1,0c0,0,0,0,0,0
			c-0.1,0-0.2,0-0.3,0c-0.2,0-0.3,0-0.5,0c-0.1,0-0.2,0-0.4,0c0,0-0.1,0-0.1,0l0,0c-0.1,0-0.1,0-0.2,0c0,0,0,0,0,0
			c-0.1,0-0.2,0-0.2,0c0,0,0,0,0,0c-0.1,0-0.2,0-0.3,0c-0.2,0-0.5,0-0.8,0l0,0c-0.2,0-0.6,0-0.8,0c-0.2,0-0.6,0-0.8,0
			c-0.2,0-0.6,0-0.8,0c-0.2,0-0.6,0-0.8,0l0,0c-0.2,0-0.6,0-0.8,0c-0.1,0-0.2,0-0.2,0c0,0,0,0-0.1,0c-0.2,0-0.3,0-0.5,0h0
			c-0.2,0-0.6,0-0.8,0c-3.4,0-5.1,0-6.1,0.2c-0.1,0-0.2,0-0.3,0.1c-0.2,0-0.2,0.1-0.3,0.1l0,0l0,0l-0.1,0l0,0c0,0,0,0,0,0l0,0l0,0
			l0,0l0,0l0,0c0,0,0,0,0,0c0,0,0,0,0,0l0,0l0,0c-0.1,0.2-0.2,0.4-0.2,0.7l0,0c0,0,0,0.1,0,0.1v0l0,0v0c0,0,0,0,0,0c0,0,0,0,0,0v0
			l0,0c1.7,5.5,3.4,11,5.2,16.6c0,0,0.1,0.1,0.4,0.1c0.1,0,0.3,0,0.5,0.1c0,0,0.1,0,0.1,0c0.2,0,0.4,0,0.6,0c0,0,0.1,0,0.1,0
			c0.2,0,0.4,0,0.6,0c0,0,0.1,0,0.1,0c0.3,0,0.5,0,0.8,0c0.1,0,0.1,0,0.2,0c0.3,0,0.6,0,0.8,0c0,0,0,0,0,0c0.5,0,0.9,0,1.4,0
			c0.1,0,0.2,0,0.4,0c0.5,0,1,0,1.5,0c0.3,0,0.6,0,0.8,0c0.1,0,0.1,0,0.2,0c0.2,0,0.3,0,0.5,0c0.1,0,0.1,0,0.2,0c0.1,0,0.3,0,0.4,0
			c0.1,0,0.1,0,0.2,0c0.1,0,0.2,0,0.3,0c0,0,0.1,0,0.1,0c0,0,0,0,0.1,0c0,0,0.1,0,0.1,0c0.1,0,0.1,0,0.2,0c0,0,0.1,0,0.1,0
			c0,0,0.1,0,0.1,0c0,0,0,0,0,0c0,0,0.1,0,0.1,0l1.2-3.3c0.7-2.1,1.5-4.2,2.3-6.4l1.2-3.4c0.4-1.2,0.8-2.3,1.2-3.3c0,0,0,0,0,0
			c0,0,0,0,0,0C62.2,6.6,62.2,6.6,62.2,6.5z M44,4.8c0.2,0,0.3,0,0.5,0c0,0,0,0-0.1,0C44.3,4.7,44.1,4.8,44,4.8
			C44,4.8,44,4.8,44,4.8C44,4.8,44,4.8,44,4.8z M45.1,4.7c-0.1,0-0.1,0-0.2,0c0,0,0,0,0,0c0.2,0,0.3,0,0.5,0c0,0,0,0,0,0
			c0,0,0.1,0,0.1,0C45.4,4.7,45.3,4.7,45.1,4.7z M44.9,4.7C44.9,4.7,44.9,4.7,44.9,4.7c-0.1,0-0.1,0-0.1,0c0,0,0,0-0.1,0
			c0,0,0,0,0,0c0,0,0,0,0,0C44.8,4.7,44.8,4.7,44.9,4.7z"/>
	</g>
</g>
<path class="st6" d="M49.5,23c0,0-12.1,11.5-5.7,11.5S50.3,23,50.3,23s1.4,12.4,6.3,12.1c4.9-0.3-4.5-12-4.5-12"/>
<rect x="45" y="21.2" class="st6" width="12.5" height="2.9"/>
<path class="st7" d="M29.6,45.8l3.5-1.6c0.1-0.1,0.2-0.2,0.2-0.3v-6.2c0-0.4,0.5-0.5,0.7-0.1l2.6,5.6c0.1,0.1,0.2,0.2,0.3,0.2l4.6,0
	c0.4,0,0.5,0.5,0.2,0.7l-4,1.9c-0.1,0.1-0.2,0.2-0.2,0.3l-0.4,5.3c0,0.4-0.5,0.4-0.7,0.1L34.1,47c-0.1-0.1-0.2-0.2-0.3-0.2l-4-0.3
	C29.4,46.5,29.3,46,29.6,45.8z"/>
<path class="st7" d="M63.5,73.9l5.4,0.8c0.2,0,0.4-0.1,0.5-0.2l4.3-7c0.3-0.4,1-0.2,0.9,0.3l-0.7,8.3c0,0.2,0.1,0.4,0.2,0.5l5.6,3.4
	c0.5,0.3,0.2,0.9-0.3,0.9L73.3,80c-0.2,0-0.3,0-0.4,0.2l-4.2,5.7c-0.3,0.4-0.9,0.1-0.9-0.3l0.4-7c0-0.2-0.1-0.3-0.2-0.4l-4.7-3.4
	C62.8,74.4,63,73.8,63.5,73.9z"/>
</svg>
