<?xml version="1.0" encoding="utf-8"?>
<!-- Generator: Adobe Illustrator 25.0.0, SVG Export Plug-In . SVG Version: 6.00 Build 0)  -->
<svg version="1.1" id="Layer_1" xmlns="http://www.w3.org/2000/svg" xmlns:xlink="http://www.w3.org/1999/xlink" x="0px" y="0px"
	 viewBox="0 0 100 100" style="enable-background:new 0 0 100 100;" xml:space="preserve">
<style type="text/css">
	.st0{fill:#2563eb;}
</style>
<path class="st0" d="M0,0v100h36.4c0-1.3,0-2.7,0-4c-3.2,0.2-6.1,0.5-9,0.4c-6.3-0.3-11.2-2.7-13.6-9.1c-1.5-3.8-3.8-7.3-7.6-9.4
	c-0.5-0.3-0.9-0.7-1.3-1.2c-1-1.2-0.7-2.2,0.8-2.3c1.8,0,3.8,0.1,5.5,0.8c2.8,1.1,4.7,3.4,6.3,5.9c4.3,6.7,10.8,8.8,18.1,5.8
	c0.4-0.2,1-0.6,1.1-1c0.6-3.1,1.7-5.9,4-8.3c-1.3-0.2-2.4-0.3-3.4-0.5c-5.5-0.9-10.9-2.5-15.5-5.8c-6.2-4.5-9.2-10.9-10.4-18.3
	C10,44,10.7,35.3,16.9,27.9c0.3-0.4,0.4-1.2,0.3-1.7c-1.3-4.4-1.2-8.8,0-13.2c1-3.8,1.3-4,5.2-3.1c4.7,1,8.7,3.3,12.8,5.7
	c0.7,0.4,1.9,0.6,2.7,0.4c8.3-1.9,16.6-2.6,24.9-0.9c4.6,1,8.4,0.8,12.4-2C78.2,10.9,82,9.6,86,9.6c0.8,0,1.5,0,1.9,1.1
	c1.7,5,2.3,10,0.7,15.2c-0.3,1.1-0.1,1.8,0.6,2.6c2.5,3,4.2,6.5,5,10.3c1.2,5.1,0.8,10.3-0.1,15.4c-1.8,10.1-7.2,17.3-17.1,20.7
	c-3.8,1.3-7.9,2.1-11.9,3.1c3.7,4,4.1,9,4,14.3c-0.1,2.6-0.1,5.2-0.1,7.8H100V0H0z"/>
</svg>
