<?xml version="1.0" encoding="utf-8"?>
<!-- Generator: Adobe Illustrator 25.0.0, SVG Export Plug-In . SVG Version: 6.00 Build 0)  -->
<svg version="1.1" id="Layer_1" xmlns="http://www.w3.org/2000/svg" xmlns:xlink="http://www.w3.org/1999/xlink" x="0px" y="0px"
	 viewBox="0 0 100 100" style="enable-background:new 0 0 100 100;" xml:space="preserve">
<style type="text/css">
	.st0{enable-background:new    ;}
	.st1{fill:#047857;}
	.st2{clip-path:url(#SVGID_2_);enable-background:new    ;}
	.st3{clip-path:url(#SVGID_4_);enable-background:new    ;}
	.st4{clip-path:url(#SVGID_6_);enable-background:new    ;}
	.st5{clip-path:url(#SVGID_8_);enable-background:new    ;}
	.st6{fill:#34D399;}
	.st7{clip-path:url(#SVGID_10_);enable-background:new    ;}
	.st8{clip-path:url(#SVGID_12_);enable-background:new    ;}
	.st9{clip-path:url(#SVGID_14_);enable-background:new    ;}
	.st10{fill:#085E41;}
	.st11{clip-path:url(#SVGID_16_);enable-background:new    ;}
	.st12{clip-path:url(#SVGID_18_);enable-background:new    ;}
	.st13{clip-path:url(#SVGID_20_);enable-background:new    ;}
	.st14{fill:url(#SVGID_21_);}
</style>
<g>
	<g class="st0">
		<g>
			<polygon class="st1" points="49.8,57 45.7,54.7 45.7,51.7 49.8,54 			"/>
		</g>
		<g class="st0">
			<defs>
				<path id="SVGID_1_" class="st0" d="M54.3,49.3l-4.1-2.2c1.9-0.9,2.8-2.3,2.8-4.1c0-1.2-0.9-2.5-2.8-3.9l4.1,2.2
					c1.8,1.4,2.8,2.7,2.8,3.9C57.1,47,56.2,48.4,54.3,49.3z"/>
			</defs>
			<clipPath id="SVGID_2_">
				<use xlink:href="#SVGID_1_"  style="overflow:visible;"/>
			</clipPath>
			<g class="st2">
				<path class="st1" d="M54.3,49.3l-4.1-2.2c1.9-0.9,2.8-2.3,2.8-4.1c0-1.2-0.9-2.5-2.8-3.9l4.1,2.2c1.8,1.4,2.8,2.7,2.8,3.9
					C57.1,47,56.2,48.4,54.3,49.3"/>
			</g>
		</g>
		<g class="st0">
			<defs>
				<path id="SVGID_3_" class="st0" d="M46.5,49.5l-4.1-2.2c0.8,0.4,1.9,0.6,3.3,0.5l4.1,2.2C48.3,50,47.2,49.9,46.5,49.5z"/>
			</defs>
			<clipPath id="SVGID_4_">
				<use xlink:href="#SVGID_3_"  style="overflow:visible;"/>
			</clipPath>
			<g class="st3">
				<path class="st1" d="M46.5,49.5l-4.1-2.2c0.8,0.4,1.9,0.6,3.3,0.5l4.1,2.2C48.3,50,47.2,49.9,46.5,49.5"/>
			</g>
		</g>
		<g class="st0">
			<defs>
				<path id="SVGID_5_" class="st0" d="M41.6,55l-4.1-2.2c2.4,1.3,5.2,2,8.2,2l4.1,2.2C46.8,57,44,56.3,41.6,55z"/>
			</defs>
			<clipPath id="SVGID_6_">
				<use xlink:href="#SVGID_5_"  style="overflow:visible;"/>
			</clipPath>
			<g class="st4">
				<path class="st1" d="M41.6,55l-4.1-2.2c2.4,1.3,5.2,2,8.2,2l4.1,2.2C46.8,57,44,56.3,41.6,55"/>
			</g>
		</g>
		<g class="st0">
			<defs>
				<path id="SVGID_7_" class="st0" d="M58.5,14.2l4.1,2.2c5.5,3,9.1,9.1,9.1,16.6c0,10.8-7.6,20.8-17.3,23.4l-4.1-2.2
					c9.7-2.6,17.3-12.6,17.3-23.4C67.5,23.2,63.9,17.1,58.5,14.2z"/>
			</defs>
			<clipPath id="SVGID_8_">
				<use xlink:href="#SVGID_7_"  style="overflow:visible;"/>
			</clipPath>
			<g class="st5">
				<path class="st1" d="M54.3,56.3l-4.1-2.2c9.7-2.6,17.3-12.6,17.3-23.4c0-7.5-3.6-13.6-9.1-16.6l4.1,2.2c5.5,3,9.1,9.1,9.1,16.6
					C71.6,43.8,64,53.8,54.3,56.3"/>
			</g>
		</g>
		<g>
			<polygon class="st1" points="49.8,50 45.7,47.7 45.7,36.8 49.8,39 			"/>
		</g>
		<g>
			<polygon class="st6" points="36.8,98.5 32.7,96.3 32.8,60.5 36.9,62.8 			"/>
		</g>
		<g class="st0">
			<defs>
				<path id="SVGID_9_" class="st0" d="M53,19.5l4.1,2.2c0.9,0.5,1.5,1.5,1.8,3l-4.1-2.2C54.6,21,54,20.1,53,19.5z"/>
			</defs>
			<clipPath id="SVGID_10_">
				<use xlink:href="#SVGID_9_"  style="overflow:visible;"/>
			</clipPath>
			<g class="st7">
				<path class="st1" d="M58.9,24.8l-4.1-2.2c-0.2-1.5-0.8-2.5-1.8-3l4.1,2.2C58.1,22.3,58.7,23.3,58.9,24.8"/>
			</g>
		</g>
		<g class="st0">
			<defs>
				<path id="SVGID_11_" class="st0" d="M43.7,53l-4.1-2.2c-2-1.1-2.9-3-2.9-5.8l4.1,2.2C40.8,50,41.7,52,43.7,53z"/>
			</defs>
			<clipPath id="SVGID_12_">
				<use xlink:href="#SVGID_11_"  style="overflow:visible;"/>
			</clipPath>
			<g class="st8">
				<path class="st1" d="M43.7,53l-4.1-2.2c-2-1.1-2.9-3-2.9-5.8l4.1,2.2C40.8,50,41.7,52,43.7,53"/>
			</g>
		</g>
		<g>
			<polygon class="st6" points="40.8,47.3 36.7,45 41.2,44.4 45.3,46.6 			"/>
		</g>
		<g class="st0">
			<defs>
				<path id="SVGID_13_" class="st0" d="M56.1,15.9l4.1,2.2c-1.5-0.8-3.4-1-5.8-0.7l-4.1-2.2C52.7,14.9,54.7,15.1,56.1,15.9z"/>
			</defs>
			<clipPath id="SVGID_14_">
				<use xlink:href="#SVGID_13_"  style="overflow:visible;"/>
			</clipPath>
			<g class="st9">
				<path class="st1" d="M54.4,17.4l-4.1-2.2c2.4-0.3,4.4-0.1,5.8,0.7l4.1,2.2C58.8,17.3,56.8,17.1,54.4,17.4"/>
			</g>
		</g>
		<g>
			<polygon class="st10" points="49.8,39 45.7,36.8 39.3,32.3 43.4,34.6 			"/>
		</g>
		<g>
			<polygon class="st1" points="49.8,30 45.7,27.8 45.7,19.8 49.8,22.1 			"/>
		</g>
		<g>
			<polygon class="st1" points="49.8,18.1 45.7,15.8 45.8,12.8 49.9,15 			"/>
		</g>
		<g class="st0">
			<defs>
				<path id="SVGID_15_" class="st0" d="M43.4,34.6l-4.1-2.2c-1.8-1.2-2.6-3-2.6-5.3l4.1,2.2C40.8,31.6,41.7,33.3,43.4,34.6z"/>
			</defs>
			<clipPath id="SVGID_16_">
				<use xlink:href="#SVGID_15_"  style="overflow:visible;"/>
			</clipPath>
			<g class="st11">
				<path class="st1" d="M43.4,34.6l-4.1-2.2c-1.8-1.2-2.6-3-2.6-5.3l4.1,2.2C40.8,31.6,41.7,33.3,43.4,34.6"/>
			</g>
		</g>
		<g>
			<polygon class="st1" points="40.8,29.3 36.7,27.1 36.7,25.1 40.8,27.3 			"/>
		</g>
		<g class="st0">
			<defs>
				<path id="SVGID_17_" class="st0" d="M40.8,27.3l-4.1-2.2c0-4.7,3-7.8,9-9.2l4.1,2.2C43.8,19.5,40.8,22.6,40.8,27.3z"/>
			</defs>
			<clipPath id="SVGID_18_">
				<use xlink:href="#SVGID_17_"  style="overflow:visible;"/>
			</clipPath>
			<g class="st12">
				<path class="st1" d="M40.8,27.3l-4.1-2.2c0-4.7,3-7.8,9-9.2l4.1,2.2C43.8,19.5,40.8,22.6,40.8,27.3"/>
			</g>
		</g>
		<g class="st0">
			<defs>
				<path id="SVGID_19_" class="st0" d="M62.8,6.2l4.1,2.2c-4.3-2.3-9.3-3.3-14.8-2.5C36.9,8,24.4,23.1,24.4,39.6
					c0,10.4,4.9,18.9,12.4,23.2l-4.1-2.2c-7.5-4.3-12.5-12.8-12.4-23.2C20.3,20.9,32.8,5.8,48,3.6C53.5,2.8,58.5,3.8,62.8,6.2z"/>
			</defs>
			<clipPath id="SVGID_20_">
				<use xlink:href="#SVGID_19_"  style="overflow:visible;"/>
			</clipPath>
			<g class="st13">
				<path class="st1" d="M36.9,62.8l-4.1-2.2c-7.5-4.3-12.5-12.8-12.4-23.2C20.3,20.9,32.8,5.8,48,3.6c5.4-0.8,10.5,0.2,14.8,2.5
					l4.1,2.2c-4.3-2.3-9.3-3.3-14.8-2.5C36.9,8,24.4,23.1,24.4,39.6C24.4,50,29.4,58.5,36.9,62.8"/>
			</g>
		</g>
		<g>
			<linearGradient id="SVGID_21_" gradientUnits="userSpaceOnUse" x1="52.0795" y1="98.5234" x2="52.0795" y2="5.5875">
				<stop  offset="9.224495e-02" style="stop-color:#047857"/>
				<stop  offset="1" style="stop-color:#34D399"/>
			</linearGradient>
			<path class="st14" d="M79.7,31.8c0,10.4-5,20.3-12.5,26.7l0.1,35.7L52,90.2l-15.2,8.4l0.1-35.7C29.4,58.5,24.4,50,24.4,39.6
				C24.4,23.1,36.9,8,52.1,5.8C67.4,3.7,79.8,15.3,79.7,31.8z M49.8,18.1l0-3c-9.7,2.6-17.3,12.6-17.3,23.4
				c0,10.8,7.5,18.7,17.3,18.5l0-3c-6,0.4-9-1.8-9-6.7l4.5-0.6l0,0.7c0,1.9,1.5,2.8,4.5,2.6l0-11l-6.4-4.4c-1.8-1.2-2.6-3-2.6-5.3
				l0-2C40.8,22.6,43.8,19.5,49.8,18.1 M54.3,56.3c9.7-2.6,17.3-12.6,17.3-23.4c0-10.8-7.5-18.7-17.2-18.5l0,3
				c5.6-0.8,8.6,1.4,9,6.7l-4.5,0.6c-0.4-2.6-1.9-3.7-4.5-3.3l0,11l6.4,4.4c1.8,1.2,2.6,3,2.6,5.3l0,2c0,4.7-3,7.8-9,9.2L54.3,56.3
				 M49.8,30l0-8c-1.9,0.9-2.8,2.3-2.8,4.1c0,0.7,0.2,1.4,0.7,1.9C48.2,28.6,48.9,29.3,49.8,30 M54.3,41.4l0,8
				c1.9-0.9,2.8-2.3,2.8-4.1C57.1,44,56.2,42.7,54.3,41.4"/>
		</g>
	</g>
</g>
</svg>
