<?xml version="1.0" encoding="utf-8"?>
<!-- Generator: Adobe Illustrator 25.4.1, SVG Export Plug-In . SVG Version: 6.00 Build 0)  -->
<svg version="1.1" id="grant_svg" xmlns="http://www.w3.org/2000/svg" xmlns:xlink="http://www.w3.org/1999/xlink" x="0px" y="0px"
	 viewBox="0 0 100 100" style="enable-background:new 0 0 100 100;" xml:space="preserve">
<style type="text/css">
	.st0{enable-background:new    ;}
	.st1{fill:#FFFFFF;}
</style>
<g>
	<g class="st0">
		<g>
			<path class="st1" d="M79.7,31.8c0,10.4-5,20.3-12.5,26.7l0.1,35.7l-15.3-4l-15.2,8.4l0.1-35.7C29.4,58.5,24.4,50,24.4,39.6
				C24.4,23.1,36.9,8,52.1,5.8C67.4,3.7,79.8,15.3,79.7,31.8z M49.8,18.1v-3c-9.7,2.6-17.3,12.6-17.3,23.4S40,57.2,49.8,57v-3
				c-6,0.4-9-1.8-9-6.7l4.5-0.6v0.7c0,1.9,1.5,2.8,4.5,2.6V39l-6.4-4.4c-1.8-1.2-2.6-3-2.6-5.3v-2C40.8,22.6,43.8,19.5,49.8,18.1
				 M54.3,56.3c9.7-2.6,17.3-12.6,17.3-23.4s-7.5-18.7-17.2-18.5v3c5.6-0.8,8.6,1.4,9,6.7l-4.5,0.6c-0.4-2.6-1.9-3.7-4.5-3.3v11
				l6.4,4.4c1.8,1.2,2.6,3,2.6,5.3v2c0,4.7-3,7.8-9,9.2L54.3,56.3 M49.8,30v-8c-1.9,0.9-2.8,2.3-2.8,4.1c0,0.7,0.2,1.4,0.7,1.9
				C48.2,28.6,48.9,29.3,49.8,30 M54.3,41.4v8c1.9-0.9,2.8-2.3,2.8-4.1C57.1,44,56.2,42.7,54.3,41.4"/>
		</g>
	</g>
</g>
</svg>
