<?xml version="1.0" encoding="utf-8"?>
<!-- Generator: Adobe Illustrator 25.0.0, SVG Export Plug-In . SVG Version: 6.00 Build 0)  -->
<svg version="1.1" id="Layer_1" xmlns="http://www.w3.org/2000/svg" xmlns:xlink="http://www.w3.org/1999/xlink" x="0px" y="0px"
	 viewBox="0 0 100 100" style="enable-background:new 0 0 100 100;" xml:space="preserve">
<style type="text/css">
	.st0{enable-background:new    ;}
	.st1{fill:url(#SVGID_1_);}
	.st2{clip-path:url(#SVGID_3_);}
	.st3{fill:#16A378;}
	.st4{fill:#085E42;}
	.st5{fill:#0B7F58;}
	.st6{fill:#0FAB77;}
</style>
<g>
	<g>
		<g class="st0">
			<g>
				<linearGradient id="SVGID_1_" gradientUnits="userSpaceOnUse" x1="60.5972" y1="99.5138" x2="41.6457" y2="-1.8767">
					<stop  offset="8.073434e-08" style="stop-color:#085E42"/>
					<stop  offset="0.4851" style="stop-color:#0B7F58"/>
					<stop  offset="1" style="stop-color:#0FAB77"/>
				</linearGradient>
				<polygon class="st1" points="75,4 91.9,93.7 27.3,93.7 10.4,4 				"/>
				<g class="st0">
					<defs>
						<polygon id="SVGID_2_" class="st0" points="75,4 91.9,93.7 27.3,93.7 10.4,4 						"/>
					</defs>
					<clipPath id="SVGID_3_">
						<use xlink:href="#SVGID_2_"  style="overflow:visible;"/>
					</clipPath>
					<g class="st2">
						<path class="st3" d="M53.8,62.7c1.1,0,2.1-0.6,3.2-1.8c0.5-0.6,1.1-0.9,1.9-0.9c0.3,0,0.7,0.1,1.1,0.2c1,0.3,2,0.4,3.1,0.7
							c1.1,5.9,2.3,12,3.5,18.4c-3.4-2.3-6.6-4.3-9.7-6.5c-0.5-0.4-1-0.5-1.4-0.5c-0.4,0-0.8,0.2-1.2,0.6c-2.3,2.1-4.7,4.2-7.3,6.4
							C46,73,44.8,67,43.7,60.9c1.1-0.3,2.1-0.7,3.2-0.7c0,0,0,0,0,0c0.9,0,2.1,0.2,2.9,0.8C51.4,62.1,52.6,62.7,53.8,62.7
							 M40.2,19.6c1.2,0,2.2-0.5,3-1.4c0.7-0.8,1.3-1.2,2.1-1.2c0.7,0,1.6,0.4,2.6,1.3c1.2,0.9,2.3,1.4,3.5,1.4
							c0.6,0,1.2-0.1,1.7-0.3c0.6-0.2,1.2-0.3,1.7-0.3c1.2,0,2,0.7,2.9,2.3c1,1.9,2.5,2.9,4.7,3.1c2.4,0.2,3.3,1.2,3.5,3.4
							c0.1,2.1,1.2,3.6,3.2,4.6c2.1,1.1,2.6,2.3,1.7,4.1c-0.9,1.7-0.6,3.4,0.9,5.2c1.6,1.9,1.6,3-0.2,4.2c-1.6,1.1-2.1,2.6-1.4,4.7
							c0.7,2.1,0,3.1-2.1,3.3c-2.2,0.2-3.4,1.3-3.7,3.3c-0.2,1.4-0.8,2.1-2,2.1c-0.4,0-0.9-0.1-1.5-0.3c-0.8-0.3-1.5-0.4-2.1-0.4
							c-1.3,0-2.3,0.5-3.2,1.6c-0.5,0.7-1.2,1-1.9,1c-0.7,0-1.5-0.3-2.3-1c-1.3-1.1-2.5-1.6-3.8-1.6c-0.6,0-1.3,0.1-2,0.4
							c-0.5,0.2-0.9,0.3-1.4,0.3c-1.1,0-2-0.6-2.7-2c-1.1-2.2-2.8-3.3-5.2-3.5c-2-0.1-2.9-1.2-3.2-3.5c-0.1-1.9-1.1-3.4-3-4.4
							c-2.3-1.3-2.8-2.3-1.9-4.3c0.8-1.6,0.5-3.2-0.9-4.9c-1.7-2.1-1.7-3.1,0.3-4.4c1.5-1,1.9-2.5,1.3-4.4c-0.7-2.3-0.1-3.2,2.3-3.4
							c2-0.2,3.1-1.2,3.4-3c0.3-1.6,0.8-2.3,2-2.3c0.5,0,1.1,0.1,1.9,0.4C39,19.5,39.6,19.6,40.2,19.6 M44.8,15.3
							c-1.1,0-2.1,0.6-3.2,1.7c-0.6,0.6-1.2,0.9-2,0.9c-0.4,0-0.8-0.1-1.2-0.2c-0.9-0.3-1.7-0.4-2.4-0.4c-1.9,0-2.9,1.1-3.3,3.3
							c-0.2,1.2-0.9,1.9-2.2,2c-3.2,0.3-4.3,1.9-3.4,5.1c0.4,1.5,0.1,2.5-1.1,3.3c-2.2,1.5-2.3,3.7-0.3,6.1c1.2,1.3,1.4,2.4,0.7,3.8
							c-1.1,2.3-0.1,4.6,2.5,6c1.6,0.8,2.4,1.9,2.5,3.5c0.2,2.8,2.1,4.5,5.2,4.9c0.7,0.1,1.7,0.3,2,0.7c1.2,1.6,2.9,3.3,3.3,5
							c1.4,6.2,2.4,12.3,3.6,18.5c0.1,0.7,0.6,1.4,0.9,2.2c0.6-0.3,1.4-0.6,1.9-1c2.6-2.2,5.1-4.4,7.7-6.7c3.7,2.5,7.2,4.8,10.8,7.2
							c0.5,0.3,1.1,0.4,1.7,0.6c0.1-0.5,0.3-1,0.2-1.6c-0.9-5.1-1.8-10.1-2.9-15.2c-0.6-2.7-1.2-5.5,0.2-7.8
							c0.5-0.8,1.2-1.6,2.1-1.8c3.5-0.7,4.5-1.9,3.5-5.3c-0.4-1.4-0.1-2.3,1-3c2.4-1.6,2.5-3.7,0.3-6.3c-1-1.2-1.3-2.3-0.7-3.5
							c1.2-2.5,0.3-4.7-2.7-6.3c-1.4-0.8-2.1-1.7-2.2-3.2c-0.2-3.1-2-4.8-5.3-5.1c-1.4-0.1-2.3-0.8-3-2c-1.3-2.3-2.7-3.4-4.6-3.4
							c-0.7,0-1.4,0.1-2.2,0.4C51.7,17.9,51.3,18,51,18c-0.8,0-1.5-0.3-2.3-0.9C47.2,15.9,45.9,15.3,44.8,15.3"/>
						<path class="st3" d="M51.9,52.7c-7.8,0-15.4-6.1-16.8-13.6c-1.5-7.6,3.8-13.7,11.7-13.7c0,0,0,0,0,0c7.9,0,15.4,6.1,16.9,13.7
							C65,46.5,59.8,52.7,52,52.7C52,52.7,51.9,52.7,51.9,52.7 M46.4,23.7c-8.7,0-14.6,6.8-13.1,15.1c1.6,8.5,9.9,15.4,18.7,15.5
							c0,0,0.1,0,0.1,0c8.8,0,14.7-6.8,13.1-15.2C63.8,30.6,55.4,23.8,46.4,23.7C46.5,23.7,46.4,23.7,46.4,23.7"/>
						<path class="st3" d="M51.6,46.4c-0.4-2.1-0.8-4.1-1.2-6.4c1.8,0.5,2.7,1.5,3.2,3C54.1,44.5,53.4,45.7,51.6,46.4 M48.2,38
							c-2-0.6-2.9-1.8-3.2-3.3c-0.2-1.5,0.4-2.5,2-3C47.4,33.8,47.8,35.8,48.2,38 M47.3,28.6c-0.3,0-0.5,0.2-0.7,0.7
							c-0.2,0.4-0.4,0.7-0.8,0.9c-2,0.9-3,2.5-2.5,4.8c0.4,2.2,1.9,3.7,4.2,4.6c0.4,0.2,1,0.7,1.1,1c0.4,1.9,0.8,3.8,1.1,5.9
							c-1.8-0.5-2.6-1.5-3.2-2.8c-0.2-0.4-0.8-0.7-1.2-1.1c-0.1,0.5-0.5,1-0.3,1.4c0.6,1.7,1.8,2.9,3.6,3.8c0.8,0.4,1.6,1.5,2.2,1.5
							c0,0,0,0,0,0c0.7,0,1.1-1,1.8-1.4c1.9-0.9,2.9-2.4,2.5-4.6c-0.4-2.3-1.9-3.9-4.3-4.8c-0.4-0.2-1-0.6-1-0.9
							c-0.4-1.9-0.8-3.9-1.2-6c1.8,0.5,2.6,1.5,3.2,2.8c0.2,0.4,0.8,0.8,1.2,1.2c0.1-0.5,0.5-1.1,0.3-1.6c-0.6-1.7-1.9-2.9-3.7-3.7
							c-0.6-0.3-1.1-0.7-1.6-1.1C47.9,28.8,47.6,28.6,47.3,28.6"/>
					</g>
				</g>
			</g>
			<g>
				<polygon class="st4" points="91.9,93.7 89.6,96 25,96 27.3,93.7 				"/>
			</g>
			<g>
				<polygon class="st5" points="27.3,93.7 25,96 8.1,6.3 10.4,4 				"/>
			</g>
		</g>
	</g>
	<g>
		<path class="st6" d="M32.5,88.8c-0.6,0-1.2-0.5-1.2-1.1c0-0.6,0.5-1.2,1.1-1.2l50.3-0.7c0,0,0,0,0,0c0.6,0,1.2,0.5,1.2,1.1
			c0,0.6-0.5,1.2-1.1,1.2L32.5,88.8C32.5,88.8,32.5,88.8,32.5,88.8z"/>
	</g>
</g>
</svg>
