<?xml version="1.0" encoding="utf-8"?>
<!-- Generator: Adobe Illustrator 25.4.1, SVG Export Plug-In . SVG Version: 6.00 Build 0)  -->
<svg version="1.1" id="Layer_1" xmlns="http://www.w3.org/2000/svg" xmlns:xlink="http://www.w3.org/1999/xlink" x="0px" y="0px"
	 viewBox="0 0 100 100" style="enable-background:new 0 0 100 100;" xml:space="preserve">
<style type="text/css">
	.st0{fill:#FFFFFF;}
</style>
<path class="st0" d="M93.3,78C93.3,78,93.3,78,93.3,78C93.3,78,93.3,78,93.3,78c0,0-0.1,0-0.1-0.1C93.2,78,93.3,78,93.3,78L93,77.9
	C93.2,77.9,93.3,77.9,93.3,78L69.5,65c-0.1-0.1-0.3-0.1-0.4-0.2l-0.1,0c0,0-0.1,0-0.1,0c-0.3,0-0.5-0.1-0.8,0l-2.2,0.3l-3.5-1.9
	l-28.5,4v2.4l-5,0.7l23.9,13c-1.2,0.2-2.2,1.2-2.5,2.4c0,0,0,0,0-0.1c0-0.1,0.1-0.2,0.1-0.4c0,0,0,0,0-0.1c0.1-0.1,0.1-0.3,0.2-0.4
	c0,0,0-0.1,0.1-0.1c0.1-0.1,0.1-0.2,0.2-0.3c0,0,0-0.1,0.1-0.1c0.1-0.1,0.2-0.2,0.3-0.3c0,0,0.1,0,0.1-0.1c0.1-0.1,0.2-0.2,0.3-0.2
	c0.1,0,0.1-0.1,0.2-0.1c0.1-0.1,0.2-0.1,0.3-0.1h0.1c0.2-0.1,0.3-0.1,0.5-0.1l-23.9-13c-0.2,0-0.3,0.1-0.5,0.1h-0.1
	c-0.1,0-0.1,0-0.2,0.1L28,70.6c-0.1,0-0.1,0.1-0.2,0.1c0,0-0.1,0-0.1,0.1c-0.1,0.1-0.1,0.1-0.2,0.2c0,0-0.1,0-0.1,0.1
	c-0.1,0.1-0.2,0.2-0.3,0.3c0,0,0,0,0,0.1c0,0,0,0.1-0.1,0.1l-0.1,0.1c0,0.1-0.1,0.1-0.1,0.2c0,0,0,0.1-0.1,0.1c0,0,0,0,0,0.1
	c-0.1,0.1-0.1,0.2-0.2,0.4c0,0,0,0,0,0.1c0,0.1-0.1,0.2-0.1,0.3c0,0.1,0,0.1-0.1,0.2c0,0.2-0.1,0.4-0.1,0.6v1.6
	c-5-4-8.1-10.5-8.1-18.2c0-12.5,8.2-24,19.1-27.9l2.8,26.1c-1.1,0.5-1.7,1.1-1.8,1.6c0,0,0,0,0-0.1l0,0.3c0,0,0,0,0,0l0.3,2.3
	c0,0.4,0.5,0.8,1.4,1.2c0.2,0.1,0.4,0.1,0.6,0.2c0.1,0,0.1,0,0.2,0.1c0.1,0,0.2,0,0.3,0.1c0.1,0,0.1,0,0.2,0c0.1,0,0.2,0,0.3,0.1
	c0.1,0,0.1,0,0.2,0c0.1,0,0.3,0,0.4,0.1h0.1c0.2,0,0.4,0,0.5,0.1c0.1,0,0.2,0,0.2,0h0.1c0.1,0,0.1,0,0.1,0c0.2,0,0.3,0,0.5,0
	c0.1,0,0.1,0,0.2,0H44h0.1c0.2,0,0.3,0,0.5,0c0.1,0,0.2,0,0.3,0H45c0,0,0,0,0.1,0c0.2,0,0.3,0,0.5,0c0.2,0,0.3,0,0.5,0
	c0.1,0,0.3,0,0.4,0c0.2,0,0.3,0,0.5,0c0.1,0,0.2,0,0.2,0h0.1h0.1c0.1,0,0.3,0,0.4,0c0.1,0,0.3,0,0.4,0h0.1c0,0,0,0,0.1,0
	c0.1,0,0.1,0,0.2,0c0.1,0,0.2,0,0.4,0c0.1,0,0.2,0,0.3,0c0.1,0,0.2,0,0.3,0c0,0,0,0,0.1,0c0.1,0,0.1,0,0.2,0c0.1,0,0.2,0,0.3,0
	c0.1,0,0.1,0,0.2,0c0.1,0,0.1,0,0.2,0c0.1,0,0.1,0,0.2,0h0.1c0,0,0,0,0.1,0s0.1,0,0.2,0c0.1,0,0.1,0,0.2,0c0.1,0,0.1,0,0.2,0
	c0.1,0,0.1,0,0.2,0c0.1,0,0.1,0,0.2,0s0.1,0,0.2,0c0.1,0,0.1,0,0.2,0c0.1,0,0.1,0,0.2,0c0.1,0,0.1,0,0.2,0c0.1,0,0.1,0,0.2,0
	c0.1,0,0.2,0,0.2,0c0.1,0,0.1,0,0.2,0c0,0,0,0,0.1,0c0.1,0,0.1,0,0.2,0s0.3,0,0.4-0.1c0.1,0,0.3,0,0.4-0.1c0.1,0,0.3,0,0.4-0.1
	c0.1,0,0.1,0,0.2,0c0.1,0,0.3,0,0.4-0.1c0.1,0,0.2,0,0.3-0.1h0.1c0.1,0,0.1,0,0.2,0c0.1,0,0.2,0,0.2,0c0.1,0,0.2,0,0.2,0
	c0.1,0,0.2,0,0.2,0h0.2c0,0,0,0,0.1,0c0.1,0,0.1,0,0.2,0s0.2,0,0.2-0.1c0.1,0,0.2,0,0.2-0.1h0.1c0,0,0,0,0.1,0
	c0.1,0,0.2-0.1,0.3-0.1c0.1,0,0.2-0.1,0.3-0.1c0,0,0,0,0.1,0c0,0,0,0,0.1,0c0.1,0,0.1,0,0.2-0.1c0.1,0,0.3-0.1,0.4-0.1
	c0,0,0,0,0.1,0h0.1c0.1,0,0.2-0.1,0.3-0.1s0.2,0,0.2-0.1c0.1,0,0.1,0,0.2,0h0.1c0.2-0.1,0.3-0.1,0.5-0.2c0,0,0,0,0.1,0
	c0.1,0,0.2-0.1,0.3-0.1h0.1c0,0,0.1,0,0.1-0.1c0,0,0.1,0,0.1-0.1c0.1,0,0.2-0.1,0.3-0.1c0.1,0,0.2-0.1,0.3-0.1c0,0,0.1,0,0.1-0.1
	h0.1h0.1c0.1,0,0.2-0.1,0.3-0.1c0.1,0,0.1-0.1,0.2-0.1c0.1,0,0.1-0.1,0.1-0.1c0.1,0,0.1-0.1,0.2-0.1c0,0,0,0,0.1,0c0,0,0,0,0.1,0
	s0.1-0.1,0.1-0.1l0.1-0.1c0,0,0-0.1,0.1-0.1l0.1-0.1c0,0,0,0,0-0.1c0.5-0.9,0.5-0.9,0.5-1c0-0.1,0-0.1,0-0.2L64,54.5
	c0,0.1,0,0.1,0,0.2c0,0.1,0,0.1-0.1,0.2c0,0,0,0,0,0c0.3-0.6-0.1-1.2-1.3-1.6c-0.5-0.2-1-0.3-1.7-0.4L56.2,8.3c0,0.1,0,0.2-0.1,0.3
	C56,8.8,56,8.9,55.9,9c-0.1,0.1-0.3,0.2-0.4,0.4c-0.2,0.1-0.4,0.2-0.6,0.4c-0.2,0.1-0.5,0.2-0.8,0.4c0,0,0,0-0.1,0
	c-0.3,0.1-0.6,0.2-0.9,0.3c0,0,0,0-0.1,0c-0.2,0.1-0.5,0.2-0.8,0.2c2.5-0.7,4-1.6,4-2.4C56.1,7.5,54.4,7,52,6.8l-0.3-3
	c0,0.1,0,0.2,0,0.2c0,0.1-0.1,0.2-0.2,0.2c0.3-0.4,0.1-0.7-0.6-1c-1.8-0.7-6-0.6-9.5,0.1c-3.4,0.7-4.8,1.8-3,2.4
	C39.9,6.3,43,6.3,46,5.9C45.7,6,45.4,6,45.2,6.1c-0.5,0-0.9,0.1-1.4,0.1c-0.4,0-0.9,0-1.3,0.1c-0.4,0-0.8,0-1.2,0
	c-0.4,0-0.8,0-1.1-0.1c-0.3,0-0.6-0.1-0.9-0.1h-0.1C38.9,6,38.7,6,38.5,5.9c-0.5-0.2-0.7-0.4-0.8-0.6l0.2,3.3
	c-1.6,0.6-2.5,1.3-2.5,1.9c0,0.1,0.1,0.2,0.2,0.4c-0.2-0.2-0.4-0.4-0.4-0.6l0.9,8.5C30.3,20.1,25,23,20.5,27
	c-3.7,3.4-6.8,7.5-9.1,12c-0.1,0.2-0.2,0.3-0.2,0.5c-0.2,0.3-0.3,0.7-0.5,1c-2.3,5-3.6,10.4-3.6,16c0,0.1,0,0.1,0,0.2v0.1
	c0,0.8,0,1.5,0.1,2.2c0.7,11.1,6.3,20,14.5,24.5l3.4,1.9c-0.7-0.4-1.3-0.8-1.9-1.2l1.9,1.1c-4.4-2.4-8-6-10.6-10.5
	c-2.5-4.6-4-10-4-16.1c0-0.3,0-0.5,0-0.8c0-0.4,0-0.7,0-1.1c0-0.4,0-0.7,0.1-1.1c0-0.2,0-0.5,0.1-0.7c0-0.4,0.1-0.8,0.1-1.3
	c0-0.1,0-0.2,0-0.3c0.2-1.3,0.4-2.5,0.7-3.7c-0.7,2.9-1,5.9-1,8.9c-0.1,16,10.1,28,23.9,29.7l16.8,9.1c-0.3-0.3-0.5-0.6-0.7-1
	c0.5,0.6,1.2,1,2.1,0.9l39.2-5.5c1.5-0.2,2.6-1.6,2.6-3.1v-8.5C94.6,79.2,94.1,78.4,93.3,78z M60.5,56.9
	C60.5,56.9,60.5,56.9,60.5,56.9C60.5,56.9,60.5,56.9,60.5,56.9z M53.5,58.5c0.3,0,0.6-0.1,0.8-0.1c0,0-0.1,0-0.1,0
	C54,58.4,53.8,58.5,53.5,58.5z M56.3,58C56.3,58,56.3,58,56.3,58C56.3,58,56.3,58,56.3,58z M60,57.1C60,57.1,60,57.1,60,57.1
	C60,57.1,60,57.1,60,57.1C60,57.1,60,57.1,60,57.1z M60.9,56.8C60.9,56.8,60.9,56.8,60.9,56.8c0.2-0.1,0.3-0.1,0.5-0.2c0,0,0,0,0,0
	C61.3,56.7,61.1,56.7,60.9,56.8z M63.9,54.9c0,0.1-0.1,0.1-0.1,0.2c0,0.1-0.1,0.1-0.2,0.2c-0.1,0.1-0.1,0.1-0.2,0.2c0,0,0,0,0,0
	C63.6,55.3,63.8,55.1,63.9,54.9z M50.2,86c0,0.1,0,0.2,0,0.4C50.2,86.3,50.2,86.2,50.2,86z M92.7,77.8L92.7,77.8c0,0-0.1,0-0.1,0
	C92.6,77.8,92.7,77.8,92.7,77.8z"/>
</svg>
