<?xml version="1.0" encoding="utf-8"?>
<!-- Generator: Adobe Illustrator 25.0.0, SVG Export Plug-In . SVG Version: 6.00 Build 0)  -->
<svg version="1.1" id="Layer_1" xmlns="http://www.w3.org/2000/svg" xmlns:xlink="http://www.w3.org/1999/xlink" x="0px" y="0px"
	 viewBox="0 0 100 100" style="enable-background:new 0 0 100 100;" xml:space="preserve">
<style type="text/css">
	.st0{enable-background:new    ;}
	.st1{clip-path:url(#SVGID_2_);enable-background:new    ;}
	.st2{fill:#57870F;}
	.st3{fill:#54830E;}
	.st4{fill:#527E0E;}
	.st5{fill:#5D9010;}
	.st6{fill:#74B313;}
	.st7{fill:url(#SVGID_3_);}
	.st8{fill:#456A0B;}
	.st9{fill:#ABDC60;}
	.st10{fill:url(#SVGID_4_);}
	.st11{clip-path:url(#SVGID_6_);enable-background:new    ;}
	.st12{clip-path:url(#SVGID_8_);fill:url(#SVGID_9_);}
	.st13{fill:#84CB16;}
	.st14{fill:url(#SVGID_10_);}
	.st15{fill:#507C0D;}
	.st16{fill:url(#SVGID_11_);}
</style>
<g>
	<g class="st0">
		<g class="st0">
			<defs>
				<path id="SVGID_1_" class="st0" d="M69.5,65l23.9,13c-0.4-0.2-0.9-0.3-1.4-0.2l-23.9-13C68.6,64.7,69.1,64.8,69.5,65z"/>
			</defs>
			<clipPath id="SVGID_2_">
				<use xlink:href="#SVGID_1_"  style="overflow:visible;"/>
			</clipPath>
			<g class="st1">
				<path class="st2" d="M92,77.8l-23.9-13c0.3,0,0.6,0,0.9,0l23.9,13C92.6,77.8,92.3,77.8,92,77.8"/>
				<path class="st3" d="M92.9,77.9L69,64.9c0.1,0,0.3,0.1,0.4,0.1l23.9,13C93.2,78,93.1,77.9,92.9,77.9"/>
				<path class="st4" d="M93.3,78L69.4,65c0,0,0.1,0,0.1,0L93.3,78C93.4,78.1,93.3,78,93.3,78"/>
			</g>
		</g>
		<g>
			<polygon class="st5" points="52.8,83.3 28.9,70.3 68.1,64.8 92,77.8 			"/>
		</g>
		<g>
			<path class="st6" d="M92,77.8c1.4-0.2,2.6,0.9,2.5,2.4l0,8.5c0,1.5-1.1,2.9-2.6,3.1l-39.2,5.5c-1.4,0.2-2.6-0.9-2.5-2.4l0-8.5
				c0-1.5,1.1-2.9,2.6-3.1L92,77.8z"/>
		</g>
		<linearGradient id="SVGID_3_" gradientUnits="userSpaceOnUse" x1="35.682" y1="89.9369" x2="40.925" y2="81.4897">
			<stop  offset="0" style="stop-color:#456A0B"/>
			<stop  offset="1" style="stop-color:#84CB16"/>
		</linearGradient>
		<path class="st7" d="M50.2,94.9l0-8.5c0-0.2,0-0.4,0.1-0.6c0-0.1,0-0.1,0-0.2c0-0.1,0.1-0.2,0.1-0.4c0,0,0,0,0-0.1
			c0.1-0.1,0.1-0.3,0.2-0.4c0,0,0-0.1,0.1-0.1c0.1-0.1,0.1-0.2,0.2-0.3c0,0,0-0.1,0.1-0.1c0.1-0.1,0.2-0.2,0.3-0.3
			c0,0,0.1,0,0.1-0.1c0.1-0.1,0.2-0.2,0.3-0.2c0.1,0,0.1-0.1,0.2-0.1c0.1-0.1,0.2-0.1,0.3-0.1c0,0,0.1,0,0.1,0
			c0.2-0.1,0.3-0.1,0.5-0.1l-23.9-13c-0.2,0-0.3,0.1-0.5,0.1c0,0-0.1,0-0.1,0c-0.1,0-0.1,0-0.2,0.1c0,0-0.1,0.1-0.1,0.1
			c-0.1,0-0.1,0.1-0.2,0.1c0,0-0.1,0-0.1,0.1c-0.1,0.1-0.1,0.1-0.2,0.2c0,0-0.1,0-0.1,0.1c0,0,0,0,0,0c-0.1,0.1-0.2,0.2-0.3,0.3
			c0,0,0,0,0,0.1c0,0,0,0.1-0.1,0.1c0,0-0.1,0.1-0.1,0.1c0,0.1-0.1,0.1-0.1,0.2c0,0,0,0.1-0.1,0.1c0,0,0,0,0,0.1
			c-0.1,0.1-0.1,0.2-0.2,0.4c0,0,0,0,0,0.1c0,0,0,0,0,0c0,0.1-0.1,0.2-0.1,0.3c0,0.1,0,0.1-0.1,0.2c0,0.2-0.1,0.4-0.1,0.6l0,8.5
			c0,1,0.5,1.8,1.2,2.2l23.9,13C50.7,96.7,50.2,95.9,50.2,94.9z"/>
	</g>
	<g class="st0">
		<g>
			<path class="st8" d="M57,57.9c-6.3,1.3-14.1,1.5-17.3,0.3c-3.2-1.2-0.7-3.3,5.6-4.6c6.3-1.3,14.1-1.5,17.3-0.3
				C65.8,54.5,63.3,56.5,57,57.9z"/>
		</g>
		<path class="st9" d="M64.2,57.4c0-0.1,0-0.1,0-0.2c0,0,0,0,0,0L64,54.5c0,0.1,0,0.1,0,0.2c0,0,0,0,0,0c0,0.1,0,0.1-0.1,0.2
			c0,0,0,0,0,0c0,0.1-0.1,0.1-0.1,0.2c0,0,0,0,0,0c0,0.1-0.1,0.1-0.2,0.2c0,0,0,0,0,0c-0.1,0.1-0.1,0.1-0.2,0.2c0,0,0,0,0,0
			c-0.1,0.1-0.2,0.1-0.3,0.2c0,0,0,0,0,0c-0.1,0.1-0.2,0.1-0.3,0.2c0,0,0,0,0,0c-0.1,0.1-0.2,0.1-0.4,0.2c0,0-0.1,0-0.1,0
			c-0.1,0.1-0.3,0.1-0.4,0.2c0,0,0,0,0,0c-0.1,0.1-0.3,0.1-0.4,0.2c0,0-0.1,0-0.1,0.1c-0.1,0.1-0.3,0.1-0.5,0.2c0,0,0,0-0.1,0
			C60.4,57,60.2,57,60,57.1c0,0-0.1,0-0.2,0c-0.2,0.1-0.3,0.1-0.5,0.2c0,0-0.1,0-0.1,0c-0.2,0.1-0.4,0.1-0.7,0.2c0,0,0,0-0.1,0
			c-0.2,0.1-0.5,0.1-0.7,0.2c0,0,0,0,0,0c-0.3,0.1-0.5,0.1-0.8,0.2c-0.4,0.1-0.8,0.2-1.2,0.2c0,0,0,0,0,0c-0.3,0.1-0.7,0.1-1,0.2
			c-0.1,0-0.3,0-0.4,0.1c-0.3,0-0.6,0.1-0.9,0.1c0,0,0,0-0.1,0c-0.4,0.1-0.8,0.1-1.2,0.1c0,0,0,0,0,0c-0.4,0-0.8,0.1-1.2,0.1
			c0,0,0,0,0,0c-0.4,0-0.8,0.1-1.2,0.1c0,0,0,0,0,0c-0.4,0-0.8,0-1.2,0.1c0,0,0,0-0.1,0c-0.4,0-0.8,0-1.1,0c0,0-0.1,0-0.1,0
			c-0.4,0-0.7,0-1.1,0c0,0,0,0,0,0c-0.4,0-0.7,0-1.1,0c0,0-0.1,0-0.1,0c-0.3,0-0.6,0-1-0.1c0,0-0.1,0-0.1,0c-0.3,0-0.6,0-0.9-0.1
			c0,0-0.1,0-0.1,0c-0.3,0-0.6-0.1-0.8-0.1c0,0-0.1,0-0.1,0c-0.2,0-0.4-0.1-0.6-0.1c-0.1,0-0.2,0-0.3-0.1c-0.2,0-0.3-0.1-0.5-0.1
			c-0.1,0-0.1,0-0.2-0.1c-0.2-0.1-0.4-0.1-0.6-0.2c-0.9-0.3-1.4-0.7-1.4-1.2l0.3,2.7c0,0.4,0.5,0.8,1.4,1.2c0.2,0.1,0.4,0.1,0.6,0.2
			c0.1,0,0.1,0,0.2,0.1c0.1,0,0.2,0,0.3,0.1c0.1,0,0.1,0,0.2,0c0.1,0,0.2,0,0.3,0.1c0.1,0,0.1,0,0.2,0c0.1,0,0.3,0,0.4,0.1
			c0,0,0.1,0,0.1,0c0,0,0,0,0,0c0.2,0,0.4,0,0.5,0.1c0.1,0,0.2,0,0.2,0c0,0,0.1,0,0.1,0c0.1,0,0.1,0,0.1,0c0.2,0,0.3,0,0.5,0
			c0.1,0,0.1,0,0.2,0c0,0,0.1,0,0.1,0c0,0,0.1,0,0.1,0c0.2,0,0.3,0,0.5,0c0.1,0,0.2,0,0.3,0c0,0,0.1,0,0.1,0c0,0,0,0,0.1,0
			c0.2,0,0.3,0,0.5,0c0.2,0,0.3,0,0.5,0c0,0,0,0,0,0c0,0,0,0,0,0c0.1,0,0.3,0,0.4,0c0.2,0,0.3,0,0.5,0c0.1,0,0.2,0,0.2,0
			c0,0,0.1,0,0.1,0c0,0,0.1,0,0.1,0c0.1,0,0.3,0,0.4,0c0.1,0,0.3,0,0.4,0c0,0,0.1,0,0.1,0c0,0,0,0,0.1,0c0.1,0,0.1,0,0.2,0
			c0.1,0,0.2,0,0.4,0c0.1,0,0.2,0,0.3,0c0.1,0,0.2,0,0.3,0c0,0,0,0,0.1,0c0,0,0,0,0,0c0.1,0,0.1,0,0.2,0c0.1,0,0.2,0,0.3,0
			c0.1,0,0.1,0,0.2,0c0.1,0,0.1,0,0.2,0c0.1,0,0.1,0,0.2,0c0,0,0.1,0,0.1,0c0,0,0,0,0,0c0,0,0,0,0.1,0c0.1,0,0.1,0,0.2,0
			c0.1,0,0.1,0,0.2,0c0.1,0,0.1,0,0.2,0c0.1,0,0.1,0,0.2,0c0.1,0,0.1,0,0.2,0c0.1,0,0.1,0,0.2,0c0,0,0,0,0,0c0,0,0,0,0,0
			c0.1,0,0.1,0,0.2,0c0.1,0,0.1,0,0.2,0c0.1,0,0.1,0,0.2,0c0.1,0,0.1,0,0.2,0c0.1,0,0.2,0,0.2,0c0.1,0,0.1,0,0.2,0c0,0,0,0,0.1,0
			c0.1,0,0.1,0,0.2,0c0.1,0,0.3,0,0.4-0.1c0.1,0,0.3,0,0.4-0.1c0.1,0,0.3,0,0.4-0.1c0.1,0,0.1,0,0.2,0c0.1,0,0.3,0,0.4-0.1
			c0.1,0,0.2,0,0.3-0.1c0,0,0.1,0,0.1,0c0,0,0,0,0,0c0.1,0,0.1,0,0.2,0c0.1,0,0.2,0,0.2,0c0.1,0,0.2,0,0.2,0c0.1,0,0.2,0,0.2,0
			s0.2,0,0.2,0c0,0,0,0,0.1,0c0.1,0,0.1,0,0.2,0c0.1,0,0.2,0,0.2-0.1c0.1,0,0.2,0,0.2-0.1c0,0,0.1,0,0.1,0c0,0,0,0,0,0
			c0,0,0,0,0.1,0c0.1,0,0.2-0.1,0.3-0.1c0.1,0,0.2-0.1,0.3-0.1c0,0,0,0,0.1,0c0,0,0,0,0.1,0c0.1,0,0.1,0,0.2-0.1
			c0.1,0,0.3-0.1,0.4-0.1c0,0,0,0,0.1,0c0,0,0.1,0,0.1,0c0.1,0,0.2-0.1,0.3-0.1c0.1,0,0.2,0,0.2-0.1c0.1,0,0.1,0,0.2,0
			c0,0,0.1,0,0.1,0c0.2-0.1,0.3-0.1,0.5-0.2c0,0,0,0,0,0c0,0,0,0,0.1,0c0.1,0,0.2-0.1,0.3-0.1c0,0,0.1,0,0.1,0c0,0,0.1,0,0.1-0.1
			c0,0,0.1,0,0.1-0.1c0.1,0,0.2-0.1,0.3-0.1c0,0,0,0,0,0c0,0,0,0,0,0c0.1,0,0.2-0.1,0.3-0.1c0,0,0.1,0,0.1-0.1c0,0,0.1,0,0.1,0
			c0,0,0.1,0,0.1,0c0.1,0,0.2-0.1,0.3-0.1c0,0,0,0,0,0c0,0,0,0,0,0c0.1,0,0.1-0.1,0.2-0.1c0.1,0,0.1-0.1,0.1-0.1c0,0,0,0,0,0
			c0,0,0,0,0,0c0.1,0,0.1-0.1,0.2-0.1c0,0,0,0,0.1,0c0,0,0,0,0,0c0,0,0,0,0.1,0c0.1,0,0.1-0.1,0.1-0.1c0,0,0,0,0,0c0,0,0,0,0,0
			c0,0,0.1-0.1,0.1-0.1c0,0,0-0.1,0.1-0.1c0,0,0,0,0,0c0,0,0,0,0,0c0,0,0.1-0.1,0.1-0.1c0,0,0,0,0,0c0,0,0,0,0,0c0,0,0,0,0-0.1
			C64.2,57.5,64.2,57.5,64.2,57.4C64.2,57.4,64.2,57.4,64.2,57.4C64.2,57.4,64.2,57.4,64.2,57.4z"/>
	</g>
	<g class="st0">
		<g>
			<ellipse transform="matrix(0.9943 -0.1069 0.1069 0.9943 -0.7445 4.9491)" class="st6" cx="45.8" cy="9.4" rx="10.4" ry="2.5"/>
		</g>
		<linearGradient id="SVGID_4_" gradientUnits="userSpaceOnUse" x1="37.2972" y1="34.4461" x2="57.9782" y2="32.2615">
			<stop  offset="0" style="stop-color:#84CB16"/>
			<stop  offset="0.3197" style="stop-color:#9AD43F"/>
			<stop  offset="0.508" style="stop-color:#ABDC60"/>
			<stop  offset="0.8118" style="stop-color:#87CC1B"/>
			<stop  offset="1" style="stop-color:#456A0B"/>
		</linearGradient>
		<path class="st10" d="M61,53.5L56.2,8.3c0,0.1,0,0.2-0.1,0.3c0,0,0,0,0,0C56,8.8,56,8.9,55.9,9c0,0,0,0,0,0
			c-0.1,0.1-0.3,0.2-0.4,0.4c0,0,0,0,0,0c-0.2,0.1-0.4,0.2-0.6,0.4c0,0,0,0,0,0c-0.2,0.1-0.5,0.2-0.8,0.4c0,0,0,0-0.1,0
			c-0.3,0.1-0.6,0.2-0.9,0.3c0,0,0,0-0.1,0c-0.3,0.1-0.7,0.2-1.1,0.3c0,0,0,0,0,0c-0.4,0.1-0.8,0.2-1.3,0.3c-0.3,0.1-0.6,0.1-1,0.2
			c0,0,0,0,0,0c-0.2,0-0.4,0.1-0.7,0.1c-0.3,0-0.5,0.1-0.8,0.1c-0.2,0-0.3,0.1-0.5,0.1c0,0,0,0,0,0c-0.3,0-0.7,0.1-1,0.1
			c0,0,0,0,0,0c-0.3,0-0.7,0.1-1,0.1c0,0,0,0,0,0c-0.3,0-0.7,0.1-1,0.1c0,0,0,0,0,0c-0.3,0-0.6,0-1,0.1c0,0,0,0,0,0
			c-0.3,0-0.6,0-0.9,0c0,0,0,0-0.1,0c-0.3,0-0.6,0-0.9,0c0,0,0,0,0,0c-0.3,0-0.6,0-0.9,0c0,0,0,0-0.1,0c-0.3,0-0.5,0-0.8,0
			c0,0-0.1,0-0.1,0c-0.2,0-0.5,0-0.7-0.1c0,0-0.1,0-0.1,0c-0.2,0-0.5-0.1-0.7-0.1c0,0-0.1,0-0.1,0c-0.2,0-0.3-0.1-0.5-0.1
			c-0.1,0-0.2,0-0.2-0.1c-0.1,0-0.2,0-0.3-0.1c-0.3-0.1-0.5-0.1-0.8-0.2c-0.7-0.3-1.1-0.6-1.2-1l4.9,45.2c0,0.4,0.4,0.7,1.2,1
			c0.2,0.1,0.5,0.2,0.8,0.2c0,0,0.1,0,0.1,0c0.1,0,0.1,0,0.2,0c0.1,0,0.2,0,0.2,0.1c0,0,0.1,0,0.1,0c0.1,0,0.2,0,0.4,0.1
			c0,0,0,0,0.1,0c0,0,0,0,0,0c0.1,0,0.3,0,0.4,0.1c0.1,0,0.1,0,0.2,0c0,0,0.1,0,0.1,0c0,0,0.1,0,0.1,0c0.1,0,0.3,0,0.4,0
			c0.1,0,0.1,0,0.2,0c0,0,0.1,0,0.1,0c0,0,0.1,0,0.1,0c0.1,0,0.3,0,0.4,0c0.1,0,0.2,0,0.3,0c0,0,0,0,0,0c0,0,0,0,0,0
			c0.1,0,0.3,0,0.4,0c0.1,0,0.3,0,0.4,0c0,0,0,0,0,0c0,0,0,0,0,0c0.1,0,0.2,0,0.3,0c0.1,0,0.3,0,0.4,0c0.1,0,0.1,0,0.2,0
			c0,0,0,0,0.1,0c0,0,0.1,0,0.1,0c0.1,0,0.2,0,0.3,0c0.1,0,0.2,0,0.3,0c0,0,0.1,0,0.1,0c0,0,0,0,0,0c0,0,0.1,0,0.1,0
			c0.1,0,0.2,0,0.3,0c0.1,0,0.2,0,0.3,0c0.1,0,0.1,0,0.2,0c0,0,0,0,0.1,0c0,0,0,0,0,0c0,0,0.1,0,0.1,0c0.1,0,0.1,0,0.2,0
			c0.1,0,0.1,0,0.2,0c0.1,0,0.1,0,0.2,0c0.1,0,0.1,0,0.2,0c0,0,0.1,0,0.1,0c0,0,0,0,0,0c0,0,0,0,0.1,0c0.1,0,0.1,0,0.2,0
			c0.1,0,0.1,0,0.2,0c0.1,0,0.1,0,0.2,0s0.1,0,0.2,0c0.1,0,0.1,0,0.2,0c0.1,0,0.1,0,0.2,0c0.1,0,0.1,0,0.2,0c0.1,0,0.1,0,0.2,0
			c0.1,0,0.1,0,0.2,0c0.1,0,0.1,0,0.2,0c0.1,0,0.2,0,0.3,0c0,0,0,0,0,0c0,0,0,0,0,0c0.1,0,0.2,0,0.3,0c0.1,0,0.2,0,0.3,0
			c0.3,0,0.5-0.1,0.8-0.1c0.1,0,0.1,0,0.2,0c0.1,0,0.2,0,0.3,0c0.1,0,0.1,0,0.2,0c0,0,0,0,0,0c0,0,0,0,0,0c0.1,0,0.2,0,0.2,0
			c0.1,0,0.1,0,0.2,0c0.1,0,0.1,0,0.2,0c0.1,0,0.1,0,0.2,0c0,0,0.1,0,0.1,0c0,0,0.1,0,0.1,0c0.1,0,0.1,0,0.2,0c0.1,0,0.1,0,0.2,0
			c0.1,0,0.1,0,0.2,0c0.1,0,0.2,0,0.2-0.1c0.1,0,0.2,0,0.3-0.1c0,0,0.1,0,0.1,0c0,0,0,0,0,0c0,0,0.1,0,0.1,0c0.1,0,0.2-0.1,0.3-0.1
			c0.1,0,0.2-0.1,0.3-0.1c0.1,0,0.2-0.1,0.3-0.1c0,0,0,0,0.1,0c0,0,0,0,0.1,0c0.1,0,0.3-0.1,0.4-0.1c0.1,0,0.2-0.1,0.4-0.1
			c0,0,0.1,0,0.1-0.1c0,0,0,0,0.1,0c0,0,0.1,0,0.1,0c0.1,0,0.2-0.1,0.3-0.1c0.1,0,0.2-0.1,0.3-0.1c0,0,0.1,0,0.1-0.1c0,0,0,0,0,0
			c0,0,0.1,0,0.1,0c0.1,0,0.1-0.1,0.2-0.1c0.1,0,0.1-0.1,0.2-0.1c0,0,0.1-0.1,0.1-0.1c0,0,0,0,0,0c0,0,0,0,0,0
			c0.1,0,0.1-0.1,0.2-0.1c0,0,0.1-0.1,0.1-0.1c0,0,0.1-0.1,0.1-0.1c0,0,0,0,0,0c0,0,0,0,0,0c0,0,0.1-0.1,0.1-0.1
			c0,0,0.1-0.1,0.1-0.1c0,0,0.1-0.1,0.1-0.1c0,0,0,0,0,0c0,0,0,0,0,0c0,0,0,0,0-0.1c0,0,0-0.1,0-0.1C61,53.6,61,53.6,61,53.5
			C61,53.5,61,53.5,61,53.5z"/>
	</g>
	<g class="st0">
		<g class="st0">
			<defs>
				<path id="SVGID_5_" class="st0" d="M29.2,77.4l-3.4-1.9c3.2,1.7,7,2.6,11,2.4l3.4,1.9C36.2,80,32.4,79.1,29.2,77.4z"/>
			</defs>
			<clipPath id="SVGID_6_">
				<use xlink:href="#SVGID_5_"  style="overflow:visible;"/>
			</clipPath>
			<g class="st11">
				<path class="st8" d="M29.2,77.4l-3.4-1.9c3.2,1.7,7,2.6,11,2.4l3.4,1.9C36.2,80,32.4,79.1,29.2,77.4"/>
			</g>
		</g>
		<g class="st0">
			<defs>
				<path id="SVGID_7_" class="st0" d="M25.1,85.3l-3.4-1.9C12.9,78.7,7.1,68.9,7.1,56.8c0-18.1,13.2-34.8,29.8-38.1l3.4,1.9
					c-16.6,3.3-29.7,20-29.8,38.1C10.5,70.8,16.3,80.6,25.1,85.3z"/>
			</defs>
			<clipPath id="SVGID_8_">
				<use xlink:href="#SVGID_7_"  style="overflow:visible;"/>
			</clipPath>
			<linearGradient id="SVGID_9_" gradientUnits="userSpaceOnUse" x1="7.0926" y1="51.9946" x2="40.2822" y2="51.9946">
				<stop  offset="0" style="stop-color:#456A0B"/>
				<stop  offset="1" style="stop-color:#84CB16"/>
			</linearGradient>
			<path class="st12" d="M10.5,58.6c0,0,0-0.1,0-0.1c0.1-11.4,5.4-22.3,13.4-29.6c4.7-4.2,10.3-7.2,16.4-8.4l-3.4-1.9
				c-6.1,1.2-11.7,4.2-16.4,8.4C12.4,34.4,7.2,45.2,7.1,56.7c0,0,0,0.1,0,0.1c0,12.1,5.8,21.9,14.6,26.7l3.4,1.9
				C16.3,80.6,10.5,70.8,10.5,58.6z"/>
		</g>
		<g>
			<path class="st13" d="M40.3,20.5l0,7.8C27.9,31,18.1,43.5,18.1,57.1c0,13.6,9.7,23.4,22.1,22.6l0,8.7
				c-16.6,1.3-29.7-11.7-29.6-29.8C10.5,40.5,23.7,23.9,40.3,20.5z"/>
		</g>
	</g>
	<g class="st0">
		<g>
			<path class="st6" d="M47.9,5.6c-3.5,0.7-7.7,0.8-9.5,0.1C36.6,5.1,38,4,41.4,3.3c3.5-0.7,7.7-0.8,9.5-0.1
				C52.7,3.8,51.3,4.9,47.9,5.6z"/>
		</g>
		<linearGradient id="SVGID_10_" gradientUnits="userSpaceOnUse" x1="37.5932" y1="7.2668" x2="52.1401" y2="7.2668">
			<stop  offset="0" style="stop-color:#84CB16"/>
			<stop  offset="0.3197" style="stop-color:#9AD43F"/>
			<stop  offset="0.508" style="stop-color:#ABDC60"/>
			<stop  offset="0.8118" style="stop-color:#87CC1B"/>
			<stop  offset="1" style="stop-color:#456A0B"/>
		</linearGradient>
		<path class="st14" d="M52.1,8.3l-0.4-4.5c0,0.1,0,0.2,0,0.2c0,0,0,0,0,0c0,0.1-0.1,0.2-0.2,0.2c0,0,0,0,0,0
			c-0.1,0.1-0.2,0.2-0.3,0.2c0,0,0,0,0,0c-0.1,0.1-0.3,0.2-0.4,0.2c0,0,0,0,0,0c-0.2,0.1-0.3,0.2-0.5,0.2c0,0,0,0,0,0
			c-0.2,0.1-0.4,0.1-0.6,0.2c0,0,0,0,0,0c-0.2,0.1-0.5,0.1-0.7,0.2c0,0,0,0,0,0c-0.3,0.1-0.6,0.1-0.9,0.2c-0.4,0.1-0.8,0.2-1.3,0.2
			c0,0-0.1,0-0.1,0C46,6,45.6,6,45.2,6.1c0,0,0,0,0,0c-0.5,0-0.9,0.1-1.4,0.1c0,0,0,0,0,0c-0.4,0-0.9,0-1.3,0.1c0,0,0,0,0,0
			c-0.4,0-0.8,0-1.2,0c0,0,0,0,0,0c-0.4,0-0.8,0-1.1-0.1c0,0,0,0,0,0c-0.3,0-0.6-0.1-0.9-0.1c0,0-0.1,0-0.1,0
			c-0.3-0.1-0.5-0.1-0.7-0.2c-0.5-0.2-0.7-0.4-0.8-0.6L38,9.7c0,0.2,0.3,0.5,0.8,0.6c0.2,0.1,0.4,0.1,0.6,0.2c0,0,0.1,0,0.2,0
			c0,0,0.1,0,0.1,0c0,0,0.1,0,0.1,0c0.1,0,0.2,0,0.3,0.1c0.1,0,0.2,0,0.3,0c0,0,0.1,0,0.1,0c0,0,0,0,0,0c0,0,0.1,0,0.1,0
			c0.1,0,0.2,0,0.3,0c0.1,0,0.2,0,0.3,0c0.1,0,0.2,0,0.3,0c0.1,0,0.1,0,0.2,0c0,0,0,0,0,0c0,0,0,0,0,0c0.1,0,0.2,0,0.3,0
			c0.1,0,0.2,0,0.3,0c0.1,0,0.2,0,0.3,0c0.1,0,0.2,0,0.3,0c0,0,0.1,0,0.1,0c0,0,0,0,0,0c0,0,0.1,0,0.1,0c0.1,0,0.2,0,0.2,0
			c0.1,0,0.2,0,0.2,0c0.1,0,0.1,0,0.2,0c0.1,0,0.1,0,0.2,0c0.1,0,0.1,0,0.2,0c0,0,0.1,0,0.1,0c0,0,0,0,0,0c0,0,0,0,0,0
			c0,0,0.1,0,0.1,0c0,0,0.1,0,0.2,0c0,0,0.1,0,0.1,0c0,0,0.1,0,0.1,0c0,0,0.1,0,0.1,0c0,0,0.1,0,0.1,0c0,0,0.1,0,0.1,0
			c0,0,0.1,0,0.1,0c0,0,0.1,0,0.1,0c0,0,0.1,0,0.1,0c0,0,0.1,0,0.1,0c0,0,0.1,0,0.1,0c0,0,0,0,0,0c0,0,0,0,0,0c0,0,0.1,0,0.1,0
			c0,0,0.1,0,0.1,0c0,0,0.1,0,0.1,0c0,0,0.1,0,0.1,0c0,0,0.1,0,0.1,0c0.1,0,0.1,0,0.2,0c0.1,0,0.1,0,0.2,0c0.1,0,0.2,0,0.3,0
			c0,0,0.1,0,0.1,0c0.1,0,0.1,0,0.2,0c0.1,0,0.2,0,0.2,0c0.1,0,0.1,0,0.2,0c0.1,0,0.1,0,0.2,0c0,0,0.1,0,0.1,0c0,0,0.1,0,0.1,0
			c0,0,0.1,0,0.1,0c0,0,0.1,0,0.1,0c0,0,0,0,0,0c0,0,0.1,0,0.1,0c0,0,0.1,0,0.1,0c0,0,0.1,0,0.1,0c0,0,0.1,0,0.1,0
			c0.1,0,0.1,0,0.2,0c0.1,0,0.1,0,0.2,0c0,0,0,0,0,0c0,0,0,0,0,0c0,0,0.1,0,0.1,0c0.1,0,0.2,0,0.2-0.1c0.1,0,0.2,0,0.2-0.1
			c0.1,0,0.1,0,0.2-0.1c0,0,0,0,0,0c0,0,0,0,0.1,0c0.1,0,0.2-0.1,0.3-0.1c0.1,0,0.2-0.1,0.2-0.1c0,0,0.1,0,0.1,0c0,0,0,0,0,0
			c0,0,0.1,0,0.1,0c0.1,0,0.1-0.1,0.2-0.1c0.1,0,0.1-0.1,0.2-0.1c0,0,0,0,0.1,0c0,0,0,0,0,0c0,0,0,0,0.1,0c0,0,0.1-0.1,0.1-0.1
			c0,0,0.1,0,0.1-0.1c0,0,0.1,0,0.1-0.1c0,0,0,0,0,0c0,0,0,0,0,0c0,0,0.1,0,0.1-0.1c0,0,0.1,0,0.1-0.1c0,0,0.1,0,0.1-0.1
			c0,0,0,0,0,0c0,0,0,0,0,0c0,0,0,0,0.1-0.1c0,0,0-0.1,0.1-0.1c0,0,0-0.1,0-0.1c0,0,0,0,0,0c0,0,0,0,0,0c0,0,0,0,0,0
			c0,0,0-0.1,0-0.1C52.1,8.4,52.1,8.3,52.1,8.3C52.1,8.3,52.1,8.3,52.1,8.3z"/>
	</g>
	<g class="st0">
		<g>
			<polygon class="st15" points="79.9,72.8 79.9,76 51.4,80 51.4,76.8 			"/>
		</g>
		<g>
			<polygon class="st9" points="51.4,80 33.9,70.5 33.9,67.2 51.4,76.8 			"/>
		</g>
		<g>
			<linearGradient id="SVGID_11_" gradientUnits="userSpaceOnUse" x1="33.8817" y1="70.0093" x2="79.9199" y2="70.0093">
				<stop  offset="0" style="stop-color:#84CB16"/>
				<stop  offset="0.3197" style="stop-color:#9AD43F"/>
				<stop  offset="0.508" style="stop-color:#ABDC60"/>
				<stop  offset="0.8118" style="stop-color:#87CC1B"/>
				<stop  offset="1" style="stop-color:#456A0B"/>
			</linearGradient>
			<polygon class="st16" points="51.4,76.8 33.9,67.2 62.4,63.2 79.9,72.8 			"/>
		</g>
	</g>
</g>
</svg>
