<?xml version="1.0" encoding="utf-8"?>
<!-- Generator: Adobe Illustrator 25.0.0, SVG Export Plug-In . SVG Version: 6.00 Build 0)  -->
<svg version="1.1" id="Layer_1" xmlns="http://www.w3.org/2000/svg" xmlns:xlink="http://www.w3.org/1999/xlink" x="0px" y="0px"
	 viewBox="0 0 100 100" style="enable-background:new 0 0 100 100;" xml:space="preserve">
<style type="text/css">
	.st0{enable-background:new    ;}
	.st1{fill:#D161E5;}
	.st2{fill:#CD34E8;}
	.st3{clip-path:url(#SVGID_2_);}
	.st4{fill:#E879F9;}
	.st5{fill:#A31CBA;}
</style>
<g>
	<g class="st0">
		<g>
			<polygon class="st1" points="66.4,3.2 83.2,13.7 35.7,17.2 18.9,6.7 			"/>
		</g>
		<g>
			<polygon class="st2" points="83.2,13.7 82.7,93.3 35.2,96.8 35.7,17.2 			"/>
			<g class="st0">
				<defs>
					<polygon id="SVGID_1_" class="st0" points="83.2,13.7 82.7,93.3 35.2,96.8 35.7,17.2 					"/>
				</defs>
				<clipPath id="SVGID_2_">
					<use xlink:href="#SVGID_1_"  style="overflow:visible;"/>
				</clipPath>
				<g class="st3">
					<polyline class="st4" points="47.3,28.6 39.4,29.2 39.1,69.5 47,68.9 47.3,28.6 					"/>
					<polyline class="st4" points="57.7,27.8 49.8,28.4 49.5,68.7 57.4,68.1 57.7,27.8 					"/>
					<polyline class="st4" points="68.8,27 60.9,27.6 60.6,67.9 68.5,67.3 68.8,27 					"/>
					<polyline class="st4" points="79.3,26.3 71.4,26.8 71.1,67.1 79,66.5 79.3,26.3 					"/>
					<polyline class="st4" points="65.7,74.4 51.6,75.4 51.5,95.1 65.6,94 65.7,74.4 					"/>
				</g>
			</g>
		</g>
		<g>
			<polygon class="st5" points="35.7,17.2 35.2,96.8 18.4,86.3 18.9,6.7 			"/>
		</g>
	</g>
</g>
</svg>
