<?xml version="1.0" encoding="utf-8"?>
<!-- Generator: Adobe Illustrator 25.4.1, SVG Export Plug-In . SVG Version: 6.00 Build 0)  -->
<svg version="1.1" id="Layer_1" xmlns="http://www.w3.org/2000/svg" xmlns:xlink="http://www.w3.org/1999/xlink" x="0px" y="0px"
	 viewBox="0 0 100 100" style="enable-background:new 0 0 100 100;" xml:space="preserve">
<style type="text/css">
	.st0{fill:#FFFFFF;}
</style>
<path class="st0" d="M66.4,3.2L18.9,6.7l-0.5,79.6l16.8,10.5l47.5-3.5l0.5-79.6L66.4,3.2z M47,68.9l-7.9,0.6l0.3-40.3l7.9-0.6
	L47,68.9z M49.8,28.4l7.9-0.6l-0.3,40.3l-7.9,0.6L49.8,28.4z M65.6,94l-14.1,1.1l0.1-19.7l14.1-1L65.6,94z M68.5,67.3l-7.9,0.6
	l0.3-40.3l7.9-0.6L68.5,67.3z M79,66.5l-7.9,0.6l0.3-40.3l7.9-0.5L79,66.5z"/>
</svg>
