<?xml version="1.0" encoding="utf-8"?>
<!-- Generator: Adobe Illustrator 25.0.0, SVG Export Plug-In . SVG Version: 6.00 Build 0)  -->
<svg version="1.1" id="Layer_1" xmlns="http://www.w3.org/2000/svg" xmlns:xlink="http://www.w3.org/1999/xlink" x="0px" y="0px"
	 viewBox="0 0 100 100" style="enable-background:new 0 0 100 100;" xml:space="preserve">
<style type="text/css">
	.st0{fill:#84cc16;}
</style>
<path class="st0" d="M0,0v100h21.5c-0.6-0.7-1.1-1.3-1.7-2c-4.6-5.9-7.3-12.5-8.2-20c-0.4,0-0.8,0-1.1,0c-1.6,0.1-3.1-1.3-3-3
	c0-0.4,0-0.7,0-1.1c0-1.7,1.2-2.9,2.9-2.9c0.1,0,0.2,0,0.3,0c8.2,0,16.5,0,24.7,0c0.5,0,1.1,0.1,1.6,0.3c1,0.5,1.6,1.4,1.6,2.5
	c0,0.4,0,0.9,0,1.3c0,1.9-1.6,3-2.9,3c-4.2,0-8.4,0-12.6,0c-0.2,0-0.4,0-0.7,0c0.1,0.5,0.2,1,0.3,1.5c2,9,7.9,16.5,15.9,20.5h27.3
	c2.6-1.3,5.1-3,7.3-5.1c4.8-4.6,7.8-10.2,8.9-16.8c2.7-16.2-7.7-30.8-22.6-34.4c-1.9-0.5-3.8-0.7-5.7-0.8c-0.4,0-0.7,0.1-0.9,0.4
	c-4.3,6-8.7,12-13,18c-1.1,1.5-2.5,1.8-4,0.7c-0.5-0.4-0.9-0.3-1.4-0.1c-1.3,0.7-2.3,1.6-3.2,2.7c-0.6,0.7-1.4,1.2-2.3,1.3
	c-0.6,0.1-1.1-0.1-1.6-0.4c-1.1-0.8-2.1-1.5-3.2-2.3c-0.8-0.5-1-1.3-1-2.2c0-0.7,0.3-1.4,0.7-2c0.8-1.2,1.3-2.5,1.5-4
	c0-0.1,0-0.2,0-0.3c0-0.1,0-0.2,0-0.3c-0.2-0.1-0.4-0.3-0.6-0.4c-0.5-0.4-0.9-0.8-1.1-1.4c-0.3-0.8-0.2-1.6,0.3-2.4
	c1.5-2.1,3-4.2,4.5-6.2C36.1,33.5,43.7,23,51.3,12.4c1-1.4,2.5-1.7,3.9-0.7c0.3,0.2,0.6,0.4,0.9,0.6c0.1,0,0.1-0.1,0.1-0.1
	c0.6-0.8,1.2-1.7,1.9-2.6c-0.2-0.2-0.5-0.3-0.7-0.5c-0.4-0.3-0.6-0.6-0.6-1.1c0-0.7,0.4-1.1,1-1.2c0.5,0,0.9,0.1,1.2,0.4
	c1.5,1.1,3.1,2.2,4.6,3.3c1.9,1.4,3.9,2.8,5.8,4.2c0.3,0.2,0.6,0.5,0.7,0.9c0.2,0.8-0.3,1.5-1.1,1.5c-0.4,0-0.7-0.1-1-0.3
	c-0.2-0.1-0.4-0.3-0.6-0.5c-0.7,0.9-1.3,1.8-2,2.7c0.2,0.2,0.4,0.3,0.6,0.5c0.5,0.4,0.9,0.8,1.2,1.4c0.4,0.9,0.4,1.8-0.2,2.6
	c-1.2,1.7-2.5,3.4-3.7,5.1c-1,1.3-1.9,2.6-2.8,3.9c-0.1,0.1-0.2,0.3-0.3,0.4c10.5,2.3,18.9,7.7,25.2,16.3c4.6,6.3,7,13.4,7.5,21.1
	c0.4,5.8-0.4,11.4-2.4,16.8c-1.8,4.8-4.3,9-7.7,12.8H100V0H0z"/>
</svg>
