<svg id="Layer_1" data-name="Layer 1" xmlns="http://www.w3.org/2000/svg" viewBox="0 0 100 100"><defs><style>.cls-1{fill:#f59e0b;}</style></defs><path class="cls-1" d="M0,0V100H15.55v-.83a1.63,1.63,0,0,1-.06-.45c0-5.41-.23-10.86.23-16.24.56-6.61,6.66-11.79,13.3-11.91,2.27,0,4.54,0,6.81,0A2.23,2.23,0,0,0,37.16,70c1.09-1,2.51-1.93,3.05-3.21s.11-2.93.19-4.41a2,2,0,0,0-.8-1.82,15.05,15.05,0,0,1-3.93-5,1.81,1.81,0,0,0-.93-.84,7.17,7.17,0,0,1-4.68-9.74,1.62,1.62,0,0,0-.16-1.06c-3.79-8.71-2.1-18.37,4.63-24.74C41,13,48.67,11.27,57,14.25s13.07,9.13,14.33,17.9a21.76,21.76,0,0,1-1.82,11.77A1.53,1.53,0,0,0,69.42,45,7.14,7.14,0,0,1,65,54.55a2,2,0,0,0-1.39,1.16,15.69,15.69,0,0,1-4,5.08,1.65,1.65,0,0,0-.53,1.12c-.07,1.43-.05,2.86,0,4.28a1.66,1.66,0,0,0,.42,1c1,1.1,2,2.56,3.27,3.13s3,.14,4.49.24a35.47,35.47,0,0,1,6.55.59A13.73,13.73,0,0,1,84,84.46c0,4.61,0,9.22,0,13.83l0,.38h0V100h16V0Z"/></svg>