<?xml version="1.0" encoding="utf-8"?>
<!-- Generator: Adobe Illustrator 25.4.1, SVG Export Plug-In . SVG Version: 6.00 Build 0)  -->
<svg version="1.1" id="Layer_1" xmlns="http://www.w3.org/2000/svg" xmlns:xlink="http://www.w3.org/1999/xlink" x="0px" y="0px"
	 viewBox="0 0 100 100" style="enable-background:new 0 0 100 100;" xml:space="preserve">
<style type="text/css">
	.st0{fill:#FFFFFF;}
</style>
<path class="st0" d="M78.1,4.6c3.1-0.5,6,0.1,8.4,1.4l-3.9-2.1c-2.4-1.3-5.2-1.9-8.3-1.4l-0.1-0.1L22,9.8C13.4,11,6.4,19.6,6.3,28.9
	v51.9l-0.1-0.1c0,6,2.9,10.9,7.3,13.3l3.1,1.7c2.6,1.7,5.7,2.4,9.1,1.9l52.2-7.3c8.6-1.2,15.7-9.8,15.7-19.1l0.1-51.9
	C93.7,10,86.7,3.4,78.1,4.6z M83.1,15.3c-0.1-0.1-0.2-0.2-0.3-0.3C82.9,15.1,83,15.2,83.1,15.3z M82.5,14.8
	c-0.2-0.1-0.3-0.2-0.5-0.3C82.1,14.5,82.3,14.7,82.5,14.8z M11.7,90c0,0,0-0.1-0.1-0.1C11.6,89.9,11.7,90,11.7,90z M10.7,87.3
	c0-0.2-0.1-0.3-0.1-0.5C10.6,87,10.6,87.1,10.7,87.3z M10.4,85.8c-0.1-0.3-0.1-0.6-0.1-0.9C10.3,85.2,10.3,85.5,10.4,85.8z
	 M10.2,84.3c0-0.4-0.1-0.8-0.1-1.2C10.1,83.5,10.1,83.9,10.2,84.3z M25.6,88.3l-3.7-2c-0.5,0-1,0-1.5,0c-1-1.2-1.7-2.8-1.7-4.7
	l0.1-51.9c0-4.3,3.2-8.1,7.1-8.7l52.2-7.3c0.5-0.1,1.1-0.1,1.6,0c1,1.2,1.6,2.8,1.6,4.6l-0.1,51.9c0,3.9-2.6,7.4-6,8.4c0,0,0,0,0,0
	V68.1c0-5.5-4.5-10-9.9-10h-4.9c4.9-3.7,9.6-9,9.6-14.9c0-11.1-8.9-20-19.9-20s-19.9,9-19.9,20c0,5.9,4.7,11.2,9.7,14.9L34,60.3
	c-5.3,2-8.2,4.4-8.2,9.9V81c-0.1,1.9-0.2,3.4-0.1,4.7l-3.8,0.5l3.9,2.1C25.7,88.3,25.7,88.3,25.6,88.3z M85.1,19.5
	c0,0.3,0.1,0.6,0.1,0.9C85.2,20.1,85.2,19.8,85.1,19.5z M83.5,15.6c0.1,0.1,0.1,0.1,0.2,0.2C83.6,15.8,83.5,15.7,83.5,15.6z
	 M83.9,16.2c0.1,0.1,0.1,0.2,0.2,0.2C84,16.4,84,16.3,83.9,16.2z M84.5,17.3c0,0.1,0.1,0.1,0.1,0.2C84.6,17.4,84.6,17.4,84.5,17.3z
	 M84.8,17.9c0,0.1,0.1,0.3,0.1,0.4C84.9,18.2,84.8,18,84.8,17.9z M85,18.7c0,0.2,0.1,0.3,0.1,0.5C85.1,19,85,18.8,85,18.7z"/>
</svg>
