<?xml version="1.0" encoding="utf-8"?>
<!-- Generator: Adobe Illustrator 25.0.0, SVG Export Plug-In . SVG Version: 6.00 Build 0)  -->
<svg version="1.1" id="Layer_1" xmlns="http://www.w3.org/2000/svg" xmlns:xlink="http://www.w3.org/1999/xlink" x="0px" y="0px"
	 viewBox="0 0 100 100" style="enable-background:new 0 0 100 100;" xml:space="preserve">
<style type="text/css">
	.st0{fill:url(#SVGID_1_);}
	.st1{fill:url(#SVGID_2_);}
	.st2{fill:#724407;}
	.st3{opacity:0.29;fill:#F2D7B3;enable-background:new    ;}
	.st4{opacity:0.2;fill:#FFFFFF;enable-background:new    ;}
</style>
<radialGradient id="SVGID_1_" cx="50.8854" cy="41.6656" r="28.426" gradientTransform="matrix(1 0 0 -1 0 100)" gradientUnits="userSpaceOnUse">
	<stop  offset="9.121559e-02" style="stop-color:#D7A54F"/>
	<stop  offset="0.705" style="stop-color:#B07208"/>
</radialGradient>
<path class="st0" d="M71.6,96.3H31.5c-6.6,0-12-5.4-12-12v-6.1c0-16.7,13.7-30.4,30.4-30.4h3.4c16.7,0,30.4,13.7,30.4,30.4v6.1
	C83.6,90.9,78.2,96.3,71.6,96.3z"/>
<radialGradient id="SVGID_2_" cx="51.3" cy="70.3" r="26.1" gradientTransform="matrix(1 0 0 -1 0 100)" gradientUnits="userSpaceOnUse">
	<stop  offset="1.971771e-02" style="stop-color:#FAD18B"/>
	<stop  offset="0.745" style="stop-color:#B07208"/>
</radialGradient>
<circle class="st1" cx="51.3" cy="29.7" r="26.1"/>
<g>
	<path class="st2" d="M73.6,21H58.3c-3,0-5.4,2.3-5.4,5.2v3.6h-4.7v-3.6c0-2.9-2.4-5.2-5.4-5.2H27.6c-3,0-5.4,2.3-5.4,5.2v7.1
		c0,2.9,2.4,5.2,5.4,5.2h15.3c3,0,5.4-2.3,5.4-5.2v-0.8H53v0.8c0,2.9,2.4,5.2,5.4,5.2h15.3c3,0,5.4-2.3,5.4-5.2v-7.1
		C79,23.3,76.6,21,73.6,21z M46.1,33.3c0,1.7-1.5,3.1-3.3,3.1H27.6c-1.8,0-3.2-1.4-3.2-3.1v-7.1c0-1.7,1.5-3.1,3.2-3.1h15.3
		c1.8,0,3.3,1.4,3.3,3.1v7.1H46.1z M76.8,33.3c0,1.7-1.4,3.1-3.2,3.1H58.3c-1.8,0-3.2-1.4-3.2-3.1v-7.1c0-1.7,1.5-3.1,3.2-3.1h15.3
		c1.8,0,3.2,1.4,3.2,3.1C76.8,26.2,76.8,33.3,76.8,33.3z"/>
	<path class="st3" d="M76.8,26.2v7.1c0,1.7-1.4,3.1-3.2,3.1H58.3c-1.8,0-3.2-1.4-3.2-3.1v-7.1c0-1.7,1.5-3.1,3.2-3.1h15.3
		C75.4,23.1,76.8,24.5,76.8,26.2z"/>
	<path class="st3" d="M46.1,26.2v7.1c0,1.7-1.5,3.1-3.3,3.1H27.6c-1.8,0-3.2-1.4-3.2-3.1v-7.1c0-1.7,1.5-3.1,3.2-3.1h15.3
		C44.6,23.1,46.1,24.5,46.1,26.2z"/>
</g>
<polygon class="st4" points="41.2,23.1 36.6,23.1 27.6,36.4 31.8,36.4 "/>
<polygon class="st4" points="72.8,23.1 68.2,23.1 59.1,36.4 63.4,36.4 "/>
</svg>
