<?xml version="1.0" encoding="utf-8"?>
<!-- Generator: Adobe Illustrator 25.0.0, SVG Export Plug-In . SVG Version: 6.00 Build 0)  -->
<svg version="1.1" id="Layer_1" xmlns="http://www.w3.org/2000/svg" xmlns:xlink="http://www.w3.org/1999/xlink" x="0px" y="0px"
	 viewBox="0 0 100 100" style="enable-background:new 0 0 100 100;" xml:space="preserve">
<style type="text/css">
	.st0{fill:#F9C56D;}
	.st1{enable-background:new    ;}
	.st2{clip-path:url(#SVGID_2_);enable-background:new    ;}
	.st3{fill:#D3810B;}
	.st4{clip-path:url(#SVGID_4_);enable-background:new    ;}
	.st5{clip-path:url(#SVGID_6_);enable-background:new    ;}
	.st6{clip-path:url(#SVGID_8_);enable-background:new    ;}
	.st7{clip-path:url(#SVGID_10_);enable-background:new    ;}
	.st8{fill:url(#SVGID_11_);}
	.st9{clip-path:url(#SVGID_13_);}
</style>
<path class="st0" d="M65.3,58.1h-4.9c4.9-3.7,9.6-9,9.6-14.9c0-11.1-8.9-20-19.9-20s-19.9,9-19.9,20c0,5.9,4.7,11.2,9.7,14.9
	L34,60.3c-5.3,2-8.2,4.4-8.2,9.9V81c-1,14.9,3.7,7.6,9.1,7.6h30.4c5.5,0,9.9-4.5,9.9-10V68.1C75.2,62.6,70.7,58.1,65.3,58.1z"/>
<g>
	<g class="st1">
		<g class="st1">
			<g>
				<defs>
					<path id="SVGID_1_" d="M78,81l-3.9-2.1c3.9-0.6,7.1-4.4,7.1-8.7l3.9,2.1C85.1,76.6,81.9,80.5,78,81z"/>
				</defs>
				<clipPath id="SVGID_2_">
					<use xlink:href="#SVGID_1_"  style="overflow:visible;"/>
				</clipPath>
				<g class="st2">
					<path class="st3" d="M78,81l-3.9-2.1c3.9-0.6,7.1-4.4,7.1-8.7l3.9,2.1C85.1,76.6,81.9,80.5,78,81"/>
				</g>
			</g>
		</g>
		<g>
			<polygon class="st3" points="85.1,72.3 81.2,70.2 81.3,18.3 85.2,20.4 			"/>
		</g>
		<g class="st1">
			<g>
				<defs>
					<path id="SVGID_3_" d="M78,12.3l3.9,2.1c2,1.1,3.3,3.3,3.3,6l-3.9-2.1C81.3,15.6,80,13.4,78,12.3z"/>
				</defs>
				<clipPath id="SVGID_4_">
					<use xlink:href="#SVGID_3_"  style="overflow:visible;"/>
				</clipPath>
				<g class="st4">
					<path class="st3" d="M85.2,20.4l-3.9-2.1c0-2.7-1.3-4.9-3.3-6l3.9,2.1C83.9,15.5,85.2,17.7,85.2,20.4"/>
				</g>
			</g>
		</g>
		<g class="st1">
			<g>
				<defs>
					<path id="SVGID_5_" d="M82.6,3.9L86.5,6c-2.4-1.3-5.3-1.9-8.4-1.4l-3.9-2.1C77.3,2,80.2,2.6,82.6,3.9z"/>
				</defs>
				<clipPath id="SVGID_6_">
					<use xlink:href="#SVGID_5_"  style="overflow:visible;"/>
				</clipPath>
				<g class="st5">
					<path class="st3" d="M78.1,4.6l-3.9-2.1c3.1-0.4,5.9,0.1,8.4,1.4L86.5,6C84.1,4.7,81.2,4.1,78.1,4.6"/>
				</g>
			</g>
		</g>
		<g>
			<polygon class="st3" points="25.8,88.3 21.9,86.2 74.1,78.9 78,81 			"/>
		</g>
		<g class="st1">
			<g>
				<defs>
					<path id="SVGID_7_" d="M22,87.7l-3.9-2.1c1.1,0.6,2.4,0.8,3.8,0.7l3.9,2.1C24.4,88.5,23.1,88.3,22,87.7z"/>
				</defs>
				<clipPath id="SVGID_8_">
					<use xlink:href="#SVGID_7_"  style="overflow:visible;"/>
				</clipPath>
				<g class="st6">
					<path class="st3" d="M22,87.7l-3.9-2.1c1.1,0.6,2.4,0.8,3.8,0.7l3.9,2.1C24.4,88.5,23.1,88.3,22,87.7"/>
				</g>
			</g>
		</g>
		<g class="st1">
			<g>
				<defs>
					<path id="SVGID_9_" d="M17.4,96.1L13.5,94c-4.4-2.4-7.3-7.3-7.3-13.3l3.9,2.1C10.1,88.9,13,93.7,17.4,96.1z"/>
				</defs>
				<clipPath id="SVGID_10_">
					<use xlink:href="#SVGID_9_"  style="overflow:visible;"/>
				</clipPath>
				<g class="st7">
					<path class="st3" d="M17.4,96.1L13.5,94c-4.4-2.4-7.3-7.3-7.3-13.3l3.9,2.1C10.1,88.9,13,93.7,17.4,96.1"/>
				</g>
			</g>
		</g>
		<g>
			<polygon class="st3" points="25.9,11.9 22,9.8 74.2,2.4 78.1,4.6 			"/>
		</g>
		<g>
			<polygon class="st3" points="10.1,82.9 6.3,80.8 6.3,28.9 10.2,31 			"/>
		</g>
		<g>
			
				<linearGradient id="SVGID_11_" gradientUnits="userSpaceOnUse" x1="10.1" y1="50.9" x2="93.7" y2="50.9" gradientTransform="matrix(1 0 0 -1 0 102)">
				<stop  offset="8.073434e-08" style="stop-color:#F9C56D"/>
				<stop  offset="1" style="stop-color:#F59E0B"/>
			</linearGradient>
			<path class="st8" d="M78.1,4.6c8.6-1.2,15.6,5.4,15.6,14.7l-0.1,51.9c0,9.3-7.1,17.9-15.7,19.1l-52.2,7.3
				c-8.6,1.2-15.6-5.4-15.6-14.7L10.2,31c0-9.3,7.1-17.9,15.7-19.1L78.1,4.6z M85.1,72.3l0.1-51.9c0-4.2-3.2-7.2-7.1-6.7L25.9,21
				c-3.9,0.6-7.1,4.4-7.1,8.7l-0.1,51.9c0,4.2,3.2,7.2,7.1,6.7L78,81C81.9,80.5,85.1,76.6,85.1,72.3"/>
		</g>
		<g class="st1">
			<g>
				<defs>
					<path id="SVGID_12_" d="M10.2,31l-3.9-2.1C6.4,19.6,13.4,11,22,9.8l3.9,2.1C17.3,13.1,10.3,21.7,10.2,31z"/>
				</defs>
				<clipPath id="SVGID_13_">
					<use xlink:href="#SVGID_12_"  style="overflow:visible;"/>
				</clipPath>
				<g class="st9">
					<path class="st3" d="M10.2,31l-3.9-2.1C6.4,19.6,13.4,11,22,9.8l3.9,2.1C17.3,13.1,10.3,21.7,10.2,31"/>
				</g>
			</g>
		</g>
	</g>
</g>
</svg>
