<?xml version="1.0" encoding="utf-8"?>
<!-- Generator: Adobe Illustrator 25.0.0, SVG Export Plug-In . SVG Version: 6.00 Build 0)  -->
<svg version="1.1" id="Layer_1" xmlns="http://www.w3.org/2000/svg" xmlns:xlink="http://www.w3.org/1999/xlink" x="0px" y="0px"
	 viewBox="0 0 100 100" style="enable-background:new 0 0 100 100;" xml:space="preserve">
<style type="text/css">
	.st0{enable-background:new    ;}
	.st1{clip-path:url(#SVGID_2_);enable-background:new    ;}
	.st2{fill:#9E2D2D;}
	.st3{fill:#992C2C;}
	.st4{fill:#942A2A;}
	.st5{fill:#8F2929;}
	.st6{fill:#8B2727;}
	.st7{fill:#862626;}
	.st8{fill:#812525;}
	.st9{fill:#7C2323;}
	.st10{fill:#7A2323;}
	.st11{clip-path:url(#SVGID_4_);enable-background:new    ;}
	.st12{clip-path:url(#SVGID_6_);enable-background:new    ;}
	.st13{fill:#A93030;}
	.st14{clip-path:url(#SVGID_8_);enable-background:new    ;}
	.st15{fill:#F73939;}
	.st16{clip-path:url(#SVGID_10_);enable-background:new    ;}
	.st17{clip-path:url(#SVGID_12_);enable-background:new    ;}
	.st18{fill:#9B2C2C;}
	.st19{clip-path:url(#SVGID_14_);enable-background:new    ;}
	.st20{clip-path:url(#SVGID_16_);enable-background:new    ;}
	.st21{clip-path:url(#SVGID_18_);enable-background:new    ;}
	.st22{clip-path:url(#SVGID_20_);enable-background:new    ;}
	.st23{clip-path:url(#SVGID_22_);enable-background:new    ;}
	.st24{clip-path:url(#SVGID_24_);enable-background:new    ;}
	.st25{clip-path:url(#SVGID_26_);enable-background:new    ;}
	.st26{clip-path:url(#SVGID_28_);enable-background:new    ;}
	.st27{clip-path:url(#SVGID_30_);enable-background:new    ;}
	.st28{clip-path:url(#SVGID_32_);enable-background:new    ;}
	.st29{clip-path:url(#SVGID_34_);enable-background:new    ;}
	.st30{fill:#812B2B;}
	.st31{fill:#7D2A2A;}
	.st32{clip-path:url(#SVGID_36_);enable-background:new    ;}
	.st33{clip-path:url(#SVGID_38_);enable-background:new    ;}
	.st34{clip-path:url(#SVGID_40_);enable-background:new    ;}
	.st35{clip-path:url(#SVGID_42_);enable-background:new    ;}
	.st36{clip-path:url(#SVGID_44_);enable-background:new    ;}
</style>
<g>
	<g class="st0">
		<g class="st0">
			<g>
				<defs>
					<path id="SVGID_1_" d="M77.9,71l-3.6-2c2.9-0.4,5.3-3.3,5.3-6.5l3.6,2C83.3,67.7,80.9,70.6,77.9,71z"/>
				</defs>
				<clipPath id="SVGID_2_">
					<use xlink:href="#SVGID_1_"  style="overflow:visible;"/>
				</clipPath>
				<g class="st1">
					<path class="st2" d="M77.9,71l-3.6-2c0.5-0.1,1.1-0.2,1.6-0.5l3.6,2C79,70.8,78.5,70.9,77.9,71"/>
					<path class="st3" d="M79.5,70.5l-3.6-2c0.3-0.1,0.6-0.3,0.9-0.5l3.6,2C80.1,70.2,79.8,70.4,79.5,70.5"/>
					<path class="st4" d="M80.4,70l-3.6-2c0.2-0.2,0.4-0.3,0.6-0.5l3.6,2C80.8,69.7,80.6,69.9,80.4,70"/>
					<path class="st5" d="M81,69.5l-3.6-2c0.2-0.2,0.4-0.4,0.5-0.6l3.6,2C81.4,69.2,81.2,69.4,81,69.5"/>
					<path class="st6" d="M81.5,69l-3.6-2c0.2-0.2,0.3-0.4,0.5-0.6l3.6,2C81.9,68.6,81.7,68.8,81.5,69"/>
					<path class="st7" d="M82,68.4l-3.6-2c0.2-0.2,0.3-0.5,0.4-0.7l3.6,2C82.3,67.9,82.2,68.1,82,68.4"/>
					<path class="st8" d="M82.5,67.7l-3.6-2c0.2-0.3,0.3-0.6,0.4-0.9l3.6,2C82.8,67.1,82.6,67.4,82.5,67.7"/>
					<path class="st9" d="M82.9,66.8l-3.6-2c0.3-0.7,0.4-1.5,0.4-2.3l3.6,2C83.3,65.3,83.1,66,82.9,66.8"/>
				</g>
			</g>
		</g>
		<g>
			<polygon class="st10" points="83.3,64.5 79.6,62.5 79.7,26.9 83.3,28.9 			"/>
		</g>
		<g class="st0">
			<g>
				<defs>
					<path id="SVGID_3_" d="M77.2,22.4l3.6,2c1.5,0.8,2.5,2.5,2.5,4.5l-3.6-2C79.7,24.9,78.7,23.2,77.2,22.4z"/>
				</defs>
				<clipPath id="SVGID_4_">
					<use xlink:href="#SVGID_3_"  style="overflow:visible;"/>
				</clipPath>
				<g class="st11">
					<path class="st9" d="M83.3,28.9l-3.6-2c0-2-1-3.7-2.5-4.5l3.6,2C82.4,25.2,83.4,26.9,83.3,28.9"/>
				</g>
			</g>
		</g>
		<g class="st0">
			<g>
				<defs>
					<path id="SVGID_5_" d="M82.9,11.9l3.6,2C84,12.6,81.1,12,78,12.4l-3.6-2C77.5,10,80.5,10.5,82.9,11.9z"/>
				</defs>
				<clipPath id="SVGID_6_">
					<use xlink:href="#SVGID_5_"  style="overflow:visible;"/>
				</clipPath>
				<g class="st12">
					<path class="st2" d="M78,12.4l-3.6-2c1.9-0.3,3.8-0.2,5.5,0.3l3.6,2C81.8,12.2,80,12.1,78,12.4"/>
					<path class="st3" d="M83.6,12.7l-3.6-2c0.9,0.2,1.7,0.5,2.5,0.9l3.6,2C85.3,13.2,84.4,12.9,83.6,12.7"/>
					<path class="st4" d="M86.1,13.6l-3.6-2c0.2,0.1,0.3,0.2,0.5,0.3l3.6,2C86.4,13.8,86.3,13.7,86.1,13.6"/>
				</g>
			</g>
		</g>
		<g>
			<polygon class="st13" points="27.6,78.1 24,76.1 74.3,69 77.9,71 			"/>
		</g>
		<g class="st0">
			<g>
				<defs>
					<path id="SVGID_7_" d="M24.8,77.6l-3.6-2C22,76,23,76.2,24,76.1l3.6,2C26.6,78.2,25.6,78,24.8,77.6z"/>
				</defs>
				<clipPath id="SVGID_8_">
					<use xlink:href="#SVGID_7_"  style="overflow:visible;"/>
				</clipPath>
				<g class="st14">
					<path class="st4" d="M24.8,77.6l-3.6-2c0.1,0,0.1,0.1,0.2,0.1l3.6,2C24.9,77.6,24.8,77.6,24.8,77.6"/>
					<path class="st3" d="M25,77.7l-3.6-2c0.3,0.1,0.5,0.2,0.8,0.3l3.6,2C25.5,77.9,25.2,77.8,25,77.7"/>
					<path class="st2" d="M25.8,78l-3.6-2c0.6,0.1,1.2,0.2,1.8,0.1l3.6,2C27,78.2,26.4,78.1,25.8,78"/>
				</g>
			</g>
		</g>
		<g>
			<polygon class="st13" points="27.7,19.4 24.1,17.5 74.4,10.4 78,12.4 			"/>
		</g>
		<g>
			<path class="st15" d="M78,12.4c8.8-1.2,16,5.5,16,15V63c0,9.5-7.2,18.3-16.1,19.5l-50.3,7.1c-8.8,1.2-16-5.5-16-15L11.7,39
				c0-9.5,7.2-18.3,16.1-19.5L78,12.4z M83.3,64.5l0.1-35.6c0-3.2-2.4-5.4-5.3-5L27.7,31c-2.9,0.4-5.3,3.3-5.3,6.5l-0.1,35.6
				c0,3.2,2.4,5.4,5.3,5L77.9,71C80.9,70.6,83.3,67.7,83.3,64.5"/>
		</g>
		<g class="st0">
			<path class="st10" d="M11.6,74.6L11.7,39c0-0.6,0-1.2,0.1-1.8c0-0.2,0.1-0.4,0.1-0.6c0-0.4,0.1-0.8,0.2-1.1
				c0-0.2,0.1-0.5,0.2-0.7c0.1-0.3,0.1-0.7,0.2-1c0.1-0.2,0.2-0.5,0.2-0.7c0.1-0.3,0.2-0.6,0.3-0.9c0-0.1,0.1-0.2,0.1-0.4
				c0.2-0.4,0.3-0.8,0.5-1.1c0.1-0.2,0.2-0.3,0.3-0.5c0.2-0.3,0.3-0.7,0.5-1c0.1-0.1,0.1-0.3,0.2-0.4c0.2-0.4,0.5-0.7,0.7-1.1
				c0-0.1,0.1-0.1,0.1-0.2c2.9-4.2,7.4-7.3,12.3-8l-3.6-2c-4.9,0.7-9.3,3.7-12.3,7.9l0,0c0,0,0,0,0,0.1s-0.1,0.1-0.1,0.2
				c-0.2,0.4-0.5,0.7-0.7,1.1c-0.1,0.1-0.1,0.3-0.2,0.4c-0.1,0.1-0.1,0.2-0.2,0.4c-0.1,0.2-0.2,0.4-0.3,0.6s-0.2,0.3-0.3,0.5
				c-0.2,0.4-0.3,0.8-0.5,1.1c0,0.1-0.1,0.2-0.1,0.4c0,0,0,0,0,0.1c-0.1,0.3-0.2,0.6-0.3,0.9c-0.1,0.2-0.2,0.5-0.2,0.7
				c-0.1,0.3-0.2,0.7-0.2,1c-0.1,0.2-0.1,0.5-0.2,0.7c-0.1,0.4-0.1,0.8-0.2,1.1c0,0.2-0.1,0.4-0.1,0.6C8.1,35.8,8,36.4,8,37v35.6
				c0,6.1,3,11.1,7.4,13.6l3.6,2C14.6,85.7,11.6,80.7,11.6,74.6z"/>
			<path class="st6" d="M15.5,27.4l-3.6-2c0.4-0.6,0.9-1.3,1.4-1.8l3.6,2C16.4,26.1,15.9,26.7,15.5,27.4"/>
			<path class="st5" d="M16.9,25.5l-3.6-2c0.5-0.6,1.1-1.1,1.6-1.7l3.6,2C18,24.4,17.4,25,16.9,25.5"/>
			<path class="st4" d="M18.5,23.9l-3.6-2c0.6-0.6,1.3-1.1,1.9-1.5l3.6,2C19.8,22.8,19.2,23.3,18.5,23.9"/>
			<path class="st3" d="M20.5,22.4l-3.6-2c0.8-0.6,1.7-1.1,2.6-1.5l3.6,2C22.2,21.3,21.3,21.8,20.5,22.4"/>
			<path class="st2" d="M23.1,20.8l-3.6-2c1.5-0.7,3-1.2,4.7-1.4l3.6,2C26.1,19.7,24.6,20.2,23.1,20.8"/>
		</g>
	</g>
</g>
<g>
	<g class="st0">
		<g class="st0">
			<g>
				<defs>
					<path id="SVGID_9_" d="M73.2,30.4l0.9,0.5c0,0-0.1,0-0.1,0l-0.9-0.5C73.1,30.4,73.2,30.4,73.2,30.4z"/>
				</defs>
				<clipPath id="SVGID_10_">
					<use xlink:href="#SVGID_9_"  style="overflow:visible;"/>
				</clipPath>
				<g class="st16">
					<path class="st3" d="M73.9,30.9l-0.9-0.5c0,0,0,0,0.1,0L73.9,30.9C74,30.9,74,30.9,73.9,30.9"/>
					<path class="st4" d="M74,30.9l-0.9-0.5c0,0,0,0,0,0L74,30.9C74,30.9,74,30.9,74,30.9"/>
				</g>
			</g>
		</g>
		<g class="st0">
			<g>
				<defs>
					<path id="SVGID_11_" d="M67.6,36.1l-0.9-0.5c-0.2-0.1-0.4-0.4-0.4-0.7l0.9,0.5C67.2,35.7,67.4,35.9,67.6,36.1z"/>
				</defs>
				<clipPath id="SVGID_12_">
					<use xlink:href="#SVGID_11_"  style="overflow:visible;"/>
				</clipPath>
				<g class="st17">
					<path class="st9" d="M67.6,36.1l-0.9-0.5c-0.2-0.1-0.4-0.4-0.4-0.7l0.9,0.5C67.2,35.7,67.4,35.9,67.6,36.1"/>
				</g>
			</g>
		</g>
		<g>
			<polygon class="st18" points="68.3,29 67.5,28.5 73.1,30.4 73.9,30.9 			"/>
		</g>
		<g class="st0">
			<g>
				<defs>
					<path id="SVGID_13_" d="M68,29l-0.9-0.5c0.1,0,0.2,0,0.3,0l0.9,0.5C68.2,29,68.1,28.9,68,29z"/>
				</defs>
				<clipPath id="SVGID_14_">
					<use xlink:href="#SVGID_13_"  style="overflow:visible;"/>
				</clipPath>
				<g class="st19">
					<path class="st2" d="M68,29l-0.9-0.5c0.1,0,0.2,0,0.3,0l0.9,0.5C68.2,28.9,68.1,28.9,68,29"/>
					<path class="st3" d="M68.3,29l-0.9-0.5c0,0,0,0,0,0L68.3,29C68.3,29,68.3,29,68.3,29"/>
				</g>
			</g>
		</g>
		<g>
			<polygon class="st10" points="67.2,35.4 66.4,34.9 66.4,29.4 67.2,29.9 			"/>
		</g>
		<g>
			<path class="st15" d="M68,29c0.1,0,0.2,0,0.3,0l5.6,1.9c0.6,0.2,0.6,1.1,0,1.5L68.3,36c-0.1,0.1-0.2,0.1-0.3,0.1
				c-0.4,0-0.8-0.2-0.8-0.7v-5.5C67.2,29.4,67.6,29,68,29z"/>
		</g>
		<g class="st0">
			<g>
				<defs>
					<path id="SVGID_15_" d="M67.2,29.9l-0.9-0.5c0-0.5,0.4-0.9,0.8-1L68,29C67.6,29,67.2,29.4,67.2,29.9z"/>
				</defs>
				<clipPath id="SVGID_16_">
					<use xlink:href="#SVGID_15_"  style="overflow:visible;"/>
				</clipPath>
				<g class="st20">
					<path class="st9" d="M67.2,29.9l-0.9-0.5c0-0.1,0-0.2,0-0.3l0.9,0.5C67.3,29.7,67.2,29.8,67.2,29.9"/>
					<path class="st8" d="M67.3,29.6l-0.9-0.5c0,0,0-0.1,0-0.1l0.9,0.5C67.3,29.5,67.3,29.5,67.3,29.6"/>
					<path class="st7" d="M67.4,29.4L66.5,29c0,0,0-0.1,0.1-0.1L67.4,29.4C67.4,29.4,67.4,29.4,67.4,29.4"/>
					<path class="st6" d="M67.4,29.3l-0.9-0.5c0,0,0-0.1,0.1-0.1L67.4,29.3C67.5,29.3,67.4,29.3,67.4,29.3"/>
					<path class="st5" d="M67.5,29.2l-0.9-0.5c0,0,0,0,0.1-0.1L67.5,29.2C67.6,29.2,67.5,29.2,67.5,29.2"/>
					<path class="st4" d="M67.6,29.2l-0.9-0.5c0,0,0.1,0,0.1-0.1L67.6,29.2C67.6,29.1,67.6,29.1,67.6,29.2"/>
					<path class="st3" d="M67.7,29.1l-0.9-0.5c0,0,0.1,0,0.1-0.1l0.9,0.5C67.7,29,67.7,29.1,67.7,29.1"/>
					<path class="st2" d="M67.8,29l-0.9-0.5c0.1,0,0.1,0,0.2-0.1L68,29C67.9,29,67.9,29,67.8,29"/>
				</g>
			</g>
		</g>
	</g>
</g>
<g>
	<g class="st0">
		<g class="st0">
			<g>
				<defs>
					<path id="SVGID_17_" d="M73.6,45.3l0.9,0.5c0,0-0.1,0-0.1,0l-0.9-0.5C73.6,45.3,73.6,45.3,73.6,45.3z"/>
				</defs>
				<clipPath id="SVGID_18_">
					<use xlink:href="#SVGID_17_"  style="overflow:visible;"/>
				</clipPath>
				<g class="st21">
					<path class="st3" d="M74.4,45.7l-0.9-0.5c0,0,0,0,0.1,0L74.4,45.7C74.4,45.7,74.4,45.7,74.4,45.7"/>
					<path class="st4" d="M74.5,45.7l-0.9-0.5c0,0,0,0,0,0L74.5,45.7C74.5,45.8,74.5,45.8,74.5,45.7"/>
				</g>
			</g>
		</g>
		<g class="st0">
			<g>
				<defs>
					<path id="SVGID_19_" d="M68,50.9l-0.9-0.5c-0.2-0.1-0.4-0.4-0.4-0.7l0.9,0.5C67.7,50.6,67.8,50.8,68,50.9z"/>
				</defs>
				<clipPath id="SVGID_20_">
					<use xlink:href="#SVGID_19_"  style="overflow:visible;"/>
				</clipPath>
				<g class="st22">
					<path class="st9" d="M68,50.9l-0.9-0.5c-0.2-0.1-0.4-0.4-0.4-0.7l0.9,0.5C67.7,50.6,67.8,50.8,68,50.9"/>
				</g>
			</g>
		</g>
		<g>
			<polygon class="st18" points="68.8,43.8 67.9,43.4 73.5,45.2 74.4,45.7 			"/>
		</g>
		<g class="st0">
			<g>
				<defs>
					<path id="SVGID_21_" d="M68.5,43.8l-0.9-0.5c0.1,0,0.2,0,0.3,0l0.9,0.5C68.7,43.8,68.6,43.8,68.5,43.8z"/>
				</defs>
				<clipPath id="SVGID_22_">
					<use xlink:href="#SVGID_21_"  style="overflow:visible;"/>
				</clipPath>
				<g class="st23">
					<path class="st2" d="M68.5,43.8l-0.9-0.5c0.1,0,0.2,0,0.3,0l0.9,0.5C68.6,43.8,68.5,43.8,68.5,43.8"/>
					<path class="st3" d="M68.7,43.8l-0.9-0.5c0,0,0,0,0,0L68.7,43.8C68.8,43.8,68.7,43.8,68.7,43.8"/>
				</g>
			</g>
		</g>
		<g>
			<polygon class="st10" points="67.7,50.3 66.8,49.8 66.8,44.3 67.7,44.8 			"/>
		</g>
		<g>
			<path class="st15" d="M68.5,43.8c0.1,0,0.2,0,0.3,0l5.6,1.9c0.6,0.2,0.6,1.1,0,1.5l-5.6,3.6c-0.1,0.1-0.2,0.1-0.3,0.1
				c-0.4,0-0.8-0.2-0.8-0.7v-5.5C67.7,44.3,68,43.9,68.5,43.8z"/>
		</g>
		<g class="st0">
			<g>
				<defs>
					<path id="SVGID_23_" d="M67.7,44.8l-0.9-0.5c0-0.5,0.4-0.9,0.8-1l0.9,0.5C68,43.9,67.7,44.3,67.7,44.8z"/>
				</defs>
				<clipPath id="SVGID_24_">
					<use xlink:href="#SVGID_23_"  style="overflow:visible;"/>
				</clipPath>
				<g class="st24">
					<path class="st9" d="M67.7,44.8l-0.9-0.5c0-0.1,0-0.2,0-0.3l0.9,0.5C67.7,44.5,67.7,44.6,67.7,44.8"/>
					<path class="st8" d="M67.7,44.4L66.9,44c0,0,0-0.1,0-0.1l0.9,0.5C67.8,44.3,67.8,44.4,67.7,44.4"/>
					<path class="st7" d="M67.8,44.3l-0.9-0.5c0,0,0-0.1,0.1-0.1L67.8,44.3C67.9,44.2,67.8,44.3,67.8,44.3"/>
					<path class="st6" d="M67.9,44.2L67,43.7c0,0,0-0.1,0.1-0.1L67.9,44.2C67.9,44.1,67.9,44.2,67.9,44.2"/>
					<path class="st5" d="M67.9,44.1l-0.9-0.5c0,0,0,0,0.1-0.1L67.9,44.1C68,44.1,67.9,44.1,67.9,44.1"/>
					<path class="st4" d="M68,44l-0.9-0.5c0,0,0.1,0,0.1-0.1L68,44C68.1,44,68,44,68,44"/>
					<path class="st3" d="M68.1,44l-0.9-0.5c0,0,0.1,0,0.1-0.1l0.9,0.5C68.2,43.9,68.1,43.9,68.1,44"/>
					<path class="st2" d="M68.2,43.9l-0.9-0.5c0.1,0,0.1,0,0.2-0.1l0.9,0.5C68.4,43.8,68.3,43.8,68.2,43.9"/>
				</g>
			</g>
		</g>
	</g>
</g>
<g>
	<g class="st0">
		<g class="st0">
			<g>
				<defs>
					<path id="SVGID_25_" d="M73.5,58.8l0.9,0.5c0,0-0.1,0-0.1,0l-0.9-0.5C73.4,58.8,73.5,58.8,73.5,58.8z"/>
				</defs>
				<clipPath id="SVGID_26_">
					<use xlink:href="#SVGID_25_"  style="overflow:visible;"/>
				</clipPath>
				<g class="st25">
					<path class="st3" d="M74.3,59.2l-0.9-0.5c0,0,0,0,0.1,0L74.3,59.2C74.3,59.2,74.3,59.2,74.3,59.2"/>
					<path class="st4" d="M74.3,59.2l-0.9-0.5c0,0,0,0,0,0L74.3,59.2C74.4,59.3,74.4,59.3,74.3,59.2"/>
				</g>
			</g>
		</g>
		<g class="st0">
			<g>
				<defs>
					<path id="SVGID_27_" d="M67.9,64.4l-0.9-0.5c-0.2-0.1-0.4-0.4-0.4-0.7l0.9,0.5C67.5,64.1,67.7,64.3,67.9,64.4z"/>
				</defs>
				<clipPath id="SVGID_28_">
					<use xlink:href="#SVGID_27_"  style="overflow:visible;"/>
				</clipPath>
				<g class="st26">
					<path class="st9" d="M67.9,64.4l-0.9-0.5c-0.2-0.1-0.4-0.4-0.4-0.7l0.9,0.5C67.5,64.1,67.7,64.3,67.9,64.4"/>
				</g>
			</g>
		</g>
		<g>
			<polygon class="st18" points="68.7,57.3 67.8,56.9 73.4,58.7 74.3,59.2 			"/>
		</g>
		<g class="st0">
			<g>
				<defs>
					<path id="SVGID_29_" d="M68.3,57.3l-0.9-0.5c0.1,0,0.2,0,0.3,0l0.9,0.5C68.5,57.3,68.4,57.3,68.3,57.3z"/>
				</defs>
				<clipPath id="SVGID_30_">
					<use xlink:href="#SVGID_29_"  style="overflow:visible;"/>
				</clipPath>
				<g class="st27">
					<path class="st2" d="M68.3,57.3l-0.9-0.5c0.1,0,0.2,0,0.3,0l0.9,0.5C68.5,57.3,68.4,57.3,68.3,57.3"/>
					<path class="st3" d="M68.6,57.3l-0.9-0.5c0,0,0,0,0,0L68.6,57.3C68.6,57.3,68.6,57.3,68.6,57.3"/>
				</g>
			</g>
		</g>
		<g>
			<polygon class="st10" points="67.5,63.8 66.7,63.3 66.7,57.8 67.6,58.3 			"/>
		</g>
		<g>
			<path class="st15" d="M68.3,57.3c0.1,0,0.2,0,0.3,0l5.6,1.9c0.6,0.2,0.6,1.1,0,1.5l-5.6,3.6c-0.1,0.1-0.2,0.1-0.3,0.1
				c-0.4,0-0.8-0.2-0.8-0.7v-5.5C67.6,57.8,67.9,57.4,68.3,57.3z"/>
		</g>
		<g class="st0">
			<g>
				<defs>
					<path id="SVGID_31_" d="M67.6,58.3l-0.9-0.5c0-0.5,0.4-0.9,0.8-1l0.9,0.5C67.9,57.4,67.6,57.8,67.6,58.3z"/>
				</defs>
				<clipPath id="SVGID_32_">
					<use xlink:href="#SVGID_31_"  style="overflow:visible;"/>
				</clipPath>
				<g class="st28">
					<path class="st9" d="M67.6,58.3l-0.9-0.5c0-0.1,0-0.2,0-0.3l0.9,0.5C67.6,58,67.6,58.1,67.6,58.3"/>
					<path class="st8" d="M67.6,57.9l-0.9-0.5c0,0,0-0.1,0-0.1l0.9,0.5C67.7,57.8,67.6,57.9,67.6,57.9"/>
					<path class="st7" d="M67.7,57.8l-0.9-0.5c0,0,0-0.1,0.1-0.1L67.7,57.8C67.7,57.7,67.7,57.8,67.7,57.8"/>
					<path class="st6" d="M67.7,57.7l-0.9-0.5c0,0,0-0.1,0.1-0.1L67.7,57.7C67.8,57.6,67.8,57.7,67.7,57.7"/>
					<path class="st5" d="M67.8,57.6l-0.9-0.5c0,0,0,0,0.1-0.1L67.8,57.6C67.9,57.6,67.8,57.6,67.8,57.6"/>
					<path class="st4" d="M67.9,57.5L67,57.1c0,0,0.1,0,0.1-0.1L67.9,57.5C67.9,57.5,67.9,57.5,67.9,57.5"/>
					<path class="st3" d="M68,57.5L67.1,57c0,0,0.1,0,0.1-0.1l0.9,0.5C68.1,57.4,68,57.4,68,57.5"/>
					<path class="st2" d="M68.1,57.4l-0.9-0.5c0.1,0,0.1,0,0.2-0.1l0.9,0.5C68.3,57.3,68.2,57.3,68.1,57.4"/>
				</g>
			</g>
		</g>
	</g>
</g>
<g>
	<g class="st0">
		<g class="st0">
			<defs>
				<path id="SVGID_33_" class="st0" d="M61.8,30.6l1.4,0.7c-0.4-0.2-1-0.3-1.5-0.3l-1.4-0.7C60.8,30.2,61.4,30.3,61.8,30.6z"/>
			</defs>
			<clipPath id="SVGID_34_">
				<use xlink:href="#SVGID_33_"  style="overflow:visible;"/>
			</clipPath>
			<g class="st29">
				<path class="st30" d="M61.6,31l-1.4-0.7c0.6-0.1,1.1,0,1.5,0.3l1.4,0.7C62.7,31.1,62.2,31,61.6,31"/>
			</g>
		</g>
		<g>
			<polygon class="st31" points="29.4,35.6 28,34.8 60.3,30.3 61.6,31 			"/>
		</g>
		<g class="st0">
			<defs>
				<path id="SVGID_35_" class="st0" d="M27.8,41.6l-1.4-0.7c-0.8-0.4-1.4-1.3-1.4-2.4c0-1.7,1.3-3.3,2.9-3.5l1.4,0.7
					c-1.6,0.2-2.9,1.8-2.9,3.5C26.5,40.2,27,41.1,27.8,41.6z"/>
			</defs>
			<clipPath id="SVGID_36_">
				<use xlink:href="#SVGID_35_"  style="overflow:visible;"/>
			</clipPath>
			<g class="st32">
				<path class="st30" d="M27.8,41.6l-1.4-0.7c-0.8-0.4-1.4-1.3-1.4-2.4c0-1.7,1.3-3.3,2.9-3.5l1.4,0.7c-1.6,0.2-2.9,1.8-2.9,3.5
					C26.5,40.2,27,41.1,27.8,41.6"/>
			</g>
		</g>
		<g>
			<path class="st15" d="M61.6,31c1.6-0.2,2.9,1,2.9,2.7c0,1.7-1.3,3.3-2.9,3.5l-32.3,4.5c-1.6,0.2-2.9-1-2.9-2.7
				c0-1.7,1.3-3.3,2.9-3.5L61.6,31z"/>
		</g>
	</g>
</g>
<g>
	<g class="st0">
		<g class="st0">
			<defs>
				<path id="SVGID_37_" class="st0" d="M61.8,44.9l1.4,0.7c-0.4-0.2-1-0.3-1.5-0.3l-1.4-0.7C60.8,44.5,61.4,44.6,61.8,44.9z"/>
			</defs>
			<clipPath id="SVGID_38_">
				<use xlink:href="#SVGID_37_"  style="overflow:visible;"/>
			</clipPath>
			<g class="st33">
				<path class="st30" d="M61.6,45.3l-1.4-0.7c0.6-0.1,1.1,0,1.5,0.3l1.4,0.7C62.7,45.4,62.2,45.3,61.6,45.3"/>
			</g>
		</g>
		<g>
			<polygon class="st31" points="29.4,49.9 28,49.1 60.3,44.6 61.6,45.3 			"/>
		</g>
		<g class="st0">
			<defs>
				<path id="SVGID_39_" class="st0" d="M27.8,55.8l-1.4-0.7c-0.8-0.4-1.4-1.3-1.4-2.4c0-1.7,1.3-3.3,2.9-3.5l1.4,0.7
					c-1.6,0.2-2.9,1.8-2.9,3.5C26.5,54.5,27,55.4,27.8,55.8z"/>
			</defs>
			<clipPath id="SVGID_40_">
				<use xlink:href="#SVGID_39_"  style="overflow:visible;"/>
			</clipPath>
			<g class="st34">
				<path class="st30" d="M27.8,55.8l-1.4-0.7c-0.8-0.4-1.4-1.3-1.4-2.4c0-1.7,1.3-3.3,2.9-3.5l1.4,0.7c-1.6,0.2-2.9,1.8-2.9,3.5
					C26.5,54.5,27,55.4,27.8,55.8"/>
			</g>
		</g>
		<g>
			<path class="st15" d="M61.6,45.3c1.6-0.2,2.9,1,2.9,2.7s-1.3,3.3-2.9,3.5l-32.3,4.5c-1.6,0.2-2.9-1-2.9-2.7
				c0-1.7,1.3-3.3,2.9-3.5L61.6,45.3z"/>
		</g>
	</g>
</g>
<g>
	<g class="st0">
		<g class="st0">
			<defs>
				<path id="SVGID_41_" class="st0" d="M62.5,57.8l1.4,0.7c-0.4-0.2-1-0.3-1.5-0.3L61,57.5C61.5,57.4,62.1,57.5,62.5,57.8z"/>
			</defs>
			<clipPath id="SVGID_42_">
				<use xlink:href="#SVGID_41_"  style="overflow:visible;"/>
			</clipPath>
			<g class="st35">
				<path class="st30" d="M62.3,58.3L61,57.5c0.6-0.1,1.1,0,1.5,0.3l1.4,0.7C63.4,58.3,62.9,58.2,62.3,58.3"/>
			</g>
		</g>
		<g>
			<polygon class="st31" points="30,62.8 28.7,62.1 61,57.5 62.3,58.3 			"/>
		</g>
		<g class="st0">
			<defs>
				<path id="SVGID_43_" class="st0" d="M28.5,68.8L27.1,68c-0.8-0.4-1.4-1.3-1.4-2.4c0-1.7,1.3-3.3,2.9-3.5l1.4,0.7
					c-1.6,0.2-2.9,1.8-2.9,3.5C27.1,67.4,27.7,68.3,28.5,68.8z"/>
			</defs>
			<clipPath id="SVGID_44_">
				<use xlink:href="#SVGID_43_"  style="overflow:visible;"/>
			</clipPath>
			<g class="st36">
				<path class="st30" d="M28.5,68.8L27.1,68c-0.8-0.4-1.4-1.3-1.4-2.4c0-1.7,1.3-3.3,2.9-3.5l1.4,0.7c-1.6,0.2-2.9,1.8-2.9,3.5
					C27.1,67.4,27.7,68.3,28.5,68.8"/>
			</g>
		</g>
		<g>
			<path class="st15" d="M62.3,58.3c1.6-0.2,2.9,1,2.9,2.7s-1.3,3.3-2.9,3.5L30,69c-1.6,0.2-2.9-1-2.9-2.7c0-1.7,1.3-3.3,2.9-3.5
				L62.3,58.3z"/>
		</g>
	</g>
</g>
</svg>
