<?xml version="1.0" encoding="utf-8"?>
<!-- Generator: Adobe Illustrator 25.4.1, SVG Export Plug-In . SVG Version: 6.00 Build 0)  -->
<svg version="1.1" id="Layer_1" xmlns="http://www.w3.org/2000/svg" xmlns:xlink="http://www.w3.org/1999/xlink" x="0px" y="0px"
	 viewBox="0 0 100 100" style="enable-background:new 0 0 100 100;" xml:space="preserve">
<style type="text/css">
	.st0{fill:#FFFFFF;}
</style>
<g>
	<path class="st0" d="M77.5,60.7L75,59.3c-0.1-0.1-0.3-0.1-0.4-0.2l0.3,0.2c-0.1,0-0.1-0.1-0.2-0.1L77.5,60.7c0,0,0,0,0.2,0.1
		C77.6,60.7,77.6,60.7,77.5,60.7z"/>
	<path class="st0" d="M75,59.2C75,59.2,75,59.3,75,59.2l2.6,1.5L75,59.2z"/>
	<path class="st0" d="M74.9,59.2L74.9,59.2C74.9,59.2,74.9,59.2,74.9,59.2z"/>
	<path class="st0" d="M56.1,57.6l-2.8-1.5v17.5l0.1,0.1c0,1,0.4,1.6,1.1,2l2.7,1.5c-0.7-0.4-1.2-1.1-1.1-2.1L56,75L56.1,57.6z"/>
	<path class="st0" d="M77.4,60.7l-2.8-1.5l-17.5-5.9l-0.2-0.1c-0.1-0.1-0.1-0.1-0.2-0.1l0.2,0.1c-0.2-0.1-0.5-0.1-0.7-0.1
		c-0.1,0-0.2,0-0.2,0c0,0,0,0-0.1,0l0,0c-0.2,0-0.5,0.1-0.7,0.2l0.1,0c-0.2,0.1-0.3,0.2-0.5,0.3c-0.1,0-0.2,0.1-0.3,0.2l0,0
		c0,0,0,0,0,0l-0.1,0c0,0-0.1,0.1-0.2,0.2l0.1,0c0,0,0,0,0,0l-0.1,0c0,0.1-0.1,0.2-0.2,0.3l0.1,0c-0.1,0.1-0.2,0.2-0.2,0.4l0,0
		c0,0.1-0.1,0.2-0.2,0.4l0.1,0c0,0,0,0,0,0c-0.1,0.3-0.2,0.6-0.2,0.9l2.7,1.5v17.5c0,1.5,1.1,2.5,2.4,2.3c0.4,0,0.7-0.2,1.1-0.4
		l17.9-11.4C79.4,64.3,79.4,61.4,77.4,60.7z M58.8,54.6c-0.1,0-0.2,0-0.2,0C58.7,54.6,58.8,54.6,58.8,54.6z"/>
	<path class="st0" d="M61.3,6.9L61,6.7C61.2,6.8,61.2,6.9,61.3,6.9z"/>
	<path class="st0" d="M62.4,7.5L64,8.4c-0.1-0.1-0.2-0.2-0.3-0.2L62.4,7.5z"/>
	<path class="st0" d="M61.3,6.9l1.1,0.6L61.3,6.9C61.4,6.9,61.4,6.9,61.3,6.9z"/>
	<path class="st0" d="M74.2,21.7l-0.3-0.2C74.1,21.6,74.1,21.7,74.2,21.7z"/>
	<path class="st0" d="M90,36.9c0.2,0.1,0.3,0.1,0.5,0.2l-0.8-0.4c0.2,0.1,0.4,0.2,0.6,0.2c0.1,0.1,0.2,0.2,0.4,0.2L88,35.6
		c0,0,0,0-0.1,0l-0.3-0.2c-0.6-0.3-1.2-0.5-1.9-0.7l0.2,0.1c-0.1,0-0.1,0-0.2-0.1l-0.1-0.1c-0.9-0.3-1.9-0.4-2.9-0.3v-0.9
		c0-4.7-2.4-8.5-5.8-10.3c0,0,0.1,0,0.1,0l-2.7-1.5c0,0,0,0-0.1,0l2.4,1.3c0.1,0.1,0.2,0.1,0.2,0.2c-0.3-0.1-0.5-0.3-0.8-0.4
		l-2.1-1.2c-0.1-0.1-0.2-0.1-0.3-0.1c-0.4-0.2-0.9-0.4-1.3-0.5L72,20.8c-0.7-0.2-1.5-0.3-2.3-0.3v-1.8c0-5.4-3.1-9.6-7.4-11
		c0.6,0.2,1.2,0.4,1.7,0.7l-1.1-0.6l-2-1.1c-0.1,0-0.2-0.1-0.3-0.1c-1-0.5-2.1-0.8-3.3-0.9c-0.8-0.1-1.6,0-2.3,0.1l-0.1-0.1
		l-37.9,5.4L16.8,11c0,0,0,0-0.1,0l0,0c-2.6,0.4-5,1.6-7,3.4l0,0c0,0-0.1,0.1-0.1,0.1c-0.8,0.7-1.5,1.6-2.2,2.5c0,0,0,0,0,0.1
		c0,0.1-0.1,0.1-0.1,0.2c-0.2,0.3-0.4,0.5-0.5,0.8c-0.1,0.1-0.1,0.2-0.2,0.3c-0.1,0.1-0.1,0.2-0.2,0.3c-0.1,0.2-0.2,0.3-0.2,0.5
		C6.1,19.4,6,19.4,6,19.6c-0.2,0.3-0.2,0.6-0.4,0.8c0,0.1-0.1,0.2-0.1,0.3c0,0,0,0,0,0.1c-0.1,0.2-0.2,0.5-0.2,0.7
		c-0.1,0.2-0.2,0.4-0.2,0.5c0,0.3-0.1,0.6-0.1,0.8c-0.1,0.2-0.1,0.4-0.2,0.5c-0.1,0.3-0.1,0.6-0.2,0.8c0,0.2-0.1,0.3-0.1,0.5
		c-0.1,0.4-0.2,0.8-0.2,1.3v27c0,4.6,2.3,8.4,5.6,10.3l2.7,1.5C9.5,62.8,7.2,59,7.2,54.4l0.1-27c0-0.5,0-0.9,0.1-1.4
		c0-0.2,0.1-0.3,0.1-0.5c0-0.2,0.1-0.5,0.1-0.7c-0.2,0.9-0.2,1.8-0.2,2.7l-0.1,27c0,6.3,4.3,11.1,9.8,11.5v1.9
		c0,4.6,2.3,8.4,5.6,10.3l2.7,1.5c-3-2-5.3-5.8-5.3-10.4l0-3.5l0.2,0l0,3.5c0,6.7,4.8,11.6,10.8,11.5v0.8c0,4.6,2.3,8.4,5.6,10.3
		l2.1,1.2c2,1.3,4.4,1.9,7.1,1.5L84,89.2c6.7-0.9,12.2-7.6,12.2-14.8v-27C96.2,42.5,93.7,38.6,90,36.9z M85.3,74L85.3,74
		c0.1,1.3-0.4,2.4-1.2,3.3l0,0c0,0.1-0.1,0.1-0.1,0.2c-0.2,0.3-0.5,0.5-0.8,0.7c-0.2,0.1-0.4,0.2-0.6,0.3l0,0l0,0l0,0
		c-0.4,0.2-0.8,0.3-1.2,0.4l2.7,1.5c0,0,0,0,0,0l-2.8-1.5l-38.1,5.4c-0.2,0-0.4,0-0.6,0c-0.4-0.6-0.7-1.4-0.7-2.3L42,55
		c0-2.4,1.8-4.6,4-4.9l38.2-5.4c0.2,0,0.3,0,0.5,0c0.4,0.6,0.7,1.4,0.7,2.3L85.3,74z M33.8,83.1C33.8,83.1,33.8,83.1,33.8,83.1
		l0-2.6l0,0L33.8,83.1z M17.1,55.8L17.1,55.8l-0.4-0.2c0,0-0.1,0-0.1,0l0,0c-0.2,0-0.3,0-0.5,0c-0.4-0.6-0.7-1.4-0.7-2.3l0.1-27
		c0-2.4,1.8-4.6,4-4.9L57.6,16c0.2,0,0.3,0,0.5,0c0.4,0.6,0.7,1.4,0.7,2.3v3.6l-29,4.1l-0.1-0.1c-1.3,0.2-2.5,0.6-3.6,1.1l0.1,0
		c-1.2,0.6-2.4,1.3-3.4,2.3l0,0c-0.1,0.1-0.1,0.1-0.2,0.2c-0.8,0.8-1.6,1.6-2.2,2.5c0,0,0,0,0,0.1c0,0.1-0.1,0.1-0.1,0.2
		c-0.2,0.3-0.4,0.5-0.5,0.8c-0.1,0.1-0.1,0.2-0.2,0.3c-0.1,0.1-0.1,0.2-0.2,0.3c-0.1,0.2-0.2,0.3-0.2,0.5c-0.1,0.2-0.2,0.2-0.2,0.4
		c-0.2,0.3-0.2,0.6-0.4,0.8c0,0.1-0.1,0.2-0.1,0.3c0,0,0,0,0,0.1c-0.1,0.2-0.2,0.5-0.2,0.7C18.1,36.7,18,36.9,18,37
		c-0.1,0.2-0.2,0.5-0.2,0.8c-0.1,0.2-0.1,0.4-0.2,0.5c-0.1,0.3-0.1,0.6-0.2,0.8c0,0.2-0.1,0.3-0.1,0.5c-0.1,0.4-0.2,0.8-0.2,1.3
		v14.5l-0.5,0.1L17.1,55.8z M74.6,35.5L74.6,35.5l0-0.9l-0.1-0.1c0.1-1.5-0.7-2.8-1.9-3.3l-0.5-0.3c1.5,0.4,2.5,1.9,2.5,3.7V35.5z
		 M74.6,37.4L74.6,37.4L74.6,37.4L74.6,37.4L74.6,37.4z M42.5,42.5L42.5,42.5c0.3-0.2,0.6-0.3,0.9-0.4c0.9-0.3,1.7-0.6,2.6-0.7l0,0
		l25.7-3.6v0l-25.7,3.7C44.9,41.6,43.7,41.9,42.5,42.5z M33.9,56.2l-0.1,13.5h0l0.1-13.6c0-0.4,0-0.7,0.1-1
		C33.9,55.4,33.9,55.8,33.9,56.2z M70.4,22.1L70.4,22.1l-0.7,0.1v0L70.4,22.1z M61.5,19.7c0-0.7-0.1-1.2-0.3-1.7
		C61.4,18.5,61.6,19.1,61.5,19.7L61.5,19.7z M60.4,16.9c-0.1-0.1-0.2-0.2-0.3-0.3c0.2,0.2,0.5,0.4,0.7,0.6
		C60.6,17.1,60.5,17,60.4,16.9z M60.8,17.4c0.1,0.1,0.1,0.1,0.1,0.2C60.9,17.5,60.9,17.4,60.8,17.4z M59.8,16.4
		c0.1,0,0.1,0.1,0.2,0.1C59.9,16.5,59.8,16.4,59.8,16.4z M59.7,7.2c-0.2,0-0.4,0-0.6,0C59.3,7.2,59.5,7.2,59.7,7.2z M60.1,7.3
		c0.3,0,0.6,0.1,0.9,0.1C60.7,7.3,60.4,7.3,60.1,7.3z M20.2,42.3c0-0.5,0-0.9,0.1-1.4c0-0.2,0.1-0.3,0.1-0.5c0-0.3,0.1-0.6,0.2-0.8
		c0-0.2,0.1-0.3,0.2-0.4c-0.2,1-0.4,2.1-0.4,3.1l0,12.6l-0.2,0L20.2,42.3z M26.1,30.4c0.1-0.1,0.2-0.1,0.3-0.2
		C26.3,30.3,26.2,30.3,26.1,30.4z M30.9,27.8c0.1,0,0.3-0.1,0.4-0.1c0.4-0.1,0.8-0.2,1.3-0.3l-0.1,0l26.3-3.6v0.1l-26.2,3.7
		c-1.6,0.2-3.1,0.8-4.5,1.6C29,28.5,29.9,28.1,30.9,27.8z M27.7,29.3c-0.2,0.1-0.4,0.3-0.6,0.4C27.3,29.5,27.5,29.4,27.7,29.3z
		 M28.4,41.1c0-2.4,1.8-4.6,4-4.9l38.2-5.4c0.2,0,0.3,0,0.5,0c0.4,0.6,0.7,1.4,0.7,2.3v2.8l-28,4l-0.2-0.1c-1.3,0.2-2.6,0.6-3.8,1.2
		c0,0,0,0,0,0l0,0c-0.7,0.4-1.4,0.8-2,1.3l-0.1-0.1c-0.4,0.3-0.9,0.6-1.3,1l-0.1,0c-0.4,0.5-0.8,0.8-1.2,1.3
		c-0.4,0.4-0.8,0.9-1.1,1.4l0.2,0.1c0,0,0,0,0,0.1c-0.2,0.3-0.4,0.5-0.5,0.8c-0.1,0.1-0.1,0.2-0.2,0.3c-0.1,0.1-0.1,0.2-0.2,0.3
		c-0.1,0.2-0.2,0.3-0.2,0.5c-0.1,0.2-0.2,0.2-0.2,0.4c-0.2,0.3-0.2,0.6-0.4,0.8c0,0.1-0.1,0.2-0.1,0.3c0,0,0,0,0,0.1
		c-0.1,0.2-0.2,0.5-0.2,0.7c-0.1,0.2-0.2,0.4-0.2,0.5c-0.1,0.2-0.2,0.5-0.2,0.8c-0.1,0.2-0.1,0.4-0.2,0.5c-0.1,0.3-0.1,0.6-0.2,0.8
		c0,0.2-0.1,0.3-0.1,0.5c-0.1,0.4-0.2,0.8-0.2,1.3v15.6l-1.6,0.2l1.6,0.9v0l-1.6-0.9c-0.2,0-0.3,0-0.5,0c-0.4-0.6-0.7-1.4-0.7-2.3
		L28.4,41.1z M42.1,42.7C42.2,42.6,42.2,42.6,42.1,42.7c0,0-0.2,0.1-0.3,0.2C42,42.8,42,42.7,42.1,42.7z M82.7,36.2L82.7,36.2
		l1.4-0.2c0.3,0,0.7-0.1,1-0.1c-0.3,0-0.7,0-1,0.1L82.7,36.2z M86.1,35.9c-0.2,0-0.4,0-0.5,0C85.8,35.9,86,35.9,86.1,35.9z
		 M89.8,36.8c-0.3-0.1-0.5-0.2-0.8-0.3C89.3,36.5,89.5,36.7,89.8,36.8z M88.4,36.3c-0.1,0-0.3-0.1-0.4-0.1
		C88.2,36.2,88.3,36.3,88.4,36.3z M87.5,36.1c-0.1,0-0.2,0-0.3,0C87.2,36,87.4,36,87.5,36.1z M61.3,7.4c0.3,0.1,0.6,0.1,0.9,0.2
		C61.9,7.6,61.6,7.5,61.3,7.4z M8,23.3c0-0.1,0-0.2,0-0.4c0.1-0.2,0.2-0.5,0.2-0.7c0-0.1,0.1-0.2,0.1-0.3c0.2-0.3,0.2-0.6,0.4-0.8
		c0.1-0.2,0.2-0.2,0.2-0.4c0.2-0.2,0.2-0.5,0.4-0.8c0.1-0.1,0.1-0.2,0.2-0.3c0.2-0.3,0.4-0.5,0.5-0.8c0-0.1,0.1-0.1,0.1-0.2
		c0,0,0,0,0,0l0.1,0c0.3-0.5,0.6-1,1.1-1.4l-0.1,0c0,0,0,0,0,0c0.3-0.3,0.6-0.6,0.9-0.9c0.1-0.1,0.2-0.2,0.3-0.2l0,0
		c0.6-0.5,1-0.9,1.4-1.1l0,0c0,0,0.1-0.1,0.1-0.1l0,0c0.7-0.4,1.3-0.8,2-1.1l-0.1,0c0.1,0,0.2-0.1,0.3-0.1c1.1-0.4,2.1-0.7,3.2-1
		l0.1,0.1l38.1-5.3c0,0,0.1,0,0.1,0l0,0c0.3,0,0.7-0.1,1-0.1c-0.3,0-0.7,0-1,0.1l-38,5.4C14.2,13.4,9.7,17.8,8,23.3z M20.1,57l0-0.1
		l0.2,0l0,0.1L20.1,57z M43.5,85.2l0.3,0.2c0,0,0,0,0.1,0l0.1,0.1c0.1,0.1,0.3,0.1,0.5,0.2l-0.1-0.1c0.1,0,0.1,0,0.2,0.1l0,0
		c0.1,0,0.1,0,0.2,0c0,0,0,0,0.1,0c0.1,0,0.3,0,0.4,0.1C44.6,85.8,44,85.6,43.5,85.2z M88.1,75.5L88.1,75.5v-27
		c0.1-1.5-0.6-2.8-1.9-3.4l-0.5-0.3c1.5,0.4,2.5,1.9,2.5,3.7L88.1,75.5z"/>
</g>
</svg>
