<?xml version="1.0" encoding="utf-8"?>
<!-- Generator: Adobe Illustrator 25.0.0, SVG Export Plug-In . SVG Version: 6.00 Build 0)  -->
<svg version="1.1" id="Layer_1" xmlns="http://www.w3.org/2000/svg" xmlns:xlink="http://www.w3.org/1999/xlink" x="0px" y="0px"
	 viewBox="0 0 100 100" style="enable-background:new 0 0 100 100;" xml:space="preserve">
<style type="text/css">
	.st0{enable-background:new    ;}
	.st1{clip-path:url(#SVGID_2_);enable-background:new    ;}
	.st2{fill:#992C2C;}
	.st3{fill:#942A2A;}
	.st4{clip-path:url(#SVGID_4_);enable-background:new    ;}
	.st5{fill:#7C2323;}
	.st6{fill:#9B2C2C;}
	.st7{clip-path:url(#SVGID_6_);enable-background:new    ;}
	.st8{fill:#9E2D2D;}
	.st9{fill:#7A2323;}
	.st10{fill:#F95353;}
	.st11{clip-path:url(#SVGID_8_);enable-background:new    ;}
	.st12{fill:#812525;}
	.st13{fill:#862626;}
	.st14{fill:#8B2727;}
	.st15{fill:#8F2929;}
	.st16{clip-path:url(#SVGID_10_);enable-background:new    ;}
	.st17{clip-path:url(#SVGID_12_);enable-background:new    ;}
	.st18{clip-path:url(#SVGID_14_);enable-background:new    ;}
	.st19{fill:#A93030;}
	.st20{fill:#F73939;}
	.st21{clip-path:url(#SVGID_16_);enable-background:new    ;}
	.st22{clip-path:url(#SVGID_18_);enable-background:new    ;}
	.st23{clip-path:url(#SVGID_20_);enable-background:new    ;}
	.st24{clip-path:url(#SVGID_22_);enable-background:new    ;}
	.st25{clip-path:url(#SVGID_24_);enable-background:new    ;}
	.st26{clip-path:url(#SVGID_26_);enable-background:new    ;}
	.st27{clip-path:url(#SVGID_28_);enable-background:new    ;}
</style>
<g>
	<g class="st0">
		<g class="st0">
			<g>
				<defs>
					<path id="SVGID_1_" d="M75,59.3l2.7,1.5c-0.1-0.1-0.2-0.1-0.4-0.2l-2.7-1.5C74.7,59.2,74.9,59.2,75,59.3z"/>
				</defs>
				<clipPath id="SVGID_2_">
					<use xlink:href="#SVGID_1_"  style="overflow:visible;"/>
				</clipPath>
				<g class="st1">
					<path class="st2" d="M77.4,60.7l-2.7-1.5c0.1,0,0.2,0.1,0.3,0.1l2.7,1.5C77.5,60.7,77.5,60.7,77.4,60.7"/>
					<path class="st3" d="M77.6,60.7l-2.7-1.5c0,0,0.1,0,0.1,0.1L77.6,60.7C77.7,60.8,77.7,60.8,77.6,60.7"/>
				</g>
			</g>
		</g>
		<g class="st0">
			<g>
				<defs>
					<path id="SVGID_3_" d="M57.2,77.2l-2.7-1.5c-0.7-0.4-1.1-1.1-1.1-2.1l2.7,1.5C56,76.1,56.5,76.8,57.2,77.2z"/>
				</defs>
				<clipPath id="SVGID_4_">
					<use xlink:href="#SVGID_3_"  style="overflow:visible;"/>
				</clipPath>
				<g class="st4">
					<path class="st5" d="M57.2,77.2l-2.7-1.5c-0.7-0.4-1.1-1.1-1.1-2.1l2.7,1.5C56,76.1,56.5,76.8,57.2,77.2"/>
				</g>
			</g>
		</g>
		<g>
			<polygon class="st6" points="59.6,54.7 56.8,53.2 74.6,59.2 77.4,60.7 			"/>
		</g>
		<g class="st0">
			<g>
				<defs>
					<path id="SVGID_5_" d="M58.6,54.6l-2.7-1.5c0.3-0.1,0.7,0,1,0.1l2.7,1.5C59.2,54.6,58.9,54.5,58.6,54.6z"/>
				</defs>
				<clipPath id="SVGID_6_">
					<use xlink:href="#SVGID_5_"  style="overflow:visible;"/>
				</clipPath>
				<g class="st7">
					<path class="st8" d="M58.6,54.6l-2.7-1.5c0.3-0.1,0.6,0,0.8,0.1l2.7,1.5C59.1,54.5,58.8,54.5,58.6,54.6"/>
					<path class="st2" d="M59.4,54.6l-2.7-1.5c0.1,0,0.1,0,0.2,0.1l2.7,1.5C59.5,54.7,59.4,54.7,59.4,54.6"/>
				</g>
			</g>
		</g>
		<g>
			<polygon class="st9" points="56,75.1 53.3,73.6 53.3,56.1 56.1,57.6 			"/>
		</g>
		<g>
			<path class="st10" d="M58.6,54.6c0.3-0.1,0.7,0,1,0.1l17.8,6c2,0.7,2,3.6,0.1,4.9L59.6,77c-0.4,0.2-0.7,0.4-1.1,0.4
				c-1.3,0.2-2.4-0.8-2.4-2.3V57.6C56.1,56,57.2,54.8,58.6,54.6z"/>
		</g>
		<g class="st0">
			<g>
				<defs>
					<path id="SVGID_7_" d="M56.1,57.6l-2.7-1.5c0-1.5,1.1-2.8,2.5-3l2.7,1.5C57.2,54.8,56.1,56,56.1,57.6z"/>
				</defs>
				<clipPath id="SVGID_8_">
					<use xlink:href="#SVGID_7_"  style="overflow:visible;"/>
				</clipPath>
				<g class="st11">
					<path class="st5" d="M56.1,57.6l-2.7-1.5c0-0.4,0.1-0.8,0.2-1.1l2.7,1.5C56.2,56.9,56.1,57.3,56.1,57.6"/>
					<path class="st12" d="M56.2,56.6l-2.7-1.5c0.1-0.2,0.2-0.3,0.2-0.4l2.7,1.5C56.4,56.3,56.3,56.4,56.2,56.6"/>
					<path class="st13" d="M56.5,56.1l-2.7-1.5c0.1-0.1,0.2-0.2,0.2-0.3l2.7,1.5C56.6,55.9,56.5,56,56.5,56.1"/>
					<path class="st14" d="M56.6,55.8l-2.7-1.5c0.1-0.1,0.2-0.2,0.2-0.3l2.7,1.5C56.8,55.6,56.7,55.7,56.6,55.8"/>
					<path class="st15" d="M56.9,55.5L54.1,54c0.1-0.1,0.2-0.2,0.2-0.2l2.7,1.5C57.1,55.4,56.9,55.4,56.9,55.5"/>
					<path class="st3" d="M57.2,55.3l-2.8-1.5c0.1-0.1,0.2-0.2,0.3-0.2l2.7,1.5C57.3,55.1,57.2,55.2,57.2,55.3"/>
					<path class="st2" d="M57.5,55.1l-2.7-1.5c0.2-0.1,0.3-0.2,0.4-0.2l2.7,1.5C57.7,54.9,57.5,55,57.5,55.1"/>
					<path class="st8" d="M57.8,54.8l-2.7-1.5c0.2-0.1,0.5-0.2,0.7-0.2l2.7,1.5C58.3,54.6,58.1,54.7,57.8,54.8"/>
				</g>
			</g>
		</g>
	</g>
</g>
<g>
	<g>
		<g class="st0">
			<g class="st0">
				<g>
					<g>
						<defs>
							<path id="SVGID_9_" d="M56.9,14.8l2.7,1.5c1.1,0.6,1.9,1.9,1.9,3.4l-2.7-1.5C58.8,16.7,58.1,15.4,56.9,14.8z"/>
						</defs>
						<clipPath id="SVGID_10_">
							<use xlink:href="#SVGID_9_"  style="overflow:visible;"/>
						</clipPath>
						<g class="st16">
							<path class="st5" d="M61.5,19.8l-2.7-1.5c0-1.5-0.8-2.8-1.9-3.4l2.7,1.5C60.9,17,61.6,18.2,61.5,19.8"/>
						</g>
					</g>
				</g>
			</g>
			<g class="st0">
				<g>
					<g>
						<defs>
							<path id="SVGID_11_" d="M61.2,6.9L64,8.4c-1.9-1-4.1-1.4-6.4-1.1l-2.7-1.5C57.2,5.4,59.4,5.8,61.2,6.9z"/>
						</defs>
						<clipPath id="SVGID_12_">
							<use xlink:href="#SVGID_11_"  style="overflow:visible;"/>
						</clipPath>
						<g class="st17">
							<path class="st8" d="M57.5,7.3l-2.7-1.5C56.2,5.5,57.7,5.6,59,6l2.7,1.5C60.4,7.1,59,7,57.5,7.3"/>
							<path class="st2" d="M61.8,7.5L59,6c0.7,0.2,1.3,0.4,1.9,0.7l2.7,1.5C63.1,7.9,62.4,7.6,61.8,7.5"/>
							<path class="st3" d="M63.7,8.2l-2.7-1.5c0.2,0.1,0.2,0.2,0.4,0.2L64,8.4C63.9,8.3,63.8,8.2,63.7,8.2"/>
						</g>
					</g>
				</g>
			</g>
			<g class="st0">
				<g>
					<g>
						<defs>
							<path id="SVGID_13_" d="M17.2,56.7l-2.7-1.5c0.6,0.3,1.4,0.5,2.1,0.4l2.7,1.5C18.6,57.1,17.8,57,17.2,56.7z"/>
						</defs>
						<clipPath id="SVGID_14_">
							<use xlink:href="#SVGID_13_"  style="overflow:visible;"/>
						</clipPath>
						<g class="st18">
							<path class="st3" d="M17.2,56.7l-2.7-1.5c0.1,0,0.1,0.1,0.2,0.1l2.7,1.5C17.3,56.7,17.2,56.7,17.2,56.7"/>
							<path class="st2" d="M17.4,56.7l-2.7-1.5c0.2,0.1,0.4,0.2,0.6,0.2L18,57C17.7,56.9,17.5,56.8,17.4,56.7"/>
							<path class="st8" d="M18,57l-2.7-1.5c0.5,0.1,0.9,0.2,1.4,0.1l2.7,1.5C18.9,57.1,18.4,57,18,57"/>
						</g>
					</g>
				</g>
			</g>
			<g>
				<polygon class="st19" points="19.4,12.6 16.7,11.1 54.8,5.7 57.5,7.3 				"/>
			</g>
			<g class="st0">
				<path class="st9" d="M7.2,54.4l0.1-27c0-0.5,0-0.9,0.1-1.4c0-0.2,0.1-0.3,0.1-0.5c0-0.3,0.1-0.6,0.2-0.8c0-0.2,0.1-0.4,0.2-0.5
					c0.1-0.2,0.1-0.5,0.2-0.8C8,23.3,8,23.1,8,22.9c0.1-0.2,0.2-0.5,0.2-0.7c0-0.1,0.1-0.2,0.1-0.3c0.2-0.3,0.2-0.6,0.4-0.8
					c0.1-0.2,0.2-0.2,0.2-0.4c0.2-0.2,0.2-0.5,0.4-0.8c0.1-0.1,0.1-0.2,0.2-0.3c0.2-0.3,0.4-0.5,0.5-0.8c0-0.1,0.1-0.1,0.1-0.2
					c2.2-3.2,5.6-5.5,9.3-6.1l-2.7-1.5c-3.7,0.5-7,2.8-9.3,6l0,0c0,0,0,0,0,0.1s-0.1,0.1-0.1,0.2c-0.2,0.3-0.4,0.5-0.5,0.8
					c-0.1,0.1-0.1,0.2-0.2,0.3c-0.1,0.1-0.1,0.2-0.2,0.3c-0.1,0.2-0.2,0.3-0.2,0.5c-0.1,0.2-0.2,0.2-0.2,0.4
					c-0.2,0.3-0.2,0.6-0.4,0.8c0,0.1-0.1,0.2-0.1,0.3c0,0,0,0,0,0.1c-0.1,0.2-0.2,0.5-0.2,0.7c-0.1,0.2-0.2,0.4-0.2,0.5
					C5.1,22.3,5,22.6,5,22.8c-0.1,0.2-0.1,0.4-0.2,0.5c-0.1,0.3-0.1,0.6-0.2,0.8c0,0.2-0.1,0.3-0.1,0.5c-0.1,0.4-0.2,0.8-0.2,1.3v27
					c0,4.6,2.3,8.4,5.6,10.3l2.7,1.5C9.5,62.8,7.2,59,7.2,54.4z"/>
				<path class="st14" d="M10.2,18.6l-2.7-1.5c0.3-0.5,0.7-1,1.1-1.4l2.7,1.5C10.8,17.6,10.5,18.1,10.2,18.6"/>
				<path class="st15" d="M11.2,17.2l-2.7-1.5c0.4-0.5,0.8-0.8,1.2-1.3l2.7,1.5C12.1,16.3,11.6,16.8,11.2,17.2"/>
				<path class="st3" d="M12.4,16l-2.7-1.5c0.5-0.5,1-0.8,1.4-1.1l2.7,1.5C13.4,15.1,13,15.5,12.4,16"/>
				<path class="st2" d="M13.9,14.8l-2.7-1.5c0.6-0.5,1.3-0.8,2-1.1l2.7,1.5C15.2,14,14.6,14.4,13.9,14.8"/>
				<path class="st8" d="M15.9,13.6l-2.7-1.5c1.1-0.5,2.3-0.9,3.6-1.1l2.7,1.5C18.2,12.8,17.1,13.2,15.9,13.6"/>
			</g>
		</g>
	</g>
	<path class="st20" d="M26.4,56.1l-7,1c-2.2,0.3-4-1.4-4-3.8l0.1-27c0-2.4,1.8-4.6,4-4.9L57.6,16c2.2-0.3,4,1.4,4,3.8l0,9.2l8.1-1.1
		v-9.2c0-7.2-5.5-12.3-12.1-11.4l-38,5.4c-6.7,0.9-12.2,7.6-12.2,14.8l-0.1,27c0,7.2,5.5,12.3,12.1,11.4l7.7-1.1L26.4,56.1z"/>
	<polygon class="st5" points="58.8,18.2 61.6,19.8 61.6,29 58.8,27.8 	"/>
	<polygon class="st5" points="16.6,55.5 25.2,54.2 26.4,56.1 19.3,57 	"/>
</g>
<g>
	<g>
		<g class="st0">
			<g class="st0">
				<g>
					<g>
						<defs>
							<path id="SVGID_15_" d="M69.9,29.7l2.7,1.5c1.1,0.6,1.9,1.9,1.9,3.4l-2.7-1.5C71.8,31.6,71,30.3,69.9,29.7z"/>
						</defs>
						<clipPath id="SVGID_16_">
							<use xlink:href="#SVGID_15_"  style="overflow:visible;"/>
						</clipPath>
						<g class="st21">
							<path class="st5" d="M74.5,34.6l-2.7-1.5c0-1.5-0.8-2.8-1.9-3.4l2.7,1.5C73.8,31.8,74.6,33.1,74.5,34.6"/>
						</g>
					</g>
				</g>
			</g>
			<g class="st0">
				<g>
					<g>
						<defs>
							<path id="SVGID_17_" d="M74.2,21.8l2.7,1.5c-1.9-1-4.1-1.4-6.4-1.1l-2.7-1.5C70.1,20.3,72.4,20.7,74.2,21.8z"/>
						</defs>
						<clipPath id="SVGID_18_">
							<use xlink:href="#SVGID_17_"  style="overflow:visible;"/>
						</clipPath>
						<g class="st22">
							<path class="st8" d="M70.5,22.1l-2.7-1.5c1.4-0.2,2.9-0.2,4.2,0.2l2.7,1.5C73.3,22,72,21.9,70.5,22.1"/>
							<path class="st2" d="M74.7,22.4L72,20.9c0.7,0.2,1.3,0.4,1.9,0.7l2.7,1.5C76,22.7,75.3,22.5,74.7,22.4"/>
							<path class="st3" d="M76.6,23l-2.7-1.5c0.2,0.1,0.2,0.2,0.4,0.2l2.7,1.5C76.8,23.2,76.8,23.1,76.6,23"/>
						</g>
					</g>
				</g>
			</g>
			<g class="st0">
				<g>
					<g>
						<defs>
							<path id="SVGID_19_" d="M30.1,71.6L27.4,70c0.6,0.3,1.4,0.5,2.1,0.4l2.7,1.5C31.5,72,30.7,71.9,30.1,71.6z"/>
						</defs>
						<clipPath id="SVGID_20_">
							<use xlink:href="#SVGID_19_"  style="overflow:visible;"/>
						</clipPath>
						<g class="st23">
							<path class="st3" d="M30.1,71.6L27.4,70c0.1,0,0.1,0.1,0.2,0.1l2.7,1.5C30.2,71.6,30.1,71.6,30.1,71.6"/>
							<path class="st2" d="M30.3,71.6l-2.7-1.5c0.2,0.1,0.4,0.2,0.6,0.2l2.7,1.5C30.7,71.8,30.4,71.7,30.3,71.6"/>
							<path class="st8" d="M30.9,71.9l-2.7-1.5c0.5,0.1,0.9,0.2,1.4,0.1l2.7,1.5C31.8,72,31.4,71.9,30.9,71.9"/>
						</g>
					</g>
				</g>
			</g>
			<g>
				<polygon class="st19" points="32.3,27.4 29.6,26 67.7,20.6 70.5,22.1 				"/>
			</g>
			<g class="st0">
				<path class="st9" d="M20.1,69.3l0.1-27c0-0.5,0-0.9,0.1-1.4c0-0.2,0.1-0.3,0.1-0.5c0-0.3,0.1-0.6,0.2-0.8c0-0.2,0.1-0.4,0.2-0.5
					c0.1-0.2,0.1-0.5,0.2-0.8c0.1-0.2,0.2-0.4,0.2-0.5c0.1-0.2,0.2-0.5,0.2-0.7c0-0.1,0.1-0.2,0.1-0.3c0.2-0.3,0.2-0.6,0.4-0.8
					c0.1-0.2,0.2-0.2,0.2-0.4c0.2-0.2,0.2-0.5,0.4-0.8c0.1-0.1,0.1-0.2,0.2-0.3c0.2-0.3,0.4-0.5,0.5-0.8c0-0.1,0.1-0.1,0.1-0.2
					c2.2-3.2,5.6-5.5,9.3-6.1L29.6,26c-3.7,0.5-7,2.8-9.3,6l0,0c0,0,0,0,0,0.1c0,0.1-0.1,0.1-0.1,0.2c-0.2,0.3-0.4,0.5-0.5,0.8
					c-0.1,0.1-0.1,0.2-0.2,0.3c-0.1,0.1-0.1,0.2-0.2,0.3c-0.1,0.2-0.2,0.3-0.2,0.5c-0.1,0.2-0.2,0.2-0.2,0.4
					c-0.2,0.3-0.2,0.6-0.4,0.8c0,0.1-0.1,0.2-0.1,0.3c0,0,0,0,0,0.1c-0.1,0.2-0.2,0.5-0.2,0.7c-0.1,0.2-0.2,0.4-0.2,0.5
					c-0.1,0.2-0.2,0.5-0.2,0.8c-0.1,0.2-0.1,0.4-0.2,0.5c-0.1,0.3-0.1,0.6-0.2,0.8c0,0.2-0.1,0.3-0.1,0.5c-0.1,0.4-0.2,0.8-0.2,1.3
					v27c0,4.6,2.3,8.4,5.6,10.3l2.7,1.5C22.4,77.7,20.1,73.9,20.1,69.3z"/>
				<path class="st14" d="M23.1,33.5L20.4,32c0.3-0.5,0.7-1,1.1-1.4l2.7,1.5C23.8,32.5,23.4,33,23.1,33.5"/>
				<path class="st15" d="M24.2,32.1l-2.7-1.5c0.4-0.5,0.8-0.8,1.2-1.3l2.7,1.5C25,31.2,24.5,31.7,24.2,32.1"/>
				<path class="st3" d="M25.4,30.9l-2.7-1.5c0.5-0.5,1-0.8,1.4-1.1l2.7,1.5C26.4,30,25.9,30.4,25.4,30.9"/>
				<path class="st2" d="M26.9,29.7l-2.7-1.5c0.6-0.5,1.3-0.8,2-1.1l2.7,1.5C28.2,28.9,27.5,29.3,26.9,29.7"/>
				<path class="st8" d="M28.9,28.5L26.1,27c1.1-0.5,2.3-0.9,3.6-1.1l2.7,1.5C31.1,27.7,30,28.1,28.9,28.5"/>
			</g>
		</g>
	</g>
	<path class="st20" d="M39.3,70.9l-7,1c-2.2,0.3-4-1.4-4-3.8l0.1-27c0-2.4,1.8-4.6,4-4.9l38.2-5.4c2.2-0.3,4,1.4,4,3.8l0,9.2
		l8.1-1.1v-9.2c0-7.2-5.5-12.3-12.1-11.4l-38,5.4c-6.7,0.9-12.2,7.6-12.2,14.8l-0.1,27c0,7.2,5.5,12.3,12.1,11.4l7.7-1.1L39.3,70.9z
		"/>
	<polygon class="st5" points="71.8,33.1 74.6,34.6 74.5,43.9 71.8,42.7 	"/>
	<polygon class="st5" points="29.5,70.4 38.1,69.1 39.3,70.9 32.3,71.9 	"/>
</g>
<g>
	<g class="st0">
		<g class="st0">
			<g>
				<g>
					<defs>
						<path id="SVGID_21_" d="M84.1,80.4l-2.7-1.5c2.2-0.3,4-2.5,4-4.9l2.7,1.5C88.1,77.9,86.3,80.1,84.1,80.4z"/>
					</defs>
					<clipPath id="SVGID_22_">
						<use xlink:href="#SVGID_21_"  style="overflow:visible;"/>
					</clipPath>
					<g class="st24">
						<path class="st8" d="M84.1,80.4l-2.7-1.5c0.4-0.1,0.8-0.2,1.2-0.4l2.7,1.5C84.9,80.3,84.5,80.3,84.1,80.4"/>
						<path class="st2" d="M85.3,80l-2.7-1.5c0.2-0.1,0.5-0.2,0.7-0.4l2.7,1.5C85.7,79.8,85.5,80,85.3,80"/>
						<path class="st3" d="M86,79.7l-2.7-1.5c0.2-0.2,0.3-0.2,0.5-0.4l2.7,1.5C86.3,79.4,86.1,79.6,86,79.7"/>
						<path class="st15" d="M86.4,79.3l-2.7-1.5c0.2-0.2,0.3-0.3,0.4-0.5l2.7,1.5C86.7,79,86.6,79.2,86.4,79.3"/>
						<path class="st14" d="M86.8,78.9l-2.7-1.5c0.2-0.2,0.2-0.3,0.4-0.5l2.7,1.5C87.1,78.6,86.9,78.7,86.8,78.9"/>
						<path class="st13" d="M87.2,78.4l-2.7-1.5c0.2-0.2,0.2-0.4,0.3-0.5l2.7,1.5C87.4,78.1,87.3,78.2,87.2,78.4"/>
						<path class="st12" d="M87.5,77.9l-2.7-1.5c0.2-0.2,0.2-0.5,0.3-0.7l2.7,1.5C87.8,77.5,87.6,77.7,87.5,77.9"/>
						<path class="st5" d="M87.8,77.2l-2.7-1.5c0.2-0.5,0.3-1.1,0.3-1.7l2.7,1.5C88.1,76.1,88,76.6,87.8,77.2"/>
					</g>
				</g>
			</g>
		</g>
		<g>
			<polygon class="st9" points="88.1,75.5 85.3,74 85.4,47 88.1,48.5 			"/>
		</g>
		<g class="st0">
			<g>
				<g>
					<defs>
						<path id="SVGID_23_" d="M83.5,43.6l2.7,1.5c1.1,0.6,1.9,1.9,1.9,3.4L85.4,47C85.4,45.5,84.7,44.2,83.5,43.6z"/>
					</defs>
					<clipPath id="SVGID_24_">
						<use xlink:href="#SVGID_23_"  style="overflow:visible;"/>
					</clipPath>
					<g class="st25">
						<path class="st5" d="M88.1,48.5L85.4,47c0-1.5-0.8-2.8-1.9-3.4l2.7,1.5C87.5,45.7,88.2,47,88.1,48.5"/>
					</g>
				</g>
			</g>
		</g>
		<g class="st0">
			<g>
				<g>
					<defs>
						<path id="SVGID_25_" d="M87.8,35.6l2.7,1.5c-1.9-1-4.1-1.4-6.4-1.1l-2.7-1.5C83.8,34.2,86,34.6,87.8,35.6z"/>
					</defs>
					<clipPath id="SVGID_26_">
						<use xlink:href="#SVGID_25_"  style="overflow:visible;"/>
					</clipPath>
					<g class="st26">
						<path class="st8" d="M84.1,36l-2.7-1.5c1.4-0.2,2.9-0.2,4.2,0.2l2.7,1.5C87,35.8,85.6,35.8,84.1,36"/>
						<path class="st2" d="M88.4,36.2l-2.7-1.5c0.7,0.2,1.3,0.4,1.9,0.7l2.7,1.5C89.7,36.6,89,36.4,88.4,36.2"/>
						<path class="st3" d="M90.3,36.9l-2.7-1.5c0.2,0.1,0.2,0.2,0.4,0.2l2.7,1.5C90.5,37.1,90.4,37,90.3,36.9"/>
					</g>
				</g>
			</g>
		</g>
		<g>
			<polygon class="st19" points="45.9,85.8 43.2,84.3 81.3,78.9 84.1,80.4 			"/>
		</g>
		<g class="st0">
			<g>
				<g>
					<defs>
						<path id="SVGID_27_" d="M43.8,85.4l-2.7-1.5c0.6,0.3,1.4,0.5,2.1,0.4l2.7,1.5C45.2,85.9,44.4,85.7,43.8,85.4z"/>
					</defs>
					<clipPath id="SVGID_28_">
						<use xlink:href="#SVGID_27_"  style="overflow:visible;"/>
					</clipPath>
					<g class="st27">
						<path class="st3" d="M43.8,85.4l-2.7-1.5c0.1,0,0.1,0.1,0.2,0.1l2.7,1.5C43.9,85.4,43.8,85.4,43.8,85.4"/>
						<path class="st2" d="M44,85.5L41.2,84c0.2,0.1,0.4,0.2,0.6,0.2l2.7,1.5C44.3,85.6,44.1,85.6,44,85.5"/>
						<path class="st8" d="M44.6,85.7l-2.7-1.5c0.5,0.1,0.9,0.2,1.4,0.1l2.7,1.5C45.5,85.9,45,85.8,44.6,85.7"/>
					</g>
				</g>
			</g>
		</g>
		<g>
			<polygon class="st19" points="46,41.3 43.3,39.9 81.4,34.5 84.1,36 			"/>
		</g>
		<g>
			<path class="st20" d="M84.1,36c6.7-0.9,12.1,4.2,12.1,11.4v27c0,7.2-5.5,13.9-12.2,14.8l-38.1,5.4c-6.7,0.9-12.1-4.2-12.1-11.4
				l0.1-27c0-7.2,5.5-13.9,12.2-14.8L84.1,36z M88.1,75.5l0.1-27c0-2.4-1.8-4.1-4-3.8L46,50.1c-2.2,0.3-4,2.5-4,4.9l-0.1,27
				c0,2.4,1.8,4.1,4,3.8l38.1-5.4C86.3,80.1,88.1,77.9,88.1,75.5"/>
		</g>
		<g class="st0">
			<path class="st9" d="M33.8,83.1l0.1-27c0-0.5,0-0.9,0.1-1.4c0-0.2,0.1-0.3,0.1-0.5c0-0.3,0.1-0.6,0.2-0.8c0-0.2,0.1-0.4,0.2-0.5
				c0.1-0.2,0.1-0.5,0.2-0.8c0.1-0.2,0.2-0.4,0.2-0.5c0.1-0.2,0.2-0.5,0.2-0.7c0-0.1,0.1-0.2,0.1-0.3c0.2-0.3,0.2-0.6,0.4-0.8
				c0.1-0.2,0.2-0.2,0.2-0.4c0.2-0.2,0.2-0.5,0.4-0.8c0.1-0.1,0.1-0.2,0.2-0.3c0.2-0.3,0.4-0.5,0.5-0.8c0-0.1,0.1-0.1,0.1-0.2
				c2.2-3.2,5.6-5.5,9.3-6.1l-2.7-1.5c-3.7,0.5-7,2.8-9.3,6l0,0c0,0,0,0,0,0.1c0,0.1-0.1,0.1-0.1,0.2c-0.2,0.3-0.4,0.5-0.5,0.8
				c-0.1,0.1-0.1,0.2-0.2,0.3s-0.1,0.2-0.2,0.3c-0.1,0.2-0.2,0.3-0.2,0.5c-0.1,0.2-0.2,0.2-0.2,0.4c-0.2,0.3-0.2,0.6-0.4,0.8
				c0,0.1-0.1,0.2-0.1,0.3c0,0,0,0,0,0.1c-0.1,0.2-0.2,0.5-0.2,0.7c-0.1,0.2-0.2,0.4-0.2,0.5c-0.1,0.2-0.2,0.5-0.2,0.8
				c-0.1,0.2-0.1,0.4-0.2,0.5c-0.1,0.3-0.1,0.6-0.2,0.8c0,0.2-0.1,0.3-0.1,0.5c-0.1,0.4-0.2,0.8-0.2,1.3v27c0,4.6,2.3,8.4,5.6,10.3
				l2.7,1.5C36.1,91.5,33.8,87.8,33.8,83.1z"/>
			<path class="st14" d="M36.8,47.4L34,45.8c0.3-0.5,0.7-1,1.1-1.4l2.7,1.5C37.4,46.4,37.1,46.8,36.8,47.4"/>
			<path class="st15" d="M37.8,45.9l-2.7-1.5c0.4-0.5,0.8-0.8,1.2-1.3l2.7,1.5C38.7,45.1,38.2,45.5,37.8,45.9"/>
			<path class="st3" d="M39,44.7l-2.7-1.5c0.5-0.5,1-0.8,1.4-1.1l2.7,1.5C40,43.9,39.6,44.3,39,44.7"/>
			<path class="st2" d="M40.6,43.6l-2.7-1.5c0.6-0.5,1.3-0.8,2-1.1l2.7,1.5C41.8,42.7,41.2,43.1,40.6,43.6"/>
			<path class="st8" d="M42.5,42.4l-2.7-1.5c1.1-0.5,2.3-0.9,3.6-1.1l2.7,1.5C44.8,41.5,43.7,41.9,42.5,42.4"/>
		</g>
	</g>
</g>
</svg>
