<?xml version="1.0" encoding="utf-8"?>
<!-- Generator: Adobe Illustrator 25.0.0, SVG Export Plug-In . SVG Version: 6.00 Build 0)  -->
<svg version="1.1" id="Layer_1" xmlns="http://www.w3.org/2000/svg" xmlns:xlink="http://www.w3.org/1999/xlink" x="0px" y="0px"
	 viewBox="0 0 100 100" style="enable-background:new 0 0 100 100;" xml:space="preserve">
<style type="text/css">
	.st0{enable-background:new    ;}
	.st1{clip-path:url(#SVGID_2_);enable-background:new    ;}
	.st2{fill:#035F6E;}
	.st3{clip-path:url(#SVGID_4_);enable-background:new    ;}
	.st4{fill:#036272;}
	.st5{fill:#036677;}
	.st6{fill:#036171;}
	.st7{fill:#047083;}
	.st8{fill:#06B2CF;}
	.st9{clip-path:url(#SVGID_6_);enable-background:new    ;}
	.st10{fill:#036A7B;}
	.st11{clip-path:url(#SVGID_8_);enable-background:new    ;}
	.st12{fill:#2F8891;}
	.st13{fill:#2D848C;}
	.st14{fill:#2C7F88;}
	.st15{fill:#2A7B83;}
	.st16{fill:#29767E;}
	.st17{fill:#32939C;}
	.st18{clip-path:url(#SVGID_10_);enable-background:new    ;}
	.st19{fill:#308D96;}
	.st20{fill:#32919B;}
	.st21{fill:#3396A0;}
	.st22{fill:#47CEDB;}
	.st23{clip-path:url(#SVGID_12_);enable-background:new    ;}
	.st24{fill:#046D7F;}
	.st25{fill:#047589;}
	.st26{clip-path:url(#SVGID_14_);enable-background:new    ;}
	.st27{fill:#047183;}
	.st28{fill:#047488;}
	.st29{fill:#04788C;}
	.st30{fill:#05A5C0;}
	.st31{clip-path:url(#SVGID_16_);enable-background:new    ;}
	.st32{clip-path:url(#SVGID_18_);enable-background:new    ;}
	.st33{clip-path:url(#SVGID_20_);enable-background:new    ;}
	.st34{clip-path:url(#SVGID_22_);enable-background:new    ;}
	.st35{clip-path:url(#SVGID_24_);enable-background:new    ;}
	.st36{fill:#659799;}
	.st37{fill:#629294;}
	.st38{fill:#5F8D8F;}
	.st39{fill:#5B888A;}
	.st40{fill:#588385;}
	.st41{clip-path:url(#SVGID_26_);enable-background:new    ;}
	.st42{clip-path:url(#SVGID_28_);enable-background:new    ;}
	.st43{fill:#699C9E;}
	.st44{fill:#6CA1A3;}
	.st45{fill:#70A6A8;}
	.st46{fill:#99E4E7;}
	.st47{clip-path:url(#SVGID_30_);enable-background:new    ;}
	.st48{clip-path:url(#SVGID_32_);enable-background:new    ;}
	.st49{clip-path:url(#SVGID_34_);enable-background:new    ;}
	.st50{clip-path:url(#SVGID_36_);enable-background:new    ;}
	.st51{clip-path:url(#SVGID_38_);enable-background:new    ;}
	.st52{clip-path:url(#SVGID_40_);enable-background:new    ;}
	.st53{clip-path:url(#SVGID_42_);enable-background:new    ;}
	.st54{clip-path:url(#SVGID_44_);enable-background:new    ;}
</style>
<g>
	<g>
		<g class="st0">
			<g class="st0">
				<defs>
					<path id="SVGID_1_" class="st0" d="M87.7,10.3l2.3,1.2c-1.6-0.9-3.6-1.3-5.7-1l-2.3-1.2C84.1,9,86.1,9.4,87.7,10.3z"/>
				</defs>
				<clipPath id="SVGID_2_">
					<use xlink:href="#SVGID_1_"  style="overflow:visible;"/>
				</clipPath>
				<g class="st1">
					<path class="st2" d="M84.3,10.5l-2.3-1.2c2.1-0.3,4,0.1,5.7,1l2.3,1.2C88.4,10.6,86.4,10.2,84.3,10.5"/>
				</g>
			</g>
			<g class="st0">
				<defs>
					<path id="SVGID_3_" class="st0" d="M12.5,91.8l-2.3-1.2c-3-1.6-5-5-5-9l2.3,1.2C7.6,86.9,9.5,90.2,12.5,91.8z"/>
				</defs>
				<clipPath id="SVGID_4_">
					<use xlink:href="#SVGID_3_"  style="overflow:visible;"/>
				</clipPath>
				<g class="st3">
					<path class="st2" d="M12.5,91.8l-2.3-1.2c-1.3-0.7-2.5-1.8-3.3-3.1l2.3,1.2C10.1,90,11.2,91.1,12.5,91.8"/>
					<path class="st4" d="M9.2,88.7l-2.3-1.2c-0.6-0.9-1-2-1.3-3.1l2.3,1.2C8.2,86.7,8.6,87.7,9.2,88.7"/>
					<path class="st5" d="M7.9,85.5l-2.3-1.2c-0.2-0.9-0.3-1.8-0.3-2.8l2.3,1.2C7.6,83.7,7.7,84.7,7.9,85.5"/>
				</g>
			</g>
			<g>
				<polygon class="st6" points="18.4,19.8 16.1,18.6 82.1,9.3 84.3,10.5 				"/>
			</g>
			<g>
				<polygon class="st7" points="7.6,82.8 5.3,81.5 5.4,31.6 7.7,32.8 				"/>
			</g>
			<g>
				<path class="st8" d="M84.3,10.5c5.9-0.8,10.7,3.7,10.7,10l-0.1,49.9c0,6.3-4.8,12.2-10.7,13l-66,9.3c-5.9,0.8-10.7-3.7-10.7-10
					l0.1-49.9c0-6.3,4.8-12.2,10.7-13L84.3,10.5z"/>
			</g>
			<g class="st0">
				<defs>
					<path id="SVGID_5_" class="st0" d="M7.7,32.8l-2.3-1.2c0-6.3,4.8-12.2,10.7-13l2.3,1.2C12.5,20.6,7.7,26.5,7.7,32.8z"/>
				</defs>
				<clipPath id="SVGID_6_">
					<use xlink:href="#SVGID_5_"  style="overflow:visible;"/>
				</clipPath>
				<g class="st9">
					<path class="st5" d="M7.7,32.8l-2.3-1.2c0-0.6,0-1.2,0.1-1.7l2.3,1.2C7.7,31.7,7.7,32.3,7.7,32.8"/>
					<path class="st10" d="M7.8,31.1l-2.3-1.2c0.3-2.1,1.1-4.1,2.3-5.8l2.3,1.2C8.9,27,8.1,29,7.8,31.1"/>
					<path class="st5" d="M10,25.3L7.8,24c0.9-1.3,2-2.5,3.3-3.4l2.3,1.2C12.1,22.8,10.9,24,10,25.3"/>
					<path class="st4" d="M13.3,21.9l-2.3-1.2c1-0.7,2-1.3,3.2-1.6l2.3,1.2C15.4,20.6,14.3,21.2,13.3,21.9"/>
					<path class="st2" d="M16.5,20.2L14.2,19c0.6-0.2,1.2-0.3,1.9-0.4l2.3,1.2C17.7,19.9,17.1,20,16.5,20.2"/>
				</g>
			</g>
		</g>
	</g>
	<g>
		<g class="st0">
			<g class="st0">
				<defs>
					<path id="SVGID_7_" class="st0" d="M85.2,20.9l2.7,1.5c-0.5-0.3-1-0.4-1.6-0.3l-2.7-1.5C84.2,20.5,84.7,20.6,85.2,20.9z"/>
				</defs>
				<clipPath id="SVGID_8_">
					<use xlink:href="#SVGID_7_"  style="overflow:visible;"/>
				</clipPath>
				<g class="st11">
					<path class="st12" d="M86.3,22.1l-2.7-1.5c0.1,0,0.2,0,0.3,0l2.7,1.5C86.5,22.1,86.4,22.1,86.3,22.1"/>
					<path class="st13" d="M86.6,22.1l-2.7-1.5c0.1,0,0.3,0,0.4,0l2.7,1.5C86.9,22.1,86.7,22.1,86.6,22.1"/>
					<path class="st14" d="M87,22.1l-2.7-1.5c0.1,0,0.3,0,0.4,0.1l2.7,1.5C87.3,22.1,87.1,22.1,87,22.1"/>
					<path class="st15" d="M87.4,22.1l-2.7-1.5c0.2,0,0.3,0.1,0.5,0.2l2.7,1.5C87.7,22.2,87.5,22.2,87.4,22.1"/>
					<path class="st16" d="M87.8,22.3l-2.7-1.5c0,0,0.1,0,0.1,0.1l2.7,1.5C87.9,22.3,87.9,22.3,87.8,22.3"/>
				</g>
			</g>
			<g>
				<polygon class="st17" points="36,29.2 33.3,27.7 83.6,20.6 86.3,22.1 				"/>
			</g>
			<g class="st0">
				<defs>
					<path id="SVGID_9_" class="st0" d="M34.4,35.5L31.6,34c-0.9-0.5-1.4-1.4-1.4-2.6c0-1.8,1.4-3.5,3.1-3.7l2.7,1.5
						c-1.7,0.2-3.1,1.9-3.1,3.7C32.9,34.1,33.5,35,34.4,35.5z"/>
				</defs>
				<clipPath id="SVGID_10_">
					<use xlink:href="#SVGID_9_"  style="overflow:visible;"/>
				</clipPath>
				<g class="st18">
					<path class="st16" d="M34.4,35.5L31.6,34c-0.6-0.3-1.1-0.9-1.3-1.6l2.7,1.5C33.3,34.6,33.8,35.2,34.4,35.5"/>
					<path class="st15" d="M33.1,33.9l-2.7-1.5c-0.1-0.2-0.1-0.3-0.1-0.5l2.7,1.5C33,33.5,33,33.7,33.1,33.9"/>
					<path class="st14" d="M33,33.4l-2.7-1.5c0-0.1,0-0.3,0-0.5l2.7,1.5C33,33.1,33,33.2,33,33.4"/>
					<path class="st13" d="M33,32.9l-2.7-1.5c0,0,0,0,0,0c0-0.1,0-0.3,0-0.4l2.7,1.5C33,32.6,33,32.8,33,32.9
						C33,32.9,33,32.9,33,32.9"/>
					<path class="st12" d="M33,32.5L30.2,31c0-0.1,0-0.3,0.1-0.4l2.7,1.5C33,32.2,33,32.3,33,32.5"/>
					<path class="st19" d="M33,32.1l-2.7-1.5c0-0.2,0.1-0.3,0.1-0.5l2.7,1.5C33.1,31.7,33.1,31.9,33,32.1"/>
					<path class="st20" d="M33.2,31.6l-2.7-1.5c0.1-0.2,0.2-0.4,0.3-0.6l2.7,1.5C33.3,31.2,33.3,31.4,33.2,31.6"/>
					<path class="st21" d="M33.4,31l-2.7-1.5c0.4-0.6,0.9-1.2,1.5-1.5l2.7,1.5C34.3,29.9,33.8,30.4,33.4,31"/>
					<path class="st20" d="M34.9,29.5L32.2,28c0.2-0.1,0.3-0.2,0.5-0.2l2.7,1.5C35.3,29.3,35.1,29.4,34.9,29.5"/>
					<path class="st19" d="M35.5,29.3l-2.7-1.5c0.1,0,0.3-0.1,0.4-0.1l2.7,1.5C35.7,29.2,35.6,29.2,35.5,29.3"/>
					<path class="st12" d="M35.9,29.2l-2.7-1.5c0,0,0.1,0,0.1,0l2.7,1.5C36,29.2,35.9,29.2,35.9,29.2"/>
				</g>
			</g>
			<g>
				<path class="st22" d="M86.3,22.1c1.7-0.2,3.1,1.1,3.1,2.9c0,1.8-1.4,3.5-3.1,3.7L36,35.8c-1.7,0.2-3-1.1-3-2.9
					c0-1.8,1.4-3.5,3.1-3.7L86.3,22.1z"/>
			</g>
		</g>
		<g class="st0">
			<g class="st0">
				<defs>
					<path id="SVGID_11_" class="st0" d="M85.2,42.1l2.7,1.5c-0.5-0.3-1-0.4-1.6-0.3l-2.7-1.5C84.1,41.7,84.7,41.9,85.2,42.1z"/>
				</defs>
				<clipPath id="SVGID_12_">
					<use xlink:href="#SVGID_11_"  style="overflow:visible;"/>
				</clipPath>
				<g class="st23">
					<path class="st24" d="M86.3,43.3l-2.7-1.5c0.1,0,0.2,0,0.3,0l2.7,1.5C86.5,43.3,86.4,43.3,86.3,43.3"/>
					<path class="st10" d="M86.6,43.3l-2.7-1.5c0.1,0,0.3,0,0.4,0l2.7,1.5C86.8,43.3,86.7,43.3,86.6,43.3"/>
					<path class="st5" d="M86.9,43.3l-2.7-1.5c0.1,0,0.3,0,0.4,0.1l2.7,1.5C87.2,43.3,87.1,43.3,86.9,43.3"/>
					<path class="st4" d="M87.3,43.4l-2.7-1.5c0.2,0,0.3,0.1,0.5,0.2l2.7,1.5C87.7,43.5,87.5,43.4,87.3,43.4"/>
					<path class="st2" d="M87.8,43.5l-2.7-1.5c0,0,0.1,0,0.1,0.1l2.7,1.5C87.9,43.6,87.8,43.6,87.8,43.5"/>
				</g>
			</g>
			<g>
				<polygon class="st25" points="36,50.4 33.2,48.9 83.5,41.8 86.3,43.3 				"/>
			</g>
			<g class="st0">
				<defs>
					<path id="SVGID_13_" class="st0" d="M34.3,56.7l-2.7-1.5c-0.9-0.5-1.4-1.4-1.4-2.6c0-1.8,1.4-3.5,3.1-3.7l2.7,1.5
						c-1.7,0.2-3.1,1.9-3.1,3.7C32.9,55.3,33.5,56.2,34.3,56.7z"/>
				</defs>
				<clipPath id="SVGID_14_">
					<use xlink:href="#SVGID_13_"  style="overflow:visible;"/>
				</clipPath>
				<g class="st26">
					<path class="st2" d="M34.3,56.7l-2.7-1.5c-0.6-0.3-1.1-0.9-1.3-1.6l2.7,1.5C33.3,55.8,33.7,56.4,34.3,56.7"/>
					<path class="st4" d="M33.1,55.1l-2.7-1.5c-0.1-0.2-0.1-0.3-0.1-0.5l2.7,1.5C33,54.8,33,55,33.1,55.1"/>
					<path class="st5" d="M32.9,54.6l-2.7-1.5c0-0.1,0-0.3,0-0.5l2.7,1.5C32.9,54.3,32.9,54.5,32.9,54.6"/>
					<path class="st10" d="M32.9,54.2l-2.7-1.5c0,0,0,0,0,0c0-0.1,0-0.3,0-0.4l2.7,1.5C32.9,53.9,32.9,54,32.9,54.2
						C32.9,54.1,32.9,54.1,32.9,54.2"/>
					<path class="st24" d="M32.9,53.7l-2.7-1.5c0-0.1,0-0.3,0.1-0.4l2.7,1.5C33,53.4,33,53.6,32.9,53.7"/>
					<path class="st27" d="M33,53.3l-2.7-1.5c0-0.2,0.1-0.3,0.1-0.5l2.7,1.5C33.1,53,33,53.1,33,53.3"/>
					<path class="st28" d="M33.1,52.8l-2.7-1.5c0.1-0.2,0.2-0.4,0.3-0.6l2.7,1.5C33.3,52.5,33.2,52.6,33.1,52.8"/>
					<path class="st29" d="M33.4,52.3l-2.7-1.5c0.4-0.6,0.9-1.2,1.5-1.5l2.7,1.5C34.3,51.1,33.8,51.6,33.4,52.3"/>
					<path class="st28" d="M34.9,50.7l-2.7-1.5c0.2-0.1,0.3-0.2,0.5-0.2l2.7,1.5C35.2,50.6,35.1,50.7,34.9,50.7"/>
					<path class="st27" d="M35.4,50.5L32.7,49c0.1,0,0.3-0.1,0.4-0.1l2.7,1.5C35.7,50.4,35.6,50.5,35.4,50.5"/>
					<path class="st24" d="M35.8,50.4l-2.7-1.5c0,0,0.1,0,0.1,0l2.7,1.5C35.9,50.4,35.9,50.4,35.8,50.4"/>
				</g>
			</g>
			<g>
				<path class="st30" d="M86.3,43.3c1.7-0.2,3.1,1.1,3.1,2.9s-1.4,3.5-3.1,3.7L36,57c-1.7,0.2-3-1-3-2.9s1.4-3.5,3.1-3.7L86.3,43.3
					z"/>
			</g>
		</g>
		<g class="st0">
			<g class="st0">
				<defs>
					<path id="SVGID_15_" class="st0" d="M85.8,64.4l2.7,1.5c-0.5-0.3-1-0.4-1.6-0.3l-2.7-1.5C84.7,64,85.3,64.1,85.8,64.4z"/>
				</defs>
				<clipPath id="SVGID_16_">
					<use xlink:href="#SVGID_15_"  style="overflow:visible;"/>
				</clipPath>
				<g class="st31">
					<path class="st24" d="M86.9,65.6l-2.7-1.5c0.1,0,0.2,0,0.3,0l2.7,1.5C87.1,65.6,87,65.6,86.9,65.6"/>
					<path class="st10" d="M87.2,65.6l-2.7-1.5c0.1,0,0.3,0,0.4,0l2.7,1.5C87.4,65.6,87.3,65.6,87.2,65.6"/>
					<path class="st5" d="M87.5,65.6l-2.7-1.5c0.1,0,0.3,0,0.4,0.1l2.7,1.5C87.8,65.6,87.7,65.6,87.5,65.6"/>
					<path class="st4" d="M87.9,65.7l-2.7-1.5c0.2,0,0.3,0.1,0.5,0.2l2.7,1.5C88.3,65.8,88.1,65.7,87.9,65.7"/>
					<path class="st2" d="M88.4,65.8l-2.7-1.5c0,0,0.1,0,0.1,0.1l2.7,1.5C88.5,65.9,88.4,65.8,88.4,65.8"/>
				</g>
			</g>
			<g>
				<polygon class="st25" points="36.6,72.7 33.8,71.2 84.1,64.1 86.9,65.6 				"/>
			</g>
			<g class="st0">
				<defs>
					<path id="SVGID_17_" class="st0" d="M34.9,79l-2.7-1.5c-0.9-0.5-1.4-1.4-1.4-2.6c0-1.8,1.4-3.5,3.1-3.7l2.7,1.5
						c-1.7,0.2-3.1,1.9-3.1,3.7C33.5,77.6,34.1,78.5,34.9,79z"/>
				</defs>
				<clipPath id="SVGID_18_">
					<use xlink:href="#SVGID_17_"  style="overflow:visible;"/>
				</clipPath>
				<g class="st32">
					<path class="st2" d="M34.9,79l-2.7-1.5c-0.6-0.3-1.1-0.9-1.3-1.6l2.7,1.5C33.9,78.1,34.3,78.7,34.9,79"/>
					<path class="st4" d="M33.7,77.4l-2.7-1.5c-0.1-0.2-0.1-0.3-0.1-0.5l2.7,1.5C33.6,77.1,33.6,77.2,33.7,77.4"/>
					<path class="st5" d="M33.6,76.9l-2.7-1.5c0-0.1,0-0.3,0-0.5l2.7,1.5C33.5,76.6,33.5,76.7,33.6,76.9"/>
					<path class="st10" d="M33.5,76.4L30.8,75c0,0,0,0,0,0c0-0.1,0-0.3,0-0.4l2.7,1.5C33.5,76.1,33.5,76.3,33.5,76.4
						C33.5,76.4,33.5,76.4,33.5,76.4"/>
					<path class="st24" d="M33.5,76l-2.7-1.5c0-0.1,0-0.3,0.1-0.4l2.7,1.5C33.6,75.7,33.6,75.9,33.5,76"/>
					<path class="st27" d="M33.6,75.6l-2.7-1.5c0-0.2,0.1-0.3,0.1-0.5l2.7,1.5C33.7,75.3,33.7,75.4,33.6,75.6"/>
					<path class="st28" d="M33.8,75.1L31,73.6c0.1-0.2,0.2-0.4,0.3-0.6l2.7,1.5C33.9,74.7,33.8,74.9,33.8,75.1"/>
					<path class="st29" d="M34,74.6l-2.7-1.5c0.4-0.6,0.9-1.2,1.5-1.5l2.7,1.5C34.9,73.4,34.4,73.9,34,74.6"/>
					<path class="st28" d="M35.5,73l-2.7-1.5c0.2-0.1,0.3-0.2,0.5-0.2l2.7,1.5C35.8,72.9,35.7,72.9,35.5,73"/>
					<path class="st27" d="M36,72.8l-2.7-1.5c0.1,0,0.3-0.1,0.4-0.1l2.7,1.5C36.3,72.7,36.2,72.8,36,72.8"/>
					<path class="st24" d="M36.5,72.7l-2.7-1.5c0,0,0.1,0,0.1,0l2.7,1.5C36.5,72.7,36.5,72.7,36.5,72.7"/>
				</g>
			</g>
			<g>
				<path class="st30" d="M86.9,65.6c1.7-0.2,3.1,1.1,3.1,2.9c0,1.8-1.4,3.5-3.1,3.7l-50.3,7.1c-1.7,0.2-3-1-3-2.9
					c0-1.8,1.4-3.5,3.1-3.7L86.9,65.6z"/>
			</g>
		</g>
		<g class="st0">
			<g class="st0">
				<defs>
					<path id="SVGID_19_" class="st0" d="M18.7,39.5L16,38.1c0.5,0.3,1.1,0.5,1.8,0.5c0.2,0,0.4,0,0.6,0c1-0.1,1.9-0.6,2.7-1.4
						c1-0.9,1.6-2.1,1.7-3.4l2.7,1.5c-0.2,1.3-0.8,2.5-1.7,3.4c-0.8,0.8-1.7,1.3-2.7,1.4c-0.2,0-0.4,0-0.6,0
						C19.9,40,19.3,39.8,18.7,39.5z"/>
				</defs>
				<clipPath id="SVGID_20_">
					<use xlink:href="#SVGID_19_"  style="overflow:visible;"/>
				</clipPath>
				<g class="st33">
					<path class="st16" d="M18.7,39.5L16,38.1c0.1,0,0.1,0.1,0.2,0.1l2.7,1.5C18.9,39.6,18.8,39.6,18.7,39.5"/>
					<path class="st15" d="M18.9,39.6l-2.7-1.5c0.2,0.1,0.4,0.2,0.7,0.2l2.7,1.5C19.3,39.8,19.1,39.7,18.9,39.6"/>
					<path class="st14" d="M19.6,39.9l-2.7-1.5c0.2,0.1,0.4,0.1,0.6,0.1l2.7,1.5C20,40,19.8,39.9,19.6,39.9"/>
					<path class="st13" d="M20.2,40l-2.7-1.5c0.1,0,0.3,0,0.4,0c0.1,0,0.1,0,0.2,0l2.7,1.5c-0.1,0-0.1,0-0.2,0
						C20.4,40,20.3,40,20.2,40"/>
					<path class="st12" d="M20.7,40L18,38.5c0.1,0,0.3,0,0.4,0c0.1,0,0.1,0,0.2,0l2.7,1.5c-0.1,0-0.1,0-0.2,0C21,40,20.9,40,20.7,40
						"/>
					<path class="st19" d="M21.3,39.9l-2.7-1.5c0.2,0,0.4-0.1,0.6-0.2l2.7,1.5C21.7,39.8,21.5,39.9,21.3,39.9"/>
					<path class="st20" d="M21.9,39.8l-2.7-1.5c0.3-0.1,0.5-0.2,0.7-0.3l2.7,1.5C22.5,39.6,22.2,39.7,21.9,39.8"/>
					<path class="st21" d="M22.7,39.4L20,37.9c0.4-0.2,0.8-0.5,1.2-0.9c0.4-0.4,0.8-0.9,1.1-1.4l2.7,1.5c-0.3,0.5-0.6,1-1.1,1.4
						C23.5,38.9,23.1,39.2,22.7,39.4"/>
					<path class="st20" d="M24.9,37.2l-2.7-1.5c0.1-0.3,0.3-0.5,0.4-0.8l2.7,1.5C25.2,36.7,25.1,36.9,24.9,37.2"/>
					<path class="st19" d="M25.3,36.4l-2.7-1.5c0.1-0.2,0.1-0.4,0.2-0.7l2.7,1.5C25.4,35.9,25.4,36.2,25.3,36.4"/>
					<path class="st12" d="M25.5,35.7l-2.7-1.5c0-0.2,0.1-0.4,0.1-0.6l2.7,1.5C25.6,35.3,25.5,35.5,25.5,35.7"/>
				</g>
			</g>
			<g class="st0">
				<defs>
					<path id="SVGID_21_" class="st0" d="M20.8,29.2l2.7,1.5c0.4,0.2,0.8,0.6,1.2,1c0.7,0.9,1,2.1,0.9,3.5l-2.7-1.5
						c0.2-1.3-0.2-2.5-0.9-3.5C21.6,29.8,21.3,29.4,20.8,29.2z"/>
				</defs>
				<clipPath id="SVGID_22_">
					<use xlink:href="#SVGID_21_"  style="overflow:visible;"/>
				</clipPath>
				<g class="st34">
					<path class="st12" d="M25.6,35.1l-2.7-1.5c0,0,0,0,0,0L25.6,35.1C25.6,35.1,25.6,35.1,25.6,35.1"/>
					<path class="st13" d="M25.6,35.1l-2.7-1.5c0-0.2,0-0.4,0-0.6l2.7,1.5C25.6,34.6,25.6,34.9,25.6,35.1"/>
					<path class="st14" d="M25.6,34.4l-2.7-1.5c0-0.2,0-0.4,0-0.7l2.7,1.5C25.6,34,25.6,34.2,25.6,34.4"/>
					<path class="st15" d="M25.6,33.8l-2.7-1.5c0-0.3-0.1-0.5-0.2-0.7l2.7,1.5C25.5,33.3,25.5,33.5,25.6,33.8"/>
					<path class="st16" d="M25.4,33l-2.7-1.5c-0.2-0.5-0.4-1-0.7-1.4c-0.3-0.4-0.7-0.7-1.2-1l2.7,1.5c0.4,0.2,0.8,0.6,1.2,1
						C25,32.1,25.3,32.5,25.4,33"/>
				</g>
			</g>
			<g class="st0">
				<defs>
					<path id="SVGID_23_" class="st0" d="M19.9,30.9l2.7,1.5c-0.4-0.2-0.9-0.3-1.5-0.3l-2.7-1.5C19,30.6,19.5,30.7,19.9,30.9z"/>
				</defs>
				<clipPath id="SVGID_24_">
					<use xlink:href="#SVGID_23_"  style="overflow:visible;"/>
				</clipPath>
				<g class="st35">
					<path class="st36" d="M21.1,32.2l-2.7-1.5c0.1,0,0.2,0,0.3,0l2.7,1.5C21.3,32.1,21.2,32.1,21.1,32.2"/>
					<path class="st37" d="M21.4,32.1l-2.7-1.5c0.1,0,0.2,0,0.4,0l2.7,1.5C21.6,32.1,21.5,32.1,21.4,32.1"/>
					<path class="st38" d="M21.8,32.1L19,30.7c0.1,0,0.2,0,0.4,0.1l2.7,1.5C22,32.2,21.9,32.2,21.8,32.1"/>
					<path class="st39" d="M22.1,32.2l-2.7-1.5c0.1,0,0.3,0.1,0.4,0.2l2.7,1.5C22.4,32.3,22.3,32.2,22.1,32.2"/>
					<path class="st40" d="M22.5,32.4l-2.7-1.5c0,0,0.1,0,0.1,0L22.5,32.4C22.6,32.4,22.6,32.4,22.5,32.4"/>
				</g>
			</g>
			<g class="st0">
				<defs>
					<path id="SVGID_25_" class="st0" d="M22.2,26.6L25,28c-0.9-0.5-1.8-0.7-2.9-0.7l-2.7-1.5C20.4,25.8,21.4,26.1,22.2,26.6z"/>
				</defs>
				<clipPath id="SVGID_26_">
					<use xlink:href="#SVGID_25_"  style="overflow:visible;"/>
				</clipPath>
				<g class="st41">
					<path class="st13" d="M22.1,27.3l-2.7-1.5c0.2,0,0.4,0,0.7,0l2.7,1.5C22.5,27.3,22.3,27.3,22.1,27.3"/>
					<path class="st14" d="M22.7,27.4L20,25.9c0.3,0,0.6,0.1,0.9,0.2l2.7,1.5C23.4,27.4,23,27.4,22.7,27.4"/>
					<path class="st15" d="M23.7,27.5L20.9,26c0.4,0.1,0.7,0.2,1.1,0.4l2.7,1.5C24.4,27.8,24,27.6,23.7,27.5"/>
					<path class="st16" d="M24.7,27.9L22,26.4c0.1,0,0.2,0.1,0.2,0.1L25,28C24.9,28,24.8,28,24.7,27.9"/>
				</g>
			</g>
			<g class="st0">
				<defs>
					<path id="SVGID_27_" class="st0" d="M19.7,37.8l-2.7-1.5c-0.8-0.4-1.3-1.3-1.3-2.3c0-1.6,1.2-3.1,2.7-3.3l2.7,1.5
						c-1.5,0.2-2.7,1.7-2.7,3.3C18.4,36.6,18.9,37.4,19.7,37.8z"/>
				</defs>
				<clipPath id="SVGID_28_">
					<use xlink:href="#SVGID_27_"  style="overflow:visible;"/>
				</clipPath>
				<g class="st42">
					<path class="st40" d="M19.7,37.8l-2.7-1.5c-0.5-0.3-0.9-0.8-1.1-1.4l2.7,1.5C18.7,37,19.1,37.5,19.7,37.8"/>
					<path class="st39" d="M18.5,36.4l-2.7-1.5c0-0.1-0.1-0.3-0.1-0.5l2.7,1.5C18.5,36.1,18.5,36.3,18.5,36.4"/>
					<path class="st38" d="M18.4,35.9l-2.7-1.5c0-0.1,0-0.3,0-0.4l2.7,1.5C18.4,35.7,18.4,35.8,18.4,35.9"/>
					<path class="st37" d="M18.4,35.5L15.7,34c0,0,0,0,0,0c0-0.1,0-0.2,0-0.4l2.7,1.5C18.4,35.3,18.4,35.4,18.4,35.5
						C18.4,35.5,18.4,35.5,18.4,35.5"/>
					<path class="st36" d="M18.4,35.1l-2.7-1.5c0-0.1,0-0.3,0.1-0.4l2.7,1.5C18.5,34.9,18.4,35,18.4,35.1"/>
					<path class="st43" d="M18.5,34.8l-2.7-1.5c0-0.1,0.1-0.3,0.1-0.4l2.7,1.5C18.6,34.5,18.5,34.6,18.5,34.8"/>
					<path class="st44" d="M18.6,34.3l-2.7-1.5c0.1-0.2,0.1-0.3,0.2-0.5l2.7,1.5C18.8,34,18.7,34.2,18.6,34.3"/>
					<path class="st45" d="M18.8,33.8l-2.7-1.5c0.3-0.6,0.8-1.1,1.3-1.4l2.7,1.5C19.6,32.8,19.2,33.3,18.8,33.8"/>
					<path class="st44" d="M20.2,32.5L17.4,31c0.1-0.1,0.3-0.2,0.5-0.2l2.7,1.5C20.5,32.3,20.3,32.4,20.2,32.5"/>
					<path class="st43" d="M20.6,32.3l-2.7-1.5c0.1,0,0.3-0.1,0.4-0.1l2.7,1.5C20.9,32.2,20.8,32.2,20.6,32.3"/>
					<path class="st36" d="M21,32.2l-2.7-1.5c0,0,0.1,0,0.1,0l2.7,1.5C21.1,32.2,21.1,32.2,21,32.2"/>
				</g>
			</g>
			<g>
				
					<ellipse transform="matrix(0.4779 -0.8784 0.8784 0.4779 -19.8051 36.9069)" class="st46" cx="21.1" cy="35.1" rx="3.1" ry="2.6"/>
			</g>
			<g class="st0">
				<defs>
					<path id="SVGID_29_" class="st0" d="M17.3,42.2l-2.7-1.5c-0.7-0.4-1.3-0.9-1.8-1.6c-1.2-1.5-1.7-3.4-1.4-5.5
						c0.5-4,3.6-7.2,7.1-7.7c0.3,0,0.6-0.1,0.9-0.1l2.7,1.5c-0.3,0-0.6,0-0.9,0.1c-3.5,0.5-6.6,3.8-7.1,7.7c-0.3,2.1,0.3,4,1.4,5.5
						C16,41.3,16.6,41.8,17.3,42.2z"/>
				</defs>
				<clipPath id="SVGID_30_">
					<use xlink:href="#SVGID_29_"  style="overflow:visible;"/>
				</clipPath>
				<g class="st47">
					<path class="st16" d="M17.3,42.2l-2.7-1.5c-0.7-0.4-1.3-0.9-1.8-1.6c-0.5-0.6-0.9-1.4-1.1-2.2l2.7,1.5c0.2,0.8,0.6,1.5,1.1,2.2
						C16,41.3,16.6,41.8,17.3,42.2"/>
					<path class="st15" d="M14.3,38.5L11.6,37c-0.1-0.4-0.2-0.8-0.3-1.2l2.7,1.5C14.1,37.7,14.2,38.1,14.3,38.5"/>
					<path class="st14" d="M14.1,37.3l-2.7-1.5c0-0.3-0.1-0.7-0.1-1l2.7,1.5C14,36.6,14,36.9,14.1,37.3"/>
					<path class="st13" d="M14,36.2l-2.7-1.5c0-0.3,0-0.7,0.1-1l2.7,1.5C14,35.6,14,35.9,14,36.2"/>
					<path class="st12" d="M14,35.2l-2.7-1.5c0,0,0-0.1,0-0.1c0-0.3,0.1-0.6,0.2-1l2.7,1.5C14.2,34.5,14.1,34.8,14,35.2
						C14.1,35.2,14,35.2,14,35.2"/>
					<path class="st19" d="M14.2,34.2l-2.7-1.5c0.1-0.4,0.2-0.7,0.3-1.1l2.7,1.5C14.4,33.4,14.3,33.8,14.2,34.2"/>
					<path class="st20" d="M14.5,33.1l-2.7-1.5c0.2-0.4,0.4-0.9,0.6-1.3l2.7,1.5C14.9,32.2,14.7,32.6,14.5,33.1"/>
					<path class="st21" d="M15.1,31.8l-2.7-1.5c0.8-1.5,2.1-2.8,3.5-3.6l2.7,1.5C17.2,29,16,30.3,15.1,31.8"/>
					<path class="st20" d="M18.7,28.2l-2.7-1.5c0.4-0.2,0.8-0.4,1.2-0.5l2.7,1.5C19.4,27.8,19,28,18.7,28.2"/>
					<path class="st19" d="M19.9,27.7l-2.7-1.5c0.3-0.1,0.7-0.2,1-0.3l2.7,1.5C20.5,27.5,20.2,27.6,19.9,27.7"/>
					<path class="st12" d="M20.9,27.4l-2.7-1.5c0.1,0,0.2,0,0.3,0c0.2,0,0.4,0,0.6-0.1l2.7,1.5c-0.2,0-0.4,0-0.6,0.1
						C21.1,27.4,21,27.4,20.9,27.4"/>
					<path class="st13" d="M21.8,27.3l-2.7-1.5c0.1,0,0.2,0,0.3,0l2.7,1.5C22,27.3,21.9,27.3,21.8,27.3"/>
				</g>
			</g>
			<g>
				<path class="st22" d="M22.1,27.3c3.9,0,6.7,3.5,6.2,7.8c-0.5,4-3.6,7.2-7.1,7.7c-0.3,0-0.6,0.1-0.9,0.1c-1.9,0-3.6-0.8-4.7-2.3
					c-1.2-1.5-1.7-3.4-1.4-5.5c0.5-4,3.6-7.2,7.1-7.7C21.5,27.3,21.8,27.3,22.1,27.3z M25.6,35.1c0.2-1.3-0.2-2.5-0.9-3.5
					c-0.7-0.9-1.8-1.4-3-1.4c-0.2,0-0.4,0-0.6,0c-1,0.1-1.9,0.6-2.7,1.4c-0.9,0.9-1.6,2.1-1.7,3.5c-0.3,2.7,1.4,4.9,3.9,4.9
					c0.2,0,0.4,0,0.6,0c1-0.1,1.9-0.6,2.7-1.4C24.8,37.6,25.4,36.4,25.6,35.1"/>
			</g>
		</g>
		<g class="st0">
			<g class="st0">
				<defs>
					<path id="SVGID_31_" class="st0" d="M18.7,61.7L16,60.2c0.5,0.3,1.2,0.5,1.8,0.5c0.2,0,0.4,0,0.6,0c1-0.1,1.9-0.6,2.7-1.4
						c1-0.9,1.6-2.1,1.7-3.5l2.7,1.5c-0.2,1.3-0.8,2.5-1.7,3.5c-0.8,0.8-1.7,1.3-2.7,1.4c-0.2,0-0.4,0-0.6,0
						C19.9,62.1,19.2,62,18.7,61.7z"/>
				</defs>
				<clipPath id="SVGID_32_">
					<use xlink:href="#SVGID_31_"  style="overflow:visible;"/>
				</clipPath>
				<g class="st48">
					<path class="st2" d="M18.7,61.7L16,60.2c0.1,0,0.1,0.1,0.2,0.1l2.7,1.5C18.8,61.7,18.8,61.7,18.7,61.7"/>
					<path class="st4" d="M18.9,61.8l-2.7-1.5c0.2,0.1,0.4,0.2,0.7,0.2l2.7,1.5C19.3,62,19.1,61.9,18.9,61.8"/>
					<path class="st5" d="M19.5,62l-2.7-1.5c0.2,0.1,0.4,0.1,0.6,0.1l2.7,1.5C19.9,62.1,19.7,62.1,19.5,62"/>
					<path class="st10" d="M20.1,62.1l-2.7-1.5c0.1,0,0.3,0,0.4,0c0.1,0,0.1,0,0.2,0l2.7,1.5c-0.1,0-0.1,0-0.2,0
						C20.4,62.1,20.2,62.1,20.1,62.1"/>
					<path class="st24" d="M20.7,62.1L18,60.7c0.1,0,0.3,0,0.4,0c0.1,0,0.1,0,0.2,0l2.7,1.5c-0.1,0-0.1,0-0.2,0
						C21,62.1,20.8,62.1,20.7,62.1"/>
					<path class="st27" d="M21.3,62.1l-2.7-1.5c0.2,0,0.4-0.1,0.6-0.2l2.7,1.5C21.7,62,21.5,62,21.3,62.1"/>
					<path class="st28" d="M21.9,61.9l-2.7-1.5c0.3-0.1,0.5-0.2,0.8-0.3l2.7,1.5C22.4,61.7,22.2,61.8,21.9,61.9"/>
					<path class="st29" d="M22.7,61.6l-2.7-1.5c0.4-0.2,0.8-0.5,1.2-0.9c0.4-0.4,0.8-0.9,1.1-1.4l2.7,1.5c-0.3,0.5-0.6,1-1.1,1.4
						C23.5,61.1,23.1,61.4,22.7,61.6"/>
					<path class="st28" d="M24.9,59.3l-2.7-1.5c0.1-0.3,0.3-0.5,0.4-0.8l2.7,1.5C25.1,58.8,25,59.1,24.9,59.3"/>
					<path class="st27" d="M25.2,58.5L22.5,57c0.1-0.2,0.1-0.4,0.2-0.7l2.7,1.5C25.4,58.1,25.3,58.3,25.2,58.5"/>
					<path class="st24" d="M25.4,57.9l-2.7-1.5c0-0.2,0.1-0.4,0.1-0.6l2.7,1.5C25.5,57.5,25.5,57.7,25.4,57.9"/>
				</g>
			</g>
			<g class="st0">
				<defs>
					<path id="SVGID_33_" class="st0" d="M20.8,51.3l2.7,1.5c0.4,0.2,0.8,0.6,1.2,1c0.7,0.9,1,2.1,0.9,3.4l-2.7-1.5
						c0.2-1.3-0.2-2.5-0.9-3.4C21.6,51.9,21.2,51.6,20.8,51.3z"/>
				</defs>
				<clipPath id="SVGID_34_">
					<use xlink:href="#SVGID_33_"  style="overflow:visible;"/>
				</clipPath>
				<g class="st49">
					<path class="st24" d="M25.6,57.3l-2.7-1.5c0,0,0,0,0,0L25.6,57.3C25.6,57.2,25.6,57.2,25.6,57.3"/>
					<path class="st10" d="M25.6,57.2l-2.7-1.5c0-0.2,0-0.4,0-0.6l2.7,1.5C25.6,56.8,25.6,57,25.6,57.2"/>
					<path class="st5" d="M25.6,56.6l-2.7-1.5c0-0.2,0-0.4,0-0.7l2.7,1.5C25.6,56.1,25.6,56.3,25.6,56.6"/>
					<path class="st4" d="M25.5,55.9l-2.7-1.5c0-0.3-0.1-0.5-0.2-0.7l2.7,1.5C25.5,55.4,25.5,55.7,25.5,55.9"/>
					<path class="st2" d="M25.4,55.2l-2.7-1.5c-0.2-0.5-0.4-1-0.7-1.4c-0.3-0.4-0.7-0.7-1.2-1l2.7,1.5c0.4,0.2,0.8,0.6,1.2,1
						C25,54.2,25.2,54.7,25.4,55.2"/>
				</g>
			</g>
			<g class="st0">
				<defs>
					<path id="SVGID_35_" class="st0" d="M17.3,64.3l-2.7-1.5c-0.7-0.4-1.3-0.9-1.8-1.5c-1.2-1.5-1.7-3.4-1.4-5.5
						c0.2-2.1,1.2-4,2.7-5.5c1.3-1.2,2.8-2,4.4-2.2c0.3,0,0.6-0.1,0.9-0.1c1.1,0,2,0.2,2.9,0.7l2.7,1.5c-0.9-0.5-1.9-0.7-2.9-0.7
						c-0.3,0-0.6,0-0.9,0.1c-1.6,0.2-3.1,1-4.4,2.2c-1.5,1.5-2.5,3.4-2.7,5.5c-0.3,2.1,0.3,4,1.4,5.5C15.9,63.4,16.6,64,17.3,64.3z"
						/>
				</defs>
				<clipPath id="SVGID_36_">
					<use xlink:href="#SVGID_35_"  style="overflow:visible;"/>
				</clipPath>
				<g class="st50">
					<path class="st2" d="M17.3,64.3l-2.7-1.5c-0.7-0.4-1.3-0.9-1.8-1.5c-0.5-0.6-0.9-1.4-1.1-2.2l2.7,1.5c0.2,0.8,0.6,1.5,1.1,2.2
						C15.9,63.4,16.6,64,17.3,64.3"/>
					<path class="st4" d="M14.3,60.6l-2.7-1.5c-0.1-0.4-0.2-0.8-0.3-1.2l2.7,1.5C14.1,59.8,14.2,60.2,14.3,60.6"/>
					<path class="st5" d="M14,59.4l-2.7-1.5c0-0.3-0.1-0.7-0.1-1l2.7,1.5C14,58.7,14,59.1,14,59.4"/>
					<path class="st10" d="M14,58.4l-2.7-1.5c0-0.3,0-0.7,0.1-1l2.7,1.5C14,57.7,13.9,58,14,58.4"/>
					<path class="st24" d="M14,57.4l-2.7-1.5c0,0,0-0.1,0-0.1c0-0.3,0.1-0.7,0.2-1l2.7,1.5C14.1,56.6,14.1,56.9,14,57.4
						C14,57.3,14,57.3,14,57.4"/>
					<path class="st27" d="M14.2,56.3l-2.7-1.5c0.1-0.4,0.2-0.7,0.3-1.1l2.7,1.5C14.4,55.6,14.3,55.9,14.2,56.3"/>
					<path class="st28" d="M14.5,55.2l-2.7-1.5c0.2-0.4,0.4-0.9,0.6-1.3l2.7,1.5C14.9,54.4,14.7,54.8,14.5,55.2"/>
					<path class="st29" d="M15.1,54l-2.7-1.5c0.4-0.8,1-1.5,1.7-2.2c0.6-0.6,1.2-1,1.9-1.4l2.7,1.5c-0.7,0.4-1.3,0.8-1.9,1.4
						C16.1,52.4,15.5,53.2,15.1,54"/>
					<path class="st28" d="M18.6,50.4l-2.7-1.5c0.4-0.2,0.8-0.4,1.2-0.5l2.7,1.5C19.4,50,19,50.2,18.6,50.4"/>
					<path class="st27" d="M19.8,49.9l-2.7-1.5c0.3-0.1,0.7-0.2,1-0.3l2.7,1.5C20.5,49.7,20.1,49.7,19.8,49.9"/>
					<path class="st24" d="M20.8,49.6l-2.7-1.5c0.1,0,0.2,0,0.3,0c0.2,0,0.4-0.1,0.7-0.1l2.7,1.5c-0.2,0-0.4,0-0.7,0.1
						C21,49.6,20.9,49.6,20.8,49.6"/>
					<path class="st10" d="M21.8,49.5L19,48c0.1,0,0.2,0,0.3,0c0.2,0,0.4,0,0.6,0l2.7,1.5c-0.2,0-0.4,0-0.6,0
						C22,49.5,21.9,49.5,21.8,49.5"/>
					<path class="st5" d="M22.7,49.5L20,48c0.3,0,0.6,0.1,1,0.2l2.7,1.5C23.3,49.6,23,49.5,22.7,49.5"/>
					<path class="st4" d="M23.6,49.7l-2.7-1.5c0.4,0.1,0.7,0.2,1.1,0.4l2.7,1.5C24.4,49.9,24,49.8,23.6,49.7"/>
					<path class="st2" d="M24.7,50.1L22,48.6c0.1,0,0.2,0.1,0.2,0.1l2.7,1.5C24.9,50.2,24.8,50.1,24.7,50.1"/>
				</g>
			</g>
			<g>
				<path class="st30" d="M26.8,51.7c1.2,1.5,1.7,3.4,1.4,5.5c-0.2,2.1-1.2,4-2.7,5.5c-1.3,1.2-2.8,2-4.4,2.2
					c-0.3,0-0.6,0.1-0.9,0.1c-1.9,0-3.6-0.8-4.7-2.3c-1.2-1.5-1.7-3.4-1.4-5.5c0.2-2.1,1.2-4,2.7-5.5c1.3-1.2,2.8-2,4.4-2.2
					c0.3,0,0.6-0.1,0.9-0.1C23.9,49.5,25.6,50.3,26.8,51.7z M25.6,57.3c0.2-1.3-0.2-2.5-0.9-3.4c-0.7-0.9-1.8-1.4-3-1.4
					c-0.2,0-0.4,0-0.6,0c-1,0.1-1.9,0.6-2.7,1.4c-0.9,0.9-1.6,2.1-1.7,3.5c-0.2,1.3,0.2,2.5,0.9,3.4c0.7,0.9,1.8,1.4,3,1.4
					c0.2,0,0.4,0,0.6,0c1-0.1,1.9-0.6,2.7-1.4C24.8,59.8,25.4,58.6,25.6,57.3"/>
			</g>
		</g>
		<g class="st0">
			<g class="st0">
				<defs>
					<path id="SVGID_37_" class="st0" d="M18.7,83.2l-2.7-1.5c0.5,0.3,1.1,0.5,1.8,0.5c0.2,0,0.4,0,0.6,0c1-0.1,1.9-0.6,2.7-1.4
						c1-0.9,1.6-2.1,1.7-3.5l2.7,1.5c-0.2,1.3-0.8,2.5-1.7,3.5c-0.8,0.8-1.7,1.3-2.7,1.4c-0.2,0-0.4,0-0.6,0
						C19.8,83.6,19.2,83.4,18.7,83.2z"/>
				</defs>
				<clipPath id="SVGID_38_">
					<use xlink:href="#SVGID_37_"  style="overflow:visible;"/>
				</clipPath>
				<g class="st51">
					<path class="st2" d="M18.7,83.2l-2.7-1.5c0.1,0,0.1,0.1,0.2,0.1l2.7,1.5C18.8,83.2,18.7,83.2,18.7,83.2"/>
					<path class="st4" d="M18.8,83.2l-2.7-1.5c0.2,0.1,0.4,0.2,0.7,0.2l2.7,1.5C19.3,83.4,19,83.3,18.8,83.2"/>
					<path class="st5" d="M19.5,83.5L16.7,82c0.2,0.1,0.4,0.1,0.6,0.1l2.7,1.5C19.9,83.6,19.7,83.5,19.5,83.5"/>
					<path class="st10" d="M20.1,83.6l-2.7-1.5c0.1,0,0.3,0,0.4,0c0.1,0,0.1,0,0.2,0l2.7,1.5c-0.1,0-0.1,0-0.2,0
						C20.3,83.6,20.2,83.6,20.1,83.6"/>
					<path class="st24" d="M20.7,83.6l-2.7-1.5c0.1,0,0.3,0,0.4,0c0.1,0,0.1,0,0.2,0l2.7,1.5c-0.1,0-0.1,0-0.2,0
						C20.9,83.6,20.8,83.6,20.7,83.6"/>
					<path class="st27" d="M21.2,83.5L18.5,82c0.2,0,0.4-0.1,0.6-0.2l2.7,1.5C21.7,83.4,21.5,83.5,21.2,83.5"/>
					<path class="st28" d="M21.9,83.4l-2.7-1.5c0.3-0.1,0.5-0.2,0.8-0.3l2.7,1.5C22.4,83.2,22.1,83.3,21.9,83.4"/>
					<path class="st29" d="M22.6,83l-2.7-1.5c0.4-0.2,0.8-0.5,1.2-0.9c0.4-0.4,0.8-0.9,1.1-1.4l2.7,1.5c-0.3,0.5-0.6,1-1.1,1.4
						C23.4,82.5,23,82.8,22.6,83"/>
					<path class="st28" d="M24.8,80.8l-2.7-1.5c0.1-0.3,0.3-0.5,0.4-0.8l2.7,1.5C25.1,80.3,25,80.5,24.8,80.8"/>
					<path class="st27" d="M25.2,80l-2.7-1.5c0.1-0.2,0.1-0.4,0.2-0.7l2.7,1.5C25.4,79.5,25.3,79.8,25.2,80"/>
					<path class="st24" d="M25.4,79.3l-2.7-1.5c0-0.2,0.1-0.4,0.1-0.6l2.7,1.5C25.5,78.9,25.5,79.1,25.4,79.3"/>
				</g>
			</g>
			<g class="st0">
				<defs>
					<path id="SVGID_39_" class="st0" d="M20.7,72.8l2.7,1.5c1.4,0.8,2.3,2.5,2.1,4.4l-2.7-1.5C23,75.3,22.2,73.6,20.7,72.8z"/>
				</defs>
				<clipPath id="SVGID_40_">
					<use xlink:href="#SVGID_39_"  style="overflow:visible;"/>
				</clipPath>
				<g class="st52">
					<path class="st24" d="M25.5,78.7l-2.7-1.5c0,0,0,0,0,0L25.5,78.7C25.5,78.7,25.5,78.7,25.5,78.7"/>
					<path class="st10" d="M25.5,78.7l-2.7-1.5c0-0.2,0-0.4,0-0.6l2.7,1.5C25.6,78.2,25.5,78.5,25.5,78.7"/>
					<path class="st5" d="M25.6,78l-2.7-1.5c0-0.2,0-0.4,0-0.7l2.7,1.5C25.5,77.6,25.6,77.8,25.6,78"/>
					<path class="st4" d="M25.5,77.4l-2.7-1.5c0-0.3-0.1-0.5-0.2-0.8l2.7,1.5C25.4,76.9,25.5,77.1,25.5,77.4"/>
					<path class="st2" d="M25.3,76.6l-2.7-1.5c-0.3-1-1-1.9-1.9-2.3l2.7,1.5C24.3,74.8,25,75.6,25.3,76.6"/>
				</g>
			</g>
			<g class="st0">
				<defs>
					<path id="SVGID_41_" class="st0" d="M22.2,70.2l2.7,1.5c-0.9-0.5-1.8-0.7-2.9-0.7l-2.7-1.5C20.3,69.4,21.3,69.7,22.2,70.2z"/>
				</defs>
				<clipPath id="SVGID_42_">
					<use xlink:href="#SVGID_41_"  style="overflow:visible;"/>
				</clipPath>
				<g class="st53">
					<path class="st10" d="M22,70.9l-2.7-1.5c0.2,0,0.4,0,0.7,0l2.7,1.5C22.4,70.9,22.2,70.9,22,70.9"/>
					<path class="st5" d="M22.6,71l-2.7-1.5c0.3,0,0.6,0.1,0.9,0.2l2.7,1.5C23.3,71.1,23,71,22.6,71"/>
					<path class="st4" d="M23.6,71.1l-2.7-1.5c0.4,0.1,0.7,0.2,1.1,0.4l2.7,1.5C24.3,71.4,24,71.2,23.6,71.1"/>
					<path class="st2" d="M24.6,71.5L21.9,70c0.1,0,0.2,0.1,0.2,0.1l2.7,1.5C24.8,71.6,24.7,71.6,24.6,71.5"/>
				</g>
			</g>
			<g class="st0">
				<defs>
					<path id="SVGID_43_" class="st0" d="M17.2,85.8l-2.7-1.5c-2.3-1.2-3.6-3.9-3.3-7.1c0.2-2.1,1.2-4,2.7-5.5
						c1.3-1.2,2.8-2,4.3-2.2c0.3,0,0.6-0.1,0.9-0.1l2.7,1.5c-0.3,0-0.6,0-0.9,0.1c-1.6,0.2-3.1,1-4.3,2.2c-1.5,1.5-2.5,3.4-2.7,5.5
						C13.6,81.9,15,84.6,17.2,85.8z"/>
				</defs>
				<clipPath id="SVGID_44_">
					<use xlink:href="#SVGID_43_"  style="overflow:visible;"/>
				</clipPath>
				<g class="st54">
					<path class="st2" d="M17.2,85.8l-2.7-1.5c-1.4-0.8-2.5-2.1-3-3.7l2.7,1.5C14.8,83.7,15.8,85,17.2,85.8"/>
					<path class="st4" d="M14.3,82.1l-2.7-1.5c-0.1-0.4-0.2-0.8-0.3-1.2l2.7,1.5C14,81.3,14.1,81.7,14.3,82.1"/>
					<path class="st5" d="M14,80.9l-2.7-1.5c0-0.3-0.1-0.7-0.1-1l2.7,1.5C13.9,80.2,13.9,80.5,14,80.9"/>
					<path class="st10" d="M13.9,79.8l-2.7-1.5c0-0.3,0-0.7,0.1-1l2.7,1.5C13.9,79.2,13.9,79.5,13.9,79.8"/>
					<path class="st24" d="M14,78.8l-2.7-1.5c0,0,0-0.1,0-0.1c0-0.3,0.1-0.7,0.2-1l2.7,1.5C14.1,78.1,14,78.4,14,78.8
						C14,78.8,14,78.8,14,78.8"/>
					<path class="st27" d="M14.1,77.8l-2.7-1.5c0.1-0.4,0.2-0.7,0.3-1.1l2.7,1.5C14.3,77,14.2,77.4,14.1,77.8"/>
					<path class="st28" d="M14.5,76.7l-2.7-1.5c0.2-0.4,0.4-0.9,0.6-1.3l2.7,1.5C14.8,75.8,14.6,76.3,14.5,76.7"/>
					<path class="st29" d="M15,75.4l-2.7-1.5c0.4-0.8,1-1.5,1.7-2.2c0.6-0.6,1.2-1,1.9-1.4l2.7,1.5c-0.7,0.4-1.3,0.8-1.9,1.4
						C16,73.9,15.5,74.6,15,75.4"/>
					<path class="st28" d="M18.6,71.8l-2.7-1.5c0.4-0.2,0.8-0.4,1.2-0.5l2.7,1.5C19.4,71.4,19,71.6,18.6,71.8"/>
					<path class="st27" d="M19.8,71.3L17,69.8c0.3-0.1,0.7-0.2,1-0.3l2.7,1.5C20.4,71.1,20.1,71.2,19.8,71.3"/>
					<path class="st24" d="M20.8,71L18,69.6c0.1,0,0.2,0,0.3,0c0.2,0,0.4,0,0.6-0.1l2.7,1.5c-0.2,0-0.4,0-0.6,0.1
						C21,71,20.9,71,20.8,71"/>
					<path class="st10" d="M21.7,70.9L19,69.5c0.1,0,0.2,0,0.3,0l2.7,1.5C21.9,70.9,21.8,70.9,21.7,70.9"/>
				</g>
			</g>
			<g>
				<path class="st30" d="M22,70.9c3.9,0,6.7,3.5,6.2,7.8c-0.2,2.1-1.2,4-2.7,5.5c-1.3,1.2-2.8,2-4.4,2.2c-0.3,0-0.6,0.1-0.9,0.1
					c-3.9,0-6.7-3.5-6.2-7.8c0.2-2.1,1.2-4,2.7-5.5c1.3-1.2,2.8-2,4.3-2.2C21.4,71,21.7,70.9,22,70.9z M25.5,78.7
					c0.3-2.7-1.4-4.9-3.9-4.9c-0.2,0-0.4,0-0.6,0c-1,0.1-1.9,0.6-2.7,1.4c-0.9,0.9-1.6,2.1-1.7,3.4c-0.3,2.7,1.4,4.9,3.9,4.9
					c0.2,0,0.4,0,0.6,0c1-0.1,1.9-0.6,2.7-1.4C24.7,81.2,25.4,80,25.5,78.7"/>
			</g>
		</g>
	</g>
</g>
</svg>
