<?xml version="1.0" encoding="utf-8"?>
<!-- Generator: Adobe Illustrator 25.4.1, SVG Export Plug-In . SVG Version: 6.00 Build 0)  -->
<svg version="1.1" id="Layer_1" xmlns="http://www.w3.org/2000/svg" xmlns:xlink="http://www.w3.org/1999/xlink" x="0px" y="0px"
	 viewBox="0 0 100 100" style="enable-background:new 0 0 100 100;" xml:space="preserve">
<style type="text/css">
	.st0{fill:#FFFFFF;}
</style>
<g>
	<path class="st0" d="M21.7,52.5c-0.2,0-0.4,0-0.6,0c-1,0.1-1.9,0.6-2.7,1.4c-0.9,0.9-1.6,2.1-1.7,3.5c-0.2,1.3,0.2,2.5,0.9,3.4
		c0.7,0.9,1.8,1.4,3,1.4c0.2,0,0.4,0,0.6,0c1-0.1,1.9-0.6,2.7-1.4c0.9-1,1.5-2.2,1.7-3.5c0.2-1.3-0.2-2.5-0.9-3.4
		C24,53,22.9,52.5,21.7,52.5z"/>
	<path class="st0" d="M89.9,11.5l-2.2-1.2c-1.2-0.7-2.6-1.1-4.2-1.1c-0.5,0-1,0-1.5,0.1l0,0l-65.9,9.3c-0.7,0.1-1.3,0.2-1.9,0.4
		l0.1,0c-0.3,0.1-0.6,0.2-0.9,0.3c-0.1,0-0.2,0.1-0.2,0.1c-0.1,0.1-0.3,0.1-0.4,0.2c-0.2,0.1-0.5,0.2-0.7,0.4
		c-0.1,0-0.2,0.1-0.2,0.1c-0.2,0.2-0.5,0.3-0.7,0.5l0,0c-1.3,0.9-2.4,2.1-3.3,3.4l0,0c-0.6,0.9-1.1,1.8-1.5,2.8c0,0,0,0.1,0,0.1
		c-0.2,0.4-0.3,0.9-0.4,1.3c-0.1,0.2-0.1,0.4-0.1,0.6c0,0.2-0.1,0.4-0.1,0.6c0,0.2-0.1,0.3-0.1,0.5c-0.1,0.5-0.1,1.1-0.1,1.7
		L5.3,81.5c0,0.1,0,0.1,0,0.2l-0.1-0.1c0,2.2,0.6,4.2,1.7,5.9c0,0,0,0,0,0c0,0,0,0,0,0.1c0.2,0.3,0.4,0.5,0.6,0.8
		c0.1,0.1,0.2,0.3,0.3,0.4C8,88.9,8.1,89,8.3,89.2c0.1,0.1,0.3,0.2,0.4,0.3C8.9,89.7,9,89.8,9.2,90c0.3,0.2,0.6,0.4,1,0.6l2.3,1.2
		c-1.3-0.7-2.3-1.7-3.2-3c-0.1-0.1-0.1-0.2-0.2-0.3c-0.1-0.2-0.2-0.3-0.3-0.5c1.8,3.3,5.3,5.2,9.4,4.6l66-9.3
		c5.9-0.8,10.7-6.7,10.7-13L95,20.5C95,16.4,93,13.1,89.9,11.5z M88.1,10.8c-0.2-0.1-0.4-0.1-0.6-0.1C87.8,10.7,88,10.7,88.1,10.8z
		 M89.1,11.1c-0.2-0.1-0.4-0.1-0.5-0.2C88.8,11,88.9,11,89.1,11.1z M87,10.5c-0.2,0-0.3-0.1-0.5-0.1C86.7,10.5,86.9,10.5,87,10.5z
		 M36.1,29.2l50.2-7.1c1.7-0.2,3.1,1.1,3.1,2.9s-1.4,3.5-3.1,3.7L36,35.8c-1.7,0.2-3-1.1-3-2.9C33,31.1,34.4,29.4,36.1,29.2z
		 M28.2,78.7c-0.2,2.1-1.2,4-2.7,5.5c-1.3,1.2-2.8,2-4.4,2.2c-0.3,0-0.6,0.1-0.9,0.1c-3.9,0-6.7-3.5-6.2-7.8c0.2-2.1,1.2-4,2.7-5.5
		c1.3-1.2,2.8-2,4.3-2.2c0.4,0,0.7-0.1,1-0.1C25.9,70.9,28.7,74.4,28.2,78.7z M28.2,57.2c-0.2,2.1-1.2,4-2.7,5.5
		c-1.3,1.2-2.8,2-4.4,2.2c-0.3,0-0.6,0.1-0.9,0.1c-1.9,0-3.6-0.8-4.7-2.3c-1.2-1.5-1.7-3.4-1.4-5.5c0.2-2.1,1.2-4,2.7-5.5
		c1.3-1.2,2.8-2,4.4-2.2c0.3,0,0.6-0.1,0.9-0.1c1.8,0.1,3.5,0.9,4.7,2.3C28,53.2,28.5,55.1,28.2,57.2z M28.3,35.1
		c-0.5,4-3.6,7.2-7.1,7.7c-0.3,0-0.6,0.1-0.9,0.1c-1.9,0-3.6-0.8-4.7-2.3c-1.2-1.5-1.7-3.4-1.4-5.5c0.5-4,3.6-7.2,7.1-7.7
		c0.2-0.1,0.5-0.1,0.8-0.1C26,27.3,28.8,30.8,28.3,35.1z M36.1,50.4l50.2-7.1c1.7-0.2,3.1,1.1,3.1,2.9s-1.4,3.5-3.1,3.7L36,57
		c-1.7,0.2-3-1-3-2.9C33,52.2,34.4,50.6,36.1,50.4z M86.9,72.2l-50.3,7.1c-1.7,0.2-3-1-3-2.9c0-1.8,1.4-3.5,3.1-3.7l50.2-7.1
		c1.7-0.2,3.1,1.1,3.1,2.9S88.6,72,86.9,72.2z"/>
	<path class="st0" d="M21.6,73.8c-0.2,0-0.4,0-0.6,0c-1,0.1-1.9,0.6-2.7,1.4c-0.9,0.9-1.6,2.1-1.7,3.4c-0.3,2.7,1.4,4.9,3.9,4.9
		c0.2,0,0.4,0,0.6,0c1-0.1,1.9-0.6,2.7-1.4c0.9-0.9,1.6-2.1,1.7-3.4C25.8,76,24.1,73.8,21.6,73.8z"/>
	<path class="st0" d="M21.7,30.2c-0.2,0-0.4,0-0.6,0c-1,0.1-1.9,0.6-2.7,1.4c-0.9,0.9-1.6,2.1-1.7,3.5c-0.3,2.7,1.4,4.9,3.9,4.9
		c0.2,0,0.4,0,0.6,0c1-0.1,1.9-0.6,2.7-1.4c0.9-1,1.5-2.2,1.7-3.5c0.2-1.3-0.2-2.5-0.9-3.5C24,30.7,22.9,30.2,21.7,30.2z"/>
</g>
</svg>
