<?xml version="1.0" encoding="utf-8"?>
<!-- Generator: Adobe Illustrator 25.0.0, SVG Export Plug-In . SVG Version: 6.00 Build 0)  -->
<svg version="1.1" id="Layer_1" xmlns="http://www.w3.org/2000/svg" xmlns:xlink="http://www.w3.org/1999/xlink" x="0px" y="0px"
	 viewBox="0 0 100 100" style="enable-background:new 0 0 100 100;" xml:space="preserve">
<style type="text/css">
	.st0{fill:url(#SVGID_1_);}
	.st1{fill:#1357A8;}
	.st2{fill:url(#SVGID_2_);}
	.st3{fill:#8BBCF7;}
	.st4{fill:url(#SVGID_3_);}
</style>
<g>
	<g>
		
			<linearGradient id="SVGID_1_" gradientUnits="userSpaceOnUse" x1="73.957" y1="67.2971" x2="73.957" y2="92.883" gradientTransform="matrix(0.8552 0.5184 0.5184 -0.8552 -29.6448 50.9399)">
			<stop  offset="0.3308" style="stop-color:#1B5FC1"/>
			<stop  offset="1" style="stop-color:#3B82F6"/>
		</linearGradient>
		<path class="st0" d="M77.7,7.4c0.4,0.2,0.8,0.5,0.9,1l3.7,17.2c0.3,1.1-0.8,2.3-2.1,2.3L62.9,28c-0.3,0-0.5-0.1-0.7-0.1
			c-0.9-0.4-1.2-1.6-0.5-2.5L75.3,8.1C75.9,7.3,77,7.1,77.7,7.4z"/>
		<path class="st1" d="M78.4,8l-2.1-3.6l0,0c-0.1-0.1-0.1-0.2-0.2-0.2v0.1l0,0V4.2c0,0,0,0-0.1-0.1c0,0,0,0-0.1-0.1
			s-0.2-0.2-0.4-0.2c-0.1-0.1-0.3-0.1-0.5-0.1l0,0l0,0c-0.1,0-0.1,0-0.2,0h-0.1l0,0h-0.1h-0.1h-0.1h-0.1c0,0,0,0-0.1,0
			s-0.1,0-0.2,0.1l0,0l0,0C74,3.9,73.9,4,73.8,4l0,0c0,0-0.1,0-0.1,0.1l-0.1,0.1l0,0c-0.1,0.1-0.2,0.2-0.3,0.3L59.6,21.8
			c-0.5,0.6-0.5,1.4-0.2,1.9l2.1,3.6c-0.3-0.5-0.3-1.3,0.2-1.9L75.3,8.1c0.1-0.1,0.2-0.2,0.3-0.3c0,0,0.1-0.1,0.2-0.1l0.1-0.1
			c0.1-0.1,0.2-0.1,0.3-0.1l0,0c0.1,0,0.2-0.1,0.3-0.1h0.1c0.1,0,0.1,0,0.2,0h0.1c0.1,0,0.1,0,0.2,0s0.1,0,0.2,0h0.1
			c0.2,0,0.3,0.1,0.5,0.1c0.1,0.1,0.2,0.1,0.4,0.2c0,0,0,0,0.1,0.1C78.3,7.8,78.4,7.9,78.4,8L78.4,8L78.4,8z"/>
	</g>
	<radialGradient id="SVGID_2_" cx="49.6666" cy="53.2083" r="45.9484" fx="49.7584" fy="53.555" gradientUnits="userSpaceOnUse">
		<stop  offset="0.4186" style="stop-color:#3B82F6"/>
		<stop  offset="0.681" style="stop-color:#1B5FC1"/>
	</radialGradient>
	<ellipse class="st2" cx="50.8" cy="52.2" rx="47.9" ry="42.1"/>
	<path class="st3" d="M55.8,59.7c-6.1-0.4-6.1-13.7-2.4-17c3.2-2.9,6.9,3.4,6.8,9.5C60,56.4,58.1,59.6,55.8,59.7 M86.5,54.3
		c-1.8,0.4-3.4-3.1-4.2-5.2c-2-5.2-2.8-10-2-11.3c1.2-1.8,5.8,2.9,7.2,9.3C88.3,50.6,87.9,53.8,86.5,54.3 M73.4,26.7
		c-2.6,1.1-6.3,2-10.8,2.6c-2.9,0.4-5.9,0.6-8.9,0.7c-5.7,0.5-10.7,6.1-12,13.5c-0.6,4.3-1,8.8-1.2,13.4c0,9.4,6.1,15.9,15.2,16.1
		c4.9-0.2,9.7-0.5,14.4-1.2c7.3-1,13.2-2.4,17.5-4.2C92.7,65,95,57,93.1,48.1c-1.1-4.4-2.9-8.5-5.3-12.3C82,27.2,75.5,26,73.4,26.7"
		/>
	<g>
		
			<linearGradient id="SVGID_3_" gradientUnits="userSpaceOnUse" x1="27.262" y1="62.3848" x2="27.262" y2="87.9482" gradientTransform="matrix(1 0 0 -1 0 100)">
			<stop  offset="0.3308" style="stop-color:#1B5FC1"/>
			<stop  offset="1" style="stop-color:#3B82F6"/>
		</linearGradient>
		<path class="st4" d="M22.5,12.1c0.5-0.1,0.9,0.1,1.3,0.4l12.1,12.8c0.8,0.8,0.5,2.4-0.6,3.1l-14.7,9c-0.2,0.1-0.5,0.2-0.7,0.3
			c-1,0.1-1.9-0.7-1.7-1.9L20.7,14C20.9,12.9,21.7,12.2,22.5,12.1z"/>
		<path class="st1" d="M23.4,12.2l-3.6-2c0,0,0,0-0.1,0s-0.2-0.1-0.3-0.1h0.1l0,0h-0.1h-0.1h-0.1c-0.1,0-0.3,0-0.4,0
			c-0.2,0-0.3,0.1-0.5,0.1l0,0l0,0c-0.1,0-0.1,0.1-0.2,0.1c0,0-0.1,0-0.1,0.1l0,0c0,0-0.1,0-0.1,0.1c0,0-0.1,0-0.1,0.1
			c0,0,0,0-0.1,0.1c0,0,0,0-0.1,0.1l0,0c0,0.1-0.1,0.1-0.1,0.2l0,0l0,0c-0.1,0.1-0.1,0.1-0.1,0.2l0,0c0,0,0,0.1-0.1,0.1
			c0,0,0,0.1-0.1,0.1c0,0,0,0,0,0.1s-0.1,0.3-0.1,0.5l-2.7,21.8c-0.1,0.8,0.3,1.4,0.8,1.7l3.6,2c-0.5-0.3-0.9-0.9-0.8-1.7L20.7,14
			c0-0.2,0.1-0.3,0.1-0.5c0-0.1,0-0.1,0.1-0.2c0,0,0-0.1,0.1-0.1c0-0.1,0.1-0.2,0.2-0.3l0,0c0.1-0.1,0.1-0.2,0.2-0.2
			c0,0,0,0,0.1-0.1s0.1-0.1,0.2-0.1c0,0,0.1,0,0.1-0.1l0.1-0.1c0.1,0,0.1-0.1,0.2-0.1h0.1c0.2-0.1,0.3-0.1,0.5-0.1
			c0.1,0,0.3,0,0.4,0h0.1C23.1,12.1,23.3,12.2,23.4,12.2L23.4,12.2L23.4,12.2z"/>
	</g>
</g>
</svg>
