<?xml version="1.0" encoding="utf-8"?>
<!-- Generator: Adobe Illustrator 25.4.1, SVG Export Plug-In . SVG Version: 6.00 Build 0)  -->
<svg version="1.1" id="Layer_1" xmlns="http://www.w3.org/2000/svg" xmlns:xlink="http://www.w3.org/1999/xlink" x="0px" y="0px"
	 viewBox="0 0 100 100" style="enable-background:new 0 0 100 100;" xml:space="preserve">
<style type="text/css">
	.st0{fill:#FFFFFF;}
</style>
<g>
	<path class="st0" d="M81,19.5L78.6,8.4c0-0.2-0.1-0.3-0.2-0.4c0-0.1-0.1-0.2,0-0.2c-0.1-0.1-0.1-0.1-0.1-0.1c0,0-0.1,0-0.1,0
		l0.1,0.2c-0.1-0.1-0.3-0.3-0.5-0.4c0,0,0,0,0,0c0.1,0.1,0.2,0.1,0.3,0.2l-1.9-3.3c-0.1-0.1-0.1-0.2-0.2-0.2c0,0,0,0-0.1-0.1
		c0,0,0,0-0.1-0.1c-0.1-0.1-0.2-0.2-0.4-0.2c-0.1-0.1-0.3-0.1-0.5-0.1c-0.1,0-0.1,0-0.2,0h-0.1h-0.1h-0.1h-0.1h-0.1c0,0,0,0-0.1,0
		c-0.1,0-0.1,0-0.2,0.1C74,3.9,73.9,4,73.8,4c0,0-0.1,0-0.1,0.1l-0.1,0.1c-0.1,0.1-0.2,0.2-0.3,0.3l-6.4,8.1
		c-5-1.6-10.5-2.5-16.1-2.5c-8.7,0-16.9,2.1-23.9,5.6l-3.1-3.2c-0.3-0.2-0.5-0.3-0.8-0.4c0.1,0,0.1,0,0.1,0h0.1
		c-0.1,0,0.1,0.1,0.2,0.1l-3.6-2c0,0,0,0-0.1,0c-0.1,0-0.2-0.1-0.3-0.1h-0.1h-0.1c-0.1,0-0.3,0-0.4,0c-0.2,0-0.3,0.1-0.5,0.1
		c-0.1,0-0.1,0.1-0.2,0.1c0,0-0.1,0-0.1,0.1c0,0-0.1,0-0.1,0.1c0,0-0.1,0-0.1,0.1c0,0,0,0-0.1,0.1c0,0,0,0-0.1,0.1
		c0,0.1-0.1,0.1-0.1,0.2c-0.1,0.1-0.1,0.1-0.1,0.2c0,0,0,0.1-0.1,0.1c0,0,0,0.1-0.1,0.1c0,0,0,0,0,0.1s-0.1,0.3-0.1,0.5l-1.4,11.6
		C7.7,31.1,2.9,41.2,2.9,52.2c0,23.3,21.4,42.1,47.9,42.1c26.5,0,47.9-18.8,47.9-42.1C98.7,39,91.8,27.2,81,19.5z M20.7,14L20,20
		c0,0,0,0-0.1,0L20.7,14c0-0.2,0.1-0.3,0.1-0.5c0-0.1,0-0.1,0.1-0.2c0,0,0-0.1,0.1-0.1C20.9,13.4,20.8,13.7,20.7,14z M21,13.2
		c0-0.1,0.1-0.2,0.2-0.3c0.1-0.1,0.1-0.1,0.1-0.2C21.2,12.9,21.1,13,21,13.2z M22,12.3c0,0,0.1-0.1,0.1-0.1h0.1
		C22.1,12.2,22,12.2,22,12.3z M75.7,7.7c-0.1,0-0.1,0.1-0.2,0.1C75.6,7.8,75.6,7.8,75.7,7.7C75.6,7.8,75.6,7.8,75.7,7.7z M87.6,67.6
		c-4.3,1.8-10.2,3.2-17.5,4.2c-4.7,0.7-9.5,1-14.4,1.2c-9.1-0.2-15.2-6.7-15.2-16.1c0.2-4.6,0.6-9.1,1.2-13.4
		c1.3-7.4,6.3-13,12-13.5c3-0.1,6-0.3,8.9-0.7c4.5-0.6,8.2-1.5,10.8-2.6c2.1-0.7,8.6,0.5,14.4,9.1c2.4,3.8,4.2,7.9,5.3,12.3
		C95,57,92.7,65,87.6,67.6z"/>
	<path class="st0" d="M80.3,37.8c-0.8,1.3,0,6.1,2,11.3c0.8,2.1,2.4,5.6,4.2,5.2c1.4-0.5,1.8-3.7,1-7.2C86.1,40.7,81.5,36,80.3,37.8
		z"/>
	<path class="st0" d="M53.4,42.7c-3.7,3.3-3.7,16.6,2.4,17c2.3-0.1,4.2-3.3,4.4-7.5C60.3,46.1,56.6,39.8,53.4,42.7z"/>
</g>
</svg>
