<?xml version="1.0" encoding="utf-8"?>
<!-- Generator: Adobe Illustrator 25.4.1, SVG Export Plug-In . SVG Version: 6.00 Build 0)  -->
<svg version="1.1" id="Layer_1" xmlns="http://www.w3.org/2000/svg" xmlns:xlink="http://www.w3.org/1999/xlink" x="0px" y="0px"
	 viewBox="0 0 100 100" style="enable-background:new 0 0 100 100;" xml:space="preserve">
<style type="text/css">
	.st0{fill:#FFFFFF;}
</style>
<path class="st0" d="M93.4,51.3c1-2,1.6-4.1,1.6-6.4c0-7.7-6.4-14.3-15.5-17.1c-1.8-10.4-10-18.3-19.8-18.3c-8,0-15,5.3-18.2,12.8
	C39,20,35.7,18.5,32,18.5c-7.2,0-13.1,5.5-14.1,12.7C9,33.9,2.7,41.2,2.7,49.8c0,8.9,6.9,16.5,16.3,18.8c1.1,0.5,2.4,0.8,3.7,0.8
	h6.5c0.2,0.5,0.5,1,0.7,1.5c0.1,0.1,0.1,0.3,0,0.5l0.1,0c-0.7,1.2-1.5,2.4-2.2,3.6c-0.5,0.7-0.9,1.5-1.4,2.3
	c2.4,2.3,4.8,4.5,7.4,6.7l5.5,3c-2.6-2.2-5-4.4-7.4-6.7c0.4-0.8,0.9-1.6,1.4-2.3c0.7-1.2,1.5-2.4,2.2-3.6l-0.1,0c0,0,0,0,0,0l0.1,0
	c0.1-0.2,0.1-0.3,0-0.5c-0.8-1.4-1.4-2.9-1.8-4.5h0.1c0.4,1.6,1.1,3.1,1.8,4.5c0.1,0.1,0.1,0.3,0,0.5c-0.7,1.2-1.5,2.4-2.2,3.6
	c-0.5,0.7-0.9,1.5-1.4,2.3c2.4,2.3,4.8,4.5,7.4,6.7c1.7-1.4,3.2-2.8,4.8-4.3c0.1,1.4,0.4,2.8,0.6,4.1c0,0.1,0,0.2,0.1,0.3l5.5,3
	c-0.1,0-0.1-0.2-0.1-0.3c-0.2-1.6-0.5-3.2-0.7-4.9c-0.1-0.6-0.2-0.9-0.6-1.1l-0.3-0.2c0.6,0.2,0.9,0.5,1,1.3
	c0.1,1.6,0.4,3.3,0.7,4.9c0,0.2,0,0.3,0.3,0.3c1.6-0.2,3.3-0.5,4.9-0.7c1.6-0.2,3.3-0.5,4.9-0.7c0.2,0,0.3-0.1,0.3-0.3
	c0-0.4,0.1-0.7,0.1-1c0.3-1.7,0.5-3.5,0.8-5.2c0-0.1,0.2-0.3,0.3-0.4c1.5-0.8,2.8-1.6,4.2-2.5l5.4,2.9c0.1,0.1,0.2,0.1,0.3,0.1
	c0.1,0,0.2-0.1,0.3-0.2c2.3-2.8,4.5-5.6,6.8-8.3c0.1-0.2,0.1-0.3,0-0.5c-0.9-1.3-1.9-2.6-2.8-3.9h11.5c5.3,0,9.7-4.5,9.7-10.1
	C97.3,56,95.8,53.1,93.4,51.3z M49.2,69.8l0.5,0.3c0.4,0.2,0.7,0.4,1.1,0.5C50.2,70.4,49.7,70.1,49.2,69.8z M66.9,79.2
	c1.1,0.7,2.1,1.3,3.2,2C69,80.6,68,79.9,66.9,79.2z"/>
</svg>
