<?xml version="1.0" encoding="utf-8"?>
<!-- Generator: Adobe Illustrator 25.0.0, SVG Export Plug-In . SVG Version: 6.00 Build 0)  -->
<svg version="1.1" id="Layer_1" xmlns="http://www.w3.org/2000/svg" xmlns:xlink="http://www.w3.org/1999/xlink" x="0px" y="0px"
	 viewBox="0 0 100 100" style="enable-background:new 0 0 100 100;" xml:space="preserve">
<style type="text/css">
	.st0{fill:url(#SVGID_1_);}
	.st1{fill:url(#SVGID_2_);}
	.st2{fill:url(#SVGID_3_);}
	.st3{fill:url(#SVGID_4_);}
	.st4{enable-background:new    ;}
	.st5{clip-path:url(#SVGID_6_);enable-background:new    ;}
	.st6{fill:#044B5D;}
	.st7{clip-path:url(#SVGID_8_);enable-background:new    ;}
	.st8{clip-path:url(#SVGID_10_);enable-background:new    ;}
	.st9{clip-path:url(#SVGID_12_);enable-background:new    ;}
	.st10{clip-path:url(#SVGID_14_);enable-background:new    ;}
	.st11{clip-path:url(#SVGID_16_);enable-background:new    ;}
	.st12{clip-path:url(#SVGID_18_);enable-background:new    ;}
	.st13{clip-path:url(#SVGID_20_);enable-background:new    ;}
	.st14{clip-path:url(#SVGID_22_);enable-background:new    ;}
	.st15{clip-path:url(#SVGID_24_);enable-background:new    ;}
	.st16{clip-path:url(#SVGID_26_);enable-background:new    ;}
	.st17{clip-path:url(#SVGID_28_);enable-background:new    ;}
	.st18{clip-path:url(#SVGID_30_);enable-background:new    ;}
	.st19{clip-path:url(#SVGID_32_);enable-background:new    ;}
	.st20{clip-path:url(#SVGID_34_);enable-background:new    ;}
	.st21{clip-path:url(#SVGID_36_);enable-background:new    ;}
	.st22{clip-path:url(#SVGID_38_);enable-background:new    ;}
	.st23{clip-path:url(#SVGID_40_);enable-background:new    ;}
	.st24{clip-path:url(#SVGID_42_);enable-background:new    ;}
	.st25{fill:#088EAE;}
</style>
<linearGradient id="SVGID_1_" gradientUnits="userSpaceOnUse" x1="50" y1="69.3411" x2="50" y2="9.5409">
	<stop  offset="0" style="stop-color:#32A4BF"/>
	<stop  offset="0.4605" style="stop-color:#61B9CE"/>
</linearGradient>
<path class="st0" d="M93.4,51.3c1-2,1.6-4.1,1.6-6.4c0-7.7-6.4-14.3-15.5-17.1c-1.8-10.4-10-18.3-19.8-18.3c-8,0-15,5.3-18.2,12.8
	c-2.5-2.3-5.8-3.8-9.5-3.8c-7.2,0-13.1,5.5-14.1,12.7C9,33.9,2.7,41.2,2.7,49.8c0,8.9,6.9,16.5,16.3,18.8c1.1,0.5,2.4,0.8,3.7,0.8
	h65c5.3,0,9.7-4.5,9.7-10.1C97.3,56,95.8,53.1,93.4,51.3z"/>
<radialGradient id="SVGID_2_" cx="32.8894" cy="37.1809" r="8.4456" gradientTransform="matrix(1.2236 0 0 1.2725 -9.5776 -10.0732)" gradientUnits="userSpaceOnUse">
	<stop  offset="0" style="stop-color:#BAE0E9"/>
	<stop  offset="1" style="stop-color:#61B9CE;stop-opacity:0"/>
</radialGradient>
<ellipse class="st1" cx="30.7" cy="37.2" rx="10.3" ry="10.7"/>
<radialGradient id="SVGID_3_" cx="55.7742" cy="29.5811" r="11.3062" gradientTransform="matrix(1.2236 0 0 1.2725 -9.5776 -10.0732)" gradientUnits="userSpaceOnUse">
	<stop  offset="0" style="stop-color:#BAE0E9"/>
	<stop  offset="0.2239" style="stop-color:#B6DFE8;stop-opacity:0.7761"/>
	<stop  offset="0.4322" style="stop-color:#ABDAE5;stop-opacity:0.5678"/>
	<stop  offset="0.6343" style="stop-color:#98D1DF;stop-opacity:0.3657"/>
	<stop  offset="0.8314" style="stop-color:#7EC5D7;stop-opacity:0.1686"/>
	<stop  offset="1" style="stop-color:#61B9CE;stop-opacity:0"/>
</radialGradient>
<ellipse class="st2" cx="58.7" cy="27.6" rx="13.8" ry="14.4"/>
<radialGradient id="SVGID_4_" cx="74.164" cy="41.7048" r="8.5821" gradientTransform="matrix(1.2236 0 0 1.2725 -9.5776 -10.0732)" gradientUnits="userSpaceOnUse">
	<stop  offset="0" style="stop-color:#BAE0E9"/>
	<stop  offset="0.1812" style="stop-color:#B4DDE8;stop-opacity:0.8188"/>
	<stop  offset="0.4258" style="stop-color:#A3D6E2;stop-opacity:0.5742"/>
	<stop  offset="0.7068" style="stop-color:#86C9D9;stop-opacity:0.2932"/>
	<stop  offset="1" style="stop-color:#61B9CE;stop-opacity:0"/>
</radialGradient>
<ellipse class="st3" cx="81.2" cy="43" rx="10.5" ry="10.9"/>
<g id="auhGPK_1_">
	<g class="st4">
		<g class="st4">
			<defs>
				<path id="SVGID_5_" class="st4" d="M71.7,82.3l-5.5-3c0,0,0,0,0,0L71.7,82.3C71.6,82.3,71.6,82.3,71.7,82.3z"/>
			</defs>
			<clipPath id="SVGID_6_">
				<use xlink:href="#SVGID_5_"  style="overflow:visible;"/>
			</clipPath>
			<g class="st5">
				<path class="st6" d="M71.7,82.3l-5.5-3c0,0,0,0,0,0L71.7,82.3C71.6,82.3,71.6,82.3,71.7,82.3"/>
			</g>
		</g>
		<g class="st4">
			<defs>
				<path id="SVGID_7_" class="st4" d="M78.1,46.8l5.5,3c-0.1,0-0.1,0-0.2,0l-5.5-3C78,46.8,78.1,46.8,78.1,46.8z"/>
			</defs>
			<clipPath id="SVGID_8_">
				<use xlink:href="#SVGID_7_"  style="overflow:visible;"/>
			</clipPath>
			<g class="st7">
				<path class="st6" d="M83.4,49.8l-5.5-3c0.1,0,0.1,0,0.2,0l5.5,3C83.6,49.8,83.5,49.8,83.4,49.8"/>
			</g>
		</g>
		<g class="st4">
			<defs>
				<path id="SVGID_9_" class="st4" d="M71.6,82.2l-5.5-3c-1.6-1-3.1-2-4.7-3l5.5,3C68.5,80.3,70.1,81.2,71.6,82.2z"/>
			</defs>
			<clipPath id="SVGID_10_">
				<use xlink:href="#SVGID_9_"  style="overflow:visible;"/>
			</clipPath>
			<g class="st8">
				<path class="st6" d="M71.6,82.2l-5.5-3c-1.6-1-3.1-2-4.7-3l5.5,3C68.5,80.3,70.1,81.2,71.6,82.2"/>
			</g>
		</g>
		<g class="st4">
			<defs>
				<path id="SVGID_11_" class="st4" d="M61.4,76.3l5.5,3c0,0,0,0,0,0L61.4,76.3C61.4,76.3,61.4,76.3,61.4,76.3z"/>
			</defs>
			<clipPath id="SVGID_12_">
				<use xlink:href="#SVGID_11_"  style="overflow:visible;"/>
			</clipPath>
			<g class="st9">
				<path class="st6" d="M66.9,79.3l-5.5-3c0,0,0,0,0,0L66.9,79.3C66.9,79.2,66.9,79.2,66.9,79.3"/>
			</g>
		</g>
		<g class="st4">
			<defs>
				<path id="SVGID_13_" class="st4" d="M77.7,49.5l-5.5-3c1.9,0.1,3.8,0.1,5.8,0.2l5.5,3C81.5,49.7,79.6,49.6,77.7,49.5z"/>
			</defs>
			<clipPath id="SVGID_14_">
				<use xlink:href="#SVGID_13_"  style="overflow:visible;"/>
			</clipPath>
			<g class="st10">
				<path class="st6" d="M77.7,49.5l-5.5-3c1.9,0.1,3.8,0.1,5.8,0.2l5.5,3C81.5,49.7,79.6,49.6,77.7,49.5"/>
			</g>
		</g>
		<g class="st4">
			<defs>
				<path id="SVGID_15_" class="st4" d="M77.5,49.5l-5.5-3c0.1,0,0.1,0,0.2,0l5.5,3C77.6,49.5,77.5,49.5,77.5,49.5z"/>
			</defs>
			<clipPath id="SVGID_16_">
				<use xlink:href="#SVGID_15_"  style="overflow:visible;"/>
			</clipPath>
			<g class="st11">
				<path class="st6" d="M77.5,49.5l-5.5-3c0.1,0,0.1,0,0.2,0l5.5,3C77.6,49.5,77.5,49.5,77.5,49.5"/>
			</g>
		</g>
		<g class="st4">
			<defs>
				<path id="SVGID_17_" class="st4" d="M50.4,90.1l-5.5-3c-0.1-0.1-0.1-0.2-0.1-0.3c-0.3-1.6-0.6-3.3-0.7-4.9
					c-0.1-0.6-0.2-0.9-0.6-1.1l5.5,3c0.4,0.2,0.5,0.5,0.6,1.1c0.2,1.7,0.5,3.3,0.7,4.9C50.3,89.9,50.3,90.1,50.4,90.1z"/>
			</defs>
			<clipPath id="SVGID_18_">
				<use xlink:href="#SVGID_17_"  style="overflow:visible;"/>
			</clipPath>
			<g class="st12">
				<path class="st6" d="M50.4,90.1l-5.5-3c-0.1-0.1-0.1-0.2-0.1-0.3c-0.3-1.6-0.6-3.3-0.7-4.9c-0.1-0.6-0.2-0.9-0.6-1.1l5.5,3
					c0.4,0.2,0.5,0.5,0.6,1.1c0.2,1.7,0.5,3.3,0.7,4.9C50.3,89.9,50.3,90.1,50.4,90.1"/>
			</g>
		</g>
		<g class="st4">
			<defs>
				<path id="SVGID_19_" class="st4" d="M49.7,70.1l-5.5-3c1.7,0.9,3.6,1.3,5.7,1l5.5,3C53.3,71.4,51.3,71,49.7,70.1z"/>
			</defs>
			<clipPath id="SVGID_20_">
				<use xlink:href="#SVGID_19_"  style="overflow:visible;"/>
			</clipPath>
			<g class="st13">
				<path class="st6" d="M49.7,70.1l-5.5-3c1.7,0.9,3.6,1.3,5.7,1l5.5,3C53.3,71.4,51.3,71,49.7,70.1"/>
			</g>
		</g>
		<g class="st4">
			<defs>
				<path id="SVGID_21_" class="st4" d="M55.8,45.6l5.5,3c3,1.7,5.1,5,5.1,9.2c0,6.6-4.8,12.5-11,13.4l-5.5-3
					c6.1-0.9,11-6.8,11-13.4C60.9,50.6,58.8,47.2,55.8,45.6z"/>
			</defs>
			<clipPath id="SVGID_22_">
				<use xlink:href="#SVGID_21_"  style="overflow:visible;"/>
			</clipPath>
			<g class="st14">
				<path class="st6" d="M55.4,71.1l-5.5-3c6.1-0.9,11-6.8,11-13.4c0-4.1-2.1-7.5-5.1-9.2l5.5,3c3,1.7,5.1,5,5.1,9.2
					C66.4,64.3,61.5,70.2,55.4,71.1"/>
			</g>
		</g>
		<g class="st4">
			<defs>
				<path id="SVGID_23_" class="st4" d="M66.5,28.6l5.5,3c-0.1,0-0.1,0-0.2,0c-0.1,0-0.2,0.1-0.3,0.2c-1.6,1.4-3.2,2.8-4.7,4.2
					l-5.5-3c1.6-1.4,3.2-2.8,4.7-4.2c0.1-0.1,0.2-0.1,0.3-0.2C66.4,28.6,66.5,28.6,66.5,28.6z"/>
			</defs>
			<clipPath id="SVGID_24_">
				<use xlink:href="#SVGID_23_"  style="overflow:visible;"/>
			</clipPath>
			<g class="st15">
				<path class="st6" d="M66.8,35.9l-5.5-3c1.6-1.4,3.2-2.8,4.7-4.2c0.1-0.1,0.2-0.1,0.3-0.2c0.1,0,0.1,0,0.2,0l5.5,3
					c-0.1,0-0.1,0-0.2,0c-0.1,0-0.2,0.1-0.3,0.2C70,33.1,68.4,34.5,66.8,35.9"/>
			</g>
		</g>
		<g class="st4">
			<defs>
				<path id="SVGID_25_" class="st4" d="M62.1,34.7l-5.5-3c0.1,0.1,0.3,0.1,0.5,0.2c1.3,0.3,2.5,0.8,3.7,1.2c0.1,0,0.2,0,0.3,0
					c0.1,0,0.2-0.1,0.3-0.1l5.5,3c-0.1,0.1-0.2,0.1-0.3,0.1c-0.1,0-0.2,0-0.3,0c-1.2-0.4-2.4-0.9-3.7-1.2
					C62.4,34.8,62.2,34.8,62.1,34.7z"/>
			</defs>
			<clipPath id="SVGID_26_">
				<use xlink:href="#SVGID_25_"  style="overflow:visible;"/>
			</clipPath>
			<g class="st16">
				<path class="st6" d="M62.1,34.7l-5.5-3c0.1,0.1,0.3,0.1,0.5,0.2c1.3,0.3,2.5,0.8,3.7,1.2c0.1,0,0.2,0,0.3,0
					c0.1,0,0.2-0.1,0.3-0.1l5.5,3c-0.1,0.1-0.2,0.1-0.3,0.1c-0.1,0-0.2,0-0.3,0c-1.2-0.4-2.4-0.9-3.7-1.2
					C62.4,34.8,62.2,34.8,62.1,34.7"/>
			</g>
		</g>
		<g class="st4">
			<defs>
				<path id="SVGID_27_" class="st4" d="M31.9,80.3l-5.5-3c0.5-0.8,0.9-1.6,1.4-2.3c0.7-1.2,1.5-2.4,2.2-3.6l5.5,3
					c-0.7,1.2-1.5,2.4-2.2,3.6C32.8,78.7,32.3,79.5,31.9,80.3z"/>
			</defs>
			<clipPath id="SVGID_28_">
				<use xlink:href="#SVGID_27_"  style="overflow:visible;"/>
			</clipPath>
			<g class="st17">
				<path class="st6" d="M31.9,80.3l-5.5-3c0.5-0.8,0.9-1.6,1.4-2.3c0.7-1.2,1.5-2.4,2.2-3.6l5.5,3c-0.7,1.2-1.5,2.4-2.2,3.6
					C32.8,78.7,32.3,79.5,31.9,80.3"/>
			</g>
		</g>
		<g class="st4">
			<defs>
				<path id="SVGID_29_" class="st4" d="M39.3,87l-5.5-3c-2.6-2.2-5-4.4-7.4-6.7l5.5,3C34.3,82.6,36.7,84.8,39.3,87z"/>
			</defs>
			<clipPath id="SVGID_30_">
				<use xlink:href="#SVGID_29_"  style="overflow:visible;"/>
			</clipPath>
			<g class="st18">
				<path class="st6" d="M39.3,87l-5.5-3c-2.6-2.2-5-4.4-7.4-6.7l5.5,3C34.3,82.6,36.7,84.8,39.3,87"/>
			</g>
		</g>
		<g class="st4">
			<defs>
				<path id="SVGID_31_" class="st4" d="M28,66.2l5.5,3c0.1,0,0.1,0.1,0.2,0.2c0.4,1.6,1,3.1,1.8,4.5c0.1,0.2,0.1,0.3,0,0.5l-5.5-3
					c0.1-0.2,0.1-0.4,0-0.5c-0.7-1.4-1.4-2.9-1.8-4.5C28.1,66.3,28.1,66.2,28,66.2z"/>
			</defs>
			<clipPath id="SVGID_32_">
				<use xlink:href="#SVGID_31_"  style="overflow:visible;"/>
			</clipPath>
			<g class="st19">
				<path class="st6" d="M35.4,74.4l-5.5-3c0.1-0.2,0.1-0.4,0-0.5c-0.7-1.4-1.4-2.9-1.8-4.5c0-0.1-0.1-0.2-0.2-0.2l5.5,3
					c0.1,0,0.1,0.1,0.2,0.2c0.4,1.6,1,3.1,1.8,4.5C35.6,74,35.6,74.2,35.4,74.4"/>
			</g>
		</g>
		<g class="st4">
			<defs>
				<path id="SVGID_33_" class="st4" d="M44.2,39.2l-5.5-3c0.1,0.1,0.2,0.1,0.3,0.1c0.1,0,0.2-0.1,0.3-0.1c1.4-1,2.7-1.8,4.2-2.5
					c0.2-0.1,0.3-0.2,0.4-0.5c0.3-2.1,0.6-4.2,1-6.3c0-0.2,0.1-0.4,0.4-0.4c1.6-0.2,3.2-0.4,4.9-0.7s3.2-0.5,4.9-0.7
					c0.1,0,0.2,0,0.2,0l5.5,3c-0.1,0-0.1,0-0.2,0c-1.6,0.2-3.2,0.5-4.9,0.7s-3.2,0.5-4.9,0.7c-0.3,0-0.3,0.2-0.4,0.4
					c-0.3,2.1-0.7,4.2-1,6.3c0,0.3-0.2,0.4-0.4,0.5c-1.5,0.7-2.9,1.5-4.2,2.5c-0.1,0.1-0.2,0.1-0.3,0.1
					C44.4,39.3,44.3,39.3,44.2,39.2z"/>
			</defs>
			<clipPath id="SVGID_34_">
				<use xlink:href="#SVGID_33_"  style="overflow:visible;"/>
			</clipPath>
			<g class="st20">
				<path class="st6" d="M44.2,39.2l-5.5-3c0.1,0.1,0.2,0.1,0.3,0.1c0.1,0,0.2-0.1,0.3-0.1c1.4-1,2.7-1.8,4.2-2.5
					c0.2-0.1,0.3-0.2,0.4-0.5c0.3-2.1,0.6-4.2,1-6.3c0-0.2,0.1-0.4,0.4-0.4c1.6-0.2,3.2-0.4,4.9-0.7s3.2-0.5,4.9-0.7
					c0.1,0,0.2,0,0.2,0l5.5,3c-0.1,0-0.1,0-0.2,0c-1.6,0.2-3.2,0.5-4.9,0.7s-3.2,0.5-4.9,0.7c-0.3,0-0.3,0.2-0.4,0.4
					c-0.3,2.1-0.7,4.2-1,6.3c0,0.3-0.2,0.4-0.4,0.5c-1.5,0.7-2.9,1.5-4.2,2.5c-0.1,0.1-0.2,0.1-0.3,0.1
					C44.4,39.3,44.3,39.3,44.2,39.2"/>
			</g>
		</g>
		<g class="st4">
			<defs>
				<path id="SVGID_35_" class="st4" d="M27.6,57.6l-5.5-3c1.9-0.6,3.8-1.1,5.7-1.7l5.5,3C31.4,56.5,29.5,57.1,27.6,57.6z"/>
			</defs>
			<clipPath id="SVGID_36_">
				<use xlink:href="#SVGID_35_"  style="overflow:visible;"/>
			</clipPath>
			<g class="st21">
				<path class="st6" d="M27.6,57.6l-5.5-3c1.9-0.6,3.8-1.1,5.7-1.7l5.5,3C31.4,56.5,29.5,57.1,27.6,57.6"/>
			</g>
		</g>
		<g class="st4">
			<defs>
				<path id="SVGID_37_" class="st4" d="M34,33.3l5.5,3c-0.1,0-0.1,0-0.2,0c-0.1,0-0.1,0.1-0.2,0.2l-5.5-3c0.1-0.1,0.2-0.2,0.2-0.2
					C33.9,33.3,33.9,33.3,34,33.3z"/>
			</defs>
			<clipPath id="SVGID_38_">
				<use xlink:href="#SVGID_37_"  style="overflow:visible;"/>
			</clipPath>
			<g class="st22">
				<path class="st6" d="M39.1,36.4l-5.5-3c0.1-0.1,0.2-0.2,0.2-0.2c0,0,0.1,0,0.2,0l5.5,3c-0.1,0-0.1,0-0.2,0
					C39.2,36.3,39.2,36.3,39.1,36.4"/>
			</g>
		</g>
		<g class="st4">
			<defs>
				<path id="SVGID_39_" class="st4" d="M27.2,68.8l-5.5-3c0-0.1,0-0.2,0-0.4c0-3.5,0-6.9,0-10.4c0-0.3,0.1-0.4,0.3-0.5l5.5,3
					c-0.3,0.1-0.3,0.2-0.3,0.5c0,3.5,0,6.9,0,10.4C27.2,68.6,27.2,68.7,27.2,68.8z"/>
			</defs>
			<clipPath id="SVGID_40_">
				<use xlink:href="#SVGID_39_"  style="overflow:visible;"/>
			</clipPath>
			<g class="st23">
				<path class="st6" d="M27.2,68.8l-5.5-3c0-0.1,0-0.2,0-0.4c0-3.5,0-6.9,0-10.4c0-0.3,0.1-0.4,0.3-0.5l5.5,3
					c-0.3,0.1-0.3,0.2-0.3,0.5c0,3.5,0,6.9,0,10.4C27.2,68.6,27.2,68.7,27.2,68.8"/>
			</g>
		</g>
		<g class="st4">
			<defs>
				<path id="SVGID_41_" class="st4" d="M33.2,55.9l-5.5-3c0.3-0.1,0.4-0.2,0.5-0.5c0.4-1.7,1-3.3,1.7-4.9c0.1-0.3,0.1-0.5-0.1-0.7
					c-1.1-1.5-2.2-3-3.3-4.5c-0.2-0.2-0.1-0.3,0.1-0.6c2.3-2.8,4.6-5.6,6.9-8.4l5.5,3c-2.3,2.8-4.6,5.6-6.9,8.4
					c-0.2,0.2-0.2,0.4-0.1,0.6c1.1,1.5,2.2,3,3.3,4.5c0.2,0.2,0.2,0.4,0.1,0.7c-0.7,1.6-1.3,3.2-1.7,4.9
					C33.7,55.7,33.5,55.8,33.2,55.9z"/>
			</defs>
			<clipPath id="SVGID_42_">
				<use xlink:href="#SVGID_41_"  style="overflow:visible;"/>
			</clipPath>
			<g class="st24">
				<path class="st6" d="M33.2,55.9l-5.5-3c0.3-0.1,0.4-0.2,0.5-0.5c0.4-1.7,1-3.3,1.7-4.9c0.1-0.3,0.1-0.5-0.1-0.7
					c-1.1-1.5-2.2-3-3.3-4.5c-0.2-0.2-0.1-0.3,0.1-0.6c2.3-2.8,4.6-5.6,6.9-8.4l5.5,3c-2.3,2.8-4.6,5.6-6.9,8.4
					c-0.2,0.2-0.2,0.4-0.1,0.6c1.1,1.5,2.2,3,3.3,4.5c0.2,0.2,0.2,0.4,0.1,0.7c-0.7,1.6-1.3,3.2-1.7,4.9
					C33.7,55.7,33.5,55.8,33.2,55.9"/>
			</g>
		</g>
		<g>
			<path class="st25" d="M83.4,49.8c0.2,0,0.3,0,0.3,0.3c0,3.6,0,7.1,0,10.7c-0.6,0.3-1.2,0.5-1.8,0.7c-1.4,0.4-2.8,0.8-4.2,1.3
				c-0.1,0-0.3,0.2-0.3,0.3c-0.5,1.7-1.1,3.4-1.9,5c-0.1,0.2,0,0.3,0.1,0.5c1.1,1.6,2.3,3.1,3.4,4.7c0.1,0.2,0.1,0.3,0,0.5
				c-2.3,2.7-4.5,5.5-6.8,8.3c-0.1,0.1-0.2,0.2-0.3,0.2c-0.1,0-0.2,0-0.3-0.1c-1.6-1-3.1-2-4.7-3c-0.1-0.1-0.2-0.1-0.3-0.1
				c-0.1,0-0.2,0.1-0.3,0.1c-1.4,1-2.8,1.8-4.3,2.6c-0.1,0.1-0.3,0.3-0.3,0.4c-0.3,1.7-0.5,3.5-0.8,5.2c0,0.3-0.1,0.6-0.1,1
				c0,0.2-0.1,0.3-0.3,0.3c-1.6,0.2-3.3,0.5-4.9,0.7s-3.3,0.5-4.9,0.7c-0.3,0-0.3-0.1-0.3-0.3c-0.3-1.6-0.6-3.3-0.7-4.9
				c-0.1-0.8-0.4-1.1-1.1-1.3c-1.3-0.3-2.5-0.8-3.8-1.2c-0.1,0-0.2,0-0.2,0c-0.1,0-0.2,0.1-0.3,0.2c-1.6,1.5-3.2,3-4.9,4.4
				c-2.6-2.2-5-4.4-7.4-6.7c0.5-0.8,0.9-1.6,1.4-2.3c0.7-1.2,1.5-2.4,2.2-3.6c0.1-0.2,0.1-0.4,0-0.5c-0.7-1.4-1.4-2.9-1.8-4.5
				c-0.1-0.2-0.2-0.3-0.4-0.3c-1.9-0.1-3.8-0.1-5.7-0.2c-0.1,0-0.2,0-0.4,0c0-0.1,0-0.2,0-0.4c0-3.5,0-6.9,0-10.4
				c0-0.3,0.1-0.4,0.3-0.5c1.9-0.6,3.8-1.1,5.7-1.7c0.3-0.1,0.4-0.2,0.5-0.5c0.4-1.7,1-3.3,1.7-4.9c0.1-0.3,0.1-0.5-0.1-0.7
				c-1.1-1.5-2.2-3-3.3-4.5c-0.2-0.2-0.1-0.3,0.1-0.6c2.3-2.8,4.6-5.6,6.9-8.4c0.1-0.1,0.2-0.2,0.2-0.2c0.1,0,0.1,0,0.2,0.1
				c1.5,1,3.1,1.9,4.6,2.9c0.1,0.1,0.2,0.1,0.3,0.1c0.1,0,0.2-0.1,0.3-0.1c1.4-1,2.7-1.8,4.2-2.5c0.2-0.1,0.3-0.2,0.4-0.5
				c0.3-2.1,0.6-4.2,1-6.3c0-0.2,0.1-0.4,0.4-0.4c1.6-0.2,3.2-0.4,4.9-0.7s3.2-0.5,4.9-0.7c0.3,0,0.3,0.1,0.4,0.4
				c0.3,1.7,0.6,3.5,0.8,5.2c0.1,0.8,0.4,1,1.1,1.2c1.3,0.3,2.5,0.8,3.7,1.2c0.1,0,0.2,0,0.3,0c0.1,0,0.2-0.1,0.3-0.1
				c1.6-1.4,3.2-2.8,4.7-4.2c0.1-0.1,0.2-0.1,0.3-0.2c0.1,0,0.2,0,0.3,0.1c2.2,2.1,4.4,4.3,6.7,6.4c0.2,0.2,0.3,0.4,0.1,0.7
				c-1.1,1.8-2.2,3.6-3.4,5.4c-0.1,0.2-0.1,0.3,0,0.5c0.8,1.4,1.4,2.9,1.8,4.5c0.1,0.2,0.2,0.3,0.4,0.3
				C79.6,49.6,81.5,49.7,83.4,49.8z M55.4,71.1c6.1-0.9,11-6.8,11-13.4c0-6.4-4.9-11-10.8-10.2c-6,0.9-11,6.9-10.9,13.3
				C44.6,67.4,49.4,71.9,55.4,71.1"/>
		</g>
	</g>
</g>
</svg>
