<?xml version="1.0" encoding="utf-8"?>
<!-- Generator: Adobe Illustrator 25.0.0, SVG Export Plug-In . SVG Version: 6.00 Build 0)  -->
<svg version="1.1" id="Layer_1" xmlns="http://www.w3.org/2000/svg" xmlns:xlink="http://www.w3.org/1999/xlink" x="0px" y="0px"
	 viewBox="0 0 100 100" style="enable-background:new 0 0 100 100;" xml:space="preserve">
<style type="text/css">
	.st0{enable-background:new    ;}
	.st1{fill:#077F9B;}
	.st2{fill:#044A5B;}
	.st3{fill:#06667E;}
	.st4{clip-path:url(#SVGID_2_);enable-background:new    ;}
	.st5{fill:#053B43;}
	.st6{fill:#043941;}
	.st7{fill:#04373F;}
	.st8{clip-path:url(#SVGID_4_);enable-background:new    ;}
	.st9{clip-path:url(#SVGID_6_);enable-background:new    ;}
	.st10{fill:#042E35;}
	.st11{fill:#043037;}
	.st12{fill:#043239;}
	.st13{fill:#04343B;}
	.st14{fill:#04353D;}
	.st15{fill:#22D3EE;}
	.st16{clip-path:url(#SVGID_8_);enable-background:new    ;}
	.st17{clip-path:url(#SVGID_10_);enable-background:new    ;}
	.st18{clip-path:url(#SVGID_12_);enable-background:new    ;}
	.st19{clip-path:url(#SVGID_14_);}
	.st20{fill:#A5F3FC;}
</style>
<g>
	<g>
		<g class="st0">
			<g>
				<polygon class="st1" points="81.5,3.4 81.5,7.3 16.4,16.4 16.4,12.6 				"/>
			</g>
			<g>
				<polygon class="st2" points="16.4,16.4 14.4,15.3 14.4,11.5 16.4,12.6 				"/>
			</g>
			<g>
				<polygon class="st3" points="16.4,12.6 14.4,11.5 79.5,2.4 81.5,3.4 				"/>
			</g>
		</g>
	</g>
	<g>
		<g class="st0">
			<g class="st0">
				<defs>
					<path id="SVGID_1_" class="st0" d="M73.2,5.3l0.5,0.3c-0.2-0.1-0.5-0.2-0.7-0.1l-0.5-0.3C72.7,5.2,73,5.2,73.2,5.3z"/>
				</defs>
				<clipPath id="SVGID_2_">
					<use xlink:href="#SVGID_1_"  style="overflow:visible;"/>
				</clipPath>
				<g class="st4">
					<path class="st5" d="M73,5.5l-0.5-0.3c0.2,0,0.3,0,0.5,0l0.5,0.3C73.3,5.4,73.1,5.4,73,5.5"/>
					<path class="st6" d="M73.4,5.5l-0.5-0.3c0.1,0,0.1,0,0.2,0.1l0.5,0.3C73.6,5.5,73.5,5.5,73.4,5.5"/>
					<path class="st7" d="M73.7,5.6l-0.5-0.3c0,0,0,0,0,0L73.7,5.6C73.7,5.6,73.7,5.6,73.7,5.6"/>
				</g>
			</g>
			<g class="st0">
				<defs>
					<path id="SVGID_3_" class="st0" d="M72.8,5.5l-0.5-0.3c0.1,0,0.1,0,0.2,0L73,5.5C72.9,5.5,72.9,5.5,72.8,5.5z"/>
				</defs>
				<clipPath id="SVGID_4_">
					<use xlink:href="#SVGID_3_"  style="overflow:visible;"/>
				</clipPath>
				<g class="st8">
					<path class="st5" d="M72.8,5.5l-0.5-0.3c0.1,0,0.1,0,0.2,0L73,5.5C72.9,5.5,72.9,5.5,72.8,5.5"/>
				</g>
			</g>
			<g class="st0">
				<defs>
					<path id="SVGID_5_" class="st0" d="M72.2,8.3L71.7,8c-0.3-0.2-0.6-0.5-0.6-1c-0.1-0.8,0.4-1.6,1.2-1.8l0.5,0.3
						c-0.7,0.2-1.3,1-1.2,1.8C71.7,7.7,71.9,8.1,72.2,8.3z"/>
				</defs>
				<clipPath id="SVGID_6_">
					<use xlink:href="#SVGID_5_"  style="overflow:visible;"/>
				</clipPath>
				<g class="st9">
					<path class="st10" d="M72.2,8.3L71.7,8c-0.3-0.2-0.6-0.5-0.6-1c0-0.3,0-0.5,0.1-0.8l0.5,0.3c-0.1,0.2-0.1,0.5-0.1,0.8
						C71.7,7.7,71.9,8.1,72.2,8.3"/>
					<path class="st11" d="M71.7,6.5l-0.5-0.3c0-0.1,0.1-0.2,0.1-0.2l0.5,0.3C71.8,6.4,71.7,6.5,71.7,6.5"/>
					<path class="st12" d="M71.8,6.3L71.3,6c0-0.1,0.1-0.1,0.1-0.2l0.5,0.3C71.9,6.2,71.8,6.3,71.8,6.3"/>
					<path class="st13" d="M71.9,6.1l-0.5-0.3c0-0.1,0.1-0.1,0.1-0.2L72,6C72,6,72,6.1,71.9,6.1"/>
					<path class="st14" d="M72,6l-0.5-0.3c0,0,0.1-0.1,0.1-0.1l0.5,0.3C72.1,5.9,72.1,5.9,72,6"/>
					<path class="st7" d="M72.2,5.8l-0.5-0.3c0.1,0,0.1-0.1,0.2-0.1l0.5,0.3C72.3,5.7,72.2,5.8,72.2,5.8"/>
					<path class="st6" d="M72.4,5.7l-0.5-0.3c0.1,0,0.1-0.1,0.2-0.1l0.5,0.3C72.5,5.6,72.4,5.7,72.4,5.7"/>
					<path class="st5" d="M72.6,5.6l-0.5-0.3c0.1,0,0.1-0.1,0.2-0.1l0.5,0.3C72.7,5.5,72.6,5.5,72.6,5.6"/>
				</g>
			</g>
			<g>
				<path class="st15" d="M73,5.5c0.7-0.1,1.3,0.4,1.3,1.1c0.1,0.8-0.4,1.6-1.2,1.8c-0.1,0-0.1,0-0.2,0c-0.7,0.1-1.3-0.4-1.3-1.1
					c-0.1-0.8,0.4-1.6,1.2-1.8C72.9,5.5,72.9,5.5,73,5.5z"/>
			</g>
		</g>
	</g>
	<g>
		<g class="st0">
			<g class="st0">
				<defs>
					<path id="SVGID_7_" class="st0" d="M78.6,4.6l0.5,0.3c-0.2-0.1-0.5-0.2-0.7-0.1l-0.5-0.3C78.1,4.5,78.4,4.5,78.6,4.6z"/>
				</defs>
				<clipPath id="SVGID_8_">
					<use xlink:href="#SVGID_7_"  style="overflow:visible;"/>
				</clipPath>
				<g class="st16">
					<path class="st5" d="M78.4,4.8l-0.5-0.3c0.2,0,0.3,0,0.5,0l0.5,0.3C78.7,4.8,78.5,4.7,78.4,4.8"/>
					<path class="st6" d="M78.8,4.8l-0.5-0.3c0.1,0,0.1,0,0.2,0.1l0.5,0.3C79,4.8,78.9,4.8,78.8,4.8"/>
					<path class="st7" d="M79.1,4.9l-0.5-0.3c0,0,0,0,0,0L79.1,4.9C79.1,4.9,79.1,4.9,79.1,4.9"/>
				</g>
			</g>
			<g class="st0">
				<defs>
					<path id="SVGID_9_" class="st0" d="M78.2,4.8l-0.5-0.3c0.1,0,0.1,0,0.2,0l0.5,0.3C78.3,4.8,78.3,4.8,78.2,4.8z"/>
				</defs>
				<clipPath id="SVGID_10_">
					<use xlink:href="#SVGID_9_"  style="overflow:visible;"/>
				</clipPath>
				<g class="st17">
					<path class="st5" d="M78.2,4.8l-0.5-0.3c0.1,0,0.1,0,0.2,0l0.5,0.3C78.3,4.8,78.3,4.8,78.2,4.8"/>
				</g>
			</g>
			<g class="st0">
				<defs>
					<path id="SVGID_11_" class="st0" d="M77.6,7.6l-0.5-0.3c-0.3-0.2-0.6-0.5-0.6-1c-0.1-0.8,0.4-1.6,1.2-1.8l0.5,0.3
						c-0.7,0.2-1.3,1-1.2,1.8C77.1,7.1,77.3,7.4,77.6,7.6z"/>
				</defs>
				<clipPath id="SVGID_12_">
					<use xlink:href="#SVGID_11_"  style="overflow:visible;"/>
				</clipPath>
				<g class="st18">
					<path class="st10" d="M77.6,7.6l-0.5-0.3c-0.3-0.2-0.6-0.5-0.6-1c0-0.3,0-0.5,0.1-0.8l0.5,0.3C77,6.1,77,6.4,77,6.6
						C77.1,7.1,77.3,7.4,77.6,7.6"/>
					<path class="st11" d="M77.1,5.9l-0.5-0.3c0-0.1,0.1-0.2,0.1-0.2l0.5,0.3C77.2,5.7,77.1,5.8,77.1,5.9"/>
					<path class="st12" d="M77.2,5.6l-0.5-0.3c0-0.1,0.1-0.1,0.1-0.2l0.5,0.3C77.3,5.5,77.3,5.6,77.2,5.6"/>
					<path class="st13" d="M77.3,5.4l-0.5-0.3c0-0.1,0.1-0.1,0.1-0.2l0.5,0.3C77.4,5.3,77.4,5.4,77.3,5.4"/>
					<path class="st14" d="M77.5,5.3L77,5c0,0,0.1-0.1,0.1-0.1l0.5,0.3C77.5,5.2,77.5,5.2,77.5,5.3"/>
					<path class="st7" d="M77.6,5.2l-0.5-0.3c0.1,0,0.1-0.1,0.2-0.1L77.8,5C77.7,5.1,77.6,5.1,77.6,5.2"/>
					<path class="st6" d="M77.8,5l-0.5-0.3c0.1,0,0.1-0.1,0.2-0.1L78,4.9C77.9,4.9,77.8,5,77.8,5"/>
					<path class="st5" d="M78,4.9l-0.5-0.3c0.1,0,0.1-0.1,0.2-0.1l0.5,0.3C78.1,4.8,78,4.9,78,4.9"/>
				</g>
			</g>
			<g>
				<path class="st15" d="M78.4,4.8c0.7-0.1,1.3,0.4,1.3,1.1c0.1,0.8-0.4,1.6-1.2,1.8c-0.1,0-0.1,0-0.2,0c-0.7,0.1-1.3-0.4-1.4-1.1
					c-0.1-0.8,0.4-1.6,1.2-1.8C78.3,4.8,78.3,4.8,78.4,4.8z"/>
			</g>
		</g>
	</g>
	<g>
		<g>
			<g class="st0">
				<g>
					<polygon class="st1" points="82.9,11.4 82.7,89.9 16.5,99.3 16.6,20.7 					"/>
					<g class="st0">
						<defs>
							<polygon id="SVGID_13_" class="st0" points="82.9,11.4 82.7,89.9 16.5,99.3 16.6,20.7 							"/>
						</defs>
						<clipPath id="SVGID_14_">
							<use xlink:href="#SVGID_13_"  style="overflow:visible;"/>
						</clipPath>
						<g class="st19">
							<g>
								<g>
									<g>
										<path class="st20" d="M52.8,40.7c0,0-0.1,0-0.1,0c-0.2,0.1-0.4,0.3-0.4,0.4c-0.1,0.7-0.1,1.2,0.7,1.1c0,0,0,0,0,0
											c1.3-0.2,2.7-0.4,4-0.6c1.6-0.2,3.2-0.4,4.8-0.7c3-0.4,5.9-0.8,8.9-1.2c0.6-0.1,0.8-0.3,0.8-1c0-0.6-0.2-0.7-0.8-0.6
											C64.8,39,58.9,39.8,53,40.7C52.9,40.7,52.8,40.7,52.8,40.7"/>
										<path class="st20" d="M72.4,65.4c-5.9,0.8-11.7,1.7-17.6,2.5c-0.1,0-0.3,0-0.4,0.1c-0.4,0.1-0.6,0.3-0.6,0.7
											c0,0.7,0.2,0.9,0.8,0.8c2.9-0.4,5.9-0.8,8.8-1.2c3-0.4,5.9-0.8,8.9-1.3c0.6-0.1,0.7-0.3,0.7-1
											C73.2,65.4,73,65.3,72.4,65.4"/>
										<path class="st20" d="M28,81.7c-0.8,0.1-1.7,0.2-2.5,0.4c-0.6,0.1-0.8,0.3-0.8,0.9c0,0.7,0.2,0.8,0.8,0.7
											c5-0.7,9.9-1.4,14.9-2.1c0.1,0,0.2,0,0.3,0c0.1,0,0.1,0,0.2-0.1c0.2-0.1,0.4-0.3,0.5-0.5c0.3-0.8-0.1-1.2-0.8-1.1
											c-2.5,0.4-5,0.7-7.5,1.1C31.4,81.3,29.7,81.5,28,81.7"/>
										<path class="st20" d="M34.2,37.7c-0.3,0-0.6,0.2-0.6,0.5c-0.1,0.7-0.1,1.2,0.8,1.1c2.5-0.4,5-0.7,7.5-1.1s5-0.7,7.5-1
											c0.1,0,0.1,0,0.2,0c0.1,0,0.1,0,0.2,0c0.3-0.1,0.5-0.3,0.6-0.7c0.1-0.8-0.1-0.9-0.8-0.8c-2.5,0.4-5,0.7-7.5,1.1
											c-1.3,0.2-2.6,0.4-3.9,0.6C36.7,37.3,35.5,37.5,34.2,37.7"/>
										<path class="st20" d="M33.1,60.3c-2.5,0.4-5,0.7-7.6,1.1c-0.6,0.1-0.8,0.3-0.8,1c0,0.6,0.2,0.8,0.8,0.7
											c1.9-0.3,3.8-0.5,5.7-0.8c1.9-0.3,3.8-0.5,5.7-0.8c0.3,0,0.5-0.1,0.7-0.5c0.3-0.7,0-1.3-0.8-1.2
											C35.6,59.9,34.3,60.1,33.1,60.3"/>
										<path class="st20" d="M66.4,33.2c-1,0.1-2,0.3-3,0.4c-1.3,0.2-2.7,0.4-4,0.6c-0.7,0.1-1.3,0.2-2,0.3
											c-0.6,0.1-0.8,0.3-0.8,1c0,0.5,0.2,0.7,0.8,0.6c4-0.6,8-1.1,12-1.7c0.1,0,0.1,0,0.2,0c0.1,0,0.1,0,0.2-0.1
											c0.2-0.1,0.4-0.3,0.4-0.5c0.2-0.8-0.1-1.1-0.8-1C68.4,32.9,67.4,33,66.4,33.2"/>
										<path class="st20" d="M27.6,49.6c-0.6,0.1-0.8,0.3-0.8,0.9c0,0.6,0.2,0.8,0.8,0.8c1.4-0.2,2.9-0.4,4.3-0.6
											c1.4-0.2,2.9-0.4,4.3-0.6c0.6-0.1,0.8-0.3,0.8-0.9c0-0.6-0.2-0.8-0.8-0.8C33.3,48.8,30.4,49.2,27.6,49.6"/>
										<path class="st20" d="M25.7,33c-0.3,0-0.6,0.1-0.7,0.5c-0.3,0.7,0,1.3,0.7,1.2c1.4-0.2,2.9-0.4,4.3-0.6
											c1.4-0.2,2.8-0.4,4.2-0.6c0.7-0.1,0.9-0.3,0.9-1c0-0.7-0.2-0.8-0.9-0.7c-0.8,0.1-1.6,0.2-2.4,0.3
											C29.8,32.5,27.7,32.7,25.7,33"/>
										<path class="st20" d="M47.4,38.7c-1.4,0.2-2.9,0.4-4.3,0.6c-1.4,0.2-2.9,0.4-4.3,0.6C38.2,40,38,40.2,38,40.8
											c0,0.6,0.2,0.8,0.8,0.7c2.9-0.4,5.7-0.8,8.6-1.2c0.6-0.1,0.8-0.3,0.8-0.9C48.2,38.8,48,38.6,47.4,38.7"/>
										<path class="st20" d="M36.2,34.5c-1.4,0.2-2.8,0.4-4.2,0.6c-1.5,0.2-2.9,0.4-4.4,0.6c-0.6,0.1-0.8,0.3-0.8,0.9
											c0,0.6,0.2,0.8,0.8,0.7c0.2,0,0.4-0.1,0.7-0.1c0.4-0.1,0.9-0.1,1.3-0.2c2.2-0.3,4.4-0.6,6.6-0.9c0.3,0,0.6-0.1,0.7-0.5
											C37.3,35,36.9,34.4,36.2,34.5"/>
										<path class="st20" d="M40.2,45.1c-0.5,0.1-1,0.1-1.4,0.2c-0.6,0.1-0.8,0.3-0.8,0.9c0,0.6,0.2,0.8,0.7,0.7
											c2.9-0.4,5.8-0.8,8.7-1.2c0.6-0.1,0.7-0.3,0.7-0.9c0-0.6-0.2-0.8-0.8-0.7c-1.4,0.2-2.9,0.4-4.3,0.6
											C42.2,44.9,41.2,45,40.2,45.1"/>
										<path class="st20" d="M44.8,66.7c-1.4,0.2-2.9,0.4-4.4,0.6c-0.5,0.1-0.7,0.3-0.7,0.9c0,0.6,0.2,0.8,0.7,0.7
											c1.4-0.2,2.9-0.4,4.3-0.6c1.4-0.2,2.9-0.4,4.3-0.6c0.6-0.1,0.7-0.3,0.7-0.9c0-0.7-0.1-0.8-0.7-0.7
											C47.7,66.3,46.3,66.5,44.8,66.7"/>
										<path class="st20" d="M49.2,71.2c-2.9,0.4-5.8,0.8-8.7,1.2c-0.5,0.1-0.7,0.3-0.7,0.9c0,0.6,0.1,0.8,0.7,0.7
											c1.4-0.2,2.9-0.4,4.3-0.6c1.5-0.2,2.9-0.4,4.4-0.6c0.5-0.1,0.7-0.3,0.7-0.9C49.8,71.3,49.7,71.1,49.2,71.2"/>
										<path class="st20" d="M52.1,68.2c-2.2,0.3-4.3,0.6-6.5,0.9c-0.6,0.1-0.8,0.3-0.8,1c0,0.6,0.2,0.8,0.8,0.7
											c1.1-0.1,2.2-0.3,3.3-0.5c1.1-0.2,2.1-0.3,3.2-0.5c0.6-0.1,0.8-0.3,0.8-0.9C52.8,68.3,52.7,68.1,52.1,68.2"/>
										<path class="st20" d="M50.4,41c-2.2,0.3-4.3,0.6-6.5,0.9c-0.6,0.1-0.8,0.3-0.8,0.9c0,0.6,0.2,0.8,0.8,0.8
											c1.1-0.2,2.1-0.3,3.2-0.5c1.1-0.2,2.2-0.3,3.3-0.5c0.6-0.1,0.8-0.3,0.8-1C51.1,41.1,51,40.9,50.4,41"/>
										<path class="st20" d="M42.8,69.5c-2.2,0.3-4.3,0.6-6.5,0.9c-0.6,0.1-0.8,0.3-0.8,0.9c0,0.7,0.2,0.9,0.8,0.8
											c1.1-0.2,2.1-0.3,3.2-0.5c1.1-0.2,2.2-0.3,3.3-0.5c0.6-0.1,0.8-0.3,0.8-1C43.6,69.6,43.4,69.4,42.8,69.5"/>
										<path class="st20" d="M36.7,50.8c-1.1,0.2-2.2,0.3-3.3,0.5c-1.1,0.2-2.2,0.3-3.3,0.5c-0.6,0.1-0.8,0.3-0.8,0.9
											c0,0.6,0.2,0.8,0.7,0.8c1.5-0.2,2.9-0.4,4.4-0.6c0.7-0.1,1.5-0.2,2.2-0.3c0.5-0.1,0.7-0.3,0.7-0.9
											C37.4,50.9,37.3,50.7,36.7,50.8"/>
										<path class="st20" d="M43.4,30.5c-2.2,0.3-4.3,0.6-6.5,0.9c-0.6,0.1-0.8,0.3-0.8,0.9c0,0.6,0.2,0.8,0.8,0.8
											c1.1-0.1,2.1-0.3,3.2-0.4l0,0c0.7-0.1,1.4-0.2,2.2-0.3c0.4-0.1,0.7-0.1,1.1-0.2c0.6-0.1,0.8-0.3,0.8-1
											C44.2,30.6,44,30.5,43.4,30.5"/>
										<path class="st20" d="M34.3,75.8c-0.7,0.1-1.4,0.2-2.1,0.3c-0.7,0.1-1.4,0.2-2.1,0.3c-0.4,0-0.7,0.1-1.1,0.2
											c-0.5,0.1-0.7,0.3-0.7,0.9c0,0.6,0.2,0.8,0.7,0.8c1.1-0.1,2.1-0.3,3.2-0.4s2.1-0.3,3.2-0.4c0.6-0.1,0.8-0.3,0.8-1
											c0-0.6-0.2-0.8-0.8-0.7C35,75.8,34.7,75.8,34.3,75.8"/>
										<path class="st20" d="M35.4,65.4c-1,0.1-2.1,0.3-3.1,0.4c-1.1,0.1-2.1,0.3-3.2,0.4c-0.5,0.1-0.8,0.3-0.8,0.9
											c0,0.6,0.2,0.9,0.7,0.8c1.1-0.1,2.1-0.3,3.2-0.4s2.1-0.3,3.2-0.5c0.5-0.1,0.7-0.4,0.7-1C36.1,65.5,35.9,65.3,35.4,65.4"/>
										<path class="st20" d="M30.5,63.5c-1.1,0.1-2.1,0.3-3.2,0.5c-0.5,0.1-0.7,0.4-0.7,1c0,0.6,0.2,0.8,0.7,0.7
											c1-0.1,2.1-0.3,3.1-0.4c1.1-0.1,2.1-0.3,3.2-0.5c0.5-0.1,0.7-0.3,0.8-0.9c0-0.6-0.2-0.9-0.7-0.8
											C32.6,63.2,31.6,63.3,30.5,63.5"/>
										<path class="st20" d="M30.5,78.9c-1,0.1-2.1,0.3-3.1,0.4c-0.6,0.1-0.8,0.3-0.8,1c0,0.6,0.2,0.8,0.8,0.7
											c1-0.1,2.1-0.3,3.1-0.4c1-0.2,2.1-0.3,3.1-0.4c0.6-0.1,0.8-0.3,0.8-0.9c0-0.6-0.2-0.8-0.8-0.8
											C32.6,78.6,31.5,78.8,30.5,78.9"/>
										<path class="st20" d="M37.3,72.8c-1,0.1-2.1,0.3-3.1,0.4c-1.1,0.2-2.1,0.3-3.2,0.5c-0.5,0.1-0.7,0.3-0.7,0.9
											c0,0.7,0.2,0.9,0.7,0.8c1.1-0.1,2.1-0.3,3.2-0.4s2.1-0.3,3.2-0.5c0.5-0.1,0.7-0.3,0.7-1C38,72.9,37.9,72.7,37.3,72.8"/>
										<path class="st20" d="M35.6,40.3c-2.1,0.3-4.2,0.6-6.3,0.9c-0.6,0.1-0.8,0.3-0.8,0.9c0,0.7,0.2,0.9,0.8,0.8
											c0.3,0,0.7-0.1,1-0.1c0.7-0.1,1.4-0.2,2.1-0.3c0.7-0.1,1.4-0.2,2.1-0.3c0.3,0,0.7-0.1,1-0.1c0.6-0.1,0.8-0.3,0.8-1
											C36.4,40.4,36.2,40.2,35.6,40.3"/>
										<path class="st20" d="M49.6,63.4c-1.1,0.1-2.1,0.3-3.2,0.4c-1.1,0.1-2.1,0.3-3.2,0.5c-0.5,0.1-0.7,0.3-0.7,0.9
											c0,0.6,0.2,0.9,0.7,0.8c1.1-0.1,2.1-0.3,3.2-0.4s2.1-0.3,3.2-0.5c0.6-0.1,0.7-0.3,0.7-1C50.4,63.5,50.2,63.3,49.6,63.4"/>
										<path class="st20" d="M34.2,68.1c-1.1,0.1-2.1,0.3-3.2,0.5c-0.5,0.1-0.7,0.3-0.7,1c0,0.6,0.2,0.8,0.7,0.7
											c1.1-0.1,2.1-0.3,3.2-0.4s2.1-0.3,3.2-0.4c0.5-0.1,0.7-0.3,0.7-0.9c0-0.7-0.2-0.9-0.7-0.8C36.3,67.8,35.2,68,34.2,68.1"/>
										<path class="st20" d="M37.9,42.7c-1.1,0.2-2.2,0.3-3.2,0.5c-0.6,0.1-0.8,0.3-0.8,0.9s0.2,0.8,0.8,0.7
											c1.1-0.1,2.2-0.3,3.3-0.5l0,0c0.7-0.1,1.4-0.2,2.1-0.3c0.4-0.1,0.7-0.1,1.1-0.2c0.6-0.1,0.8-0.3,0.8-0.9
											c0-0.6-0.2-0.8-0.8-0.7C40,42.4,38.9,42.6,37.9,42.7"/>
										<path class="st20" d="M47.5,74c-1.4,0.2-2.7,0.4-4.1,0.6c-0.6,0.1-0.8,0.3-0.8,0.9c0,0.6,0.2,0.8,0.7,0.7
											c1-0.1,2.1-0.3,3.1-0.4c0.5-0.1,1.1-0.2,1.6-0.2c0.5-0.1,1.1-0.1,1.6-0.2c0.3,0,0.5-0.1,0.6-0.5c0.3-0.7-0.1-1.2-0.7-1.1
											C48.8,73.8,48.2,73.9,47.5,74"/>
										<path class="st20" d="M32.5,46.2c-1,0.1-2.1,0.3-3.1,0.4c-0.6,0.1-0.7,0.3-0.7,0.9c0,0.6,0.2,0.8,0.7,0.7
											c1-0.1,2.1-0.3,3.1-0.4c0.5-0.1,1-0.1,1.6-0.2c0.5-0.1,1-0.1,1.6-0.2c0.5-0.1,0.7-0.3,0.7-0.9c0-0.6-0.2-0.7-0.7-0.7
											C34.6,45.9,33.5,46.1,32.5,46.2"/>
										<path class="st20" d="M63.4,64.1c-2.1,0.3-4.2,0.6-6.3,0.9c-0.5,0.1-0.7,0.3-0.7,0.9c0,0.6,0.2,0.7,0.7,0.7
											c0.5-0.1,1-0.1,1.5-0.2c0.5-0.1,1-0.1,1.5-0.2c0.7-0.1,1.4-0.2,2.1-0.3c0.4,0,0.7-0.1,1.1-0.2c0.6-0.1,0.7-0.3,0.7-0.9
											C64.1,64.2,63.9,64,63.4,64.1"/>
										<path class="st20" d="M58.5,37.1c-1.1,0.1-2.1,0.3-3.2,0.5c-0.5,0.1-0.7,0.3-0.7,0.9c0,0.6,0.1,0.7,0.7,0.7
											c0.3,0,0.7-0.1,1-0.1c0.7-0.1,1.4-0.2,2.1-0.3c0.7-0.1,1.4-0.2,2.1-0.3c0.4-0.1,0.7-0.1,1.1-0.2c0.5-0.1,0.7-0.3,0.7-0.8
											c0-0.6-0.1-0.8-0.6-0.8C60.7,36.8,59.6,37,58.5,37.1"/>
										<path class="st20" d="M53,70.6c-0.3,0-0.6,0.1-1,0.1c-0.5,0.1-0.7,0.3-0.7,0.9c0,0.6,0.2,0.8,0.7,0.8c0.1,0,0.3,0,0.4-0.1
											c0.3,0,0.5-0.1,0.8-0.1c0.3,0,0.5-0.1,0.8-0.1c0.1,0,0.3,0,0.4-0.1c0.5-0.1,0.6-0.4,0.6-0.9c0-0.6-0.2-0.8-0.6-0.7
											C53.9,70.5,53.4,70.5,53,70.6"/>
										<path class="st20" d="M39.5,64.8c-0.4,0.1-0.8,0.1-1.2,0.2c-0.5,0.1-0.7,0.3-0.7,0.8c0,0.7,0.1,0.9,0.7,0.9
											c0.2,0,0.3,0,0.5-0.1c0.2,0,0.5-0.1,0.7-0.1c0.2,0,0.5-0.1,0.7-0.1c0.2,0,0.3,0,0.5-0.1c0.5-0.1,0.7-0.4,0.7-1
											c0-0.5-0.2-0.8-0.7-0.7C40.2,64.7,39.8,64.7,39.5,64.8"/>
										<path class="st20" d="M32.1,71c-0.4,0.1-0.8,0.1-1.2,0.2c-0.5,0.1-0.6,0.4-0.6,1c0,0.6,0.2,0.8,0.7,0.7c0.1,0,0.3,0,0.4,0
											c0.3,0,0.5-0.1,0.8-0.1c0.2,0,0.5-0.1,0.7-0.1c0.2,0,0.3,0,0.5-0.1c0.5-0.1,0.7-0.4,0.7-0.9c0-0.6-0.2-0.8-0.6-0.8
											C32.9,70.9,32.5,70.9,32.1,71"/>
										<path class="st20" d="M30.4,38.2c-0.4,0.1-0.8,0.1-1.2,0.2c-0.4,0.1-0.6,0.4-0.6,0.9c0,0.6,0.2,0.8,0.6,0.7
											c0.2,0,0.3,0,0.5-0.1c0.2,0,0.5-0.1,0.7-0.1c0.4-0.1,0.7-0.1,1.1-0.2l0.1,0c0.4-0.1,0.6-0.4,0.6-0.9
											c0-0.6-0.2-0.9-0.6-0.8C31.2,38,30.8,38.1,30.4,38.2"/>
										<path class="st20" d="M26.6,52.2c-0.4,0.1-0.8,0.1-1.2,0.2c-0.5,0.1-0.6,0.4-0.6,0.9c0,0.6,0.2,0.8,0.6,0.8
											c0.1,0,0.2,0,0.3,0c0.1,0,0.2,0,0.3,0c0.2,0,0.3,0,0.5-0.1c0.2,0,0.5-0.1,0.7-0.1c0.2,0,0.4-0.1,0.5-0.1
											c0.5-0.1,0.6-0.3,0.6-0.9c0-0.6-0.2-0.8-0.6-0.8C27.4,52.1,27,52.2,26.6,52.2"/>
										<path class="st20" d="M30.4,43.8c-0.4,0.1-0.8,0.1-1.2,0.2c-0.4,0.1-0.6,0.3-0.6,0.9c0,0.6,0.2,0.9,0.6,0.8
											c0.2,0,0.4,0,0.5-0.1c0.2,0,0.5-0.1,0.7-0.1c0.2,0,0.5-0.1,0.7-0.1c0.2,0,0.3,0,0.5-0.1c0.4-0.1,0.6-0.4,0.6-1
											c0-0.5-0.2-0.8-0.6-0.7C31.2,43.7,30.8,43.7,30.4,43.8"/>
										<path class="st20" d="M53.4,34.9c-0.4,0.1-0.8,0.1-1.1,0.2c-0.5,0.1-0.6,0.4-0.6,1c0,0.5,0.2,0.7,0.6,0.7
											c0.2,0,0.4,0,0.6-0.1c0.2,0,0.4-0.1,0.6-0.1c0.4-0.1,0.8-0.1,1.2-0.2l0.1,0c0.4-0.1,0.6-0.4,0.6-0.9
											c0-0.6-0.2-0.8-0.6-0.8C54.2,34.8,53.8,34.9,53.4,34.9"/>
										<path class="st20" d="M51.4,38.1c-0.4,0-0.7,0.1-1.1,0.2c-0.5,0.1-0.6,0.3-0.6,0.9c0,0.6,0.2,0.8,0.6,0.7
											c0.2,0,0.4,0,0.6-0.1c0.2,0,0.4-0.1,0.6-0.1c0.2,0,0.5-0.1,0.7-0.1c0.2,0,0.3,0,0.5-0.1c0.4-0.1,0.6-0.3,0.6-0.9
											c0-0.6-0.2-0.8-0.6-0.7C52.2,38,51.8,38,51.4,38.1"/>
										<path class="st20" d="M51.4,43.5c-0.4,0.1-0.7,0.1-1.1,0.2c-0.4,0.1-0.6,0.3-0.6,0.9c0,0.6,0.2,0.8,0.6,0.8
											c0.1,0,0.3,0,0.4,0c0.3,0,0.5-0.1,0.8-0.1l0,0c0.2,0,0.5-0.1,0.7-0.1c0.2,0,0.4-0.1,0.5-0.1c0.4-0.1,0.6-0.4,0.6-0.9
											c0-0.6-0.2-0.8-0.6-0.7C52.2,43.4,51.8,43.5,51.4,43.5"/>
										<path class="st20" d="M39.4,75.2c-0.4,0.1-0.8,0.1-1.2,0.2c-0.4,0.1-0.6,0.3-0.6,0.9c0,0.6,0.2,0.8,0.6,0.7
											c0.2,0,0.3,0,0.5-0.1c0.2,0,0.5-0.1,0.7-0.1c0.2,0,0.5-0.1,0.7-0.1c0.1,0,0.2,0,0.4-0.1c0.5-0.1,0.7-0.3,0.7-0.9
											c0-0.6-0.2-0.8-0.7-0.7C40.2,75.1,39.8,75.1,39.4,75.2"/>
										<path class="st20" d="M53.2,65.5c-0.4,0.1-0.8,0.1-1.2,0.2c-0.4,0.1-0.6,0.3-0.6,0.9c0,0.5,0.2,0.7,0.6,0.7
											c0.1,0,0.3,0,0.4-0.1c0.3,0,0.5-0.1,0.8-0.1c0.3,0,0.5-0.1,0.8-0.1c0.1,0,0.3,0,0.4-0.1c0.4-0.1,0.6-0.3,0.6-0.8
											c0-0.6-0.1-0.8-0.6-0.8C54,65.4,53.6,65.4,53.2,65.5"/>
										<path class="st15" d="M29.8,54.5c-0.2,0-0.3,0.2-0.4,0.4c-0.6,1.5-1.1,3-1.7,4.5c-0.2,0.5,0,0.7,0.5,0.7
											c0.1-0.1,0.3-0.2,0.3-0.4c0.6-1.5,1.1-3,1.7-4.5c0.2-0.4,0.1-0.6-0.2-0.7C30,54.5,29.9,54.5,29.8,54.5"/>
										<path class="st15" d="M29.8,26c-0.2,0-0.3,0.2-0.4,0.4c-0.6,1.5-1.1,2.9-1.7,4.4c-0.1,0.4-0.2,0.6,0.2,0.8
											c0.1,0,0.2,0,0.3,0c0.2,0,0.3-0.2,0.4-0.5c0.6-1.4,1.1-2.9,1.7-4.3c0-0.1,0.1-0.2,0.2-0.5c-0.2-0.1-0.3-0.3-0.5-0.3
											C29.9,26,29.9,26,29.8,26"/>
										<path class="st15" d="M29.9,84.2c-0.2,0-0.4,0.2-0.4,0.3c-0.6,1.5-1.2,3.1-1.8,4.7c-0.1,0.2,0,0.4,0.2,0.5
											c0.1,0.1,0.2,0.1,0.3,0.1c0.2,0,0.3-0.2,0.4-0.5c0.6-1.5,1.1-2.9,1.7-4.4c0-0.1,0.1-0.2,0.2-0.5
											C30.2,84.4,30.1,84.2,29.9,84.2C29.9,84.2,29.9,84.2,29.9,84.2"/>
										<path class="st15" d="M26.6,55.6c-0.1,0-0.2,0.1-0.4,0.3c-0.4,0.6-0.9,1.1-1.3,1.6c-0.2,0.3-0.3,0.5,0,0.7
											c0.5,0.4,0.9,0.9,1.4,1.3c0.1,0.1,0.2,0.2,0.3,0.1c0.1,0,0.2-0.1,0.3-0.2c0.2-0.3,0.2-0.5,0-0.7c-0.4-0.3-0.7-0.7-1.1-1
											c0.4-0.5,0.8-0.9,1.1-1.3c0.2-0.3,0.3-0.5,0-0.7C26.8,55.6,26.7,55.6,26.6,55.6"/>
										<path class="st15" d="M31.6,54.9c-0.1,0-0.2,0.1-0.3,0.2c-0.3,0.3-0.2,0.5,0,0.7c0.4,0.3,0.7,0.7,1.2,1
											c-0.4,0.5-0.8,0.9-1.1,1.3c-0.2,0.3-0.3,0.5-0.1,0.7c0.1,0.1,0.2,0.1,0.3,0.1c0.1,0,0.2-0.1,0.4-0.3
											c0.4-0.6,0.9-1.1,1.3-1.6c0.3-0.3,0.2-0.6,0-0.8c-0.5-0.4-0.9-0.8-1.3-1.3C31.8,55,31.7,54.9,31.6,54.9"/>
										<path class="st15" d="M26.6,85.3c-0.1,0-0.2,0.1-0.3,0.2c-0.5,0.6-0.9,1.1-1.4,1.7c-0.2,0.3-0.2,0.5,0,0.7
											c0.5,0.4,0.9,0.9,1.4,1.3c0.1,0.1,0.2,0.2,0.3,0.2c0.1,0,0.2-0.1,0.3-0.2c0.3-0.3,0.2-0.5,0-0.7c-0.4-0.3-0.7-0.6-1.2-1
											c0.4-0.5,0.8-1,1.2-1.4c0.2-0.2,0.2-0.5,0-0.7C26.8,85.3,26.7,85.3,26.6,85.3"/>
										<path class="st15" d="M31.5,84.6c-0.1,0-0.2,0.1-0.3,0.2c-0.2,0.3-0.2,0.5,0,0.7c0.4,0.3,0.7,0.7,1.1,1
											c-0.4,0.5-0.8,0.9-1.1,1.4c-0.2,0.3-0.3,0.5,0,0.7c0.1,0.1,0.2,0.1,0.3,0.1c0.1,0,0.2-0.1,0.3-0.3
											c0.4-0.6,0.9-1.1,1.3-1.6c0.3-0.3,0.3-0.6,0-0.8c-0.5-0.4-0.9-0.8-1.3-1.3C31.7,84.6,31.6,84.6,31.5,84.6"/>
										<path class="st15" d="M26.7,27.1c-0.1,0-0.2,0.1-0.3,0.2c-0.5,0.6-1,1.2-1.5,1.8c-0.2,0.2-0.2,0.5,0,0.7
											c0.5,0.5,0.9,0.9,1.4,1.4c0.1,0.1,0.2,0.1,0.3,0.1c0.1,0,0.2-0.1,0.3-0.2c0.2-0.3,0.2-0.5,0-0.7c-0.4-0.3-0.7-0.7-1.2-1.1
											c0.4-0.5,0.8-1,1.2-1.4c0.2-0.3,0.2-0.5,0-0.7C26.8,27.1,26.8,27.1,26.7,27.1"/>
										<path class="st15" d="M31.6,26.4c-0.1,0-0.2,0.1-0.3,0.2c-0.2,0.3-0.2,0.5,0,0.7c0.4,0.3,0.7,0.7,1.1,1
											c-0.4,0.5-0.8,1-1.2,1.4c-0.2,0.3-0.2,0.5,0,0.7c0.1,0.1,0.2,0.1,0.3,0.1c0.1,0,0.2-0.1,0.3-0.2c0.5-0.6,1-1.2,1.4-1.8
											c0.2-0.3,0.2-0.5,0-0.7c-0.5-0.4-0.9-0.9-1.4-1.3C31.8,26.4,31.7,26.4,31.6,26.4"/>
									</g>
								</g>
							</g>
						</g>
					</g>
				</g>
				<g>
					<polygon class="st2" points="16.5,99.3 14.7,98.3 14.8,19.7 16.6,20.7 					"/>
				</g>
				<g>
					<polygon class="st3" points="16.6,20.7 14.8,19.7 81.1,10.4 82.9,11.4 					"/>
				</g>
			</g>
		</g>
	</g>
</g>
</svg>
