<?xml version="1.0" encoding="utf-8"?>
<!-- Generator: Adobe Illustrator 25.0.0, SVG Export Plug-In . SVG Version: 6.00 Build 0)  -->
<svg version="1.1" id="Layer_1" xmlns="http://www.w3.org/2000/svg" xmlns:xlink="http://www.w3.org/1999/xlink" x="0px" y="0px"
	 viewBox="0 0 100 100" style="enable-background:new 0 0 100 100;" xml:space="preserve">
<style type="text/css">
	.st0{enable-background:new    ;}
	.st1{clip-path:url(#SVGID_2_);enable-background:new    ;}
	.st2{fill:#3B35AC;}
	.st3{clip-path:url(#SVGID_4_);enable-background:new    ;}
	.st4{fill:url(#SVGID_5_);}
	.st5{fill:#302A8A;}
	.st6{fill:#4A42D7;}
	.st7{clip-path:url(#SVGID_7_);enable-background:new    ;}
	.st8{fill:#282475;}
	.st9{clip-path:url(#SVGID_9_);enable-background:new    ;}
	.st10{fill:#292476;}
	.st11{clip-path:url(#SVGID_11_);enable-background:new    ;}
	.st12{fill:#4840D1;}
	.st13{fill:#473FCE;}
	.st14{fill:#463ECB;}
	.st15{fill:#453DC7;}
	.st16{fill:#443CC4;}
	.st17{fill:#433BC1;}
	.st18{fill:#413ABE;}
	.st19{fill:#4039BA;}
	.st20{fill:#3F38B7;}
	.st21{fill:#3E37B4;}
	.st22{fill:#4B42D9;}
	.st23{fill:#312C8F;}
	.st24{clip-path:url(#SVGID_13_);enable-background:new    ;}
	.st25{fill:#2A2579;}
	.st26{fill:#2B267C;}
	.st27{fill:#2C2780;}
	.st28{fill:#2D2883;}
	.st29{fill:#2E2986;}
	.st30{fill:#2F2A89;}
	.st31{fill:#312B8D;}
	.st32{fill:#322C90;}
	.st33{fill:#332D93;}
	.st34{fill:#342E96;}
	.st35{fill:#352F9A;}
	.st36{fill:#36309D;}
	.st37{fill:#3731A0;}
	.st38{fill:#3832A3;}
	.st39{fill:#3A33A7;}
	.st40{fill:#3B34AA;}
	.st41{fill:#3C35AD;}
	.st42{fill:#3D36B1;}
	.st43{fill:#6464FF;}
</style>
<g>
	<g class="st0">
		<g class="st0">
			<defs>
				<path id="SVGID_1_" class="st0" d="M73.3,22.2l11.9,6.4c-1.6-0.9-3.6-1.3-5.7-1l-11.9-6.4C69.7,20.9,71.7,21.3,73.3,22.2z"/>
			</defs>
			<clipPath id="SVGID_2_">
				<use xlink:href="#SVGID_1_"  style="overflow:visible;"/>
			</clipPath>
			<g class="st1">
				<path class="st2" d="M79.5,27.7l-11.9-6.4c2.1-0.3,4,0.1,5.7,1l11.9,6.4C83.5,27.8,81.6,27.4,79.5,27.7"/>
			</g>
		</g>
		<g class="st0">
			<defs>
				<path id="SVGID_3_" class="st0" d="M24.4,91.9l-11.9-6.4c-3-1.6-5-5-5-9l11.9,6.4C19.4,86.9,21.4,90.2,24.4,91.9z"/>
			</defs>
			<clipPath id="SVGID_4_">
				<use xlink:href="#SVGID_3_"  style="overflow:visible;"/>
			</clipPath>
			<g class="st3">
				<path class="st2" d="M24.4,91.9l-11.9-6.4c-3-1.6-5-5-5-9l11.9,6.4C19.4,86.9,21.4,90.2,24.4,91.9"/>
			</g>
		</g>
		<g>
			<linearGradient id="SVGID_5_" gradientUnits="userSpaceOnUse" x1="24.0393" y1="39.9623" x2="73.8036" y2="15.892">
				<stop  offset="0" style="stop-color:#312C8F"/>
				<stop  offset="0.2643" style="stop-color:#4F46E5"/>
				<stop  offset="0.4892" style="stop-color:#6D66E9"/>
				<stop  offset="0.8153" style="stop-color:#4F46E5"/>
				<stop  offset="1" style="stop-color:#312C8F"/>
			</linearGradient>
			<polygon class="st4" points="30.2,34.6 18.3,28.2 67.7,21.2 79.5,27.7 			"/>
		</g>
		<g>
			<polygon class="st5" points="19.4,82.8 7.6,76.4 7.6,41.2 19.5,47.6 			"/>
		</g>
		<g>
			<path class="st6" d="M79.5,27.7c5.9-0.8,10.7,3.7,10.7,10l-0.1,35.2c0,6.3-4.8,12.2-10.7,13l-49.3,6.9c-5.9,0.8-10.7-3.7-10.7-10
				l0.1-35.2c0-6.3,4.8-12.2,10.7-13L79.5,27.7z"/>
		</g>
		<g class="st0">
			<defs>
				<path id="SVGID_6_" class="st0" d="M19.5,47.6L7.6,41.2c0-6.3,4.8-12.2,10.7-13l11.9,6.4C24.3,35.4,19.5,41.3,19.5,47.6z"/>
			</defs>
			<clipPath id="SVGID_7_">
				<use xlink:href="#SVGID_6_"  style="overflow:visible;"/>
			</clipPath>
			<g class="st7">
				<path class="st2" d="M19.5,47.6L7.6,41.2c0-6.3,4.8-12.2,10.7-13l11.9,6.4C24.3,35.4,19.5,41.3,19.5,47.6"/>
			</g>
		</g>
	</g>
</g>
<g>
	<g>
		<g class="st0">
			<g>
				<polygon class="st8" points="64.7,25.5 62.6,24.3 62.6,16.8 64.8,18 				"/>
			</g>
			<g class="st0">
				<defs>
					<path id="SVGID_8_" class="st0" d="M60.6,12.6l2.2,1.2c1.2,0.7,2,2.2,2,4.2l-2.2-1.2C62.6,14.8,61.8,13.3,60.6,12.6z"/>
				</defs>
				<clipPath id="SVGID_9_">
					<use xlink:href="#SVGID_8_"  style="overflow:visible;"/>
				</clipPath>
				<g class="st9">
					<path class="st10" d="M64.8,18l-2.2-1.2c0-2-0.8-3.5-2-4.2l2.2,1.2C63.9,14.4,64.8,16,64.8,18"/>
				</g>
			</g>
			<g class="st0">
				<defs>
					<path id="SVGID_10_" class="st0" d="M63.2,5.2l2.2,1.2c-1-0.5-2.1-0.8-3.3-0.6l-2.2-1.2C61.1,4.4,62.2,4.6,63.2,5.2z"/>
				</defs>
				<clipPath id="SVGID_11_">
					<use xlink:href="#SVGID_10_"  style="overflow:visible;"/>
				</clipPath>
				<g class="st11">
					<path class="st12" d="M62.1,5.8l-2.2-1.2c0.2,0,0.5,0,0.7-0.1l2.2,1.2C62.5,5.7,62.3,5.7,62.1,5.8"/>
					<path class="st13" d="M62.8,5.7l-2.2-1.2c0.2,0,0.4,0,0.5,0l2.2,1.2C63.1,5.7,62.9,5.7,62.8,5.7"/>
					<path class="st14" d="M63.3,5.7l-2.2-1.2c0.1,0,0.2,0,0.4,0l2.2,1.2C63.5,5.8,63.4,5.7,63.3,5.7"/>
					<path class="st15" d="M63.7,5.8l-2.2-1.2c0.1,0,0.2,0,0.3,0.1L64,5.8C63.9,5.8,63.8,5.8,63.7,5.8"/>
					<path class="st16" d="M64,5.8l-2.2-1.2c0.1,0,0.2,0,0.3,0.1l2.2,1.2C64.2,5.9,64.1,5.9,64,5.8"/>
					<path class="st17" d="M64.3,5.9l-2.2-1.2c0.1,0,0.2,0.1,0.3,0.1L64.5,6C64.5,6,64.4,5.9,64.3,5.9"/>
					<path class="st18" d="M64.5,6l-2.2-1.2c0.1,0,0.2,0.1,0.2,0.1l2.2,1.2C64.7,6.1,64.6,6,64.5,6"/>
					<path class="st19" d="M64.8,6.1l-2.2-1.2c0.1,0,0.2,0.1,0.2,0.1L65,6.2C64.9,6.2,64.9,6.1,64.8,6.1"/>
					<path class="st20" d="M65,6.2L62.8,5c0.1,0,0.1,0.1,0.2,0.1l2.2,1.2C65.2,6.3,65.1,6.2,65,6.2"/>
					<path class="st21" d="M65.2,6.3l-2.2-1.2c0,0,0.1,0,0.1,0.1l2.2,1.2C65.3,6.3,65.3,6.3,65.2,6.3"/>
				</g>
			</g>
			<g>
				<polygon class="st22" points="37.8,9.2 35.7,8 59.9,4.6 62.1,5.8 				"/>
			</g>
			<g>
				<polygon class="st8" points="30.4,30.3 28.3,29.1 28.3,19 30.5,20.2 				"/>
			</g>
			<g>
				<path class="st23" d="M62.1,5.8c4.1-0.6,7.3,3.5,7.3,9l0,10.1l-4.6,0.7l0-7.5c0-2.8-1.7-4.8-3.7-4.5l-21.4,3
					c-2,0.3-3.7,2.8-3.7,5.5l0,7.5l-5.5,0.8l0-10.1c0-5.5,3.3-10.5,7.4-11L62.1,5.8z"/>
			</g>
			<g class="st0">
				<defs>
					<path id="SVGID_12_" class="st0" d="M30.5,20.2L28.3,19c0-5.5,3.3-10.5,7.4-11l2.2,1.2C33.8,9.7,30.5,14.7,30.5,20.2z"/>
				</defs>
				<clipPath id="SVGID_13_">
					<use xlink:href="#SVGID_12_"  style="overflow:visible;"/>
				</clipPath>
				<g class="st24">
					<path class="st10" d="M30.5,20.2L28.3,19c0-0.6,0-1.2,0.1-1.8l2.2,1.2C30.5,19,30.5,19.6,30.5,20.2"/>
					<path class="st25" d="M30.6,18.4l-2.2-1.2c0-0.3,0.1-0.6,0.2-1l2.2,1.2C30.7,17.7,30.6,18,30.6,18.4"/>
					<path class="st26" d="M30.7,17.4l-2.2-1.2c0.1-0.2,0.1-0.5,0.2-0.7l2.2,1.2C30.9,16.9,30.8,17.1,30.7,17.4"/>
					<path class="st27" d="M30.9,16.7l-2.2-1.2c0.1-0.2,0.1-0.4,0.2-0.6l2.2,1.2C31,16.2,31,16.5,30.9,16.7"/>
					<path class="st28" d="M31.1,16l-2.2-1.2c0.1-0.2,0.1-0.4,0.2-0.5l2.2,1.2C31.2,15.7,31.2,15.9,31.1,16"/>
					<path class="st29" d="M31.3,15.5l-2.2-1.2c0.1-0.2,0.1-0.3,0.2-0.5l2.2,1.2C31.4,15.2,31.3,15.3,31.3,15.5"/>
					<path class="st30" d="M31.5,15l-2.2-1.2c0.1-0.1,0.1-0.3,0.2-0.4l2.2,1.2C31.6,14.8,31.5,14.9,31.5,15"/>
					<path class="st31" d="M31.6,14.6l-2.2-1.2c0.1-0.1,0.1-0.3,0.2-0.4l2.2,1.2C31.8,14.3,31.7,14.5,31.6,14.6"/>
					<path class="st32" d="M31.8,14.2L29.7,13c0.1-0.1,0.1-0.2,0.2-0.4l2.2,1.2C32,14,31.9,14.1,31.8,14.2"/>
					<path class="st33" d="M32,13.9l-2.2-1.2c0.1-0.1,0.1-0.2,0.2-0.3l2.2,1.2C32.1,13.6,32.1,13.7,32,13.9"/>
					<path class="st34" d="M32.2,13.5L30,12.3c0.1-0.1,0.1-0.2,0.2-0.3l2.2,1.2C32.3,13.3,32.3,13.4,32.2,13.5"/>
					<path class="st35" d="M32.4,13.2L30.2,12c0.1-0.1,0.1-0.2,0.2-0.3l2.2,1.2C32.5,13,32.5,13.1,32.4,13.2"/>
					<path class="st36" d="M32.6,12.9l-2.2-1.2c0.1-0.1,0.1-0.2,0.2-0.3l2.2,1.2C32.7,12.7,32.7,12.8,32.6,12.9"/>
					<path class="st37" d="M32.8,12.6l-2.2-1.2c0.1-0.1,0.1-0.2,0.2-0.3l2.2,1.2C32.9,12.4,32.8,12.5,32.8,12.6"/>
					<path class="st38" d="M33,12.3l-2.2-1.2c0.1-0.1,0.1-0.2,0.2-0.3l2.2,1.2C33.1,12.2,33,12.3,33,12.3"/>
					<path class="st39" d="M33.2,12.1L31,10.9c0.1-0.1,0.1-0.2,0.2-0.2l2.2,1.2C33.3,11.9,33.2,12,33.2,12.1"/>
					<path class="st40" d="M33.4,11.9l-2.2-1.2c0.1-0.1,0.1-0.2,0.2-0.2l2.2,1.2C33.5,11.7,33.4,11.8,33.4,11.9"/>
					<path class="st41" d="M33.6,11.6l-2.2-1.2c0.1-0.1,0.1-0.1,0.2-0.2l2.2,1.2C33.7,11.5,33.6,11.5,33.6,11.6"/>
					<path class="st42" d="M33.8,11.4l-2.2-1.2c0.1-0.1,0.1-0.1,0.2-0.2l2.2,1.2C33.9,11.3,33.8,11.3,33.8,11.4"/>
					<path class="st21" d="M34,11.2L31.8,10C31.9,9.9,32,9.9,32,9.8l2.2,1.2C34.1,11,34.1,11.1,34,11.2"/>
					<path class="st20" d="M34.2,11L32,9.8c0.1-0.1,0.1-0.1,0.2-0.2l2.2,1.2C34.4,10.8,34.3,10.9,34.2,11"/>
					<path class="st19" d="M34.4,10.8l-2.2-1.2c0.1-0.1,0.2-0.1,0.2-0.2l2.2,1.2C34.6,10.7,34.5,10.7,34.4,10.8"/>
					<path class="st18" d="M34.7,10.6l-2.2-1.2c0.1-0.1,0.2-0.1,0.2-0.2l2.2,1.2C34.8,10.5,34.8,10.5,34.7,10.6"/>
					<path class="st17" d="M34.9,10.4l-2.2-1.2C32.8,9.2,32.9,9.1,33,9l2.2,1.2C35.1,10.3,35,10.3,34.9,10.4"/>
					<path class="st16" d="M35.2,10.2L33,9c0.1-0.1,0.2-0.1,0.3-0.2l2.2,1.2C35.4,10.1,35.3,10.2,35.2,10.2"/>
					<path class="st15" d="M35.5,10l-2.2-1.2c0.1-0.1,0.2-0.1,0.3-0.2l2.2,1.2C35.7,9.9,35.6,10,35.5,10"/>
					<path class="st14" d="M35.8,9.8l-2.2-1.2c0.1-0.1,0.3-0.1,0.4-0.2l2.2,1.2C36.1,9.7,35.9,9.8,35.8,9.8"/>
					<path class="st13" d="M36.2,9.7L34,8.5c0.2-0.1,0.3-0.1,0.5-0.2l2.2,1.2C36.5,9.5,36.4,9.6,36.2,9.7"/>
					<path class="st12" d="M36.7,9.5l-2.2-1.2C34.9,8.1,35.3,8,35.7,8l2.2,1.2C37.4,9.2,37.1,9.3,36.7,9.5"/>
				</g>
			</g>
		</g>
	</g>
</g>
<g>
	<path class="st43" d="M60.2,50.1c-0.1,0-0.1,0.1-0.2,0.1c-0.2,0.3-0.5,0.6-0.7,1c-0.1,0.1-0.2,0.2-0.3,0.2c-0.1,0-0.2,0-0.3-0.1
		c-0.1-0.1-0.2-0.1-0.3-0.1c-0.1,0-0.2,0.1-0.2,0.2c-0.1,0.1-0.3,0.2-0.4,0.4c-0.7,0.9-1.4,1.7-2,2.6c-5.1,7-10.3,14-15.4,21
		c-0.8,1.1-1.5,2.2-2.3,3.3c-0.3,0.4-0.4,0.8-0.4,1.2c0,1,0.3,1.9,0.9,2.6c0.5,0.5,1.1,1,1.8,1.3c0.6,0.3,1.3,0.3,2,0.1
		c0.1,0,0.2-0.1,0.3-0.1c0.6-0.2,1-0.7,1.3-1.2c1.5-2.1,3-4.2,4.4-6.4C53,69.9,57.5,63.4,62,56.9c0.2-0.4,0.5-0.7,0.7-1.1
		c0.3-0.4,0.3-1,0.1-1.2c-0.3-0.3-0.3-0.3,0-0.6c0.3-0.4,0.5-0.8,0.8-1.3c-1.1-0.9-2.1-1.7-3.2-2.5C60.3,50.1,60.3,50.1,60.2,50.1"
		/>
	<path class="st43" d="M55.5,38.5c-0.1,0-0.1,0-0.2,0c-0.3,0.1-0.6,0.2-0.8,0.3c-1.7,0.7-3,2-4.1,3.5c-0.2,0.3-0.2,0.8,0,1.1
		c0.2,0.2,0.4,0.3,0.7,0.2c0.1,0,0.2-0.1,0.2-0.1c0.2-0.1,0.4-0.3,0.6-0.4c0.3-0.3,0.7-0.5,1.1-0.6c0.3-0.1,0.6-0.1,0.9-0.1
		c0.7,0.1,1.3,0.3,1.8,0.6c0.6,0.4,1.1,0.8,1.6,1.2c0.7,0.6,1.3,1.3,2,2c0.1,0.2,0.2,0.3,0.1,0.6c-0.4,0.6-0.4,0.9,0.1,1.4
		c0.4,0.4,0.8,0.7,1.3,1.1c1.6,1.3,3.2,2.5,4.8,3.7c0.1,0.1,0.3,0.1,0.4,0.1c0.1,0,0.1-0.1,0.2-0.1c0.2-0.1,0.3-0.2,0.5-0.4
		c0.1-0.1,0.2-0.1,0.3-0.2c0.2-0.1,0.4,0,0.6,0.2c0.4,0.3,0.5,0.7,0.3,1.3c-0.2,0.6-0.2,0.9,0.2,1.2c0.5,0.4,0.9,0.8,1.4,1.2
		c0.4,0.3,0.7,0.6,1.1,0.8c0.2,0.1,0.4,0.2,0.5,0.1c0.2,0,0.3-0.2,0.5-0.4c0.3-0.5,0.7-0.9,1-1.4c1-1.5,2-2.9,3-4.4
		c0.3-0.5,0.3-0.8-0.1-1.1c-0.8-0.7-1.6-1.4-2.4-2.1c-0.2-0.2-0.4-0.2-0.7-0.2c-0.1,0-0.2,0.1-0.4,0.2c-0.1,0.1-0.2,0.1-0.3,0.2
		c-0.1,0.1-0.3,0.2-0.4,0.2c-0.2,0.1-0.4,0-0.6-0.1c-0.3-0.2-0.5-0.6-0.4-1c0-0.2,0.1-0.4,0.2-0.6c0.1-0.3,0.1-0.6-0.2-0.8
		c-0.8-0.6-1.5-1.3-2.3-2c-1.3-1-2.6-2-3.9-3c-0.1-0.1-0.3-0.2-0.4-0.1c-0.1,0-0.1,0.1-0.2,0.1c-0.1,0.1-0.2,0.1-0.3,0.1
		c-0.2,0-0.3,0-0.5-0.1c-0.7-0.5-1.4-1-2.1-1.4C59.3,38.4,57.5,37.9,55.5,38.5"/>
	<path class="st43" d="M61.2,60.1c-0.1,0-0.3,0.2-0.4,0.4c-0.4,0.6-0.9,1.2-1.3,1.9c-0.6,0.9-1.1,1.8-1.7,2.7
		c-0.3,0.6-0.3,0.8,0.1,1.2c0.3,0.3,0.6,0.5,1,0.8c1.2,0.9,2.3,1.8,3.5,2.6c0.1,0.1,0.2,0.2,0.1,0.3c-0.2,1.2-0.1,2.4,0.1,3.6
		c0.1,0.5,0.3,1,0.5,1.5c1.3,2.9,4.3,4.6,7.6,3.8c0.1,0,0.2,0,0.3-0.1c0,0,0.1,0,0.1,0c0.7-0.3,0.8-1,0.4-1.5
		c-0.1-0.1-0.2-0.2-0.2-0.2c-0.9-0.7-1.8-1.4-2.7-2.1c-0.1-0.1-0.2-0.2-0.1-0.3c0.2-1.4,0.4-2.7,0.5-4.1c0-0.3,0.1-0.5,0.4-0.6
		c1.1-0.6,2.3-1.3,3.4-2c0,0,0.1,0,0.1,0c0.1,0,0.2,0,0.3,0.1c0.6,0.5,1.3,0.9,1.9,1.4c0.4,0.3,0.8,0.5,1.2,0.8
		c0.2,0.1,0.3,0.1,0.5,0.1c0.2,0,0.3-0.2,0.5-0.4c0.2-0.3,0.2-0.6,0.1-0.9c-0.4-2.4-1.4-4.2-3.2-5.4c-1.1-0.7-2.3-1.1-3.7-1
		c-0.5,0-1.1,0.1-1.6,0.3c-0.7,0.2-1.5,0.5-2.1,0.9c0,0-0.1,0-0.1,0.1c-0.1,0-0.2,0-0.3-0.1c-0.7-0.5-1.4-1-2.1-1.5
		c-0.8-0.6-1.7-1.2-2.5-1.8C61.5,60.1,61.3,60.1,61.2,60.1"/>
	<path class="st43" d="M41.7,42.2c-0.2,0-0.3,0.1-0.5,0.2c-0.2,0.1-0.4,0.2-0.5,0.5c-0.2,0.4-0.2,0.8,0.2,1c1,0.8,1.9,1.5,2.9,2.3
		c0.1,0.1,0.2,0.2,0.2,0.4c-0.2,1.4-0.3,2.8-0.5,4.2c0,0.2-0.1,0.3-0.3,0.4c-1.1,0.6-2.2,1.2-3.2,1.9c-0.1,0.1-0.2,0.1-0.3,0.1
		c-0.2,0.1-0.4,0-0.6-0.1c-0.9-0.7-1.9-1.3-2.9-2c-0.1-0.1-0.3-0.1-0.4-0.1c-0.1,0-0.2,0.1-0.3,0.2C35,51.4,35,51.8,35,52.2
		c0.3,1.8,0.9,3.4,2.2,4.6c1.8,1.7,3.9,2.2,6.1,1.6c0.6-0.1,1.1-0.4,1.7-0.6c0.2-0.1,0.5-0.3,0.7-0.4c0,0,0.1,0,0.1,0
		c0.3,0,0.5,0.3,0.7,0.5c1,0.7,1.9,1.4,2.9,2.1c0.3,0.2,0.5,0.3,0.7,0.3c0.2,0,0.3-0.3,0.6-0.6l0.1-0.2c0.6-0.9,1.2-1.9,1.8-2.8
		c0.3-0.5,0.6-1,0.9-1.5c0.2-0.4,0.2-0.6-0.1-0.8c-0.2-0.2-0.4-0.4-0.6-0.5c-1-0.8-2-1.5-3.1-2.3c-0.1-0.1-0.2-0.1-0.1-0.3
		c0.2-0.9,0.1-1.8,0-2.7c-0.1-0.5-0.1-1.1-0.3-1.6c-1.1-3-3.2-4.6-6.2-4.7C42.7,42,42.2,42,41.7,42.2"/>
</g>
</svg>
