<?xml version="1.0" encoding="utf-8"?>
<!-- Generator: Adobe Illustrator 25.4.1, SVG Export Plug-In . SVG Version: 6.00 Build 0)  -->
<svg version="1.1" id="Layer_1" xmlns="http://www.w3.org/2000/svg" xmlns:xlink="http://www.w3.org/1999/xlink" x="0px" y="0px"
	 viewBox="0 0 100 100" style="enable-background:new 0 0 100 100;" xml:space="preserve">
<style type="text/css">
	.st0{fill:#FFFFFF;}
</style>
<path class="st0" d="M85,28.6c0.1,0,0.2,0.1,0.2,0.1L84,28c0.4,0.2,0.8,0.3,1.2,0.6l-11.9-6.4c-1.1-0.6-2.5-1-3.9-1.1v-6.3
	c0-3.9-1.6-7.1-4-8.4c0,0,0,0,0,0l-0.1-0.1c0,0,0,0-0.1,0l-0.1,0c0,0,0,0-0.1,0l-1.9-1c0,0-0.1,0-0.1-0.1c0,0-0.1,0-0.1,0
	c-0.1,0-0.1-0.1-0.2-0.1c0,0-0.1-0.1-0.2-0.1L62.7,5c-0.1,0-0.1-0.1-0.2-0.1l-0.1-0.1c-0.1,0-0.2-0.1-0.3-0.1
	c-0.1-0.1-0.2-0.1-0.3-0.1L62,4.7c-0.1,0-0.2,0-0.2-0.1l-0.2-0.1c-0.2,0-0.3,0-0.4,0c-0.1,0-0.3,0-0.5,0c-0.1,0-0.2,0-0.2,0.1
	c-0.2,0-0.3,0-0.5,0L35.7,8c-0.3,0-0.7,0.1-1,0.2c-0.2,0.1-0.4,0.1-0.6,0.2l-0.1,0c-0.1,0.1-0.3,0.1-0.4,0.2
	c-0.1,0.1-0.2,0.1-0.3,0.2C33.2,8.9,33.1,8.9,33,9c0,0-0.1,0.1-0.1,0.1c0,0,0,0,0,0c0,0-0.1,0.1-0.1,0.1c0,0,0,0.1-0.1,0.1
	c0,0-0.1,0-0.1,0.1c0,0,0,0-0.1,0l0,0c0,0,0,0,0,0l-0.1,0c0,0.1-0.1,0.1-0.2,0.2c-0.1,0.1-0.1,0.1-0.2,0.2c0,0,0,0,0,0.1
	c0,0-0.1,0.1-0.1,0.1c0,0,0,0-0.1,0.1c-0.1,0.1-0.1,0.1-0.2,0.2c-0.1,0.1-0.1,0.1-0.2,0.2l0,0c-0.1,0.1-0.2,0.2-0.3,0.3
	c0,0-0.1,0-0.1,0.1l-0.1,0c-0.1,0.1-0.1,0.2-0.2,0.3c-0.1,0.1-0.1,0.2-0.2,0.3c-0.1,0.1-0.1,0.2-0.2,0.3c-0.1,0.1-0.1,0.2-0.2,0.3
	c-0.1,0.1-0.1,0.2-0.2,0.3l0,0c0,0.1-0.1,0.1-0.1,0.2c0,0.1-0.1,0.1-0.1,0.2l0,0c-0.1,0.1-0.1,0.2-0.2,0.3l-0.1,0
	c-0.1,0.1-0.1,0.3-0.2,0.4l0.1,0c0,0,0,0.1,0,0.1c0,0.1-0.1,0.2-0.1,0.3c-0.1,0.2-0.1,0.3-0.2,0.5c-0.1,0.1-0.1,0.3-0.2,0.5l0,0
	c0,0,0,0.1,0,0.1l0,0c-0.1,0.2-0.1,0.4-0.2,0.6c-0.1,0.2-0.1,0.5-0.2,0.7l0.1,0c0,0,0,0,0,0.1c-0.1,0.3-0.2,0.6-0.2,0.9
	c-0.1,0.6-0.1,1.2-0.1,1.8v7.8l-10,1.4c-5.9,0.8-10.7,6.7-10.7,13v35.2l11.8,6.4c0,0.1,0,0.3,0,0.4c0-0.1,0-0.2,0-0.3L7.5,76.5
	c0,4,2,7.4,5,9l11.9,6.4c-1.6-0.9-3-2.3-3.8-4.1c1.8,3.5,5.4,5.6,9.5,5l49.3-6.9c5.9-0.8,10.7-6.7,10.7-13l0.1-35.2
	C90.2,33.5,88.1,30.2,85,28.6z M20.2,87c0.1,0.2,0.2,0.4,0.3,0.6C20.4,87.5,20.3,87.2,20.2,87z M64.8,18.1
	C64.8,18.1,64.8,18.1,64.8,18.1l0,3.5l0,0L64.8,18.1z M63.2,40.8c0.1,0,0.2,0,0.3-0.1c0.1,0,0.1-0.1,0.2-0.1c0.1-0.1,0.3,0,0.4,0.1
	c1.3,1,2.6,2,3.9,3c0.8,0.7,1.5,1.4,2.3,2c0.3,0.2,0.3,0.5,0.2,0.8c-0.1,0.2-0.2,0.4-0.2,0.6c-0.1,0.4,0.1,0.8,0.4,1
	c0.2,0.1,0.4,0.2,0.6,0.1c0.1,0,0.3-0.1,0.4-0.2c0.1-0.1,0.2-0.1,0.3-0.2c0.2-0.1,0.3-0.2,0.4-0.2c0.3,0,0.5,0,0.7,0.2
	c0.8,0.7,1.6,1.4,2.4,2.1c0.4,0.3,0.4,0.6,0.1,1.1c-1,1.5-2,2.9-3,4.4c-0.3,0.5-0.7,0.9-1,1.4c-0.2,0.2-0.3,0.4-0.5,0.4
	c-0.1,0.1-0.3,0-0.5-0.1c-0.4-0.2-0.7-0.5-1.1-0.8c-0.5-0.4-0.9-0.8-1.4-1.2c-0.4-0.3-0.4-0.6-0.2-1.2c0.2-0.6,0.1-1-0.3-1.3
	c-0.2-0.2-0.4-0.3-0.6-0.2c-0.1,0.1-0.2,0.1-0.3,0.2c-0.2,0.2-0.3,0.3-0.5,0.4c-0.1,0-0.1,0.1-0.2,0.1s-0.3,0-0.4-0.1
	c-1.6-1.2-3.2-2.4-4.8-3.7c-0.5-0.4-0.9-0.7-1.3-1.1c-0.5-0.5-0.5-0.8-0.1-1.4c0.1-0.3,0-0.4-0.1-0.6c-0.7-0.7-1.3-1.4-2-2
	c-0.5-0.4-1-0.8-1.6-1.2c-0.5-0.3-1.1-0.5-1.8-0.6c-0.3,0-0.6,0-0.9,0.1c-0.4,0.1-0.8,0.3-1.1,0.6c-0.2,0.1-0.4,0.3-0.6,0.4
	c0,0-0.1,0.1-0.2,0.1c-0.3,0.1-0.5,0-0.7-0.2c-0.2-0.3-0.2-0.8,0-1.1c1.1-1.5,2.4-2.8,4.1-3.5c0.2-0.1,0.5-0.2,0.8-0.3
	c0.1,0,0.1,0,0.2,0c2-0.6,3.8-0.1,5.1,0.8c0.7,0.4,1.4,0.9,2.1,1.4C62.9,40.8,63,40.8,63.2,40.8z M62.6,16.8v5.1L36,25.7v-3.6
	c0-2.7,1.7-5.2,3.7-5.5l21.4-3c0.2,0,0.4,0,0.6,0C62.2,14.4,62.6,15.5,62.6,16.8z M30.5,26.5L30.5,26.5v-6.3c0-0.1,0-0.2,0-0.2
	c0,0.1,0,0.2,0,0.3V26.5z M30.6,18.4c0,0.2-0.1,0.4-0.1,0.7C30.6,18.9,30.6,18.7,30.6,18.4z M30.7,18c0-0.2,0.1-0.4,0.1-0.6
	c0,0,0,0,0-0.1l0,0c0.2-1,0.5-1.9,0.9-2.7c0,0,0,0,0-0.1l0,0c0.1-0.2,0.2-0.5,0.3-0.7c0,0,0.1-0.1,0.1-0.1l0,0
	c0-0.1,0.1-0.1,0.1-0.2c0,0,0,0,0,0l0,0c0.3-0.5,0.6-1,1-1.5l0,0c0,0,0,0,0,0c0-0.1,0.1-0.1,0.1-0.2c0,0,0,0,0.1,0c0,0,0-0.1,0-0.1
	c0,0,0,0,0.1-0.1c0,0,0.1,0,0.1,0l0,0c0.8-0.9,1.7-1.6,2.6-2l0,0c0.1,0,0.1-0.1,0.2-0.1c0.1,0,0.2-0.1,0.2-0.1c0,0,0.1,0,0.1,0
	c0,0,0,0,0.1,0c0.4-0.1,0.8-0.2,1.1-0.3l0,0l24.2-3.4L37.9,9.3C34.4,9.7,31.4,13.5,30.7,18z M35,52.2c0-0.4,0-0.8,0.5-1
	c0.1-0.1,0.2-0.2,0.3-0.2c0.1,0,0.3,0,0.4,0.1c1,0.7,2,1.3,2.9,2c0.2,0.1,0.4,0.2,0.6,0.1c0.1,0,0.2,0,0.3-0.1
	c1-0.7,2.1-1.3,3.2-1.9c0.2-0.1,0.3-0.2,0.3-0.4c0.2-1.4,0.3-2.8,0.5-4.2c0-0.2-0.1-0.3-0.2-0.4c-1-0.8-1.9-1.5-2.9-2.3
	c-0.4-0.2-0.4-0.6-0.2-1c0.1-0.3,0.3-0.4,0.5-0.5c0.2-0.1,0.3-0.2,0.5-0.2c0.5-0.2,1-0.2,1.4,0.1c3,0.1,5.1,1.7,6.2,4.7
	c0.2,0.5,0.2,1.1,0.3,1.6c0.1,0.9,0.2,1.8,0,2.7c-0.1,0.2,0,0.2,0.1,0.3c1.1,0.8,2.1,1.5,3.1,2.3c0.2,0.1,0.4,0.3,0.6,0.5
	c0.3,0.2,0.3,0.4,0.1,0.8c-0.3,0.5-0.6,1-0.9,1.5c-0.6,0.9-1.2,1.9-1.8,2.8l-0.1,0.2c-0.3,0.3-0.4,0.6-0.6,0.6
	c-0.2,0-0.4-0.1-0.7-0.3c-1-0.7-1.9-1.4-2.9-2.1c-0.2-0.2-0.4-0.5-0.7-0.5h-0.1c-0.2,0.1-0.5,0.3-0.7,0.4c-0.6,0.2-1.1,0.5-1.7,0.6
	c-2.2,0.6-4.3,0.1-6.1-1.6C35.9,55.6,35.3,54,35,52.2z M44,82.6c-0.3,0.5-0.7,1-1.3,1.2c-0.1,0-0.2,0.1-0.3,0.1
	c-0.7,0.2-1.4,0.2-2-0.1c-0.7-0.3-1.3-0.8-1.8-1.3c-0.6-0.7-0.9-1.6-0.9-2.6c0-0.4,0.1-0.8,0.4-1.2c0.8-1.1,1.5-2.2,2.3-3.3
	c5.1-7,10.3-14,15.4-21c0.6-0.9,1.3-1.7,2-2.6c0.1-0.2,0.3-0.3,0.4-0.4c0-0.1,0.1-0.2,0.2-0.2c0.1,0,0.2,0,0.3,0.1
	c0.1,0.1,0.2,0.1,0.3,0.1s0.2-0.1,0.3-0.2c0.2-0.4,0.5-0.7,0.7-1c0.1,0,0.1-0.1,0.2-0.1c0.1,0,0.1,0,0.2,0.1
	c1.1,0.8,2.1,1.6,3.2,2.5c-0.3,0.5-0.5,0.9-0.8,1.3c-0.3,0.3-0.3,0.3,0,0.6c0.2,0.2,0.2,0.8-0.1,1.2c-0.2,0.4-0.5,0.7-0.7,1.1
	c-4.5,6.5-9,13-13.6,19.3C47,78.4,45.5,80.5,44,82.6z M77.3,70c-0.2,0.2-0.3,0.4-0.5,0.4c-0.2,0-0.3,0-0.5-0.1
	c-0.4-0.3-0.8-0.5-1.2-0.8c-0.6-0.5-1.3-0.9-1.9-1.4C73.1,68,73,68,72.9,68h-0.1c-1.1,0.7-2.3,1.4-3.4,2c-0.3,0.1-0.4,0.3-0.4,0.6
	c-0.1,1.4-0.3,2.7-0.5,4.1c-0.1,0.1,0,0.2,0.1,0.3c0.9,0.7,1.8,1.4,2.7,2.1c0,0,0.1,0.1,0.2,0.2c0.4,0.5,0.3,1.2-0.4,1.5H71
	c-0.1,0.1-0.2,0.1-0.3,0.1c-3.3,0.8-6.3-0.9-7.6-3.8c-0.2-0.5-0.4-1-0.5-1.5c-0.2-1.2-0.3-2.4-0.1-3.6c0.1-0.1,0-0.2-0.1-0.3
	c-1.2-0.8-2.3-1.7-3.5-2.6c-0.4-0.3-0.7-0.5-1-0.8c-0.4-0.4-0.4-0.6-0.1-1.2c0.6-0.9,1.1-1.8,1.7-2.7c0.4-0.7,0.9-1.3,1.3-1.9
	c0.1-0.2,0.3-0.4,0.4-0.4c0.1,0,0.3,0,0.6,0.5c0.8,0.6,1.7,1.2,2.5,1.8c0.7,0.5,1.4,1,2.1,1.5c0.1,0.1,0.2,0.1,0.3,0.1
	c0-0.1,0.1-0.1,0.1-0.1c0.6-0.4,1.4-0.7,2.1-0.9c0.5-0.2,1.1-0.3,1.6-0.3c1.4-0.1,2.6,0.3,3.7,1c1.8,1.2,2.8,3,3.2,5.4
	C77.5,69.4,77.5,69.7,77.3,70z M80.6,27.6c0.7,0,1.4,0,2,0.2C82,27.7,81.3,27.6,80.6,27.6z"/>
</svg>
