<?xml version="1.0" encoding="utf-8"?>
<!-- Generator: Adobe Illustrator 25.0.0, SVG Export Plug-In . SVG Version: 6.00 Build 0)  -->
<svg version="1.1" id="Layer_1" xmlns="http://www.w3.org/2000/svg" xmlns:xlink="http://www.w3.org/1999/xlink" x="0px" y="0px"
	 viewBox="0 0 100 100" style="enable-background:new 0 0 100 100;" xml:space="preserve">
<style type="text/css">
	.st0{enable-background:new    ;}
	.st1{fill:#992C2C;}
	.st2{fill:url(#SVGID_17_);}
	.st3{fill:#E34141;}
	.st4{clip-path:url(#SVGID_19_);enable-background:new    ;}
	.st5{fill:#832525;}
	.st6{clip-path:url(#SVGID_21_);enable-background:new    ;}
	.st7{clip-path:url(#SVGID_23_);enable-background:new    ;}
	.st8{clip-path:url(#SVGID_25_);enable-background:new    ;}
	.st9{clip-path:url(#SVGID_27_);enable-background:new    ;}
	.st10{clip-path:url(#SVGID_29_);enable-background:new    ;}
	.st11{fill:#9E2D2D;}
	.st12{clip-path:url(#SVGID_31_);enable-background:new    ;}
	.st13{clip-path:url(#SVGID_33_);enable-background:new    ;}
</style>
<g>
	<g>
		<g>
			<g>
				<defs>
					<path id="SVGID_1_" d="M70.1,53.7C70.1,53.7,70.1,53.7,70.1,53.7l3.6,0.3c0,0,0,0,0,0C72.6,53.9,71.2,53.8,70.1,53.7z"/>
				</defs>
				<clipPath id="SVGID_2_">
					<use xlink:href="#SVGID_1_"  style="overflow:visible;"/>
				</clipPath>
			</g>
			<g>
				<defs>
					<path id="SVGID_3_" d="M73.7,54C73.7,54,73.7,54,73.7,54l-3.6-0.3c0,0,0,0,0,0C71.2,53.8,72.6,53.9,73.7,54z"/>
				</defs>
				<clipPath id="SVGID_4_">
					<use xlink:href="#SVGID_3_"  style="overflow:visible;"/>
				</clipPath>
			</g>
			<g>
				<defs>
					<path id="SVGID_5_" d="M70.1,53.7C70.1,53.7,70.1,53.7,70.1,53.7l3.6,0.3c0,0,0,0,0,0C72.6,53.9,71.2,53.8,70.1,53.7z"/>
				</defs>
				<clipPath id="SVGID_6_">
					<use xlink:href="#SVGID_5_"  style="overflow:visible;"/>
				</clipPath>
			</g>
			<g>
				<defs>
					
						<rect id="SVGID_7_" x="71.9" y="52" transform="matrix(8.352619e-02 -0.9965 0.9965 8.352619e-02 12.2526 120.9746)" width="0" height="3.7"/>
				</defs>
				<clipPath id="SVGID_8_">
					<use xlink:href="#SVGID_7_"  style="overflow:visible;"/>
				</clipPath>
			</g>
			<g>
				<defs>
					
						<rect id="SVGID_9_" x="71.9" y="52" transform="matrix(8.352795e-02 -0.9965 0.9965 8.352795e-02 12.2525 120.9744)" width="0" height="3.7"/>
				</defs>
				<clipPath id="SVGID_10_">
					<use xlink:href="#SVGID_9_"  style="overflow:visible;"/>
				</clipPath>
			</g>
			<g>
				<defs>
					<polygon id="SVGID_11_" points="70.1,53.7 73.7,54 73.7,54 70.1,53.7 					"/>
				</defs>
				<clipPath id="SVGID_12_">
					<use xlink:href="#SVGID_11_"  style="overflow:visible;"/>
				</clipPath>
			</g>
			<g>
				<defs>
					<path id="SVGID_13_" d="M73,60.1c5.3,3.3,10.7,6.6,16,9.9c-0.4-0.2-0.8-0.7-1.1-1.5c-1.7-3.8-1.8-12.7-0.2-19.9
						c1-4.5,2.4-7.3,3.8-7.8c-5.8,2.4-11.6,4.7-17.4,7.1c-0.6,0.2-1.2,1.4-1.6,3.3c-0.7,3-0.6,6.8,0.1,8.4
						C72.6,59.8,72.8,60,73,60.1z"/>
				</defs>
				<clipPath id="SVGID_14_">
					<use xlink:href="#SVGID_13_"  style="overflow:visible;"/>
				</clipPath>
			</g>
			<g>
				<defs>
					<path id="SVGID_15_" d="M87.7,79.4c-0.6-0.4-1.2-1.2-1.8-2.4c-2.9-6.2-3-20.9-0.4-32.9c1.6-7.4,4-12,6.2-12.9l-21.1,9.3
						c-1.2,0.5-2.5,3-3.4,7c-1.4,6.5-1.4,14.5,0.2,17.9c0.3,0.6,0.6,1.1,1,1.3C74.9,71,81.3,75.2,87.7,79.4z"/>
				</defs>
				<clipPath id="SVGID_16_">
					<use xlink:href="#SVGID_15_"  style="overflow:visible;"/>
				</clipPath>
			</g>
		</g>
	</g>
	<g>
		<g>
			<g class="st0">
				<g>
					<path class="st1" d="M8.5,27.8C5,27.3,2.2,30,2.2,33.8l0.1,33.5c0,3.8,2.8,7.2,6.3,7.7l45.8,6.4c3.5,0.5,6.3-2.2,6.3-5.9
						L60.7,42c0-3.8-2.8-7.2-6.3-7.7L8.5,27.8z"/>
				</g>
				
					<linearGradient id="SVGID_17_" gradientUnits="userSpaceOnUse" x1="4.3009" y1="46.3901" x2="8.3761" y2="38.7831" gradientTransform="matrix(-1 0 0 1 54.7071 0)">
					<stop  offset="0" style="stop-color:#D23C3C"/>
					<stop  offset="1" style="stop-color:#832525"/>
				</linearGradient>
				<path class="st2" d="M22.2,19.1c0,0,0.1-0.1,0.1-0.1c0.1,0,0.2-0.1,0.3-0.1c0.1,0,0.2-0.1,0.3-0.1c0,0,0,0,0.1,0c0,0,0,0,0,0
					c0.1,0,0.1,0,0.2-0.1c0.1,0,0.2-0.1,0.3-0.1c0.1,0,0.2,0,0.3-0.1c0,0,0,0,0,0c0,0,0,0,0,0c0.1,0,0.2,0,0.4,0c0.1,0,0.3,0,0.4,0
					c0,0,0,0,0.1,0c0,0,0.1,0,0.1,0c0.1,0,0.2,0,0.3,0c0.2,0,0.4,0,0.5,0.1L71.4,25c0,0,0,0,0,0c0,0,0,0,0.1,0
					c0.3,0,0.5,0.1,0.8,0.2c0,0,0.1,0,0.1,0c0.1,0,0.1,0,0.2,0.1c0.1,0,0.2,0.1,0.3,0.1c0.1,0,0.2,0.1,0.3,0.1
					c0.1,0,0.2,0.1,0.3,0.1c0.1,0,0.1,0,0.2,0.1c0.3,0.2,0.6,0.3,0.8,0.5c0.2,0.1,0.3,0.3,0.5,0.4c0.1,0.1,0.3,0.2,0.4,0.3
					c0.1,0.1,0.2,0.2,0.3,0.3c0.1,0.1,0.2,0.2,0.3,0.3c0.1,0.1,0.2,0.2,0.2,0.3c0.1,0.1,0.1,0.2,0.2,0.3c0.1,0.1,0.1,0.2,0.2,0.3
					c0.1,0.1,0.1,0.2,0.2,0.3c0.1,0.1,0.1,0.2,0.2,0.3c0.1,0.1,0.1,0.2,0.2,0.3c0,0.1,0.1,0.2,0.1,0.3c0,0.1,0.1,0.2,0.1,0.3
					c0,0.1,0.1,0.2,0.1,0.4c0,0,0,0,0,0.1c0,0,0,0,0,0c0,0.1,0.1,0.2,0.1,0.3c0,0.1,0.1,0.3,0.1,0.4c0,0.1,0,0.2,0,0.3
					c0,0,0,0,0,0.1c0,0,0,0.1,0,0.1c0,0.2,0,0.3,0.1,0.5c0,0.2,0,0.3,0,0.5l0.1,33.5c0,0.1,0,0.2,0,0.2c0,0.1,0,0.2,0,0.4
					c0,0.1,0,0.3,0,0.4c0,0.2-0.1,0.3-0.1,0.4c0,0.1,0,0.3-0.1,0.4c0,0.1-0.1,0.3-0.1,0.4c0,0.1-0.1,0.2-0.1,0.3
					c-0.1,0.1-0.1,0.3-0.2,0.4c-0.1,0.1-0.1,0.2-0.2,0.3c-0.1,0.1-0.2,0.2-0.2,0.4c-0.1,0.1-0.1,0.2-0.2,0.3
					c-0.1,0.1-0.2,0.2-0.3,0.3c-0.1,0.1-0.1,0.2-0.2,0.2c-0.1,0.1-0.2,0.2-0.4,0.3c-0.1,0.1-0.1,0.1-0.2,0.2
					c-0.2,0.1-0.4,0.3-0.6,0.4l-17,9.3c0.2-0.1,0.4-0.3,0.6-0.4c0.1,0,0.1-0.1,0.2-0.2c0.1-0.1,0.3-0.2,0.4-0.3
					c0.1-0.1,0.1-0.1,0.2-0.2c0.1-0.1,0.2-0.2,0.3-0.3c0.1-0.1,0.1-0.2,0.2-0.3c0.1-0.1,0.2-0.2,0.2-0.4c0.1-0.1,0.1-0.2,0.2-0.3
					c0.1-0.1,0.1-0.3,0.2-0.4c0-0.1,0.1-0.2,0.1-0.3c0-0.1,0.1-0.3,0.1-0.4c0-0.1,0.1-0.2,0.1-0.4c0-0.1,0.1-0.3,0.1-0.4
					c0-0.1,0-0.3,0-0.4c0-0.2,0-0.4,0-0.6L60.7,42c0-0.4,0-0.7-0.1-1.1c0,0,0-0.1,0-0.1c-0.3-2.2-1.6-4.1-3.3-5.4c0,0,0,0-0.1,0
					c-0.3-0.2-0.6-0.4-0.9-0.5c-0.1-0.1-0.2-0.1-0.3-0.1c-0.1,0-0.2-0.1-0.3-0.1c-0.1,0-0.2-0.1-0.3-0.1c-0.1,0-0.2-0.1-0.3-0.1
					c-0.2-0.1-0.5-0.1-0.8-0.2c0,0-0.1,0-0.1,0L8.5,27.8c-0.3,0-0.6-0.1-0.9-0.1c0,0-0.1,0-0.1,0c-0.3,0-0.6,0-0.8,0.1c0,0,0,0,0,0
					c-0.3,0-0.5,0.1-0.8,0.2c0,0,0,0,0,0c-0.3,0.1-0.5,0.2-0.7,0.3L22.2,19.1z"/>
			</g>
		</g>
		<g>
			<g class="st0">
				<g>
					<path class="st3" d="M72.7,41.9c-1.6-3.4-4-0.9-5.4,5.6c-1.4,6.5-1.4,14.5,0.2,17.9c1.6,3.4,4,0.9,5.4-5.6S74.3,45.3,72.7,41.9
						z M71.3,48.2c0.7,1.6,0.8,5.3,0.1,8.4c-0.7,3-1.8,4.2-2.5,2.6c-0.7-1.6-0.8-5.3-0.1-8.4C69.4,47.8,70.6,46.6,71.3,48.2"/>
				</g>
				<g class="st0">
					<defs>
						<path id="SVGID_18_" class="st0" d="M70.1,53.7C70.1,53.7,70.1,53.7,70.1,53.7l3.6,0.3c0,0,0,0,0,0
							C72.6,53.9,71.2,53.8,70.1,53.7z"/>
					</defs>
					<clipPath id="SVGID_19_">
						<use xlink:href="#SVGID_18_"  style="overflow:visible;"/>
					</clipPath>
					<g class="st4">
						<polyline class="st5" points="70.1,53.7 73.7,54 73.7,54 70.1,53.7 70.1,53.7 						"/>
					</g>
				</g>
				<g class="st0">
					<defs>
						<path id="SVGID_20_" class="st0" d="M73.7,54C73.7,54,73.7,54,73.7,54l-3.6-0.3c0,0,0,0,0,0C71.2,53.8,72.6,53.9,73.7,54z"/>
					</defs>
					<clipPath id="SVGID_21_">
						<use xlink:href="#SVGID_20_"  style="overflow:visible;"/>
					</clipPath>
					<g class="st6">
						<polyline class="st5" points="70.1,53.7 73.7,54 73.7,54 70.1,53.7 70.1,53.7 						"/>
					</g>
				</g>
				<g class="st0">
					<defs>
						<path id="SVGID_22_" class="st0" d="M70.1,53.7C70.1,53.7,70.1,53.7,70.1,53.7l3.6,0.3c0,0,0,0,0,0
							C72.6,53.9,71.2,53.8,70.1,53.7z"/>
					</defs>
					<clipPath id="SVGID_23_">
						<use xlink:href="#SVGID_22_"  style="overflow:visible;"/>
					</clipPath>
					<g class="st7">
						<polyline class="st5" points="70.1,53.7 73.7,54 73.7,54 70.1,53.7 70.1,53.7 						"/>
					</g>
				</g>
				<g class="st0">
					<defs>
						
							<rect id="SVGID_24_" x="71.9" y="52" transform="matrix(8.352619e-02 -0.9965 0.9965 8.352619e-02 12.2526 120.9746)" class="st0" width="0" height="3.7"/>
					</defs>
					<clipPath id="SVGID_25_">
						<use xlink:href="#SVGID_24_"  style="overflow:visible;"/>
					</clipPath>
					<g class="st8">
						<polyline class="st5" points="70.1,53.7 73.7,54 73.7,54 70.1,53.7 70.1,53.7 						"/>
					</g>
				</g>
				<g class="st0">
					<defs>
						
							<rect id="SVGID_26_" x="71.9" y="52" transform="matrix(8.352795e-02 -0.9965 0.9965 8.352795e-02 12.2525 120.9744)" class="st0" width="0" height="3.7"/>
					</defs>
					<clipPath id="SVGID_27_">
						<use xlink:href="#SVGID_26_"  style="overflow:visible;"/>
					</clipPath>
					<g class="st9">
						<polyline class="st5" points="70.1,53.7 73.7,54 73.7,54 70.1,53.7 70.1,53.7 						"/>
					</g>
				</g>
				<g class="st0">
					<defs>
						<polygon id="SVGID_28_" class="st0" points="70.1,53.7 73.7,54 73.7,54 70.1,53.7 						"/>
					</defs>
					<clipPath id="SVGID_29_">
						<use xlink:href="#SVGID_28_"  style="overflow:visible;"/>
					</clipPath>
					<g class="st10">
						<polyline class="st5" points="70.1,53.7 73.7,54 73.7,54 70.1,53.7 70.1,53.7 						"/>
					</g>
				</g>
				<g>
					<path class="st3" d="M74.9,48.5c-0.7-1.6-1.9-0.4-2.5,2.6c-0.7,3-0.6,6.8,0.1,8.4c0.7,1.6,1.9,0.4,2.5-2.6
						C75.7,53.8,75.7,50.1,74.9,48.5z M73.7,54C73.7,54,73.7,54,73.7,54C73.7,54,73.7,54,73.7,54C73.7,54,73.7,54,73.7,54
						C73.7,54,73.7,54,73.7,54"/>
				</g>
				<g class="st0">
					<path class="st11" d="M91.8,31.2l-21.1,9.3c0.1,0,0.1-0.1,0.2-0.1l21.3-9.3C92,31.1,91.9,31.2,91.8,31.2"/>
					<path class="st5" d="M92.2,31.1c0,0,0.1,0,0.1,0c0.1,0,0.2,0,0.4,0c0,0,0.1,0,0.1,0c0,0,0,0,0,0c0.1,0,0.3,0,0.4,0.1
						c0,0,0.1,0,0.1,0c0.1,0,0.1,0,0.2,0.1c0.1,0,0.1,0.1,0.2,0.1c0,0,0.1,0,0.1,0.1c0.1,0.1,0.2,0.2,0.4,0.3c0,0,0,0,0.1,0.1
						c0,0,0.1,0.1,0.1,0.1c0.1,0.1,0.2,0.2,0.3,0.4c0,0,0.1,0.1,0.1,0.1c0,0,0,0,0,0.1c0.1,0.2,0.2,0.3,0.3,0.5c0,0,0.1,0.1,0.1,0.1
						c0.1,0.1,0.1,0.2,0.2,0.3c0.1,0.1,0.1,0.2,0.2,0.4c0.1,0.3,0.3,0.6,0.4,0.9c0,0,0,0.1,0,0.1c0,0,0,0.1,0,0.1
						c0.1,0.2,0.2,0.5,0.2,0.7c0,0,0,0.1,0,0.1c0.1,0.3,0.2,0.6,0.3,0.9c0,0,0,0.1,0,0.1c0,0,0,0.1,0,0.1c0.1,0.4,0.2,0.8,0.3,1.3
						c0,0,0,0,0,0c0.1,0.4,0.2,0.9,0.2,1.4c0,0,0,0.1,0,0.1c0,0,0,0.1,0,0.1c0.1,0.5,0.1,0.9,0.2,1.4c0,0.1,0,0.2,0,0.3
						c0.1,0.5,0.1,1,0.2,1.5c0,0.1,0,0.1,0,0.2c0,0.5,0.1,1,0.1,1.5c0,0.1,0,0.1,0,0.2c0,0.5,0.1,1.1,0.1,1.6c0,0.1,0,0.2,0,0.3
						c0,0.5,0,1.1,0,1.6c0,0.1,0,0.2,0,0.3c0,0.6,0,1.1,0,1.7c0,0,0,0,0,0c0,0.6,0,1.2-0.1,1.8c0,0.1,0,0.2,0,0.3
						c0,0.6-0.1,1.2-0.1,1.7c0,0,0,0.1,0,0.1c0,0.1,0,0.1,0,0.2c0,0.6-0.1,1.2-0.1,1.8c0,0.1,0,0.1,0,0.2c-0.1,0.6-0.1,1.2-0.2,1.8
						c0,0,0,0.1,0,0.1c0,0,0,0,0,0c-0.1,1-0.2,2-0.4,3c0,0,0,0.1,0,0.1c0,0,0,0.1,0,0.1c-0.1,0.8-0.3,1.7-0.4,2.5c0,0,0,0,0,0.1
						c0,0,0,0,0,0c-0.1,0.8-0.3,1.6-0.5,2.3c0,0,0,0,0,0.1c-0.1,0.5-0.2,1-0.4,1.5c0,0.1-0.1,0.2-0.1,0.3c0,0.1-0.1,0.2-0.1,0.3
						c-0.1,0.4-0.2,0.7-0.3,1.1c0,0.1,0,0.1-0.1,0.2c-0.1,0.2-0.1,0.5-0.2,0.7c-0.1,0.2-0.1,0.4-0.2,0.5c0,0.1-0.1,0.2-0.1,0.2
						c-0.1,0.4-0.2,0.7-0.3,1c0,0.1,0,0.1-0.1,0.2c0,0.1-0.1,0.2-0.1,0.3c-0.1,0.4-0.3,0.7-0.4,1c0,0,0,0.1-0.1,0.1c0,0,0,0,0,0.1
						c-0.1,0.3-0.3,0.7-0.4,1c0,0.1-0.1,0.2-0.1,0.2c-0.1,0.1-0.1,0.2-0.2,0.3c-0.1,0.1-0.2,0.3-0.2,0.4c0,0.1-0.1,0.1-0.1,0.2
						c-0.1,0.3-0.3,0.5-0.4,0.7c0,0,0,0,0,0.1c0,0.1-0.1,0.1-0.1,0.2c-0.1,0.2-0.2,0.4-0.4,0.5c-0.1,0.1-0.1,0.1-0.2,0.2
						c-0.1,0.1-0.1,0.1-0.2,0.2c-0.1,0.1-0.1,0.1-0.2,0.2c-0.1,0.1-0.2,0.2-0.2,0.2c-0.1,0.1-0.2,0.2-0.3,0.3
						c-0.1,0.1-0.2,0.1-0.2,0.2c0,0-0.1,0.1-0.1,0.1c-0.1,0.1-0.2,0.1-0.4,0.2c0,0,0,0-0.1,0c-0.2,0.1-0.3,0.1-0.5,0.2c0,0,0,0,0,0
						c-0.1,0-0.2,0-0.3,0c-0.1,0-0.1,0-0.2,0c0,0-0.1,0-0.1,0c-0.2,0-0.3,0-0.5-0.1c0,0-0.1,0-0.1,0c-0.2-0.1-0.3-0.1-0.5-0.2
						c0,0,0,0,0,0c-6.4-4.2-12.9-8.4-19.3-12.7c0.1,0.1,0.2,0.1,0.3,0.1c0,0,0.1,0,0.1,0c0.1,0,0.2,0,0.2,0c0,0,0.1,0,0.1,0
						c0.1,0,0.1,0,0.2,0c0,0,0.1,0,0.1,0c0.1,0,0.1-0.1,0.2-0.1c0,0,0.1-0.1,0.1-0.1c0,0,0.1-0.1,0.1-0.1c0.1,0,0.1-0.1,0.2-0.1
						c0,0,0.1-0.1,0.1-0.1c0.1-0.1,0.1-0.1,0.2-0.2c0,0,0.1-0.1,0.1-0.1c0.1-0.1,0.1-0.2,0.2-0.3c0,0,0-0.1,0.1-0.1
						c0,0,0-0.1,0.1-0.1c0.1-0.2,0.2-0.4,0.3-0.6c0-0.1,0.1-0.1,0.1-0.2c0.1-0.2,0.2-0.4,0.3-0.7c0,0,0-0.1,0-0.1
						c0.1-0.3,0.2-0.5,0.3-0.8c0-0.1,0.1-0.2,0.1-0.3c0.1-0.2,0.1-0.4,0.2-0.6c0-0.1,0.1-0.2,0.1-0.3c0.1-0.2,0.1-0.4,0.2-0.7
						c0-0.1,0.1-0.2,0.1-0.3c0.1-0.3,0.2-0.6,0.2-1c0,0,0-0.1,0-0.1c0.1-0.4,0.2-0.8,0.3-1.3c0-0.1,0-0.1,0-0.2
						c0.1-0.4,0.1-0.8,0.2-1.2c0-0.1,0-0.3,0.1-0.4c0.1-0.4,0.1-0.8,0.2-1.2c0-0.1,0-0.3,0-0.4c0.1-0.7,0.1-1.3,0.2-2
						c0-0.2,0-0.5,0-0.7c0-0.1,0-0.3,0-0.4c0-0.4,0-0.8,0-1.1c0,0,0,0,0,0c0-0.4,0-0.8,0-1.2c0-0.1,0-0.2,0-0.4c0-0.3,0-0.5,0-0.8
						c0-0.1,0-0.3,0-0.4c0-0.2,0-0.5,0-0.7c0-0.1,0-0.3,0-0.4c0-0.2,0-0.4-0.1-0.6c0-0.1,0-0.3,0-0.4c0-0.2-0.1-0.4-0.1-0.7
						c0-0.1,0-0.2,0-0.3c0-0.3-0.1-0.6-0.2-0.9c0,0,0,0,0,0c-0.1-0.3-0.1-0.6-0.2-0.8c0,0,0-0.1,0-0.1c-0.1-0.2-0.1-0.4-0.2-0.6
						c0-0.1,0-0.1-0.1-0.2c-0.1-0.2-0.2-0.4-0.3-0.6c0-0.1-0.1-0.2-0.1-0.3c-0.1-0.1-0.2-0.3-0.2-0.4c0,0,0-0.1-0.1-0.1
						c-0.1-0.1-0.2-0.2-0.3-0.3c0,0,0,0-0.1-0.1c-0.1-0.1-0.2-0.1-0.2-0.2c0,0-0.1,0-0.1,0c-0.1,0-0.2-0.1-0.3-0.1c0,0,0,0-0.1,0
						c-0.1,0-0.2,0-0.3,0c-0.1,0-0.2,0-0.2,0.1l21.1-9.3c0.1,0,0.2-0.1,0.3-0.1L92.2,31.1C92.2,31.1,92.2,31.1,92.2,31.1z"/>
				</g>
				<g class="st0">
					<defs>
						<path id="SVGID_30_" class="st0" d="M73,60.1c5.3,3.3,10.7,6.6,16,9.9c-0.4-0.2-0.8-0.7-1.1-1.5c-1.7-3.8-1.8-12.7-0.2-19.9
							c1-4.5,2.4-7.3,3.8-7.8c-5.8,2.4-11.6,4.7-17.4,7.1c-0.6,0.2-1.2,1.4-1.6,3.3c-0.7,3-0.6,6.8,0.1,8.4
							C72.6,59.8,72.8,60,73,60.1z"/>
					</defs>
					<clipPath id="SVGID_31_">
						<use xlink:href="#SVGID_30_"  style="overflow:visible;"/>
					</clipPath>
					<g class="st12">
						<path class="st5" d="M73,60.1L89,70c-0.4-0.2-0.8-0.7-1.1-1.5c-1.7-3.8-1.8-12.7-0.2-19.9c1-4.5,2.4-7.3,3.8-7.8L74,47.8
							c-0.6,0.2-1.2,1.4-1.6,3.3c-0.7,3-0.6,6.8,0.1,8.4C72.6,59.8,72.8,60,73,60.1"/>
					</g>
				</g>
				<g class="st0">
					<defs>
						<path id="SVGID_32_" class="st0" d="M87.7,79.4c-0.6-0.4-1.2-1.2-1.8-2.4c-2.9-6.2-3-20.9-0.4-32.9c1.6-7.4,4-12,6.2-12.9
							l-21.1,9.3c-1.2,0.5-2.5,3-3.4,7c-1.4,6.5-1.4,14.5,0.2,17.9c0.3,0.6,0.6,1.1,1,1.3C74.9,71,81.3,75.2,87.7,79.4z"/>
					</defs>
					<clipPath id="SVGID_33_">
						<use xlink:href="#SVGID_32_"  style="overflow:visible;"/>
					</clipPath>
					<g class="st13">
						<path class="st5" d="M87.7,79.4L68.4,66.7c-0.3-0.2-0.7-0.7-1-1.3c-1.6-3.4-1.6-11.4-0.2-17.9c0.9-4,2.2-6.5,3.4-7l21.1-9.3
							c-2.2,1-4.5,5.6-6.2,12.9c-2.7,11.9-2.5,26.7,0.4,32.9C86.5,78.2,87.1,79,87.7,79.4"/>
					</g>
				</g>
				<g>
					<path class="st3" d="M95.6,33.8c-2.9-6.2-7.3-1.6-10,10.4S83.1,70.8,85.9,77s7.3,1.6,10-10.4S98.4,40,95.6,33.8z M93.7,42.3
						c1.7,3.8,1.8,12.7,0.2,19.9s-4.3,10-6,6.3c-1.7-3.8-1.8-12.7-0.2-19.9C89.2,41.4,91.9,38.6,93.7,42.3"/>
				</g>
			</g>
		</g>
		<path class="st3" d="M18.2,41.6v23.5c0,1.4,1.4,2.4,2.7,1.9l24-8.4c1.6-0.6,1.8-2.7,0.4-3.6l-24-15.1C20,39.1,18.2,40,18.2,41.6z"
			/>
	</g>
	<g>
		<g>
			<g>
				<defs>
					<path id="SVGID_34_" d="M70.1,53.7C70.1,53.7,70.1,53.7,70.1,53.7l3.6,0.3c0,0,0,0,0,0C72.6,53.9,71.2,53.8,70.1,53.7z"/>
				</defs>
				<clipPath id="SVGID_35_">
					<use xlink:href="#SVGID_34_"  style="overflow:visible;"/>
				</clipPath>
			</g>
			<g>
				<defs>
					<path id="SVGID_36_" d="M73.7,54C73.7,54,73.7,54,73.7,54l-3.6-0.3c0,0,0,0,0,0C71.2,53.8,72.6,53.9,73.7,54z"/>
				</defs>
				<clipPath id="SVGID_37_">
					<use xlink:href="#SVGID_36_"  style="overflow:visible;"/>
				</clipPath>
			</g>
			<g>
				<defs>
					<path id="SVGID_38_" d="M70.1,53.7C70.1,53.7,70.1,53.7,70.1,53.7l3.6,0.3c0,0,0,0,0,0C72.6,53.9,71.2,53.8,70.1,53.7z"/>
				</defs>
				<clipPath id="SVGID_39_">
					<use xlink:href="#SVGID_38_"  style="overflow:visible;"/>
				</clipPath>
			</g>
			<g>
				<defs>
					
						<rect id="SVGID_40_" x="71.9" y="52" transform="matrix(8.352619e-02 -0.9965 0.9965 8.352619e-02 12.2526 120.9746)" width="0" height="3.7"/>
				</defs>
				<clipPath id="SVGID_41_">
					<use xlink:href="#SVGID_40_"  style="overflow:visible;"/>
				</clipPath>
			</g>
			<g>
				<defs>
					
						<rect id="SVGID_42_" x="71.9" y="52" transform="matrix(8.352795e-02 -0.9965 0.9965 8.352795e-02 12.2525 120.9744)" width="0" height="3.7"/>
				</defs>
				<clipPath id="SVGID_43_">
					<use xlink:href="#SVGID_42_"  style="overflow:visible;"/>
				</clipPath>
			</g>
			<g>
				<defs>
					<polygon id="SVGID_44_" points="70.1,53.7 73.7,54 73.7,54 70.1,53.7 					"/>
				</defs>
				<clipPath id="SVGID_45_">
					<use xlink:href="#SVGID_44_"  style="overflow:visible;"/>
				</clipPath>
			</g>
			<g>
				<defs>
					<path id="SVGID_46_" d="M73,60.1c5.3,3.3,10.7,6.6,16,9.9c-0.4-0.2-0.8-0.7-1.1-1.5c-1.7-3.8-1.8-12.7-0.2-19.9
						c1-4.5,2.4-7.3,3.8-7.8c-5.8,2.4-11.6,4.7-17.4,7.1c-0.6,0.2-1.2,1.4-1.6,3.3c-0.7,3-0.6,6.8,0.1,8.4
						C72.6,59.8,72.8,60,73,60.1z"/>
				</defs>
				<clipPath id="SVGID_47_">
					<use xlink:href="#SVGID_46_"  style="overflow:visible;"/>
				</clipPath>
			</g>
			<g>
				<defs>
					<path id="SVGID_48_" d="M87.7,79.4c-0.6-0.4-1.2-1.2-1.8-2.4c-2.9-6.2-3-20.9-0.4-32.9c1.6-7.4,4-12,6.2-12.9l-21.1,9.3
						c-1.2,0.5-2.5,3-3.4,7c-1.4,6.5-1.4,14.5,0.2,17.9c0.3,0.6,0.6,1.1,1,1.3C74.9,71,81.3,75.2,87.7,79.4z"/>
				</defs>
				<clipPath id="SVGID_49_">
					<use xlink:href="#SVGID_48_"  style="overflow:visible;"/>
				</clipPath>
			</g>
		</g>
	</g>
</g>
</svg>
