<?xml version="1.0" encoding="utf-8"?>
<!-- Generator: Adobe Illustrator 25.0.0, SVG Export Plug-In . SVG Version: 6.00 Build 0)  -->
<svg version="1.1" id="Layer_1" xmlns="http://www.w3.org/2000/svg" xmlns:xlink="http://www.w3.org/1999/xlink" x="0px" y="0px"
	 viewBox="0 0 100 100" style="enable-background:new 0 0 100 100;" xml:space="preserve">
<style type="text/css">
	.st0{fill:#992C2C;}
	.st1{fill:#E34141;}
	.st2{fill:url(#SVGID_1_);}
	.st3{enable-background:new    ;}
	.st4{fill:url(#SVGID_2_);}
	.st5{clip-path:url(#SVGID_4_);enable-background:new    ;}
	.st6{fill:#832525;}
	.st7{clip-path:url(#SVGID_6_);enable-background:new    ;}
	.st8{clip-path:url(#SVGID_8_);enable-background:new    ;}
	.st9{clip-path:url(#SVGID_10_);enable-background:new    ;}
	.st10{clip-path:url(#SVGID_12_);enable-background:new    ;}
	.st11{clip-path:url(#SVGID_14_);enable-background:new    ;}
	.st12{fill:#9E2D2D;}
	.st13{clip-path:url(#SVGID_16_);enable-background:new    ;}
	.st14{clip-path:url(#SVGID_18_);enable-background:new    ;}
	.st15{fill:url(#SVGID_19_);}
	.st16{fill:url(#SVGID_20_);}
	.st17{fill:url(#SVGID_21_);}
	.st18{fill:url(#SVGID_22_);}
	.st19{fill:url(#SVGID_23_);}
	.st20{fill:url(#SVGID_24_);}
</style>
<g>
	<rect x="6.9" y="7.1" transform="matrix(0.9657 -0.2596 0.2596 0.9657 -5.0933 8.675)" class="st0" width="46.7" height="33.1"/>
	<rect x="9.1" y="9.1" transform="matrix(0.9657 -0.2596 0.2596 0.9657 -5.0407 8.6532)" class="st1" width="42.2" height="28.6"/>
	
		<linearGradient id="SVGID_1_" gradientUnits="userSpaceOnUse" x1="11.5907" y1="28.6785" x2="52.3019" y2="28.6785" gradientTransform="matrix(0.9657 -0.2596 0.2596 0.9657 -6.4357 9.6926)">
		<stop  offset="0" style="stop-color:#D23C3C"/>
		<stop  offset="1" style="stop-color:#832525"/>
	</linearGradient>
	<path class="st2" d="M14.1,41.5L53.4,31l-2-7.6c0,0-7.6,6.8-13.5,6C32,28.5,18.1,15.9,12.1,34L14.1,41.5z"/>
	<circle class="st0" cx="36.8" cy="16.5" r="5.7"/>
</g>
<g>
	<g>
		<g>
			<g class="st3">
				<g>
					<path class="st0" d="M13.9,47.9c-3.2-0.5-5.8,2-5.8,5.5l0.1,30.9c0,3.5,2.6,6.6,5.8,7.1l42.2,5.9c3.2,0.5,5.8-2,5.8-5.4V61
						c0-3.5-2.6-6.6-5.8-7.1L13.9,47.9z"/>
				</g>
				
					<linearGradient id="SVGID_2_" gradientUnits="userSpaceOnUse" x1="-1261.957" y1="37.0612" x2="-1258.204" y2="44.0668" gradientTransform="matrix(-1 0 0 -1 -1209.2928 102)">
					<stop  offset="0" style="stop-color:#D23C3C"/>
					<stop  offset="1" style="stop-color:#832525"/>
				</linearGradient>
				<path class="st4" d="M26.5,39.9L26.5,39.9c0.2-0.1,0.3-0.2,0.4-0.2s0.2-0.1,0.3-0.1c0,0,0,0,0.1,0l0,0c0.1,0,0.1,0,0.2-0.1
					c0.1,0,0.2-0.1,0.3-0.1c0.1,0,0.2,0,0.3-0.1l0,0l0,0c0.1,0,0.2,0,0.4,0c0.1,0,0.3,0,0.4,0c0,0,0,0,0.1,0h0.1c0.1,0,0.2,0,0.3,0
					c0.2,0,0.4,0,0.5,0.1l42.2,5.9l0,0c0,0,0,0,0.1,0c0.3,0,0.5,0.1,0.7,0.2h0.1c0.1,0,0.1,0,0.2,0.1c0.1,0,0.2,0.1,0.3,0.1
					s0.2,0.1,0.3,0.1c0.1,0,0.2,0.1,0.3,0.1c0.1,0,0.1,0,0.2,0.1c0.3,0.2,0.6,0.3,0.7,0.5c0.2,0.1,0.3,0.3,0.5,0.4
					c0.1,0.1,0.3,0.2,0.4,0.3c0.1,0.1,0.2,0.2,0.3,0.3c0.1,0.1,0.2,0.2,0.3,0.3c0.1,0.1,0.2,0.2,0.2,0.3c0.1,0.1,0.1,0.2,0.2,0.3
					s0.1,0.2,0.2,0.3c0.1,0.1,0.1,0.2,0.2,0.3c0.1,0.1,0.1,0.2,0.2,0.3s0.1,0.2,0.2,0.3c0,0.1,0.1,0.2,0.1,0.3s0.1,0.2,0.1,0.3
					s0.1,0.2,0.1,0.4c0,0,0,0,0,0.1l0,0c0,0.1,0.1,0.2,0.1,0.3s0.1,0.3,0.1,0.4s0,0.2,0,0.3c0,0,0,0,0,0.1v0.1c0,0.2,0,0.3,0.1,0.5
					c0,0.2,0,0.3,0,0.5l0.1,30.9c0,0.1,0,0.2,0,0.2c0,0.1,0,0.2,0,0.4c0,0.1,0,0.3,0,0.4c0,0.2-0.1,0.3-0.1,0.4c0,0.1,0,0.3-0.1,0.4
					c0,0.1-0.1,0.3-0.1,0.4s-0.1,0.2-0.1,0.3c-0.1,0.1-0.1,0.3-0.2,0.4c-0.1,0.1-0.1,0.2-0.2,0.3s-0.2,0.2-0.2,0.4
					c-0.1,0.1-0.1,0.2-0.2,0.3s-0.2,0.2-0.3,0.3c-0.1,0.1-0.1,0.2-0.2,0.2c-0.1,0.1-0.2,0.2-0.4,0.3c-0.1,0.1-0.1,0.1-0.2,0.2
					c-0.2,0.1-0.4,0.3-0.6,0.4l-15.7,8.6c0.2-0.1,0.4-0.3,0.6-0.4c0.1,0,0.1-0.1,0.2-0.2c0.1-0.1,0.3-0.2,0.4-0.3
					c0.1-0.1,0.1-0.1,0.2-0.2c0.1-0.1,0.2-0.2,0.3-0.3c0.1-0.1,0.1-0.2,0.2-0.3s0.2-0.2,0.2-0.4c0.1-0.1,0.1-0.2,0.2-0.3
					c0.1-0.1,0.1-0.3,0.2-0.4c0-0.1,0.1-0.2,0.1-0.3s0.1-0.3,0.1-0.4s0.1-0.2,0.1-0.4c0-0.1,0.1-0.3,0.1-0.4s0-0.3,0-0.4
					c0-0.2,0-0.4,0-0.6L62,61c0-0.4,0-0.6-0.1-1v-0.1c-0.3-2-1.5-3.8-3-5c0,0,0,0-0.1,0c-0.3-0.2-0.6-0.4-0.8-0.5
					c-0.1-0.1-0.2-0.1-0.3-0.1c-0.1,0-0.2-0.1-0.3-0.1c-0.1,0-0.2-0.1-0.3-0.1c-0.1,0-0.2-0.1-0.3-0.1c-0.2-0.1-0.5-0.1-0.7-0.2H56
					l-42.1-6c-0.3,0-0.6-0.1-0.8-0.1H13c-0.3,0-0.6,0-0.7,0.1l0,0c-0.3,0-0.5,0.1-0.7,0.2l0,0c-0.3,0.1-0.5,0.2-0.6,0.3L26.5,39.9z"
					/>
			</g>
		</g>
		<g>
			<g class="st3">
				<g>
					<path class="st1" d="M73,60.9c-1.5-3.1-3.7-0.8-5,5.2s-1.3,13.4,0.2,16.5c1.5,3.1,3.7,0.8,5-5.2C74.5,71.4,74.5,64,73,60.9z
						 M71.8,66.7c0.6,1.5,0.7,4.9,0.1,7.7c-0.6,2.8-1.7,3.9-2.3,2.4c-0.6-1.5-0.7-4.9-0.1-7.7C70,66.3,71.1,65.2,71.8,66.7"/>
				</g>
				<g class="st3">
					<g>
						<defs>
							<path id="SVGID_3_" d="M70.6,71.8L70.6,71.8L74,72l0,0C72.9,71.9,71.7,71.8,70.6,71.8z"/>
						</defs>
						<clipPath id="SVGID_4_">
							<use xlink:href="#SVGID_3_"  style="overflow:visible;"/>
						</clipPath>
						<g class="st5">
							<polyline class="st6" points="70.6,71.8 74,72 74,72 70.6,71.8 70.6,71.8 							"/>
						</g>
					</g>
				</g>
				<g class="st3">
					<g>
						<defs>
							<path id="SVGID_5_" d="M74,72L74,72l-3.3-0.3l0,0C71.7,71.8,72.9,71.9,74,72z"/>
						</defs>
						<clipPath id="SVGID_6_">
							<use xlink:href="#SVGID_5_"  style="overflow:visible;"/>
						</clipPath>
						<g class="st7">
							<polyline class="st6" points="70.6,71.8 74,72 74,72 70.6,71.8 70.6,71.8 							"/>
						</g>
					</g>
				</g>
				<g class="st3">
					<g>
						<defs>
							<path id="SVGID_7_" d="M70.6,71.8L70.6,71.8L74,72l0,0C72.9,71.9,71.7,71.8,70.6,71.8z"/>
						</defs>
						<clipPath id="SVGID_8_">
							<use xlink:href="#SVGID_7_"  style="overflow:visible;"/>
						</clipPath>
						<g class="st8">
							<polyline class="st6" points="70.6,71.8 74,72 74,72 70.6,71.8 70.6,71.8 							"/>
						</g>
					</g>
				</g>
				<g class="st3">
					<g>
						<defs>
							<rect id="SVGID_9_" x="72.3" y="70.2" width="0" height="3.4"/>
						</defs>
						<clipPath id="SVGID_10_">
							<use xlink:href="#SVGID_9_"  style="overflow:visible;"/>
						</clipPath>
						<g class="st9">
							<polyline class="st6" points="70.6,71.8 74,72 74,72 70.6,71.8 70.6,71.8 							"/>
						</g>
					</g>
				</g>
				<g class="st3">
					<g>
						<defs>
							<rect id="SVGID_11_" x="72.3" y="70.2" width="0" height="3.4"/>
						</defs>
						<clipPath id="SVGID_12_">
							<use xlink:href="#SVGID_11_"  style="overflow:visible;"/>
						</clipPath>
						<g class="st10">
							<polyline class="st6" points="70.6,71.8 74,72 74,72 70.6,71.8 70.6,71.8 							"/>
						</g>
					</g>
				</g>
				<g class="st3">
					<g>
						<defs>
							<polygon id="SVGID_13_" points="70.6,71.8 74,72 74,72 							"/>
						</defs>
						<clipPath id="SVGID_14_">
							<use xlink:href="#SVGID_13_"  style="overflow:visible;"/>
						</clipPath>
						<g class="st11">
							<polyline class="st6" points="70.6,71.8 74,72 74,72 70.6,71.8 70.6,71.8 							"/>
						</g>
					</g>
				</g>
				<g>
					<path class="st1" d="M75.1,67c-0.6-1.5-1.7-0.4-2.3,2.4c-0.6,2.8-0.6,6.3,0.1,7.7c0.6,1.5,1.7,0.4,2.3-2.4
						C75.8,71.8,75.8,68.4,75.1,67z M74,72L74,72L74,72L74,72L74,72"/>
				</g>
				<g class="st3">
					<path class="st12" d="M90.6,51l-19.4,8.6c0.1,0,0.1-0.1,0.2-0.1L91,50.9C90.8,50.9,90.7,51,90.6,51"/>
					<path class="st6" d="M91,50.9L91,50.9c0.2,0,0.3,0,0.5,0h0.1l0,0c0.1,0,0.3,0,0.4,0.1H92c0.1,0,0.1,0,0.2,0.1
						c0.1,0,0.1,0.1,0.2,0.1c0,0,0.1,0,0.1,0.1c0.1,0.1,0.2,0.2,0.4,0.3c0,0,0,0,0.1,0.1l0.1,0.1c0.1,0.1,0.2,0.2,0.3,0.4l0.1,0.1
						c0,0,0,0,0,0.1c0.1,0.2,0.2,0.3,0.3,0.5l0.1,0.1c0.1,0.1,0.1,0.2,0.2,0.3c0.1,0.1,0.1,0.2,0.2,0.4c0.1,0.3,0.3,0.6,0.4,0.8v0.1
						v0.1c0.1,0.2,0.2,0.5,0.2,0.6v0.1c0.1,0.3,0.2,0.6,0.3,0.8v0.1v0.1c0.1,0.4,0.2,0.7,0.3,1.2l0,0c0.1,0.4,0.2,0.8,0.2,1.3v0.1
						V59c0.1,0.5,0.1,0.8,0.2,1.3c0,0.1,0,0.2,0,0.3c0.1,0.5,0.1,0.9,0.2,1.4c0,0.1,0,0.1,0,0.2c0,0.5,0.1,0.9,0.1,1.4
						c0,0.1,0,0.1,0,0.2c0,0.5,0.1,1,0.1,1.5c0,0.1,0,0.2,0,0.3c0,0.5,0,1,0,1.5c0,0.1,0,0.2,0,0.3c0,0.6,0,1,0,1.6l0,0
						c0,0.6,0,1.1-0.1,1.7c0,0.1,0,0.2,0,0.3c0,0.6-0.1,1.1-0.1,1.6v0.1c0,0.1,0,0.1,0,0.2c0,0.6-0.1,1.1-0.1,1.7c0,0.1,0,0.1,0,0.2
						c-0.1,0.6-0.1,1.1-0.2,1.7v0.1l0,0c-0.1,0.9-0.2,1.8-0.4,2.8v0.1V79c-0.1,0.7-0.3,1.6-0.4,2.3c0,0,0,0,0,0.1l0,0
						c-0.1,0.7-0.3,1.5-0.5,2.1c0,0,0,0,0,0.1c-0.1,0.5-0.2,0.9-0.4,1.4c0,0.1-0.1,0.2-0.1,0.3c0,0.1-0.1,0.2-0.1,0.3
						c-0.1,0.4-0.2,0.6-0.3,1c0,0.1,0,0.1-0.1,0.2c-0.1,0.2-0.1,0.5-0.2,0.6c-0.1,0.2-0.1,0.4-0.2,0.5c0,0.1-0.1,0.2-0.1,0.2
						c-0.1,0.4-0.2,0.6-0.3,0.9c0,0.1,0,0.1-0.1,0.2c0,0.1-0.1,0.2-0.1,0.3c-0.1,0.4-0.3,0.6-0.4,0.9c0,0,0,0.1-0.1,0.1
						c0,0,0,0,0,0.1c-0.1,0.3-0.3,0.6-0.4,0.9c0,0.1-0.1,0.2-0.1,0.2c-0.1,0.1-0.1,0.2-0.2,0.3c-0.1,0.1-0.2,0.3-0.2,0.4
						c0,0.1-0.1,0.1-0.1,0.2c-0.1,0.3-0.3,0.5-0.4,0.6c0,0,0,0,0,0.1c0,0.1-0.1,0.1-0.1,0.2c-0.1,0.2-0.2,0.4-0.4,0.5
						c-0.1,0.1-0.1,0.1-0.2,0.2c-0.1,0.1-0.1,0.1-0.2,0.2c-0.1,0.1-0.1,0.1-0.2,0.2c-0.1,0.1-0.2,0.2-0.2,0.2
						c-0.1,0.1-0.2,0.2-0.3,0.3c-0.1,0.1-0.2,0.1-0.2,0.2L89,95.1c-0.1,0.1-0.2,0.1-0.4,0.2c0,0,0,0-0.1,0c-0.2,0.1-0.3,0.1-0.5,0.2
						l0,0c-0.1,0-0.2,0-0.3,0c-0.1,0-0.1,0-0.2,0h-0.1c-0.2,0-0.3,0-0.5-0.1h-0.1c-0.2-0.1-0.3-0.1-0.5-0.2l0,0
						c-5.9-3.9-11.9-7.7-17.8-11.7c0.1,0.1,0.2,0.1,0.3,0.1h0.1c0.1,0,0.2,0,0.2,0h0.1c0.1,0,0.1,0,0.2,0h0.1c0.1,0,0.1-0.1,0.2-0.1
						l0.1-0.1l0.1-0.1c0.1,0,0.1-0.1,0.2-0.1l0.1-0.1c0.1-0.1,0.1-0.1,0.2-0.2l0.1-0.1c0.1-0.1,0.1-0.2,0.2-0.3c0,0,0-0.1,0.1-0.1
						c0,0,0-0.1,0.1-0.1c0.1-0.2,0.2-0.4,0.3-0.6c0-0.1,0.1-0.1,0.1-0.2c0.1-0.2,0.2-0.4,0.3-0.6V81c0.1-0.3,0.2-0.5,0.3-0.7
						c0-0.1,0.1-0.2,0.1-0.3c0.1-0.2,0.1-0.4,0.2-0.6c0-0.1,0.1-0.2,0.1-0.3c0.1-0.2,0.1-0.4,0.2-0.6c0-0.1,0.1-0.2,0.1-0.3
						c0.1-0.3,0.2-0.6,0.2-0.9v-0.1c0.1-0.4,0.2-0.7,0.3-1.2c0-0.1,0-0.1,0-0.2c0.1-0.4,0.1-0.7,0.2-1.1c0-0.1,0-0.3,0.1-0.4
						c0.1-0.4,0.1-0.7,0.2-1.1c0-0.1,0-0.3,0-0.4c0.1-0.6,0.1-1.2,0.2-1.8c0-0.2,0-0.5,0-0.6c0-0.1,0-0.3,0-0.4c0-0.4,0-0.7,0-1l0,0
						c0-0.4,0-0.7,0-1.1c0-0.1,0-0.2,0-0.4c0-0.3,0-0.5,0-0.7c0-0.1,0-0.3,0-0.4c0-0.2,0-0.5,0-0.6c0-0.1,0-0.3,0-0.4
						c0-0.2,0-0.4-0.1-0.6c0-0.1,0-0.3,0-0.4c0-0.2-0.1-0.4-0.1-0.6c0-0.1,0-0.2,0-0.3c0-0.3-0.1-0.6-0.2-0.8l0,0
						c-0.1-0.3-0.1-0.6-0.2-0.7v-0.1c-0.1-0.2-0.1-0.4-0.2-0.6c0-0.1,0-0.1-0.1-0.2c-0.1-0.2-0.2-0.4-0.3-0.6c0-0.1-0.1-0.2-0.1-0.3
						c-0.1-0.1-0.2-0.3-0.2-0.4c0,0,0-0.1-0.1-0.1c-0.1-0.1-0.2-0.2-0.3-0.3c0,0,0,0-0.1-0.1c-0.1-0.1-0.2-0.1-0.2-0.2h-0.1
						c-0.1,0-0.2-0.1-0.3-0.1c0,0,0,0-0.1,0s-0.2,0-0.3,0s-0.2,0-0.2,0.1l19.4-8.6c0.1,0,0.2-0.1,0.3-0.1L91,50.9L91,50.9z"/>
				</g>
				<g class="st3">
					<g>
						<defs>
							<path id="SVGID_15_" d="M73.3,77.6c4.9,3,9.9,6.1,14.7,9.1c-0.4-0.2-0.7-0.6-1-1.4c-1.6-3.5-1.7-11.7-0.2-18.3
								c0.9-4.1,2.2-6.7,3.5-7.2c-5.3,2.2-10.7,4.3-16,6.5c-0.6,0.2-1.1,1.3-1.5,3c-0.6,2.8-0.6,6.3,0.1,7.7
								C72.9,77.4,73.1,77.6,73.3,77.6z"/>
						</defs>
						<clipPath id="SVGID_16_">
							<use xlink:href="#SVGID_15_"  style="overflow:visible;"/>
						</clipPath>
						<g class="st13">
							<path class="st6" d="M73.3,77.6l14.7,9.1c-0.4-0.2-0.7-0.6-1-1.4c-1.6-3.5-1.7-11.7-0.2-18.3c0.9-4.1,2.2-6.7,3.5-7.2
								l-16.1,6.4c-0.6,0.2-1.1,1.3-1.5,3c-0.6,2.8-0.6,6.3,0.1,7.7C72.9,77.4,73.1,77.6,73.3,77.6"/>
						</g>
					</g>
				</g>
				<g class="st3">
					<g>
						<defs>
							<path id="SVGID_17_" d="M86.9,95.4c-0.6-0.4-1.1-1.1-1.7-2.2c-2.7-5.7-2.8-19.2-0.4-30.3c1.5-6.8,3.7-11.1,5.7-11.9
								l-19.4,8.6C70,60.1,68.8,62.4,68,66c-1.3,6-1.3,13.4,0.2,16.5c0.3,0.6,0.6,1,0.9,1.2C75.1,87.7,81,91.6,86.9,95.4z"/>
						</defs>
						<clipPath id="SVGID_18_">
							<use xlink:href="#SVGID_17_"  style="overflow:visible;"/>
						</clipPath>
						<g class="st14">
							<path class="st6" d="M86.9,95.4L69.1,83.7c-0.3-0.2-0.6-0.6-0.9-1.2C66.7,79.4,66.7,72,68,66c0.8-3.7,2-6,3.1-6.4L90.5,51
								c-2,0.9-4.1,5.2-5.7,11.9c-2.5,11-2.3,24.6,0.4,30.3C85.7,94.3,86.3,95.1,86.9,95.4"/>
						</g>
					</g>
				</g>
				<g>
					<path class="st1" d="M94.1,53.4c-2.7-5.7-6.7-1.5-9.2,9.6c-2.5,11.1-2.3,24.5,0.3,30.2s6.7,1.5,9.2-9.6
						C96.9,72.6,96.7,59.1,94.1,53.4z M92.4,61.3c1.6,3.5,1.7,11.7,0.2,18.3s-4,9.2-5.5,5.8c-1.6-3.5-1.7-11.7-0.2-18.3
						C88.2,60.4,90.7,57.8,92.4,61.3"/>
				</g>
			</g>
		</g>
		<path class="st1" d="M22.8,60.6v21.6c0,1.3,1.3,2.2,2.5,1.7l22.1-7.7c1.5-0.6,1.7-2.5,0.4-3.3L25.7,59
			C24.5,58.3,22.8,59.1,22.8,60.6z"/>
	</g>
</g>
<g>
	<linearGradient id="SVGID_19_" gradientUnits="userSpaceOnUse" x1="60.4566" y1="42.0403" x2="60.4566" y2="8.7726">
		<stop  offset="0" style="stop-color:#832525"/>
		<stop  offset="1" style="stop-color:#D23C3C"/>
	</linearGradient>
	<path class="st15" d="M61,42h-1c-0.8,0-1.5-0.7-1.5-1.5V10.3c0-0.8,0.7-1.5,1.5-1.5h1c0.8,0,1.5,0.7,1.5,1.5v30.3
		C62.5,41.4,61.8,42,61,42z"/>
	<linearGradient id="SVGID_20_" gradientUnits="userSpaceOnUse" x1="67.4055" y1="35.6887" x2="67.4055" y2="2.421">
		<stop  offset="0" style="stop-color:#832525"/>
		<stop  offset="1" style="stop-color:#D23C3C"/>
	</linearGradient>
	<path class="st16" d="M67.9,35.7h-1c-0.8,0-1.5-0.7-1.5-1.5V3.9c0-0.8,0.7-1.5,1.5-1.5h1c0.8,0,1.5,0.7,1.5,1.5v30.3
		C69.4,35,68.7,35.7,67.9,35.7z"/>
	<linearGradient id="SVGID_21_" gradientUnits="userSpaceOnUse" x1="88.2521" y1="42.0403" x2="88.2521" y2="8.7726">
		<stop  offset="0" style="stop-color:#832525"/>
		<stop  offset="1" style="stop-color:#D23C3C"/>
	</linearGradient>
	<path class="st17" d="M88.8,42h-1c-0.8,0-1.5-0.7-1.5-1.5V10.3c0-0.8,0.7-1.5,1.5-1.5h1c0.8,0,1.5,0.7,1.5,1.5v30.3
		C90.3,41.4,89.6,42,88.8,42z"/>
	<linearGradient id="SVGID_22_" gradientUnits="userSpaceOnUse" x1="95.201" y1="26.0902" x2="95.201" y2="10.1906">
		<stop  offset="0" style="stop-color:#832525"/>
		<stop  offset="1" style="stop-color:#D23C3C"/>
	</linearGradient>
	<path class="st18" d="M95.7,26.1h-1c-0.8,0-1.5-0.7-1.5-1.5V11.7c0-0.8,0.7-1.5,1.5-1.5h1c0.8,0,1.5,0.7,1.5,1.5v12.9
		C97.2,25.4,96.5,26.1,95.7,26.1z"/>
	<linearGradient id="SVGID_23_" gradientUnits="userSpaceOnUse" x1="74.3544" y1="28.2425" x2="74.3544" y2="8.0383">
		<stop  offset="0" style="stop-color:#832525"/>
		<stop  offset="1" style="stop-color:#D23C3C"/>
	</linearGradient>
	<path class="st19" d="M74.9,28.2h-1c-0.8,0-1.5-0.7-1.5-1.5V9.5C72.3,8.7,73,8,73.8,8h1c0.8,0,1.5,0.7,1.5,1.5v17.2
		C76.4,27.6,75.7,28.2,74.9,28.2z"/>
	<linearGradient id="SVGID_24_" gradientUnits="userSpaceOnUse" x1="81.3033" y1="33.1968" x2="81.3033" y2="15.6337">
		<stop  offset="0" style="stop-color:#832525"/>
		<stop  offset="1" style="stop-color:#D23C3C"/>
	</linearGradient>
	<path class="st20" d="M81.8,33.2h-1c-0.8,0-1.5-0.7-1.5-1.5V17.1c0-0.8,0.7-1.5,1.5-1.5h1c0.8,0,1.5,0.7,1.5,1.5v14.6
		C83.3,32.5,82.6,33.2,81.8,33.2z"/>
</g>
</svg>
