<?xml version="1.0" encoding="utf-8"?>
<!-- Generator: Adobe Illustrator 25.0.0, SVG Export Plug-In . SVG Version: 6.00 Build 0)  -->
<svg version="1.1" id="Layer_1" xmlns="http://www.w3.org/2000/svg" xmlns:xlink="http://www.w3.org/1999/xlink" x="0px" y="0px"
	 viewBox="0 0 100 100" style="enable-background:new 0 0 100 100;" xml:space="preserve">
<style type="text/css">
	.st0{fill:#ef4444;}
</style>
<path class="st0" d="M0,0v19c17.5,0,35,0,52.5,0c6.8,0,12.1,5.2,12.2,12.1c0,1.5,0,3.1,0,4.8c1.8-1.4,3.4-2.6,5.1-3.9
	c3-2.3,6.1-4.6,9.1-7c0.8-0.6,1.6-0.5,2.3-0.1c0.8,0.3,1.2,0.9,1.2,1.8c0,7.7,0,15.4,0,23c0,7.4,0,14.8,0,22.2c0,1.7-0.5,2.3-2,2.5
	c-0.5,0.1-1.2-0.1-1.6-0.5c-4.4-3.4-8.8-6.8-13.2-10.2c-0.2-0.2-0.5-0.4-1-0.7c0,2.3,0.1,4.3,0,6.3c-0.3,5.1-4.7,9.8-9.9,10.5
	C53.8,79.9,52.9,80,52,80c-17.3,0-34.7,0-52,0v20h100V0H0z"/>
</svg>
