<?xml version="1.0" encoding="utf-8"?>
<!-- Generator: Adobe Illustrator 25.4.1, SVG Export Plug-In . SVG Version: 6.00 Build 0)  -->
<svg version="1.1" id="Layer_1" xmlns="http://www.w3.org/2000/svg" xmlns:xlink="http://www.w3.org/1999/xlink" x="0px" y="0px"
	 viewBox="0 0 100 100" style="enable-background:new 0 0 100 100;" xml:space="preserve">
<style type="text/css">
	.st0{fill:#FFFFFF;}
</style>
<g>
	<path class="st0" d="M11.4,48.1c-0.2,0.1-0.3,0.2-0.4,0.2L11.4,48.1z"/>
	<path class="st0" d="M96.2,63.6c0-0.5-0.1-0.9-0.1-1.4c0-0.1,0-0.1,0-0.2c-0.1-0.5-0.1-0.9-0.2-1.4c0-0.1,0-0.2,0-0.3
		c-0.1-0.5-0.1-0.8-0.2-1.3v-0.1c0-0.5-0.1-0.9-0.2-1.3c-0.1-0.5-0.2-0.8-0.3-1.2v-0.1v-0.1c-0.1-0.2-0.2-0.5-0.3-0.8v-0.1
		c0-0.1-0.1-0.4-0.2-0.6v-0.1v-0.1c-0.1-0.2-0.3-0.5-0.4-0.8c-0.1-0.2-0.1-0.3-0.2-0.4C94,53.2,94,53.1,93.9,53l0,0
		c-0.1-0.2-0.3-0.5-0.4-0.7c0,0,0,0,0,0l-0.1-0.1c0-0.1-0.1-0.1-0.1-0.2c-0.1-0.1-0.1-0.2-0.2-0.3l0,0c-0.3-0.4-0.6-0.6-1-0.8
		c0,0,0,0-0.1,0c-0.1,0-0.2-0.1-0.2-0.1c0,0,0,0-0.1,0c-0.2-0.1-0.5-0.1-0.7,0c0,0,0,0,0,0l-0.7-0.5c-0.1,0-0.2,0.1-0.3,0.1
		l-11.7,5.2l0-2.8c0-0.2,0-0.3,0-0.5c-0.1-0.2-0.1-0.3-0.1-0.5v-0.1c0-0.1,0-0.1,0-0.1c0-0.1,0-0.2,0-0.3c0-0.1-0.1-0.3-0.1-0.4
		c0-0.1-0.1-0.2-0.1-0.3c0-0.1,0-0.1,0-0.1c0-0.2-0.1-0.3-0.1-0.4c0-0.1-0.1-0.2-0.1-0.3c0-0.1-0.1-0.2-0.1-0.3
		c-0.1-0.1-0.1-0.2-0.2-0.3c-0.1-0.1-0.1-0.2-0.2-0.3s-0.1-0.2-0.2-0.3c-0.1-0.1-0.1-0.2-0.2-0.3c-0.1-0.1-0.1-0.2-0.2-0.3
		c0-0.1-0.1-0.2-0.2-0.3c-0.1-0.1-0.2-0.2-0.3-0.3c-0.1-0.1-0.2-0.2-0.3-0.3c-0.1-0.1-0.3-0.2-0.4-0.3c-0.2-0.1-0.3-0.3-0.5-0.4
		c-0.1-0.2-0.4-0.3-0.7-0.5c-0.1-0.1-0.1-0.1-0.2-0.1c-0.1,0-0.2-0.1-0.3-0.1c-0.1,0-0.2-0.1-0.3-0.1c-0.1,0-0.2-0.1-0.3-0.1
		c-0.1-0.1-0.1-0.1-0.2-0.1h-0.1c-0.2-0.1-0.4-0.2-0.7-0.2c-0.1,0-0.1,0-0.1,0l-38.5-5.4l23.5-6.3l-8.6-32L3.4,13.7l8.6,32l7.5-2
		l-8.1,4.4c0.1,0,0.1,0,0.2-0.1c0.2-0.1,0.4-0.2,0.7-0.2c0.1-0.1,0.4-0.1,0.7-0.1h0.1c0.2,0,0.5,0.1,0.8,0.1l42.1,6h0.1
		c0.2,0.1,0.5,0.1,0.7,0.2c0.1,0,0.2,0.1,0.3,0.1c0.1,0,0.2,0.1,0.3,0.1c0.1,0,0.2,0.1,0.3,0.1s0.2,0,0.3,0.1
		c0.2,0.1,0.5,0.3,0.8,0.5c0.1,0,0.1,0,0.1,0c0.6,0.5,1.2,1.1,1.6,1.7c-1.1-1.4-2.6-2.5-4.3-2.7l-42.3-6c-3.2-0.5-5.8,2-5.8,5.5
		l0.1,30.9c0,3.5,2.6,6.6,5.8,7.1l42.2,5.9c3.2,0.5,5.8-2,5.8-5.4V61c0-0.2,0-0.4,0-0.6c0,0.2,0,0.4,0,0.6l0.7,31.4
		c0,0.2,0,0.4,0,0.6c0,0.1,0,0.3,0,0.4c0,0.1-0.1,0.3-0.1,0.4c0,0.2-0.1,0.3-0.1,0.4c0,0.1-0.1,0.3-0.1,0.4c0,0.1-0.1,0.2-0.1,0.3
		c-0.1,0.1-0.1,0.3-0.2,0.4c-0.1,0.1-0.1,0.2-0.2,0.3c0,0.2-0.1,0.3-0.2,0.4c-0.1,0.1-0.1,0.2-0.2,0.3c-0.1,0.1-0.2,0.2-0.3,0.3
		c-0.1,0.1-0.1,0.1-0.2,0.2c-0.1,0.1-0.3,0.2-0.4,0.3c-0.1,0.1-0.1,0.2-0.2,0.2c-0.2,0.1-0.4,0.3-0.6,0.4l15.7-8.6
		c0.2-0.1,0.4-0.3,0.6-0.4c0,0,0.1-0.1,0.1-0.1c3.4,2.2,6.8,4.4,10.1,6.6c0.2,0.1,0.3,0.1,0.5,0.2h0c2.3,1.5,5.1-2.2,7.1-10
		c0,0,0-0.1,0-0.1c0-0.1,0.1-0.2,0.1-0.3c0.2-0.5,0.3-0.9,0.4-1.4c0-0.1,0-0.1,0-0.1c0.2-0.6,0.4-1.4,0.5-2.1c0-0.1,0-0.1,0-0.1
		c0.1-0.7,0.3-1.6,0.4-2.3v0.4c0.2-1,0.3-1.9,0.4-2.8v-0.1c0.1-0.6,0.1-1.1,0.2-1.7c0-0.1,0-0.1,0-0.2c0-0.6,0.1-1.1,0.1-1.7
		c0-0.1,0-0.1,0-0.2v-0.1c0-0.5,0.1-1,0.1-1.6c0-0.1,0-0.2,0-0.3c0.1-0.6,0.1-1.1,0.1-1.7s0-1,0-1.6c0-0.1,0-0.2,0-0.3
		c0-0.5,0-1,0-1.5c0-0.1,0-0.2,0-0.3c0-0.5-0.1-1-0.1-1.5C96.2,63.7,96.2,63.7,96.2,63.6z"/>
	<path class="st0" d="M60,42h1c0.8,0,1.5-0.6,1.5-1.4V10.3c0-0.8-0.7-1.5-1.5-1.5h-1c-0.8,0-1.5,0.7-1.5,1.5v30.2
		C58.5,41.3,59.2,42,60,42z"/>
	<path class="st0" d="M66.9,35.7h1c0.8,0,1.5-0.7,1.5-1.5V3.9c0-0.8-0.7-1.5-1.5-1.5h-1c-0.8,0-1.5,0.7-1.5,1.5v30.3
		C65.4,35,66.1,35.7,66.9,35.7z"/>
	<path class="st0" d="M87.8,42h1c0.8,0,1.5-0.6,1.5-1.4V10.3c0-0.8-0.7-1.5-1.5-1.5h-1c-0.8,0-1.5,0.7-1.5,1.5v30.2
		C86.3,41.3,87,42,87.8,42z"/>
	<path class="st0" d="M95.7,10.2h-1c-0.8,0-1.5,0.7-1.5,1.5v12.9c0,0.8,0.7,1.5,1.5,1.5h1c0.8,0,1.5-0.7,1.5-1.5V11.7
		C97.2,10.9,96.5,10.2,95.7,10.2z"/>
	<path class="st0" d="M72.4,26.7c0,0.8,0.7,1.5,1.5,1.5h1c0.8,0,1.5-0.6,1.4-1.5V9.5c0-0.8-0.7-1.5-1.5-1.5h-1
		c-0.8,0-1.5,0.7-1.4,1.5V26.7z"/>
	<path class="st0" d="M80.8,33.2h1c0.8,0,1.5-0.7,1.5-1.5V17.1c0-0.8-0.7-1.5-1.5-1.5h-1c-0.8,0-1.5,0.7-1.5,1.5v14.6
		C79.3,32.5,80,33.2,80.8,33.2z"/>
</g>
</svg>
