<?xml version="1.0" encoding="utf-8"?>
<!-- Generator: Adobe Illustrator 25.0.0, SVG Export Plug-In . SVG Version: 6.00 Build 0)  -->
<svg version="1.1" id="Layer_1" xmlns="http://www.w3.org/2000/svg" xmlns:xlink="http://www.w3.org/1999/xlink" x="0px" y="0px"
	 viewBox="0 0 100 100" style="enable-background:new 0 0 100 100;" xml:space="preserve">
<style type="text/css">
	.st0{enable-background:new    ;}
	.st1{clip-path:url(#SVGID_2_);enable-background:new    ;}
	.st2{fill:#9E2D2D;}
	.st3{fill:#992C2C;}
	.st4{fill:#942A2A;}
	.st5{fill:#8F2929;}
	.st6{fill:#8B2727;}
	.st7{fill:#862626;}
	.st8{fill:#812525;}
	.st9{fill:#7C2323;}
	.st10{fill:#7A2323;}
	.st11{clip-path:url(#SVGID_4_);enable-background:new    ;}
	.st12{clip-path:url(#SVGID_6_);enable-background:new    ;}
	.st13{fill:#A93030;}
	.st14{clip-path:url(#SVGID_8_);enable-background:new    ;}
	.st15{fill:#F95353;}
	.st16{clip-path:url(#SVGID_10_);enable-background:new    ;}
	.st17{clip-path:url(#SVGID_12_);enable-background:new    ;}
	.st18{fill:#9B2C2C;}
	.st19{clip-path:url(#SVGID_14_);enable-background:new    ;}
	.st20{clip-path:url(#SVGID_16_);enable-background:new    ;}
</style>
<g>
	<g class="st0">
		<g class="st0">
			<defs>
				<path id="SVGID_1_" class="st0" d="M77.9,71l-3.6-2c2.9-0.4,5.3-3.3,5.3-6.5l3.6,2C83.3,67.7,80.9,70.6,77.9,71z"/>
			</defs>
			<clipPath id="SVGID_2_">
				<use xlink:href="#SVGID_1_"  style="overflow:visible;"/>
			</clipPath>
			<g class="st1">
				<path class="st2" d="M77.9,71l-3.6-2c0.5-0.1,1.1-0.2,1.6-0.5l3.6,2C79,70.8,78.5,70.9,77.9,71"/>
				<path class="st3" d="M79.5,70.5l-3.6-2c0.3-0.1,0.6-0.3,0.9-0.5l3.6,2C80.1,70.2,79.8,70.4,79.5,70.5"/>
				<path class="st4" d="M80.4,70l-3.6-2c0.2-0.2,0.4-0.3,0.6-0.5l3.6,2C80.8,69.7,80.6,69.9,80.4,70"/>
				<path class="st5" d="M81,69.5l-3.6-2c0.2-0.2,0.4-0.4,0.5-0.6l3.6,2C81.4,69.2,81.2,69.4,81,69.5"/>
				<path class="st6" d="M81.5,69l-3.6-2c0.2-0.2,0.3-0.4,0.5-0.6l3.6,2C81.9,68.6,81.7,68.8,81.5,69"/>
				<path class="st7" d="M82,68.4l-3.6-2c0.2-0.2,0.3-0.5,0.4-0.7l3.6,2C82.3,67.9,82.2,68.1,82,68.4"/>
				<path class="st8" d="M82.5,67.7l-3.6-2c0.2-0.3,0.3-0.6,0.4-0.9l3.6,2C82.8,67.1,82.6,67.4,82.5,67.7"/>
				<path class="st9" d="M82.9,66.8l-3.6-2c0.3-0.7,0.4-1.5,0.4-2.3l3.6,2C83.3,65.3,83.1,66,82.9,66.8"/>
			</g>
		</g>
		<g>
			<polygon class="st10" points="83.3,64.5 79.6,62.5 79.7,26.9 83.3,28.9 			"/>
		</g>
		<g class="st0">
			<defs>
				<path id="SVGID_3_" class="st0" d="M77.2,22.4l3.6,2c1.5,0.8,2.5,2.5,2.5,4.5l-3.6-2C79.7,24.9,78.7,23.2,77.2,22.4z"/>
			</defs>
			<clipPath id="SVGID_4_">
				<use xlink:href="#SVGID_3_"  style="overflow:visible;"/>
			</clipPath>
			<g class="st11">
				<path class="st9" d="M83.3,28.9l-3.6-2c0-2-1-3.7-2.5-4.5l3.6,2C82.4,25.2,83.4,26.9,83.3,28.9"/>
			</g>
		</g>
		<g class="st0">
			<defs>
				<path id="SVGID_5_" class="st0" d="M82.9,11.9l3.6,2c-2.5-1.3-5.4-1.9-8.5-1.5l-3.6-2C77.5,10,80.5,10.5,82.9,11.9z"/>
			</defs>
			<clipPath id="SVGID_6_">
				<use xlink:href="#SVGID_5_"  style="overflow:visible;"/>
			</clipPath>
			<g class="st12">
				<path class="st2" d="M78,12.4l-3.6-2c1.9-0.3,3.8-0.2,5.5,0.3l3.6,2C81.8,12.2,80,12.1,78,12.4"/>
				<path class="st3" d="M83.6,12.7l-3.6-2c0.9,0.2,1.7,0.5,2.5,0.9l3.6,2C85.3,13.2,84.4,12.9,83.6,12.7"/>
				<path class="st4" d="M86.1,13.6l-3.6-2c0.2,0.1,0.3,0.2,0.5,0.3l3.6,2C86.4,13.8,86.3,13.7,86.1,13.6"/>
			</g>
		</g>
		<g>
			<polygon class="st13" points="27.6,78.1 24,76.1 74.3,69 77.9,71 			"/>
		</g>
		<g class="st0">
			<defs>
				<path id="SVGID_7_" class="st0" d="M24.8,77.6l-3.6-2c0.8,0.4,1.8,0.6,2.8,0.5l3.6,2C26.6,78.2,25.6,78,24.8,77.6z"/>
			</defs>
			<clipPath id="SVGID_8_">
				<use xlink:href="#SVGID_7_"  style="overflow:visible;"/>
			</clipPath>
			<g class="st14">
				<path class="st4" d="M24.8,77.6l-3.6-2c0.1,0,0.1,0.1,0.2,0.1l3.6,2C24.9,77.6,24.8,77.6,24.8,77.6"/>
				<path class="st3" d="M25,77.7l-3.6-2c0.3,0.1,0.5,0.2,0.8,0.3l3.6,2C25.5,77.9,25.2,77.8,25,77.7"/>
				<path class="st2" d="M25.8,78l-3.6-2c0.6,0.1,1.2,0.2,1.8,0.1l3.6,2C27,78.2,26.4,78.1,25.8,78"/>
			</g>
		</g>
		<g>
			<polygon class="st13" points="27.7,19.4 24.1,17.5 74.4,10.4 78,12.4 			"/>
		</g>
		<g>
			<path class="st15" d="M78,12.4c8.8-1.2,16,5.5,16,15L94,63c0,9.5-7.2,18.3-16.1,19.5l-50.3,7.1c-8.8,1.2-16-5.5-16-15L11.7,39
				c0-9.5,7.2-18.3,16.1-19.5L78,12.4z M83.3,64.5l0.1-35.6c0-3.2-2.4-5.4-5.3-5L27.7,31c-2.9,0.4-5.3,3.3-5.3,6.5l-0.1,35.6
				c0,3.2,2.4,5.4,5.3,5L77.9,71C80.9,70.6,83.3,67.7,83.3,64.5"/>
		</g>
		<g class="st0">
			<path class="st10" d="M11.6,74.6L11.7,39c0-0.6,0-1.2,0.1-1.8c0-0.2,0.1-0.4,0.1-0.6c0-0.4,0.1-0.8,0.2-1.1
				c0-0.2,0.1-0.5,0.2-0.7c0.1-0.3,0.1-0.7,0.2-1c0.1-0.2,0.2-0.5,0.2-0.7c0.1-0.3,0.2-0.6,0.3-0.9c0-0.1,0.1-0.2,0.1-0.4
				c0.2-0.4,0.3-0.8,0.5-1.1c0.1-0.2,0.2-0.3,0.3-0.5c0.2-0.3,0.3-0.7,0.5-1c0.1-0.1,0.1-0.3,0.2-0.4c0.2-0.4,0.5-0.7,0.7-1.1
				c0-0.1,0.1-0.1,0.1-0.2c2.9-4.2,7.4-7.3,12.3-8l-3.6-2c-4.9,0.7-9.3,3.7-12.3,7.9l0,0c0,0,0,0,0,0.1c0,0.1-0.1,0.1-0.1,0.2
				c-0.2,0.4-0.5,0.7-0.7,1.1c-0.1,0.1-0.1,0.3-0.2,0.4c-0.1,0.1-0.1,0.2-0.2,0.4c-0.1,0.2-0.2,0.4-0.3,0.6
				c-0.1,0.2-0.2,0.3-0.3,0.5c-0.2,0.4-0.3,0.8-0.5,1.1c0,0.1-0.1,0.2-0.1,0.4c0,0,0,0,0,0.1c-0.1,0.3-0.2,0.6-0.3,0.9
				c-0.1,0.2-0.2,0.5-0.2,0.7c-0.1,0.3-0.2,0.7-0.2,1c-0.1,0.2-0.1,0.5-0.2,0.7c-0.1,0.4-0.1,0.8-0.2,1.1c0,0.2-0.1,0.4-0.1,0.6
				C8.1,35.8,8,36.4,8,37L8,72.6c0,6.1,3,11.1,7.4,13.6l3.6,2C14.6,85.7,11.6,80.7,11.6,74.6z"/>
			<path class="st6" d="M15.5,27.4l-3.6-2c0.4-0.6,0.9-1.3,1.4-1.8l3.6,2C16.4,26.1,15.9,26.7,15.5,27.4"/>
			<path class="st5" d="M16.9,25.5l-3.6-2c0.5-0.6,1.1-1.1,1.6-1.7l3.6,2C18,24.4,17.4,25,16.9,25.5"/>
			<path class="st4" d="M18.5,23.9l-3.6-2c0.6-0.6,1.3-1.1,1.9-1.5l3.6,2C19.8,22.8,19.2,23.3,18.5,23.9"/>
			<path class="st3" d="M20.5,22.4l-3.6-2c0.8-0.6,1.7-1.1,2.6-1.5l3.6,2C22.2,21.3,21.3,21.8,20.5,22.4"/>
			<path class="st2" d="M23.1,20.8l-3.6-2c1.5-0.7,3-1.2,4.7-1.4l3.6,2C26.1,19.7,24.6,20.2,23.1,20.8"/>
		</g>
	</g>
</g>
<g>
	<g class="st0">
		<g class="st0">
			<defs>
				<path id="SVGID_9_" class="st0" d="M64.2,44.3l3.6,2c-0.1-0.1-0.3-0.1-0.5-0.2l-3.6-2C63.9,44.2,64.1,44.2,64.2,44.3z"/>
			</defs>
			<clipPath id="SVGID_10_">
				<use xlink:href="#SVGID_9_"  style="overflow:visible;"/>
			</clipPath>
			<g class="st16">
				<path class="st3" d="M67.4,46.1l-3.6-2c0.1,0,0.2,0.1,0.4,0.1l3.6,2C67.6,46.2,67.5,46.1,67.4,46.1"/>
				<path class="st4" d="M67.7,46.2l-3.6-2c0,0,0.1,0,0.1,0.1l3.6,2C67.8,46.3,67.8,46.3,67.7,46.2"/>
			</g>
		</g>
		<g class="st0">
			<defs>
				<path id="SVGID_11_" class="st0" d="M40.8,67.9l-3.6-2c-0.9-0.5-1.5-1.5-1.5-2.8l3.6,2C39.2,66.5,39.9,67.4,40.8,67.9z"/>
			</defs>
			<clipPath id="SVGID_12_">
				<use xlink:href="#SVGID_11_"  style="overflow:visible;"/>
			</clipPath>
			<g class="st17">
				<path class="st9" d="M40.8,67.9l-3.6-2c-0.9-0.5-1.5-1.5-1.5-2.8l3.6,2C39.2,66.5,39.9,67.4,40.8,67.9"/>
			</g>
		</g>
		<g>
			<polygon class="st18" points="43.9,38.2 40.2,36.2 63.7,44.1 67.4,46.1 			"/>
		</g>
		<g class="st0">
			<defs>
				<path id="SVGID_13_" class="st0" d="M42.6,38.1l-3.6-2c0.4-0.1,0.9,0,1.3,0.1l3.6,2C43.4,38.1,43,38,42.6,38.1z"/>
			</defs>
			<clipPath id="SVGID_14_">
				<use xlink:href="#SVGID_13_"  style="overflow:visible;"/>
			</clipPath>
			<g class="st19">
				<path class="st2" d="M42.6,38.1l-3.6-2c0.4-0.1,0.8,0,1.1,0.1l3.6,2C43.3,38,42.9,38,42.6,38.1"/>
				<path class="st3" d="M43.7,38.1l-3.6-2c0.1,0,0.1,0,0.2,0.1l3.6,2C43.8,38.2,43.7,38.2,43.7,38.1"/>
			</g>
		</g>
		<g>
			<polygon class="st10" points="39.2,65.2 35.6,63.2 35.6,40.1 39.3,42.1 			"/>
		</g>
		<g>
			<path class="st15" d="M42.6,38.1c0.4-0.1,0.9,0,1.3,0.1l23.5,7.9c2.6,0.9,2.6,4.8,0.1,6.4L43.9,67.7c-0.5,0.3-0.9,0.5-1.4,0.5
				c-1.7,0.2-3.2-1-3.2-3.1l0-23.1C39.3,40,40.8,38.3,42.6,38.1z"/>
		</g>
		<g class="st0">
			<defs>
				<path id="SVGID_15_" class="st0" d="M39.3,42.1l-3.6-2c0-2,1.5-3.7,3.3-4l3.6,2C40.8,38.3,39.3,40,39.3,42.1z"/>
			</defs>
			<clipPath id="SVGID_16_">
				<use xlink:href="#SVGID_15_"  style="overflow:visible;"/>
			</clipPath>
			<g class="st20">
				<path class="st9" d="M39.3,42.1l-3.6-2c0-0.5,0.1-1,0.2-1.4l3.6,2C39.4,41.1,39.3,41.6,39.3,42.1"/>
				<path class="st8" d="M39.5,40.7l-3.6-2c0.1-0.2,0.2-0.4,0.2-0.5l3.6,2C39.7,40.3,39.6,40.5,39.5,40.7"/>
				<path class="st7" d="M39.8,40.1l-3.6-2c0.1-0.1,0.2-0.3,0.3-0.4l3.6,2C40,39.8,39.9,40,39.8,40.1"/>
				<path class="st6" d="M40,39.7l-3.6-2c0.1-0.1,0.2-0.3,0.3-0.4l3.6,2C40.2,39.4,40.1,39.6,40,39.7"/>
				<path class="st5" d="M40.3,39.3l-3.6-2c0.1-0.1,0.2-0.2,0.3-0.3l3.6,2C40.6,39.1,40.4,39.2,40.3,39.3"/>
				<path class="st4" d="M40.7,39L37,37c0.1-0.1,0.3-0.2,0.4-0.3l3.6,2C40.9,38.8,40.8,38.9,40.7,39"/>
				<path class="st3" d="M41.1,38.7l-3.6-2c0.2-0.1,0.4-0.2,0.5-0.3l3.6,2C41.4,38.5,41.2,38.6,41.1,38.7"/>
				<path class="st2" d="M41.6,38.4l-3.6-2c0.3-0.1,0.6-0.2,0.9-0.3l3.6,2C42.2,38.1,41.9,38.2,41.6,38.4"/>
			</g>
		</g>
	</g>
</g>
</svg>
