<?xml version="1.0" encoding="utf-8"?>
<!-- Generator: Adobe Illustrator 25.4.1, SVG Export Plug-In . SVG Version: 6.00 Build 0)  -->
<svg version="1.1" id="Layer_1" xmlns="http://www.w3.org/2000/svg" xmlns:xlink="http://www.w3.org/1999/xlink" x="0px" y="0px"
	 viewBox="0 0 100 100" style="enable-background:new 0 0 100 100;" xml:space="preserve">
<style type="text/css">
	.st0{fill:#FFFFFF;}
</style>
<g>
	<path class="st0" d="M86.3,13.8l-0.8-0.4c0.1,0.1,0.3,0.1,0.4,0.2l0.7,0.4c-0.2-0.1-0.3-0.2-0.5-0.3l-3.6-2
		c-0.8-0.4-1.6-0.7-2.5-0.9l0.1,0c-0.3-0.1-0.7-0.2-1-0.2c-1.5-0.3-3-0.3-4.6-0.1l-50.1,7.1l-0.1-0.1c-1.7,0.2-3.2,0.7-4.7,1.4
		l0.1,0.1c0,0-0.1,0-0.1,0l0,0c0,0-0.1,0-0.1,0c-0.3,0.2-0.6,0.3-1,0.5c-0.2,0.1-0.4,0.2-0.6,0.4c-0.3,0.2-0.7,0.4-1,0.6l0,0
		c-0.6,0.4-1.2,0.9-1.8,1.4l-0.1,0c-0.5,0.6-1.1,1.1-1.6,1.7l0,0c-0.5,0.6-1.1,1.2-1.5,1.9c0,0,0,0,0,0.1s-0.1,0.1-0.1,0.2
		c-0.2,0.4-0.5,0.7-0.7,1.1c-0.1,0.1-0.1,0.3-0.2,0.4c-0.1,0.1-0.1,0.2-0.2,0.4c-0.1,0.2-0.2,0.4-0.3,0.6c-0.1,0.2-0.2,0.3-0.3,0.5
		c-0.2,0.4-0.3,0.8-0.5,1.1c0,0.1-0.1,0.2-0.1,0.4c0,0,0,0,0,0.1c-0.1,0.3-0.2,0.6-0.3,0.9c-0.1,0.2-0.2,0.5-0.2,0.7
		c-0.1,0.3-0.2,0.7-0.2,1c-0.1,0.2-0.1,0.5-0.2,0.7c-0.1,0.4-0.1,0.8-0.2,1.1c0,0.2-0.1,0.4-0.1,0.6C8.1,35.8,8,36.4,8,37v35.6
		c0,6.1,3,11.1,7.4,13.6l3.6,2c-2.7-1.5-4.8-3.9-6.1-7c2.5,5.8,8.1,9.3,14.7,8.4l50.3-7.1C86.8,81.3,94,72.5,94,63V27.4
		C94,21.2,90.9,16.2,86.3,13.8z M11.8,37.5c0,0.5-0.1,1-0.1,1.5C11.7,38.5,11.7,38,11.8,37.5z M80.6,69.8c-0.2,0.1-0.4,0.3-0.6,0.4
		C80.3,70.1,80.5,70,80.6,69.8z M27.6,19.4c0.1,0,0.1,0,0.2,0l0,0l50.2-7l-50.2,7.1c-0.4,0.1-0.9,0.2-1.3,0.3
		c0.4-0.1,0.8-0.2,1.2-0.3L27.6,19.4z M22.3,21.3c0.1,0,0.1-0.1,0.2-0.1C22.4,21.3,22.3,21.3,22.3,21.3
		C22.2,21.3,22.3,21.3,22.3,21.3z M24.5,77.4l0.3,0.2c0,0,0.1,0,0.1,0l0.1,0.1c0.2,0.1,0.5,0.2,0.8,0.3
		C25.3,77.9,24.9,77.7,24.5,77.4z M25.9,78c0.4,0.1,0.8,0.1,1.3,0.1C26.7,78.2,26.3,78.1,25.9,78z M77.9,66.9c0,0.1-0.1,0.2-0.2,0.3
		c-0.5,0.5-1.1,1-1.7,1.3c0,0-0.1,0-0.1,0.1c-0.1,0-0.1,0.1-0.2,0.1c-0.2,0.1-0.5,0.2-0.8,0.3c-0.2,0.1-0.5,0.1-0.7,0.1L24,76.1
		c-0.3,0-0.6,0-0.8,0c-0.5-0.8-0.9-1.8-0.9-3l0.1-35.6c0-3.2,2.4-6.1,5.3-6.5l50.4-7.1c0.2,0,0.5,0,0.7,0c0.6,0.8,0.9,1.9,0.9,3
		l-0.1,35.6l0,0C79.6,64.2,79,65.7,77.9,66.9L77.9,66.9z M79.7,62.6C79.7,62.6,79.7,62.6,79.7,62.6L79.7,62.6L79.7,62.6z M78.4,70.9
		c0,0,0.1,0,0.1,0C78.5,70.9,78.4,70.9,78.4,70.9C78.4,70.9,78.4,70.9,78.4,70.9z M79,70.7C79,70.7,79,70.7,79,70.7
		C79,70.7,79,70.7,79,70.7C79,70.7,79,70.7,79,70.7z M79.2,70.7c0.2-0.1,0.5-0.2,0.7-0.3C79.7,70.4,79.4,70.6,79.2,70.7
		C79.2,70.7,79.2,70.7,79.2,70.7z M80.7,69.8C80.7,69.8,80.7,69.8,80.7,69.8c0.2-0.1,0.4-0.3,0.5-0.5c0,0,0,0,0,0
		C81.1,69.5,80.9,69.6,80.7,69.8z M81.3,69.3C81.3,69.3,81.3,69.3,81.3,69.3c0.1-0.1,0.2-0.3,0.3-0.4C81.5,69,81.4,69.2,81.3,69.3z
		 M81.8,68.7c0.2-0.3,0.5-0.7,0.7-1l0,0C82.3,68,82,68.4,81.8,68.7z M83.3,64.5V28.9c0.1-2-0.9-3.7-2.5-4.5l-0.5-0.3
		c1.8,0.6,3.1,2.4,3.1,4.8L83.3,64.5z M83,66.5c0.1-0.4,0.2-0.8,0.3-1.3C83.2,65.7,83.1,66.1,83,66.5z"/>
	<path class="st0" d="M39.3,42.1l-3.7-2v23.1l0.1,0.1c0.1,1.2,0.6,2.2,1.5,2.6l3.6,2c-0.9-0.5-1.6-1.4-1.5-2.8L39.2,65L39.3,42.1z"
		/>
	<path class="st0" d="M67.8,46.3C67.7,46.2,67.7,46.2,67.8,46.3l-0.1-0.1C67.7,46.2,67.7,46.2,67.8,46.3l-3.6-2.1
		c-0.2,0-0.3-0.1-0.4-0.1l0.2,0.1c-0.1,0-0.2,0-0.3-0.1l-23.2-7.8l-0.2-0.1c-0.1-0.1-0.1-0.1-0.2-0.1l0.2,0.1
		c-0.3-0.1-0.6-0.1-1-0.1c-0.1,0-0.2,0-0.3,0c0,0,0,0-0.1,0l0,0c-0.1,0-0.3,0.1-0.4,0.1c-0.1,0-0.2,0-0.2,0.1
		c-0.1,0-0.2,0.1-0.3,0.1c0,0-0.1,0.1-0.2,0.1c-0.1,0-0.1,0.1-0.2,0.1c-0.1,0-0.1,0.1-0.2,0.1l0,0c0,0,0,0,0,0l-0.1,0
		c-0.1,0.1-0.3,0.2-0.4,0.3l0.1,0c0,0,0,0,0,0L37,37c-0.1,0.1-0.2,0.2-0.3,0.3c-0.1,0.1-0.2,0.3-0.3,0.4l0.1,0
		c-0.1,0.1-0.2,0.3-0.3,0.4l0,0c0,0,0,0.1-0.1,0.1l-0.1,0c0,0.1-0.1,0.3-0.2,0.5c-0.1,0.4-0.2,0.9-0.2,1.4l3.6,2v23
		c0,2.1,1.5,3.3,3.2,3.1c0.5,0,0.9-0.2,1.4-0.5l23.6-15.2C69.9,51,70,47.4,67.8,46.3z"/>
</g>
</svg>
